ply
format ascii 1.0
comment VCGLIB generated
comment TextureFile Dungeons_2_Texture_01_A.png
element vertex 220
property float x
property float y
property float z
property float nx
property float ny
property float nz
property uchar red
property uchar green
property uchar blue
property uchar alpha
property float texture_u
property float texture_v
element face 98
property list uchar int vertex_indices
end_header
-136.471 3.37583 -243.058 0 0.899297 -0.437338 255 255 255 255 0.130095 0.541419
-250 -4.1e-05 -250 0 0.899297 -0.437338 255 255 255 255 0.210795 0.536776
-243.063 3.37583 -243.058 0 0.899297 -0.437338 255 255 255 255 0.205952 0.541686
-243.063 3.37586 -97.4177 -0.437581 0.899179 -0 255 255 255 255 0.204987 0.644052
-250 0 1.9e-05 -0.437581 0.899179 -0 255 255 255 255 0.20904 0.712037
-243.063 3.37587 -6.93319 -0.437581 0.899179 -0 255 255 255 255 0.204387 0.707651
3.3e-05 0 1.9e-05 0 0.899084 0.437776 255 255 255 255 0.035265 0.711438
-243.063 3.37587 -6.93319 0 0.899084 0.437776 255 255 255 255 0.204387 0.707651
-250 0 1.9e-05 0 0.899084 0.437776 255 255 255 255 0.20904 0.712037
3.3e-05 -2.3e-05 -142.581 0.437581 0.899179 -0 255 255 255 255 0.034113 0.611467
-6.93699 3.37583 -243.058 0.437581 0.899179 -0 255 255 255 255 0.037911 0.541094
-6.93699 3.37585 -142.274 0.437581 0.899179 -0 255 255 255 255 0.038688 0.611942
-22.7222 3.37584 -195.755 0 1 -0 255 255 255 255 0.044523 0.824262
-6.93699 3.37583 -243.058 0 1 -0 255 255 255 255 0.032964 0.790426
-54.245 3.37584 -227.273 0 1 -0 255 255 255 255 0.066711 0.801853
-195.755 3.37584 -227.273 -0 1 -0 255 255 255 255 0.16728 0.802206
-243.063 3.37583 -243.058 -0 1 -0 255 255 255 255 0.201005 0.791017
-227.278 3.37584 -195.755 -0 1 -0 255 255 255 255 0.189499 0.82477
-103.795 3.37596 -235.385 -2e-06 1 2.6e-05 255 255 255 255 0.101926 0.796165
-108.289 3.37583 -230.885 -2e-06 1 2.6e-05 255 255 255 255 0.102911 0.80198
-54.245 3.37584 -227.273 -2e-06 1 2.6e-05 255 255 255 255 0.066711 0.801853
-227.278 3.37586 -54.244 0 1 -0 255 255 255 255 0.188697 0.924229
-243.063 3.37587 -6.93319 0 1 -0 255 255 255 255 0.19944 0.956982
-195.755 3.37587 -22.7203 0 1 -0 255 255 255 255 0.166512 0.945981
-243.063 3.37584 -182.967 -2e-06 1 -3e-06 255 255 255 255 0.200612 0.8327
-232.876 3.37598 -138.043 -2e-06 1 -3e-06 255 255 255 255 0.193108 0.865154
-227.278 3.37584 -195.755 -2e-06 1 -3e-06 255 255 255 255 0.189499 0.82477
-22.7222 3.37586 -54.244 -0 1 -0 255 255 255 255 0.045477 0.923733
-54.245 3.37587 -22.7203 -0 1 -0 255 255 255 255 0.067699 0.94564
-6.93699 3.37587 -6.93319 -0 1 -0 255 255 255 255 0.034783 0.956415
-105.093 1.48892 -215.008 -0 1 -0 255 255 255 255 0.109021 0.559753
-107.762 1.48895 -30.2463 -0 1 -0 255 255 255 255 0.107835 0.689364
-27.5547 1.48893 -141.306 -0 1 -0 255 255 255 255 0.053413 0.61267
-243.063 3.37587 -6.93319 0 1 1.6e-05 255 255 255 255 0.19944 0.956982
-6.93699 3.37587 -6.93319 0 1 1.6e-05 255 255 255 255 0.034783 0.956415
-106.448 3.376 -14.8718 0 1 1.6e-05 255 255 255 255 0.103912 0.948471
-6.93699 3.37585 -142.274 0 1 -0 255 255 255 255 0.03374 0.861274
-22.7222 3.37584 -180.824 0 1 -0 255 255 255 255 0.044623 0.834757
-54.245 3.37584 -227.273 -0.110797 0.987646 0.110814 255 255 255 255 0.071658 0.552521
-32.6633 1.48892 -188.877 -0.110797 0.987646 0.110814 255 255 255 255 0.056706 0.579814
-22.7222 3.37584 -195.755 -0.110797 0.987646 0.110814 255 255 255 255 0.04947 0.574931
-108.289 3.37583 -230.885 -0.011933 0.98386 0.178542 255 255 255 255 0.107858 0.552649
-61.1229 1.48892 -217.335 -0.011933 0.98386 0.178542 255 255 255 255 0.076709 0.55964
-54.245 3.37584 -227.273 -0.011933 0.98386 0.178542 255 255 255 255 0.071658 0.552521
-195.755 3.37584 -227.273 0.11083 0.98764 0.110837 255 255 255 255 0.172227 0.552875
-217.339 1.48892 -188.877 0.11083 0.98764 0.110837 255 255 255 255 0.187322 0.580271
-188.879 1.48892 -217.335 0.11083 0.98764 0.110837 255 255 255 255 0.167291 0.559958
-227.278 3.37584 -195.755 0.186515 0.982452 -0 255 255 255 255 0.194446 0.575439
-217.339 1.48893 -138.731 0.186515 0.982452 -0 255 255 255 255 0.187068 0.615464
-217.339 1.48892 -188.877 0.186515 0.982452 -0 255 255 255 255 0.187322 0.580271
-227.278 3.37586 -54.244 0.110815 0.987643 -0.110818 255 255 255 255 0.193644 0.674897
-188.879 1.48895 -32.6633 0.110815 0.987643 -0.110818 255 255 255 255 0.166675 0.689568
-217.339 1.48894 -61.1219 0.110815 0.987643 -0.110818 255 255 255 255 0.186676 0.66993
-148.133 3.37587 -22.7203 0 0.982465 -0.186446 255 255 255 255 0.138206 0.696535
-188.879 1.48895 -32.6633 0 0.982465 -0.186446 255 255 255 255 0.166675 0.689568
-195.755 3.37587 -22.7203 0 0.982465 -0.186446 255 255 255 255 0.171459 0.696649
-22.7222 3.37586 -54.244 -0.110794 0.987649 -0.11079 255 255 255 255 0.050425 0.674401
-61.1229 1.48895 -32.6633 -0.110794 0.987649 -0.11079 255 255 255 255 0.077521 0.68926
-54.245 3.37587 -22.7203 -0.110794 0.987649 -0.11079 255 255 255 255 0.072646 0.696308
-22.7222 3.37586 -93.8822 -0.186481 0.982459 -0 255 255 255 255 0.050157 0.646539
-32.6633 1.48894 -61.1219 -0.186481 0.982459 -0 255 255 255 255 0.057489 0.669482
-22.7222 3.37586 -54.244 -0.186481 0.982459 -0 255 255 255 255 0.050425 0.674401
-96.6822 -4.1e-05 -250 0 0 -1 255 255 255 255 0.103212 0.538861
3.3e-05 -22.7988 -250 0 0 -1 255 255 255 255 0.035424 0.536528
-250 -22.7988 -250 0 0 -1 255 255 255 255 0.209842 0.537142
3.3e-05 -2.3e-05 -142.581 1 -0 0 255 255 255 255 0.034113 0.611467
3.3e-05 -22.7988 2.3e-05 1 -0 0 255 255 255 255 0.037363 0.708779
3.3e-05 -22.7988 -250 1 -0 0 255 255 255 255 0.035424 0.536528
-250 -2.3e-05 -142.161 -1 0 -0 255 255 255 255 0.210038 0.612376
-250 -22.7988 -250 -1 0 -0 255 255 255 255 0.209842 0.537142
-250 -22.7988 2.3e-05 -1 0 -0 255 255 255 255 0.208137 0.709368
-250 0 1.9e-05 0 0 1 255 255 255 255 0.20904 0.712037
3.3e-05 -22.7988 2.3e-05 0 0 1 255 255 255 255 0.037363 0.708779
3.3e-05 0 1.9e-05 0 0 1 255 255 255 255 0.035265 0.711438
-250 -22.7988 -250 0 -1 0 255 255 255 255 0.209842 0.537142
3.3e-05 -22.7988 2.3e-05 0 -1 0 255 255 255 255 0.037363 0.708779
-250 -22.7988 2.3e-05 0 -1 0 255 255 255 255 0.208137 0.709368
-72.0956 3.37587 -22.7203 -0.010226 0.980286 -0.197317 255 255 255 255 0.085111 0.696351
-61.1229 1.48895 -32.6633 -0.010226 0.980286 -0.197317 255 255 255 255 0.077521 0.68926
-107.762 1.48895 -30.2463 -0.010226 0.980286 -0.197317 255 255 255 255 0.107835 0.689364
-107.762 1.48895 -30.2463 0.023298 0.99204 -0.123753 255 255 255 255 0.107835 0.689364
-148.133 3.37587 -22.7203 0.023298 0.99204 -0.123753 255 255 255 255 0.138206 0.696535
-106.448 3.376 -14.8718 0.023298 0.99204 -0.123753 255 255 255 255 0.10886 0.69914
-107.762 1.48895 -30.2463 -0.027294 0.992461 -0.119481 255 255 255 255 0.107835 0.689364
-106.448 3.376 -14.8718 -0.027294 0.992461 -0.119481 255 255 255 255 0.10886 0.69914
-72.0956 3.37587 -22.7203 -0.027294 0.992461 -0.119481 255 255 255 255 0.085111 0.696351
-243.063 3.37586 -97.4177 -0.300504 0.9508 -0.075349 255 255 255 255 0.204987 0.644052
-232.876 3.37598 -138.043 -0.300504 0.9508 -0.075349 255 255 255 255 0.198055 0.615823
-243.063 -2.3e-05 -140.016 -0.300504 0.9508 -0.075349 255 255 255 255 0.205269 0.614111
-250 -4.1e-05 -250 -0.437581 0.899179 -0 255 255 255 255 0.210795 0.536776
-243.063 3.37584 -182.967 -0.437581 0.899179 -0 255 255 255 255 0.205559 0.583369
-243.063 3.37583 -243.058 -0.437581 0.899179 -0 255 255 255 255 0.205952 0.541686
-243.063 -2.3e-05 -140.016 0.024413 0.996578 -0.078977 255 255 255 255 0.205269 0.614111
-250 -2.3e-05 -142.161 0.024413 0.996578 -0.078977 255 255 255 255 0.210038 0.612376
-243.063 3.37586 -97.4177 0.024413 0.996578 -0.078977 255 255 255 255 0.204987 0.644052
-243.063 -2.3e-05 -140.016 -0.326611 0.942253 0.074059 255 255 255 255 0.205269 0.614111
-232.876 3.37598 -138.043 -0.326611 0.942253 0.074059 255 255 255 255 0.198055 0.615823
-243.063 3.37584 -182.967 -0.326611 0.942253 0.074059 255 255 255 255 0.205559 0.583369
-243.063 3.37584 -182.967 -0.024214 0.996633 0.078333 255 255 255 255 0.205559 0.583369
-250 -2.3e-05 -142.161 -0.024214 0.996633 0.078333 255 255 255 255 0.210038 0.612376
-243.063 -2.3e-05 -140.016 -0.024214 0.996633 0.078333 255 255 255 255 0.205269 0.614111
-230.563 3.37586 -87.9075 0 1 -0 255 255 255 255 0.189176 0.864798
-243.063 3.37586 -97.4177 0 1 -0 255 255 255 255 0.20004 0.893383
-230.563 3.37586 -87.9075 0.141254 0.989973 -0 255 255 255 255 0.194123 0.615466
-217.339 1.48894 -61.1219 0.141254 0.989973 -0 255 255 255 255 0.186676 0.66993
-217.339 1.48893 -138.731 0.141254 0.989973 -0 255 255 255 255 0.187068 0.615464
-136.471 3.37583 -243.058 0.04761 0.978071 -0.202755 255 255 255 255 0.130095 0.541419
-103.795 3.37596 -235.385 0.04761 0.978071 -0.202755 255 255 255 255 0.106873 0.546834
-96.6822 -4.1e-05 -250 0.04761 0.978071 -0.202755 255 255 255 255 0.103212 0.538861
3.3e-05 -4.1e-05 -250 0 0.899297 -0.437338 255 255 255 255 0.033245 0.536151
-60.9024 3.37583 -243.058 0 0.899297 -0.437338 255 255 255 255 0.076316 0.541229
-6.93699 3.37583 -243.058 0 0.899297 -0.437338 255 255 255 255 0.037911 0.541094
-96.6822 -4.1e-05 -250 -0.043837 0.968518 -0.245055 255 255 255 255 0.103212 0.538861
-103.795 3.37596 -235.385 -0.043837 0.968518 -0.245055 255 255 255 255 0.106873 0.546834
-60.9024 3.37583 -243.058 -0.043837 0.968518 -0.245055 255 255 255 255 0.076316 0.541229
-22.7222 3.37586 -93.8822 -0.147338 0.988787 -0.024329 255 255 255 255 0.050157 0.646539
-15.079 3.37598 -140.166 -0.147338 0.988787 -0.024329 255 255 255 255 0.044408 0.613722
-27.5547 1.48893 -141.306 -0.147338 0.988787 -0.024329 255 255 255 255 0.053413 0.61267
-22.7222 3.37584 -180.824 -0.203494 0.978832 0.021853 255 255 255 255 0.04957 0.585426
-32.6633 1.48892 -188.877 -0.203494 0.978832 0.021853 255 255 255 255 0.056706 0.579814
-27.5547 1.48893 -141.306 -0.203494 0.978832 0.021853 255 255 255 255 0.053413 0.61267
-27.5547 1.48893 -141.306 -0.152048 0.98796 0.02858 255 255 255 255 0.053413 0.61267
-15.079 3.37598 -140.166 -0.152048 0.98796 0.02858 255 255 255 255 0.044408 0.613722
-22.7222 3.37584 -180.824 -0.152048 0.98796 0.02858 255 255 255 255 0.04957 0.585426
-22.7222 3.37586 -93.8822 -0 1 -0 255 255 255 255 0.04521 0.89587
-6.93699 3.37587 -6.93319 0.437581 0.899179 -0 255 255 255 255 0.03973 0.707083
3.3e-05 0 1.9e-05 0.437581 0.899179 -0 255 255 255 255 0.035265 0.711438
-136.471 3.37583 -243.058 0 1 -0 255 255 255 255 0.125148 0.79075
-108.289 3.37583 -230.885 -0.003295 0.992928 0.118669 255 255 255 255 0.107858 0.552649
-188.879 1.48892 -217.335 -0.003295 0.992928 0.118669 255 255 255 255 0.167291 0.559958
-105.093 1.48892 -215.008 -0.003295 0.992928 0.118669 255 255 255 255 0.109021 0.559753
-96.6822 -4.1e-05 -250 0 0.899297 -0.437338 255 255 255 255 0.103212 0.538861
-250 -2.3e-05 -142.161 -0.437581 0.899179 -0 255 255 255 255 0.210038 0.612376
-6.93699 3.37587 -6.93319 -0 0.899084 0.437776 255 255 255 255 0.03973 0.707083
3.3e-05 -4.1e-05 -250 0.437581 0.899179 -0 255 255 255 255 0.033245 0.536151
-60.9024 3.37583 -243.058 0 1 -0 255 255 255 255 0.071369 0.790561
-60.9024 3.37583 -243.058 3e-06 1 -1e-06 255 255 255 255 0.071369 0.790561
-103.795 3.37596 -235.385 3e-06 1 -1e-06 255 255 255 255 0.101926 0.796165
-54.245 3.37584 -227.273 3e-06 1 -1e-06 255 255 255 255 0.066711 0.801853
-243.063 3.37584 -182.967 0 1 -0 255 255 255 255 0.200612 0.8327
-232.876 3.37598 -138.043 3.3e-05 1 1e-06 255 255 255 255 0.193108 0.865154
-230.563 3.37586 -87.9075 3.3e-05 1 1e-06 255 255 255 255 0.189176 0.864798
-227.278 3.37584 -195.755 3.3e-05 1 1e-06 255 255 255 255 0.189499 0.82477
-32.6633 1.48892 -188.877 -0 1 -0 255 255 255 255 0.056706 0.579814
-188.879 1.48892 -217.335 0 1 -0 255 255 255 255 0.167291 0.559958
-217.339 1.48893 -138.731 0 1 -0 255 255 255 255 0.187068 0.615464
-61.1229 1.48892 -217.335 -0 1 -0 255 255 255 255 0.076709 0.55964
-61.1229 1.48895 -32.6633 0 1 -0 255 255 255 255 0.077521 0.68926
-32.6633 1.48894 -61.1219 0 1 -0 255 255 255 255 0.057489 0.669482
-188.879 1.48895 -32.6633 -0 1 -0 255 255 255 255 0.166675 0.689568
-217.339 1.48894 -61.1219 -0 1 -0 255 255 255 255 0.186676 0.66993
-217.339 1.48892 -188.877 0 1 -0 255 255 255 255 0.187322 0.580271
-72.0956 3.37587 -22.7203 0 1 -0 255 255 255 255 0.080164 0.945683
-106.448 3.376 -14.8718 -1e-06 1 -9e-06 255 255 255 255 0.103912 0.948471
-148.133 3.37587 -22.7203 -1e-06 1 -9e-06 255 255 255 255 0.133259 0.945866
-243.063 3.37587 -6.93319 -1e-06 1 -9e-06 255 255 255 255 0.19944 0.956982
-6.93699 3.37587 -6.93319 2e-06 1 -8e-06 255 255 255 255 0.034783 0.956415
-72.0956 3.37587 -22.7203 2e-06 1 -8e-06 255 255 255 255 0.080164 0.945683
-106.448 3.376 -14.8718 2e-06 1 -8e-06 255 255 255 255 0.103912 0.948471
-148.133 3.37587 -22.7203 0 1 -0 255 255 255 255 0.133259 0.945866
-22.7222 3.37584 -180.824 1.4e-05 1 -6e-06 255 255 255 255 0.044623 0.834757
-15.079 3.37598 -140.166 1.4e-05 1 -6e-06 255 255 255 255 0.039461 0.863053
-6.93699 3.37585 -142.274 1.4e-05 1 -6e-06 255 255 255 255 0.03374 0.861274
-54.245 3.37584 -227.273 -0.110818 0.987642 0.110825 255 255 255 255 0.071658 0.552521
-61.1229 1.48892 -217.335 -0.110818 0.987642 0.110825 255 255 255 255 0.076709 0.55964
-32.6633 1.48892 -188.877 -0.110818 0.987642 0.110825 255 255 255 255 0.056706 0.579814
-108.289 3.37583 -230.885 0.00618 0.993138 0.116787 255 255 255 255 0.107858 0.552649
-105.093 1.48892 -215.008 0.00618 0.993138 0.116787 255 255 255 255 0.109021 0.559753
-61.1229 1.48892 -217.335 0.00618 0.993138 0.116787 255 255 255 255 0.076709 0.55964
-195.755 3.37584 -227.273 0.110809 0.987643 0.110826 255 255 255 255 0.172227 0.552875
-227.278 3.37584 -195.755 0.110809 0.987643 0.110826 255 255 255 255 0.194446 0.575439
-217.339 1.48892 -188.877 0.110809 0.987643 0.110826 255 255 255 255 0.187322 0.580271
-227.278 3.37584 -195.755 0.159531 0.987181 0.00486 255 255 255 255 0.194446 0.575439
-230.563 3.37586 -87.9075 0.159531 0.987181 0.00486 255 255 255 255 0.194123 0.615466
-217.339 1.48893 -138.731 0.159531 0.987181 0.00486 255 255 255 255 0.187068 0.615464
-227.278 3.37586 -54.244 0.110806 0.987646 -0.110803 255 255 255 255 0.193644 0.674897
-195.755 3.37587 -22.7203 0.110806 0.987646 -0.110803 255 255 255 255 0.171459 0.696649
-188.879 1.48895 -32.6633 0.110806 0.987646 -0.110803 255 255 255 255 0.166675 0.689568
-148.133 3.37587 -22.7203 0.006296 0.977404 -0.211285 255 255 255 255 0.138206 0.696535
-107.762 1.48895 -30.2463 0.006296 0.977404 -0.211285 255 255 255 255 0.107835 0.689364
-188.879 1.48895 -32.6633 0.006296 0.977404 -0.211285 255 255 255 255 0.166675 0.689568
-22.7222 3.37586 -54.244 -0.110802 0.987646 -0.110806 255 255 255 255 0.050425 0.674401
-32.6633 1.48894 -61.1219 -0.110802 0.987646 -0.110806 255 255 255 255 0.057489 0.669482
-61.1229 1.48895 -32.6633 -0.110802 0.987646 -0.110806 255 255 255 255 0.077521 0.68926
-22.7222 3.37586 -93.8822 -0.233579 0.972224 -0.014882 255 255 255 255 0.050157 0.646539
-27.5547 1.48893 -141.306 -0.233579 0.972224 -0.014882 255 255 255 255 0.053413 0.61267
-32.6633 1.48894 -61.1219 -0.233579 0.972224 -0.014882 255 255 255 255 0.057489 0.669482
-250 -4.1e-05 -250 -0 -0 -1 255 255 255 255 0.210795 0.536776
3.3e-05 -4.1e-05 -250 0 0 -1 255 255 255 255 0.033245 0.536151
3.3e-05 -4.1e-05 -250 1 0 0 255 255 255 255 0.033245 0.536151
3.3e-05 0 1.9e-05 1 0 0 255 255 255 255 0.035265 0.711438
-250 0 1.9e-05 -1 0 0 255 255 255 255 0.20904 0.712037
-250 -4.1e-05 -250 -1 0 0 255 255 255 255 0.210795 0.536776
-250 -22.7988 2.3e-05 0 0 1 255 255 255 255 0.208137 0.709368
3.3e-05 -22.7988 -250 0 -1 0 255 255 255 255 0.035424 0.536528
-72.0956 3.37587 -22.7203 0 0.982465 -0.186446 255 255 255 255 0.085111 0.696351
-54.245 3.37587 -22.7203 0 0.982465 -0.186446 255 255 255 255 0.072646 0.696308
-61.1229 1.48895 -32.6633 0 0.982465 -0.186446 255 255 255 255 0.077521 0.68926
-250 -4.1e-05 -250 -0.437583 0.899178 -0 255 255 255 255 0.210795 0.536776
-250 -2.3e-05 -142.161 -0.437583 0.899178 -0 255 255 255 255 0.210038 0.612376
-243.063 3.37584 -182.967 -0.437583 0.899178 -0 255 255 255 255 0.205559 0.583369
-230.563 3.37586 -87.9075 -2e-06 1 2e-06 255 255 255 255 0.189176 0.864798
-232.876 3.37598 -138.043 -2e-06 1 2e-06 255 255 255 255 0.193108 0.865154
-243.063 3.37586 -97.4177 -2e-06 1 2e-06 255 255 255 255 0.20004 0.893383
-230.563 3.37586 -87.9075 0.175064 0.984409 -0.017085 255 255 255 255 0.194123 0.615466
-227.278 3.37586 -54.244 0.175064 0.984409 -0.017085 255 255 255 255 0.193644 0.674897
-217.339 1.48894 -61.1219 0.175064 0.984409 -0.017085 255 255 255 255 0.186676 0.66993
-22.7222 3.37584 -180.824 -0.186481 0.982459 -0 255 255 255 255 0.04957 0.585426
-22.7222 3.37584 -195.755 -0.186481 0.982459 -0 255 255 255 255 0.04947 0.574931
-32.6633 1.48892 -188.877 -0.186481 0.982459 -0 255 255 255 255 0.056706 0.579814
-6.93699 3.37585 -142.274 1.7e-05 1 5e-06 255 255 255 255 0.03374 0.861274
-15.079 3.37598 -140.166 1.7e-05 1 5e-06 255 255 255 255 0.039461 0.863053
-22.7222 3.37586 -93.8822 1.7e-05 1 5e-06 255 255 255 255 0.04521 0.89587
-108.289 3.37583 -230.885 0 1 -0 255 255 255 255 0.102911 0.80198
-103.795 3.37596 -235.385 -9e-06 1 2e-05 255 255 255 255 0.101926 0.796165
-136.471 3.37583 -243.058 -9e-06 1 2e-05 255 255 255 255 0.125148 0.79075
-108.289 3.37583 -230.885 -9e-06 1 2e-05 255 255 255 255 0.102911 0.80198
-108.289 3.37583 -230.885 0.007496 0.983359 0.181518 255 255 255 255 0.107858 0.552649
-195.755 3.37584 -227.273 0.007496 0.983359 0.181518 255 255 255 255 0.172227 0.552875
-188.879 1.48892 -217.335 0.007496 0.983359 0.181518 255 255 255 255 0.167291 0.559958
3 0 1 2 
3 3 4 5 
3 6 7 8 
3 9 10 11 
3 12 13 14 
3 15 16 17 
3 18 19 20 
3 21 22 23 
3 24 25 26 
3 27 28 29 
3 30 31 32 
3 33 34 35 
3 36 12 37 
3 38 39 40 
3 41 42 43 
3 44 45 46 
3 47 48 49 
3 50 51 52 
3 53 54 55 
3 56 57 58 
3 59 60 61 
3 62 63 64 
3 65 66 67 
3 68 69 70 
3 71 72 73 
3 74 75 76 
3 77 78 79 
3 80 81 82 
3 83 84 85 
3 86 87 88 
3 89 90 91 
3 92 93 94 
3 95 96 97 
3 98 99 100 
3 101 102 21 
3 103 104 105 
3 106 107 108 
3 109 110 111 
3 112 113 114 
3 115 116 117 
3 118 119 120 
3 121 122 123 
3 36 124 29 
3 9 125 126 
3 127 16 15 
3 128 129 130 
3 0 131 1 
3 3 132 4 
3 6 133 7 
3 9 134 10 
3 14 13 135 
3 136 137 138 
3 17 16 139 
3 140 141 142 
3 32 143 30 
3 30 144 145 
3 143 146 30 
3 147 148 31 
3 149 31 145 
3 145 150 149 
3 144 151 145 
3 148 32 31 
3 145 31 30 
3 29 28 152 
3 153 154 155 
3 156 157 158 
3 159 23 22 
3 160 161 162 
3 36 13 12 
3 163 164 165 
3 166 167 168 
3 169 170 171 
3 172 173 174 
3 175 176 177 
3 178 179 180 
3 181 182 183 
3 184 185 186 
3 64 187 62 
3 62 188 63 
3 67 189 65 
3 65 190 66 
3 70 191 68 
3 68 192 69 
3 71 193 72 
3 74 194 75 
3 195 196 197 
3 198 199 200 
3 201 202 203 
3 102 22 21 
3 204 205 206 
3 109 131 110 
3 207 208 209 
3 27 29 124 
3 210 211 212 
3 9 11 125 
3 15 213 127 
3 214 215 216 
3 217 218 219 
