ply
format ascii 1.0
comment VCGLIB generated
comment TextureFile Dungeons_2_Texture_01_A.png
element vertex 310
property float x
property float y
property float z
property float nx
property float ny
property float nz
property uchar red
property uchar green
property uchar blue
property uchar alpha
property float texture_u
property float texture_v
element face 126
property list uchar int vertex_indices
end_header
-204.832 3.31159 -148.332 0.000671 0.999999 -0.000941 255 255 255 255 0.073036 0.968456
-9.70312 3.31238 -8.37891 0.000671 0.999999 -0.000941 255 255 255 255 0.009278 0.879563
-8.30859 3.16707 -161.746 0.000671 0.999999 -0.000941 255 255 255 255 0.079147 0.878928
-250 0 0 -0.999982 -0.005645 -0.002182 255 255 255 255 0.030226 0.710813
-249.846 -4.66463 -58.6406 -0.999982 -0.005645 -0.002182 255 255 255 255 0.060661 0.70811
-249.846 -24.2073 -8.08984 -0.999982 -0.005645 -0.002182 255 255 255 255 0.033398 0.706432
-240.084 3.31263 -241.289 9e-06 1 8e-06 255 255 255 255 0.115384 0.984516
-204.832 3.31159 -148.332 9e-06 1 8e-06 255 255 255 255 0.073036 0.968456
-33.7832 3.31047 -193.855 9e-06 1 8e-06 255 255 255 255 0.093775 0.890533
-242.216 3.08114 -53.5098 -0.008619 0.999952 -0.004716 255 255 255 255 0.029838 0.985487
-239.954 3.31294 -8.49219 -0.008619 0.999952 -0.004716 255 255 255 255 0.009329 0.984457
-202.887 3.31076 -76.707 -0.008619 0.999952 -0.004716 255 255 255 255 0.040406 0.96757
-100.73 3.31258 -16.9434 1e-06 1 -3.2e-05 255 255 255 255 0.009297 0.91829
-202.887 3.31076 -76.707 1e-06 1 -3.2e-05 255 255 255 255 0.040406 0.96757
-239.954 3.31294 -8.49219 1e-06 1 -3.2e-05 255 255 255 255 0.009329 0.984457
-250 6.1e-05 -170.947 -0.999972 -0.007446 0.000328 255 255 255 255 0.118182 0.705535
-249.846 -24.2073 -250 -0.999972 -0.007446 0.000328 255 255 255 255 0.153545 0.69939
-249.846 -19.6931 -147.625 -0.999972 -0.007446 0.000328 255 255 255 255 0.104367 0.703008
-249.846 4.8e-05 -250 -0.320845 0.947132 -0.000626 255 255 255 255 0.157143 0.703123
-250 6.1e-05 -170.947 -0.320845 0.947132 -0.000626 255 255 255 255 0.118182 0.705535
-240.084 3.31263 -241.289 -0.320845 0.947132 -0.000626 255 255 255 255 0.153529 0.699164
-250 8e-05 -54.332 -0.313188 0.949691 1e-06 255 255 255 255 0.058749 0.709101
-250 0 0 -0.313188 0.949691 1e-06 255 255 255 255 0.030226 0.710813
-239.954 3.31294 -8.49219 -0.313188 0.949691 1e-06 255 255 255 255 0.034761 0.70605
-33.7832 3.31047 -193.855 0.000987 0.999993 0.003683 255 255 255 255 0.093775 0.890533
-204.832 3.31159 -148.332 0.000987 0.999993 0.003683 255 255 255 255 0.073036 0.968456
-8.30859 3.16707 -161.746 0.000987 0.999993 0.003683 255 255 255 255 0.079147 0.878928
-10.2803 1.7007 -228.85 0.136142 0.990661 0.007469 255 255 255 255 0.150233 0.581768
-13.9902 1.96714 -196.566 0.136142 0.990661 0.007469 255 255 255 255 0.133485 0.584085
0 -0.001998 -190.395 0.136142 0.990661 0.007469 255 255 255 255 0.130128 0.576466
-8.30859 3.16707 -161.746 0.334701 0.942322 0.002151 255 255 255 255 0.079147 0.878928
-9.70312 3.31238 -8.37891 0.334701 0.942322 0.002151 255 255 255 255 0.009278 0.879563
0 -1.1e-05 -67.1133 0.334701 0.942322 0.002151 255 255 255 255 0.036036 0.876099
-249.846 -4.66463 -58.6406 -1 0 0 255 255 255 255 0.060661 0.70811
-249.846 -19.6931 -147.625 -1 0 0 255 255 255 255 0.104367 0.703008
-249.846 -24.2073 -8.08984 -1 0 0 255 255 255 255 0.033398 0.706432
-250 0 0 -0.999453 -0.033059 -0 255 255 255 255 0.030226 0.710813
-250 8e-05 -54.332 -0.999453 -0.033059 -0 255 255 255 255 0.058749 0.709101
-249.846 -4.66463 -58.6406 -0.999453 -0.033059 -0 255 255 255 255 0.060661 0.70811
-33.7832 3.31047 -193.855 0.055071 0.99436 -0.090643 255 255 255 255 0.093775 0.890533
-13.3955 3.12209 -183.535 0.055071 0.99436 -0.090643 255 255 255 255 0.089073 0.881245
-13.9902 1.96714 -196.566 0.055071 0.99436 -0.090643 255 255 255 255 0.09501 0.881516
-87.8154 3.31468 -241.193 -1.4e-05 1 0.000197 255 255 255 255 0.11534 0.915148
-240.084 3.31263 -241.289 -1.4e-05 1 0.000197 255 255 255 255 0.115384 0.984516
-68.6758 3.31126 -222.488 -1.4e-05 1 0.000197 255 255 255 255 0.106819 0.906429
-56.6436 0.57763 -235.633 -0.094484 0.983944 -0.151419 255 255 255 255 0.15288 0.606246
-27.0967 3.7299 -233.586 -0.094484 0.983944 -0.151419 255 255 255 255 0.152748 0.590845
-39.6338 4.8e-05 -250 -0.094484 0.983944 -0.151419 255 255 255 255 0.160352 0.597069
-250 8e-05 -54.332 -0.999475 -0.032383 -0.000733 255 255 255 255 0.058749 0.709101
-249.846 -4.12626 -82.4316 -0.999475 -0.032383 -0.000733 255 255 255 255 0.072957 0.707468
-249.846 -4.66463 -58.6406 -0.999475 -0.032383 -0.000733 255 255 255 255 0.060661 0.70811
-250 8e-05 -54.332 -0.369252 0.929227 0.013767 255 255 255 255 0.058749 0.709101
-239.954 3.31294 -8.49219 -0.369252 0.929227 0.013767 255 255 255 255 0.034761 0.70605
-242.216 3.08114 -53.5098 -0.369252 0.929227 0.013767 255 255 255 255 0.058483 0.705757
-249.846 -5.07694 -101.762 -1 0 0 255 255 255 255 0.082758 0.706721
-68.6758 3.31126 -222.488 0.004178 0.999978 -0.005064 255 255 255 255 0.106819 0.906429
-33.7832 3.31047 -193.855 0.004178 0.999978 -0.005064 255 255 255 255 0.093775 0.890533
-36.3076 3.15181 -227.268 0.004178 0.999978 -0.005064 255 255 255 255 0.108996 0.891683
-240.084 3.31263 -241.289 6e-06 1 2.1e-05 255 255 255 255 0.115384 0.984516
-33.7832 3.31047 -193.855 6e-06 1 2.1e-05 255 255 255 255 0.093775 0.890533
-68.6758 3.31126 -222.488 6e-06 1 2.1e-05 255 255 255 255 0.106819 0.906429
-10.2803 1.7007 -228.85 0.163402 0.98656 -0 255 255 255 255 0.150233 0.581768
0 -0.001998 -190.395 0.163402 0.98656 -0 255 255 255 255 0.130128 0.576466
0 -0.002003 -221.477 0.163402 0.98656 -0 255 255 255 255 0.146303 0.576209
-249.846 -8.48917 -146.676 -0.606767 0.783942 0.131409 255 255 255 255 0.105089 0.704817
-233.904 2.41934 -138.145 -0.606767 0.783942 0.131409 255 255 255 255 0.102011 0.698975
-239.914 3.31191 -171.219 -0.606767 0.783942 0.131409 255 255 255 255 0.118782 0.701114
-240.084 3.31263 -241.289 2e-06 1 1e-05 255 255 255 255 0.115384 0.984516
-239.914 3.31191 -171.219 2e-06 1 1e-05 255 255 255 255 0.083463 0.984438
-204.832 3.31159 -148.332 2e-06 1 1e-05 255 255 255 255 0.073036 0.968456
-249.846 -4.12626 -82.4316 -0.351888 0.92583 -0.137887 255 255 255 255 0.072957 0.707468
-250 8e-05 -54.332 -0.351888 0.92583 -0.137887 255 255 255 255 0.058749 0.709101
-242.216 3.08114 -53.5098 -0.351888 0.92583 -0.137887 255 255 255 255 0.058483 0.705757
-249.846 -4.54725 -130.688 -0.30617 0.949685 0.066023 255 255 255 255 0.097471 0.705932
-231.185 0.145057 -111.645 -0.30617 0.949685 0.066023 255 255 255 255 0.088276 0.69804
-229.562 1.42028 -122.461 -0.30617 0.949685 0.066023 255 255 255 255 0.093931 0.697119
0 -0.002008 -250 4.9e-05 0.938262 -0.345925 255 255 255 255 0.16099 0.575975
-39.6338 4.8e-05 -250 4.9e-05 0.938262 -0.345925 255 255 255 255 0.160352 0.597069
-24.0352 1.33717 -246.371 4.9e-05 0.938262 -0.345925 255 255 255 255 0.158966 0.58893
-8.30859 3.16707 -161.746 0.202804 0.977974 -0.049366 255 255 255 255 0.115397 0.581401
0 -0.001998 -190.395 0.202804 0.977974 -0.049366 255 255 255 255 0.130128 0.576466
-13.3955 3.12209 -183.535 0.202804 0.977974 -0.049366 255 255 255 255 0.126833 0.583955
-229.562 1.42028 -122.461 0.036388 0.991814 0.122392 255 255 255 255 0.093931 0.697119
-231.185 0.145057 -111.645 0.036388 0.991814 0.122392 255 255 255 255 0.088276 0.69804
-210.388 1.58161 -129.469 0.036388 0.991814 0.122392 255 255 255 255 0.097565 0.687381
0 -0.002003 -221.477 0.136739 0.98988 0.037943 255 255 255 255 0.146303 0.576209
-11.6914 2.4819 -244.145 0.136739 0.98988 0.037943 255 255 255 255 0.158204 0.582426
-10.2803 1.7007 -228.85 0.136739 0.98988 0.037943 255 255 255 255 0.150233 0.581768
-56.6436 0.57763 -235.633 0.14202 0.930282 -0.33824 255 255 255 255 0.15288 0.606246
-87.8154 3.31468 -241.193 0.14202 0.930282 -0.33824 255 255 255 255 0.155673 0.622668
-57.374 2.21735 -231.43 0.14202 0.930282 -0.33824 255 255 255 255 0.15098 0.606812
-87.8154 3.31468 -241.193 0.053413 0.997086 -0.054472 255 255 255 255 0.11534 0.915148
-68.6758 3.31126 -222.488 0.053413 0.997086 -0.054472 255 255 255 255 0.106819 0.906429
-57.374 2.21735 -231.43 0.053413 0.997086 -0.054472 255 255 255 255 0.110893 0.90128
-33.7832 3.31047 -193.855 0.011662 0.999921 -0.004787 255 255 255 255 0.093775 0.890533
-8.30859 3.16707 -161.746 0.011662 0.999921 -0.004787 255 255 255 255 0.079147 0.878928
-13.3955 3.12209 -183.535 0.011662 0.999921 -0.004787 255 255 255 255 0.089073 0.881245
-184.367 0.420107 -0.910156 0.000809 0.936265 0.351292 255 255 255 255 0.02991 0.677427
-93.3457 0 0 0.000809 0.936265 0.351292 255 255 255 255 0.028221 0.629404
-239.954 3.31294 -8.49219 0.000809 0.936265 0.351292 255 255 255 255 0.034761 0.70605
-240.084 3.31263 -241.289 -0.311956 0.950096 0.000766 255 255 255 255 0.153529 0.699164
-250 6.1e-05 -170.947 -0.311956 0.950096 0.000766 255 255 255 255 0.118182 0.705535
-239.914 3.31191 -171.219 -0.311956 0.950096 0.000766 255 255 255 255 0.118782 0.701114
-249.846 -4.12626 -82.4316 -0.22519 0.957684 -0.17925 255 255 255 255 0.072957 0.707468
-242.216 3.08114 -53.5098 -0.22519 0.957684 -0.17925 255 255 255 255 0.058483 0.705757
-222.55 3.29193 -77.0898 -0.22519 0.957684 -0.17925 255 255 255 255 0.070699 0.695218
-86.0205 4.8e-05 -250 0.139905 0.935764 -0.323687 255 255 255 255 0.159619 0.621298
-87.8154 3.31468 -241.193 0.139905 0.935764 -0.323687 255 255 255 255 0.155673 0.622668
-56.6436 0.57763 -235.633 0.139905 0.935764 -0.323687 255 255 255 255 0.15288 0.606246
-204.832 3.31159 -148.332 -9e-06 1 7e-06 255 255 255 255 0.073036 0.968456
-191.201 3.31153 -124.021 -9e-06 1 7e-06 255 255 255 255 0.061961 0.962247
-9.70312 3.31238 -8.37891 -9e-06 1 7e-06 255 255 255 255 0.009278 0.879563
-238.52 -0.959926 -97.9062 -0.263131 0.964748 0.004811 255 255 255 255 0.081139 0.701911
-249.846 -4.12626 -82.4316 -0.263131 0.964748 0.004811 255 255 255 255 0.072957 0.707468
-222.55 3.29193 -77.0898 -0.263131 0.964748 0.004811 255 255 255 255 0.070699 0.695218
-249.846 -4.12626 -82.4316 -0.327264 0.943792 -0.046417 255 255 255 255 0.072957 0.707468
-238.52 -0.959926 -97.9062 -0.327264 0.943792 -0.046417 255 255 255 255 0.081139 0.701911
-249.846 -5.07694 -101.762 -0.327264 0.943792 -0.046417 255 255 255 255 0.082758 0.706721
-201.656 3.19996 -110.621 -0.015582 0.999871 -0.003832 255 255 255 255 0.056565 0.969581
-202.887 3.31076 -76.707 -0.015582 0.999871 -0.003832 255 255 255 255 0.040406 0.96757
-191.201 3.31153 -124.021 -0.015582 0.999871 -0.003832 255 255 255 255 0.061961 0.962247
-202.887 3.31076 -76.707 -1.3e-05 1 1.3e-05 255 255 255 255 0.040406 0.96757
-9.70312 3.31238 -8.37891 -1.3e-05 1 1.3e-05 255 255 255 255 0.009278 0.879563
-191.201 3.31153 -124.021 -1.3e-05 1 1.3e-05 255 255 255 255 0.061961 0.962247
-57.374 2.21735 -231.43 -0.048406 0.998611 0.020801 255 255 255 255 0.15098 0.606812
-36.3076 3.15181 -227.268 -0.048406 0.998611 0.020801 255 255 255 255 0.149283 0.595787
-27.0967 3.7299 -233.586 -0.048406 0.998611 0.020801 255 255 255 255 0.152748 0.590845
-207.713 2.55111 -91.5859 3.7e-05 0.998699 -0.051 255 255 255 255 0.047184 0.969769
-222.55 3.29193 -77.0898 3.7e-05 0.998699 -0.051 255 255 255 255 0.040581 0.976528
-202.887 3.31076 -76.707 3.7e-05 0.998699 -0.051 255 255 255 255 0.040406 0.96757
-86.0205 4.8e-05 -250 0 0.999193 -0.040169 255 255 255 255 0.159619 0.621298
-56.6436 0.57763 -235.633 0 0.999193 -0.040169 255 255 255 255 0.15288 0.606246
-39.6338 4.8e-05 -250 0 0.999193 -0.040169 255 255 255 255 0.160352 0.597069
-242.216 3.08114 -53.5098 -0.001113 0.999967 0.008011 255 255 255 255 0.029838 0.985487
-202.887 3.31076 -76.707 -0.001113 0.999967 0.008011 255 255 255 255 0.040406 0.96757
-222.55 3.29193 -77.0898 -0.001113 0.999967 0.008011 255 255 255 255 0.040581 0.976528
-13.9902 1.96714 -196.566 0.179714 0.979123 -0.094981 255 255 255 255 0.133485 0.584085
-13.3955 3.12209 -183.535 0.179714 0.979123 -0.094981 255 255 255 255 0.126833 0.583955
0 -0.001998 -190.395 0.179714 0.979123 -0.094981 255 255 255 255 0.130128 0.576466
-210.388 1.58161 -129.469 -0.106433 0.992527 0.059679 255 255 255 255 0.064442 0.970987
-191.201 3.31153 -124.021 -0.106433 0.992527 0.059679 255 255 255 255 0.061961 0.962247
-204.832 3.31159 -148.332 -0.106433 0.992527 0.059679 255 255 255 255 0.073036 0.968456
-210.388 1.58161 -129.469 -0.075435 0.995868 -0.050563 255 255 255 255 0.064442 0.970987
-201.656 3.19996 -110.621 -0.075435 0.995868 -0.050563 255 255 255 255 0.056565 0.969581
-191.201 3.31153 -124.021 -0.075435 0.995868 -0.050563 255 255 255 255 0.061961 0.962247
-249.846 -24.2073 -250 -1 0 -0 255 255 255 255 0.153545 0.69939
-250 0 0 -0.99998 -0.006374 0 255 255 255 255 0.030226 0.710813
-249.846 -24.2073 -8.08984 -0.99998 -0.006374 0 255 255 255 255 0.033398 0.706432
-249.846 -24.2073 4e-06 -0.99998 -0.006374 0 255 255 255 255 0.029207 0.706678
-249.846 -4.54725 -130.688 -0.472611 0.855648 -0.210961 255 255 255 255 0.097471 0.705932
-233.904 2.41934 -138.145 -0.472611 0.855648 -0.210961 255 255 255 255 0.102011 0.698975
-249.846 -8.48917 -146.676 -0.472611 0.855648 -0.210961 255 255 255 255 0.105089 0.704817
-36.3076 3.15181 -227.268 -0.024172 0.998133 0.056086 255 255 255 255 0.149283 0.595787
-13.9902 1.96714 -196.566 -0.024172 0.998133 0.056086 255 255 255 255 0.133485 0.584085
-27.0967 3.7299 -233.586 -0.024172 0.998133 0.056086 255 255 255 255 0.152748 0.590845
-27.0967 3.7299 -233.586 0.108384 0.993274 0.040733 255 255 255 255 0.152748 0.590845
-10.2803 1.7007 -228.85 0.108384 0.993274 0.040733 255 255 255 255 0.150233 0.581768
-11.6914 2.4819 -244.145 0.108384 0.993274 0.040733 255 255 255 255 0.158204 0.582426
-249.846 -5.07694 -101.762 -0.312728 0.945481 -0.090922 255 255 255 255 0.082758 0.706721
-238.52 -0.959926 -97.9062 -0.312728 0.945481 -0.090922 255 255 255 255 0.081139 0.701911
-231.185 0.145057 -111.645 -0.312728 0.945481 -0.090922 255 255 255 255 0.088276 0.69804
-249.846 -8.48917 -146.676 -1 0 0 255 255 255 255 0.105089 0.704817
-249.846 -8.48917 -146.676 -0.999981 -0.000523 0.006174 255 255 255 255 0.105089 0.704817
-250 6.1e-05 -170.947 -0.999981 -0.000523 0.006174 255 255 255 255 0.118182 0.705535
-249.846 -19.6931 -147.625 -0.999981 -0.000523 0.006174 255 255 255 255 0.104367 0.703008
-249.846 -4.12626 -82.4316 -1 0 -0 255 255 255 255 0.072957 0.707468
-210.388 1.58161 -129.469 -0.151706 0.988318 -0.014582 255 255 255 255 0.064442 0.970987
-207.713 2.55111 -91.5859 -0.151706 0.988318 -0.014582 255 255 255 255 0.047184 0.969769
-201.656 3.19996 -110.621 -0.151706 0.988318 -0.014582 255 255 255 255 0.056565 0.969581
-93.3457 0 0 0.011844 0.983725 0.179288 255 255 255 255 0.028221 0.629404
-97.1592 1.2893 -6.82227 0.011844 0.983725 0.179288 255 255 255 255 0.032069 0.631461
-239.954 3.31294 -8.49219 0.011844 0.983725 0.179288 255 255 255 255 0.034761 0.70605
-249.846 -4.54725 -130.688 -0.260746 0.965245 0.017676 255 255 255 255 0.097471 0.705932
-249.846 -5.07694 -101.762 -0.260746 0.965245 0.017676 255 255 255 255 0.082758 0.706721
-231.185 0.145057 -111.645 -0.260746 0.965245 0.017676 255 255 255 255 0.088276 0.69804
-184.367 0.420107 -0.910156 0 0.907946 0.419087 255 255 255 255 0.02991 0.677427
-250 0 0 0 0.907946 0.419087 255 255 255 255 0.030226 0.710813
-93.3457 0 0 0 0.907946 0.419087 255 255 255 255 0.028221 0.629404
-204.832 3.31159 -148.332 0.001606 0.995776 0.091797 255 255 255 255 0.073036 0.968456
-233.904 2.41934 -138.145 0.001606 0.995776 0.091797 255 255 255 255 0.068395 0.981701
-210.388 1.58161 -129.469 0.001606 0.995776 0.091797 255 255 255 255 0.064442 0.970987
-233.904 2.41934 -138.145 0.013476 0.998116 0.059849 255 255 255 255 0.068395 0.981701
-229.562 1.42028 -122.461 0.013476 0.998116 0.059849 255 255 255 255 0.06125 0.979722
-210.388 1.58161 -129.469 0.013476 0.998116 0.059849 255 255 255 255 0.064442 0.970987
-250 0 0 -0.000939 0.931993 0.362475 255 255 255 255 0.030226 0.710813
-184.367 0.420107 -0.910156 -0.000939 0.931993 0.362475 255 255 255 255 0.02991 0.677427
-239.954 3.31294 -8.49219 -0.000939 0.931993 0.362475 255 255 255 255 0.034761 0.70605
-238.52 -0.959926 -97.9062 -0.109635 0.993814 -0.017693 255 255 255 255 0.081139 0.701911
-207.713 2.55111 -91.5859 -0.109635 0.993814 -0.017693 255 255 255 255 0.078133 0.687219
-210.388 1.58161 -129.469 -0.109635 0.993814 -0.017693 255 255 255 255 0.097565 0.687381
-249.846 -4.54725 -130.688 -0.335207 0.929795 0.152047 255 255 255 255 0.097471 0.705932
-229.562 1.42028 -122.461 -0.335207 0.929795 0.152047 255 255 255 255 0.093931 0.697119
-233.904 2.41934 -138.145 -0.335207 0.929795 0.152047 255 255 255 255 0.102011 0.698975
-239.914 3.31191 -171.219 -0.01995 0.999333 0.030594 255 255 255 255 0.083463 0.984438
-233.904 2.41934 -138.145 -0.01995 0.999333 0.030594 255 255 255 255 0.068395 0.981701
-204.832 3.31159 -148.332 -0.01995 0.999333 0.030594 255 255 255 255 0.073036 0.968456
-238.52 -0.959926 -97.9062 -0.084414 0.98699 -0.136838 255 255 255 255 0.081139 0.701911
-222.55 3.29193 -77.0898 -0.084414 0.98699 -0.136838 255 255 255 255 0.070699 0.695218
-207.713 2.55111 -91.5859 -0.084414 0.98699 -0.136838 255 255 255 255 0.078133 0.687219
-24.0352 1.33717 -246.371 -0.055347 0.978948 -0.196463 255 255 255 255 0.158966 0.58893
-27.0967 3.7299 -233.586 -0.055347 0.978948 -0.196463 255 255 255 255 0.152748 0.590845
-11.6914 2.4819 -244.145 -0.055347 0.978948 -0.196463 255 255 255 255 0.158204 0.582426
-24.0352 1.33717 -246.371 -0.039174 0.980442 -0.192869 255 255 255 255 0.158966 0.58893
-39.6338 4.8e-05 -250 -0.039174 0.980442 -0.192869 255 255 255 255 0.160352 0.597069
-27.0967 3.7299 -233.586 -0.039174 0.980442 -0.192869 255 255 255 255 0.152748 0.590845
-231.185 0.145057 -111.645 -0.00026 0.996792 0.080034 255 255 255 255 0.088276 0.69804
-238.52 -0.959926 -97.9062 -0.00026 0.996792 0.080034 255 255 255 255 0.081139 0.701911
-210.388 1.58161 -129.469 -0.00026 0.996792 0.080034 255 255 255 255 0.097565 0.687381
-86.0205 4.8e-05 -250 0.000209 0.935918 -0.352217 255 255 255 255 0.159619 0.621298
-240.084 3.31263 -241.289 0.000209 0.935918 -0.352217 255 255 255 255 0.153529 0.699164
-87.8154 3.31468 -241.193 0.000209 0.935918 -0.352217 255 255 255 255 0.155673 0.622668
0 0 0 0.323067 0.946376 -0 255 255 255 255 0.026957 0.578106
0 -1.1e-05 -67.1133 0.323067 0.946376 -0 255 255 255 255 0.064149 0.577515
-9.70312 3.31238 -8.37891 0.323067 0.946376 -0 255 255 255 255 0.03193 0.583652
-56.6436 0.57763 -235.633 -0.072794 0.924797 -0.373433 255 255 255 255 0.15288 0.606246
-57.374 2.21735 -231.43 -0.072794 0.924797 -0.373433 255 255 255 255 0.15098 0.606812
-27.0967 3.7299 -233.586 -0.072794 0.924797 -0.373433 255 255 255 255 0.152748 0.590845
-239.914 3.31191 -171.219 -0.28807 0.903343 0.317786 255 255 255 255 0.118782 0.701114
-250 6.1e-05 -170.947 -0.28807 0.903343 0.317786 255 255 255 255 0.118182 0.705535
-249.846 -8.48917 -146.676 -0.28807 0.903343 0.317786 255 255 255 255 0.105089 0.704817
-249.846 4.8e-05 -250 0 0.934697 -0.355446 255 255 255 255 0.157143 0.703123
-240.084 3.31263 -241.289 0 0.934697 -0.355446 255 255 255 255 0.153529 0.699164
-86.0205 4.8e-05 -250 0 0.934697 -0.355446 255 255 255 255 0.159619 0.621298
-249.846 -4.54725 -130.688 -1 0 0 255 255 255 255 0.097471 0.705932
-250 6.1e-05 -170.947 -0.999998 0 -0.001952 255 255 255 255 0.118182 0.705535
-249.846 4.8e-05 -250 -0.999998 0 -0.001952 255 255 255 255 0.157143 0.703123
-249.846 -24.2073 -250 -0.999998 0 -0.001952 255 255 255 255 0.153545 0.69939
-11.6914 2.4819 -244.145 0.207817 0.978168 -0 255 255 255 255 0.158204 0.582426
0 -0.002003 -221.477 0.207817 0.978168 -0 255 255 255 255 0.146303 0.576209
0 -0.002008 -250 0.207817 0.978168 -0 255 255 255 255 0.16099 0.575975
-11.6914 2.4819 -244.145 -0.010882 0.912545 -0.408832 255 255 255 255 0.158204 0.582426
0 -0.002008 -250 -0.010882 0.912545 -0.408832 255 255 255 255 0.16099 0.575975
-24.0352 1.33717 -246.371 -0.010882 0.912545 -0.408832 255 255 255 255 0.158966 0.58893
-93.3457 0 0 0 0 1 255 255 255 255 0.028221 0.629404
-249.846 -24.2073 4e-06 0 0 1 255 255 255 255 0.029207 0.706678
-93.3457 -24.2073 4e-06 0 0 1 255 255 255 255 0.027213 0.62702
-250 0 0 -0 0 1 255 255 255 255 0.030226 0.710813
-27.0967 3.7299 -233.586 0.118298 0.992963 0.005399 255 255 255 255 0.152748 0.590845
-13.9902 1.96714 -196.566 0.118298 0.992963 0.005399 255 255 255 255 0.133485 0.584085
-10.2803 1.7007 -228.85 0.118298 0.992963 0.005399 255 255 255 255 0.150233 0.581768
-57.374 2.21735 -231.43 -0.015988 0.989837 -0.141307 255 255 255 255 0.110893 0.90128
-68.6758 3.31126 -222.488 -0.015988 0.989837 -0.141307 255 255 255 255 0.106819 0.906429
-36.3076 3.15181 -227.268 -0.015988 0.989837 -0.141307 255 255 255 255 0.108996 0.891683
-8.30859 3.16707 -161.746 0.34026 0.940316 -0.005335 255 255 255 255 0.115397 0.581401
0 0.284639 -139.877 0.34026 0.940316 -0.005335 255 255 255 255 0.103481 0.576905
0 -0.001998 -190.395 0.34026 0.940316 -0.005335 255 255 255 255 0.130128 0.576466
0 0.284639 -139.877 0.319032 0.947737 0.003708 255 255 255 255 0.103481 0.576905
-8.30859 3.16707 -161.746 0.319032 0.947737 0.003708 255 255 255 255 0.115397 0.581401
0 -1.1e-05 -67.1133 0.319032 0.947737 0.003708 255 255 255 255 0.064149 0.577515
-201.656 3.19996 -110.621 -0.131355 0.991303 -0.008004 255 255 255 255 0.056565 0.969581
-207.713 2.55111 -91.5859 -0.131355 0.991303 -0.008004 255 255 255 255 0.047184 0.969769
-202.887 3.31076 -76.707 -0.131355 0.991303 -0.008004 255 255 255 255 0.040406 0.96757
-27.7705 0.374255 -0 0.012598 0.934797 0.354958 255 255 255 255 0.027355 0.593621
0 0 0 0.012598 0.934797 0.354958 255 255 255 255 0.026957 0.578106
-9.70312 3.31238 -8.37891 0.012598 0.934797 0.354958 255 255 255 255 0.03193 0.583652
-249.846 -24.2073 -250 0 -1 0 255 255 255 255 0.153545 0.69939
-86.0205 -24.2073 -250 0 -1 0 255 255 255 255 0.155844 0.619185
-249.846 -24.2073 -8.08984 0 -1 0 255 255 255 255 0.033398 0.706432
0 -24.2073 -250 0 -1 0 255 255 255 255 0.157116 0.57481
0 -24.2073 -221.477 0 -1 0 255 255 255 255 0.142731 0.575033
-39.6338 -24.2073 -250 0 -1 0 255 255 255 255 0.156524 0.595458
0 -24.2073 4e-06 0 -1 0 255 255 255 255 0.025957 0.576839
-27.7705 -24.2073 4e-06 0 -1 0 255 255 255 255 0.026337 0.591987
0 -24.2073 -67.1133 0 -1 0 255 255 255 255 0.062325 0.576277
-249.846 -24.2073 4e-06 0 -1 0 255 255 255 255 0.029207 0.706678
-93.3457 -24.2073 4e-06 0 -1 0 255 255 255 255 0.027213 0.62702
0 -24.2073 -139.877 -0 -1 0 255 255 255 255 0.100776 0.575682
0 -24.2073 -190.395 0 -1 0 255 255 255 255 0.126892 0.575278
-97.1592 1.2893 -6.82227 0.011661 0.981314 0.192057 255 255 255 255 0.032069 0.631461
-100.73 3.31258 -16.9434 0.011661 0.981314 0.192057 255 255 255 255 0.037747 0.633398
-239.954 3.31294 -8.49219 0.011661 0.981314 0.192057 255 255 255 255 0.034761 0.70605
-36.3076 3.15181 -227.268 0.06638 0.997747 -0.009753 255 255 255 255 0.108996 0.891683
-33.7832 3.31047 -193.855 0.06638 0.997747 -0.009753 255 255 255 255 0.093775 0.890533
-13.9902 1.96714 -196.566 0.06638 0.997747 -0.009753 255 255 255 255 0.09501 0.881516
0 -0.001998 -190.395 1 0 -0 255 255 255 255 0.130128 0.576466
0 -24.2073 -221.477 1 0 -0 255 255 255 255 0.142731 0.575033
0 -0.002003 -221.477 1 0 -0 255 255 255 255 0.146303 0.576209
0 -24.2073 -250 1 0 -0 255 255 255 255 0.157116 0.57481
0 -0.002008 -250 1 0 -0 255 255 255 255 0.16099 0.575975
0 -0.002008 -250 0 0 -1 255 255 255 255 0.16099 0.575975
-39.6338 -24.2073 -250 0 0 -1 255 255 255 255 0.156524 0.595458
-39.6338 4.8e-05 -250 0 0 -1 255 255 255 255 0.160352 0.597069
0 -1.1e-05 -67.1133 1 0 -0 255 255 255 255 0.064149 0.577515
0 -24.2073 -139.877 1 0 -0 255 255 255 255 0.100776 0.575682
0 0.284639 -139.877 1 0 -0 255 255 255 255 0.103481 0.576905
-86.0205 -24.2073 -250 0 0 -1 255 255 255 255 0.155844 0.619185
-86.0205 4.8e-05 -250 0 0 -1 255 255 255 255 0.159619 0.621298
-27.7705 -24.2073 4e-06 0 0 1 255 255 255 255 0.026337 0.591987
-27.7705 0.374255 -0 0 0 1 255 255 255 255 0.027355 0.593621
0 0 0 1 0 -0 255 255 255 255 0.026957 0.578106
0 -24.2073 -67.1133 1 0 -0 255 255 255 255 0.062325 0.576277
-249.846 -24.2073 -250 0 0 -1 255 255 255 255 0.153545 0.69939
-249.846 4.8e-05 -250 0 0 -1 255 255 255 255 0.157143 0.703123
0 -24.2073 -190.395 1 -0 0 255 255 255 255 0.126892 0.575278
0 0 0 0 0 1 255 255 255 255 0.026957 0.578106
0 -24.2073 4e-06 0 0 1 255 255 255 255 0.025957 0.576839
-93.3457 0 0 -0.005605 0.982015 0.188718 255 255 255 255 0.028221 0.629404
-27.7705 0.374255 -0 -0.005605 0.982015 0.188718 255 255 255 255 0.027355 0.593621
-97.1592 1.2893 -6.82227 -0.005605 0.982015 0.188718 255 255 255 255 0.032069 0.631461
-27.7705 0.374255 -0 -0.006567 0.980129 0.198252 255 255 255 255 0.027355 0.593621
-100.73 3.31258 -16.9434 -0.006567 0.980129 0.198252 255 255 255 255 0.037747 0.633398
-97.1592 1.2893 -6.82227 -0.006567 0.980129 0.198252 255 255 255 255 0.032069 0.631461
-100.73 3.31258 -16.9434 6e-06 1 -4.1e-05 255 255 255 255 0.009297 0.91829
-9.70312 3.31238 -8.37891 6e-06 1 -4.1e-05 255 255 255 255 0.009278 0.879563
-202.887 3.31076 -76.707 6e-06 1 -4.1e-05 255 255 255 255 0.040406 0.96757
0 -24.2073 -250 0 0 -1 255 255 255 255 0.157116 0.57481
0 -24.2073 4e-06 1 -0 0 255 255 255 255 0.025957 0.576839
-27.7705 0.374255 -0 -0.026321 0.959705 0.279772 255 255 255 255 0.027355 0.593621
-9.70312 3.31238 -8.37891 -0.026321 0.959705 0.279772 255 255 255 255 0.03193 0.583652
-100.73 3.31258 -16.9434 -0.026321 0.959705 0.279772 255 255 255 255 0.037747 0.633398
3 0 1 2 
3 3 4 5 
3 6 7 8 
3 9 10 11 
3 12 13 14 
3 15 16 17 
3 18 19 20 
3 21 22 23 
3 24 25 26 
3 27 28 29 
3 30 31 32 
3 33 34 35 
3 36 37 38 
3 39 40 41 
3 42 43 44 
3 45 46 47 
3 48 49 50 
3 51 52 53 
3 33 54 34 
3 55 56 57 
3 58 59 60 
3 61 62 63 
3 64 65 66 
3 67 68 69 
3 70 71 72 
3 73 74 75 
3 76 77 78 
3 79 80 81 
3 82 83 84 
3 85 86 87 
3 88 89 90 
3 91 92 93 
3 94 95 96 
3 97 98 99 
3 100 101 102 
3 103 104 105 
3 106 107 108 
3 109 110 111 
3 112 113 114 
3 115 116 117 
3 118 119 120 
3 121 122 123 
3 124 125 126 
3 127 128 129 
3 130 131 132 
3 133 134 135 
3 136 137 138 
3 139 140 141 
3 142 143 144 
3 34 145 35 
3 146 147 148 
3 149 150 151 
3 152 153 154 
3 155 156 157 
3 158 159 160 
3 54 161 34 
3 162 163 164 
3 165 54 33 
3 166 167 168 
3 169 170 171 
3 172 173 174 
3 175 176 177 
3 178 179 180 
3 181 182 183 
3 184 185 186 
3 187 188 189 
3 190 191 192 
3 193 194 195 
3 196 197 198 
3 199 200 201 
3 202 203 204 
3 205 206 207 
3 208 209 210 
3 211 212 213 
3 214 215 216 
3 217 218 219 
3 220 221 222 
3 54 223 161 
3 224 225 226 
3 227 228 229 
3 230 231 232 
3 233 234 235 
3 233 236 234 
3 237 238 239 
3 240 241 242 
3 243 244 245 
3 246 247 248 
3 249 250 251 
3 252 253 254 
3 255 256 257 
3 258 259 260 
3 261 262 263 
3 264 257 265 
3 257 256 265 
3 265 256 262 
3 262 256 263 
3 263 256 266 
3 266 256 267 
3 256 260 267 
3 260 259 267 
3 268 269 270 
3 271 272 273 
3 274 275 276 
3 276 277 278 
3 279 280 281 
3 282 283 284 
3 281 285 286 
3 233 287 288 
3 289 290 282 
3 286 291 292 
3 274 283 293 
3 294 287 295 
3 296 297 298 
3 299 300 301 
3 302 303 304 
3 274 293 275 
3 276 275 277 
3 279 305 280 
3 282 290 283 
3 281 280 285 
3 233 235 287 
3 289 306 290 
3 286 285 291 
3 274 284 283 
3 294 288 287 
3 307 308 309 
