ply
format ascii 1.0
comment VCGLIB generated
element vertex 320
property float x
property float y
property float z
element face 186
property list uchar int vertex_indices
end_header
0.5239281 0.1763951 -2.290163e-08 
0.9943147 0 -4.346288e-08 
0.5239281 0.1730058 -0.03441307 
0.5239281 0.1730058 -0.03441307 
0.9943147 0 -4.346288e-08 
0.5239281 0.162968 -0.06750359 
0.5239281 0.162968 -0.06750359 
0.9943147 0 -4.346288e-08 
0.5239281 0.1466671 -0.09799995 
0.5239281 0.1466671 -0.09799995 
0.9943147 0 -4.346288e-08 
0.5239281 0.12473 -0.12473 
0.5239281 0.12473 -0.12473 
0.9943147 0 -4.346288e-08 
0.5239281 0.09799992 -0.1466671 
0.5239281 0.09799992 -0.1466671 
0.9943147 0 -4.346288e-08 
0.5239281 0.06750356 -0.162968 
0.5239281 0.06750356 -0.162968 
0.9943147 0 -4.346288e-08 
0.5239281 0.03441305 -0.1730058 
0.5239281 0.03441305 -0.1730058 
0.9943147 0 -4.346288e-08 
0.5239281 0 -0.1763951 
0.5239281 0 -0.1763951 
0.9943147 0 -4.346288e-08 
0.5239281 -0.03441305 -0.1730058 
0.5239281 -0.03441305 -0.1730058 
0.9943147 0 -4.346288e-08 
0.5239281 -0.0675033 -0.162968 
0.5239281 -0.0675033 -0.162968 
0.9943147 0 -4.346288e-08 
0.5239281 -0.09799992 -0.1466671 
0.5239281 -0.09799992 -0.1466671 
0.9943147 0 -4.346288e-08 
0.5239281 -0.12473 -0.12473 
0.5239281 -0.12473 -0.12473 
0.9943147 0 -4.346288e-08 
0.5239281 -0.1466671 -0.09799995 
0.5239281 -0.1466671 -0.09799995 
0.9943147 0 -4.346288e-08 
0.5239281 -0.162968 -0.06750333 
0.5239281 -0.162968 -0.06750333 
0.9943147 0 -4.346288e-08 
0.5239281 -0.1730058 -0.03441307 
0.5239281 -0.1730058 -0.03441307 
0.9943147 0 -4.346288e-08 
0.5239281 -0.1763951 -2.290163e-08 
0.5239281 -0.1763951 -2.290163e-08 
0.9943147 0 -4.346288e-08 
0.5239281 -0.1730058 0.03441303 
0.5239281 -0.1730058 0.03441303 
0.9943147 0 -4.346288e-08 
0.5239281 -0.1629678 0.06750355 
0.5239281 -0.1629678 0.06750355 
0.9943147 0 -4.346288e-08 
0.5239281 -0.1466671 0.0979999 
0.5239281 -0.1466671 0.0979999 
0.9943147 0 -4.346288e-08 
0.5239281 -0.12473 0.12473 
0.5239281 -0.12473 0.12473 
0.9943147 0 -4.346288e-08 
0.5239281 -0.09799967 0.1466673 
0.5239281 -0.09799967 0.1466673 
0.9943147 0 -4.346288e-08 
0.5239281 -0.0675033 0.162968 
0.5239281 -0.0675033 0.162968 
0.9943147 0 -4.346288e-08 
0.5239281 -0.03441279 0.1730058 
0.5239281 -0.03441279 0.1730058 
0.9943147 0 -4.346288e-08 
0.5239281 2.351935e-07 0.1763951 
0.5239281 2.351935e-07 0.1763951 
0.9943147 0 -4.346288e-08 
0.5239281 0.03441327 0.1730058 
0.5239281 0.03441327 0.1730058 
0.9943147 0 -4.346288e-08 
0.5239281 0.06750356 0.1629678 
0.5239281 0.06750356 0.1629678 
0.9943147 0 -4.346288e-08 
0.5239281 0.09799992 0.1466671 
0.5239281 0.09799992 0.1466671 
0.9943147 0 -4.346288e-08 
0.5239281 0.1247303 0.1247299 
0.5239281 0.1247303 0.1247299 
0.9943147 0 -4.346288e-08 
0.5239281 0.1466673 0.09799965 
0.5239281 0.1466673 0.09799965 
0.9943147 0 -4.346288e-08 
0.5239281 0.162968 0.06750328 
0.5239281 0.162968 0.06750328 
0.9943147 0 -4.346288e-08 
0.5239281 0.1730058 0.03441277 
0.5239281 0.1730058 0.03441277 
0.9943147 0 -4.346288e-08 
0.5239281 0.1763951 -2.290163e-08 
0.5239281 0.1763951 -2.290163e-08 
0.5239281 0.1730058 -0.03441307 
0.5239281 0.162968 -0.06750359 
0.5239281 0.1466671 -0.09799995 
0.5239281 0.12473 -0.12473 
0.5239281 0.09799992 -0.1466671 
0.5239281 0.06750356 -0.162968 
0.5239281 0.03441305 -0.1730058 
0.5239281 0 -0.1763951 
0.5239281 -0.03441305 -0.1730058 
0.5239281 -0.0675033 -0.162968 
0.5239281 -0.09799992 -0.1466671 
0.5239281 -0.12473 -0.12473 
0.5239281 -0.1466671 -0.09799995 
0.5239281 -0.162968 -0.06750333 
0.5239281 -0.1730058 -0.03441307 
0.5239281 -0.1763951 -2.290163e-08 
0.5239281 -0.1730058 0.03441303 
0.5239281 -0.1629678 0.06750355 
0.5239281 -0.1466671 0.0979999 
0.5239281 -0.12473 0.12473 
0.5239281 -0.09799967 0.1466673 
0.5239281 -0.0675033 0.162968 
0.5239281 -0.03441279 0.1730058 
0.5239281 2.351935e-07 0.1763951 
0.5239281 0.03441327 0.1730058 
0.5239281 0.06750356 0.1629678 
0.5239281 0.09799992 0.1466671 
0.5239281 0.1247303 0.1247299 
0.5239281 0.1466673 0.09799965 
0.5239281 0.162968 0.06750328 
0.5239281 0.1730058 0.03441277 
0.06080598 0.08231767 -2.657914e-09 
0.531193 0.08231767 -2.321918e-08 
0.531193 0.08073599 -0.0160595 
0.06080598 0.08073599 -0.01605948 
0.06080598 0.08073599 -0.01605948 
0.531193 0.08073599 -0.0160595 
0.531193 0.07605163 -0.03150159 
0.06080598 0.07605163 -0.03150157 
0.06080598 0.07605163 -0.03150157 
0.531193 0.07605163 -0.03150159 
0.531193 0.06844454 -0.04573339 
0.06080598 0.06844454 -0.04573337 
0.06080598 0.06844454 -0.04573337 
0.531193 0.06844454 -0.04573339 
0.531193 0.05820728 -0.0582073 
0.06080598 0.05820728 -0.05820728 
0.06080598 0.05820728 -0.05820728 
0.531193 0.05820728 -0.0582073 
0.531193 0.04573337 -0.06844456 
0.06080598 0.04573337 -0.06844454 
0.06080598 0.04573337 -0.06844454 
0.531193 0.04573337 -0.06844456 
0.531193 0.03150157 -0.07605166 
0.06080598 0.03150157 -0.07605164 
0.06080598 0.03150157 -0.07605164 
0.531193 0.03150157 -0.07605166 
0.531193 0.01605948 -0.08073602 
0.06080598 0.01605948 -0.080736 
0.06080598 0.01605948 -0.080736 
0.531193 0.01605948 -0.08073602 
0.531193 0 -0.0823177 
0.06080598 0 -0.08231767 
0.06080598 0 -0.08231767 
0.531193 0 -0.0823177 
0.531193 -0.01605948 -0.08073602 
0.06080598 -0.01605948 -0.080736 
0.06080598 -0.01605948 -0.080736 
0.531193 -0.01605948 -0.08073602 
0.531193 -0.03150157 -0.07605166 
0.06080598 -0.03150157 -0.07605164 
0.06080598 -0.03150157 -0.07605164 
0.531193 -0.03150157 -0.07605166 
0.531193 -0.04573337 -0.06844456 
0.06080598 -0.04573337 -0.06844454 
0.06080598 -0.04573337 -0.06844454 
0.531193 -0.04573337 -0.06844456 
0.531193 -0.05820728 -0.0582073 
0.06080598 -0.05820728 -0.05820728 
0.06080598 -0.05820728 -0.05820728 
0.531193 -0.05820728 -0.0582073 
0.531193 -0.06844454 -0.04573339 
0.06080598 -0.06844454 -0.04573337 
0.06080598 -0.06844454 -0.04573337 
0.531193 -0.06844454 -0.04573339 
0.531193 -0.07605163 -0.03150159 
0.06080598 -0.07605163 -0.03150157 
0.06080598 -0.07605163 -0.03150157 
0.531193 -0.07605163 -0.03150159 
0.531193 -0.08073599 -0.0160595 
0.06080598 -0.08073599 -0.01605948 
0.06080598 -0.08073599 -0.01605948 
0.531193 -0.08073599 -0.0160595 
0.531193 -0.08231767 -2.321918e-08 
0.06080598 -0.08231767 -2.657914e-09 
0.06080598 -0.08231767 -2.657914e-09 
0.531193 -0.08231767 -2.321918e-08 
0.531193 -0.08073599 0.01605946 
0.06080598 -0.08073599 0.01605948 
0.06080598 -0.08073599 0.01605948 
0.531193 -0.08073599 0.01605946 
0.531193 -0.07605163 0.03150155 
0.06080598 -0.07605163 0.03150157 
0.06080598 -0.07605163 0.03150157 
0.531193 -0.07605163 0.03150155 
0.531193 -0.06844454 0.04573335 
0.06080598 -0.06844454 0.04573337 
0.06080598 -0.06844454 0.04573337 
0.531193 -0.06844454 0.04573335 
0.531193 -0.05820728 0.05820752 
0.06080598 -0.05820728 0.05820754 
0.06080598 -0.05820728 0.05820754 
0.531193 -0.05820728 0.05820752 
0.531193 -0.04573314 0.06844452 
0.06080598 -0.04573314 0.06844454 
0.06080598 -0.04573314 0.06844454 
0.531193 -0.04573314 0.06844452 
0.531193 -0.03150157 0.07605162 
0.06080598 -0.03150157 0.07605164 
0.06080598 -0.03150157 0.07605164 
0.531193 -0.03150157 0.07605162 
0.531193 -0.01605925 0.08073597 
0.06080598 -0.01605925 0.080736 
0.06080598 -0.01605925 0.080736 
0.531193 -0.01605925 0.08073597 
0.531193 0 0.08231765 
0.06080598 0 0.08231767 
0.06080598 0 0.08231767 
0.531193 0 0.08231765 
0.531193 0.01605948 0.08073597 
0.06080598 0.01605948 0.080736 
0.06080598 0.01605948 0.080736 
0.531193 0.01605948 0.08073597 
0.531193 0.0315018 0.07605162 
0.06080598 0.0315018 0.07605164 
0.06080598 0.0315018 0.07605164 
0.531193 0.0315018 0.07605162 
0.531193 0.04573337 0.06844452 
0.06080598 0.04573337 0.06844454 
0.06080598 0.04573337 0.06844454 
0.531193 0.04573337 0.06844452 
0.531193 0.05820754 0.05820726 
0.06080598 0.05820754 0.05820728 
0.06080598 0.05820754 0.05820728 
0.531193 0.05820754 0.05820726 
0.531193 0.06844483 0.04573312 
0.06080598 0.06844483 0.04573314 
0.06080598 0.06844483 0.04573314 
0.531193 0.06844483 0.04573312 
0.531193 0.07605163 0.03150155 
0.06080598 0.07605163 0.03150157 
0.531193 0.08073599 -0.0160595 
0.531193 0.08231767 -2.321918e-08 
0.531193 0.08073599 0.01605923 
0.531193 0.07605163 0.03150155 
0.531193 0.06844483 0.04573312 
0.531193 0.05820754 0.05820726 
0.531193 0.04573337 0.06844452 
0.531193 0.0315018 0.07605162 
0.531193 0.01605948 0.08073597 
0.531193 0 0.08231765 
0.531193 -0.01605925 0.08073597 
0.531193 -0.03150157 0.07605162 
0.531193 -0.04573314 0.06844452 
0.531193 -0.05820728 0.05820752 
0.531193 -0.06844454 0.04573335 
0.531193 -0.07605163 0.03150155 
0.531193 -0.08073599 0.01605946 
0.531193 -0.08231767 -2.321918e-08 
0.531193 -0.08073599 -0.0160595 
0.531193 -0.07605163 -0.03150159 
0.531193 -0.06844454 -0.04573339 
0.531193 -0.05820728 -0.0582073 
0.531193 -0.04573337 -0.06844456 
0.531193 -0.03150157 -0.07605166 
0.531193 -0.01605948 -0.08073602 
0.531193 0 -0.0823177 
0.531193 0.01605948 -0.08073602 
0.531193 0.03150157 -0.07605166 
0.531193 0.04573337 -0.06844456 
0.531193 0.05820728 -0.0582073 
0.531193 0.06844454 -0.04573339 
0.531193 0.07605163 -0.03150159 
0.06080598 0.07605163 0.03150157 
0.531193 0.07605163 0.03150155 
0.531193 0.08073599 0.01605923 
0.06080598 0.08073599 0.01605925 
0.06080598 0.08073599 0.01605925 
0.531193 0.08073599 0.01605923 
0.531193 0.08231767 -2.321918e-08 
0.06080598 0.08231767 -2.657914e-09 
0.06080598 0.08231767 -2.657914e-09 
0.06080598 0.08073599 -0.01605948 
0.06080598 0.07605163 -0.03150157 
0.06080598 0.06844454 -0.04573337 
0.06080598 0.05820728 -0.05820728 
0.06080598 0.04573337 -0.06844454 
0.06080598 0.03150157 -0.07605164 
0.06080598 0.01605948 -0.080736 
0.06080598 0 -0.08231767 
0.06080598 -0.01605948 -0.080736 
0.06080598 -0.03150157 -0.07605164 
0.06080598 -0.04573337 -0.06844454 
0.06080598 -0.05820728 -0.05820728 
0.06080598 -0.06844454 -0.04573337 
0.06080598 -0.07605163 -0.03150157 
0.06080598 -0.08073599 -0.01605948 
0.06080598 -0.08231767 -2.657914e-09 
0.06080598 -0.08073599 0.01605948 
0.06080598 -0.07605163 0.03150157 
0.06080598 -0.06844454 0.04573337 
0.06080598 -0.05820728 0.05820754 
0.06080598 -0.04573314 0.06844454 
0.06080598 -0.03150157 0.07605164 
0.06080598 -0.01605925 0.080736 
0.06080598 0 0.08231767 
0.06080598 0.01605948 0.080736 
0.06080598 0.0315018 0.07605164 
0.06080598 0.04573337 0.06844454 
0.06080598 0.05820754 0.05820728 
0.06080598 0.06844483 0.04573314 
0.06080598 0.07605163 0.03150157 
0.06080598 0.08073599 0.01605925 
3 0 1 2 
3 3 4 5 
3 6 7 8 
3 9 10 11 
3 12 13 14 
3 15 16 17 
3 18 19 20 
3 21 22 23 
3 24 25 26 
3 27 28 29 
3 30 31 32 
3 33 34 35 
3 36 37 38 
3 39 40 41 
3 42 43 44 
3 45 46 47 
3 48 49 50 
3 51 52 53 
3 54 55 56 
3 57 58 59 
3 60 61 62 
3 63 64 65 
3 66 67 68 
3 69 70 71 
3 72 73 74 
3 75 76 77 
3 78 79 80 
3 81 82 83 
3 84 85 86 
3 87 88 89 
3 90 91 92 
3 93 94 95 
3 96 97 98 
3 96 98 99 
3 96 99 100 
3 96 100 101 
3 96 101 102 
3 96 102 103 
3 96 103 104 
3 96 104 105 
3 96 105 106 
3 96 106 107 
3 96 107 108 
3 96 108 109 
3 96 109 110 
3 96 110 111 
3 96 111 112 
3 96 112 113 
3 96 113 114 
3 96 114 115 
3 96 115 116 
3 96 116 117 
3 96 117 118 
3 96 118 119 
3 96 119 120 
3 96 120 121 
3 96 121 122 
3 96 122 123 
3 96 123 124 
3 96 124 125 
3 96 125 126 
3 96 126 127 
3 128 129 130 
3 128 130 131 
3 132 133 134 
3 132 134 135 
3 136 137 138 
3 136 138 139 
3 140 141 142 
3 140 142 143 
3 144 145 146 
3 144 146 147 
3 148 149 150 
3 148 150 151 
3 152 153 154 
3 152 154 155 
3 156 157 158 
3 156 158 159 
3 160 161 162 
3 160 162 163 
3 164 165 166 
3 164 166 167 
3 168 169 170 
3 168 170 171 
3 172 173 174 
3 172 174 175 
3 176 177 178 
3 176 178 179 
3 180 181 182 
3 180 182 183 
3 184 185 186 
3 184 186 187 
3 188 189 190 
3 188 190 191 
3 192 193 194 
3 192 194 195 
3 196 197 198 
3 196 198 199 
3 200 201 202 
3 200 202 203 
3 204 205 206 
3 204 206 207 
3 208 209 210 
3 208 210 211 
3 212 213 214 
3 212 214 215 
3 216 217 218 
3 216 218 219 
3 220 221 222 
3 220 222 223 
3 224 225 226 
3 224 226 227 
3 228 229 230 
3 228 230 231 
3 232 233 234 
3 232 234 235 
3 236 237 238 
3 236 238 239 
3 240 241 242 
3 240 242 243 
3 244 245 246 
3 244 246 247 
3 248 249 250 
3 248 250 251 
3 248 251 252 
3 248 252 253 
3 248 253 254 
3 248 254 255 
3 248 255 256 
3 248 256 257 
3 248 257 258 
3 248 258 259 
3 248 259 260 
3 248 260 261 
3 248 261 262 
3 248 262 263 
3 248 263 264 
3 248 264 265 
3 248 265 266 
3 248 266 267 
3 248 267 268 
3 248 268 269 
3 248 269 270 
3 248 270 271 
3 248 271 272 
3 248 272 273 
3 248 273 274 
3 248 274 275 
3 248 275 276 
3 248 276 277 
3 248 277 278 
3 248 278 279 
3 280 281 282 
3 280 282 283 
3 284 285 286 
3 284 286 287 
3 288 289 290 
3 288 290 291 
3 288 291 292 
3 288 292 293 
3 288 293 294 
3 288 294 295 
3 288 295 296 
3 288 296 297 
3 288 297 298 
3 288 298 299 
3 288 299 300 
3 288 300 301 
3 288 301 302 
3 288 302 303 
3 288 303 304 
3 288 304 305 
3 288 305 306 
3 288 306 307 
3 288 307 308 
3 288 308 309 
3 288 309 310 
3 288 310 311 
3 288 311 312 
3 288 312 313 
3 288 313 314 
3 288 314 315 
3 288 315 316 
3 288 316 317 
3 288 317 318 
3 288 318 319 
