ply
format ascii 1.0
comment VCGLIB generated
element vertex 70
property float x
property float y
property float z
property uchar red
property uchar green
property uchar blue
property uchar alpha
element face 54
property list uchar int vertex_indices
end_header
0.833876 -0.126419 0.113345 255 0 0 255 
0.833876 0.124053 0.113345 255 0 0 255 
0.833876 0.124053 -0.137127 255 0 0 255 
0.833876 -0.126419 -0.137127 255 0 0 255 
1.00086 -0.00238291 -0.008383334 255 0 0 255 
0.833876 0.124053 0.113345 255 0 0 255 
0.833876 -0.126419 0.113345 255 0 0 255 
1.00086 -0.00238291 -0.008383334 255 0 0 255 
0.833876 0.124053 -0.137127 255 0 0 255 
0.833876 0.124053 0.113345 255 0 0 255 
1.00086 -0.00238291 -0.008383334 255 0 0 255 
0.833876 -0.126419 -0.137127 255 0 0 255 
0.833876 0.124053 -0.137127 255 0 0 255 
1.00086 -0.00238291 -0.008383334 255 0 0 255 
0.833876 -0.126419 0.113345 255 0 0 255 
0.833876 -0.126419 -0.137127 255 0 0 255 
0.835764 0.0378289 0.02858066 255 0 0 255 
0.418311 0.0378289 0.02858068 255 0 0 255 
0.418311 -0.00391646 0.02858068 255 0 0 255 
0.835764 0.0378289 -0.05491004 255 0 0 255 
0.418311 0.0378289 -0.05491002 255 0 0 255 
0.418311 0.0378289 -0.01316462 255 0 0 255 
0.835764 -0.0456618 -0.05491004 255 0 0 255 
0.418311 -0.0456618 -0.05491002 255 0 0 255 
0.418311 -0.00391646 -0.05491002 255 0 0 255 
0.835764 -0.0456618 0.02858066 255 0 0 255 
0.418311 -0.0456618 0.02858068 255 0 0 255 
0.418311 -0.0456618 -0.01316462 255 0 0 255 
0.0008576122 0.0378289 0.0285807 255 0 0 255 
0.0008576104 0.0378289 -0.0131646 255 0 0 255 
0.0008576104 -0.00391646 -0.0131646 255 0 0 255 
0.835764 0.0378289 -0.05491004 255 0 0 255 
0.835764 0.0378289 -0.01316464 255 0 0 255 
0.835764 -0.00391646 -0.01316464 255 0 0 255 
0.835764 -0.0456618 0.02858066 255 0 0 255 
0.835764 -0.00391646 0.02858066 255 0 0 255 
0.418311 -0.0456618 0.02858068 255 0 0 255 
0.835764 0.0378289 0.02858066 255 0 0 255 
0.835764 0.0378289 -0.01316464 255 0 0 255 
0.418311 0.0378289 0.02858068 255 0 0 255 
0.835764 0.0378289 -0.05491004 255 0 0 255 
0.835764 -0.00391646 -0.05491004 255 0 0 255 
0.418311 0.0378289 -0.05491002 255 0 0 255 
0.835764 -0.0456618 -0.05491004 255 0 0 255 
0.835764 -0.0456618 -0.01316464 255 0 0 255 
0.418311 -0.0456618 -0.05491002 255 0 0 255 
0.0008576122 -0.0456618 0.0285807 255 0 0 255 
0.0008576122 -0.00391646 0.0285807 255 0 0 255 
0.0008576104 -0.0456618 -0.0131646 255 0 0 255 
0.835764 -0.0456618 -0.05491004 255 0 0 255 
0.835764 -0.00391646 -0.05491004 255 0 0 255 
0.835764 -0.0456618 -0.01316464 255 0 0 255 
0.0008576122 -0.00391646 0.0285807 255 0 0 255 
0.0008576122 -0.0456618 0.0285807 255 0 0 255 
0.0008576122 0.0378289 0.0285807 255 0 0 255 
0.0008576104 0.0378289 -0.0131646 255 0 0 255 
0.0008576122 0.0378289 0.0285807 255 0 0 255 
0.0008576086 0.0378289 -0.05491 255 0 0 255 
0.0008576086 -0.00391646 -0.05491 255 0 0 255 
0.0008576086 0.0378289 -0.05491 255 0 0 255 
0.0008576086 -0.0456618 -0.05491 255 0 0 255 
0.0008576104 -0.0456618 -0.0131646 255 0 0 255 
0.0008576086 -0.0456618 -0.05491 255 0 0 255 
0.0008576122 -0.0456618 0.0285807 255 0 0 255 
0.0008576086 -0.00391646 -0.05491 255 0 0 255 
0.0008576086 -0.0456618 -0.05491 255 0 0 255 
0.0008576086 0.0378289 -0.05491 255 0 0 255 
0.835764 -0.00391646 0.02858066 255 0 0 255 
0.835764 -0.0456618 0.02858066 255 0 0 255 
0.835764 0.0378289 0.02858066 255 0 0 255 
3 0 1 2 
3 0 2 3 
3 4 5 6 
3 7 8 9 
3 10 11 12 
3 13 14 15 
3 16 17 18 
3 19 20 21 
3 22 23 24 
3 25 26 27 
3 28 29 30 
3 31 32 33 
3 34 35 36 
3 37 38 39 
3 40 41 42 
3 43 44 45 
3 46 47 48 
3 49 50 51 
3 18 52 53 
3 18 17 52 
3 17 54 52 
3 21 55 56 
3 21 20 55 
3 20 57 55 
3 24 58 59 
3 24 23 58 
3 23 60 58 
3 27 61 62 
3 27 26 61 
3 26 63 61 
3 30 64 65 
3 30 29 64 
3 29 66 64 
3 33 67 68 
3 33 32 67 
3 32 69 67 
3 36 18 53 
3 36 35 18 
3 35 16 18 
3 39 21 56 
3 39 38 21 
3 38 19 21 
3 42 24 59 
3 42 41 24 
3 41 22 24 
3 45 27 62 
3 45 44 27 
3 44 25 27 
3 48 30 65 
3 48 47 30 
3 47 28 30 
3 51 33 68 
3 51 50 33 
3 50 31 33 
