  0
SECTION
  2
HEADER
  9
$ACADVER
  1
AC1018
  9
$ACADMAINTVER
 70
    76
  9
$DWGCODEPAGE
  3
ANSI_1252
  9
$INSBASE
 10
0.0
 20
0.0
 30
0.0
  9
$EXTMIN
 10
1.000000000000000E+20
 20
1.000000000000000E+20
 30
1.000000000000000E+20
  9
$EXTMAX
 10
-1.000000000000000E+20
 20
-1.000000000000000E+20
 30
-1.000000000000000E+20
  9
$LIMMIN
 10
0.0
 20
0.0
  9
$LIMMAX
 10
12.0
 20
9.0
  9
$ORTHOMODE
 70
     0
  9
$REGENMODE
 70
     1
  9
$FILLMODE
 70
     1
  9
$QTEXTMODE
 70
     0
  9
$MIRRTEXT
 70
     1
  9
$LTSCALE
 40
1.0
  9
$ATTMODE
 70
     1
  9
$TEXTSIZE
 40
0.2
  9
$TRACEWID
 40
0.05
  9
$TEXTSTYLE
  7
Standard
  9
$CLAYER
  8
0
  9
$CELTYPE
  6
ByLayer
  9
$CECOLOR
 62
   256
  9
$CELTSCALE
 40
1.0
  9
$DISPSILH
 70
     0
  9
$DIMSCALE
 40
1.0
  9
$DIMASZ
 40
0.18
  9
$DIMEXO
 40
0.0625
  9
$DIMDLI
 40
0.38
  9
$DIMRND
 40
0.0
  9
$DIMDLE
 40
0.0
  9
$DIMEXE
 40
0.18
  9
$DIMTP
 40
0.0
  9
$DIMTM
 40
0.0
  9
$DIMTXT
 40
0.18
  9
$DIMCEN
 40
0.09
  9
$DIMTSZ
 40
0.0
  9
$DIMTOL
 70
     0
  9
$DIMLIM
 70
     0
  9
$DIMTIH
 70
     1
  9
$DIMTOH
 70
     1
  9
$DIMSE1
 70
     0
  9
$DIMSE2
 70
     0
  9
$DIMTAD
 70
     0
  9
$DIMZIN
 70
     0
  9
$DIMBLK
  1

  9
$DIMASO
 70
     1
  9
$DIMSHO
 70
     1
  9
$DIMPOST
  1

  9
$DIMAPOST
  1

  9
$DIMALT
 70
     0
  9
$DIMALTD
 70
     2
  9
$DIMALTF
 40
25.4
  9
$DIMLFAC
 40
1.0
  9
$DIMTOFL
 70
     0
  9
$DIMTVP
 40
0.0
  9
$DIMTIX
 70
     0
  9
$DIMSOXD
 70
     0
  9
$DIMSAH
 70
     0
  9
$DIMBLK1
  1

  9
$DIMBLK2
  1

  9
$DIMSTYLE
  2
Standard
  9
$DIMCLRD
 70
     0
  9
$DIMCLRE
 70
     0
  9
$DIMCLRT
 70
     0
  9
$DIMTFAC
 40
1.0
  9
$DIMGAP
 40
0.09
  9
$DIMJUST
 70
     0
  9
$DIMSD1
 70
     0
  9
$DIMSD2
 70
     0
  9
$DIMTOLJ
 70
     1
  9
$DIMTZIN
 70
     0
  9
$DIMALTZ
 70
     0
  9
$DIMALTTZ
 70
     0
  9
$DIMUPT
 70
     0
  9
$DIMDEC
 70
     4
  9
$DIMTDEC
 70
     4
  9
$DIMALTU
 70
     2
  9
$DIMALTTD
 70
     2
  9
$DIMTXSTY
  7
Standard
  9
$DIMAUNIT
 70
     0
  9
$DIMADEC
 70
     0
  9
$DIMALTRND
 40
0.0
  9
$DIMAZIN
 70
     0
  9
$DIMDSEP
 70
    46
  9
$DIMATFIT
 70
     3
  9
$DIMFRAC
 70
     0
  9
$DIMLDRBLK
  1

  9
$DIMLUNIT
 70
     2
  9
$DIMLWD
 70
    -2
  9
$DIMLWE
 70
    -2
  9
$DIMTMOVE
 70
     0
  9
$LUNITS
 70
     2
  9
$LUPREC
 70
     4
  9
$SKETCHINC
 40
0.1
  9
$FILLETRAD
 40
0.5
  9
$AUNITS
 70
     0
  9
$AUPREC
 70
     0
  9
$MENU
  1
.
  9
$ELEVATION
 40
0.0
  9
$PELEVATION
 40
0.0
  9
$THICKNESS
 40
0.0
  9
$LIMCHECK
 70
     0
  9
$CHAMFERA
 40
0.5
  9
$CHAMFERB
 40
0.5
  9
$CHAMFERC
 40
1.0
  9
$CHAMFERD
 40
0.0
  9
$SKPOLY
 70
     0
  9
$TDCREATE
 40
2451380.638765729
  9
$TDUCREATE
 40
2451380.805432396
  9
$TDUPDATE
 40
2451380.674513889
  9
$TDUUPDATE
 40
2451380.841180556
  9
$TDINDWG
 40
0.0075607407
  9
$TDUSRTIMER
 40
0.0075517014
  9
$USRTIMER
 70
     1
  9
$ANGBASE
 50
0.0
  9
$ANGDIR
 70
     0
  9
$PDMODE
 70
     0
  9
$PDSIZE
 40
0.0
  9
$PLINEWID
 40
0.0
  9
$SPLFRAME
 70
     0
  9
$SPLINETYPE
 70
     6
  9
$SPLINESEGS
 70
     8
  9
$HANDSEED
  5
3AC
  9
$SURFTAB1
 70
     6
  9
$SURFTAB2
 70
     6
  9
$SURFTYPE
 70
     6
  9
$SURFU
 70
     6
  9
$SURFV
 70
     6
  9
$UCSBASE
  2

  9
$UCSNAME
  2

  9
$UCSORG
 10
0.0
 20
0.0
 30
0.0
  9
$UCSXDIR
 10
1.0
 20
0.0
 30
0.0
  9
$UCSYDIR
 10
0.0
 20
1.0
 30
0.0
  9
$UCSORTHOREF
  2

  9
$UCSORTHOVIEW
 70
     0
  9
$UCSORGTOP
 10
0.0
 20
0.0
 30
0.0
  9
$UCSORGBOTTOM
 10
0.0
 20
0.0
 30
0.0
  9
$UCSORGLEFT
 10
0.0
 20
0.0
 30
0.0
  9
$UCSORGRIGHT
 10
0.0
 20
0.0
 30
0.0
  9
$UCSORGFRONT
 10
0.0
 20
0.0
 30
0.0
  9
$UCSORGBACK
 10
0.0
 20
0.0
 30
0.0
  9
$PUCSBASE
  2

  9
$PUCSNAME
  2

  9
$PUCSORG
 10
0.0
 20
0.0
 30
0.0
  9
$PUCSXDIR
 10
1.0
 20
0.0
 30
0.0
  9
$PUCSYDIR
 10
0.0
 20
1.0
 30
0.0
  9
$PUCSORTHOREF
  2

  9
$PUCSORTHOVIEW
 70
     0
  9
$PUCSORGTOP
 10
0.0
 20
0.0
 30
0.0
  9
$PUCSORGBOTTOM
 10
0.0
 20
0.0
 30
0.0
  9
$PUCSORGLEFT
 10
0.0
 20
0.0
 30
0.0
  9
$PUCSORGRIGHT
 10
0.0
 20
0.0
 30
0.0
  9
$PUCSORGFRONT
 10
0.0
 20
0.0
 30
0.0
  9
$PUCSORGBACK
 10
0.0
 20
0.0
 30
0.0
  9
$USERI1
 70
     0
  9
$USERI2
 70
     0
  9
$USERI3
 70
     0
  9
$USERI4
 70
     0
  9
$USERI5
 70
     0
  9
$USERR1
 40
0.0
  9
$USERR2
 40
0.0
  9
$USERR3
 40
0.0
  9
$USERR4
 40
0.0
  9
$USERR5
 40
0.0
  9
$WORLDVIEW
 70
     1
  9
$SHADEDGE
 70
     3
  9
$SHADEDIF
 70
    70
  9
$TILEMODE
 70
     1
  9
$MAXACTVP
 70
    64
  9
$PINSBASE
 10
0.0
 20
0.0
 30
0.0
  9
$PLIMCHECK
 70
     0
  9
$PEXTMIN
 10
1.000000000000000E+20
 20
1.000000000000000E+20
 30
1.000000000000000E+20
  9
$PEXTMAX
 10
-1.000000000000000E+20
 20
-1.000000000000000E+20
 30
-1.000000000000000E+20
  9
$PLIMMIN
 10
0.0
 20
0.0
  9
$PLIMMAX
 10
12.0
 20
9.0
  9
$UNITMODE
 70
     0
  9
$VISRETAIN
 70
     1
  9
$PLINEGEN
 70
     0
  9
$PSLTSCALE
 70
     1
  9
$TREEDEPTH
 70
  3020
  9
$CMLSTYLE
  2
Standard
  9
$CMLJUST
 70
     0
  9
$CMLSCALE
 40
1.0
  9
$PROXYGRAPHICS
 70
     1
  9
$MEASUREMENT
 70
     0
  9
$CELWEIGHT
370
    -1
  9
$ENDCAPS
280
     0
  9
$JOINSTYLE
280
     0
  9
$LWDISPLAY
290
     0
  9
$INSUNITS
 70
     1
  9
$HYPERLINKBASE
  1

  9
$STYLESHEET
  1

  9
$XEDIT
290
     1
  9
$CEPSNTYPE
380
     0
  9
$PSTYLEMODE
290
     1
  9
$FINGERPRINTGUID
  2
{12F50282-3ED8-11D3-A8B7-0060B0F84BC6}
  9
$VERSIONGUID
  2
{12F50293-3ED8-11D3-A8B7-0060B0F84BC6}
  9
$EXTNAMES
290
     1
  9
$PSVPSCALE
 40
0.0
  9
$OLESTARTUP
290
     0
  9
$SORTENTS
280
   127
  9
$INDEXCTL
280
     0
  9
$HIDETEXT
280
     0
  9
$XCLIPFRAME
290
     0
  9
$HALOGAP
280
     0
  9
$OBSCOLOR
 70
   257
  9
$OBSLTYPE
280
     0
  9
$INTERSECTIONDISPLAY
280
     0
  9
$INTERSECTIONCOLOR
 70
   257
  9
$DIMASSOC
280
     1
  9
$PROJECTNAME
  1

  0
ENDSEC
  0
SECTION
  2
CLASSES
  0
CLASS
  1
ACDBDICTIONARYWDFLT
  2
AcDbDictionaryWithDefault
  3
ObjectDBX Classes
 90
        0
 91
        0
280
     0
281
     0
  0
CLASS
  1
ACDBPLACEHOLDER
  2
AcDbPlaceHolder
  3
ObjectDBX Classes
 90
        0
 91
        0
280
     0
281
     0
  0
CLASS
  1
LAYOUT
  2
AcDbLayout
  3
ObjectDBX Classes
 90
        0
 91
        3
280
     0
281
     0
  0
CLASS
  1
TABLESTYLE
  2
AcDbTableStyle
  3
ObjectDBX Classes
 90
     2047
 91
        1
280
     0
281
     0
  0
CLASS
  1
DICTIONARYVAR
  2
AcDbDictionaryVar
  3
ObjectDBX Classes
 90
        0
 91
        1
280
     0
281
     0
  0
ENDSEC
  0
SECTION
  2
TABLES
  0
TABLE
  2
VPORT
  5
8
330
0
100
AcDbSymbolTable
 70
     1
  0
VPORT
  5
A8
330
8
100
AcDbSymbolTableRecord
100
AcDbViewportTableRecord
  2
*Active
 70
     0
 10
0.0
 20
0.0
 11
1.0
 21
1.0
 12
69.42658233642578
 22
-40.08793640136718
 13
0.0
 23
0.0
 14
0.5
 24
0.5
 15
0.5
 25
0.5
 16
-1.0
 26
-1.0
 36
1.0
 17
0.0
 27
0.0
 37
0.0
 40
161.4350035997844
 41
1.280143234698181
 42
50.0
 43
0.0
 44
0.0
 50
0.0
 51
0.0
 71
     0
 72
   100
 73
     1
 74
     3
 75
     0
 76
     0
 77
     0
 78
     0
281
     0
 65
     1
110
0.0
120
0.0
130
0.0
111
1.0
121
0.0
131
0.0
112
0.0
122
1.0
132
0.0
 79
     0
146
0.0
  0
ENDTAB
  0
TABLE
  2
LTYPE
  5
5
330
0
100
AcDbSymbolTable
 70
     1
  0
LTYPE
  5
14
330
5
100
AcDbSymbolTableRecord
100
AcDbLinetypeTableRecord
  2
ByBlock
 70
     0
  3

 72
    65
 73
     0
 40
0.0
  0
LTYPE
  5
15
330
5
100
AcDbSymbolTableRecord
100
AcDbLinetypeTableRecord
  2
ByLayer
 70
     0
  3

 72
    65
 73
     0
 40
0.0
  0
LTYPE
  5
16
330
5
100
AcDbSymbolTableRecord
100
AcDbLinetypeTableRecord
  2
Continuous
 70
     0
  3
Solid line
 72
    65
 73
     0
 40
0.0
  0
ENDTAB
  0
TABLE
  2
LAYER
  5
2
330
0
100
AcDbSymbolTable
 70
     2
  0
LAYER
  5
10
330
2
100
AcDbSymbolTableRecord
100
AcDbLayerTableRecord
  2
0
 70
     0
 62
   136
420
   427633
  6
Continuous
370
    -3
390
F
  0
LAYER
  5
2B
330
2
100
AcDbSymbolTableRecord
100
AcDbLayerTableRecord
  2
ASHADE
 70
     4
 62
     7
  6
Continuous
370
    -3
390
2D
  0
ENDTAB
  0
TABLE
  2
STYLE
  5
3
330
0
100
AcDbSymbolTable
 70
     2
  0
STYLE
  5
11
330
3
100
AcDbSymbolTableRecord
100
AcDbTextStyleTableRecord
  2
Standard
 70
     0
 40
0.0
 41
1.0
 50
0.0
 71
     0
 42
0.2
  3
txt
  4

  0
STYLE
  5
2C
330
3
100
AcDbSymbolTableRecord
100
AcDbTextStyleTableRecord
  2
ASHADE
 70
     0
 40
0.2
 41
1.0
 50
0.0
 71
     0
 42
0.2
  3
simplex
  4

  0
ENDTAB
  0
TABLE
  2
VIEW
  5
6
330
0
100
AcDbSymbolTable
 70
     0
  0
ENDTAB
  0
TABLE
  2
UCS
  5
7
330
0
100
AcDbSymbolTable
 70
     0
  0
ENDTAB
  0
TABLE
  2
APPID
  5
9
330
0
100
AcDbSymbolTable
 70
     6
  0
APPID
  5
12
330
9
100
AcDbSymbolTableRecord
100
AcDbRegAppTableRecord
  2
ACAD
 70
     0
  0
APPID
  5
8F
330
9
100
AcDbSymbolTableRecord
100
AcDbRegAppTableRecord
  2
AVE_RENDER
 70
     0
  0
APPID
  5
90
330
9
100
AcDbSymbolTableRecord
100
AcDbRegAppTableRecord
  2
AVE_ENTITY_MATERIAL
 70
     0
  0
APPID
  5
9C
330
9
100
AcDbSymbolTableRecord
100
AcDbRegAppTableRecord
  2
AVE_FINISH
 70
     0
  0
APPID
  5
9D
330
9
100
AcDbSymbolTableRecord
100
AcDbRegAppTableRecord
  2
AVE_MATERIAL
 70
     0
  0
APPID
  5
9E
330
9
100
AcDbSymbolTableRecord
100
AcDbRegAppTableRecord
  2
AVE_GLOBAL
 70
     0
  0
ENDTAB
  0
TABLE
  2
DIMSTYLE
  5
A
330
0
100
AcDbSymbolTable
 70
     1
100
AcDbDimStyleTable
 71
     0
  0
DIMSTYLE
105
27
330
A
100
AcDbSymbolTableRecord
100
AcDbDimStyleTableRecord
  2
Standard
 70
     0
340
11
  0
ENDTAB
  0
TABLE
  2
BLOCK_RECORD
  5
1
330
0
100
AcDbSymbolTable
 70
     6
  0
BLOCK_RECORD
  5
1F
330
1
100
AcDbSymbolTableRecord
100
AcDbBlockTableRecord
  2
*Model_Space
340
22
  0
BLOCK_RECORD
  5
1B
330
1
100
AcDbSymbolTableRecord
100
AcDbBlockTableRecord
  2
*Paper_Space
340
1E
  0
BLOCK_RECORD
  5
23
330
1
100
AcDbSymbolTableRecord
100
AcDbBlockTableRecord
  2
*Paper_Space0
340
26
  0
BLOCK_RECORD
  5
2E
330
1
100
AcDbSymbolTableRecord
100
AcDbBlockTableRecord
  2
direct
340
0
  0
BLOCK_RECORD
  5
42
330
1
100
AcDbSymbolTableRecord
100
AcDbBlockTableRecord
  2
overhead
340
0
  0
BLOCK_RECORD
  5
5F
330
1
100
AcDbSymbolTableRecord
100
AcDbBlockTableRecord
  2
sh_spot
340
0
  0
BLOCK_RECORD
  5
91
330
1
100
AcDbSymbolTableRecord
100
AcDbBlockTableRecord
  2
AVE_RENDER
340
0
102
{BLKREFS
331
94
331
95
331
96
331
97
331
98
331
99
331
9A
331
9B
102
}
  0
BLOCK_RECORD
  5
9F
330
1
100
AcDbSymbolTableRecord
100
AcDbBlockTableRecord
  2
AVE_GLOBAL
340
0
102
{BLKREFS
331
A2
102
}
  0
ENDTAB
  0
ENDSEC
  0
SECTION
  2
BLOCKS
  0
BLOCK
  5
20
330
1F
100
AcDbEntity
  8
0
100
AcDbBlockBegin
  2
*Model_Space
 70
     0
 10
0.0
 20
0.0
 30
0.0
  3
*Model_Space
  1

  0
ENDBLK
  5
21
330
1F
100
AcDbEntity
  8
0
100
AcDbBlockEnd
  0
BLOCK
  5
1C
330
1B
100
AcDbEntity
 67
     1
  8
0
100
AcDbBlockBegin
  2
*Paper_Space
 70
     0
 10
0.0
 20
0.0
 30
0.0
  3
*Paper_Space
  1

  0
ENDBLK
  5
1D
330
1B
100
AcDbEntity
 67
     1
  8
0
100
AcDbBlockEnd
  0
BLOCK
  5
24
330
23
100
AcDbEntity
 67
     1
  8
0
100
AcDbBlockBegin
  2
*Paper_Space0
 70
     0
 10
0.0
 20
0.0
 30
0.0
  3
*Paper_Space0
  1

  0
ENDBLK
  5
25
330
23
100
AcDbEntity
 67
     1
  8
0
100
AcDbBlockEnd
  0
BLOCK
  5
40
330
2E
100
AcDbEntity
  8
0
100
AcDbBlockBegin
  2
direct
 70
     2
 10
0.0
 20
0.0
 30
0.0
  3
direct
  1

  0
ATTDEF
  5
2F
330
2E
100
AcDbEntity
  8
ASHADE
  6
Continuous
 62
     1
100
AcDbText
 10
0.0
 20
-0.1
 30
0.0
 40
0.2
  1

  7
ASHADE
 72
     1
 11
0.0
 21
-0.1
 31
0.0
100
AcDbAttributeDefinition
  3
Light Name
  2
SNAME
 70
     0
  0
ARC
  5
30
330
2E
100
AcDbEntity
  8
ASHADE
  6
Continuous
 62
     7
100
AcDbCircle
 10
0.0
 20
0.0
 30
0.0
 40
0.3
100
AcDbArc
 50
205.6792886194569
 51
334.3207113805431
  0
ARC
  5
31
330
2E
100
AcDbEntity
  8
ASHADE
  6
Continuous
 62
     7
100
AcDbCircle
 10
0.0
 20
0.0
 30
0.0
 40
0.3
100
AcDbArc
 50
25.67928861945685
 51
154.3207113805431
  0
LINE
  5
32
330
2E
100
AcDbEntity
  8
ASHADE
  6
Continuous
 62
     7
100
AcDbLine
 10
-0.21
 20
0.2142428528562855
 30
0.0
 11
-0.21
 21
0.5
 31
0.0
  0
LINE
  5
33
330
2E
100
AcDbEntity
  8
ASHADE
  6
Continuous
 62
     7
100
AcDbLine
 10
-0.11
 20
0.2791057147390572
 30
0.0
 11
-0.11
 21
0.5
 31
0.0
  0
LINE
  5
34
330
2E
100
AcDbEntity
  8
ASHADE
  6
Continuous
 62
     7
100
AcDbLine
 10
0.21
 20
0.2142428528562855
 30
0.0
 11
0.21
 21
0.5
 31
0.0
  0
ATTDEF
  5
35
330
2E
100
AcDbEntity
  8
ASHADE
  6
Continuous
 62
     7
100
AcDbText
 10
0.0
 20
0.25
 30
0.0
 40
0.01
  1

100
AcDbAttributeDefinition
  3
Look-at Y
  2
LAY
 70
     1
  0
ATTDEF
  5
36
330
2E
100
AcDbEntity
  8
ASHADE
  6
Continuous
 62
     7
100
AcDbText
 10
0.0
 20
0.22
 30
0.0
 40
0.01
  1
1
100
AcDbAttributeDefinition
  3
Light Intensity
  2
INTENSITY
 70
     1
  0
ATTDEF
  5
37
330
2E
100
AcDbEntity
  8
ASHADE
  6
Continuous
 62
     7
100
AcDbText
 10
0.0
 20
0.16
 30
0.0
 40
0.01
  1
-1
100
AcDbAttributeDefinition
  3
*not used*
  2
BEAMD
 70
     1
  0
ATTDEF
  5
38
330
2E
100
AcDbEntity
  8
ASHADE
  6
Continuous
 62
     7
100
AcDbText
 10
0.0
 20
0.175
 30
0.0
 40
0.01
  1
-1
100
AcDbAttributeDefinition
  3
*not used*
  2
CONED
 70
     1
  0
ATTDEF
  5
39
330
2E
100
AcDbEntity
  8
ASHADE
  6
Continuous
 62
     7
100
AcDbText
 10
0.0
 20
0.19
 30
0.0
 40
0.01
  1
0
100
AcDbAttributeDefinition
  3
Depth Map Size
  2
CONEA
 70
     1
  0
ATTDEF
  5
3A
330
2E
100
AcDbEntity
  8
ASHADE
  6
Continuous
 62
     7
100
AcDbText
 10
0.0
 20
0.2050000000000001
 30
0.0
 40
0.01
  1
1,1,1
100
AcDbAttributeDefinition
  3
Light Color (RGB)
  2
COLOR
 70
     1
  0
ATTDEF
  5
3B
330
2E
100
AcDbEntity
  8
ASHADE
  6
Continuous
 62
     7
100
AcDbText
 10
0.0
 20
0.235
 30
0.0
 40
0.01
  1

100
AcDbAttributeDefinition
  3
Look-at Z
  2
LAZ
 70
     1
  0
LINE
  5
3C
330
2E
100
AcDbEntity
  8
ASHADE
  6
Continuous
 62
     7
100
AcDbLine
 10
0.0
 20
0.3
 30
0.0
 11
0.0
 21
0.5
 31
0.0
  0
LINE
  5
3D
330
2E
100
AcDbEntity
  8
ASHADE
  6
Continuous
 62
     7
100
AcDbLine
 10
0.11
 20
0.2791057147390572
 30
0.0
 11
0.11
 21
0.5
 31
0.0
  0
ATTDEF
  5
3E
330
2E
100
AcDbEntity
  8
ASHADE
  6
Continuous
 62
     7
100
AcDbText
 10
0.0
 20
0.265
 30
0.0
 40
0.01
  1

100
AcDbAttributeDefinition
  3
Look-at X
  2
LAX
 70
     1
  0
ATTDEF
  5
3F
330
2E
100
AcDbEntity
  8
ASHADE
  6
Continuous
 62
     7
100
AcDbText
 10
0.0
 20
0.28
 30
0.0
 40
0.01
  1

100
AcDbAttributeDefinition
  3

  2
GNAME
 70
     1
  0
ENDBLK
  5
41
330
2E
100
AcDbEntity
  8
0
100
AcDbBlockEnd
  0
BLOCK
  5
5D
330
42
100
AcDbEntity
  8
0
100
AcDbBlockBegin
  2
overhead
 70
     2
 10
0.0
 20
0.0
 30
0.0
  3
overhead
  1

  0
ATTDEF
  5
43
330
42
100
AcDbEntity
  8
ASHADE
  6
Continuous
 62
     1
100
AcDbText
 10
0.0
 20
-0.1
 30
0.0
 40
0.2
  1

  7
ASHADE
 72
     1
 11
0.0
 21
-0.1
 31
0.0
100
AcDbAttributeDefinition
  3
Light Name
  2
SNAME
 70
     0
  0
ARC
  5
44
330
42
100
AcDbEntity
  8
ASHADE
  6
Continuous
 62
     7
100
AcDbCircle
 10
0.0
 20
0.0
 30
0.0
 40
0.3
100
AcDbArc
 50
205.6792886194569
 51
334.3207113805431
  0
LINE
  5
45
330
42
100
AcDbEntity
  8
ASHADE
  6
Continuous
 62
     7
100
AcDbLine
 10
-0.2041413561583015
 20
-0.2198324514393848
 30
0.0
 11
-0.2721884748777353
 21
-0.2931099352525131
 31
0.0
  0
LINE
  5
46
330
42
100
AcDbEntity
  8
ASHADE
  6
Continuous
 62
     7
100
AcDbLine
 10
-0.1096591641591904
 20
-0.2792398032442862
 30
0.0
 11
-0.1279356915190555
 21
-0.3257797704516673
 31
0.0
  0
LINE
  5
47
330
42
100
AcDbEntity
  8
ASHADE
  6
Continuous
 62
     7
100
AcDbLine
 10
0.0
 20
-0.2999999999999999
 30
0.0
 11
0.0
 21
-0.4
 31
0.0
  0
LINE
  5
48
330
42
100
AcDbEntity
  8
ASHADE
  6
Continuous
 62
     7
100
AcDbLine
 10
0.1096591641591904
 20
-0.2792398032442862
 30
0.0
 11
0.1279356915190555
 21
-0.3257797704516673
 31
0.0
  0
LINE
  5
49
330
42
100
AcDbEntity
  8
ASHADE
  6
Continuous
 62
     7
100
AcDbLine
 10
0.2041413561583015
 20
-0.2198324514393848
 30
0.0
 11
0.2721884748777353
 21
-0.2931099352525131
 31
0.0
  0
ARC
  5
4A
330
42
100
AcDbEntity
  8
ASHADE
  6
Continuous
 62
     7
100
AcDbCircle
 10
0.0
 20
0.0
 30
0.0
 40
0.3
100
AcDbArc
 50
25.67928861945685
 51
154.3207113805431
  0
LINE
  5
4B
330
42
100
AcDbEntity
  8
ASHADE
  6
Continuous
 62
     7
100
AcDbLine
 10
-0.2703701166919155
 20
0.13
 30
0.0
 11
-0.3154318028072347
 21
0.1516666666666666
 31
0.0
  0
LINE
  5
4C
330
42
100
AcDbEntity
  8
ASHADE
  6
Continuous
 62
     7
100
AcDbLine
 10
-0.2703701166919155
 20
-0.13
 30
0.0
 11
-0.3154318028072347
 21
-0.1516666666666666
 31
0.0
  0
LINE
  5
4D
330
42
100
AcDbEntity
  8
ASHADE
  6
Continuous
 62
     7
100
AcDbLine
 10
-0.2041413561583015
 20
0.2198324514393849
 30
0.0
 11
-0.2721884748777353
 21
0.2931099352525131
 31
0.0
  0
LINE
  5
4E
330
42
100
AcDbEntity
  8
ASHADE
  6
Continuous
 62
     7
100
AcDbLine
 10
-0.1096591641591904
 20
0.2792398032442862
 30
0.0
 11
-0.1279356915190555
 21
0.3257797704516674
 31
0.0
  0
LINE
  5
4F
330
42
100
AcDbEntity
  8
ASHADE
  6
Continuous
 62
     7
100
AcDbLine
 10
0.2703701166919155
 20
-0.13
 30
0.0
 11
0.3154318028072347
 21
-0.1516666666666666
 31
0.0
  0
LINE
  5
50
330
42
100
AcDbEntity
  8
ASHADE
  6
Continuous
 62
     7
100
AcDbLine
 10
0.2703701166919155
 20
0.13
 30
0.0
 11
0.3154318028072347
 21
0.1516666666666666
 31
0.0
  0
LINE
  5
51
330
42
100
AcDbEntity
  8
ASHADE
  6
Continuous
 62
     7
100
AcDbLine
 10
0.0
 20
0.3
 30
0.0
 11
0.0
 21
0.4
 31
0.0
  0
ATTDEF
  5
52
330
42
100
AcDbEntity
  8
ASHADE
  6
Continuous
 62
     7
100
AcDbText
 10
0.0
 20
0.22
 30
0.0
 40
0.01
  1
1
100
AcDbAttributeDefinition
  3
Light Intensity
  2
INTENSITY
 70
     1
  0
ATTDEF
  5
53
330
42
100
AcDbEntity
  8
ASHADE
  6
Continuous
 62
     7
100
AcDbText
 10
0.0
 20
0.16
 30
0.0
 40
0.01
  1
-1
100
AcDbAttributeDefinition
  3
*not used*
  2
BEAMD
 70
     1
  0
ATTDEF
  5
54
330
42
100
AcDbEntity
  8
ASHADE
  6
Continuous
 62
     7
100
AcDbText
 10
0.0
 20
0.175
 30
0.0
 40
0.01
  1
-1
100
AcDbAttributeDefinition
  3
*not used*
  2
CONED
 70
     1
  0
ATTDEF
  5
55
330
42
100
AcDbEntity
  8
ASHADE
  6
Continuous
 62
     7
100
AcDbText
 10
0.0
 20
0.19
 30
0.0
 40
0.01
  1
0
100
AcDbAttributeDefinition
  3
Depth Map Size
  2
CONEA
 70
     1
  0
ATTDEF
  5
56
330
42
100
AcDbEntity
  8
ASHADE
  6
Continuous
 62
     7
100
AcDbText
 10
0.0
 20
0.2050000000000001
 30
0.0
 40
0.01
  1
1,1,1
100
AcDbAttributeDefinition
  3
Light Color (RGB)
  2
COLOR
 70
     1
  0
ATTDEF
  5
57
330
42
100
AcDbEntity
  8
ASHADE
  6
Continuous
 62
     7
100
AcDbText
 10
0.0
 20
0.235
 30
0.0
 40
0.01
  1

100
AcDbAttributeDefinition
  3
Look-at Z
  2
LAZ
 70
     1
  0
ATTDEF
  5
58
330
42
100
AcDbEntity
  8
ASHADE
  6
Continuous
 62
     7
100
AcDbText
 10
0.0
 20
0.25
 30
0.0
 40
0.01
  1

100
AcDbAttributeDefinition
  3
Look-at Y
  2
LAY
 70
     1
  0
ATTDEF
  5
59
330
42
100
AcDbEntity
  8
ASHADE
  6
Continuous
 62
     7
100
AcDbText
 10
0.0
 20
0.265
 30
0.0
 40
0.01
  1

100
AcDbAttributeDefinition
  3
Look-at X
  2
LAX
 70
     1
  0
ATTDEF
  5
5A
330
42
100
AcDbEntity
  8
ASHADE
  6
Continuous
 62
     7
100
AcDbText
 10
0.0
 20
0.28
 30
0.0
 40
0.01
  1

100
AcDbAttributeDefinition
  3

  2
GNAME
 70
     1
  0
LINE
  5
5B
330
42
100
AcDbEntity
  8
ASHADE
  6
Continuous
 62
     7
100
AcDbLine
 10
0.1096591641591904
 20
0.2792398032442862
 30
0.0
 11
0.1279356915190555
 21
0.3257797704516674
 31
0.0
  0
LINE
  5
5C
330
42
100
AcDbEntity
  8
ASHADE
  6
Continuous
 62
     7
100
AcDbLine
 10
0.2041413561583015
 20
0.2198324514393849
 30
0.0
 11
0.2721884748777353
 21
0.2931099352525131
 31
0.0
  0
ENDBLK
  5
5E
330
42
100
AcDbEntity
  8
0
100
AcDbBlockEnd
  0
BLOCK
  5
85
330
5F
100
AcDbEntity
  8
0
100
AcDbBlockBegin
  2
sh_spot
 70
     2
 10
0.0
 20
0.0
 30
0.0
  3
sh_spot
  1

  0
LINE
  5
60
330
5F
100
AcDbEntity
  8
ASHADE
  6
Continuous
 62
     7
100
AcDbLine
 10
0.25
 20
0.26
 30
0.0
 11
-0.25
 21
0.26
 31
0.0
  0
LINE
  5
61
330
5F
100
AcDbEntity
  8
ASHADE
  6
Continuous
 62
     7
100
AcDbLine
 10
-0.25
 20
-0.3399999999999999
 30
0.0
 11
0.25
 21
-0.3399999999999999
 31
0.0
  0
ATTDEF
  5
62
330
5F
100
AcDbEntity
  8
ASHADE
  6
Continuous
 62
     1
100
AcDbText
 10
0.0
 20
-0.1
 30
0.0
 40
0.2
  1

  7
ASHADE
 72
     1
 11
0.0
 21
-0.1
 31
0.0
100
AcDbAttributeDefinition
  3
Light Name
  2
SNAME
 70
     0
  0
LINE
  5
63
330
5F
100
AcDbEntity
  8
ASHADE
  6
Continuous
 62
     7
100
AcDbLine
 10
-0.25
 20
-0.13
 30
0.0
 11
-0.25
 21
-0.3399999999999999
 31
0.0
  0
LINE
  5
64
330
5F
100
AcDbEntity
  8
ASHADE
  6
Continuous
 62
     7
100
AcDbLine
 10
-0.25
 20
-0.18
 30
0.0
 11
-0.29
 21
-0.18
 31
0.0
  0
LINE
  5
65
330
5F
100
AcDbEntity
  8
ASHADE
  6
Continuous
 62
     7
100
AcDbLine
 10
-0.29
 20
-0.22
 30
0.0
 11
-0.25
 21
-0.22
 31
0.0
  0
LINE
  5
66
330
5F
100
AcDbEntity
  8
ASHADE
  6
Continuous
 62
     7
100
AcDbLine
 10
-0.29
 20
-0.18
 30
0.0
 11
-0.29
 21
-0.22
 31
0.0
  0
LINE
  5
67
330
5F
100
AcDbEntity
  8
ASHADE
  6
Continuous
 62
     7
100
AcDbLine
 10
-0.1045454545454545
 20
0.26
 30
0.0
 11
-0.15
 21
0.46
 31
0.0
  0
LINE
  5
68
330
5F
100
AcDbEntity
  8
ASHADE
  6
Continuous
 62
     7
100
AcDbLine
 10
-0.21
 20
0.26
 30
0.0
 11
-0.301304347826087
 21
0.46
 31
0.0
  0
LINE
  5
69
330
5F
100
AcDbEntity
  8
ASHADE
  6
Continuous
 62
     7
100
AcDbLine
 10
-0.25
 20
0.26
 30
0.0
 11
-0.25
 21
0.13
 31
0.0
  0
LINE
  5
6A
330
5F
100
AcDbEntity
  8
ASHADE
  6
Continuous
 62
     7
100
AcDbLine
 10
-0.25
 20
0.22
 30
0.0
 11
-0.29
 21
0.22
 31
0.0
  0
LINE
  5
6B
330
5F
100
AcDbEntity
  8
ASHADE
  6
Continuous
 62
     7
100
AcDbLine
 10
-0.29
 20
0.1799999999999999
 30
0.0
 11
-0.25
 21
0.1799999999999999
 31
0.0
  0
LINE
  5
6C
330
5F
100
AcDbEntity
  8
ASHADE
  6
Continuous
 62
     7
100
AcDbLine
 10
-0.29
 20
0.22
 30
0.0
 11
-0.29
 21
0.1799999999999999
 31
0.0
  0
ATTDEF
  5
6D
330
5F
100
AcDbEntity
  8
ASHADE
  6
Continuous
 62
     7
100
AcDbText
 10
0.0
 20
-0.24
 30
0.0
 40
0.01
  1
0
100
AcDbAttributeDefinition
  3
Depth Map Size
  2
ZSIZE
 70
     1
  0
ATTDEF
  5
6E
330
5F
100
AcDbEntity
  8
ASHADE
  6
Continuous
 62
     7
100
AcDbText
 10
0.0
 20
-0.3300000000000001
 30
0.0
 40
0.01
  1
0,0,0
100
AcDbAttributeDefinition
  3
Look-from XYZ
  2
LFXYZ
 70
     1
  0
ATTDEF
  5
6F
330
5F
100
AcDbEntity
  8
ASHADE
  6
Continuous
 62
     7
100
AcDbText
 10
0.0
 20
-0.315
 30
0.0
 40
0.01
  1
0.0
100
AcDbAttributeDefinition
  3
Beam Distribution
  2
BEAMDI
 70
     1
  0
ATTDEF
  5
70
330
5F
100
AcDbEntity
  8
ASHADE
  6
Continuous
 62
     7
100
AcDbText
 10
0.0
 20
-0.3
 30
0.0
 40
0.01
  1
0.0
100
AcDbAttributeDefinition
  3
Cone Delta
  2
CONEDE
 70
     1
  0
ATTDEF
  5
71
330
5F
100
AcDbEntity
  8
ASHADE
  6
Continuous
 62
     7
100
AcDbText
 10
0.0
 20
-0.2850000000000001
 30
0.0
 40
0.01
  1
10.0
100
AcDbAttributeDefinition
  3
Cone Angle
  2
CONEAN
 70
     1
  0
ATTDEF
  5
72
330
5F
100
AcDbEntity
  8
ASHADE
  6
Continuous
 62
     7
100
AcDbText
 10
0.0
 20
-0.27
 30
0.0
 40
0.01
  1
-1
100
AcDbAttributeDefinition
  3
*not used*
  2
BIASMAX
 70
     1
  0
ATTDEF
  5
73
330
5F
100
AcDbEntity
  8
ASHADE
  6
Continuous
 62
     7
100
AcDbText
 10
0.0
 20
-0.255
 30
0.0
 40
0.01
  1
-1
100
AcDbAttributeDefinition
  3
*not used*
  2
BIASMIN
 70
     1
  0
ATTDEF
  5
74
330
5F
100
AcDbEntity
  8
ASHADE
  6
Continuous
 62
     7
100
AcDbText
 10
0.0
 20
-0.225
 30
0.0
 40
0.01
  1
1,1,1
100
AcDbAttributeDefinition
  3
Light Color (RGB)
  2
COLOR
 70
     1
  0
ATTDEF
  5
75
330
5F
100
AcDbEntity
  8
ASHADE
  6
Continuous
 62
     7
100
AcDbText
 10
0.0
 20
-0.21
 30
0.0
 40
0.01
  1
1
100
AcDbAttributeDefinition
  3
Light Intensity
  2
INTENSITY
 70
     1
  0
ATTDEF
  5
76
330
5F
100
AcDbEntity
  8
ASHADE
  6
Continuous
 62
     7
100
AcDbText
 10
0.0
 20
-0.15
 30
0.0
 40
0.01
  1

100
AcDbAttributeDefinition
  3

  2
GNAME
 70
     1
  0
ATTDEF
  5
77
330
5F
100
AcDbEntity
  8
ASHADE
  6
Continuous
 62
     7
100
AcDbText
 10
0.0
 20
-0.195
 30
0.0
 40
0.01
  1

100
AcDbAttributeDefinition
  3
Look-at Z
  2
LAZ
 70
     1
  0
ATTDEF
  5
78
330
5F
100
AcDbEntity
  8
ASHADE
  6
Continuous
 62
     7
100
AcDbText
 10
0.0
 20
-0.18
 30
0.0
 40
0.01
  1

100
AcDbAttributeDefinition
  3
Look-at Y
  2
LAY
 70
     1
  0
ATTDEF
  5
79
330
5F
100
AcDbEntity
  8
ASHADE
  6
Continuous
 62
     7
100
AcDbText
 10
0.0
 20
-0.165
 30
0.0
 40
0.01
  1

100
AcDbAttributeDefinition
  3
Look-at X
  2
LAX
 70
     1
  0
LINE
  5
7A
330
5F
100
AcDbEntity
  8
ASHADE
  6
Continuous
 62
     7
100
AcDbLine
 10
0.25
 20
-0.3399999999999999
 30
0.0
 11
0.25
 21
-0.13
 31
0.0
  0
LINE
  5
7B
330
5F
100
AcDbEntity
  8
ASHADE
  6
Continuous
 62
     7
100
AcDbLine
 10
0.25
 20
-0.18
 30
0.0
 11
0.29
 21
-0.18
 31
0.0
  0
LINE
  5
7C
330
5F
100
AcDbEntity
  8
ASHADE
  6
Continuous
 62
     7
100
AcDbLine
 10
0.29
 20
-0.22
 30
0.0
 11
0.25
 21
-0.22
 31
0.0
  0
LINE
  5
7D
330
5F
100
AcDbEntity
  8
ASHADE
  6
Continuous
 62
     7
100
AcDbLine
 10
0.29
 20
-0.18
 30
0.0
 11
0.29
 21
-0.22
 31
0.0
  0
LINE
  5
7E
330
5F
100
AcDbEntity
  8
ASHADE
  6
Continuous
 62
     7
100
AcDbLine
 10
0.21
 20
0.26
 30
0.0
 11
0.301304347826087
 21
0.46
 31
0.0
  0
LINE
  5
7F
330
5F
100
AcDbEntity
  8
ASHADE
  6
Continuous
 62
     7
100
AcDbLine
 10
0.1045454545454545
 20
0.26
 30
0.0
 11
0.15
 21
0.46
 31
0.0
  0
LINE
  5
80
330
5F
100
AcDbEntity
  8
ASHADE
  6
Continuous
 62
     7
100
AcDbLine
 10
0.0
 20
0.26
 30
0.0
 11
0.0
 21
0.46
 31
0.0
  0
LINE
  5
81
330
5F
100
AcDbEntity
  8
ASHADE
  6
Continuous
 62
     7
100
AcDbLine
 10
0.25
 20
0.13
 30
0.0
 11
0.25
 21
0.26
 31
0.0
  0
LINE
  5
82
330
5F
100
AcDbEntity
  8
ASHADE
  6
Continuous
 62
     7
100
AcDbLine
 10
0.25
 20
0.22
 30
0.0
 11
0.29
 21
0.22
 31
0.0
  0
LINE
  5
83
330
5F
100
AcDbEntity
  8
ASHADE
  6
Continuous
 62
     7
100
AcDbLine
 10
0.29
 20
0.1799999999999999
 30
0.0
 11
0.25
 21
0.1799999999999999
 31
0.0
  0
LINE
  5
84
330
5F
100
AcDbEntity
  8
ASHADE
  6
Continuous
 62
     7
100
AcDbLine
 10
0.29
 20
0.22
 30
0.0
 11
0.29
 21
0.1799999999999999
 31
0.0
  0
ENDBLK
  5
86
330
5F
100
AcDbEntity
  8
0
100
AcDbBlockEnd
  0
BLOCK
  5
92
330
91
100
AcDbEntity
  8
ASHADE
100
AcDbBlockBegin
  2
AVE_RENDER
 70
     0
 10
0.0
 20
0.0
 30
0.0
  3
AVE_RENDER
  1
AVE_RENDER
  0
ENDBLK
  5
93
330
91
100
AcDbEntity
  8
0
100
AcDbBlockEnd
  0
BLOCK
  5
A0
330
9F
100
AcDbEntity
  8
ASHADE
100
AcDbBlockBegin
  2
AVE_GLOBAL
 70
     0
 10
0.0
 20
0.0
 30
0.0
  3
AVE_GLOBAL
  1
AVE_GLOBAL
  0
ENDBLK
  5
A1
330
9F
100
AcDbEntity
  8
0
100
AcDbBlockEnd
  0
ENDSEC
  0
SECTION
  2
ENTITIES
  0
INSERT
  5
94
330
1F
100
AcDbEntity
  8
ASHADE
 62
     1
100
AcDbBlockReference
  2
AVE_RENDER
 10
0.0
 20
0.0
 30
0.0
1001
AVE_RENDER
1002
{
1070
     7
1000
Pref
1070
    30
1070
    20
1070
     1
1070
     0
1000

1070
    10
1070
     1
1070
    10
1040
1.0
1070
     1
1040
0.3
1040
0.7
1040
0.0
1040
10.0
1010
-1.0
1020
-1.0
1030
-1.0
1040
0.3
1070
    49
1070
     0
1070
     0
1010
1.0
1020
1.0
1030
1.0
1040
45.0
1070
     1
1070
     0
1000
WCS
1040
0.0
1070
     0
1040
10.0
1002
}
  0
INSERT
  5
95
330
1F
100
AcDbEntity
  8
ASHADE
 62
     3
100
AcDbBlockReference
  2
AVE_RENDER
 10
0.0
 20
0.0
 30
0.0
1001
AVE_RENDER
1002
{
1070
     0
1000
Full Opt
1070
     0
1070
     1
1070
     1
1070
     1
1070
     0
1070
     0
1070
     0
1070
     1
1070
     1
1040
0.0001
1040
0.0001
1002
}
  0
INSERT
  5
96
330
1F
100
AcDbEntity
  8
ASHADE
 62
     4
100
AcDbBlockReference
  2
AVE_RENDER
 10
0.0
 20
0.0
 30
0.0
1001
AVE_RENDER
1002
{
1070
     0
1000
Quick Opt
1070
     0
1070
     1
1070
     1
1070
     1
1070
     0
1070
     0
1070
     1
1002
}
  0
INSERT
  5
97
330
1F
100
AcDbEntity
  8
ASHADE
 62
     5
100
AcDbBlockReference
  2
AVE_RENDER
 10
0.0
 20
0.0
 30
0.0
1001
AVE_RENDER
1002
{
1070
     1
1000
Scanl Opt
1070
     2
1070
     0
1070
     2
1040
2.0
1040
4.0
1070
     0
1070
     1
1070
     0
1040
0.03
1002
}
  0
INSERT
  5
98
330
1F
100
AcDbEntity
  8
ASHADE
 62
     6
100
AcDbBlockReference
  2
AVE_RENDER
 10
0.0
 20
0.0
 30
0.0
1001
AVE_RENDER
1002
{
1070
     2
1000
Raytr Opt
1070
     2
1070
     0
1070
     2
1040
2.0
1040
4.0
1070
     0
1070
     1
1070
     1
1040
0.03
1070
     3
1040
0.03
1002
}
  0
INSERT
  5
99
330
1F
100
AcDbEntity
  8
ASHADE
 62
     7
100
AcDbBlockReference
  2
AVE_RENDER
 10
0.0
 20
0.0
 30
0.0
1001
AVE_RENDER
1002
{
1070
     0
1000
RFile Opt
1070
     1
1070
   640
1070
   480
1070
 10000
1070
     1
1070
     8
1070
     8
1070
     0
1070
     0
1070
     0
1070
     0
1070
     0
1070
     0
1070
     0
1002
}
  0
INSERT
  5
9A
330
1F
100
AcDbEntity
  8
ASHADE
 62
     8
100
AcDbBlockReference
  2
AVE_RENDER
 10
0.0
 20
0.0
 30
0.0
1001
AVE_RENDER
1002
{
1070
     0
1000
Fog Opt
1070
     0
1070
     0
1040
0.0
1040
1.0
1040
0.0
1040
1.0
1010
0.5
1020
0.5
1030
0.5
1002
}
  0
INSERT
  5
9B
330
1F
100
AcDbEntity
  8
ASHADE
 62
     9
100
AcDbBlockReference
  2
AVE_RENDER
 10
0.0
 20
0.0
 30
0.0
1001
AVE_RENDER
1002
{
1070
     0
1000
BG Opt
1070
     0
1070
     1
1010
0.0
1020
0.0
1030
0.0
1010
1.0
1020
0.0
1030
0.0
1010
0.0
1020
1.0
1030
0.0
1010
0.0
1020
0.0
1030
1.0
1040
0.5
1040
0.33
1040
0.0
1000

1070
     1
1000

1070
     1
1070
     1
1040
1.0
1040
1.0
1040
0.0
1040
0.0
1070
     0
1002
}
  0
INSERT
  5
A2
330
1F
100
AcDbEntity
  8
ASHADE
 62
     1
100
AcDbBlockReference
  2
AVE_GLOBAL
 10
0.0
 20
0.0
 30
0.0
1001
AVE_MATERIAL
1002
{
1000
*GLOBAL*
1000
2
1000
Global finish.
1002
{
1002
}
1002
{
1070
    63
1002
{
1002
{
1010
-1.0
1020
-1.0
1030
-1.0
1002
}
1040
0.1000000014901161
1000

1040
0.0
1002
{
1002
}
1040
0.0
1002
{
1002
}
1040
0.0
1002
}
1002
{
1002
{
1010
-1.0
1020
-1.0
1030
-1.0
1002
}
1040
0.6999999880790711
1000

1040
0.0
1002
{
1002
}
1040
0.0
1002
{
1002
}
1040
0.0
1002
}
1002
{
1002
{
1010
-1.0
1020
-1.0
1030
-1.0
1002
}
1040
0.2000000029802322
1000

1040
0.0
1002
{
1002
}
1040
0.0
1002
{
1002
}
1040
0.0
1002
}
1002
{
1070
     0
1002
{
1070
     1
1002
{
1040
1.0
1040
1.0
1000

1040
0.0
1002
{
1002
}
1040
0.0
1002
{
1002
}
1040
0.0
1002
}
1002
}
1040
1.0
1040
0.0
1040
0.0
1002
}
1002
{
1040
1.0
1040
1.0
1000

1040
0.0
1002
{
1002
}
1040
0.0
1002
{
1002
}
1040
0.0
1002
}
1002
{
1040
0.5
1040
1.0
1000

1040
0.0
1002
{
1002
}
1040
0.0
1002
{
1002
}
1040
0.0
1002
}
1002
{
1070
     0
1040
0.0
1002
{
1002
}
1040
1.0
1002
{
1002
}
1040
0.0
1002
}
1002
{
1040
0.0
1002
{
1002
{
1010
0.0
1020
0.0
1030
0.0
1002
}
1040
1.0
1000

1040
0.0
1002
{
1002
}
1040
0.0
1002
{
1002
}
1040
0.0
1002
}
1002
}
1002
{
1002
{
1070
     1
1002
{
1040
0.0
1040
1.0
1000

1040
0.0
1002
{
1002
}
1040
0.0
1002
{
1002
}
1040
0.0
1002
}
1002
}
1040
0.0
1002
{
1002
}
1010
1.0
1020
0.0
1030
0.0
1010
0.0
1020
1.0
1030
0.0
1010
0.0
1020
0.0
1030
1.0
1070
     0
1002
}
1002
{
1002
{
1040
1.0
1040
1.0
1002
{
1070
     1
1002
{
1040
1.0
1040
1.0
1000

1040
0.0
1002
{
1002
}
1040
0.0
1002
{
1002
}
1040
0.0
1002
}
1002
}
1002
}
1070
     0
1040
0.0
1002
{
1002
}
1002
}
1002
{
1002
}
1002
}
1002
{
1071
        3
1070
     3
1070
     0
1002
{
1070
     2
1070
     0
1070
     0
1040
0.0
1002
}
1070
     0
1070
     2
1002
{
1002
}
1002
}
1002
{
1040
8030.0
1040
190.3000030517578
1040
0.3050000071525574
1040
228.0
1040
545.0
1040
14.0
1040
17.39999961853027
1040
0.4560000002384186
1002
}
1002
}
  0
POLYLINE
  5
AE
330
1F
100
AcDbEntity
  8
0
 62
    13
420
 14702166
100
AcDbPolyFaceMesh
 66
     1
 10
0.0
 20
0.0
 30
0.0
 70
    64
 71
   110
 72
   216
  0
VERTEX
  5
AF
330
AE
100
AcDbEntity
  8
0
 62
    13
420
 14702166
100
AcDbVertex
100
AcDbPolyFaceMeshVertex
 10
0.0308881085366011
 20
0.0411758422851563
 30
0.0065913782455027
 70
   192
  0
VERTEX
  5
B0
330
AE
100
AcDbEntity
  8
0
 62
    13
420
 14702166
100
AcDbVertex
100
AcDbPolyFaceMeshVertex
 10
8.964138031005859
 20
0.0411763563752174
 30
0.0065913782455027
 70
   192
  0
VERTEX
  5
B1
330
AE
100
AcDbEntity
  8
0
 62
    13
420
 14702166
100
AcDbVertex
100
AcDbPolyFaceMeshVertex
 10
8.425396919250488
 20
0.0411761924624443
 30
3.061942815780639
 70
   192
  0
VERTEX
  5
B2
330
AE
100
AcDbEntity
  8
0
 62
    13
420
 14702166
100
AcDbVertex
100
AcDbPolyFaceMeshVertex
 10
6.874154090881347
 20
0.0411759875714779
 30
5.748773574829101
 70
   192
  0
VERTEX
  5
B3
330
AE
100
AcDbEntity
  8
0
 62
    13
420
 14702166
100
AcDbVertex
100
AcDbPolyFaceMeshVertex
 10
4.497512340545654
 20
0.0411757603287697
 30
7.743012428283691
 70
   192
  0
VERTEX
  5
B4
330
AE
100
AcDbEntity
  8
0
 62
    13
420
 14702166
100
AcDbVertex
100
AcDbPolyFaceMeshVertex
 10
1.582129836082458
 20
0.0411755479872227
 30
8.80412483215332
 70
   192
  0
VERTEX
  5
B5
330
AE
100
AcDbEntity
  8
0
 62
    13
420
 14702166
100
AcDbVertex
100
AcDbPolyFaceMeshVertex
 10
-1.520355224609375
 20
0.0411753691732884
 30
8.80412483215332
 70
   192
  0
VERTEX
  5
B6
330
AE
100
AcDbEntity
  8
0
 62
    13
420
 14702166
100
AcDbVertex
100
AcDbPolyFaceMeshVertex
 10
-4.435737609863281
 20
0.0411752462387085
 30
7.743011951446533
 70
   192
  0
VERTEX
  5
B7
330
AE
100
AcDbEntity
  8
0
 62
    13
420
 14702166
100
AcDbVertex
100
AcDbPolyFaceMeshVertex
 10
-6.812378883361816
 20
0.0411751978099346
 30
5.748772621154785
 70
   192
  0
VERTEX
  5
B8
330
AE
100
AcDbEntity
  8
0
 62
    13
420
 14702166
100
AcDbVertex
100
AcDbPolyFaceMeshVertex
 10
-8.36362075805664
 20
0.0411752238869667
 30
3.061941146850585
 70
   192
  0
VERTEX
  5
B9
330
AE
100
AcDbEntity
  8
0
 62
    13
420
 14702166
100
AcDbVertex
100
AcDbPolyFaceMeshVertex
 10
-8.902360916137695
 20
0.0411753281950951
 30
0.0065897987224162
 70
   192
  0
VERTEX
  5
BA
330
AE
100
AcDbEntity
  8
0
 62
    13
420
 14702166
100
AcDbVertex
100
AcDbPolyFaceMeshVertex
 10
-8.363619804382324
 20
0.0411754921078682
 30
-3.04876160621643
 70
   192
  0
VERTEX
  5
BB
330
AE
100
AcDbEntity
  8
0
 62
    13
420
 14702166
100
AcDbVertex
100
AcDbPolyFaceMeshVertex
 10
-6.812376976013183
 20
0.0411756969988346
 30
-5.735592365264892
 70
   192
  0
VERTEX
  5
BC
330
AE
100
AcDbEntity
  8
0
 62
    13
420
 14702166
100
AcDbVertex
100
AcDbPolyFaceMeshVertex
 10
-4.435734748840332
 20
0.0411759242415428
 30
-7.729830741882324
 70
   192
  0
VERTEX
  5
BD
330
AE
100
AcDbEntity
  8
0
 62
    13
420
 14702166
100
AcDbVertex
100
AcDbPolyFaceMeshVertex
 10
-1.520352125167846
 20
0.0411761365830898
 30
-8.790942192077636
 70
   192
  0
VERTEX
  5
BE
330
AE
100
AcDbEntity
  8
0
 62
    13
420
 14702166
100
AcDbVertex
100
AcDbPolyFaceMeshVertex
 10
1.582132935523986
 20
0.0411763153970242
 30
-8.79094123840332
 70
   192
  0
VERTEX
  5
BF
330
AE
100
AcDbEntity
  8
0
 62
    13
420
 14702166
100
AcDbVertex
100
AcDbPolyFaceMeshVertex
 10
4.497515201568603
 20
0.041176438331604
 30
-7.729828357696533
 70
   192
  0
VERTEX
  5
C0
330
AE
100
AcDbEntity
  8
0
 62
    13
420
 14702166
100
AcDbVertex
100
AcDbPolyFaceMeshVertex
 10
6.87415599822998
 20
0.0411764867603779
 30
-5.735588550567626
 70
   192
  0
VERTEX
  5
C1
330
AE
100
AcDbEntity
  8
0
 62
    13
420
 14702166
100
AcDbVertex
100
AcDbPolyFaceMeshVertex
 10
8.425397872924804
 20
0.0411764606833458
 30
-3.048757076263427
 70
   192
  0
VERTEX
  5
C2
330
AE
100
AcDbEntity
  8
0
 62
    13
420
 14702166
100
AcDbVertex
100
AcDbPolyFaceMeshVertex
 10
8.964137077331542
 20
-29.52546119689941
 30
0.0065900860354304
 70
   192
  0
VERTEX
  5
C3
330
AE
100
AcDbEntity
  8
0
 62
    13
420
 14702166
100
AcDbVertex
100
AcDbPolyFaceMeshVertex
 10
8.425395965576171
 20
-29.52546119689941
 30
3.061941623687744
 70
   192
  0
VERTEX
  5
C4
330
AE
100
AcDbEntity
  8
0
 62
    13
420
 14702166
100
AcDbVertex
100
AcDbPolyFaceMeshVertex
 10
6.874153614044189
 20
-29.52546119689941
 30
5.748772144317626
 70
   192
  0
VERTEX
  5
C5
330
AE
100
AcDbEntity
  8
0
 62
    13
420
 14702166
100
AcDbVertex
100
AcDbPolyFaceMeshVertex
 10
4.497511863708496
 20
-29.52546119689941
 30
7.743010997772216
 70
   192
  0
VERTEX
  5
C6
330
AE
100
AcDbEntity
  8
0
 62
    13
420
 14702166
100
AcDbVertex
100
AcDbPolyFaceMeshVertex
 10
1.582129120826721
 20
-29.52546119689941
 30
8.804122924804687
 70
   192
  0
VERTEX
  5
C7
330
AE
100
AcDbEntity
  8
0
 62
    13
420
 14702166
100
AcDbVertex
100
AcDbPolyFaceMeshVertex
 10
-1.520355939865112
 20
-29.52546119689941
 30
8.804122924804687
 70
   192
  0
VERTEX
  5
C8
330
AE
100
AcDbEntity
  8
0
 62
    13
420
 14702166
100
AcDbVertex
100
AcDbPolyFaceMeshVertex
 10
-4.435738086700439
 20
-29.52546119689941
 30
7.743010520935058
 70
   192
  0
VERTEX
  5
C9
330
AE
100
AcDbEntity
  8
0
 62
    13
420
 14702166
100
AcDbVertex
100
AcDbPolyFaceMeshVertex
 10
-6.812379360198974
 20
-29.52546119689941
 30
5.74877119064331
 70
   192
  0
VERTEX
  5
CA
330
AE
100
AcDbEntity
  8
0
 62
    13
420
 14702166
100
AcDbVertex
100
AcDbPolyFaceMeshVertex
 10
-8.363621711730957
 20
-29.52546119689941
 30
3.06193995475769
 70
   192
  0
VERTEX
  5
CB
330
AE
100
AcDbEntity
  8
0
 62
    13
420
 14702166
100
AcDbVertex
100
AcDbPolyFaceMeshVertex
 10
-8.902361869812011
 20
-29.52546119689941
 30
0.0065885060466826
 70
   192
  0
VERTEX
  5
CC
330
AE
100
AcDbEntity
  8
0
 62
    13
420
 14702166
100
AcDbVertex
100
AcDbPolyFaceMeshVertex
 10
-8.36362075805664
 20
-29.52546119689941
 30
-3.048762798309326
 70
   192
  0
VERTEX
  5
CD
330
AE
100
AcDbEntity
  8
0
 62
    13
420
 14702166
100
AcDbVertex
100
AcDbPolyFaceMeshVertex
 10
-6.812377452850341
 20
-29.52546119689941
 30
-5.735593795776367
 70
   192
  0
VERTEX
  5
CE
330
AE
100
AcDbEntity
  8
0
 62
    13
420
 14702166
100
AcDbVertex
100
AcDbPolyFaceMeshVertex
 10
-4.43573522567749
 20
-29.52546119689941
 30
-7.729832172393798
 70
   192
  0
VERTEX
  5
CF
330
AE
100
AcDbEntity
  8
0
 62
    13
420
 14702166
100
AcDbVertex
100
AcDbPolyFaceMeshVertex
 10
-1.520352840423583
 20
-29.52546119689941
 30
-8.790944099426269
 70
   192
  0
VERTEX
  5
D0
330
AE
100
AcDbEntity
  8
0
 62
    13
420
 14702166
100
AcDbVertex
100
AcDbPolyFaceMeshVertex
 10
1.582132220268249
 20
-29.52546119689941
 30
-8.790943145751953
 70
   192
  0
VERTEX
  5
D1
330
AE
100
AcDbEntity
  8
0
 62
    13
420
 14702166
100
AcDbVertex
100
AcDbPolyFaceMeshVertex
 10
4.497514724731445
 20
-29.52546119689941
 30
-7.729829788208007
 70
   192
  0
VERTEX
  5
D2
330
AE
100
AcDbEntity
  8
0
 62
    13
420
 14702166
100
AcDbVertex
100
AcDbPolyFaceMeshVertex
 10
6.874155521392822
 20
-29.52546119689941
 30
-5.735589981079101
 70
   192
  0
VERTEX
  5
D3
330
AE
100
AcDbEntity
  8
0
 62
    13
420
 14702166
100
AcDbVertex
100
AcDbPolyFaceMeshVertex
 10
8.425396919250488
 20
-29.52546119689941
 30
-3.048758268356323
 70
   192
  0
VERTEX
  5
D4
330
AE
100
AcDbEntity
  8
0
 62
    13
420
 14702166
100
AcDbVertex
100
AcDbPolyFaceMeshVertex
 10
8.964136123657226
 20
-59.09209823608398
 30
0.0065887933596969
 70
   192
  0
VERTEX
  5
D5
330
AE
100
AcDbEntity
  8
0
 62
    13
420
 14702166
100
AcDbVertex
100
AcDbPolyFaceMeshVertex
 10
8.425395011901855
 20
-59.09209823608398
 30
3.061940193176269
 70
   192
  0
VERTEX
  5
D6
330
AE
100
AcDbEntity
  8
0
 62
    13
420
 14702166
100
AcDbVertex
100
AcDbPolyFaceMeshVertex
 10
6.874152660369873
 20
-59.09209823608398
 30
5.74877119064331
 70
   192
  0
VERTEX
  5
D7
330
AE
100
AcDbEntity
  8
0
 62
    13
420
 14702166
100
AcDbVertex
100
AcDbPolyFaceMeshVertex
 10
4.497510910034179
 20
-59.09209823608398
 30
7.7430100440979
 70
   192
  0
VERTEX
  5
D8
330
AE
100
AcDbEntity
  8
0
 62
    13
420
 14702166
100
AcDbVertex
100
AcDbPolyFaceMeshVertex
 10
1.582128405570983
 20
-59.09209823608398
 30
8.804121971130371
 70
   192
  0
VERTEX
  5
D9
330
AE
100
AcDbEntity
  8
0
 62
    13
420
 14702166
100
AcDbVertex
100
AcDbPolyFaceMeshVertex
 10
-1.520356655120849
 20
-59.09209823608398
 30
8.804121971130371
 70
   192
  0
VERTEX
  5
DA
330
AE
100
AcDbEntity
  8
0
 62
    13
420
 14702166
100
AcDbVertex
100
AcDbPolyFaceMeshVertex
 10
-4.435739040374755
 20
-59.09209823608398
 30
7.743009567260742
 70
   192
  0
VERTEX
  5
DB
330
AE
100
AcDbEntity
  8
0
 62
    13
420
 14702166
100
AcDbVertex
100
AcDbPolyFaceMeshVertex
 10
-6.812380313873291
 20
-59.09209823608398
 30
5.748770236968994
 70
   192
  0
VERTEX
  5
DC
330
AE
100
AcDbEntity
  8
0
 62
    13
420
 14702166
100
AcDbVertex
100
AcDbPolyFaceMeshVertex
 10
-8.363622665405273
 20
-59.09209823608398
 30
3.061938524246215
 70
   192
  0
VERTEX
  5
DD
330
AE
100
AcDbEntity
  8
0
 62
    13
420
 14702166
100
AcDbVertex
100
AcDbPolyFaceMeshVertex
 10
-8.902362823486328
 20
-59.09209823608398
 30
0.0065872138366103
 70
   192
  0
VERTEX
  5
DE
330
AE
100
AcDbEntity
  8
0
 62
    13
420
 14702166
100
AcDbVertex
100
AcDbPolyFaceMeshVertex
 10
-8.363621711730957
 20
-59.09209823608398
 30
-3.0487642288208
 70
   192
  0
VERTEX
  5
DF
330
AE
100
AcDbEntity
  8
0
 62
    13
420
 14702166
100
AcDbVertex
100
AcDbPolyFaceMeshVertex
 10
-6.812378406524658
 20
-59.09209823608398
 30
-5.735594749450683
 70
   192
  0
VERTEX
  5
E0
330
AE
100
AcDbEntity
  8
0
 62
    13
420
 14702166
100
AcDbVertex
100
AcDbPolyFaceMeshVertex
 10
-4.435736179351806
 20
-59.09209823608398
 30
-7.729833126068115
 70
   192
  0
VERTEX
  5
E1
330
AE
100
AcDbEntity
  8
0
 62
    13
420
 14702166
100
AcDbVertex
100
AcDbPolyFaceMeshVertex
 10
-1.520353555679321
 20
-59.09209823608398
 30
-8.790945053100585
 70
   192
  0
VERTEX
  5
E2
330
AE
100
AcDbEntity
  8
0
 62
    13
420
 14702166
100
AcDbVertex
100
AcDbPolyFaceMeshVertex
 10
1.582131505012512
 20
-59.09209823608398
 30
-8.790944099426269
 70
   192
  0
VERTEX
  5
E3
330
AE
100
AcDbEntity
  8
0
 62
    13
420
 14702166
100
AcDbVertex
100
AcDbPolyFaceMeshVertex
 10
4.497513771057128
 20
-59.09209823608398
 30
-7.729830741882324
 70
   192
  0
VERTEX
  5
E4
330
AE
100
AcDbEntity
  8
0
 62
    13
420
 14702166
100
AcDbVertex
100
AcDbPolyFaceMeshVertex
 10
6.874154567718505
 20
-59.09209823608398
 30
-5.735590934753417
 70
   192
  0
VERTEX
  5
E5
330
AE
100
AcDbEntity
  8
0
 62
    13
420
 14702166
100
AcDbVertex
100
AcDbPolyFaceMeshVertex
 10
8.425395965576171
 20
-59.09209823608398
 30
-3.048759698867797
 70
   192
  0
VERTEX
  5
E6
330
AE
100
AcDbEntity
  8
0
 62
    13
420
 14702166
100
AcDbVertex
100
AcDbPolyFaceMeshVertex
 10
8.96413516998291
 20
-88.65872955322265
 30
0.0065875011496246
 70
   192
  0
VERTEX
  5
E7
330
AE
100
AcDbEntity
  8
0
 62
    13
420
 14702166
100
AcDbVertex
100
AcDbPolyFaceMeshVertex
 10
8.425394058227539
 20
-88.65873718261719
 30
3.061939001083374
 70
   192
  0
VERTEX
  5
E8
330
AE
100
AcDbEntity
  8
0
 62
    13
420
 14702166
100
AcDbVertex
100
AcDbPolyFaceMeshVertex
 10
6.874151706695556
 20
-88.65873718261719
 30
5.748769760131835
 70
   192
  0
VERTEX
  5
E9
330
AE
100
AcDbEntity
  8
0
 62
    13
420
 14702166
100
AcDbVertex
100
AcDbPolyFaceMeshVertex
 10
4.497509956359863
 20
-88.65873718261719
 30
7.743008613586425
 70
   192
  0
VERTEX
  5
EA
330
AE
100
AcDbEntity
  8
0
 62
    13
420
 14702166
100
AcDbVertex
100
AcDbPolyFaceMeshVertex
 10
1.582127690315246
 20
-88.65873718261719
 30
8.804120063781738
 70
   192
  0
VERTEX
  5
EB
330
AE
100
AcDbEntity
  8
0
 62
    13
420
 14702166
100
AcDbVertex
100
AcDbPolyFaceMeshVertex
 10
-1.520357370376586
 20
-88.65873718261719
 30
8.804120063781738
 70
   192
  0
VERTEX
  5
EC
330
AE
100
AcDbEntity
  8
0
 62
    13
420
 14702166
100
AcDbVertex
100
AcDbPolyFaceMeshVertex
 10
-4.435739994049072
 20
-88.65873718261719
 30
7.743008136749267
 70
   192
  0
VERTEX
  5
ED
330
AE
100
AcDbEntity
  8
0
 62
    13
420
 14702166
100
AcDbVertex
100
AcDbPolyFaceMeshVertex
 10
-6.812381267547607
 20
-88.65873718261719
 30
5.748768806457519
 70
   192
  0
VERTEX
  5
EE
330
AE
100
AcDbEntity
  8
0
 62
    13
420
 14702166
100
AcDbVertex
100
AcDbPolyFaceMeshVertex
 10
-8.363623619079589
 20
-88.65873718261719
 30
3.06193733215332
 70
   192
  0
VERTEX
  5
EF
330
AE
100
AcDbEntity
  8
0
 62
    13
420
 14702166
100
AcDbVertex
100
AcDbPolyFaceMeshVertex
 10
-8.902363777160644
 20
-88.65873718261719
 30
0.0065859211608768
 70
   192
  0
VERTEX
  5
F0
330
AE
100
AcDbEntity
  8
0
 62
    13
420
 14702166
100
AcDbVertex
100
AcDbPolyFaceMeshVertex
 10
-8.363622665405273
 20
-88.65873718261719
 30
-3.048765420913696
 70
   192
  0
VERTEX
  5
F1
330
AE
100
AcDbEntity
  8
0
 62
    13
420
 14702166
100
AcDbVertex
100
AcDbPolyFaceMeshVertex
 10
-6.812379360198974
 20
-88.65873718261719
 30
-5.735596179962158
 70
   192
  0
VERTEX
  5
F2
330
AE
100
AcDbEntity
  8
0
 62
    13
420
 14702166
100
AcDbVertex
100
AcDbPolyFaceMeshVertex
 10
-4.435737133026123
 20
-88.65873718261719
 30
-7.729834556579589
 70
   192
  0
VERTEX
  5
F3
330
AE
100
AcDbEntity
  8
0
 62
    13
420
 14702166
100
AcDbVertex
100
AcDbPolyFaceMeshVertex
 10
-1.520354270935058
 20
-88.65873718261719
 30
-8.790946960449218
 70
   192
  0
VERTEX
  5
F4
330
AE
100
AcDbEntity
  8
0
 62
    13
420
 14702166
100
AcDbVertex
100
AcDbPolyFaceMeshVertex
 10
1.582130789756774
 20
-88.65872955322265
 30
-8.790946006774902
 70
   192
  0
VERTEX
  5
F5
330
AE
100
AcDbEntity
  8
0
 62
    13
420
 14702166
100
AcDbVertex
100
AcDbPolyFaceMeshVertex
 10
4.497512817382812
 20
-88.65872955322265
 30
-7.729832172393798
 70
   192
  0
VERTEX
  5
F6
330
AE
100
AcDbEntity
  8
0
 62
    13
420
 14702166
100
AcDbVertex
100
AcDbPolyFaceMeshVertex
 10
6.874153614044189
 20
-88.65872955322265
 30
-5.735592365264892
 70
   192
  0
VERTEX
  5
F7
330
AE
100
AcDbEntity
  8
0
 62
    13
420
 14702166
100
AcDbVertex
100
AcDbPolyFaceMeshVertex
 10
8.425395011901855
 20
-88.65872955322265
 30
-3.048760890960693
 70
   192
  0
VERTEX
  5
F8
330
AE
100
AcDbEntity
  8
0
 62
    13
420
 14702166
100
AcDbVertex
100
AcDbPolyFaceMeshVertex
 10
8.964134216308593
 20
-118.2253723144531
 30
0.006586208473891
 70
   192
  0
VERTEX
  5
F9
330
AE
100
AcDbEntity
  8
0
 62
    13
420
 14702166
100
AcDbVertex
100
AcDbPolyFaceMeshVertex
 10
8.425393104553222
 20
-118.2253723144531
 30
3.061937808990478
 70
   192
  0
VERTEX
  5
FA
330
AE
100
AcDbEntity
  8
0
 62
    13
420
 14702166
100
AcDbVertex
100
AcDbPolyFaceMeshVertex
 10
6.874151229858398
 20
-118.2253723144531
 30
5.748768329620361
 70
   192
  0
VERTEX
  5
FB
330
AE
100
AcDbEntity
  8
0
 62
    13
420
 14702166
100
AcDbVertex
100
AcDbPolyFaceMeshVertex
 10
4.497509479522705
 20
-118.2253723144531
 30
7.743007183074951
 70
   192
  0
VERTEX
  5
FC
330
AE
100
AcDbEntity
  8
0
 62
    13
420
 14702166
100
AcDbVertex
100
AcDbPolyFaceMeshVertex
 10
1.582126975059509
 20
-118.2253723144531
 30
8.804119110107421
 70
   192
  0
VERTEX
  5
FD
330
AE
100
AcDbEntity
  8
0
 62
    13
420
 14702166
100
AcDbVertex
100
AcDbPolyFaceMeshVertex
 10
-1.520358085632324
 20
-118.2253723144531
 30
8.804119110107421
 70
   192
  0
VERTEX
  5
FE
330
AE
100
AcDbEntity
  8
0
 62
    13
420
 14702166
100
AcDbVertex
100
AcDbPolyFaceMeshVertex
 10
-4.43574047088623
 20
-118.2253723144531
 30
7.743006706237792
 70
   192
  0
VERTEX
  5
FF
330
AE
100
AcDbEntity
  8
0
 62
    13
420
 14702166
100
AcDbVertex
100
AcDbPolyFaceMeshVertex
 10
-6.812381744384765
 20
-118.2253723144531
 30
5.748767375946044
 70
   192
  0
VERTEX
  5
100
330
AE
100
AcDbEntity
  8
0
 62
    13
420
 14702166
100
AcDbVertex
100
AcDbPolyFaceMeshVertex
 10
-8.363624572753906
 20
-118.2253723144531
 30
3.061936140060424
 70
   192
  0
VERTEX
  5
101
330
AE
100
AcDbEntity
  8
0
 62
    13
420
 14702166
100
AcDbVertex
100
AcDbPolyFaceMeshVertex
 10
-8.90236473083496
 20
-118.2253723144531
 30
0.0065846289508045
 70
   192
  0
VERTEX
  5
102
330
AE
100
AcDbEntity
  8
0
 62
    13
420
 14702166
100
AcDbVertex
100
AcDbPolyFaceMeshVertex
 10
-8.363623619079589
 20
-118.2253723144531
 30
-3.048766613006591
 70
   192
  0
VERTEX
  5
103
330
AE
100
AcDbEntity
  8
0
 62
    13
420
 14702166
100
AcDbVertex
100
AcDbPolyFaceMeshVertex
 10
-6.812379837036132
 20
-118.2253723144531
 30
-5.735597610473632
 70
   192
  0
VERTEX
  5
104
330
AE
100
AcDbEntity
  8
0
 62
    13
420
 14702166
100
AcDbVertex
100
AcDbPolyFaceMeshVertex
 10
-4.435737609863281
 20
-118.2253723144531
 30
-7.729835987091064
 70
   192
  0
VERTEX
  5
105
330
AE
100
AcDbEntity
  8
0
 62
    13
420
 14702166
100
AcDbVertex
100
AcDbPolyFaceMeshVertex
 10
-1.520354986190795
 20
-118.2253723144531
 30
-8.790947914123535
 70
   192
  0
VERTEX
  5
106
330
AE
100
AcDbEntity
  8
0
 62
    13
420
 14702166
100
AcDbVertex
100
AcDbPolyFaceMeshVertex
 10
1.582130074501037
 20
-118.2253723144531
 30
-8.790946960449218
 70
   192
  0
VERTEX
  5
107
330
AE
100
AcDbEntity
  8
0
 62
    13
420
 14702166
100
AcDbVertex
100
AcDbPolyFaceMeshVertex
 10
4.497512340545654
 20
-118.2253723144531
 30
-7.729833602905273
 70
   192
  0
VERTEX
  5
108
330
AE
100
AcDbEntity
  8
0
 62
    13
420
 14702166
100
AcDbVertex
100
AcDbPolyFaceMeshVertex
 10
6.874153137207031
 20
-118.2253723144531
 30
-5.735593795776367
 70
   192
  0
VERTEX
  5
109
330
AE
100
AcDbEntity
  8
0
 62
    13
420
 14702166
100
AcDbVertex
100
AcDbPolyFaceMeshVertex
 10
8.425394058227539
 20
-118.2253723144531
 30
-3.048762083053588
 70
   192
  0
VERTEX
  5
10A
330
AE
100
AcDbEntity
  8
0
 62
    13
420
 14702166
100
AcDbVertex
100
AcDbPolyFaceMeshVertex
 10
8.964134216308593
 20
-147.792007446289
 30
0.0065849162638187
 70
   192
  0
VERTEX
  5
10B
330
AE
100
AcDbEntity
  8
0
 62
    13
420
 14702166
100
AcDbVertex
100
AcDbPolyFaceMeshVertex
 10
8.425393104553222
 20
-147.792007446289
 30
3.061936378479003
 70
   192
  0
VERTEX
  5
10C
330
AE
100
AcDbEntity
  8
0
 62
    13
420
 14702166
100
AcDbVertex
100
AcDbPolyFaceMeshVertex
 10
6.874150276184082
 20
-147.792007446289
 30
5.748767375946044
 70
   192
  0
VERTEX
  5
10D
330
AE
100
AcDbEntity
  8
0
 62
    13
420
 14702166
100
AcDbVertex
100
AcDbPolyFaceMeshVertex
 10
4.497508525848388
 20
-147.792007446289
 30
7.743006229400634
 70
   192
  0
VERTEX
  5
10E
330
AE
100
AcDbEntity
  8
0
 62
    13
420
 14702166
100
AcDbVertex
100
AcDbPolyFaceMeshVertex
 10
1.582126140594482
 20
-147.792007446289
 30
8.804118156433105
 70
   192
  0
VERTEX
  5
10F
330
AE
100
AcDbEntity
  8
0
 62
    13
420
 14702166
100
AcDbVertex
100
AcDbPolyFaceMeshVertex
 10
-1.520358920097351
 20
-147.792007446289
 30
8.804118156433105
 70
   192
  0
VERTEX
  5
110
330
AE
100
AcDbEntity
  8
0
 62
    13
420
 14702166
100
AcDbVertex
100
AcDbPolyFaceMeshVertex
 10
-4.435741424560546
 20
-147.792007446289
 30
7.743005752563476
 70
   192
  0
VERTEX
  5
111
330
AE
100
AcDbEntity
  8
0
 62
    13
420
 14702166
100
AcDbVertex
100
AcDbPolyFaceMeshVertex
 10
-6.812382698059082
 20
-147.792007446289
 30
5.748766422271728
 70
   192
  0
VERTEX
  5
112
330
AE
100
AcDbEntity
  8
0
 62
    13
420
 14702166
100
AcDbVertex
100
AcDbPolyFaceMeshVertex
 10
-8.363624572753906
 20
-147.792007446289
 30
3.06193470954895
 70
   192
  0
VERTEX
  5
113
330
AE
100
AcDbEntity
  8
0
 62
    13
420
 14702166
100
AcDbVertex
100
AcDbPolyFaceMeshVertex
 10
-8.90236473083496
 20
-147.792007446289
 30
0.0065833367407322
 70
   192
  0
VERTEX
  5
114
330
AE
100
AcDbEntity
  8
0
 62
    13
420
 14702166
100
AcDbVertex
100
AcDbPolyFaceMeshVertex
 10
-8.363623619079589
 20
-147.792007446289
 30
-3.048768043518066
 70
   192
  0
VERTEX
  5
115
330
AE
100
AcDbEntity
  8
0
 62
    13
420
 14702166
100
AcDbVertex
100
AcDbPolyFaceMeshVertex
 10
-6.812380790710449
 20
-147.792007446289
 30
-5.735598564147949
 70
   192
  0
VERTEX
  5
116
330
AE
100
AcDbEntity
  8
0
 62
    13
420
 14702166
100
AcDbVertex
100
AcDbPolyFaceMeshVertex
 10
-4.435738563537597
 20
-147.792007446289
 30
-7.72983694076538
 70
   192
  0
VERTEX
  5
117
330
AE
100
AcDbEntity
  8
0
 62
    13
420
 14702166
100
AcDbVertex
100
AcDbPolyFaceMeshVertex
 10
-1.520355820655822
 20
-147.792007446289
 30
-8.790948867797851
 70
   192
  0
VERTEX
  5
118
330
AE
100
AcDbEntity
  8
0
 62
    13
420
 14702166
100
AcDbVertex
100
AcDbPolyFaceMeshVertex
 10
1.58212924003601
 20
-147.792007446289
 30
-8.790947914123535
 70
   192
  0
VERTEX
  5
119
330
AE
100
AcDbEntity
  8
0
 62
    13
420
 14702166
100
AcDbVertex
100
AcDbPolyFaceMeshVertex
 10
4.497511386871337
 20
-147.792007446289
 30
-7.729834556579589
 70
   192
  0
VERTEX
  5
11A
330
AE
100
AcDbEntity
  8
0
 62
    13
420
 14702166
100
AcDbVertex
100
AcDbPolyFaceMeshVertex
 10
6.874152183532714
 20
-147.792007446289
 30
-5.735594749450683
 70
   192
  0
VERTEX
  5
11B
330
AE
100
AcDbEntity
  8
0
 62
    13
420
 14702166
100
AcDbVertex
100
AcDbPolyFaceMeshVertex
 10
8.425394058227539
 20
-147.792007446289
 30
-3.048763513565063
 70
   192
  0
VERTEX
  5
11C
330
AE
100
AcDbEntity
  8
0
 62
    13
420
 14702166
100
AcDbVertex
100
AcDbPolyFaceMeshVertex
 10
0.0308844316750765
 20
-147.792007446289
 30
0.0065849162638187
 70
   192
  0
VERTEX
  5
11D
330
AE
100
AcDbEntity
  8
0
 62
    13
420
 14702166
100
AcDbFaceRecord
 10
0.0
 20
0.0
 30
0.0
 70
   128
 71
    -1
 72
     3
 73
    -2
 74
    -1
  0
VERTEX
  5
11E
330
AE
100
AcDbEntity
  8
0
 62
    13
420
 14702166
100
AcDbFaceRecord
 10
0.0
 20
0.0
 30
0.0
 70
   128
 71
    -1
 72
     4
 73
    -3
 74
    -1
  0
VERTEX
  5
11F
330
AE
100
AcDbEntity
  8
0
 62
    13
420
 14702166
100
AcDbFaceRecord
 10
0.0
 20
0.0
 30
0.0
 70
   128
 71
    -1
 72
     5
 73
    -4
 74
    -1
  0
VERTEX
  5
120
330
AE
100
AcDbEntity
  8
0
 62
    13
420
 14702166
100
AcDbFaceRecord
 10
0.0
 20
0.0
 30
0.0
 70
   128
 71
    -1
 72
     6
 73
    -5
 74
    -1
  0
VERTEX
  5
121
330
AE
100
AcDbEntity
  8
0
 62
    13
420
 14702166
100
AcDbFaceRecord
 10
0.0
 20
0.0
 30
0.0
 70
   128
 71
    -1
 72
     7
 73
    -6
 74
    -1
  0
VERTEX
  5
122
330
AE
100
AcDbEntity
  8
0
 62
    13
420
 14702166
100
AcDbFaceRecord
 10
0.0
 20
0.0
 30
0.0
 70
   128
 71
    -1
 72
     8
 73
    -7
 74
    -1
  0
VERTEX
  5
123
330
AE
100
AcDbEntity
  8
0
 62
    13
420
 14702166
100
AcDbFaceRecord
 10
0.0
 20
0.0
 30
0.0
 70
   128
 71
    -1
 72
     9
 73
    -8
 74
    -1
  0
VERTEX
  5
124
330
AE
100
AcDbEntity
  8
0
 62
    13
420
 14702166
100
AcDbFaceRecord
 10
0.0
 20
0.0
 30
0.0
 70
   128
 71
    -1
 72
    10
 73
    -9
 74
    -1
  0
VERTEX
  5
125
330
AE
100
AcDbEntity
  8
0
 62
    13
420
 14702166
100
AcDbFaceRecord
 10
0.0
 20
0.0
 30
0.0
 70
   128
 71
    -1
 72
    11
 73
   -10
 74
    -1
  0
VERTEX
  5
126
330
AE
100
AcDbEntity
  8
0
 62
    13
420
 14702166
100
AcDbFaceRecord
 10
0.0
 20
0.0
 30
0.0
 70
   128
 71
    -1
 72
    12
 73
   -11
 74
    -1
  0
VERTEX
  5
127
330
AE
100
AcDbEntity
  8
0
 62
    13
420
 14702166
100
AcDbFaceRecord
 10
0.0
 20
0.0
 30
0.0
 70
   128
 71
    -1
 72
    13
 73
   -12
 74
    -1
  0
VERTEX
  5
128
330
AE
100
AcDbEntity
  8
0
 62
    13
420
 14702166
100
AcDbFaceRecord
 10
0.0
 20
0.0
 30
0.0
 70
   128
 71
    -1
 72
    14
 73
   -13
 74
    -1
  0
VERTEX
  5
129
330
AE
100
AcDbEntity
  8
0
 62
    13
420
 14702166
100
AcDbFaceRecord
 10
0.0
 20
0.0
 30
0.0
 70
   128
 71
    -1
 72
    15
 73
   -14
 74
    -1
  0
VERTEX
  5
12A
330
AE
100
AcDbEntity
  8
0
 62
    13
420
 14702166
100
AcDbFaceRecord
 10
0.0
 20
0.0
 30
0.0
 70
   128
 71
    -1
 72
    16
 73
   -15
 74
    -1
  0
VERTEX
  5
12B
330
AE
100
AcDbEntity
  8
0
 62
    13
420
 14702166
100
AcDbFaceRecord
 10
0.0
 20
0.0
 30
0.0
 70
   128
 71
    -1
 72
    17
 73
   -16
 74
    -1
  0
VERTEX
  5
12C
330
AE
100
AcDbEntity
  8
0
 62
    13
420
 14702166
100
AcDbFaceRecord
 10
0.0
 20
0.0
 30
0.0
 70
   128
 71
    -1
 72
    18
 73
   -17
 74
    -1
  0
VERTEX
  5
12D
330
AE
100
AcDbEntity
  8
0
 62
    13
420
 14702166
100
AcDbFaceRecord
 10
0.0
 20
0.0
 30
0.0
 70
   128
 71
    -1
 72
    19
 73
   -18
 74
    -1
  0
VERTEX
  5
12E
330
AE
100
AcDbEntity
  8
0
 62
    13
420
 14702166
100
AcDbFaceRecord
 10
0.0
 20
0.0
 30
0.0
 70
   128
 71
    -1
 72
     2
 73
   -19
 74
    -1
  0
VERTEX
  5
12F
330
AE
100
AcDbEntity
  8
0
 62
    13
420
 14702166
100
AcDbFaceRecord
 10
0.0
 20
0.0
 30
0.0
 70
   128
 71
    -2
 72
    21
 73
    20
 74
    -2
  0
VERTEX
  5
130
330
AE
100
AcDbEntity
  8
0
 62
    13
420
 14702166
100
AcDbFaceRecord
 10
0.0
 20
0.0
 30
0.0
 70
   128
 71
     2
 72
     3
 73
   -21
 74
    -2
  0
VERTEX
  5
131
330
AE
100
AcDbEntity
  8
0
 62
    13
420
 14702166
100
AcDbFaceRecord
 10
0.0
 20
0.0
 30
0.0
 70
   128
 71
    -3
 72
    22
 73
    21
 74
    -3
  0
VERTEX
  5
132
330
AE
100
AcDbEntity
  8
0
 62
    13
420
 14702166
100
AcDbFaceRecord
 10
0.0
 20
0.0
 30
0.0
 70
   128
 71
     3
 72
     4
 73
   -22
 74
    -3
  0
VERTEX
  5
133
330
AE
100
AcDbEntity
  8
0
 62
    13
420
 14702166
100
AcDbFaceRecord
 10
0.0
 20
0.0
 30
0.0
 70
   128
 71
    -4
 72
    23
 73
    22
 74
    -4
  0
VERTEX
  5
134
330
AE
100
AcDbEntity
  8
0
 62
    13
420
 14702166
100
AcDbFaceRecord
 10
0.0
 20
0.0
 30
0.0
 70
   128
 71
     4
 72
     5
 73
   -23
 74
    -4
  0
VERTEX
  5
135
330
AE
100
AcDbEntity
  8
0
 62
    13
420
 14702166
100
AcDbFaceRecord
 10
0.0
 20
0.0
 30
0.0
 70
   128
 71
    -5
 72
    24
 73
    23
 74
    -5
  0
VERTEX
  5
136
330
AE
100
AcDbEntity
  8
0
 62
    13
420
 14702166
100
AcDbFaceRecord
 10
0.0
 20
0.0
 30
0.0
 70
   128
 71
     5
 72
     6
 73
   -24
 74
    -5
  0
VERTEX
  5
137
330
AE
100
AcDbEntity
  8
0
 62
    13
420
 14702166
100
AcDbFaceRecord
 10
0.0
 20
0.0
 30
0.0
 70
   128
 71
    -6
 72
    25
 73
    24
 74
    -6
  0
VERTEX
  5
138
330
AE
100
AcDbEntity
  8
0
 62
    13
420
 14702166
100
AcDbFaceRecord
 10
0.0
 20
0.0
 30
0.0
 70
   128
 71
     6
 72
     7
 73
   -25
 74
    -6
  0
VERTEX
  5
139
330
AE
100
AcDbEntity
  8
0
 62
    13
420
 14702166
100
AcDbFaceRecord
 10
0.0
 20
0.0
 30
0.0
 70
   128
 71
    -7
 72
    26
 73
    25
 74
    -7
  0
VERTEX
  5
13A
330
AE
100
AcDbEntity
  8
0
 62
    13
420
 14702166
100
AcDbFaceRecord
 10
0.0
 20
0.0
 30
0.0
 70
   128
 71
     7
 72
     8
 73
   -26
 74
    -7
  0
VERTEX
  5
13B
330
AE
100
AcDbEntity
  8
0
 62
    13
420
 14702166
100
AcDbFaceRecord
 10
0.0
 20
0.0
 30
0.0
 70
   128
 71
    -8
 72
    27
 73
    26
 74
    -8
  0
VERTEX
  5
13C
330
AE
100
AcDbEntity
  8
0
 62
    13
420
 14702166
100
AcDbFaceRecord
 10
0.0
 20
0.0
 30
0.0
 70
   128
 71
     8
 72
     9
 73
   -27
 74
    -8
  0
VERTEX
  5
13D
330
AE
100
AcDbEntity
  8
0
 62
    13
420
 14702166
100
AcDbFaceRecord
 10
0.0
 20
0.0
 30
0.0
 70
   128
 71
    -9
 72
    28
 73
    27
 74
    -9
  0
VERTEX
  5
13E
330
AE
100
AcDbEntity
  8
0
 62
    13
420
 14702166
100
AcDbFaceRecord
 10
0.0
 20
0.0
 30
0.0
 70
   128
 71
     9
 72
    10
 73
   -28
 74
    -9
  0
VERTEX
  5
13F
330
AE
100
AcDbEntity
  8
0
 62
    13
420
 14702166
100
AcDbFaceRecord
 10
0.0
 20
0.0
 30
0.0
 70
   128
 71
   -10
 72
    29
 73
    28
 74
   -10
  0
VERTEX
  5
140
330
AE
100
AcDbEntity
  8
0
 62
    13
420
 14702166
100
AcDbFaceRecord
 10
0.0
 20
0.0
 30
0.0
 70
   128
 71
    10
 72
    11
 73
   -29
 74
   -10
  0
VERTEX
  5
141
330
AE
100
AcDbEntity
  8
0
 62
    13
420
 14702166
100
AcDbFaceRecord
 10
0.0
 20
0.0
 30
0.0
 70
   128
 71
   -11
 72
    30
 73
    29
 74
   -11
  0
VERTEX
  5
142
330
AE
100
AcDbEntity
  8
0
 62
    13
420
 14702166
100
AcDbFaceRecord
 10
0.0
 20
0.0
 30
0.0
 70
   128
 71
    11
 72
    12
 73
   -30
 74
   -11
  0
VERTEX
  5
143
330
AE
100
AcDbEntity
  8
0
 62
    13
420
 14702166
100
AcDbFaceRecord
 10
0.0
 20
0.0
 30
0.0
 70
   128
 71
   -12
 72
    31
 73
    30
 74
   -12
  0
VERTEX
  5
144
330
AE
100
AcDbEntity
  8
0
 62
    13
420
 14702166
100
AcDbFaceRecord
 10
0.0
 20
0.0
 30
0.0
 70
   128
 71
    12
 72
    13
 73
   -31
 74
   -12
  0
VERTEX
  5
145
330
AE
100
AcDbEntity
  8
0
 62
    13
420
 14702166
100
AcDbFaceRecord
 10
0.0
 20
0.0
 30
0.0
 70
   128
 71
   -13
 72
    32
 73
    31
 74
   -13
  0
VERTEX
  5
146
330
AE
100
AcDbEntity
  8
0
 62
    13
420
 14702166
100
AcDbFaceRecord
 10
0.0
 20
0.0
 30
0.0
 70
   128
 71
    13
 72
    14
 73
   -32
 74
   -13
  0
VERTEX
  5
147
330
AE
100
AcDbEntity
  8
0
 62
    13
420
 14702166
100
AcDbFaceRecord
 10
0.0
 20
0.0
 30
0.0
 70
   128
 71
   -14
 72
    33
 73
    32
 74
   -14
  0
VERTEX
  5
148
330
AE
100
AcDbEntity
  8
0
 62
    13
420
 14702166
100
AcDbFaceRecord
 10
0.0
 20
0.0
 30
0.0
 70
   128
 71
    14
 72
    15
 73
   -33
 74
   -14
  0
VERTEX
  5
149
330
AE
100
AcDbEntity
  8
0
 62
    13
420
 14702166
100
AcDbFaceRecord
 10
0.0
 20
0.0
 30
0.0
 70
   128
 71
   -15
 72
    34
 73
    33
 74
   -15
  0
VERTEX
  5
14A
330
AE
100
AcDbEntity
  8
0
 62
    13
420
 14702166
100
AcDbFaceRecord
 10
0.0
 20
0.0
 30
0.0
 70
   128
 71
    15
 72
    16
 73
   -34
 74
   -15
  0
VERTEX
  5
14B
330
AE
100
AcDbEntity
  8
0
 62
    13
420
 14702166
100
AcDbFaceRecord
 10
0.0
 20
0.0
 30
0.0
 70
   128
 71
   -16
 72
    35
 73
    34
 74
   -16
  0
VERTEX
  5
14C
330
AE
100
AcDbEntity
  8
0
 62
    13
420
 14702166
100
AcDbFaceRecord
 10
0.0
 20
0.0
 30
0.0
 70
   128
 71
    16
 72
    17
 73
   -35
 74
   -16
  0
VERTEX
  5
14D
330
AE
100
AcDbEntity
  8
0
 62
    13
420
 14702166
100
AcDbFaceRecord
 10
0.0
 20
0.0
 30
0.0
 70
   128
 71
   -17
 72
    36
 73
    35
 74
   -17
  0
VERTEX
  5
14E
330
AE
100
AcDbEntity
  8
0
 62
    13
420
 14702166
100
AcDbFaceRecord
 10
0.0
 20
0.0
 30
0.0
 70
   128
 71
    17
 72
    18
 73
   -36
 74
   -17
  0
VERTEX
  5
14F
330
AE
100
AcDbEntity
  8
0
 62
    13
420
 14702166
100
AcDbFaceRecord
 10
0.0
 20
0.0
 30
0.0
 70
   128
 71
   -18
 72
    37
 73
    36
 74
   -18
  0
VERTEX
  5
150
330
AE
100
AcDbEntity
  8
0
 62
    13
420
 14702166
100
AcDbFaceRecord
 10
0.0
 20
0.0
 30
0.0
 70
   128
 71
    18
 72
    19
 73
   -37
 74
   -18
  0
VERTEX
  5
151
330
AE
100
AcDbEntity
  8
0
 62
    13
420
 14702166
100
AcDbFaceRecord
 10
0.0
 20
0.0
 30
0.0
 70
   128
 71
   -19
 72
    20
 73
    37
 74
   -19
  0
VERTEX
  5
152
330
AE
100
AcDbEntity
  8
0
 62
    13
420
 14702166
100
AcDbFaceRecord
 10
0.0
 20
0.0
 30
0.0
 70
   128
 71
    19
 72
     2
 73
   -20
 74
   -19
  0
VERTEX
  5
153
330
AE
100
AcDbEntity
  8
0
 62
    13
420
 14702166
100
AcDbFaceRecord
 10
0.0
 20
0.0
 30
0.0
 70
   128
 71
   -20
 72
    39
 73
    38
 74
   -20
  0
VERTEX
  5
154
330
AE
100
AcDbEntity
  8
0
 62
    13
420
 14702166
100
AcDbFaceRecord
 10
0.0
 20
0.0
 30
0.0
 70
   128
 71
    20
 72
    21
 73
   -39
 74
   -20
  0
VERTEX
  5
155
330
AE
100
AcDbEntity
  8
0
 62
    13
420
 14702166
100
AcDbFaceRecord
 10
0.0
 20
0.0
 30
0.0
 70
   128
 71
   -21
 72
    40
 73
    39
 74
   -21
  0
VERTEX
  5
156
330
AE
100
AcDbEntity
  8
0
 62
    13
420
 14702166
100
AcDbFaceRecord
 10
0.0
 20
0.0
 30
0.0
 70
   128
 71
    21
 72
    22
 73
   -40
 74
   -21
  0
VERTEX
  5
157
330
AE
100
AcDbEntity
  8
0
 62
    13
420
 14702166
100
AcDbFaceRecord
 10
0.0
 20
0.0
 30
0.0
 70
   128
 71
   -22
 72
    41
 73
    40
 74
   -22
  0
VERTEX
  5
158
330
AE
100
AcDbEntity
  8
0
 62
    13
420
 14702166
100
AcDbFaceRecord
 10
0.0
 20
0.0
 30
0.0
 70
   128
 71
    22
 72
    23
 73
   -41
 74
   -22
  0
VERTEX
  5
159
330
AE
100
AcDbEntity
  8
0
 62
    13
420
 14702166
100
AcDbFaceRecord
 10
0.0
 20
0.0
 30
0.0
 70
   128
 71
   -23
 72
    42
 73
    41
 74
   -23
  0
VERTEX
  5
15A
330
AE
100
AcDbEntity
  8
0
 62
    13
420
 14702166
100
AcDbFaceRecord
 10
0.0
 20
0.0
 30
0.0
 70
   128
 71
    23
 72
    24
 73
   -42
 74
   -23
  0
VERTEX
  5
15B
330
AE
100
AcDbEntity
  8
0
 62
    13
420
 14702166
100
AcDbFaceRecord
 10
0.0
 20
0.0
 30
0.0
 70
   128
 71
   -24
 72
    43
 73
    42
 74
   -24
  0
VERTEX
  5
15C
330
AE
100
AcDbEntity
  8
0
 62
    13
420
 14702166
100
AcDbFaceRecord
 10
0.0
 20
0.0
 30
0.0
 70
   128
 71
    24
 72
    25
 73
   -43
 74
   -24
  0
VERTEX
  5
15D
330
AE
100
AcDbEntity
  8
0
 62
    13
420
 14702166
100
AcDbFaceRecord
 10
0.0
 20
0.0
 30
0.0
 70
   128
 71
   -25
 72
    44
 73
    43
 74
   -25
  0
VERTEX
  5
15E
330
AE
100
AcDbEntity
  8
0
 62
    13
420
 14702166
100
AcDbFaceRecord
 10
0.0
 20
0.0
 30
0.0
 70
   128
 71
    25
 72
    26
 73
   -44
 74
   -25
  0
VERTEX
  5
15F
330
AE
100
AcDbEntity
  8
0
 62
    13
420
 14702166
100
AcDbFaceRecord
 10
0.0
 20
0.0
 30
0.0
 70
   128
 71
   -26
 72
    45
 73
    44
 74
   -26
  0
VERTEX
  5
160
330
AE
100
AcDbEntity
  8
0
 62
    13
420
 14702166
100
AcDbFaceRecord
 10
0.0
 20
0.0
 30
0.0
 70
   128
 71
    26
 72
    27
 73
   -45
 74
   -26
  0
VERTEX
  5
161
330
AE
100
AcDbEntity
  8
0
 62
    13
420
 14702166
100
AcDbFaceRecord
 10
0.0
 20
0.0
 30
0.0
 70
   128
 71
   -27
 72
    46
 73
    45
 74
   -27
  0
VERTEX
  5
162
330
AE
100
AcDbEntity
  8
0
 62
    13
420
 14702166
100
AcDbFaceRecord
 10
0.0
 20
0.0
 30
0.0
 70
   128
 71
    27
 72
    28
 73
   -46
 74
   -27
  0
VERTEX
  5
163
330
AE
100
AcDbEntity
  8
0
 62
    13
420
 14702166
100
AcDbFaceRecord
 10
0.0
 20
0.0
 30
0.0
 70
   128
 71
   -28
 72
    47
 73
    46
 74
   -28
  0
VERTEX
  5
164
330
AE
100
AcDbEntity
  8
0
 62
    13
420
 14702166
100
AcDbFaceRecord
 10
0.0
 20
0.0
 30
0.0
 70
   128
 71
    28
 72
    29
 73
   -47
 74
   -28
  0
VERTEX
  5
165
330
AE
100
AcDbEntity
  8
0
 62
    13
420
 14702166
100
AcDbFaceRecord
 10
0.0
 20
0.0
 30
0.0
 70
   128
 71
   -29
 72
    48
 73
    47
 74
   -29
  0
VERTEX
  5
166
330
AE
100
AcDbEntity
  8
0
 62
    13
420
 14702166
100
AcDbFaceRecord
 10
0.0
 20
0.0
 30
0.0
 70
   128
 71
    29
 72
    30
 73
   -48
 74
   -29
  0
VERTEX
  5
167
330
AE
100
AcDbEntity
  8
0
 62
    13
420
 14702166
100
AcDbFaceRecord
 10
0.0
 20
0.0
 30
0.0
 70
   128
 71
   -30
 72
    49
 73
    48
 74
   -30
  0
VERTEX
  5
168
330
AE
100
AcDbEntity
  8
0
 62
    13
420
 14702166
100
AcDbFaceRecord
 10
0.0
 20
0.0
 30
0.0
 70
   128
 71
    30
 72
    31
 73
   -49
 74
   -30
  0
VERTEX
  5
169
330
AE
100
AcDbEntity
  8
0
 62
    13
420
 14702166
100
AcDbFaceRecord
 10
0.0
 20
0.0
 30
0.0
 70
   128
 71
   -31
 72
    50
 73
    49
 74
   -31
  0
VERTEX
  5
16A
330
AE
100
AcDbEntity
  8
0
 62
    13
420
 14702166
100
AcDbFaceRecord
 10
0.0
 20
0.0
 30
0.0
 70
   128
 71
    31
 72
    32
 73
   -50
 74
   -31
  0
VERTEX
  5
16B
330
AE
100
AcDbEntity
  8
0
 62
    13
420
 14702166
100
AcDbFaceRecord
 10
0.0
 20
0.0
 30
0.0
 70
   128
 71
   -32
 72
    51
 73
    50
 74
   -32
  0
VERTEX
  5
16C
330
AE
100
AcDbEntity
  8
0
 62
    13
420
 14702166
100
AcDbFaceRecord
 10
0.0
 20
0.0
 30
0.0
 70
   128
 71
    32
 72
    33
 73
   -51
 74
   -32
  0
VERTEX
  5
16D
330
AE
100
AcDbEntity
  8
0
 62
    13
420
 14702166
100
AcDbFaceRecord
 10
0.0
 20
0.0
 30
0.0
 70
   128
 71
   -33
 72
    52
 73
    51
 74
   -33
  0
VERTEX
  5
16E
330
AE
100
AcDbEntity
  8
0
 62
    13
420
 14702166
100
AcDbFaceRecord
 10
0.0
 20
0.0
 30
0.0
 70
   128
 71
    33
 72
    34
 73
   -52
 74
   -33
  0
VERTEX
  5
16F
330
AE
100
AcDbEntity
  8
0
 62
    13
420
 14702166
100
AcDbFaceRecord
 10
0.0
 20
0.0
 30
0.0
 70
   128
 71
   -34
 72
    53
 73
    52
 74
   -34
  0
VERTEX
  5
170
330
AE
100
AcDbEntity
  8
0
 62
    13
420
 14702166
100
AcDbFaceRecord
 10
0.0
 20
0.0
 30
0.0
 70
   128
 71
    34
 72
    35
 73
   -53
 74
   -34
  0
VERTEX
  5
171
330
AE
100
AcDbEntity
  8
0
 62
    13
420
 14702166
100
AcDbFaceRecord
 10
0.0
 20
0.0
 30
0.0
 70
   128
 71
   -35
 72
    54
 73
    53
 74
   -35
  0
VERTEX
  5
172
330
AE
100
AcDbEntity
  8
0
 62
    13
420
 14702166
100
AcDbFaceRecord
 10
0.0
 20
0.0
 30
0.0
 70
   128
 71
    35
 72
    36
 73
   -54
 74
   -35
  0
VERTEX
  5
173
330
AE
100
AcDbEntity
  8
0
 62
    13
420
 14702166
100
AcDbFaceRecord
 10
0.0
 20
0.0
 30
0.0
 70
   128
 71
   -36
 72
    55
 73
    54
 74
   -36
  0
VERTEX
  5
174
330
AE
100
AcDbEntity
  8
0
 62
    13
420
 14702166
100
AcDbFaceRecord
 10
0.0
 20
0.0
 30
0.0
 70
   128
 71
    36
 72
    37
 73
   -55
 74
   -36
  0
VERTEX
  5
175
330
AE
100
AcDbEntity
  8
0
 62
    13
420
 14702166
100
AcDbFaceRecord
 10
0.0
 20
0.0
 30
0.0
 70
   128
 71
   -37
 72
    38
 73
    55
 74
   -37
  0
VERTEX
  5
176
330
AE
100
AcDbEntity
  8
0
 62
    13
420
 14702166
100
AcDbFaceRecord
 10
0.0
 20
0.0
 30
0.0
 70
   128
 71
    37
 72
    20
 73
   -38
 74
   -37
  0
VERTEX
  5
177
330
AE
100
AcDbEntity
  8
0
 62
    13
420
 14702166
100
AcDbFaceRecord
 10
0.0
 20
0.0
 30
0.0
 70
   128
 71
   -38
 72
    57
 73
    56
 74
   -38
  0
VERTEX
  5
178
330
AE
100
AcDbEntity
  8
0
 62
    13
420
 14702166
100
AcDbFaceRecord
 10
0.0
 20
0.0
 30
0.0
 70
   128
 71
    38
 72
    39
 73
   -57
 74
   -38
  0
VERTEX
  5
179
330
AE
100
AcDbEntity
  8
0
 62
    13
420
 14702166
100
AcDbFaceRecord
 10
0.0
 20
0.0
 30
0.0
 70
   128
 71
   -39
 72
    58
 73
    57
 74
   -39
  0
VERTEX
  5
17A
330
AE
100
AcDbEntity
  8
0
 62
    13
420
 14702166
100
AcDbFaceRecord
 10
0.0
 20
0.0
 30
0.0
 70
   128
 71
    39
 72
    40
 73
   -58
 74
   -39
  0
VERTEX
  5
17B
330
AE
100
AcDbEntity
  8
0
 62
    13
420
 14702166
100
AcDbFaceRecord
 10
0.0
 20
0.0
 30
0.0
 70
   128
 71
   -40
 72
    59
 73
    58
 74
   -40
  0
VERTEX
  5
17C
330
AE
100
AcDbEntity
  8
0
 62
    13
420
 14702166
100
AcDbFaceRecord
 10
0.0
 20
0.0
 30
0.0
 70
   128
 71
    40
 72
    41
 73
   -59
 74
   -40
  0
VERTEX
  5
17D
330
AE
100
AcDbEntity
  8
0
 62
    13
420
 14702166
100
AcDbFaceRecord
 10
0.0
 20
0.0
 30
0.0
 70
   128
 71
   -41
 72
    60
 73
    59
 74
   -41
  0
VERTEX
  5
17E
330
AE
100
AcDbEntity
  8
0
 62
    13
420
 14702166
100
AcDbFaceRecord
 10
0.0
 20
0.0
 30
0.0
 70
   128
 71
    41
 72
    42
 73
   -60
 74
   -41
  0
VERTEX
  5
17F
330
AE
100
AcDbEntity
  8
0
 62
    13
420
 14702166
100
AcDbFaceRecord
 10
0.0
 20
0.0
 30
0.0
 70
   128
 71
   -42
 72
    61
 73
    60
 74
   -42
  0
VERTEX
  5
180
330
AE
100
AcDbEntity
  8
0
 62
    13
420
 14702166
100
AcDbFaceRecord
 10
0.0
 20
0.0
 30
0.0
 70
   128
 71
    42
 72
    43
 73
   -61
 74
   -42
  0
VERTEX
  5
181
330
AE
100
AcDbEntity
  8
0
 62
    13
420
 14702166
100
AcDbFaceRecord
 10
0.0
 20
0.0
 30
0.0
 70
   128
 71
   -43
 72
    62
 73
    61
 74
   -43
  0
VERTEX
  5
182
330
AE
100
AcDbEntity
  8
0
 62
    13
420
 14702166
100
AcDbFaceRecord
 10
0.0
 20
0.0
 30
0.0
 70
   128
 71
    43
 72
    44
 73
   -62
 74
   -43
  0
VERTEX
  5
183
330
AE
100
AcDbEntity
  8
0
 62
    13
420
 14702166
100
AcDbFaceRecord
 10
0.0
 20
0.0
 30
0.0
 70
   128
 71
   -44
 72
    63
 73
    62
 74
   -44
  0
VERTEX
  5
184
330
AE
100
AcDbEntity
  8
0
 62
    13
420
 14702166
100
AcDbFaceRecord
 10
0.0
 20
0.0
 30
0.0
 70
   128
 71
    44
 72
    45
 73
   -63
 74
   -44
  0
VERTEX
  5
185
330
AE
100
AcDbEntity
  8
0
 62
    13
420
 14702166
100
AcDbFaceRecord
 10
0.0
 20
0.0
 30
0.0
 70
   128
 71
   -45
 72
    64
 73
    63
 74
   -45
  0
VERTEX
  5
186
330
AE
100
AcDbEntity
  8
0
 62
    13
420
 14702166
100
AcDbFaceRecord
 10
0.0
 20
0.0
 30
0.0
 70
   128
 71
    45
 72
    46
 73
   -64
 74
   -45
  0
VERTEX
  5
187
330
AE
100
AcDbEntity
  8
0
 62
    13
420
 14702166
100
AcDbFaceRecord
 10
0.0
 20
0.0
 30
0.0
 70
   128
 71
   -46
 72
    65
 73
    64
 74
   -46
  0
VERTEX
  5
188
330
AE
100
AcDbEntity
  8
0
 62
    13
420
 14702166
100
AcDbFaceRecord
 10
0.0
 20
0.0
 30
0.0
 70
   128
 71
    46
 72
    47
 73
   -65
 74
   -46
  0
VERTEX
  5
189
330
AE
100
AcDbEntity
  8
0
 62
    13
420
 14702166
100
AcDbFaceRecord
 10
0.0
 20
0.0
 30
0.0
 70
   128
 71
   -47
 72
    66
 73
    65
 74
   -47
  0
VERTEX
  5
18A
330
AE
100
AcDbEntity
  8
0
 62
    13
420
 14702166
100
AcDbFaceRecord
 10
0.0
 20
0.0
 30
0.0
 70
   128
 71
    47
 72
    48
 73
   -66
 74
   -47
  0
VERTEX
  5
18B
330
AE
100
AcDbEntity
  8
0
 62
    13
420
 14702166
100
AcDbFaceRecord
 10
0.0
 20
0.0
 30
0.0
 70
   128
 71
   -48
 72
    67
 73
    66
 74
   -48
  0
VERTEX
  5
18C
330
AE
100
AcDbEntity
  8
0
 62
    13
420
 14702166
100
AcDbFaceRecord
 10
0.0
 20
0.0
 30
0.0
 70
   128
 71
    48
 72
    49
 73
   -67
 74
   -48
  0
VERTEX
  5
18D
330
AE
100
AcDbEntity
  8
0
 62
    13
420
 14702166
100
AcDbFaceRecord
 10
0.0
 20
0.0
 30
0.0
 70
   128
 71
   -49
 72
    68
 73
    67
 74
   -49
  0
VERTEX
  5
18E
330
AE
100
AcDbEntity
  8
0
 62
    13
420
 14702166
100
AcDbFaceRecord
 10
0.0
 20
0.0
 30
0.0
 70
   128
 71
    49
 72
    50
 73
   -68
 74
   -49
  0
VERTEX
  5
18F
330
AE
100
AcDbEntity
  8
0
 62
    13
420
 14702166
100
AcDbFaceRecord
 10
0.0
 20
0.0
 30
0.0
 70
   128
 71
   -50
 72
    69
 73
    68
 74
   -50
  0
VERTEX
  5
190
330
AE
100
AcDbEntity
  8
0
 62
    13
420
 14702166
100
AcDbFaceRecord
 10
0.0
 20
0.0
 30
0.0
 70
   128
 71
    50
 72
    51
 73
   -69
 74
   -50
  0
VERTEX
  5
191
330
AE
100
AcDbEntity
  8
0
 62
    13
420
 14702166
100
AcDbFaceRecord
 10
0.0
 20
0.0
 30
0.0
 70
   128
 71
   -51
 72
    70
 73
    69
 74
   -51
  0
VERTEX
  5
192
330
AE
100
AcDbEntity
  8
0
 62
    13
420
 14702166
100
AcDbFaceRecord
 10
0.0
 20
0.0
 30
0.0
 70
   128
 71
    51
 72
    52
 73
   -70
 74
   -51
  0
VERTEX
  5
193
330
AE
100
AcDbEntity
  8
0
 62
    13
420
 14702166
100
AcDbFaceRecord
 10
0.0
 20
0.0
 30
0.0
 70
   128
 71
   -52
 72
    71
 73
    70
 74
   -52
  0
VERTEX
  5
194
330
AE
100
AcDbEntity
  8
0
 62
    13
420
 14702166
100
AcDbFaceRecord
 10
0.0
 20
0.0
 30
0.0
 70
   128
 71
    52
 72
    53
 73
   -71
 74
   -52
  0
VERTEX
  5
195
330
AE
100
AcDbEntity
  8
0
 62
    13
420
 14702166
100
AcDbFaceRecord
 10
0.0
 20
0.0
 30
0.0
 70
   128
 71
   -53
 72
    72
 73
    71
 74
   -53
  0
VERTEX
  5
196
330
AE
100
AcDbEntity
  8
0
 62
    13
420
 14702166
100
AcDbFaceRecord
 10
0.0
 20
0.0
 30
0.0
 70
   128
 71
    53
 72
    54
 73
   -72
 74
   -53
  0
VERTEX
  5
197
330
AE
100
AcDbEntity
  8
0
 62
    13
420
 14702166
100
AcDbFaceRecord
 10
0.0
 20
0.0
 30
0.0
 70
   128
 71
   -54
 72
    73
 73
    72
 74
   -54
  0
VERTEX
  5
198
330
AE
100
AcDbEntity
  8
0
 62
    13
420
 14702166
100
AcDbFaceRecord
 10
0.0
 20
0.0
 30
0.0
 70
   128
 71
    54
 72
    55
 73
   -73
 74
   -54
  0
VERTEX
  5
199
330
AE
100
AcDbEntity
  8
0
 62
    13
420
 14702166
100
AcDbFaceRecord
 10
0.0
 20
0.0
 30
0.0
 70
   128
 71
   -55
 72
    56
 73
    73
 74
   -55
  0
VERTEX
  5
19A
330
AE
100
AcDbEntity
  8
0
 62
    13
420
 14702166
100
AcDbFaceRecord
 10
0.0
 20
0.0
 30
0.0
 70
   128
 71
    55
 72
    38
 73
   -56
 74
   -55
  0
VERTEX
  5
19B
330
AE
100
AcDbEntity
  8
0
 62
    13
420
 14702166
100
AcDbFaceRecord
 10
0.0
 20
0.0
 30
0.0
 70
   128
 71
   -56
 72
    75
 73
    74
 74
   -56
  0
VERTEX
  5
19C
330
AE
100
AcDbEntity
  8
0
 62
    13
420
 14702166
100
AcDbFaceRecord
 10
0.0
 20
0.0
 30
0.0
 70
   128
 71
    56
 72
    57
 73
   -75
 74
   -56
  0
VERTEX
  5
19D
330
AE
100
AcDbEntity
  8
0
 62
    13
420
 14702166
100
AcDbFaceRecord
 10
0.0
 20
0.0
 30
0.0
 70
   128
 71
   -57
 72
    76
 73
    75
 74
   -57
  0
VERTEX
  5
19E
330
AE
100
AcDbEntity
  8
0
 62
    13
420
 14702166
100
AcDbFaceRecord
 10
0.0
 20
0.0
 30
0.0
 70
   128
 71
    57
 72
    58
 73
   -76
 74
   -57
  0
VERTEX
  5
19F
330
AE
100
AcDbEntity
  8
0
 62
    13
420
 14702166
100
AcDbFaceRecord
 10
0.0
 20
0.0
 30
0.0
 70
   128
 71
   -58
 72
    77
 73
    76
 74
   -58
  0
VERTEX
  5
1A0
330
AE
100
AcDbEntity
  8
0
 62
    13
420
 14702166
100
AcDbFaceRecord
 10
0.0
 20
0.0
 30
0.0
 70
   128
 71
    58
 72
    59
 73
   -77
 74
   -58
  0
VERTEX
  5
1A1
330
AE
100
AcDbEntity
  8
0
 62
    13
420
 14702166
100
AcDbFaceRecord
 10
0.0
 20
0.0
 30
0.0
 70
   128
 71
   -59
 72
    78
 73
    77
 74
   -59
  0
VERTEX
  5
1A2
330
AE
100
AcDbEntity
  8
0
 62
    13
420
 14702166
100
AcDbFaceRecord
 10
0.0
 20
0.0
 30
0.0
 70
   128
 71
    59
 72
    60
 73
   -78
 74
   -59
  0
VERTEX
  5
1A3
330
AE
100
AcDbEntity
  8
0
 62
    13
420
 14702166
100
AcDbFaceRecord
 10
0.0
 20
0.0
 30
0.0
 70
   128
 71
   -60
 72
    79
 73
    78
 74
   -60
  0
VERTEX
  5
1A4
330
AE
100
AcDbEntity
  8
0
 62
    13
420
 14702166
100
AcDbFaceRecord
 10
0.0
 20
0.0
 30
0.0
 70
   128
 71
    60
 72
    61
 73
   -79
 74
   -60
  0
VERTEX
  5
1A5
330
AE
100
AcDbEntity
  8
0
 62
    13
420
 14702166
100
AcDbFaceRecord
 10
0.0
 20
0.0
 30
0.0
 70
   128
 71
   -61
 72
    80
 73
    79
 74
   -61
  0
VERTEX
  5
1A6
330
AE
100
AcDbEntity
  8
0
 62
    13
420
 14702166
100
AcDbFaceRecord
 10
0.0
 20
0.0
 30
0.0
 70
   128
 71
    61
 72
    62
 73
   -80
 74
   -61
  0
VERTEX
  5
1A7
330
AE
100
AcDbEntity
  8
0
 62
    13
420
 14702166
100
AcDbFaceRecord
 10
0.0
 20
0.0
 30
0.0
 70
   128
 71
   -62
 72
    81
 73
    80
 74
   -62
  0
VERTEX
  5
1A8
330
AE
100
AcDbEntity
  8
0
 62
    13
420
 14702166
100
AcDbFaceRecord
 10
0.0
 20
0.0
 30
0.0
 70
   128
 71
    62
 72
    63
 73
   -81
 74
   -62
  0
VERTEX
  5
1A9
330
AE
100
AcDbEntity
  8
0
 62
    13
420
 14702166
100
AcDbFaceRecord
 10
0.0
 20
0.0
 30
0.0
 70
   128
 71
   -63
 72
    82
 73
    81
 74
   -63
  0
VERTEX
  5
1AA
330
AE
100
AcDbEntity
  8
0
 62
    13
420
 14702166
100
AcDbFaceRecord
 10
0.0
 20
0.0
 30
0.0
 70
   128
 71
    63
 72
    64
 73
   -82
 74
   -63
  0
VERTEX
  5
1AB
330
AE
100
AcDbEntity
  8
0
 62
    13
420
 14702166
100
AcDbFaceRecord
 10
0.0
 20
0.0
 30
0.0
 70
   128
 71
   -64
 72
    83
 73
    82
 74
   -64
  0
VERTEX
  5
1AC
330
AE
100
AcDbEntity
  8
0
 62
    13
420
 14702166
100
AcDbFaceRecord
 10
0.0
 20
0.0
 30
0.0
 70
   128
 71
    64
 72
    65
 73
   -83
 74
   -64
  0
VERTEX
  5
1AD
330
AE
100
AcDbEntity
  8
0
 62
    13
420
 14702166
100
AcDbFaceRecord
 10
0.0
 20
0.0
 30
0.0
 70
   128
 71
   -65
 72
    84
 73
    83
 74
   -65
  0
VERTEX
  5
1AE
330
AE
100
AcDbEntity
  8
0
 62
    13
420
 14702166
100
AcDbFaceRecord
 10
0.0
 20
0.0
 30
0.0
 70
   128
 71
    65
 72
    66
 73
   -84
 74
   -65
  0
VERTEX
  5
1AF
330
AE
100
AcDbEntity
  8
0
 62
    13
420
 14702166
100
AcDbFaceRecord
 10
0.0
 20
0.0
 30
0.0
 70
   128
 71
   -66
 72
    85
 73
    84
 74
   -66
  0
VERTEX
  5
1B0
330
AE
100
AcDbEntity
  8
0
 62
    13
420
 14702166
100
AcDbFaceRecord
 10
0.0
 20
0.0
 30
0.0
 70
   128
 71
    66
 72
    67
 73
   -85
 74
   -66
  0
VERTEX
  5
1B1
330
AE
100
AcDbEntity
  8
0
 62
    13
420
 14702166
100
AcDbFaceRecord
 10
0.0
 20
0.0
 30
0.0
 70
   128
 71
   -67
 72
    86
 73
    85
 74
   -67
  0
VERTEX
  5
1B2
330
AE
100
AcDbEntity
  8
0
 62
    13
420
 14702166
100
AcDbFaceRecord
 10
0.0
 20
0.0
 30
0.0
 70
   128
 71
    67
 72
    68
 73
   -86
 74
   -67
  0
VERTEX
  5
1B3
330
AE
100
AcDbEntity
  8
0
 62
    13
420
 14702166
100
AcDbFaceRecord
 10
0.0
 20
0.0
 30
0.0
 70
   128
 71
   -68
 72
    87
 73
    86
 74
   -68
  0
VERTEX
  5
1B4
330
AE
100
AcDbEntity
  8
0
 62
    13
420
 14702166
100
AcDbFaceRecord
 10
0.0
 20
0.0
 30
0.0
 70
   128
 71
    68
 72
    69
 73
   -87
 74
   -68
  0
VERTEX
  5
1B5
330
AE
100
AcDbEntity
  8
0
 62
    13
420
 14702166
100
AcDbFaceRecord
 10
0.0
 20
0.0
 30
0.0
 70
   128
 71
   -69
 72
    88
 73
    87
 74
   -69
  0
VERTEX
  5
1B6
330
AE
100
AcDbEntity
  8
0
 62
    13
420
 14702166
100
AcDbFaceRecord
 10
0.0
 20
0.0
 30
0.0
 70
   128
 71
    69
 72
    70
 73
   -88
 74
   -69
  0
VERTEX
  5
1B7
330
AE
100
AcDbEntity
  8
0
 62
    13
420
 14702166
100
AcDbFaceRecord
 10
0.0
 20
0.0
 30
0.0
 70
   128
 71
   -70
 72
    89
 73
    88
 74
   -70
  0
VERTEX
  5
1B8
330
AE
100
AcDbEntity
  8
0
 62
    13
420
 14702166
100
AcDbFaceRecord
 10
0.0
 20
0.0
 30
0.0
 70
   128
 71
    70
 72
    71
 73
   -89
 74
   -70
  0
VERTEX
  5
1B9
330
AE
100
AcDbEntity
  8
0
 62
    13
420
 14702166
100
AcDbFaceRecord
 10
0.0
 20
0.0
 30
0.0
 70
   128
 71
   -71
 72
    90
 73
    89
 74
   -71
  0
VERTEX
  5
1BA
330
AE
100
AcDbEntity
  8
0
 62
    13
420
 14702166
100
AcDbFaceRecord
 10
0.0
 20
0.0
 30
0.0
 70
   128
 71
    71
 72
    72
 73
   -90
 74
   -71
  0
VERTEX
  5
1BB
330
AE
100
AcDbEntity
  8
0
 62
    13
420
 14702166
100
AcDbFaceRecord
 10
0.0
 20
0.0
 30
0.0
 70
   128
 71
   -72
 72
    91
 73
    90
 74
   -72
  0
VERTEX
  5
1BC
330
AE
100
AcDbEntity
  8
0
 62
    13
420
 14702166
100
AcDbFaceRecord
 10
0.0
 20
0.0
 30
0.0
 70
   128
 71
    72
 72
    73
 73
   -91
 74
   -72
  0
VERTEX
  5
1BD
330
AE
100
AcDbEntity
  8
0
 62
    13
420
 14702166
100
AcDbFaceRecord
 10
0.0
 20
0.0
 30
0.0
 70
   128
 71
   -73
 72
    74
 73
    91
 74
   -73
  0
VERTEX
  5
1BE
330
AE
100
AcDbEntity
  8
0
 62
    13
420
 14702166
100
AcDbFaceRecord
 10
0.0
 20
0.0
 30
0.0
 70
   128
 71
    73
 72
    56
 73
   -74
 74
   -73
  0
VERTEX
  5
1BF
330
AE
100
AcDbEntity
  8
0
 62
    13
420
 14702166
100
AcDbFaceRecord
 10
0.0
 20
0.0
 30
0.0
 70
   128
 71
   -74
 72
    93
 73
    92
 74
   -74
  0
VERTEX
  5
1C0
330
AE
100
AcDbEntity
  8
0
 62
    13
420
 14702166
100
AcDbFaceRecord
 10
0.0
 20
0.0
 30
0.0
 70
   128
 71
    74
 72
    75
 73
   -93
 74
   -74
  0
VERTEX
  5
1C1
330
AE
100
AcDbEntity
  8
0
 62
    13
420
 14702166
100
AcDbFaceRecord
 10
0.0
 20
0.0
 30
0.0
 70
   128
 71
   -75
 72
    94
 73
    93
 74
   -75
  0
VERTEX
  5
1C2
330
AE
100
AcDbEntity
  8
0
 62
    13
420
 14702166
100
AcDbFaceRecord
 10
0.0
 20
0.0
 30
0.0
 70
   128
 71
    75
 72
    76
 73
   -94
 74
   -75
  0
VERTEX
  5
1C3
330
AE
100
AcDbEntity
  8
0
 62
    13
420
 14702166
100
AcDbFaceRecord
 10
0.0
 20
0.0
 30
0.0
 70
   128
 71
   -76
 72
    95
 73
    94
 74
   -76
  0
VERTEX
  5
1C4
330
AE
100
AcDbEntity
  8
0
 62
    13
420
 14702166
100
AcDbFaceRecord
 10
0.0
 20
0.0
 30
0.0
 70
   128
 71
    76
 72
    77
 73
   -95
 74
   -76
  0
VERTEX
  5
1C5
330
AE
100
AcDbEntity
  8
0
 62
    13
420
 14702166
100
AcDbFaceRecord
 10
0.0
 20
0.0
 30
0.0
 70
   128
 71
   -77
 72
    96
 73
    95
 74
   -77
  0
VERTEX
  5
1C6
330
AE
100
AcDbEntity
  8
0
 62
    13
420
 14702166
100
AcDbFaceRecord
 10
0.0
 20
0.0
 30
0.0
 70
   128
 71
    77
 72
    78
 73
   -96
 74
   -77
  0
VERTEX
  5
1C7
330
AE
100
AcDbEntity
  8
0
 62
    13
420
 14702166
100
AcDbFaceRecord
 10
0.0
 20
0.0
 30
0.0
 70
   128
 71
   -78
 72
    97
 73
    96
 74
   -78
  0
VERTEX
  5
1C8
330
AE
100
AcDbEntity
  8
0
 62
    13
420
 14702166
100
AcDbFaceRecord
 10
0.0
 20
0.0
 30
0.0
 70
   128
 71
    78
 72
    79
 73
   -97
 74
   -78
  0
VERTEX
  5
1C9
330
AE
100
AcDbEntity
  8
0
 62
    13
420
 14702166
100
AcDbFaceRecord
 10
0.0
 20
0.0
 30
0.0
 70
   128
 71
   -79
 72
    98
 73
    97
 74
   -79
  0
VERTEX
  5
1CA
330
AE
100
AcDbEntity
  8
0
 62
    13
420
 14702166
100
AcDbFaceRecord
 10
0.0
 20
0.0
 30
0.0
 70
   128
 71
    79
 72
    80
 73
   -98
 74
   -79
  0
VERTEX
  5
1CB
330
AE
100
AcDbEntity
  8
0
 62
    13
420
 14702166
100
AcDbFaceRecord
 10
0.0
 20
0.0
 30
0.0
 70
   128
 71
   -80
 72
    99
 73
    98
 74
   -80
  0
VERTEX
  5
1CC
330
AE
100
AcDbEntity
  8
0
 62
    13
420
 14702166
100
AcDbFaceRecord
 10
0.0
 20
0.0
 30
0.0
 70
   128
 71
    80
 72
    81
 73
   -99
 74
   -80
  0
VERTEX
  5
1CD
330
AE
100
AcDbEntity
  8
0
 62
    13
420
 14702166
100
AcDbFaceRecord
 10
0.0
 20
0.0
 30
0.0
 70
   128
 71
   -81
 72
   100
 73
    99
 74
   -81
  0
VERTEX
  5
1CE
330
AE
100
AcDbEntity
  8
0
 62
    13
420
 14702166
100
AcDbFaceRecord
 10
0.0
 20
0.0
 30
0.0
 70
   128
 71
    81
 72
    82
 73
  -100
 74
   -81
  0
VERTEX
  5
1CF
330
AE
100
AcDbEntity
  8
0
 62
    13
420
 14702166
100
AcDbFaceRecord
 10
0.0
 20
0.0
 30
0.0
 70
   128
 71
   -82
 72
   101
 73
   100
 74
   -82
  0
VERTEX
  5
1D0
330
AE
100
AcDbEntity
  8
0
 62
    13
420
 14702166
100
AcDbFaceRecord
 10
0.0
 20
0.0
 30
0.0
 70
   128
 71
    82
 72
    83
 73
  -101
 74
   -82
  0
VERTEX
  5
1D1
330
AE
100
AcDbEntity
  8
0
 62
    13
420
 14702166
100
AcDbFaceRecord
 10
0.0
 20
0.0
 30
0.0
 70
   128
 71
   -83
 72
   102
 73
   101
 74
   -83
  0
VERTEX
  5
1D2
330
AE
100
AcDbEntity
  8
0
 62
    13
420
 14702166
100
AcDbFaceRecord
 10
0.0
 20
0.0
 30
0.0
 70
   128
 71
    83
 72
    84
 73
  -102
 74
   -83
  0
VERTEX
  5
1D3
330
AE
100
AcDbEntity
  8
0
 62
    13
420
 14702166
100
AcDbFaceRecord
 10
0.0
 20
0.0
 30
0.0
 70
   128
 71
   -84
 72
   103
 73
   102
 74
   -84
  0
VERTEX
  5
1D4
330
AE
100
AcDbEntity
  8
0
 62
    13
420
 14702166
100
AcDbFaceRecord
 10
0.0
 20
0.0
 30
0.0
 70
   128
 71
    84
 72
    85
 73
  -103
 74
   -84
  0
VERTEX
  5
1D5
330
AE
100
AcDbEntity
  8
0
 62
    13
420
 14702166
100
AcDbFaceRecord
 10
0.0
 20
0.0
 30
0.0
 70
   128
 71
   -85
 72
   104
 73
   103
 74
   -85
  0
VERTEX
  5
1D6
330
AE
100
AcDbEntity
  8
0
 62
    13
420
 14702166
100
AcDbFaceRecord
 10
0.0
 20
0.0
 30
0.0
 70
   128
 71
    85
 72
    86
 73
  -104
 74
   -85
  0
VERTEX
  5
1D7
330
AE
100
AcDbEntity
  8
0
 62
    13
420
 14702166
100
AcDbFaceRecord
 10
0.0
 20
0.0
 30
0.0
 70
   128
 71
   -86
 72
   105
 73
   104
 74
   -86
  0
VERTEX
  5
1D8
330
AE
100
AcDbEntity
  8
0
 62
    13
420
 14702166
100
AcDbFaceRecord
 10
0.0
 20
0.0
 30
0.0
 70
   128
 71
    86
 72
    87
 73
  -105
 74
   -86
  0
VERTEX
  5
1D9
330
AE
100
AcDbEntity
  8
0
 62
    13
420
 14702166
100
AcDbFaceRecord
 10
0.0
 20
0.0
 30
0.0
 70
   128
 71
   -87
 72
   106
 73
   105
 74
   -87
  0
VERTEX
  5
1DA
330
AE
100
AcDbEntity
  8
0
 62
    13
420
 14702166
100
AcDbFaceRecord
 10
0.0
 20
0.0
 30
0.0
 70
   128
 71
    87
 72
    88
 73
  -106
 74
   -87
  0
VERTEX
  5
1DB
330
AE
100
AcDbEntity
  8
0
 62
    13
420
 14702166
100
AcDbFaceRecord
 10
0.0
 20
0.0
 30
0.0
 70
   128
 71
   -88
 72
   107
 73
   106
 74
   -88
  0
VERTEX
  5
1DC
330
AE
100
AcDbEntity
  8
0
 62
    13
420
 14702166
100
AcDbFaceRecord
 10
0.0
 20
0.0
 30
0.0
 70
   128
 71
    88
 72
    89
 73
  -107
 74
   -88
  0
VERTEX
  5
1DD
330
AE
100
AcDbEntity
  8
0
 62
    13
420
 14702166
100
AcDbFaceRecord
 10
0.0
 20
0.0
 30
0.0
 70
   128
 71
   -89
 72
   108
 73
   107
 74
   -89
  0
VERTEX
  5
1DE
330
AE
100
AcDbEntity
  8
0
 62
    13
420
 14702166
100
AcDbFaceRecord
 10
0.0
 20
0.0
 30
0.0
 70
   128
 71
    89
 72
    90
 73
  -108
 74
   -89
  0
VERTEX
  5
1DF
330
AE
100
AcDbEntity
  8
0
 62
    13
420
 14702166
100
AcDbFaceRecord
 10
0.0
 20
0.0
 30
0.0
 70
   128
 71
   -90
 72
   109
 73
   108
 74
   -90
  0
VERTEX
  5
1E0
330
AE
100
AcDbEntity
  8
0
 62
    13
420
 14702166
100
AcDbFaceRecord
 10
0.0
 20
0.0
 30
0.0
 70
   128
 71
    90
 72
    91
 73
  -109
 74
   -90
  0
VERTEX
  5
1E1
330
AE
100
AcDbEntity
  8
0
 62
    13
420
 14702166
100
AcDbFaceRecord
 10
0.0
 20
0.0
 30
0.0
 70
   128
 71
   -91
 72
    92
 73
   109
 74
   -91
  0
VERTEX
  5
1E2
330
AE
100
AcDbEntity
  8
0
 62
    13
420
 14702166
100
AcDbFaceRecord
 10
0.0
 20
0.0
 30
0.0
 70
   128
 71
    91
 72
    74
 73
   -92
 74
   -91
  0
VERTEX
  5
1E3
330
AE
100
AcDbEntity
  8
0
 62
    13
420
 14702166
100
AcDbFaceRecord
 10
0.0
 20
0.0
 30
0.0
 70
   128
 71
  -110
 72
    92
 73
   -93
 74
  -110
  0
VERTEX
  5
1E4
330
AE
100
AcDbEntity
  8
0
 62
    13
420
 14702166
100
AcDbFaceRecord
 10
0.0
 20
0.0
 30
0.0
 70
   128
 71
  -110
 72
    93
 73
   -94
 74
  -110
  0
VERTEX
  5
1E5
330
AE
100
AcDbEntity
  8
0
 62
    13
420
 14702166
100
AcDbFaceRecord
 10
0.0
 20
0.0
 30
0.0
 70
   128
 71
  -110
 72
    94
 73
   -95
 74
  -110
  0
VERTEX
  5
1E6
330
AE
100
AcDbEntity
  8
0
 62
    13
420
 14702166
100
AcDbFaceRecord
 10
0.0
 20
0.0
 30
0.0
 70
   128
 71
  -110
 72
    95
 73
   -96
 74
  -110
  0
VERTEX
  5
1E7
330
AE
100
AcDbEntity
  8
0
 62
    13
420
 14702166
100
AcDbFaceRecord
 10
0.0
 20
0.0
 30
0.0
 70
   128
 71
  -110
 72
    96
 73
   -97
 74
  -110
  0
VERTEX
  5
1E8
330
AE
100
AcDbEntity
  8
0
 62
    13
420
 14702166
100
AcDbFaceRecord
 10
0.0
 20
0.0
 30
0.0
 70
   128
 71
  -110
 72
    97
 73
   -98
 74
  -110
  0
VERTEX
  5
1E9
330
AE
100
AcDbEntity
  8
0
 62
    13
420
 14702166
100
AcDbFaceRecord
 10
0.0
 20
0.0
 30
0.0
 70
   128
 71
  -110
 72
    98
 73
   -99
 74
  -110
  0
VERTEX
  5
1EA
330
AE
100
AcDbEntity
  8
0
 62
    13
420
 14702166
100
AcDbFaceRecord
 10
0.0
 20
0.0
 30
0.0
 70
   128
 71
  -110
 72
    99
 73
  -100
 74
  -110
  0
VERTEX
  5
1EB
330
AE
100
AcDbEntity
  8
0
 62
    13
420
 14702166
100
AcDbFaceRecord
 10
0.0
 20
0.0
 30
0.0
 70
   128
 71
  -110
 72
   100
 73
  -101
 74
  -110
  0
VERTEX
  5
1EC
330
AE
100
AcDbEntity
  8
0
 62
    13
420
 14702166
100
AcDbFaceRecord
 10
0.0
 20
0.0
 30
0.0
 70
   128
 71
  -110
 72
   101
 73
  -102
 74
  -110
  0
VERTEX
  5
1ED
330
AE
100
AcDbEntity
  8
0
 62
    13
420
 14702166
100
AcDbFaceRecord
 10
0.0
 20
0.0
 30
0.0
 70
   128
 71
  -110
 72
   102
 73
  -103
 74
  -110
  0
VERTEX
  5
1EE
330
AE
100
AcDbEntity
  8
0
 62
    13
420
 14702166
100
AcDbFaceRecord
 10
0.0
 20
0.0
 30
0.0
 70
   128
 71
  -110
 72
   103
 73
  -104
 74
  -110
  0
VERTEX
  5
1EF
330
AE
100
AcDbEntity
  8
0
 62
    13
420
 14702166
100
AcDbFaceRecord
 10
0.0
 20
0.0
 30
0.0
 70
   128
 71
  -110
 72
   104
 73
  -105
 74
  -110
  0
VERTEX
  5
1F0
330
AE
100
AcDbEntity
  8
0
 62
    13
420
 14702166
100
AcDbFaceRecord
 10
0.0
 20
0.0
 30
0.0
 70
   128
 71
  -110
 72
   105
 73
  -106
 74
  -110
  0
VERTEX
  5
1F1
330
AE
100
AcDbEntity
  8
0
 62
    13
420
 14702166
100
AcDbFaceRecord
 10
0.0
 20
0.0
 30
0.0
 70
   128
 71
  -110
 72
   106
 73
  -107
 74
  -110
  0
VERTEX
  5
1F2
330
AE
100
AcDbEntity
  8
0
 62
    13
420
 14702166
100
AcDbFaceRecord
 10
0.0
 20
0.0
 30
0.0
 70
   128
 71
  -110
 72
   107
 73
  -108
 74
  -110
  0
VERTEX
  5
1F3
330
AE
100
AcDbEntity
  8
0
 62
    13
420
 14702166
100
AcDbFaceRecord
 10
0.0
 20
0.0
 30
0.0
 70
   128
 71
  -110
 72
   108
 73
  -109
 74
  -110
  0
VERTEX
  5
1F4
330
AE
100
AcDbEntity
  8
0
 62
    13
420
 14702166
100
AcDbFaceRecord
 10
0.0
 20
0.0
 30
0.0
 70
   128
 71
  -110
 72
   109
 73
   -92
 74
  -110
  0
SEQEND
  5
1F5
330
AE
100
AcDbEntity
  8
0
 62
    13
420
 14702166
  0
POLYLINE
  5
1F6
330
1F
100
AcDbEntity
  8
0
 62
    53
420
 14730839
100
AcDbPolyFaceMesh
 66
     1
 10
0.0
 20
0.0
 30
0.0
 70
    64
 71
   146
 72
   288
  0
VERTEX
  5
1F7
330
1F6
100
AcDbEntity
  8
0
 62
    53
420
 14730839
100
AcDbVertex
100
AcDbPolyFaceMeshVertex
 10
-0.0300484001636505
 20
-148.2842102050781
 30
0.0245628356933594
 70
   192
  0
VERTEX
  5
1F8
330
1F6
100
AcDbEntity
  8
0
 62
    53
420
 14730839
100
AcDbVertex
100
AcDbPolyFaceMeshVertex
 10
21.02987098693848
 20
-148.2842102050781
 30
0.0245628356933594
 70
   192
  0
VERTEX
  5
1F9
330
1F6
100
AcDbEntity
  8
0
 62
    53
420
 14730839
100
AcDbVertex
100
AcDbPolyFaceMeshVertex
 10
20.31227111816406
 20
-148.2842102050781
 30
5.475271224975585
 70
   192
  0
VERTEX
  5
1FA
330
1F6
100
AcDbEntity
  8
0
 62
    53
420
 14730839
100
AcDbVertex
100
AcDbPolyFaceMeshVertex
 10
18.20837593078613
 20
-148.2842102050781
 30
10.55452251434326
 70
   192
  0
VERTEX
  5
1FB
330
1F6
100
AcDbEntity
  8
0
 62
    53
420
 14730839
100
AcDbVertex
100
AcDbPolyFaceMeshVertex
 10
14.86156272888183
 20
-148.2842102050781
 30
14.91617488861084
 70
   192
  0
VERTEX
  5
1FC
330
1F6
100
AcDbEntity
  8
0
 62
    53
420
 14730839
100
AcDbVertex
100
AcDbPolyFaceMeshVertex
 10
10.49991035461426
 20
-148.2842102050781
 30
18.26298904418945
 70
   192
  0
VERTEX
  5
1FD
330
1F6
100
AcDbEntity
  8
0
 62
    53
420
 14730839
100
AcDbVertex
100
AcDbPolyFaceMeshVertex
 10
5.420659065246582
 20
-148.2842102050781
 30
20.36688232421875
 70
   192
  0
VERTEX
  5
1FE
330
1F6
100
AcDbEntity
  8
0
 62
    53
420
 14730839
100
AcDbVertex
100
AcDbPolyFaceMeshVertex
 10
-0.0300493203103542
 20
-148.2842102050781
 30
21.08448219299317
 70
   192
  0
VERTEX
  5
1FF
330
1F6
100
AcDbEntity
  8
0
 62
    53
420
 14730839
100
AcDbVertex
100
AcDbPolyFaceMeshVertex
 10
-5.480757713317871
 20
-148.2842102050781
 30
20.36688232421875
 70
   192
  0
VERTEX
  5
200
330
1F6
100
AcDbEntity
  8
0
 62
    53
420
 14730839
100
AcDbVertex
100
AcDbPolyFaceMeshVertex
 10
-10.56000900268554
 20
-148.2842102050781
 30
18.26298713684082
 70
   192
  0
VERTEX
  5
201
330
1F6
100
AcDbEntity
  8
0
 62
    53
420
 14730839
100
AcDbVertex
100
AcDbPolyFaceMeshVertex
 10
-14.92166137695312
 20
-148.2842102050781
 30
14.91617393493652
 70
   192
  0
VERTEX
  5
202
330
1F6
100
AcDbEntity
  8
0
 62
    53
420
 14730839
100
AcDbVertex
100
AcDbPolyFaceMeshVertex
 10
-18.26847457885742
 20
-148.2842102050781
 30
10.55452156066894
 70
   192
  0
VERTEX
  5
203
330
1F6
100
AcDbEntity
  8
0
 62
    53
420
 14730839
100
AcDbVertex
100
AcDbPolyFaceMeshVertex
 10
-20.37236976623535
 20
-148.2842102050781
 30
5.475269317626953
 70
   192
  0
VERTEX
  5
204
330
1F6
100
AcDbEntity
  8
0
 62
    53
420
 14730839
100
AcDbVertex
100
AcDbPolyFaceMeshVertex
 10
-21.08996772766113
 20
-148.2842102050781
 30
0.0245609953999519
 70
   192
  0
VERTEX
  5
205
330
1F6
100
AcDbEntity
  8
0
 62
    53
420
 14730839
100
AcDbVertex
100
AcDbPolyFaceMeshVertex
 10
-20.37236785888672
 20
-148.2842102050781
 30
-5.4261474609375
 70
   192
  0
VERTEX
  5
206
330
1F6
100
AcDbEntity
  8
0
 62
    53
420
 14730839
100
AcDbVertex
100
AcDbPolyFaceMeshVertex
 10
-18.26847267150879
 20
-148.2842102050781
 30
-10.50539875030517
 70
   192
  0
VERTEX
  5
207
330
1F6
100
AcDbEntity
  8
0
 62
    53
420
 14730839
100
AcDbVertex
100
AcDbPolyFaceMeshVertex
 10
-14.92165851593017
 20
-148.2842102050781
 30
-14.86705017089844
 70
   192
  0
VERTEX
  5
208
330
1F6
100
AcDbEntity
  8
0
 62
    53
420
 14730839
100
AcDbVertex
100
AcDbPolyFaceMeshVertex
 10
-10.5600061416626
 20
-148.2842102050781
 30
-18.21386337280273
 70
   192
  0
VERTEX
  5
209
330
1F6
100
AcDbEntity
  8
0
 62
    53
420
 14730839
100
AcDbVertex
100
AcDbPolyFaceMeshVertex
 10
-5.480753898620605
 20
-148.2842102050781
 30
-20.31775856018066
 70
   192
  0
VERTEX
  5
20A
330
1F6
100
AcDbEntity
  8
0
 62
    53
420
 14730839
100
AcDbVertex
100
AcDbPolyFaceMeshVertex
 10
-0.0300456378608942
 20
-148.2842102050781
 30
-21.03535652160644
 70
   192
  0
VERTEX
  5
20B
330
1F6
100
AcDbEntity
  8
0
 62
    53
420
 14730839
100
AcDbVertex
100
AcDbPolyFaceMeshVertex
 10
5.420662879943847
 20
-148.2842102050781
 30
-20.31775665283203
 70
   192
  0
VERTEX
  5
20C
330
1F6
100
AcDbEntity
  8
0
 62
    53
420
 14730839
100
AcDbVertex
100
AcDbPolyFaceMeshVertex
 10
10.49991416931152
 20
-148.2842102050781
 30
-18.2138614654541
 70
   192
  0
VERTEX
  5
20D
330
1F6
100
AcDbEntity
  8
0
 62
    53
420
 14730839
100
AcDbVertex
100
AcDbPolyFaceMeshVertex
 10
14.86156558990478
 20
-148.2842102050781
 30
-14.86704635620117
 70
   192
  0
VERTEX
  5
20E
330
1F6
100
AcDbEntity
  8
0
 62
    53
420
 14730839
100
AcDbVertex
100
AcDbPolyFaceMeshVertex
 10
18.20837783813476
 20
-148.2842102050781
 30
-10.50539398193359
 70
   192
  0
VERTEX
  5
20F
330
1F6
100
AcDbEntity
  8
0
 62
    53
420
 14730839
100
AcDbVertex
100
AcDbPolyFaceMeshVertex
 10
20.3122730255127
 20
-148.2842102050781
 30
-5.426141738891601
 70
   192
  0
VERTEX
  5
210
330
1F6
100
AcDbEntity
  8
0
 62
    53
420
 14730839
100
AcDbVertex
100
AcDbPolyFaceMeshVertex
 10
16.81788635253906
 20
-157.9212341308594
 30
0.0245624147355557
 70
   192
  0
VERTEX
  5
211
330
1F6
100
AcDbEntity
  8
0
 62
    53
420
 14730839
100
AcDbVertex
100
AcDbPolyFaceMeshVertex
 10
16.24380683898926
 20
-157.9212341308594
 30
4.38512897491455
 70
   192
  0
VERTEX
  5
212
330
1F6
100
AcDbEntity
  8
0
 62
    53
420
 14730839
100
AcDbVertex
100
AcDbPolyFaceMeshVertex
 10
14.56069087982178
 20
-157.9212341308594
 30
8.448530197143554
 70
   192
  0
VERTEX
  5
213
330
1F6
100
AcDbEntity
  8
0
 62
    53
420
 14730839
100
AcDbVertex
100
AcDbPolyFaceMeshVertex
 10
11.88324069976806
 20
-157.9212341308594
 30
11.93785190582275
 70
   192
  0
VERTEX
  5
214
330
1F6
100
AcDbEntity
  8
0
 62
    53
420
 14730839
100
AcDbVertex
100
AcDbPolyFaceMeshVertex
 10
8.393918991088867
 20
-157.9212341308594
 30
14.61530208587646
 70
   192
  0
VERTEX
  5
215
330
1F6
100
AcDbEntity
  8
0
 62
    53
420
 14730839
100
AcDbVertex
100
AcDbPolyFaceMeshVertex
 10
4.330517292022705
 20
-157.9212341308594
 30
16.29841804504394
 70
   192
  0
VERTEX
  5
216
330
1F6
100
AcDbEntity
  8
0
 62
    53
420
 14730839
100
AcDbVertex
100
AcDbPolyFaceMeshVertex
 10
-0.0300491359084845
 20
-157.9212341308594
 30
16.87249755859375
 70
   192
  0
VERTEX
  5
217
330
1F6
100
AcDbEntity
  8
0
 62
    53
420
 14730839
100
AcDbVertex
100
AcDbPolyFaceMeshVertex
 10
-4.390615463256835
 20
-157.9212341308594
 30
16.29841804504394
 70
   192
  0
VERTEX
  5
218
330
1F6
100
AcDbEntity
  8
0
 62
    53
420
 14730839
100
AcDbVertex
100
AcDbPolyFaceMeshVertex
 10
-8.454016685485839
 20
-157.9212341308594
 30
14.61530208587646
 70
   192
  0
VERTEX
  5
219
330
1F6
100
AcDbEntity
  8
0
 62
    53
420
 14730839
100
AcDbVertex
100
AcDbPolyFaceMeshVertex
 10
-11.94333839416504
 20
-157.9212341308594
 30
11.93785095214844
 70
   192
  0
VERTEX
  5
21A
330
1F6
100
AcDbEntity
  8
0
 62
    53
420
 14730839
100
AcDbVertex
100
AcDbPolyFaceMeshVertex
 10
-14.62078857421875
 20
-157.9212341308594
 30
8.448529243469238
 70
   192
  0
VERTEX
  5
21B
330
1F6
100
AcDbEntity
  8
0
 62
    53
420
 14730839
100
AcDbVertex
100
AcDbPolyFaceMeshVertex
 10
-16.30390357971191
 20
-157.9212341308594
 30
4.385127544403076
 70
   192
  0
VERTEX
  5
21C
330
1F6
100
AcDbEntity
  8
0
 62
    53
420
 14730839
100
AcDbVertex
100
AcDbPolyFaceMeshVertex
 10
-16.87798309326172
 20
-157.9212341308594
 30
0.0245609413832426
 70
   192
  0
VERTEX
  5
21D
330
1F6
100
AcDbEntity
  8
0
 62
    53
420
 14730839
100
AcDbVertex
100
AcDbPolyFaceMeshVertex
 10
-16.30390357971191
 20
-157.9212341308594
 30
-4.336005687713623
 70
   192
  0
VERTEX
  5
21E
330
1F6
100
AcDbEntity
  8
0
 62
    53
420
 14730839
100
AcDbVertex
100
AcDbPolyFaceMeshVertex
 10
-14.62078666687012
 20
-157.9212341308594
 30
-8.399406433105468
 70
   192
  0
VERTEX
  5
21F
330
1F6
100
AcDbEntity
  8
0
 62
    53
420
 14730839
100
AcDbVertex
100
AcDbPolyFaceMeshVertex
 10
-11.94333553314209
 20
-157.9212341308594
 30
-11.88872718811035
 70
   192
  0
VERTEX
  5
220
330
1F6
100
AcDbEntity
  8
0
 62
    53
420
 14730839
100
AcDbVertex
100
AcDbPolyFaceMeshVertex
 10
-8.45401382446289
 20
-157.9212341308594
 30
-14.56617736816406
 70
   192
  0
VERTEX
  5
221
330
1F6
100
AcDbEntity
  8
0
 62
    53
420
 14730839
100
AcDbVertex
100
AcDbPolyFaceMeshVertex
 10
-4.390612602233886
 20
-157.9212341308594
 30
-16.24929237365722
 70
   192
  0
VERTEX
  5
222
330
1F6
100
AcDbEntity
  8
0
 62
    53
420
 14730839
100
AcDbVertex
100
AcDbPolyFaceMeshVertex
 10
-0.0300461910665035
 20
-157.9212341308594
 30
-16.82337188720703
 70
   192
  0
VERTEX
  5
223
330
1F6
100
AcDbEntity
  8
0
 62
    53
420
 14730839
100
AcDbVertex
100
AcDbPolyFaceMeshVertex
 10
4.330520153045654
 20
-157.9212341308594
 30
-16.24929237365722
 70
   192
  0
VERTEX
  5
224
330
1F6
100
AcDbEntity
  8
0
 62
    53
420
 14730839
100
AcDbVertex
100
AcDbPolyFaceMeshVertex
 10
8.3939208984375
 20
-157.9212341308594
 30
-14.56617546081543
 70
   192
  0
VERTEX
  5
225
330
1F6
100
AcDbEntity
  8
0
 62
    53
420
 14730839
100
AcDbVertex
100
AcDbPolyFaceMeshVertex
 10
11.8832426071167
 20
-157.9212341308594
 30
-11.8887243270874
 70
   192
  0
VERTEX
  5
226
330
1F6
100
AcDbEntity
  8
0
 62
    53
420
 14730839
100
AcDbVertex
100
AcDbPolyFaceMeshVertex
 10
14.56069278717041
 20
-157.9212341308594
 30
-8.399402618408203
 70
   192
  0
VERTEX
  5
227
330
1F6
100
AcDbEntity
  8
0
 62
    53
420
 14730839
100
AcDbVertex
100
AcDbPolyFaceMeshVertex
 10
16.24380683898926
 20
-157.9212341308594
 30
-4.336001396179199
 70
   192
  0
VERTEX
  5
228
330
1F6
100
AcDbEntity
  8
0
 62
    53
420
 14730839
100
AcDbVertex
100
AcDbPolyFaceMeshVertex
 10
12.60590362548828
 20
-167.5582580566406
 30
0.0245619937777519
 70
   192
  0
VERTEX
  5
229
330
1F6
100
AcDbEntity
  8
0
 62
    53
420
 14730839
100
AcDbVertex
100
AcDbPolyFaceMeshVertex
 10
12.17534351348877
 20
-167.5582580566406
 30
3.294986963272094
 70
   192
  0
VERTEX
  5
22A
330
1F6
100
AcDbEntity
  8
0
 62
    53
420
 14730839
100
AcDbVertex
100
AcDbPolyFaceMeshVertex
 10
10.91300678253174
 20
-167.5582580566406
 30
6.342537879943847
 70
   192
  0
VERTEX
  5
22B
330
1F6
100
AcDbEntity
  8
0
 62
    53
420
 14730839
100
AcDbVertex
100
AcDbPolyFaceMeshVertex
 10
8.904918670654296
 20
-167.5582580566406
 30
8.959529876708984
 70
   192
  0
VERTEX
  5
22C
330
1F6
100
AcDbEntity
  8
0
 62
    53
420
 14730839
100
AcDbVertex
100
AcDbPolyFaceMeshVertex
 10
6.287927150726318
 20
-167.5582580566406
 30
10.96761703491211
 70
   192
  0
VERTEX
  5
22D
330
1F6
100
AcDbEntity
  8
0
 62
    53
420
 14730839
100
AcDbVertex
100
AcDbPolyFaceMeshVertex
 10
3.240376234054565
 20
-167.5582580566406
 30
12.22995471954346
 70
   192
  0
VERTEX
  5
22E
330
1F6
100
AcDbEntity
  8
0
 62
    53
420
 14730839
100
AcDbVertex
100
AcDbPolyFaceMeshVertex
 10
-0.0300489533692598
 20
-167.5582580566406
 30
12.66051387786865
 70
   192
  0
VERTEX
  5
22F
330
1F6
100
AcDbEntity
  8
0
 62
    53
420
 14730839
100
AcDbVertex
100
AcDbPolyFaceMeshVertex
 10
-3.300473928451538
 20
-167.5582580566406
 30
12.22995376586914
 70
   192
  0
VERTEX
  5
230
330
1F6
100
AcDbEntity
  8
0
 62
    53
420
 14730839
100
AcDbVertex
100
AcDbPolyFaceMeshVertex
 10
-6.348024845123291
 20
-167.5582580566406
 30
10.96761703491211
 70
   192
  0
VERTEX
  5
231
330
1F6
100
AcDbEntity
  8
0
 62
    53
420
 14730839
100
AcDbVertex
100
AcDbPolyFaceMeshVertex
 10
-8.965016365051269
 20
-167.5582580566406
 30
8.959528923034667
 70
   192
  0
VERTEX
  5
232
330
1F6
100
AcDbEntity
  8
0
 62
    53
420
 14730839
100
AcDbVertex
100
AcDbPolyFaceMeshVertex
 10
-10.97310447692871
 20
-167.5582580566406
 30
6.342536926269531
 70
   192
  0
VERTEX
  5
233
330
1F6
100
AcDbEntity
  8
0
 62
    53
420
 14730839
100
AcDbVertex
100
AcDbPolyFaceMeshVertex
 10
-12.23544120788574
 20
-167.5582580566406
 30
3.294986009597778
 70
   192
  0
VERTEX
  5
234
330
1F6
100
AcDbEntity
  8
0
 62
    53
420
 14730839
100
AcDbVertex
100
AcDbPolyFaceMeshVertex
 10
-12.66600036621094
 20
-167.5582580566406
 30
0.0245608892291784
 70
   192
  0
VERTEX
  5
235
330
1F6
100
AcDbEntity
  8
0
 62
    53
420
 14730839
100
AcDbVertex
100
AcDbPolyFaceMeshVertex
 10
-12.23544025421142
 20
-167.5582580566406
 30
-3.245864391326904
 70
   192
  0
VERTEX
  5
236
330
1F6
100
AcDbEntity
  8
0
 62
    53
420
 14730839
100
AcDbVertex
100
AcDbPolyFaceMeshVertex
 10
-10.97310352325439
 20
-167.5582580566406
 30
-6.293415069580078
 70
   192
  0
VERTEX
  5
237
330
1F6
100
AcDbEntity
  8
0
 62
    53
420
 14730839
100
AcDbVertex
100
AcDbPolyFaceMeshVertex
 10
-8.965014457702636
 20
-167.5582580566406
 30
-8.910406112670898
 70
   192
  0
VERTEX
  5
238
330
1F6
100
AcDbEntity
  8
0
 62
    53
420
 14730839
100
AcDbVertex
100
AcDbPolyFaceMeshVertex
 10
-6.348022937774658
 20
-167.5582580566406
 30
-10.91849422454834
 70
   192
  0
VERTEX
  5
239
330
1F6
100
AcDbEntity
  8
0
 62
    53
420
 14730839
100
AcDbVertex
100
AcDbPolyFaceMeshVertex
 10
-3.300471782684326
 20
-167.5582580566406
 30
-12.18083095550537
 70
   192
  0
VERTEX
  5
23A
330
1F6
100
AcDbEntity
  8
0
 62
    53
420
 14730839
100
AcDbVertex
100
AcDbPolyFaceMeshVertex
 10
-0.0300467424094677
 20
-167.5582580566406
 30
-12.61139011383056
 70
   192
  0
VERTEX
  5
23B
330
1F6
100
AcDbEntity
  8
0
 62
    53
420
 14730839
100
AcDbVertex
100
AcDbPolyFaceMeshVertex
 10
3.240378379821777
 20
-167.5582580566406
 30
-12.18083000183105
 70
   192
  0
VERTEX
  5
23C
330
1F6
100
AcDbEntity
  8
0
 62
    53
420
 14730839
100
AcDbVertex
100
AcDbPolyFaceMeshVertex
 10
6.287929058074951
 20
-167.5582580566406
 30
-10.91849231719971
 70
   192
  0
VERTEX
  5
23D
330
1F6
100
AcDbEntity
  8
0
 62
    53
420
 14730839
100
AcDbVertex
100
AcDbPolyFaceMeshVertex
 10
8.904920578002929
 20
-167.5582580566406
 30
-8.910404205322265
 70
   192
  0
VERTEX
  5
23E
330
1F6
100
AcDbEntity
  8
0
 62
    53
420
 14730839
100
AcDbVertex
100
AcDbPolyFaceMeshVertex
 10
10.91300773620605
 20
-167.5582580566406
 30
-6.293412208557128
 70
   192
  0
VERTEX
  5
23F
330
1F6
100
AcDbEntity
  8
0
 62
    53
420
 14730839
100
AcDbVertex
100
AcDbPolyFaceMeshVertex
 10
12.17534446716308
 20
-167.5582580566406
 30
-3.245861053466796
 70
   192
  0
VERTEX
  5
240
330
1F6
100
AcDbEntity
  8
0
 62
    53
420
 14730839
100
AcDbVertex
100
AcDbPolyFaceMeshVertex
 10
8.393918991088867
 20
-177.1952819824218
 30
0.0245615728199482
 70
   192
  0
VERTEX
  5
241
330
1F6
100
AcDbEntity
  8
0
 62
    53
420
 14730839
100
AcDbVertex
100
AcDbPolyFaceMeshVertex
 10
8.106879234313964
 20
-177.1952819824218
 30
2.204844951629638
 70
   192
  0
VERTEX
  5
242
330
1F6
100
AcDbEntity
  8
0
 62
    53
420
 14730839
100
AcDbVertex
100
AcDbPolyFaceMeshVertex
 10
7.265321254730224
 20
-177.1952819824218
 30
4.236545085906982
 70
   192
  0
VERTEX
  5
243
330
1F6
100
AcDbEntity
  8
0
 62
    53
420
 14730839
100
AcDbVertex
100
AcDbPolyFaceMeshVertex
 10
5.926596164703369
 20
-177.1952819824218
 30
5.981205940246582
 70
   192
  0
VERTEX
  5
244
330
1F6
100
AcDbEntity
  8
0
 62
    53
420
 14730839
100
AcDbVertex
100
AcDbPolyFaceMeshVertex
 10
4.181935310363769
 20
-177.1952819824218
 30
7.319931030273437
 70
   192
  0
VERTEX
  5
245
330
1F6
100
AcDbEntity
  8
0
 62
    53
420
 14730839
100
AcDbVertex
100
AcDbPolyFaceMeshVertex
 10
2.150234460830688
 20
-177.1952819824218
 30
8.161489486694335
 70
   192
  0
VERTEX
  5
246
330
1F6
100
AcDbEntity
  8
0
 62
    53
420
 14730839
100
AcDbVertex
100
AcDbPolyFaceMeshVertex
 10
-0.0300487689673901
 20
-177.1952819824218
 30
8.448529243469238
 70
   192
  0
VERTEX
  5
247
330
1F6
100
AcDbEntity
  8
0
 62
    53
420
 14730839
100
AcDbVertex
100
AcDbPolyFaceMeshVertex
 10
-2.210331916809082
 20
-177.1952819824218
 30
8.161489486694335
 70
   192
  0
VERTEX
  5
248
330
1F6
100
AcDbEntity
  8
0
 62
    53
420
 14730839
100
AcDbVertex
100
AcDbPolyFaceMeshVertex
 10
-4.242032527923583
 20
-177.1952819824218
 30
7.319931030273437
 70
   192
  0
VERTEX
  5
249
330
1F6
100
AcDbEntity
  8
0
 62
    53
420
 14730839
100
AcDbVertex
100
AcDbPolyFaceMeshVertex
 10
-5.986693382263183
 20
-177.1952819824218
 30
5.981205463409423
 70
   192
  0
VERTEX
  5
24A
330
1F6
100
AcDbEntity
  8
0
 62
    53
420
 14730839
100
AcDbVertex
100
AcDbPolyFaceMeshVertex
 10
-7.325418472290039
 20
-177.1952819824218
 30
4.236544609069824
 70
   192
  0
VERTEX
  5
24B
330
1F6
100
AcDbEntity
  8
0
 62
    53
420
 14730839
100
AcDbVertex
100
AcDbPolyFaceMeshVertex
 10
-8.166975975036621
 20
-177.1952819824218
 30
2.204844236373901
 70
   192
  0
VERTEX
  5
24C
330
1F6
100
AcDbEntity
  8
0
 62
    53
420
 14730839
100
AcDbVertex
100
AcDbPolyFaceMeshVertex
 10
-8.454015731811523
 20
-177.1952667236328
 30
0.0245608352124691
 70
   192
  0
VERTEX
  5
24D
330
1F6
100
AcDbEntity
  8
0
 62
    53
420
 14730839
100
AcDbVertex
100
AcDbPolyFaceMeshVertex
 10
-8.166975975036621
 20
-177.1952667236328
 30
-2.155722379684448
 70
   192
  0
VERTEX
  5
24E
330
1F6
100
AcDbEntity
  8
0
 62
    53
420
 14730839
100
AcDbVertex
100
AcDbPolyFaceMeshVertex
 10
-7.325417518615722
 20
-177.1952667236328
 30
-4.187423229217529
 70
   192
  0
VERTEX
  5
24F
330
1F6
100
AcDbEntity
  8
0
 62
    53
420
 14730839
100
AcDbVertex
100
AcDbPolyFaceMeshVertex
 10
-5.986691951751708
 20
-177.1952667236328
 30
-5.93208360671997
 70
   192
  0
VERTEX
  5
250
330
1F6
100
AcDbEntity
  8
0
 62
    53
420
 14730839
100
AcDbVertex
100
AcDbPolyFaceMeshVertex
 10
-4.242031097412109
 20
-177.1952667236328
 30
-7.270808696746826
 70
   192
  0
VERTEX
  5
251
330
1F6
100
AcDbEntity
  8
0
 62
    53
420
 14730839
100
AcDbVertex
100
AcDbPolyFaceMeshVertex
 10
-2.210330486297607
 20
-177.1952667236328
 30
-8.11236572265625
 70
   192
  0
VERTEX
  5
252
330
1F6
100
AcDbEntity
  8
0
 62
    53
420
 14730839
100
AcDbVertex
100
AcDbPolyFaceMeshVertex
 10
-0.030047295615077
 20
-177.1952667236328
 30
-8.399405479431152
 70
   192
  0
VERTEX
  5
253
330
1F6
100
AcDbEntity
  8
0
 62
    53
420
 14730839
100
AcDbVertex
100
AcDbPolyFaceMeshVertex
 10
2.150235891342163
 20
-177.1952667236328
 30
-8.11236572265625
 70
   192
  0
VERTEX
  5
254
330
1F6
100
AcDbEntity
  8
0
 62
    53
420
 14730839
100
AcDbVertex
100
AcDbPolyFaceMeshVertex
 10
4.181936264038085
 20
-177.1952667236328
 30
-7.270807743072509
 70
   192
  0
VERTEX
  5
255
330
1F6
100
AcDbEntity
  8
0
 62
    53
420
 14730839
100
AcDbVertex
100
AcDbPolyFaceMeshVertex
 10
5.926597118377685
 20
-177.1952667236328
 30
-5.932082176208496
 70
   192
  0
VERTEX
  5
256
330
1F6
100
AcDbEntity
  8
0
 62
    53
420
 14730839
100
AcDbVertex
100
AcDbPolyFaceMeshVertex
 10
7.265322208404541
 20
-177.1952667236328
 30
-4.187421321868896
 70
   192
  0
VERTEX
  5
257
330
1F6
100
AcDbEntity
  8
0
 62
    53
420
 14730839
100
AcDbVertex
100
AcDbPolyFaceMeshVertex
 10
8.106879234313964
 20
-177.1952667236328
 30
-2.155720233917236
 70
   192
  0
VERTEX
  5
258
330
1F6
100
AcDbEntity
  8
0
 62
    53
420
 14730839
100
AcDbVertex
100
AcDbPolyFaceMeshVertex
 10
4.181935310363769
 20
-186.8323059082031
 30
0.0245611499994993
 70
   192
  0
VERTEX
  5
259
330
1F6
100
AcDbEntity
  8
0
 62
    53
420
 14730839
100
AcDbVertex
100
AcDbPolyFaceMeshVertex
 10
4.038415431976318
 20
-186.8323059082031
 30
1.114702820777893
 70
   192
  0
VERTEX
  5
25A
330
1F6
100
AcDbEntity
  8
0
 62
    53
420
 14730839
100
AcDbVertex
100
AcDbPolyFaceMeshVertex
 10
3.617636442184448
 20
-186.8323059082031
 30
2.130553007125854
 70
   192
  0
VERTEX
  5
25B
330
1F6
100
AcDbEntity
  8
0
 62
    53
420
 14730839
100
AcDbVertex
100
AcDbPolyFaceMeshVertex
 10
2.94827389717102
 20
-186.8323059082031
 30
3.002883434295654
 70
   192
  0
VERTEX
  5
25C
330
1F6
100
AcDbEntity
  8
0
 62
    53
420
 14730839
100
AcDbVertex
100
AcDbPolyFaceMeshVertex
 10
2.07594347000122
 20
-186.8323059082031
 30
3.672245979309082
 70
   192
  0
VERTEX
  5
25D
330
1F6
100
AcDbEntity
  8
0
 62
    53
420
 14730839
100
AcDbVertex
100
AcDbPolyFaceMeshVertex
 10
1.06009304523468
 20
-186.8323059082031
 30
4.093024730682373
 70
   192
  0
VERTEX
  5
25E
330
1F6
100
AcDbEntity
  8
0
 62
    53
420
 14730839
100
AcDbVertex
100
AcDbPolyFaceMeshVertex
 10
-0.0300485845655203
 20
-186.8323059082031
 30
4.236544609069824
 70
   192
  0
VERTEX
  5
25F
330
1F6
100
AcDbEntity
  8
0
 62
    53
420
 14730839
100
AcDbVertex
100
AcDbPolyFaceMeshVertex
 10
-1.120190143585205
 20
-186.8323059082031
 30
4.093024730682373
 70
   192
  0
VERTEX
  5
260
330
1F6
100
AcDbEntity
  8
0
 62
    53
420
 14730839
100
AcDbVertex
100
AcDbPolyFaceMeshVertex
 10
-2.136040449142456
 20
-186.8323059082031
 30
3.672245979309082
 70
   192
  0
VERTEX
  5
261
330
1F6
100
AcDbEntity
  8
0
 62
    53
420
 14730839
100
AcDbVertex
100
AcDbPolyFaceMeshVertex
 10
-3.008370876312255
 20
-186.8323059082031
 30
3.002883195877075
 70
   192
  0
VERTEX
  5
262
330
1F6
100
AcDbEntity
  8
0
 62
    53
420
 14730839
100
AcDbVertex
100
AcDbPolyFaceMeshVertex
 10
-3.677733421325683
 20
-186.8323059082031
 30
2.130552768707275
 70
   192
  0
VERTEX
  5
263
330
1F6
100
AcDbEntity
  8
0
 62
    53
420
 14730839
100
AcDbVertex
100
AcDbPolyFaceMeshVertex
 10
-4.098512172698974
 20
-186.8323059082031
 30
1.114702463150024
 70
   192
  0
VERTEX
  5
264
330
1F6
100
AcDbEntity
  8
0
 62
    53
420
 14730839
100
AcDbVertex
100
AcDbPolyFaceMeshVertex
 10
-4.242032051086425
 20
-186.8323059082031
 30
0.0245607830584049
 70
   192
  0
VERTEX
  5
265
330
1F6
100
AcDbEntity
  8
0
 62
    53
420
 14730839
100
AcDbVertex
100
AcDbPolyFaceMeshVertex
 10
-4.098512172698974
 20
-186.832290649414
 30
-1.06558084487915
 70
   192
  0
VERTEX
  5
266
330
1F6
100
AcDbEntity
  8
0
 62
    53
420
 14730839
100
AcDbVertex
100
AcDbPolyFaceMeshVertex
 10
-3.677732944488525
 20
-186.832290649414
 30
-2.081431150436401
 70
   192
  0
VERTEX
  5
267
330
1F6
100
AcDbEntity
  8
0
 62
    53
420
 14730839
100
AcDbVertex
100
AcDbPolyFaceMeshVertex
 10
-3.008370161056518
 20
-186.832290649414
 30
-2.953761339187622
 70
   192
  0
VERTEX
  5
268
330
1F6
100
AcDbEntity
  8
0
 62
    53
420
 14730839
100
AcDbVertex
100
AcDbPolyFaceMeshVertex
 10
-2.136039733886718
 20
-186.832290649414
 30
-3.623123884201049
 70
   192
  0
VERTEX
  5
269
330
1F6
100
AcDbEntity
  8
0
 62
    53
420
 14730839
100
AcDbVertex
100
AcDbPolyFaceMeshVertex
 10
-1.120189428329467
 20
-186.832290649414
 30
-4.043902873992919
 70
   192
  0
VERTEX
  5
26A
330
1F6
100
AcDbEntity
  8
0
 62
    53
420
 14730839
100
AcDbVertex
100
AcDbPolyFaceMeshVertex
 10
-0.0300478469580412
 20
-186.832290649414
 30
-4.187422752380371
 70
   192
  0
VERTEX
  5
26B
330
1F6
100
AcDbEntity
  8
0
 62
    53
420
 14730839
100
AcDbVertex
100
AcDbPolyFaceMeshVertex
 10
1.060093760490417
 20
-186.832290649414
 30
-4.043902873992919
 70
   192
  0
VERTEX
  5
26C
330
1F6
100
AcDbEntity
  8
0
 62
    53
420
 14730839
100
AcDbVertex
100
AcDbPolyFaceMeshVertex
 10
2.075943946838378
 20
-186.832290649414
 30
-3.623123407363891
 70
   192
  0
VERTEX
  5
26D
330
1F6
100
AcDbEntity
  8
0
 62
    53
420
 14730839
100
AcDbVertex
100
AcDbPolyFaceMeshVertex
 10
2.948274374008178
 20
-186.832290649414
 30
-2.953760623931884
 70
   192
  0
VERTEX
  5
26E
330
1F6
100
AcDbEntity
  8
0
 62
    53
420
 14730839
100
AcDbVertex
100
AcDbPolyFaceMeshVertex
 10
3.617636919021606
 20
-186.832290649414
 30
-2.081430196762084
 70
   192
  0
VERTEX
  5
26F
330
1F6
100
AcDbEntity
  8
0
 62
    53
420
 14730839
100
AcDbVertex
100
AcDbPolyFaceMeshVertex
 10
4.038415431976318
 20
-186.832290649414
 30
-1.065579771995544
 70
   192
  0
VERTEX
  5
270
330
1F6
100
AcDbEntity
  8
0
 62
    53
420
 14730839
100
AcDbVertex
100
AcDbPolyFaceMeshVertex
 10
-0.0300484001636505
 20
-196.4693145751953
 30
0.0245607290416956
 70
   192
  0
VERTEX
  5
271
330
1F6
100
AcDbEntity
  8
0
 62
    53
420
 14730839
100
AcDbVertex
100
AcDbPolyFaceMeshVertex
 10
-0.0300484001636505
 20
-196.4693145751953
 30
0.0245607290416956
 70
   192
  0
VERTEX
  5
272
330
1F6
100
AcDbEntity
  8
0
 62
    53
420
 14730839
100
AcDbVertex
100
AcDbPolyFaceMeshVertex
 10
-0.0300484001636505
 20
-196.4693145751953
 30
0.0245607290416956
 70
   192
  0
VERTEX
  5
273
330
1F6
100
AcDbEntity
  8
0
 62
    53
420
 14730839
100
AcDbVertex
100
AcDbPolyFaceMeshVertex
 10
-0.0300484001636505
 20
-196.4693145751953
 30
0.0245607290416956
 70
   192
  0
VERTEX
  5
274
330
1F6
100
AcDbEntity
  8
0
 62
    53
420
 14730839
100
AcDbVertex
100
AcDbPolyFaceMeshVertex
 10
-0.0300484001636505
 20
-196.4693145751953
 30
0.0245607290416956
 70
   192
  0
VERTEX
  5
275
330
1F6
100
AcDbEntity
  8
0
 62
    53
420
 14730839
100
AcDbVertex
100
AcDbPolyFaceMeshVertex
 10
-0.0300484001636505
 20
-196.4693145751953
 30
0.0245607290416956
 70
   192
  0
VERTEX
  5
276
330
1F6
100
AcDbEntity
  8
0
 62
    53
420
 14730839
100
AcDbVertex
100
AcDbPolyFaceMeshVertex
 10
-0.0300484001636505
 20
-196.4693145751953
 30
0.0245607290416956
 70
   192
  0
VERTEX
  5
277
330
1F6
100
AcDbEntity
  8
0
 62
    53
420
 14730839
100
AcDbVertex
100
AcDbPolyFaceMeshVertex
 10
-0.0300484001636505
 20
-196.4693145751953
 30
0.0245607290416956
 70
   192
  0
VERTEX
  5
278
330
1F6
100
AcDbEntity
  8
0
 62
    53
420
 14730839
100
AcDbVertex
100
AcDbPolyFaceMeshVertex
 10
-0.0300484001636505
 20
-196.4693145751953
 30
0.0245607290416956
 70
   192
  0
VERTEX
  5
279
330
1F6
100
AcDbEntity
  8
0
 62
    53
420
 14730839
100
AcDbVertex
100
AcDbPolyFaceMeshVertex
 10
-0.0300484001636505
 20
-196.4693145751953
 30
0.0245607290416956
 70
   192
  0
VERTEX
  5
27A
330
1F6
100
AcDbEntity
  8
0
 62
    53
420
 14730839
100
AcDbVertex
100
AcDbPolyFaceMeshVertex
 10
-0.0300484001636505
 20
-196.4693145751953
 30
0.0245607290416956
 70
   192
  0
VERTEX
  5
27B
330
1F6
100
AcDbEntity
  8
0
 62
    53
420
 14730839
100
AcDbVertex
100
AcDbPolyFaceMeshVertex
 10
-0.0300484001636505
 20
-196.4693145751953
 30
0.0245607290416956
 70
   192
  0
VERTEX
  5
27C
330
1F6
100
AcDbEntity
  8
0
 62
    53
420
 14730839
100
AcDbVertex
100
AcDbPolyFaceMeshVertex
 10
-0.0300484001636505
 20
-196.4693145751953
 30
0.0245607290416956
 70
   192
  0
VERTEX
  5
27D
330
1F6
100
AcDbEntity
  8
0
 62
    53
420
 14730839
100
AcDbVertex
100
AcDbPolyFaceMeshVertex
 10
-0.0300484001636505
 20
-196.4693145751953
 30
0.0245607290416956
 70
   192
  0
VERTEX
  5
27E
330
1F6
100
AcDbEntity
  8
0
 62
    53
420
 14730839
100
AcDbVertex
100
AcDbPolyFaceMeshVertex
 10
-0.0300484001636505
 20
-196.4693145751953
 30
0.0245607290416956
 70
   192
  0
VERTEX
  5
27F
330
1F6
100
AcDbEntity
  8
0
 62
    53
420
 14730839
100
AcDbVertex
100
AcDbPolyFaceMeshVertex
 10
-0.0300484001636505
 20
-196.4693145751953
 30
0.0245607290416956
 70
   192
  0
VERTEX
  5
280
330
1F6
100
AcDbEntity
  8
0
 62
    53
420
 14730839
100
AcDbVertex
100
AcDbPolyFaceMeshVertex
 10
-0.0300484001636505
 20
-196.4693145751953
 30
0.0245607290416956
 70
   192
  0
VERTEX
  5
281
330
1F6
100
AcDbEntity
  8
0
 62
    53
420
 14730839
100
AcDbVertex
100
AcDbPolyFaceMeshVertex
 10
-0.0300484001636505
 20
-196.4693145751953
 30
0.0245607290416956
 70
   192
  0
VERTEX
  5
282
330
1F6
100
AcDbEntity
  8
0
 62
    53
420
 14730839
100
AcDbVertex
100
AcDbPolyFaceMeshVertex
 10
-0.0300484001636505
 20
-196.4693145751953
 30
0.0245607290416956
 70
   192
  0
VERTEX
  5
283
330
1F6
100
AcDbEntity
  8
0
 62
    53
420
 14730839
100
AcDbVertex
100
AcDbPolyFaceMeshVertex
 10
-0.0300484001636505
 20
-196.4693145751953
 30
0.0245607290416956
 70
   192
  0
VERTEX
  5
284
330
1F6
100
AcDbEntity
  8
0
 62
    53
420
 14730839
100
AcDbVertex
100
AcDbPolyFaceMeshVertex
 10
-0.0300484001636505
 20
-196.4693145751953
 30
0.0245607290416956
 70
   192
  0
VERTEX
  5
285
330
1F6
100
AcDbEntity
  8
0
 62
    53
420
 14730839
100
AcDbVertex
100
AcDbPolyFaceMeshVertex
 10
-0.0300484001636505
 20
-196.4693145751953
 30
0.0245607290416956
 70
   192
  0
VERTEX
  5
286
330
1F6
100
AcDbEntity
  8
0
 62
    53
420
 14730839
100
AcDbVertex
100
AcDbPolyFaceMeshVertex
 10
-0.0300484001636505
 20
-196.4693145751953
 30
0.0245607290416956
 70
   192
  0
VERTEX
  5
287
330
1F6
100
AcDbEntity
  8
0
 62
    53
420
 14730839
100
AcDbVertex
100
AcDbPolyFaceMeshVertex
 10
-0.0300484001636505
 20
-196.4693145751953
 30
0.0245607290416956
 70
   192
  0
VERTEX
  5
288
330
1F6
100
AcDbEntity
  8
0
 62
    53
420
 14730839
100
AcDbVertex
100
AcDbPolyFaceMeshVertex
 10
-0.0300484001636505
 20
-196.4693145751953
 30
0.0245607290416956
 70
   192
  0
VERTEX
  5
289
330
1F6
100
AcDbEntity
  8
0
 62
    53
420
 14730839
100
AcDbFaceRecord
 10
0.0
 20
0.0
 30
0.0
 70
   128
 71
    -1
 72
     3
 73
    -2
 74
    -1
  0
VERTEX
  5
28A
330
1F6
100
AcDbEntity
  8
0
 62
    53
420
 14730839
100
AcDbFaceRecord
 10
0.0
 20
0.0
 30
0.0
 70
   128
 71
    -1
 72
     4
 73
    -3
 74
    -1
  0
VERTEX
  5
28B
330
1F6
100
AcDbEntity
  8
0
 62
    53
420
 14730839
100
AcDbFaceRecord
 10
0.0
 20
0.0
 30
0.0
 70
   128
 71
    -1
 72
     5
 73
    -4
 74
    -1
  0
VERTEX
  5
28C
330
1F6
100
AcDbEntity
  8
0
 62
    53
420
 14730839
100
AcDbFaceRecord
 10
0.0
 20
0.0
 30
0.0
 70
   128
 71
    -1
 72
     6
 73
    -5
 74
    -1
  0
VERTEX
  5
28D
330
1F6
100
AcDbEntity
  8
0
 62
    53
420
 14730839
100
AcDbFaceRecord
 10
0.0
 20
0.0
 30
0.0
 70
   128
 71
    -1
 72
     7
 73
    -6
 74
    -1
  0
VERTEX
  5
28E
330
1F6
100
AcDbEntity
  8
0
 62
    53
420
 14730839
100
AcDbFaceRecord
 10
0.0
 20
0.0
 30
0.0
 70
   128
 71
    -1
 72
     8
 73
    -7
 74
    -1
  0
VERTEX
  5
28F
330
1F6
100
AcDbEntity
  8
0
 62
    53
420
 14730839
100
AcDbFaceRecord
 10
0.0
 20
0.0
 30
0.0
 70
   128
 71
    -1
 72
     9
 73
    -8
 74
    -1
  0
VERTEX
  5
290
330
1F6
100
AcDbEntity
  8
0
 62
    53
420
 14730839
100
AcDbFaceRecord
 10
0.0
 20
0.0
 30
0.0
 70
   128
 71
    -1
 72
    10
 73
    -9
 74
    -1
  0
VERTEX
  5
291
330
1F6
100
AcDbEntity
  8
0
 62
    53
420
 14730839
100
AcDbFaceRecord
 10
0.0
 20
0.0
 30
0.0
 70
   128
 71
    -1
 72
    11
 73
   -10
 74
    -1
  0
VERTEX
  5
292
330
1F6
100
AcDbEntity
  8
0
 62
    53
420
 14730839
100
AcDbFaceRecord
 10
0.0
 20
0.0
 30
0.0
 70
   128
 71
    -1
 72
    12
 73
   -11
 74
    -1
  0
VERTEX
  5
293
330
1F6
100
AcDbEntity
  8
0
 62
    53
420
 14730839
100
AcDbFaceRecord
 10
0.0
 20
0.0
 30
0.0
 70
   128
 71
    -1
 72
    13
 73
   -12
 74
    -1
  0
VERTEX
  5
294
330
1F6
100
AcDbEntity
  8
0
 62
    53
420
 14730839
100
AcDbFaceRecord
 10
0.0
 20
0.0
 30
0.0
 70
   128
 71
    -1
 72
    14
 73
   -13
 74
    -1
  0
VERTEX
  5
295
330
1F6
100
AcDbEntity
  8
0
 62
    53
420
 14730839
100
AcDbFaceRecord
 10
0.0
 20
0.0
 30
0.0
 70
   128
 71
    -1
 72
    15
 73
   -14
 74
    -1
  0
VERTEX
  5
296
330
1F6
100
AcDbEntity
  8
0
 62
    53
420
 14730839
100
AcDbFaceRecord
 10
0.0
 20
0.0
 30
0.0
 70
   128
 71
    -1
 72
    16
 73
   -15
 74
    -1
  0
VERTEX
  5
297
330
1F6
100
AcDbEntity
  8
0
 62
    53
420
 14730839
100
AcDbFaceRecord
 10
0.0
 20
0.0
 30
0.0
 70
   128
 71
    -1
 72
    17
 73
   -16
 74
    -1
  0
VERTEX
  5
298
330
1F6
100
AcDbEntity
  8
0
 62
    53
420
 14730839
100
AcDbFaceRecord
 10
0.0
 20
0.0
 30
0.0
 70
   128
 71
    -1
 72
    18
 73
   -17
 74
    -1
  0
VERTEX
  5
299
330
1F6
100
AcDbEntity
  8
0
 62
    53
420
 14730839
100
AcDbFaceRecord
 10
0.0
 20
0.0
 30
0.0
 70
   128
 71
    -1
 72
    19
 73
   -18
 74
    -1
  0
VERTEX
  5
29A
330
1F6
100
AcDbEntity
  8
0
 62
    53
420
 14730839
100
AcDbFaceRecord
 10
0.0
 20
0.0
 30
0.0
 70
   128
 71
    -1
 72
    20
 73
   -19
 74
    -1
  0
VERTEX
  5
29B
330
1F6
100
AcDbEntity
  8
0
 62
    53
420
 14730839
100
AcDbFaceRecord
 10
0.0
 20
0.0
 30
0.0
 70
   128
 71
    -1
 72
    21
 73
   -20
 74
    -1
  0
VERTEX
  5
29C
330
1F6
100
AcDbEntity
  8
0
 62
    53
420
 14730839
100
AcDbFaceRecord
 10
0.0
 20
0.0
 30
0.0
 70
   128
 71
    -1
 72
    22
 73
   -21
 74
    -1
  0
VERTEX
  5
29D
330
1F6
100
AcDbEntity
  8
0
 62
    53
420
 14730839
100
AcDbFaceRecord
 10
0.0
 20
0.0
 30
0.0
 70
   128
 71
    -1
 72
    23
 73
   -22
 74
    -1
  0
VERTEX
  5
29E
330
1F6
100
AcDbEntity
  8
0
 62
    53
420
 14730839
100
AcDbFaceRecord
 10
0.0
 20
0.0
 30
0.0
 70
   128
 71
    -1
 72
    24
 73
   -23
 74
    -1
  0
VERTEX
  5
29F
330
1F6
100
AcDbEntity
  8
0
 62
    53
420
 14730839
100
AcDbFaceRecord
 10
0.0
 20
0.0
 30
0.0
 70
   128
 71
    -1
 72
    25
 73
   -24
 74
    -1
  0
VERTEX
  5
2A0
330
1F6
100
AcDbEntity
  8
0
 62
    53
420
 14730839
100
AcDbFaceRecord
 10
0.0
 20
0.0
 30
0.0
 70
   128
 71
    -1
 72
     2
 73
   -25
 74
    -1
  0
VERTEX
  5
2A1
330
1F6
100
AcDbEntity
  8
0
 62
    53
420
 14730839
100
AcDbFaceRecord
 10
0.0
 20
0.0
 30
0.0
 70
   128
 71
    -2
 72
    27
 73
    26
 74
    -2
  0
VERTEX
  5
2A2
330
1F6
100
AcDbEntity
  8
0
 62
    53
420
 14730839
100
AcDbFaceRecord
 10
0.0
 20
0.0
 30
0.0
 70
   128
 71
     2
 72
     3
 73
   -27
 74
    -2
  0
VERTEX
  5
2A3
330
1F6
100
AcDbEntity
  8
0
 62
    53
420
 14730839
100
AcDbFaceRecord
 10
0.0
 20
0.0
 30
0.0
 70
   128
 71
    -3
 72
    28
 73
    27
 74
    -3
  0
VERTEX
  5
2A4
330
1F6
100
AcDbEntity
  8
0
 62
    53
420
 14730839
100
AcDbFaceRecord
 10
0.0
 20
0.0
 30
0.0
 70
   128
 71
     3
 72
     4
 73
   -28
 74
    -3
  0
VERTEX
  5
2A5
330
1F6
100
AcDbEntity
  8
0
 62
    53
420
 14730839
100
AcDbFaceRecord
 10
0.0
 20
0.0
 30
0.0
 70
   128
 71
    -4
 72
    29
 73
    28
 74
    -4
  0
VERTEX
  5
2A6
330
1F6
100
AcDbEntity
  8
0
 62
    53
420
 14730839
100
AcDbFaceRecord
 10
0.0
 20
0.0
 30
0.0
 70
   128
 71
     4
 72
     5
 73
   -29
 74
    -4
  0
VERTEX
  5
2A7
330
1F6
100
AcDbEntity
  8
0
 62
    53
420
 14730839
100
AcDbFaceRecord
 10
0.0
 20
0.0
 30
0.0
 70
   128
 71
    -5
 72
    30
 73
    29
 74
    -5
  0
VERTEX
  5
2A8
330
1F6
100
AcDbEntity
  8
0
 62
    53
420
 14730839
100
AcDbFaceRecord
 10
0.0
 20
0.0
 30
0.0
 70
   128
 71
     5
 72
     6
 73
   -30
 74
    -5
  0
VERTEX
  5
2A9
330
1F6
100
AcDbEntity
  8
0
 62
    53
420
 14730839
100
AcDbFaceRecord
 10
0.0
 20
0.0
 30
0.0
 70
   128
 71
    -6
 72
    31
 73
    30
 74
    -6
  0
VERTEX
  5
2AA
330
1F6
100
AcDbEntity
  8
0
 62
    53
420
 14730839
100
AcDbFaceRecord
 10
0.0
 20
0.0
 30
0.0
 70
   128
 71
     6
 72
     7
 73
   -31
 74
    -6
  0
VERTEX
  5
2AB
330
1F6
100
AcDbEntity
  8
0
 62
    53
420
 14730839
100
AcDbFaceRecord
 10
0.0
 20
0.0
 30
0.0
 70
   128
 71
    -7
 72
    32
 73
    31
 74
    -7
  0
VERTEX
  5
2AC
330
1F6
100
AcDbEntity
  8
0
 62
    53
420
 14730839
100
AcDbFaceRecord
 10
0.0
 20
0.0
 30
0.0
 70
   128
 71
     7
 72
     8
 73
   -32
 74
    -7
  0
VERTEX
  5
2AD
330
1F6
100
AcDbEntity
  8
0
 62
    53
420
 14730839
100
AcDbFaceRecord
 10
0.0
 20
0.0
 30
0.0
 70
   128
 71
    -8
 72
    33
 73
    32
 74
    -8
  0
VERTEX
  5
2AE
330
1F6
100
AcDbEntity
  8
0
 62
    53
420
 14730839
100
AcDbFaceRecord
 10
0.0
 20
0.0
 30
0.0
 70
   128
 71
     8
 72
     9
 73
   -33
 74
    -8
  0
VERTEX
  5
2AF
330
1F6
100
AcDbEntity
  8
0
 62
    53
420
 14730839
100
AcDbFaceRecord
 10
0.0
 20
0.0
 30
0.0
 70
   128
 71
    -9
 72
    34
 73
    33
 74
    -9
  0
VERTEX
  5
2B0
330
1F6
100
AcDbEntity
  8
0
 62
    53
420
 14730839
100
AcDbFaceRecord
 10
0.0
 20
0.0
 30
0.0
 70
   128
 71
     9
 72
    10
 73
   -34
 74
    -9
  0
VERTEX
  5
2B1
330
1F6
100
AcDbEntity
  8
0
 62
    53
420
 14730839
100
AcDbFaceRecord
 10
0.0
 20
0.0
 30
0.0
 70
   128
 71
   -10
 72
    35
 73
    34
 74
   -10
  0
VERTEX
  5
2B2
330
1F6
100
AcDbEntity
  8
0
 62
    53
420
 14730839
100
AcDbFaceRecord
 10
0.0
 20
0.0
 30
0.0
 70
   128
 71
    10
 72
    11
 73
   -35
 74
   -10
  0
VERTEX
  5
2B3
330
1F6
100
AcDbEntity
  8
0
 62
    53
420
 14730839
100
AcDbFaceRecord
 10
0.0
 20
0.0
 30
0.0
 70
   128
 71
   -11
 72
    36
 73
    35
 74
   -11
  0
VERTEX
  5
2B4
330
1F6
100
AcDbEntity
  8
0
 62
    53
420
 14730839
100
AcDbFaceRecord
 10
0.0
 20
0.0
 30
0.0
 70
   128
 71
    11
 72
    12
 73
   -36
 74
   -11
  0
VERTEX
  5
2B5
330
1F6
100
AcDbEntity
  8
0
 62
    53
420
 14730839
100
AcDbFaceRecord
 10
0.0
 20
0.0
 30
0.0
 70
   128
 71
   -12
 72
    37
 73
    36
 74
   -12
  0
VERTEX
  5
2B6
330
1F6
100
AcDbEntity
  8
0
 62
    53
420
 14730839
100
AcDbFaceRecord
 10
0.0
 20
0.0
 30
0.0
 70
   128
 71
    12
 72
    13
 73
   -37
 74
   -12
  0
VERTEX
  5
2B7
330
1F6
100
AcDbEntity
  8
0
 62
    53
420
 14730839
100
AcDbFaceRecord
 10
0.0
 20
0.0
 30
0.0
 70
   128
 71
   -13
 72
    38
 73
    37
 74
   -13
  0
VERTEX
  5
2B8
330
1F6
100
AcDbEntity
  8
0
 62
    53
420
 14730839
100
AcDbFaceRecord
 10
0.0
 20
0.0
 30
0.0
 70
   128
 71
    13
 72
    14
 73
   -38
 74
   -13
  0
VERTEX
  5
2B9
330
1F6
100
AcDbEntity
  8
0
 62
    53
420
 14730839
100
AcDbFaceRecord
 10
0.0
 20
0.0
 30
0.0
 70
   128
 71
   -14
 72
    39
 73
    38
 74
   -14
  0
VERTEX
  5
2BA
330
1F6
100
AcDbEntity
  8
0
 62
    53
420
 14730839
100
AcDbFaceRecord
 10
0.0
 20
0.0
 30
0.0
 70
   128
 71
    14
 72
    15
 73
   -39
 74
   -14
  0
VERTEX
  5
2BB
330
1F6
100
AcDbEntity
  8
0
 62
    53
420
 14730839
100
AcDbFaceRecord
 10
0.0
 20
0.0
 30
0.0
 70
   128
 71
   -15
 72
    40
 73
    39
 74
   -15
  0
VERTEX
  5
2BC
330
1F6
100
AcDbEntity
  8
0
 62
    53
420
 14730839
100
AcDbFaceRecord
 10
0.0
 20
0.0
 30
0.0
 70
   128
 71
    15
 72
    16
 73
   -40
 74
   -15
  0
VERTEX
  5
2BD
330
1F6
100
AcDbEntity
  8
0
 62
    53
420
 14730839
100
AcDbFaceRecord
 10
0.0
 20
0.0
 30
0.0
 70
   128
 71
   -16
 72
    41
 73
    40
 74
   -16
  0
VERTEX
  5
2BE
330
1F6
100
AcDbEntity
  8
0
 62
    53
420
 14730839
100
AcDbFaceRecord
 10
0.0
 20
0.0
 30
0.0
 70
   128
 71
    16
 72
    17
 73
   -41
 74
   -16
  0
VERTEX
  5
2BF
330
1F6
100
AcDbEntity
  8
0
 62
    53
420
 14730839
100
AcDbFaceRecord
 10
0.0
 20
0.0
 30
0.0
 70
   128
 71
   -17
 72
    42
 73
    41
 74
   -17
  0
VERTEX
  5
2C0
330
1F6
100
AcDbEntity
  8
0
 62
    53
420
 14730839
100
AcDbFaceRecord
 10
0.0
 20
0.0
 30
0.0
 70
   128
 71
    17
 72
    18
 73
   -42
 74
   -17
  0
VERTEX
  5
2C1
330
1F6
100
AcDbEntity
  8
0
 62
    53
420
 14730839
100
AcDbFaceRecord
 10
0.0
 20
0.0
 30
0.0
 70
   128
 71
   -18
 72
    43
 73
    42
 74
   -18
  0
VERTEX
  5
2C2
330
1F6
100
AcDbEntity
  8
0
 62
    53
420
 14730839
100
AcDbFaceRecord
 10
0.0
 20
0.0
 30
0.0
 70
   128
 71
    18
 72
    19
 73
   -43
 74
   -18
  0
VERTEX
  5
2C3
330
1F6
100
AcDbEntity
  8
0
 62
    53
420
 14730839
100
AcDbFaceRecord
 10
0.0
 20
0.0
 30
0.0
 70
   128
 71
   -19
 72
    44
 73
    43
 74
   -19
  0
VERTEX
  5
2C4
330
1F6
100
AcDbEntity
  8
0
 62
    53
420
 14730839
100
AcDbFaceRecord
 10
0.0
 20
0.0
 30
0.0
 70
   128
 71
    19
 72
    20
 73
   -44
 74
   -19
  0
VERTEX
  5
2C5
330
1F6
100
AcDbEntity
  8
0
 62
    53
420
 14730839
100
AcDbFaceRecord
 10
0.0
 20
0.0
 30
0.0
 70
   128
 71
   -20
 72
    45
 73
    44
 74
   -20
  0
VERTEX
  5
2C6
330
1F6
100
AcDbEntity
  8
0
 62
    53
420
 14730839
100
AcDbFaceRecord
 10
0.0
 20
0.0
 30
0.0
 70
   128
 71
    20
 72
    21
 73
   -45
 74
   -20
  0
VERTEX
  5
2C7
330
1F6
100
AcDbEntity
  8
0
 62
    53
420
 14730839
100
AcDbFaceRecord
 10
0.0
 20
0.0
 30
0.0
 70
   128
 71
   -21
 72
    46
 73
    45
 74
   -21
  0
VERTEX
  5
2C8
330
1F6
100
AcDbEntity
  8
0
 62
    53
420
 14730839
100
AcDbFaceRecord
 10
0.0
 20
0.0
 30
0.0
 70
   128
 71
    21
 72
    22
 73
   -46
 74
   -21
  0
VERTEX
  5
2C9
330
1F6
100
AcDbEntity
  8
0
 62
    53
420
 14730839
100
AcDbFaceRecord
 10
0.0
 20
0.0
 30
0.0
 70
   128
 71
   -22
 72
    47
 73
    46
 74
   -22
  0
VERTEX
  5
2CA
330
1F6
100
AcDbEntity
  8
0
 62
    53
420
 14730839
100
AcDbFaceRecord
 10
0.0
 20
0.0
 30
0.0
 70
   128
 71
    22
 72
    23
 73
   -47
 74
   -22
  0
VERTEX
  5
2CB
330
1F6
100
AcDbEntity
  8
0
 62
    53
420
 14730839
100
AcDbFaceRecord
 10
0.0
 20
0.0
 30
0.0
 70
   128
 71
   -23
 72
    48
 73
    47
 74
   -23
  0
VERTEX
  5
2CC
330
1F6
100
AcDbEntity
  8
0
 62
    53
420
 14730839
100
AcDbFaceRecord
 10
0.0
 20
0.0
 30
0.0
 70
   128
 71
    23
 72
    24
 73
   -48
 74
   -23
  0
VERTEX
  5
2CD
330
1F6
100
AcDbEntity
  8
0
 62
    53
420
 14730839
100
AcDbFaceRecord
 10
0.0
 20
0.0
 30
0.0
 70
   128
 71
   -24
 72
    49
 73
    48
 74
   -24
  0
VERTEX
  5
2CE
330
1F6
100
AcDbEntity
  8
0
 62
    53
420
 14730839
100
AcDbFaceRecord
 10
0.0
 20
0.0
 30
0.0
 70
   128
 71
    24
 72
    25
 73
   -49
 74
   -24
  0
VERTEX
  5
2CF
330
1F6
100
AcDbEntity
  8
0
 62
    53
420
 14730839
100
AcDbFaceRecord
 10
0.0
 20
0.0
 30
0.0
 70
   128
 71
   -25
 72
    26
 73
    49
 74
   -25
  0
VERTEX
  5
2D0
330
1F6
100
AcDbEntity
  8
0
 62
    53
420
 14730839
100
AcDbFaceRecord
 10
0.0
 20
0.0
 30
0.0
 70
   128
 71
    25
 72
     2
 73
   -26
 74
   -25
  0
VERTEX
  5
2D1
330
1F6
100
AcDbEntity
  8
0
 62
    53
420
 14730839
100
AcDbFaceRecord
 10
0.0
 20
0.0
 30
0.0
 70
   128
 71
   -26
 72
    51
 73
    50
 74
   -26
  0
VERTEX
  5
2D2
330
1F6
100
AcDbEntity
  8
0
 62
    53
420
 14730839
100
AcDbFaceRecord
 10
0.0
 20
0.0
 30
0.0
 70
   128
 71
    26
 72
    27
 73
   -51
 74
   -26
  0
VERTEX
  5
2D3
330
1F6
100
AcDbEntity
  8
0
 62
    53
420
 14730839
100
AcDbFaceRecord
 10
0.0
 20
0.0
 30
0.0
 70
   128
 71
   -27
 72
    52
 73
    51
 74
   -27
  0
VERTEX
  5
2D4
330
1F6
100
AcDbEntity
  8
0
 62
    53
420
 14730839
100
AcDbFaceRecord
 10
0.0
 20
0.0
 30
0.0
 70
   128
 71
    27
 72
    28
 73
   -52
 74
   -27
  0
VERTEX
  5
2D5
330
1F6
100
AcDbEntity
  8
0
 62
    53
420
 14730839
100
AcDbFaceRecord
 10
0.0
 20
0.0
 30
0.0
 70
   128
 71
   -28
 72
    53
 73
    52
 74
   -28
  0
VERTEX
  5
2D6
330
1F6
100
AcDbEntity
  8
0
 62
    53
420
 14730839
100
AcDbFaceRecord
 10
0.0
 20
0.0
 30
0.0
 70
   128
 71
    28
 72
    29
 73
   -53
 74
   -28
  0
VERTEX
  5
2D7
330
1F6
100
AcDbEntity
  8
0
 62
    53
420
 14730839
100
AcDbFaceRecord
 10
0.0
 20
0.0
 30
0.0
 70
   128
 71
   -29
 72
    54
 73
    53
 74
   -29
  0
VERTEX
  5
2D8
330
1F6
100
AcDbEntity
  8
0
 62
    53
420
 14730839
100
AcDbFaceRecord
 10
0.0
 20
0.0
 30
0.0
 70
   128
 71
    29
 72
    30
 73
   -54
 74
   -29
  0
VERTEX
  5
2D9
330
1F6
100
AcDbEntity
  8
0
 62
    53
420
 14730839
100
AcDbFaceRecord
 10
0.0
 20
0.0
 30
0.0
 70
   128
 71
   -30
 72
    55
 73
    54
 74
   -30
  0
VERTEX
  5
2DA
330
1F6
100
AcDbEntity
  8
0
 62
    53
420
 14730839
100
AcDbFaceRecord
 10
0.0
 20
0.0
 30
0.0
 70
   128
 71
    30
 72
    31
 73
   -55
 74
   -30
  0
VERTEX
  5
2DB
330
1F6
100
AcDbEntity
  8
0
 62
    53
420
 14730839
100
AcDbFaceRecord
 10
0.0
 20
0.0
 30
0.0
 70
   128
 71
   -31
 72
    56
 73
    55
 74
   -31
  0
VERTEX
  5
2DC
330
1F6
100
AcDbEntity
  8
0
 62
    53
420
 14730839
100
AcDbFaceRecord
 10
0.0
 20
0.0
 30
0.0
 70
   128
 71
    31
 72
    32
 73
   -56
 74
   -31
  0
VERTEX
  5
2DD
330
1F6
100
AcDbEntity
  8
0
 62
    53
420
 14730839
100
AcDbFaceRecord
 10
0.0
 20
0.0
 30
0.0
 70
   128
 71
   -32
 72
    57
 73
    56
 74
   -32
  0
VERTEX
  5
2DE
330
1F6
100
AcDbEntity
  8
0
 62
    53
420
 14730839
100
AcDbFaceRecord
 10
0.0
 20
0.0
 30
0.0
 70
   128
 71
    32
 72
    33
 73
   -57
 74
   -32
  0
VERTEX
  5
2DF
330
1F6
100
AcDbEntity
  8
0
 62
    53
420
 14730839
100
AcDbFaceRecord
 10
0.0
 20
0.0
 30
0.0
 70
   128
 71
   -33
 72
    58
 73
    57
 74
   -33
  0
VERTEX
  5
2E0
330
1F6
100
AcDbEntity
  8
0
 62
    53
420
 14730839
100
AcDbFaceRecord
 10
0.0
 20
0.0
 30
0.0
 70
   128
 71
    33
 72
    34
 73
   -58
 74
   -33
  0
VERTEX
  5
2E1
330
1F6
100
AcDbEntity
  8
0
 62
    53
420
 14730839
100
AcDbFaceRecord
 10
0.0
 20
0.0
 30
0.0
 70
   128
 71
   -34
 72
    59
 73
    58
 74
   -34
  0
VERTEX
  5
2E2
330
1F6
100
AcDbEntity
  8
0
 62
    53
420
 14730839
100
AcDbFaceRecord
 10
0.0
 20
0.0
 30
0.0
 70
   128
 71
    34
 72
    35
 73
   -59
 74
   -34
  0
VERTEX
  5
2E3
330
1F6
100
AcDbEntity
  8
0
 62
    53
420
 14730839
100
AcDbFaceRecord
 10
0.0
 20
0.0
 30
0.0
 70
   128
 71
   -35
 72
    60
 73
    59
 74
   -35
  0
VERTEX
  5
2E4
330
1F6
100
AcDbEntity
  8
0
 62
    53
420
 14730839
100
AcDbFaceRecord
 10
0.0
 20
0.0
 30
0.0
 70
   128
 71
    35
 72
    36
 73
   -60
 74
   -35
  0
VERTEX
  5
2E5
330
1F6
100
AcDbEntity
  8
0
 62
    53
420
 14730839
100
AcDbFaceRecord
 10
0.0
 20
0.0
 30
0.0
 70
   128
 71
   -36
 72
    61
 73
    60
 74
   -36
  0
VERTEX
  5
2E6
330
1F6
100
AcDbEntity
  8
0
 62
    53
420
 14730839
100
AcDbFaceRecord
 10
0.0
 20
0.0
 30
0.0
 70
   128
 71
    36
 72
    37
 73
   -61
 74
   -36
  0
VERTEX
  5
2E7
330
1F6
100
AcDbEntity
  8
0
 62
    53
420
 14730839
100
AcDbFaceRecord
 10
0.0
 20
0.0
 30
0.0
 70
   128
 71
   -37
 72
    62
 73
    61
 74
   -37
  0
VERTEX
  5
2E8
330
1F6
100
AcDbEntity
  8
0
 62
    53
420
 14730839
100
AcDbFaceRecord
 10
0.0
 20
0.0
 30
0.0
 70
   128
 71
    37
 72
    38
 73
   -62
 74
   -37
  0
VERTEX
  5
2E9
330
1F6
100
AcDbEntity
  8
0
 62
    53
420
 14730839
100
AcDbFaceRecord
 10
0.0
 20
0.0
 30
0.0
 70
   128
 71
   -38
 72
    63
 73
    62
 74
   -38
  0
VERTEX
  5
2EA
330
1F6
100
AcDbEntity
  8
0
 62
    53
420
 14730839
100
AcDbFaceRecord
 10
0.0
 20
0.0
 30
0.0
 70
   128
 71
    38
 72
    39
 73
   -63
 74
   -38
  0
VERTEX
  5
2EB
330
1F6
100
AcDbEntity
  8
0
 62
    53
420
 14730839
100
AcDbFaceRecord
 10
0.0
 20
0.0
 30
0.0
 70
   128
 71
   -39
 72
    64
 73
    63
 74
   -39
  0
VERTEX
  5
2EC
330
1F6
100
AcDbEntity
  8
0
 62
    53
420
 14730839
100
AcDbFaceRecord
 10
0.0
 20
0.0
 30
0.0
 70
   128
 71
    39
 72
    40
 73
   -64
 74
   -39
  0
VERTEX
  5
2ED
330
1F6
100
AcDbEntity
  8
0
 62
    53
420
 14730839
100
AcDbFaceRecord
 10
0.0
 20
0.0
 30
0.0
 70
   128
 71
   -40
 72
    65
 73
    64
 74
   -40
  0
VERTEX
  5
2EE
330
1F6
100
AcDbEntity
  8
0
 62
    53
420
 14730839
100
AcDbFaceRecord
 10
0.0
 20
0.0
 30
0.0
 70
   128
 71
    40
 72
    41
 73
   -65
 74
   -40
  0
VERTEX
  5
2EF
330
1F6
100
AcDbEntity
  8
0
 62
    53
420
 14730839
100
AcDbFaceRecord
 10
0.0
 20
0.0
 30
0.0
 70
   128
 71
   -41
 72
    66
 73
    65
 74
   -41
  0
VERTEX
  5
2F0
330
1F6
100
AcDbEntity
  8
0
 62
    53
420
 14730839
100
AcDbFaceRecord
 10
0.0
 20
0.0
 30
0.0
 70
   128
 71
    41
 72
    42
 73
   -66
 74
   -41
  0
VERTEX
  5
2F1
330
1F6
100
AcDbEntity
  8
0
 62
    53
420
 14730839
100
AcDbFaceRecord
 10
0.0
 20
0.0
 30
0.0
 70
   128
 71
   -42
 72
    67
 73
    66
 74
   -42
  0
VERTEX
  5
2F2
330
1F6
100
AcDbEntity
  8
0
 62
    53
420
 14730839
100
AcDbFaceRecord
 10
0.0
 20
0.0
 30
0.0
 70
   128
 71
    42
 72
    43
 73
   -67
 74
   -42
  0
VERTEX
  5
2F3
330
1F6
100
AcDbEntity
  8
0
 62
    53
420
 14730839
100
AcDbFaceRecord
 10
0.0
 20
0.0
 30
0.0
 70
   128
 71
   -43
 72
    68
 73
    67
 74
   -43
  0
VERTEX
  5
2F4
330
1F6
100
AcDbEntity
  8
0
 62
    53
420
 14730839
100
AcDbFaceRecord
 10
0.0
 20
0.0
 30
0.0
 70
   128
 71
    43
 72
    44
 73
   -68
 74
   -43
  0
VERTEX
  5
2F5
330
1F6
100
AcDbEntity
  8
0
 62
    53
420
 14730839
100
AcDbFaceRecord
 10
0.0
 20
0.0
 30
0.0
 70
   128
 71
   -44
 72
    69
 73
    68
 74
   -44
  0
VERTEX
  5
2F6
330
1F6
100
AcDbEntity
  8
0
 62
    53
420
 14730839
100
AcDbFaceRecord
 10
0.0
 20
0.0
 30
0.0
 70
   128
 71
    44
 72
    45
 73
   -69
 74
   -44
  0
VERTEX
  5
2F7
330
1F6
100
AcDbEntity
  8
0
 62
    53
420
 14730839
100
AcDbFaceRecord
 10
0.0
 20
0.0
 30
0.0
 70
   128
 71
   -45
 72
    70
 73
    69
 74
   -45
  0
VERTEX
  5
2F8
330
1F6
100
AcDbEntity
  8
0
 62
    53
420
 14730839
100
AcDbFaceRecord
 10
0.0
 20
0.0
 30
0.0
 70
   128
 71
    45
 72
    46
 73
   -70
 74
   -45
  0
VERTEX
  5
2F9
330
1F6
100
AcDbEntity
  8
0
 62
    53
420
 14730839
100
AcDbFaceRecord
 10
0.0
 20
0.0
 30
0.0
 70
   128
 71
   -46
 72
    71
 73
    70
 74
   -46
  0
VERTEX
  5
2FA
330
1F6
100
AcDbEntity
  8
0
 62
    53
420
 14730839
100
AcDbFaceRecord
 10
0.0
 20
0.0
 30
0.0
 70
   128
 71
    46
 72
    47
 73
   -71
 74
   -46
  0
VERTEX
  5
2FB
330
1F6
100
AcDbEntity
  8
0
 62
    53
420
 14730839
100
AcDbFaceRecord
 10
0.0
 20
0.0
 30
0.0
 70
   128
 71
   -47
 72
    72
 73
    71
 74
   -47
  0
VERTEX
  5
2FC
330
1F6
100
AcDbEntity
  8
0
 62
    53
420
 14730839
100
AcDbFaceRecord
 10
0.0
 20
0.0
 30
0.0
 70
   128
 71
    47
 72
    48
 73
   -72
 74
   -47
  0
VERTEX
  5
2FD
330
1F6
100
AcDbEntity
  8
0
 62
    53
420
 14730839
100
AcDbFaceRecord
 10
0.0
 20
0.0
 30
0.0
 70
   128
 71
   -48
 72
    73
 73
    72
 74
   -48
  0
VERTEX
  5
2FE
330
1F6
100
AcDbEntity
  8
0
 62
    53
420
 14730839
100
AcDbFaceRecord
 10
0.0
 20
0.0
 30
0.0
 70
   128
 71
    48
 72
    49
 73
   -73
 74
   -48
  0
VERTEX
  5
2FF
330
1F6
100
AcDbEntity
  8
0
 62
    53
420
 14730839
100
AcDbFaceRecord
 10
0.0
 20
0.0
 30
0.0
 70
   128
 71
   -49
 72
    50
 73
    73
 74
   -49
  0
VERTEX
  5
300
330
1F6
100
AcDbEntity
  8
0
 62
    53
420
 14730839
100
AcDbFaceRecord
 10
0.0
 20
0.0
 30
0.0
 70
   128
 71
    49
 72
    26
 73
   -50
 74
   -49
  0
VERTEX
  5
301
330
1F6
100
AcDbEntity
  8
0
 62
    53
420
 14730839
100
AcDbFaceRecord
 10
0.0
 20
0.0
 30
0.0
 70
   128
 71
   -50
 72
    75
 73
    74
 74
   -50
  0
VERTEX
  5
302
330
1F6
100
AcDbEntity
  8
0
 62
    53
420
 14730839
100
AcDbFaceRecord
 10
0.0
 20
0.0
 30
0.0
 70
   128
 71
    50
 72
    51
 73
   -75
 74
   -50
  0
VERTEX
  5
303
330
1F6
100
AcDbEntity
  8
0
 62
    53
420
 14730839
100
AcDbFaceRecord
 10
0.0
 20
0.0
 30
0.0
 70
   128
 71
   -51
 72
    76
 73
    75
 74
   -51
  0
VERTEX
  5
304
330
1F6
100
AcDbEntity
  8
0
 62
    53
420
 14730839
100
AcDbFaceRecord
 10
0.0
 20
0.0
 30
0.0
 70
   128
 71
    51
 72
    52
 73
   -76
 74
   -51
  0
VERTEX
  5
305
330
1F6
100
AcDbEntity
  8
0
 62
    53
420
 14730839
100
AcDbFaceRecord
 10
0.0
 20
0.0
 30
0.0
 70
   128
 71
   -52
 72
    77
 73
    76
 74
   -52
  0
VERTEX
  5
306
330
1F6
100
AcDbEntity
  8
0
 62
    53
420
 14730839
100
AcDbFaceRecord
 10
0.0
 20
0.0
 30
0.0
 70
   128
 71
    52
 72
    53
 73
   -77
 74
   -52
  0
VERTEX
  5
307
330
1F6
100
AcDbEntity
  8
0
 62
    53
420
 14730839
100
AcDbFaceRecord
 10
0.0
 20
0.0
 30
0.0
 70
   128
 71
   -53
 72
    78
 73
    77
 74
   -53
  0
VERTEX
  5
308
330
1F6
100
AcDbEntity
  8
0
 62
    53
420
 14730839
100
AcDbFaceRecord
 10
0.0
 20
0.0
 30
0.0
 70
   128
 71
    53
 72
    54
 73
   -78
 74
   -53
  0
VERTEX
  5
309
330
1F6
100
AcDbEntity
  8
0
 62
    53
420
 14730839
100
AcDbFaceRecord
 10
0.0
 20
0.0
 30
0.0
 70
   128
 71
   -54
 72
    79
 73
    78
 74
   -54
  0
VERTEX
  5
30A
330
1F6
100
AcDbEntity
  8
0
 62
    53
420
 14730839
100
AcDbFaceRecord
 10
0.0
 20
0.0
 30
0.0
 70
   128
 71
    54
 72
    55
 73
   -79
 74
   -54
  0
VERTEX
  5
30B
330
1F6
100
AcDbEntity
  8
0
 62
    53
420
 14730839
100
AcDbFaceRecord
 10
0.0
 20
0.0
 30
0.0
 70
   128
 71
   -55
 72
    80
 73
    79
 74
   -55
  0
VERTEX
  5
30C
330
1F6
100
AcDbEntity
  8
0
 62
    53
420
 14730839
100
AcDbFaceRecord
 10
0.0
 20
0.0
 30
0.0
 70
   128
 71
    55
 72
    56
 73
   -80
 74
   -55
  0
VERTEX
  5
30D
330
1F6
100
AcDbEntity
  8
0
 62
    53
420
 14730839
100
AcDbFaceRecord
 10
0.0
 20
0.0
 30
0.0
 70
   128
 71
   -56
 72
    81
 73
    80
 74
   -56
  0
VERTEX
  5
30E
330
1F6
100
AcDbEntity
  8
0
 62
    53
420
 14730839
100
AcDbFaceRecord
 10
0.0
 20
0.0
 30
0.0
 70
   128
 71
    56
 72
    57
 73
   -81
 74
   -56
  0
VERTEX
  5
30F
330
1F6
100
AcDbEntity
  8
0
 62
    53
420
 14730839
100
AcDbFaceRecord
 10
0.0
 20
0.0
 30
0.0
 70
   128
 71
   -57
 72
    82
 73
    81
 74
   -57
  0
VERTEX
  5
310
330
1F6
100
AcDbEntity
  8
0
 62
    53
420
 14730839
100
AcDbFaceRecord
 10
0.0
 20
0.0
 30
0.0
 70
   128
 71
    57
 72
    58
 73
   -82
 74
   -57
  0
VERTEX
  5
311
330
1F6
100
AcDbEntity
  8
0
 62
    53
420
 14730839
100
AcDbFaceRecord
 10
0.0
 20
0.0
 30
0.0
 70
   128
 71
   -58
 72
    83
 73
    82
 74
   -58
  0
VERTEX
  5
312
330
1F6
100
AcDbEntity
  8
0
 62
    53
420
 14730839
100
AcDbFaceRecord
 10
0.0
 20
0.0
 30
0.0
 70
   128
 71
    58
 72
    59
 73
   -83
 74
   -58
  0
VERTEX
  5
313
330
1F6
100
AcDbEntity
  8
0
 62
    53
420
 14730839
100
AcDbFaceRecord
 10
0.0
 20
0.0
 30
0.0
 70
   128
 71
   -59
 72
    84
 73
    83
 74
   -59
  0
VERTEX
  5
314
330
1F6
100
AcDbEntity
  8
0
 62
    53
420
 14730839
100
AcDbFaceRecord
 10
0.0
 20
0.0
 30
0.0
 70
   128
 71
    59
 72
    60
 73
   -84
 74
   -59
  0
VERTEX
  5
315
330
1F6
100
AcDbEntity
  8
0
 62
    53
420
 14730839
100
AcDbFaceRecord
 10
0.0
 20
0.0
 30
0.0
 70
   128
 71
   -60
 72
    85
 73
    84
 74
   -60
  0
VERTEX
  5
316
330
1F6
100
AcDbEntity
  8
0
 62
    53
420
 14730839
100
AcDbFaceRecord
 10
0.0
 20
0.0
 30
0.0
 70
   128
 71
    60
 72
    61
 73
   -85
 74
   -60
  0
VERTEX
  5
317
330
1F6
100
AcDbEntity
  8
0
 62
    53
420
 14730839
100
AcDbFaceRecord
 10
0.0
 20
0.0
 30
0.0
 70
   128
 71
   -61
 72
    86
 73
    85
 74
   -61
  0
VERTEX
  5
318
330
1F6
100
AcDbEntity
  8
0
 62
    53
420
 14730839
100
AcDbFaceRecord
 10
0.0
 20
0.0
 30
0.0
 70
   128
 71
    61
 72
    62
 73
   -86
 74
   -61
  0
VERTEX
  5
319
330
1F6
100
AcDbEntity
  8
0
 62
    53
420
 14730839
100
AcDbFaceRecord
 10
0.0
 20
0.0
 30
0.0
 70
   128
 71
   -62
 72
    87
 73
    86
 74
   -62
  0
VERTEX
  5
31A
330
1F6
100
AcDbEntity
  8
0
 62
    53
420
 14730839
100
AcDbFaceRecord
 10
0.0
 20
0.0
 30
0.0
 70
   128
 71
    62
 72
    63
 73
   -87
 74
   -62
  0
VERTEX
  5
31B
330
1F6
100
AcDbEntity
  8
0
 62
    53
420
 14730839
100
AcDbFaceRecord
 10
0.0
 20
0.0
 30
0.0
 70
   128
 71
   -63
 72
    88
 73
    87
 74
   -63
  0
VERTEX
  5
31C
330
1F6
100
AcDbEntity
  8
0
 62
    53
420
 14730839
100
AcDbFaceRecord
 10
0.0
 20
0.0
 30
0.0
 70
   128
 71
    63
 72
    64
 73
   -88
 74
   -63
  0
VERTEX
  5
31D
330
1F6
100
AcDbEntity
  8
0
 62
    53
420
 14730839
100
AcDbFaceRecord
 10
0.0
 20
0.0
 30
0.0
 70
   128
 71
   -64
 72
    89
 73
    88
 74
   -64
  0
VERTEX
  5
31E
330
1F6
100
AcDbEntity
  8
0
 62
    53
420
 14730839
100
AcDbFaceRecord
 10
0.0
 20
0.0
 30
0.0
 70
   128
 71
    64
 72
    65
 73
   -89
 74
   -64
  0
VERTEX
  5
31F
330
1F6
100
AcDbEntity
  8
0
 62
    53
420
 14730839
100
AcDbFaceRecord
 10
0.0
 20
0.0
 30
0.0
 70
   128
 71
   -65
 72
    90
 73
    89
 74
   -65
  0
VERTEX
  5
320
330
1F6
100
AcDbEntity
  8
0
 62
    53
420
 14730839
100
AcDbFaceRecord
 10
0.0
 20
0.0
 30
0.0
 70
   128
 71
    65
 72
    66
 73
   -90
 74
   -65
  0
VERTEX
  5
321
330
1F6
100
AcDbEntity
  8
0
 62
    53
420
 14730839
100
AcDbFaceRecord
 10
0.0
 20
0.0
 30
0.0
 70
   128
 71
   -66
 72
    91
 73
    90
 74
   -66
  0
VERTEX
  5
322
330
1F6
100
AcDbEntity
  8
0
 62
    53
420
 14730839
100
AcDbFaceRecord
 10
0.0
 20
0.0
 30
0.0
 70
   128
 71
    66
 72
    67
 73
   -91
 74
   -66
  0
VERTEX
  5
323
330
1F6
100
AcDbEntity
  8
0
 62
    53
420
 14730839
100
AcDbFaceRecord
 10
0.0
 20
0.0
 30
0.0
 70
   128
 71
   -67
 72
    92
 73
    91
 74
   -67
  0
VERTEX
  5
324
330
1F6
100
AcDbEntity
  8
0
 62
    53
420
 14730839
100
AcDbFaceRecord
 10
0.0
 20
0.0
 30
0.0
 70
   128
 71
    67
 72
    68
 73
   -92
 74
   -67
  0
VERTEX
  5
325
330
1F6
100
AcDbEntity
  8
0
 62
    53
420
 14730839
100
AcDbFaceRecord
 10
0.0
 20
0.0
 30
0.0
 70
   128
 71
   -68
 72
    93
 73
    92
 74
   -68
  0
VERTEX
  5
326
330
1F6
100
AcDbEntity
  8
0
 62
    53
420
 14730839
100
AcDbFaceRecord
 10
0.0
 20
0.0
 30
0.0
 70
   128
 71
    68
 72
    69
 73
   -93
 74
   -68
  0
VERTEX
  5
327
330
1F6
100
AcDbEntity
  8
0
 62
    53
420
 14730839
100
AcDbFaceRecord
 10
0.0
 20
0.0
 30
0.0
 70
   128
 71
   -69
 72
    94
 73
    93
 74
   -69
  0
VERTEX
  5
328
330
1F6
100
AcDbEntity
  8
0
 62
    53
420
 14730839
100
AcDbFaceRecord
 10
0.0
 20
0.0
 30
0.0
 70
   128
 71
    69
 72
    70
 73
   -94
 74
   -69
  0
VERTEX
  5
329
330
1F6
100
AcDbEntity
  8
0
 62
    53
420
 14730839
100
AcDbFaceRecord
 10
0.0
 20
0.0
 30
0.0
 70
   128
 71
   -70
 72
    95
 73
    94
 74
   -70
  0
VERTEX
  5
32A
330
1F6
100
AcDbEntity
  8
0
 62
    53
420
 14730839
100
AcDbFaceRecord
 10
0.0
 20
0.0
 30
0.0
 70
   128
 71
    70
 72
    71
 73
   -95
 74
   -70
  0
VERTEX
  5
32B
330
1F6
100
AcDbEntity
  8
0
 62
    53
420
 14730839
100
AcDbFaceRecord
 10
0.0
 20
0.0
 30
0.0
 70
   128
 71
   -71
 72
    96
 73
    95
 74
   -71
  0
VERTEX
  5
32C
330
1F6
100
AcDbEntity
  8
0
 62
    53
420
 14730839
100
AcDbFaceRecord
 10
0.0
 20
0.0
 30
0.0
 70
   128
 71
    71
 72
    72
 73
   -96
 74
   -71
  0
VERTEX
  5
32D
330
1F6
100
AcDbEntity
  8
0
 62
    53
420
 14730839
100
AcDbFaceRecord
 10
0.0
 20
0.0
 30
0.0
 70
   128
 71
   -72
 72
    97
 73
    96
 74
   -72
  0
VERTEX
  5
32E
330
1F6
100
AcDbEntity
  8
0
 62
    53
420
 14730839
100
AcDbFaceRecord
 10
0.0
 20
0.0
 30
0.0
 70
   128
 71
    72
 72
    73
 73
   -97
 74
   -72
  0
VERTEX
  5
32F
330
1F6
100
AcDbEntity
  8
0
 62
    53
420
 14730839
100
AcDbFaceRecord
 10
0.0
 20
0.0
 30
0.0
 70
   128
 71
   -73
 72
    74
 73
    97
 74
   -73
  0
VERTEX
  5
330
330
1F6
100
AcDbEntity
  8
0
 62
    53
420
 14730839
100
AcDbFaceRecord
 10
0.0
 20
0.0
 30
0.0
 70
   128
 71
    73
 72
    50
 73
   -74
 74
   -73
  0
VERTEX
  5
331
330
1F6
100
AcDbEntity
  8
0
 62
    53
420
 14730839
100
AcDbFaceRecord
 10
0.0
 20
0.0
 30
0.0
 70
   128
 71
   -74
 72
    99
 73
    98
 74
   -74
  0
VERTEX
  5
332
330
1F6
100
AcDbEntity
  8
0
 62
    53
420
 14730839
100
AcDbFaceRecord
 10
0.0
 20
0.0
 30
0.0
 70
   128
 71
    74
 72
    75
 73
   -99
 74
   -74
  0
VERTEX
  5
333
330
1F6
100
AcDbEntity
  8
0
 62
    53
420
 14730839
100
AcDbFaceRecord
 10
0.0
 20
0.0
 30
0.0
 70
   128
 71
   -75
 72
   100
 73
    99
 74
   -75
  0
VERTEX
  5
334
330
1F6
100
AcDbEntity
  8
0
 62
    53
420
 14730839
100
AcDbFaceRecord
 10
0.0
 20
0.0
 30
0.0
 70
   128
 71
    75
 72
    76
 73
  -100
 74
   -75
  0
VERTEX
  5
335
330
1F6
100
AcDbEntity
  8
0
 62
    53
420
 14730839
100
AcDbFaceRecord
 10
0.0
 20
0.0
 30
0.0
 70
   128
 71
   -76
 72
   101
 73
   100
 74
   -76
  0
VERTEX
  5
336
330
1F6
100
AcDbEntity
  8
0
 62
    53
420
 14730839
100
AcDbFaceRecord
 10
0.0
 20
0.0
 30
0.0
 70
   128
 71
    76
 72
    77
 73
  -101
 74
   -76
  0
VERTEX
  5
337
330
1F6
100
AcDbEntity
  8
0
 62
    53
420
 14730839
100
AcDbFaceRecord
 10
0.0
 20
0.0
 30
0.0
 70
   128
 71
   -77
 72
   102
 73
   101
 74
   -77
  0
VERTEX
  5
338
330
1F6
100
AcDbEntity
  8
0
 62
    53
420
 14730839
100
AcDbFaceRecord
 10
0.0
 20
0.0
 30
0.0
 70
   128
 71
    77
 72
    78
 73
  -102
 74
   -77
  0
VERTEX
  5
339
330
1F6
100
AcDbEntity
  8
0
 62
    53
420
 14730839
100
AcDbFaceRecord
 10
0.0
 20
0.0
 30
0.0
 70
   128
 71
   -78
 72
   103
 73
   102
 74
   -78
  0
VERTEX
  5
33A
330
1F6
100
AcDbEntity
  8
0
 62
    53
420
 14730839
100
AcDbFaceRecord
 10
0.0
 20
0.0
 30
0.0
 70
   128
 71
    78
 72
    79
 73
  -103
 74
   -78
  0
VERTEX
  5
33B
330
1F6
100
AcDbEntity
  8
0
 62
    53
420
 14730839
100
AcDbFaceRecord
 10
0.0
 20
0.0
 30
0.0
 70
   128
 71
   -79
 72
   104
 73
   103
 74
   -79
  0
VERTEX
  5
33C
330
1F6
100
AcDbEntity
  8
0
 62
    53
420
 14730839
100
AcDbFaceRecord
 10
0.0
 20
0.0
 30
0.0
 70
   128
 71
    79
 72
    80
 73
  -104
 74
   -79
  0
VERTEX
  5
33D
330
1F6
100
AcDbEntity
  8
0
 62
    53
420
 14730839
100
AcDbFaceRecord
 10
0.0
 20
0.0
 30
0.0
 70
   128
 71
   -80
 72
   105
 73
   104
 74
   -80
  0
VERTEX
  5
33E
330
1F6
100
AcDbEntity
  8
0
 62
    53
420
 14730839
100
AcDbFaceRecord
 10
0.0
 20
0.0
 30
0.0
 70
   128
 71
    80
 72
    81
 73
  -105
 74
   -80
  0
VERTEX
  5
33F
330
1F6
100
AcDbEntity
  8
0
 62
    53
420
 14730839
100
AcDbFaceRecord
 10
0.0
 20
0.0
 30
0.0
 70
   128
 71
   -81
 72
   106
 73
   105
 74
   -81
  0
VERTEX
  5
340
330
1F6
100
AcDbEntity
  8
0
 62
    53
420
 14730839
100
AcDbFaceRecord
 10
0.0
 20
0.0
 30
0.0
 70
   128
 71
    81
 72
    82
 73
  -106
 74
   -81
  0
VERTEX
  5
341
330
1F6
100
AcDbEntity
  8
0
 62
    53
420
 14730839
100
AcDbFaceRecord
 10
0.0
 20
0.0
 30
0.0
 70
   128
 71
   -82
 72
   107
 73
   106
 74
   -82
  0
VERTEX
  5
342
330
1F6
100
AcDbEntity
  8
0
 62
    53
420
 14730839
100
AcDbFaceRecord
 10
0.0
 20
0.0
 30
0.0
 70
   128
 71
    82
 72
    83
 73
  -107
 74
   -82
  0
VERTEX
  5
343
330
1F6
100
AcDbEntity
  8
0
 62
    53
420
 14730839
100
AcDbFaceRecord
 10
0.0
 20
0.0
 30
0.0
 70
   128
 71
   -83
 72
   108
 73
   107
 74
   -83
  0
VERTEX
  5
344
330
1F6
100
AcDbEntity
  8
0
 62
    53
420
 14730839
100
AcDbFaceRecord
 10
0.0
 20
0.0
 30
0.0
 70
   128
 71
    83
 72
    84
 73
  -108
 74
   -83
  0
VERTEX
  5
345
330
1F6
100
AcDbEntity
  8
0
 62
    53
420
 14730839
100
AcDbFaceRecord
 10
0.0
 20
0.0
 30
0.0
 70
   128
 71
   -84
 72
   109
 73
   108
 74
   -84
  0
VERTEX
  5
346
330
1F6
100
AcDbEntity
  8
0
 62
    53
420
 14730839
100
AcDbFaceRecord
 10
0.0
 20
0.0
 30
0.0
 70
   128
 71
    84
 72
    85
 73
  -109
 74
   -84
  0
VERTEX
  5
347
330
1F6
100
AcDbEntity
  8
0
 62
    53
420
 14730839
100
AcDbFaceRecord
 10
0.0
 20
0.0
 30
0.0
 70
   128
 71
   -85
 72
   110
 73
   109
 74
   -85
  0
VERTEX
  5
348
330
1F6
100
AcDbEntity
  8
0
 62
    53
420
 14730839
100
AcDbFaceRecord
 10
0.0
 20
0.0
 30
0.0
 70
   128
 71
    85
 72
    86
 73
  -110
 74
   -85
  0
VERTEX
  5
349
330
1F6
100
AcDbEntity
  8
0
 62
    53
420
 14730839
100
AcDbFaceRecord
 10
0.0
 20
0.0
 30
0.0
 70
   128
 71
   -86
 72
   111
 73
   110
 74
   -86
  0
VERTEX
  5
34A
330
1F6
100
AcDbEntity
  8
0
 62
    53
420
 14730839
100
AcDbFaceRecord
 10
0.0
 20
0.0
 30
0.0
 70
   128
 71
    86
 72
    87
 73
  -111
 74
   -86
  0
VERTEX
  5
34B
330
1F6
100
AcDbEntity
  8
0
 62
    53
420
 14730839
100
AcDbFaceRecord
 10
0.0
 20
0.0
 30
0.0
 70
   128
 71
   -87
 72
   112
 73
   111
 74
   -87
  0
VERTEX
  5
34C
330
1F6
100
AcDbEntity
  8
0
 62
    53
420
 14730839
100
AcDbFaceRecord
 10
0.0
 20
0.0
 30
0.0
 70
   128
 71
    87
 72
    88
 73
  -112
 74
   -87
  0
VERTEX
  5
34D
330
1F6
100
AcDbEntity
  8
0
 62
    53
420
 14730839
100
AcDbFaceRecord
 10
0.0
 20
0.0
 30
0.0
 70
   128
 71
   -88
 72
   113
 73
   112
 74
   -88
  0
VERTEX
  5
34E
330
1F6
100
AcDbEntity
  8
0
 62
    53
420
 14730839
100
AcDbFaceRecord
 10
0.0
 20
0.0
 30
0.0
 70
   128
 71
    88
 72
    89
 73
  -113
 74
   -88
  0
VERTEX
  5
34F
330
1F6
100
AcDbEntity
  8
0
 62
    53
420
 14730839
100
AcDbFaceRecord
 10
0.0
 20
0.0
 30
0.0
 70
   128
 71
   -89
 72
   114
 73
   113
 74
   -89
  0
VERTEX
  5
350
330
1F6
100
AcDbEntity
  8
0
 62
    53
420
 14730839
100
AcDbFaceRecord
 10
0.0
 20
0.0
 30
0.0
 70
   128
 71
    89
 72
    90
 73
  -114
 74
   -89
  0
VERTEX
  5
351
330
1F6
100
AcDbEntity
  8
0
 62
    53
420
 14730839
100
AcDbFaceRecord
 10
0.0
 20
0.0
 30
0.0
 70
   128
 71
   -90
 72
   115
 73
   114
 74
   -90
  0
VERTEX
  5
352
330
1F6
100
AcDbEntity
  8
0
 62
    53
420
 14730839
100
AcDbFaceRecord
 10
0.0
 20
0.0
 30
0.0
 70
   128
 71
    90
 72
    91
 73
  -115
 74
   -90
  0
VERTEX
  5
353
330
1F6
100
AcDbEntity
  8
0
 62
    53
420
 14730839
100
AcDbFaceRecord
 10
0.0
 20
0.0
 30
0.0
 70
   128
 71
   -91
 72
   116
 73
   115
 74
   -91
  0
VERTEX
  5
354
330
1F6
100
AcDbEntity
  8
0
 62
    53
420
 14730839
100
AcDbFaceRecord
 10
0.0
 20
0.0
 30
0.0
 70
   128
 71
    91
 72
    92
 73
  -116
 74
   -91
  0
VERTEX
  5
355
330
1F6
100
AcDbEntity
  8
0
 62
    53
420
 14730839
100
AcDbFaceRecord
 10
0.0
 20
0.0
 30
0.0
 70
   128
 71
   -92
 72
   117
 73
   116
 74
   -92
  0
VERTEX
  5
356
330
1F6
100
AcDbEntity
  8
0
 62
    53
420
 14730839
100
AcDbFaceRecord
 10
0.0
 20
0.0
 30
0.0
 70
   128
 71
    92
 72
    93
 73
  -117
 74
   -92
  0
VERTEX
  5
357
330
1F6
100
AcDbEntity
  8
0
 62
    53
420
 14730839
100
AcDbFaceRecord
 10
0.0
 20
0.0
 30
0.0
 70
   128
 71
   -93
 72
   118
 73
   117
 74
   -93
  0
VERTEX
  5
358
330
1F6
100
AcDbEntity
  8
0
 62
    53
420
 14730839
100
AcDbFaceRecord
 10
0.0
 20
0.0
 30
0.0
 70
   128
 71
    93
 72
    94
 73
  -118
 74
   -93
  0
VERTEX
  5
359
330
1F6
100
AcDbEntity
  8
0
 62
    53
420
 14730839
100
AcDbFaceRecord
 10
0.0
 20
0.0
 30
0.0
 70
   128
 71
   -94
 72
   119
 73
   118
 74
   -94
  0
VERTEX
  5
35A
330
1F6
100
AcDbEntity
  8
0
 62
    53
420
 14730839
100
AcDbFaceRecord
 10
0.0
 20
0.0
 30
0.0
 70
   128
 71
    94
 72
    95
 73
  -119
 74
   -94
  0
VERTEX
  5
35B
330
1F6
100
AcDbEntity
  8
0
 62
    53
420
 14730839
100
AcDbFaceRecord
 10
0.0
 20
0.0
 30
0.0
 70
   128
 71
   -95
 72
   120
 73
   119
 74
   -95
  0
VERTEX
  5
35C
330
1F6
100
AcDbEntity
  8
0
 62
    53
420
 14730839
100
AcDbFaceRecord
 10
0.0
 20
0.0
 30
0.0
 70
   128
 71
    95
 72
    96
 73
  -120
 74
   -95
  0
VERTEX
  5
35D
330
1F6
100
AcDbEntity
  8
0
 62
    53
420
 14730839
100
AcDbFaceRecord
 10
0.0
 20
0.0
 30
0.0
 70
   128
 71
   -96
 72
   121
 73
   120
 74
   -96
  0
VERTEX
  5
35E
330
1F6
100
AcDbEntity
  8
0
 62
    53
420
 14730839
100
AcDbFaceRecord
 10
0.0
 20
0.0
 30
0.0
 70
   128
 71
    96
 72
    97
 73
  -121
 74
   -96
  0
VERTEX
  5
35F
330
1F6
100
AcDbEntity
  8
0
 62
    53
420
 14730839
100
AcDbFaceRecord
 10
0.0
 20
0.0
 30
0.0
 70
   128
 71
   -97
 72
    98
 73
   121
 74
   -97
  0
VERTEX
  5
360
330
1F6
100
AcDbEntity
  8
0
 62
    53
420
 14730839
100
AcDbFaceRecord
 10
0.0
 20
0.0
 30
0.0
 70
   128
 71
    97
 72
    74
 73
   -98
 74
   -97
  0
VERTEX
  5
361
330
1F6
100
AcDbEntity
  8
0
 62
    53
420
 14730839
100
AcDbFaceRecord
 10
0.0
 20
0.0
 30
0.0
 70
   128
 71
   -98
 72
   123
 73
   122
 74
   -98
  0
VERTEX
  5
362
330
1F6
100
AcDbEntity
  8
0
 62
    53
420
 14730839
100
AcDbFaceRecord
 10
0.0
 20
0.0
 30
0.0
 70
   128
 71
    98
 72
    99
 73
  -123
 74
   -98
  0
VERTEX
  5
363
330
1F6
100
AcDbEntity
  8
0
 62
    53
420
 14730839
100
AcDbFaceRecord
 10
0.0
 20
0.0
 30
0.0
 70
   128
 71
   -99
 72
   124
 73
   123
 74
   -99
  0
VERTEX
  5
364
330
1F6
100
AcDbEntity
  8
0
 62
    53
420
 14730839
100
AcDbFaceRecord
 10
0.0
 20
0.0
 30
0.0
 70
   128
 71
    99
 72
   100
 73
  -124
 74
   -99
  0
VERTEX
  5
365
330
1F6
100
AcDbEntity
  8
0
 62
    53
420
 14730839
100
AcDbFaceRecord
 10
0.0
 20
0.0
 30
0.0
 70
   128
 71
  -100
 72
   125
 73
   124
 74
  -100
  0
VERTEX
  5
366
330
1F6
100
AcDbEntity
  8
0
 62
    53
420
 14730839
100
AcDbFaceRecord
 10
0.0
 20
0.0
 30
0.0
 70
   128
 71
   100
 72
   101
 73
  -125
 74
  -100
  0
VERTEX
  5
367
330
1F6
100
AcDbEntity
  8
0
 62
    53
420
 14730839
100
AcDbFaceRecord
 10
0.0
 20
0.0
 30
0.0
 70
   128
 71
  -101
 72
   126
 73
   125
 74
  -101
  0
VERTEX
  5
368
330
1F6
100
AcDbEntity
  8
0
 62
    53
420
 14730839
100
AcDbFaceRecord
 10
0.0
 20
0.0
 30
0.0
 70
   128
 71
   101
 72
   102
 73
  -126
 74
  -101
  0
VERTEX
  5
369
330
1F6
100
AcDbEntity
  8
0
 62
    53
420
 14730839
100
AcDbFaceRecord
 10
0.0
 20
0.0
 30
0.0
 70
   128
 71
  -102
 72
   127
 73
   126
 74
  -102
  0
VERTEX
  5
36A
330
1F6
100
AcDbEntity
  8
0
 62
    53
420
 14730839
100
AcDbFaceRecord
 10
0.0
 20
0.0
 30
0.0
 70
   128
 71
   102
 72
   103
 73
  -127
 74
  -102
  0
VERTEX
  5
36B
330
1F6
100
AcDbEntity
  8
0
 62
    53
420
 14730839
100
AcDbFaceRecord
 10
0.0
 20
0.0
 30
0.0
 70
   128
 71
  -103
 72
   128
 73
   127
 74
  -103
  0
VERTEX
  5
36C
330
1F6
100
AcDbEntity
  8
0
 62
    53
420
 14730839
100
AcDbFaceRecord
 10
0.0
 20
0.0
 30
0.0
 70
   128
 71
   103
 72
   104
 73
  -128
 74
  -103
  0
VERTEX
  5
36D
330
1F6
100
AcDbEntity
  8
0
 62
    53
420
 14730839
100
AcDbFaceRecord
 10
0.0
 20
0.0
 30
0.0
 70
   128
 71
  -104
 72
   129
 73
   128
 74
  -104
  0
VERTEX
  5
36E
330
1F6
100
AcDbEntity
  8
0
 62
    53
420
 14730839
100
AcDbFaceRecord
 10
0.0
 20
0.0
 30
0.0
 70
   128
 71
   104
 72
   105
 73
  -129
 74
  -104
  0
VERTEX
  5
36F
330
1F6
100
AcDbEntity
  8
0
 62
    53
420
 14730839
100
AcDbFaceRecord
 10
0.0
 20
0.0
 30
0.0
 70
   128
 71
  -105
 72
   130
 73
   129
 74
  -105
  0
VERTEX
  5
370
330
1F6
100
AcDbEntity
  8
0
 62
    53
420
 14730839
100
AcDbFaceRecord
 10
0.0
 20
0.0
 30
0.0
 70
   128
 71
   105
 72
   106
 73
  -130
 74
  -105
  0
VERTEX
  5
371
330
1F6
100
AcDbEntity
  8
0
 62
    53
420
 14730839
100
AcDbFaceRecord
 10
0.0
 20
0.0
 30
0.0
 70
   128
 71
  -106
 72
   131
 73
   130
 74
  -106
  0
VERTEX
  5
372
330
1F6
100
AcDbEntity
  8
0
 62
    53
420
 14730839
100
AcDbFaceRecord
 10
0.0
 20
0.0
 30
0.0
 70
   128
 71
   106
 72
   107
 73
  -131
 74
  -106
  0
VERTEX
  5
373
330
1F6
100
AcDbEntity
  8
0
 62
    53
420
 14730839
100
AcDbFaceRecord
 10
0.0
 20
0.0
 30
0.0
 70
   128
 71
  -107
 72
   132
 73
   131
 74
  -107
  0
VERTEX
  5
374
330
1F6
100
AcDbEntity
  8
0
 62
    53
420
 14730839
100
AcDbFaceRecord
 10
0.0
 20
0.0
 30
0.0
 70
   128
 71
   107
 72
   108
 73
  -132
 74
  -107
  0
VERTEX
  5
375
330
1F6
100
AcDbEntity
  8
0
 62
    53
420
 14730839
100
AcDbFaceRecord
 10
0.0
 20
0.0
 30
0.0
 70
   128
 71
  -108
 72
   133
 73
   132
 74
  -108
  0
VERTEX
  5
376
330
1F6
100
AcDbEntity
  8
0
 62
    53
420
 14730839
100
AcDbFaceRecord
 10
0.0
 20
0.0
 30
0.0
 70
   128
 71
   108
 72
   109
 73
  -133
 74
  -108
  0
VERTEX
  5
377
330
1F6
100
AcDbEntity
  8
0
 62
    53
420
 14730839
100
AcDbFaceRecord
 10
0.0
 20
0.0
 30
0.0
 70
   128
 71
  -109
 72
   134
 73
   133
 74
  -109
  0
VERTEX
  5
378
330
1F6
100
AcDbEntity
  8
0
 62
    53
420
 14730839
100
AcDbFaceRecord
 10
0.0
 20
0.0
 30
0.0
 70
   128
 71
   109
 72
   110
 73
  -134
 74
  -109
  0
VERTEX
  5
379
330
1F6
100
AcDbEntity
  8
0
 62
    53
420
 14730839
100
AcDbFaceRecord
 10
0.0
 20
0.0
 30
0.0
 70
   128
 71
  -110
 72
   135
 73
   134
 74
  -110
  0
VERTEX
  5
37A
330
1F6
100
AcDbEntity
  8
0
 62
    53
420
 14730839
100
AcDbFaceRecord
 10
0.0
 20
0.0
 30
0.0
 70
   128
 71
   110
 72
   111
 73
  -135
 74
  -110
  0
VERTEX
  5
37B
330
1F6
100
AcDbEntity
  8
0
 62
    53
420
 14730839
100
AcDbFaceRecord
 10
0.0
 20
0.0
 30
0.0
 70
   128
 71
  -111
 72
   136
 73
   135
 74
  -111
  0
VERTEX
  5
37C
330
1F6
100
AcDbEntity
  8
0
 62
    53
420
 14730839
100
AcDbFaceRecord
 10
0.0
 20
0.0
 30
0.0
 70
   128
 71
   111
 72
   112
 73
  -136
 74
  -111
  0
VERTEX
  5
37D
330
1F6
100
AcDbEntity
  8
0
 62
    53
420
 14730839
100
AcDbFaceRecord
 10
0.0
 20
0.0
 30
0.0
 70
   128
 71
  -112
 72
   137
 73
   136
 74
  -112
  0
VERTEX
  5
37E
330
1F6
100
AcDbEntity
  8
0
 62
    53
420
 14730839
100
AcDbFaceRecord
 10
0.0
 20
0.0
 30
0.0
 70
   128
 71
   112
 72
   113
 73
  -137
 74
  -112
  0
VERTEX
  5
37F
330
1F6
100
AcDbEntity
  8
0
 62
    53
420
 14730839
100
AcDbFaceRecord
 10
0.0
 20
0.0
 30
0.0
 70
   128
 71
  -113
 72
   138
 73
   137
 74
  -113
  0
VERTEX
  5
380
330
1F6
100
AcDbEntity
  8
0
 62
    53
420
 14730839
100
AcDbFaceRecord
 10
0.0
 20
0.0
 30
0.0
 70
   128
 71
   113
 72
   114
 73
  -138
 74
  -113
  0
VERTEX
  5
381
330
1F6
100
AcDbEntity
  8
0
 62
    53
420
 14730839
100
AcDbFaceRecord
 10
0.0
 20
0.0
 30
0.0
 70
   128
 71
  -114
 72
   139
 73
   138
 74
  -114
  0
VERTEX
  5
382
330
1F6
100
AcDbEntity
  8
0
 62
    53
420
 14730839
100
AcDbFaceRecord
 10
0.0
 20
0.0
 30
0.0
 70
   128
 71
   114
 72
   115
 73
  -139
 74
  -114
  0
VERTEX
  5
383
330
1F6
100
AcDbEntity
  8
0
 62
    53
420
 14730839
100
AcDbFaceRecord
 10
0.0
 20
0.0
 30
0.0
 70
   128
 71
  -115
 72
   140
 73
   139
 74
  -115
  0
VERTEX
  5
384
330
1F6
100
AcDbEntity
  8
0
 62
    53
420
 14730839
100
AcDbFaceRecord
 10
0.0
 20
0.0
 30
0.0
 70
   128
 71
   115
 72
   116
 73
  -140
 74
  -115
  0
VERTEX
  5
385
330
1F6
100
AcDbEntity
  8
0
 62
    53
420
 14730839
100
AcDbFaceRecord
 10
0.0
 20
0.0
 30
0.0
 70
   128
 71
  -116
 72
   141
 73
   140
 74
  -116
  0
VERTEX
  5
386
330
1F6
100
AcDbEntity
  8
0
 62
    53
420
 14730839
100
AcDbFaceRecord
 10
0.0
 20
0.0
 30
0.0
 70
   128
 71
   116
 72
   117
 73
  -141
 74
  -116
  0
VERTEX
  5
387
330
1F6
100
AcDbEntity
  8
0
 62
    53
420
 14730839
100
AcDbFaceRecord
 10
0.0
 20
0.0
 30
0.0
 70
   128
 71
  -117
 72
   142
 73
   141
 74
  -117
  0
VERTEX
  5
388
330
1F6
100
AcDbEntity
  8
0
 62
    53
420
 14730839
100
AcDbFaceRecord
 10
0.0
 20
0.0
 30
0.0
 70
   128
 71
   117
 72
   118
 73
  -142
 74
  -117
  0
VERTEX
  5
389
330
1F6
100
AcDbEntity
  8
0
 62
    53
420
 14730839
100
AcDbFaceRecord
 10
0.0
 20
0.0
 30
0.0
 70
   128
 71
  -118
 72
   143
 73
   142
 74
  -118
  0
VERTEX
  5
38A
330
1F6
100
AcDbEntity
  8
0
 62
    53
420
 14730839
100
AcDbFaceRecord
 10
0.0
 20
0.0
 30
0.0
 70
   128
 71
   118
 72
   119
 73
  -143
 74
  -118
  0
VERTEX
  5
38B
330
1F6
100
AcDbEntity
  8
0
 62
    53
420
 14730839
100
AcDbFaceRecord
 10
0.0
 20
0.0
 30
0.0
 70
   128
 71
  -119
 72
   144
 73
   143
 74
  -119
  0
VERTEX
  5
38C
330
1F6
100
AcDbEntity
  8
0
 62
    53
420
 14730839
100
AcDbFaceRecord
 10
0.0
 20
0.0
 30
0.0
 70
   128
 71
   119
 72
   120
 73
  -144
 74
  -119
  0
VERTEX
  5
38D
330
1F6
100
AcDbEntity
  8
0
 62
    53
420
 14730839
100
AcDbFaceRecord
 10
0.0
 20
0.0
 30
0.0
 70
   128
 71
  -120
 72
   145
 73
   144
 74
  -120
  0
VERTEX
  5
38E
330
1F6
100
AcDbEntity
  8
0
 62
    53
420
 14730839
100
AcDbFaceRecord
 10
0.0
 20
0.0
 30
0.0
 70
   128
 71
   120
 72
   121
 73
  -145
 74
  -120
  0
VERTEX
  5
38F
330
1F6
100
AcDbEntity
  8
0
 62
    53
420
 14730839
100
AcDbFaceRecord
 10
0.0
 20
0.0
 30
0.0
 70
   128
 71
  -121
 72
   122
 73
   145
 74
  -121
  0
VERTEX
  5
390
330
1F6
100
AcDbEntity
  8
0
 62
    53
420
 14730839
100
AcDbFaceRecord
 10
0.0
 20
0.0
 30
0.0
 70
   128
 71
   121
 72
    98
 73
  -122
 74
  -121
  0
VERTEX
  5
391
330
1F6
100
AcDbEntity
  8
0
 62
    53
420
 14730839
100
AcDbFaceRecord
 10
0.0
 20
0.0
 30
0.0
 70
   128
 71
  -146
 72
   122
 73
  -123
 74
  -146
  0
VERTEX
  5
392
330
1F6
100
AcDbEntity
  8
0
 62
    53
420
 14730839
100
AcDbFaceRecord
 10
0.0
 20
0.0
 30
0.0
 70
   128
 71
  -146
 72
   123
 73
  -124
 74
  -146
  0
VERTEX
  5
393
330
1F6
100
AcDbEntity
  8
0
 62
    53
420
 14730839
100
AcDbFaceRecord
 10
0.0
 20
0.0
 30
0.0
 70
   128
 71
  -146
 72
   124
 73
  -125
 74
  -146
  0
VERTEX
  5
394
330
1F6
100
AcDbEntity
  8
0
 62
    53
420
 14730839
100
AcDbFaceRecord
 10
0.0
 20
0.0
 30
0.0
 70
   128
 71
  -146
 72
   125
 73
  -126
 74
  -146
  0
VERTEX
  5
395
330
1F6
100
AcDbEntity
  8
0
 62
    53
420
 14730839
100
AcDbFaceRecord
 10
0.0
 20
0.0
 30
0.0
 70
   128
 71
  -146
 72
   126
 73
  -127
 74
  -146
  0
VERTEX
  5
396
330
1F6
100
AcDbEntity
  8
0
 62
    53
420
 14730839
100
AcDbFaceRecord
 10
0.0
 20
0.0
 30
0.0
 70
   128
 71
  -146
 72
   127
 73
  -128
 74
  -146
  0
VERTEX
  5
397
330
1F6
100
AcDbEntity
  8
0
 62
    53
420
 14730839
100
AcDbFaceRecord
 10
0.0
 20
0.0
 30
0.0
 70
   128
 71
  -146
 72
   128
 73
  -129
 74
  -146
  0
VERTEX
  5
398
330
1F6
100
AcDbEntity
  8
0
 62
    53
420
 14730839
100
AcDbFaceRecord
 10
0.0
 20
0.0
 30
0.0
 70
   128
 71
  -146
 72
   129
 73
  -130
 74
  -146
  0
VERTEX
  5
399
330
1F6
100
AcDbEntity
  8
0
 62
    53
420
 14730839
100
AcDbFaceRecord
 10
0.0
 20
0.0
 30
0.0
 70
   128
 71
  -146
 72
   130
 73
  -131
 74
  -146
  0
VERTEX
  5
39A
330
1F6
100
AcDbEntity
  8
0
 62
    53
420
 14730839
100
AcDbFaceRecord
 10
0.0
 20
0.0
 30
0.0
 70
   128
 71
  -146
 72
   131
 73
  -132
 74
  -146
  0
VERTEX
  5
39B
330
1F6
100
AcDbEntity
  8
0
 62
    53
420
 14730839
100
AcDbFaceRecord
 10
0.0
 20
0.0
 30
0.0
 70
   128
 71
  -146
 72
   132
 73
  -133
 74
  -146
  0
VERTEX
  5
39C
330
1F6
100
AcDbEntity
  8
0
 62
    53
420
 14730839
100
AcDbFaceRecord
 10
0.0
 20
0.0
 30
0.0
 70
   128
 71
  -146
 72
   133
 73
  -134
 74
  -146
  0
VERTEX
  5
39D
330
1F6
100
AcDbEntity
  8
0
 62
    53
420
 14730839
100
AcDbFaceRecord
 10
0.0
 20
0.0
 30
0.0
 70
   128
 71
  -146
 72
   134
 73
  -135
 74
  -146
  0
VERTEX
  5
39E
330
1F6
100
AcDbEntity
  8
0
 62
    53
420
 14730839
100
AcDbFaceRecord
 10
0.0
 20
0.0
 30
0.0
 70
   128
 71
  -146
 72
   135
 73
  -136
 74
  -146
  0
VERTEX
  5
39F
330
1F6
100
AcDbEntity
  8
0
 62
    53
420
 14730839
100
AcDbFaceRecord
 10
0.0
 20
0.0
 30
0.0
 70
   128
 71
  -146
 72
   136
 73
  -137
 74
  -146
  0
VERTEX
  5
3A0
330
1F6
100
AcDbEntity
  8
0
 62
    53
420
 14730839
100
AcDbFaceRecord
 10
0.0
 20
0.0
 30
0.0
 70
   128
 71
  -146
 72
   137
 73
  -138
 74
  -146
  0
VERTEX
  5
3A1
330
1F6
100
AcDbEntity
  8
0
 62
    53
420
 14730839
100
AcDbFaceRecord
 10
0.0
 20
0.0
 30
0.0
 70
   128
 71
  -146
 72
   138
 73
  -139
 74
  -146
  0
VERTEX
  5
3A2
330
1F6
100
AcDbEntity
  8
0
 62
    53
420
 14730839
100
AcDbFaceRecord
 10
0.0
 20
0.0
 30
0.0
 70
   128
 71
  -146
 72
   139
 73
  -140
 74
  -146
  0
VERTEX
  5
3A3
330
1F6
100
AcDbEntity
  8
0
 62
    53
420
 14730839
100
AcDbFaceRecord
 10
0.0
 20
0.0
 30
0.0
 70
   128
 71
  -146
 72
   140
 73
  -141
 74
  -146
  0
VERTEX
  5
3A4
330
1F6
100
AcDbEntity
  8
0
 62
    53
420
 14730839
100
AcDbFaceRecord
 10
0.0
 20
0.0
 30
0.0
 70
   128
 71
  -146
 72
   141
 73
  -142
 74
  -146
  0
VERTEX
  5
3A5
330
1F6
100
AcDbEntity
  8
0
 62
    53
420
 14730839
100
AcDbFaceRecord
 10
0.0
 20
0.0
 30
0.0
 70
   128
 71
  -146
 72
   142
 73
  -143
 74
  -146
  0
VERTEX
  5
3A6
330
1F6
100
AcDbEntity
  8
0
 62
    53
420
 14730839
100
AcDbFaceRecord
 10
0.0
 20
0.0
 30
0.0
 70
   128
 71
  -146
 72
   143
 73
  -144
 74
  -146
  0
VERTEX
  5
3A7
330
1F6
100
AcDbEntity
  8
0
 62
    53
420
 14730839
100
AcDbFaceRecord
 10
0.0
 20
0.0
 30
0.0
 70
   128
 71
  -146
 72
   144
 73
  -145
 74
  -146
  0
VERTEX
  5
3A8
330
1F6
100
AcDbEntity
  8
0
 62
    53
420
 14730839
100
AcDbFaceRecord
 10
0.0
 20
0.0
 30
0.0
 70
   128
 71
  -146
 72
   145
 73
  -122
 74
  -146
  0
SEQEND
  5
3A9
330
1F6
100
AcDbEntity
  8
0
 62
    53
420
 14730839
  0
ENDSEC
  0
SECTION
  2
OBJECTS
  0
DICTIONARY
  5
C
330
0
100
AcDbDictionary
281
     1
  3
ACAD_COLOR
350
AB
  3
ACAD_GROUP
350
D
  3
ACAD_LAYOUT
350
1A
  3
ACAD_MATERIAL
350
AA
  3
ACAD_MLINESTYLE
350
17
  3
ACAD_PLOTSETTINGS
350
19
  3
ACAD_PLOTSTYLENAME
350
E
  3
ACAD_TABLESTYLE
350
AC
  3
AcDbVariableDictionary
350
3AA
  0
DICTIONARY
  5
AB
102
{ACAD_REACTORS
330
C
102
}
330
C
100
AcDbDictionary
281
     1
  0
DICTIONARY
  5
D
102
{ACAD_REACTORS
330
C
102
}
330
C
100
AcDbDictionary
281
     1
  0
DICTIONARY
  5
1A
102
{ACAD_REACTORS
330
C
102
}
330
C
100
AcDbDictionary
281
     1
  3
Layout1
350
1E
  3
Layout2
350
26
  3
Model
350
22
  0
DICTIONARY
  5
AA
102
{ACAD_REACTORS
330
C
102
}
330
C
100
AcDbDictionary
281
     1
  0
DICTIONARY
  5
17
102
{ACAD_REACTORS
330
C
102
}
330
C
100
AcDbDictionary
281
     1
  3
Standard
350
18
  0
DICTIONARY
  5
19
102
{ACAD_REACTORS
330
C
102
}
330
C
100
AcDbDictionary
281
     1
  0
ACDBDICTIONARYWDFLT
  5
E
102
{ACAD_REACTORS
330
C
102
}
330
C
100
AcDbDictionary
281
     1
  3
ByLayer
350
2D
  3
Normal
350
F
100
AcDbDictionaryWithDefault
340
F
  0
DICTIONARY
  5
AC
102
{ACAD_REACTORS
330
C
102
}
330
C
100
AcDbDictionary
281
     1
  3
Standard
350
AD
  0
DICTIONARY
  5
3AA
102
{ACAD_REACTORS
330
C
102
}
330
C
100
AcDbDictionary
281
     1
  3
CTABLESTYLE
350
3AB
  0
LAYOUT
  5
1E
102
{ACAD_REACTORS
330
1A
102
}
330
1A
100
AcDbPlotSettings
  1

  2
\\KTXNTBDC\CASF2PN1
  4

  6

 40
0.0
 41
0.0
 42
0.0
 43
0.0
 44
0.0
 45
0.0
 46
0.0
 47
0.0
 48
0.0
 49
0.0
140
0.0
141
0.0
142
1.0
143
1.0
 70
   688
 72
     0
 73
     0
 74
     5
  7

 75
    16
147
1.0
 76
     0
 77
     2
 78
   300
148
0.0
149
0.0
100
AcDbLayout
  1
Layout1
 70
     1
 71
     1
 10
0.0
 20
0.0
 11
12.0
 21
9.0
 12
0.0
 22
0.0
 32
0.0
 14
1.000000000000000E+20
 24
1.000000000000000E+20
 34
1.000000000000000E+20
 15
-1.000000000000000E+20
 25
-1.000000000000000E+20
 35
-1.000000000000000E+20
146
0.0
 13
0.0
 23
0.0
 33
0.0
 16
1.0
 26
0.0
 36
0.0
 17
0.0
 27
1.0
 37
0.0
 76
     0
330
1B
  0
LAYOUT
  5
26
102
{ACAD_REACTORS
330
1A
102
}
330
1A
100
AcDbPlotSettings
  1

  2
\\KTXNTBDC\CASF2PN1
  4

  6

 40
0.0
 41
0.0
 42
0.0
 43
0.0
 44
0.0
 45
0.0
 46
0.0
 47
0.0
 48
0.0
 49
0.0
140
0.0
141
0.0
142
1.0
143
1.0
 70
   688
 72
     0
 73
     0
 74
     5
  7

 75
    16
147
1.0
 76
     0
 77
     2
 78
   300
148
0.0
149
0.0
100
AcDbLayout
  1
Layout2
 70
     1
 71
     2
 10
0.0
 20
0.0
 11
12.0
 21
9.0
 12
0.0
 22
0.0
 32
0.0
 14
0.0
 24
0.0
 34
0.0
 15
0.0
 25
0.0
 35
0.0
146
0.0
 13
0.0
 23
0.0
 33
0.0
 16
1.0
 26
0.0
 36
0.0
 17
0.0
 27
1.0
 37
0.0
 76
     0
330
23
  0
LAYOUT
  5
22
102
{ACAD_REACTORS
330
1A
102
}
330
1A
100
AcDbPlotSettings
  1

  2
\\KTXNTBDC\CASF2PN1
  4

  6

 40
0.0
 41
0.0
 42
0.0
 43
0.0
 44
0.0
 45
0.0
 46
0.0
 47
0.0
 48
0.0
 49
0.0
140
0.0
141
0.0
142
1.0
143
1.0
 70
  1712
 72
     0
 73
     0
 74
     0
  7

 75
     0
147
1.0
 76
     0
 77
     2
 78
   300
148
0.0
149
0.0
100
AcDbLayout
  1
Model
 70
     1
 71
     0
 10
0.0
 20
0.0
 11
12.0
 21
9.0
 12
0.0
 22
0.0
 32
0.0
 14
0.0
 24
0.0
 34
0.0
 15
0.0
 25
0.0
 35
0.0
146
0.0
 13
0.0
 23
0.0
 33
0.0
 16
1.0
 26
0.0
 36
0.0
 17
0.0
 27
1.0
 37
0.0
 76
     0
330
1F
  0
MLINESTYLE
  5
18
102
{ACAD_REACTORS
330
17
102
}
330
17
100
AcDbMlineStyle
  2
STANDARD
 70
     0
  3

 62
   256
 51
90.0
 52
90.0
 71
     2
 49
0.5
 62
   256
  6
BYLAYER
 49
-0.5
 62
   256
  6
BYLAYER
  0
ACDBPLACEHOLDER
  5
2D
102
{ACAD_REACTORS
330
E
102
}
330
E
  0
ACDBPLACEHOLDER
  5
F
102
{ACAD_REACTORS
330
E
102
}
330
E
  0
TABLESTYLE
  5
AD
102
{ACAD_REACTORS
330
AC
102
}
330
AC
100
AcDbTableStyle
  3
Standard
 70
     0
 71
     0
 40
0.06
 41
0.06
280
     0
281
     0
  7
Standard
140
0.18
170
     2
 62
     0
 63
     7
283
     0
274
    -2
284
     1
 64
     0
275
    -2
285
     1
 65
     0
276
    -2
286
     1
 66
     0
277
    -2
287
     1
 67
     0
278
    -2
288
     1
 68
     0
279
    -2
289
     1
 69
     0
  7
Standard
140
0.25
170
     5
 62
     0
 63
     7
283
     0
274
    -2
284
     1
 64
     0
275
    -2
285
     1
 65
     0
276
    -2
286
     1
 66
     0
277
    -2
287
     1
 67
     0
278
    -2
288
     1
 68
     0
279
    -2
289
     1
 69
     0
  7
Standard
140
0.18
170
     5
 62
     0
 63
     7
283
     0
274
    -2
284
     1
 64
     0
275
    -2
285
     1
 65
     0
276
    -2
286
     1
 66
     0
277
    -2
287
     1
 67
     0
278
    -2
288
     1
 68
     0
279
    -2
289
     1
 69
     0
  0
DICTIONARYVAR
  5
3AB
102
{ACAD_REACTORS
330
3AA
102
}
330
3AA
100
DictionaryVariables
280
     0
  1
STANDARD
  0
ENDSEC
  0
EOF
