ply
format ascii 1.0
comment zipper output
element vertex 256
property float x
property float y
property float z
property float confidence
property float intensity
element face 504
property list uchar int vertex_indices
end_header
0.030888 0.041176 0.006591 0.0 0.0
8.964138 0.041176 0.006591 0.0 0.0
8.425397 0.041176 3.061943 0.0 0.0
6.874154 0.041176 5.748774 0.0 0.0
4.497512 0.041176 7.743012 0.0 0.0
1.582130 0.041176 8.804125 0.0 0.0
-1.520355 0.041175 8.804125 0.0 0.0
-4.435738 0.041175 7.743012 0.0 0.0
-6.812379 0.041175 5.748773 0.0 0.0
-8.363621 0.041175 3.061941 0.0 0.0
-8.902361 0.041175 0.006590 0.0 0.0
-8.363620 0.041175 -3.048762 0.0 0.0
-6.812377 0.041176 -5.735592 0.0 0.0
-4.435735 0.041176 -7.729831 0.0 0.0
-1.520352 0.041176 -8.790942 0.0 0.0
1.582133 0.041176 -8.790941 0.0 0.0
4.497515 0.041176 -7.729828 0.0 0.0
6.874156 0.041176 -5.735589 0.0 0.0
8.425398 0.041176 -3.048757 0.0 0.0
8.964137 -29.525461 0.006590 0.0 0.0
8.425396 -29.525461 3.061942 0.0 0.0
6.874154 -29.525461 5.748772 0.0 0.0
4.497512 -29.525461 7.743011 0.0 0.0
1.582129 -29.525461 8.804123 0.0 0.0
-1.520356 -29.525461 8.804123 0.0 0.0
-4.435738 -29.525461 7.743011 0.0 0.0
-6.812379 -29.525461 5.748771 0.0 0.0
-8.363622 -29.525461 3.061940 0.0 0.0
-8.902362 -29.525461 0.006589 0.0 0.0
-8.363621 -29.525461 -3.048763 0.0 0.0
-6.812377 -29.525461 -5.735594 0.0 0.0
-4.435735 -29.525461 -7.729832 0.0 0.0
-1.520353 -29.525461 -8.790944 0.0 0.0
1.582132 -29.525461 -8.790943 0.0 0.0
4.497515 -29.525461 -7.729830 0.0 0.0
6.874156 -29.525461 -5.735590 0.0 0.0
8.425397 -29.525461 -3.048758 0.0 0.0
8.964136 -59.092098 0.006589 0.0 0.0
8.425395 -59.092098 3.061940 0.0 0.0
6.874153 -59.092098 5.748771 0.0 0.0
4.497511 -59.092098 7.743010 0.0 0.0
1.582128 -59.092098 8.804122 0.0 0.0
-1.520357 -59.092098 8.804122 0.0 0.0
-4.435739 -59.092098 7.743010 0.0 0.0
-6.812380 -59.092098 5.748770 0.0 0.0
-8.363623 -59.092098 3.061939 0.0 0.0
-8.902363 -59.092098 0.006587 0.0 0.0
-8.363622 -59.092098 -3.048764 0.0 0.0
-6.812378 -59.092098 -5.735595 0.0 0.0
-4.435736 -59.092098 -7.729833 0.0 0.0
-1.520354 -59.092098 -8.790945 0.0 0.0
1.582132 -59.092098 -8.790944 0.0 0.0
4.497514 -59.092098 -7.729831 0.0 0.0
6.874155 -59.092098 -5.735591 0.0 0.0
8.425396 -59.092098 -3.048760 0.0 0.0
8.964135 -88.658730 0.006588 0.0 0.0
8.425394 -88.658737 3.061939 0.0 0.0
6.874152 -88.658737 5.748770 0.0 0.0
4.497510 -88.658737 7.743009 0.0 0.0
1.582128 -88.658737 8.804120 0.0 0.0
-1.520357 -88.658737 8.804120 0.0 0.0
-4.435740 -88.658737 7.743008 0.0 0.0
-6.812381 -88.658737 5.748769 0.0 0.0
-8.363624 -88.658737 3.061937 0.0 0.0
-8.902364 -88.658737 0.006586 0.0 0.0
-8.363623 -88.658737 -3.048765 0.0 0.0
-6.812379 -88.658737 -5.735596 0.0 0.0
-4.435737 -88.658737 -7.729835 0.0 0.0
-1.520354 -88.658737 -8.790947 0.0 0.0
1.582131 -88.658730 -8.790946 0.0 0.0
4.497513 -88.658730 -7.729832 0.0 0.0
6.874154 -88.658730 -5.735592 0.0 0.0
8.425395 -88.658730 -3.048761 0.0 0.0
8.964134 -118.225372 0.006586 0.0 0.0
8.425393 -118.225372 3.061938 0.0 0.0
6.874151 -118.225372 5.748768 0.0 0.0
4.497509 -118.225372 7.743007 0.0 0.0
1.582127 -118.225372 8.804119 0.0 0.0
-1.520358 -118.225372 8.804119 0.0 0.0
-4.435740 -118.225372 7.743007 0.0 0.0
-6.812382 -118.225372 5.748767 0.0 0.0
-8.363625 -118.225372 3.061936 0.0 0.0
-8.902365 -118.225372 0.006585 0.0 0.0
-8.363624 -118.225372 -3.048767 0.0 0.0
-6.812380 -118.225372 -5.735598 0.0 0.0
-4.435738 -118.225372 -7.729836 0.0 0.0
-1.520355 -118.225372 -8.790948 0.0 0.0
1.582130 -118.225372 -8.790947 0.0 0.0
4.497512 -118.225372 -7.729834 0.0 0.0
6.874153 -118.225372 -5.735594 0.0 0.0
8.425394 -118.225372 -3.048762 0.0 0.0
8.964134 -147.792007 0.006585 0.0 0.0
8.425393 -147.792007 3.061936 0.0 0.0
6.874150 -147.792007 5.748767 0.0 0.0
4.497509 -147.792007 7.743006 0.0 0.0
1.582126 -147.792007 8.804118 0.0 0.0
-1.520359 -147.792007 8.804118 0.0 0.0
-4.435741 -147.792007 7.743006 0.0 0.0
-6.812383 -147.792007 5.748766 0.0 0.0
-8.363625 -147.792007 3.061935 0.0 0.0
-8.902365 -147.792007 0.006583 0.0 0.0
-8.363624 -147.792007 -3.048768 0.0 0.0
-6.812381 -147.792007 -5.735599 0.0 0.0
-4.435739 -147.792007 -7.729837 0.0 0.0
-1.520356 -147.792007 -8.790949 0.0 0.0
1.582129 -147.792007 -8.790948 0.0 0.0
4.497511 -147.792007 -7.729835 0.0 0.0
6.874152 -147.792007 -5.735595 0.0 0.0
8.425394 -147.792007 -3.048764 0.0 0.0
0.030884 -147.792007 0.006585 0.0 0.0
-0.030048 -148.284210 0.024563 0.0 0.0
21.029871 -148.284210 0.024563 0.0 0.0
20.312271 -148.284210 5.475271 0.0 0.0
18.208376 -148.284210 10.554523 0.0 0.0
14.861563 -148.284210 14.916175 0.0 0.0
10.499910 -148.284210 18.262989 0.0 0.0
5.420659 -148.284210 20.366882 0.0 0.0
-0.030049 -148.284210 21.084482 0.0 0.0
-5.480758 -148.284210 20.366882 0.0 0.0
-10.560009 -148.284210 18.262987 0.0 0.0
-14.921661 -148.284210 14.916174 0.0 0.0
-18.268475 -148.284210 10.554522 0.0 0.0
-20.372370 -148.284210 5.475269 0.0 0.0
-21.089968 -148.284210 0.024561 0.0 0.0
-20.372368 -148.284210 -5.426147 0.0 0.0
-18.268473 -148.284210 -10.505399 0.0 0.0
-14.921659 -148.284210 -14.867050 0.0 0.0
-10.560006 -148.284210 -18.213863 0.0 0.0
-5.480754 -148.284210 -20.317759 0.0 0.0
-0.030046 -148.284210 -21.035357 0.0 0.0
5.420663 -148.284210 -20.317757 0.0 0.0
10.499914 -148.284210 -18.213861 0.0 0.0
14.861566 -148.284210 -14.867046 0.0 0.0
18.208378 -148.284210 -10.505394 0.0 0.0
20.312273 -148.284210 -5.426142 0.0 0.0
16.817886 -157.921234 0.024562 0.0 0.0
16.243807 -157.921234 4.385129 0.0 0.0
14.560691 -157.921234 8.448530 0.0 0.0
11.883241 -157.921234 11.937852 0.0 0.0
8.393919 -157.921234 14.615302 0.0 0.0
4.330517 -157.921234 16.298418 0.0 0.0
-0.030049 -157.921234 16.872498 0.0 0.0
-4.390615 -157.921234 16.298418 0.0 0.0
-8.454017 -157.921234 14.615302 0.0 0.0
-11.943338 -157.921234 11.937851 0.0 0.0
-14.620789 -157.921234 8.448529 0.0 0.0
-16.303904 -157.921234 4.385128 0.0 0.0
-16.877983 -157.921234 0.024561 0.0 0.0
-16.303904 -157.921234 -4.336006 0.0 0.0
-14.620787 -157.921234 -8.399406 0.0 0.0
-11.943336 -157.921234 -11.888727 0.0 0.0
-8.454014 -157.921234 -14.566177 0.0 0.0
-4.390613 -157.921234 -16.249292 0.0 0.0
-0.030046 -157.921234 -16.823372 0.0 0.0
4.330520 -157.921234 -16.249292 0.0 0.0
8.393921 -157.921234 -14.566175 0.0 0.0
11.883243 -157.921234 -11.888724 0.0 0.0
14.560693 -157.921234 -8.399403 0.0 0.0
16.243807 -157.921234 -4.336001 0.0 0.0
12.605904 -167.558258 0.024562 0.0 0.0
12.175344 -167.558258 3.294987 0.0 0.0
10.913007 -167.558258 6.342538 0.0 0.0
8.904919 -167.558258 8.959530 0.0 0.0
6.287927 -167.558258 10.967617 0.0 0.0
3.240376 -167.558258 12.229955 0.0 0.0
-0.030049 -167.558258 12.660514 0.0 0.0
-3.300474 -167.558258 12.229954 0.0 0.0
-6.348025 -167.558258 10.967617 0.0 0.0
-8.965016 -167.558258 8.959529 0.0 0.0
-10.973104 -167.558258 6.342537 0.0 0.0
-12.235441 -167.558258 3.294986 0.0 0.0
-12.666000 -167.558258 0.024561 0.0 0.0
-12.235440 -167.558258 -3.245864 0.0 0.0
-10.973104 -167.558258 -6.293415 0.0 0.0
-8.965014 -167.558258 -8.910406 0.0 0.0
-6.348023 -167.558258 -10.918494 0.0 0.0
-3.300472 -167.558258 -12.180831 0.0 0.0
-0.030047 -167.558258 -12.611390 0.0 0.0
3.240378 -167.558258 -12.180830 0.0 0.0
6.287929 -167.558258 -10.918492 0.0 0.0
8.904921 -167.558258 -8.910404 0.0 0.0
10.913008 -167.558258 -6.293412 0.0 0.0
12.175344 -167.558258 -3.245861 0.0 0.0
8.393919 -177.195282 0.024562 0.0 0.0
8.106879 -177.195282 2.204845 0.0 0.0
7.265321 -177.195282 4.236545 0.0 0.0
5.926596 -177.195282 5.981206 0.0 0.0
4.181935 -177.195282 7.319931 0.0 0.0
2.150234 -177.195282 8.161489 0.0 0.0
-0.030049 -177.195282 8.448529 0.0 0.0
-2.210332 -177.195282 8.161489 0.0 0.0
-4.242033 -177.195282 7.319931 0.0 0.0
-5.986693 -177.195282 5.981205 0.0 0.0
-7.325418 -177.195282 4.236545 0.0 0.0
-8.166976 -177.195282 2.204844 0.0 0.0
-8.454016 -177.195267 0.024561 0.0 0.0
-8.166976 -177.195267 -2.155722 0.0 0.0
-7.325418 -177.195267 -4.187423 0.0 0.0
-5.986692 -177.195267 -5.932084 0.0 0.0
-4.242031 -177.195267 -7.270809 0.0 0.0
-2.210330 -177.195267 -8.112366 0.0 0.0
-0.030047 -177.195267 -8.399405 0.0 0.0
2.150236 -177.195267 -8.112366 0.0 0.0
4.181936 -177.195267 -7.270808 0.0 0.0
5.926597 -177.195267 -5.932082 0.0 0.0
7.265322 -177.195267 -4.187421 0.0 0.0
8.106879 -177.195267 -2.155720 0.0 0.0
4.181935 -186.832306 0.024561 0.0 0.0
4.038415 -186.832306 1.114703 0.0 0.0
3.617636 -186.832306 2.130553 0.0 0.0
2.948274 -186.832306 3.002883 0.0 0.0
2.075943 -186.832306 3.672246 0.0 0.0
1.060093 -186.832306 4.093025 0.0 0.0
-0.030049 -186.832306 4.236545 0.0 0.0
-1.120190 -186.832306 4.093025 0.0 0.0
-2.136040 -186.832306 3.672246 0.0 0.0
-3.008371 -186.832306 3.002883 0.0 0.0
-3.677733 -186.832306 2.130553 0.0 0.0
-4.098512 -186.832306 1.114702 0.0 0.0
-4.242032 -186.832306 0.024561 0.0 0.0
-4.098512 -186.832291 -1.065581 0.0 0.0
-3.677733 -186.832291 -2.081431 0.0 0.0
-3.008370 -186.832291 -2.953761 0.0 0.0
-2.136040 -186.832291 -3.623124 0.0 0.0
-1.120189 -186.832291 -4.043903 0.0 0.0
-0.030048 -186.832291 -4.187423 0.0 0.0
1.060094 -186.832291 -4.043903 0.0 0.0
2.075944 -186.832291 -3.623123 0.0 0.0
2.948274 -186.832291 -2.953761 0.0 0.0
3.617637 -186.832291 -2.081430 0.0 0.0
4.038415 -186.832291 -1.065580 0.0 0.0
-0.030048 -196.469315 0.024561 0.0 0.0
-0.030048 -196.469315 0.024561 0.0 0.0
-0.030048 -196.469315 0.024561 0.0 0.0
-0.030048 -196.469315 0.024561 0.0 0.0
-0.030048 -196.469315 0.024561 0.0 0.0
-0.030048 -196.469315 0.024561 0.0 0.0
-0.030048 -196.469315 0.024561 0.0 0.0
-0.030048 -196.469315 0.024561 0.0 0.0
-0.030048 -196.469315 0.024561 0.0 0.0
-0.030048 -196.469315 0.024561 0.0 0.0
-0.030048 -196.469315 0.024561 0.0 0.0
-0.030048 -196.469315 0.024561 0.0 0.0
-0.030048 -196.469315 0.024561 0.0 0.0
-0.030048 -196.469315 0.024561 0.0 0.0
-0.030048 -196.469315 0.024561 0.0 0.0
-0.030048 -196.469315 0.024561 0.0 0.0
-0.030048 -196.469315 0.024561 0.0 0.0
-0.030048 -196.469315 0.024561 0.0 0.0
-0.030048 -196.469315 0.024561 0.0 0.0
-0.030048 -196.469315 0.024561 0.0 0.0
-0.030048 -196.469315 0.024561 0.0 0.0
-0.030048 -196.469315 0.024561 0.0 0.0
-0.030048 -196.469315 0.024561 0.0 0.0
-0.030048 -196.469315 0.024561 0.0 0.0
-0.030048 -196.469315 0.024561 0.0 0.0
3 0 2 1
3 0 3 2
3 0 4 3
3 0 5 4
3 0 6 5
3 0 7 6
3 0 8 7
3 0 9 8
3 0 10 9
3 0 11 10
3 0 12 11
3 0 13 12
3 0 14 13
3 0 15 14
3 0 16 15
3 0 17 16
3 0 18 17
3 0 1 18
3 1 20 19
3 1 2 20
3 2 21 20
3 2 3 21
3 3 22 21
3 3 4 22
3 4 23 22
3 4 5 23
3 5 24 23
3 5 6 24
3 6 25 24
3 6 7 25
3 7 26 25
3 7 8 26
3 8 27 26
3 8 9 27
3 9 28 27
3 9 10 28
3 10 29 28
3 10 11 29
3 11 30 29
3 11 12 30
3 12 31 30
3 12 13 31
3 13 32 31
3 13 14 32
3 14 33 32
3 14 15 33
3 15 34 33
3 15 16 34
3 16 35 34
3 16 17 35
3 17 36 35
3 17 18 36
3 18 19 36
3 18 1 19
3 19 38 37
3 19 20 38
3 20 39 38
3 20 21 39
3 21 40 39
3 21 22 40
3 22 41 40
3 22 23 41
3 23 42 41
3 23 24 42
3 24 43 42
3 24 25 43
3 25 44 43
3 25 26 44
3 26 45 44
3 26 27 45
3 27 46 45
3 27 28 46
3 28 47 46
3 28 29 47
3 29 48 47
3 29 30 48
3 30 49 48
3 30 31 49
3 31 50 49
3 31 32 50
3 32 51 50
3 32 33 51
3 33 52 51
3 33 34 52
3 34 53 52
3 34 35 53
3 35 54 53
3 35 36 54
3 36 37 54
3 36 19 37
3 37 56 55
3 37 38 56
3 38 57 56
3 38 39 57
3 39 58 57
3 39 40 58
3 40 59 58
3 40 41 59
3 41 60 59
3 41 42 60
3 42 61 60
3 42 43 61
3 43 62 61
3 43 44 62
3 44 63 62
3 44 45 63
3 45 64 63
3 45 46 64
3 46 65 64
3 46 47 65
3 47 66 65
3 47 48 66
3 48 67 66
3 48 49 67
3 49 68 67
3 49 50 68
3 50 69 68
3 50 51 69
3 51 70 69
3 51 52 70
3 52 71 70
3 52 53 71
3 53 72 71
3 53 54 72
3 54 55 72
3 54 37 55
3 55 74 73
3 55 56 74
3 56 75 74
3 56 57 75
3 57 76 75
3 57 58 76
3 58 77 76
3 58 59 77
3 59 78 77
3 59 60 78
3 60 79 78
3 60 61 79
3 61 80 79
3 61 62 80
3 62 81 80
3 62 63 81
3 63 82 81
3 63 64 82
3 64 83 82
3 64 65 83
3 65 84 83
3 65 66 84
3 66 85 84
3 66 67 85
3 67 86 85
3 67 68 86
3 68 87 86
3 68 69 87
3 69 88 87
3 69 70 88
3 70 89 88
3 70 71 89
3 71 90 89
3 71 72 90
3 72 73 90
3 72 55 73
3 73 92 91
3 73 74 92
3 74 93 92
3 74 75 93
3 75 94 93
3 75 76 94
3 76 95 94
3 76 77 95
3 77 96 95
3 77 78 96
3 78 97 96
3 78 79 97
3 79 98 97
3 79 80 98
3 80 99 98
3 80 81 99
3 81 100 99
3 81 82 100
3 82 101 100
3 82 83 101
3 83 102 101
3 83 84 102
3 84 103 102
3 84 85 103
3 85 104 103
3 85 86 104
3 86 105 104
3 86 87 105
3 87 106 105
3 87 88 106
3 88 107 106
3 88 89 107
3 89 108 107
3 89 90 108
3 90 91 108
3 90 73 91
3 109 91 92
3 109 92 93
3 109 93 94
3 109 94 95
3 109 95 96
3 109 96 97
3 109 97 98
3 109 98 99
3 109 99 100
3 109 100 101
3 109 101 102
3 109 102 103
3 109 103 104
3 109 104 105
3 109 105 106
3 109 106 107
3 109 107 108
3 109 108 91
3 110 112 111
3 110 113 112
3 110 114 113
3 110 115 114
3 110 116 115
3 110 117 116
3 110 118 117
3 110 119 118
3 110 120 119
3 110 121 120
3 110 122 121
3 110 123 122
3 110 124 123
3 110 125 124
3 110 126 125
3 110 127 126
3 110 128 127
3 110 129 128
3 110 130 129
3 110 131 130
3 110 132 131
3 110 133 132
3 110 134 133
3 110 111 134
3 111 136 135
3 111 112 136
3 112 137 136
3 112 113 137
3 113 138 137
3 113 114 138
3 114 139 138
3 114 115 139
3 115 140 139
3 115 116 140
3 116 141 140
3 116 117 141
3 117 142 141
3 117 118 142
3 118 143 142
3 118 119 143
3 119 144 143
3 119 120 144
3 120 145 144
3 120 121 145
3 121 146 145
3 121 122 146
3 122 147 146
3 122 123 147
3 123 148 147
3 123 124 148
3 124 149 148
3 124 125 149
3 125 150 149
3 125 126 150
3 126 151 150
3 126 127 151
3 127 152 151
3 127 128 152
3 128 153 152
3 128 129 153
3 129 154 153
3 129 130 154
3 130 155 154
3 130 131 155
3 131 156 155
3 131 132 156
3 132 157 156
3 132 133 157
3 133 158 157
3 133 134 158
3 134 135 158
3 134 111 135
3 135 160 159
3 135 136 160
3 136 161 160
3 136 137 161
3 137 162 161
3 137 138 162
3 138 163 162
3 138 139 163
3 139 164 163
3 139 140 164
3 140 165 164
3 140 141 165
3 141 166 165
3 141 142 166
3 142 167 166
3 142 143 167
3 143 168 167
3 143 144 168
3 144 169 168
3 144 145 169
3 145 170 169
3 145 146 170
3 146 171 170
3 146 147 171
3 147 172 171
3 147 148 172
3 148 173 172
3 148 149 173
3 149 174 173
3 149 150 174
3 150 175 174
3 150 151 175
3 151 176 175
3 151 152 176
3 152 177 176
3 152 153 177
3 153 178 177
3 153 154 178
3 154 179 178
3 154 155 179
3 155 180 179
3 155 156 180
3 156 181 180
3 156 157 181
3 157 182 181
3 157 158 182
3 158 159 182
3 158 135 159
3 159 184 183
3 159 160 184
3 160 185 184
3 160 161 185
3 161 186 185
3 161 162 186
3 162 187 186
3 162 163 187
3 163 188 187
3 163 164 188
3 164 189 188
3 164 165 189
3 165 190 189
3 165 166 190
3 166 191 190
3 166 167 191
3 167 192 191
3 167 168 192
3 168 193 192
3 168 169 193
3 169 194 193
3 169 170 194
3 170 195 194
3 170 171 195
3 171 196 195
3 171 172 196
3 172 197 196
3 172 173 197
3 173 198 197
3 173 174 198
3 174 199 198
3 174 175 199
3 175 200 199
3 175 176 200
3 176 201 200
3 176 177 201
3 177 202 201
3 177 178 202
3 178 203 202
3 178 179 203
3 179 204 203
3 179 180 204
3 180 205 204
3 180 181 205
3 181 206 205
3 181 182 206
3 182 183 206
3 182 159 183
3 183 208 207
3 183 184 208
3 184 209 208
3 184 185 209
3 185 210 209
3 185 186 210
3 186 211 210
3 186 187 211
3 187 212 211
3 187 188 212
3 188 213 212
3 188 189 213
3 189 214 213
3 189 190 214
3 190 215 214
3 190 191 215
3 191 216 215
3 191 192 216
3 192 217 216
3 192 193 217
3 193 218 217
3 193 194 218
3 194 219 218
3 194 195 219
3 195 220 219
3 195 196 220
3 196 221 220
3 196 197 221
3 197 222 221
3 197 198 222
3 198 223 222
3 198 199 223
3 199 224 223
3 199 200 224
3 200 225 224
3 200 201 225
3 201 226 225
3 201 202 226
3 202 227 226
3 202 203 227
3 203 228 227
3 203 204 228
3 204 229 228
3 204 205 229
3 205 230 229
3 205 206 230
3 206 207 230
3 206 183 207
3 207 232 231
3 207 208 232
3 208 233 232
3 208 209 233
3 209 234 233
3 209 210 234
3 210 235 234
3 210 211 235
3 211 236 235
3 211 212 236
3 212 237 236
3 212 213 237
3 213 238 237
3 213 214 238
3 214 239 238
3 214 215 239
3 215 240 239
3 215 216 240
3 216 241 240
3 216 217 241
3 217 242 241
3 217 218 242
3 218 243 242
3 218 219 243
3 219 244 243
3 219 220 244
3 220 245 244
3 220 221 245
3 221 246 245
3 221 222 246
3 222 247 246
3 222 223 247
3 223 248 247
3 223 224 248
3 224 249 248
3 224 225 249
3 225 250 249
3 225 226 250
3 226 251 250
3 226 227 251
3 227 252 251
3 227 228 252
3 228 253 252
3 228 229 253
3 229 254 253
3 229 230 254
3 230 231 254
3 230 207 231
3 255 231 232
3 255 232 233
3 255 233 234
3 255 234 235
3 255 235 236
3 255 236 237
3 255 237 238
3 255 238 239
3 255 239 240
3 255 240 241
3 255 241 242
3 255 242 243
3 255 243 244
3 255 244 245
3 255 245 246
3 255 246 247
3 255 247 248
3 255 248 249
3 255 249 250
3 255 250 251
3 255 251 252
3 255 252 253
3 255 253 254
3 255 254 231
