ply
format ascii 1.0
comment VCGLIB generated
element vertex 256
property float x
property float y
property float z
property float nx
property float ny
property float nz
element face 504
property list uchar int vertex_indices
end_header
0.030888 0.00659101 -0.041176 -3.36988e-007 1.0185e-006 -6.28319 
8.96414 0.00659101 -0.041176 3.09386 4.85405e-007 -2.79253 
8.4254 3.06194 -0.0411756 2.90728 1.05816 -2.79253 
6.87415 5.74877 -0.0411752 2.37004 1.9887 -2.79253 
4.49751 7.74301 -0.041175 1.54693 2.67937 -2.79253 
1.58213 8.80412 -0.0411748 0.537244 3.04686 -2.79253 
-1.52035 8.80412 -0.0411738 -0.537245 3.04686 -2.79253 
-4.43574 7.74301 -0.041174 -1.54693 2.67937 -2.79253 
-6.81238 5.74877 -0.0411743 -2.37004 1.9887 -2.79253 
-8.36362 3.06194 -0.0411746 -2.90728 1.05816 -2.79253 
-8.90236 0.00659001 -0.041175 -3.09387 -1.70246e-007 -2.79253 
-8.36362 -3.04876 -0.0411754 -2.90728 -1.05816 -2.79253 
-6.81238 -5.73559 -0.0411767 -2.37004 -1.9887 -2.79253 
-4.43574 -7.72983 -0.041177 -1.54693 -2.67937 -2.79253 
-1.52035 -8.79094 -0.0411771 -0.537243 -3.04686 -2.79253 
1.58213 -8.79094 -0.0411771 0.537245 -3.04686 -2.79253 
4.49752 -7.72983 -0.041177 1.54693 -2.67937 -2.79253 
6.87416 -5.73559 -0.0411767 2.37004 -1.9887 -2.79253 
8.4254 -3.04876 -0.0411764 2.90728 -1.05816 -2.79253 
8.96414 0.00658613 29.5255 6.18773 1.78814e-007 2.09617e-007 
8.4254 3.06194 29.5255 5.81456 2.11633 5.42959e-007 
6.87415 5.74877 29.5255 4.74008 3.9774 7.98113e-007 
4.49751 7.74301 29.5255 3.09386 5.35873 9.56121e-007 
1.58213 8.80412 29.5255 1.07449 6.09373 1.0682e-006 
-1.52036 8.80412 29.5255 -1.07449 6.09373 1.05551e-006 
-4.43574 7.74301 29.5255 -3.09387 5.35873 8.52089e-007 
-6.81238 5.74877 29.5255 -4.74008 3.9774 6.0559e-007 
-8.36362 3.06194 29.5255 -5.81457 2.11633 2.33078e-007 
-8.90236 0.00658513 29.5255 -6.18773 -8.34465e-007 -1.9267e-007 
-8.36362 -3.04876 29.5255 -5.81456 -2.11633 -5.45885e-007 
-6.81238 -5.73559 29.5255 -4.74008 -3.9774 -8.23358e-007 
-4.43574 -7.72983 29.5255 -3.09386 -5.35873 -9.68097e-007 
-1.52035 -8.79094 29.5255 -1.07449 -6.09373 -1.07255e-006 
1.58213 -8.79094 29.5255 1.07449 -6.09373 -1.07191e-006 
4.49752 -7.72983 29.5255 3.09387 -5.35873 -9.10429e-007 
6.87416 -5.73559 29.5255 4.74008 -3.97739 -6.3609e-007 
8.4254 -3.04876 29.5255 5.81457 -2.11633 -2.26347e-007 
8.96414 0.00658125 59.0921 6.18773 5.36442e-007 1.92009e-007 
8.4254 3.06193 59.0921 5.81456 2.11633 5.70608e-007 
6.87415 5.74876 59.0921 4.74008 3.9774 8.3068e-007 
4.49751 7.743 59.0921 3.09386 5.35873 9.99737e-007 
1.58213 8.80411 59.0921 1.07449 6.09372 1.11404e-006 
-1.52036 8.80411 59.0921 -1.07449 6.09372 1.06012e-006 
-4.43574 7.743 59.0921 -3.09387 5.35873 8.42563e-007 
-6.81238 5.74876 59.0921 -4.74008 3.9774 5.41128e-007 
-8.36362 3.06193 59.0921 -5.81456 2.11633 1.84027e-007 
-8.90236 0.00657925 59.0921 -6.18773 -1.01328e-006 -2.10947e-007 
-8.36362 -3.04877 59.0921 -5.81456 -2.11633 -5.39254e-007 
-6.81238 -5.73561 59.0921 -4.74008 -3.9774 -8.51558e-007 
-4.43574 -7.72984 59.0921 -3.09386 -5.35873 -1.05858e-006 
-1.52035 -8.79096 59.0921 -1.07449 -6.09372 -1.11023e-006 
1.58213 -8.79095 59.0921 1.07449 -6.09372 -1.03056e-006 
4.49751 -7.72984 59.0921 3.09387 -5.35873 -7.96127e-007 
6.87416 -5.7356 59.0921 4.74008 -3.97739 -5.04001e-007 
8.4254 -3.04877 59.0921 5.81456 -2.11633 -1.71279e-007 
8.96414 0.00657637 88.6587 6.18773 5.66244e-007 1.90633e-007 
8.42539 3.06193 88.6587 5.81456 2.11633 5.68754e-007 
6.87415 5.74876 88.6587 4.74008 3.9774 8.76311e-007 
4.49751 7.743 88.6587 3.09386 5.35873 1.01325e-006 
1.58213 8.80411 88.6587 1.07449 6.09372 1.08356e-006 
-1.52036 8.80411 88.6587 -1.07449 6.09372 1.09025e-006 
-4.43574 7.743 88.6587 -3.09386 5.35873 9.12176e-007 
-6.81238 5.74876 88.6587 -4.74008 3.9774 5.67627e-007 
-8.36362 3.06193 88.6587 -5.81456 2.11633 1.85155e-007 
-8.90236 0.00657437 88.6587 -6.18773 -8.9407e-007 -1.99635e-007 
-8.36362 -3.04877 88.6587 -5.81456 -2.11633 -5.65825e-007 
-6.81238 -5.73561 88.6587 -4.74007 -3.9774 -8.27657e-007 
-4.43574 -7.72985 88.6587 -3.09386 -5.35873 -1.02393e-006 
-1.52035 -8.79096 88.6587 -1.07449 -6.09372 -1.12364e-006 
1.58213 -8.79096 88.6587 1.07449 -6.09372 -1.10327e-006 
4.49751 -7.72984 88.6587 3.09387 -5.35873 -9.0987e-007 
6.87415 -5.7356 88.6587 4.74008 -3.97739 -5.51222e-007 
8.4254 -3.04877 88.6587 5.81456 -2.11633 -1.7869e-007 
8.96413 0.0065705 118.225 6.18773 2.08616e-007 1.14116e-007 
8.42539 3.06192 118.225 5.81456 2.11633 5.22522e-007 
6.87415 5.74875 118.225 4.74008 3.9774 8.56606e-007 
4.49751 7.74299 118.225 3.09386 5.35873 1.04827e-006 
1.58213 8.80411 118.225 1.07449 6.09372 1.07516e-006 
-1.52036 8.80411 118.225 -1.07449 6.09372 9.59257e-007 
-4.43574 7.74299 118.225 -3.09386 5.35873 8.01775e-007 
-6.81238 5.74875 118.225 -4.74008 3.97739 5.73534e-007 
-8.36362 3.06192 118.225 -5.81456 2.11633 2.71886e-007 
-8.90236 0.0065695 118.225 -6.18773 -8.04663e-007 -9.05304e-008 
-8.36362 -3.04879 118.225 -5.81456 -2.11633 -5.16654e-007 
-6.81238 -5.73562 118.225 -4.74007 -3.9774 -8.71122e-007 
-4.43574 -7.72986 118.225 -3.09386 -5.35873 -1.00602e-006 
-1.52035 -8.79096 118.225 -1.07449 -6.09372 -1.03044e-006 
1.58213 -8.79096 118.225 1.07449 -6.09372 -9.57235e-007 
4.49751 -7.72985 118.225 3.09387 -5.35873 -8.3866e-007 
6.87415 -5.73561 118.225 4.74008 -3.97739 -6.59303e-007 
8.42539 -3.04878 118.225 5.81456 -2.11633 -3.14179e-007 
8.96413 0.00656562 147.792 3.09386 -2.34691e-008 2.79253 
8.42539 3.06192 147.792 2.90728 1.05816 2.79253 
6.87415 5.74875 147.792 2.37004 1.9887 2.79253 
4.49751 7.74299 147.792 1.54693 2.67937 2.79253 
1.58213 8.8041 147.792 0.537244 3.04686 2.79253 
-1.52036 8.8041 147.792 -0.537244 3.04686 2.79253 
-4.43574 7.74299 147.792 -1.54693 2.67937 2.79253 
-6.81238 5.74875 147.792 -2.37004 1.9887 2.79253 
-8.36362 3.06191 147.792 -2.90728 1.05816 2.79253 
-8.90236 0.00656362 147.792 -3.09386 -9.62242e-007 2.79253 
-8.36362 -3.04879 147.792 -2.90728 -1.05816 2.79253 
-6.81238 -5.73562 147.792 -2.37004 -1.9887 2.79253 
-4.43574 -7.72986 147.792 -1.54693 -2.67937 2.79253 
-1.52036 -8.79097 147.792 -0.537243 -3.04686 2.79253 
1.58213 -8.79097 147.792 0.537245 -3.04686 2.79253 
4.49751 -7.72986 147.792 1.54693 -2.67936 2.79253 
6.87415 -5.73562 147.792 2.37004 -1.9887 2.79253 
8.42539 -3.04878 147.792 2.90728 -1.05816 2.79253 
0.030884 0.00656562 147.792 0 -8.23941e-007 6.28319 
-0.030048 0.0245436 148.284 0 8.2394e-007 -6.28318 
21.0299 0.0245436 148.284 2.76278 5.47119e-007 -1.67228 
20.3123 5.47525 148.284 2.66864 0.715061 -1.67228 
18.2084 10.5545 148.284 2.39264 1.38139 -1.67228 
14.8616 14.9162 148.284 1.95358 1.95358 -1.67228 
10.4999 18.263 148.284 1.38139 2.39264 -1.67228 
5.42066 20.3669 148.284 0.715061 2.66864 -1.67228 
-0.030049 21.0845 148.284 7.45058e-008 2.76278 -1.67228 
-5.48076 20.3669 148.284 -0.715061 2.66864 -1.67228 
-10.56 18.263 148.284 -1.38139 2.39264 -1.67228 
-14.9217 14.9162 148.284 -1.95358 1.95358 -1.67228 
-18.2685 10.5545 148.284 -2.39264 1.38139 -1.67228 
-20.3724 5.47525 148.284 -2.66864 0.715061 -1.67228 
-21.09 0.0245416 148.284 -2.76278 -1.83038e-007 -1.67228 
-20.3724 -5.42617 148.284 -2.66864 -0.715062 -1.67228 
-18.2685 -10.5054 148.284 -2.39264 -1.38139 -1.67228 
-14.9217 -14.8671 148.284 -1.95358 -1.95358 -1.67228 
-10.56 -18.2139 148.284 -1.38139 -2.39264 -1.67228 
-5.48075 -20.3178 148.284 -0.715061 -2.66864 -1.67228 
-0.030046 -21.0354 148.284 3.8743e-007 -2.76278 -1.67228 
5.42066 -20.3178 148.284 0.715061 -2.66864 -1.67228 
10.4999 -18.2139 148.284 1.38139 -2.39264 -1.67228 
14.8616 -14.867 148.284 1.95358 -1.95358 -1.67228 
18.2084 -10.5054 148.284 2.39264 -1.38139 -1.67228 
20.3123 -5.42616 148.284 2.66864 -0.715061 -1.67228 
16.8179 0.0245413 157.921 5.71587 -6.70325e-007 2.49819 
16.2438 4.38511 157.921 5.52111 1.47938 2.49819 
14.5607 8.44851 157.921 4.95009 2.85794 2.49819 
11.8832 11.9379 157.921 4.04173 4.04173 2.49819 
8.39392 14.6153 157.921 2.85793 4.95009 2.49819 
4.33052 16.2984 157.921 1.47938 5.52111 2.49819 
-0.030049 16.8725 157.921 5.96046e-008 5.71587 2.49819 
-4.39061 16.2984 157.921 -1.47938 5.52111 2.49819 
-8.45402 14.6153 157.921 -2.85794 4.95009 2.49819 
-11.9433 11.9379 157.921 -4.04173 4.04173 2.49819 
-14.6208 8.44851 157.921 -4.95009 2.85793 2.49819 
-16.3039 4.38511 157.921 -5.52111 1.47938 2.49819 
-16.878 0.0245403 157.921 -5.71587 -4.7661e-007 2.49819 
-16.3039 -4.33603 157.921 -5.52111 -1.47938 2.49819 
-14.6208 -8.39943 157.921 -4.95009 -2.85794 2.49819 
-11.9433 -11.8887 157.921 -4.04173 -4.04173 2.49819 
-8.45401 -14.5662 157.921 -2.85793 -4.95009 2.49819 
-4.39061 -16.2493 157.921 -1.47938 -5.52111 2.49819 
-0.030046 -16.8234 157.921 2.38419e-007 -5.71587 2.49819 
4.33052 -16.2493 157.921 1.47938 -5.52111 2.49819 
8.39392 -14.5662 157.921 2.85794 -4.95009 2.49819 
11.8832 -11.8887 157.921 4.04173 -4.04173 2.49819 
14.5607 -8.39942 157.921 4.95009 -2.85793 2.49819 
16.2438 -4.33602 157.921 5.52111 -1.47938 2.49819 
12.6059 0.02454 167.558 5.71587 -5.95819e-007 2.49819 
12.1753 3.29497 167.558 5.52111 1.47938 2.49819 
10.913 6.34252 167.558 4.95009 2.85794 2.49819 
8.90492 8.95951 167.558 4.04173 4.04173 2.49819 
6.28793 10.9676 167.558 2.85793 4.95009 2.49819 
3.24038 12.23 167.558 1.47938 5.52111 2.49819 
-0.030049 12.6605 167.558 -9.53674e-007 5.71587 2.49819 
-3.30047 12.23 167.558 -1.47938 5.52111 2.49819 
-6.34802 10.9676 167.558 -2.85793 4.95009 2.49819 
-8.96502 8.95951 167.558 -4.04173 4.04173 2.49819 
-10.9731 6.34252 167.558 -4.95009 2.85793 2.49819 
-12.2354 3.29497 167.558 -5.52111 1.47938 2.49819 
-12.666 0.024539 167.558 -5.71587 -1.01305e-006 2.4982 
-12.2354 -3.24588 167.558 -5.52111 -1.47938 2.4982 
-10.9731 -6.29344 167.558 -4.95009 -2.85794 2.4982 
-8.96501 -8.91043 167.558 -4.04173 -4.04173 2.49819 
-6.34802 -10.9185 167.558 -2.85793 -4.95009 2.4982 
-3.30047 -12.1808 167.558 -1.47938 -5.52111 2.4982 
-0.030047 -12.6114 167.558 6.85453e-007 -5.71587 2.4982 
3.24038 -12.1808 167.558 1.47938 -5.52111 2.49819 
6.28793 -10.9185 167.558 2.85794 -4.95009 2.49819 
8.90492 -8.91042 167.558 4.04173 -4.04173 2.4982 
10.913 -6.29343 167.558 4.95009 -2.85793 2.4982 
12.1753 -3.24588 167.558 5.52111 -1.47938 2.49819 
8.39392 0.0245388 177.195 5.71587 -8.26992e-006 2.49819 
8.10688 2.20482 177.195 5.52111 1.47938 2.49819 
7.26532 4.23653 177.195 4.95009 2.85793 2.49819 
5.9266 5.98119 177.195 4.04173 4.04173 2.49819 
4.18193 7.31991 177.195 2.85793 4.95009 2.49819 
2.15023 8.16147 177.195 1.47938 5.52111 2.49819 
-0.030049 8.44851 177.195 -3.57628e-007 5.71587 2.49819 
-2.21033 8.16147 177.195 -1.47938 5.52111 2.49819 
-4.24203 7.31991 177.195 -2.85793 4.95009 2.49819 
-5.98669 5.98118 177.195 -4.04173 4.04173 2.49819 
-7.32542 4.23653 177.195 -4.95009 2.85794 2.49819 
-8.16698 2.20482 177.195 -5.52111 1.47937 2.49819 
-8.45402 0.0245378 177.195 -5.71587 -8.56794e-006 2.49819 
-8.16698 -2.15574 177.195 -5.52111 -1.47938 2.4982 
-7.32542 -4.18744 177.195 -4.95009 -2.85793 2.4982 
-5.98669 -5.9321 177.195 -4.04173 -4.04173 2.4982 
-4.24203 -7.27083 177.195 -2.85793 -4.95009 2.4982 
-2.21033 -8.11239 177.195 -1.47937 -5.52111 2.4982 
-0.030047 -8.39942 177.195 -2.38419e-007 -5.71587 2.4982 
2.15024 -8.11239 177.195 1.47937 -5.52111 2.4982 
4.18194 -7.27083 177.195 2.85794 -4.95009 2.4982 
5.9266 -5.9321 177.195 4.04173 -4.04173 2.4982 
7.26532 -4.18744 177.195 4.95009 -2.85793 2.4982 
8.10688 -2.15574 177.195 5.52111 -1.47938 2.4982 
4.18193 0.0245365 186.832 5.71587 -1.71361e-005 2.49819 
4.03841 1.11468 186.832 5.52111 1.47938 2.4982 
3.61764 2.13053 186.832 4.95009 2.85794 2.49819 
2.94827 3.00286 186.832 4.04173 4.04173 2.4982 
2.07594 3.67223 186.832 2.85794 4.95009 2.4982 
1.06009 4.09301 186.832 1.47938 5.52111 2.4982 
-0.030049 4.23653 186.832 -7.7486e-007 5.71587 2.4982 
-1.12019 4.09301 186.832 -1.47938 5.52111 2.4982 
-2.13604 3.67223 186.832 -2.85794 4.95009 2.4982 
-3.00837 3.00286 186.832 -4.04173 4.04173 2.4982 
-3.67773 2.13053 186.832 -4.95009 2.85793 2.4982 
-4.09851 1.11468 186.832 -5.52111 1.47938 2.49819 
-4.24203 0.0245365 186.832 -5.71587 -1.81345e-005 2.49819 
-4.09851 -1.0656 186.832 -5.5211 -1.47939 2.49819 
-3.67773 -2.08145 186.832 -4.95009 -2.85794 2.49819 
-3.00837 -2.95378 186.832 -4.04173 -4.04173 2.49819 
-2.13604 -3.62314 186.832 -2.85794 -4.95009 2.49819 
-1.12019 -4.04392 186.832 -1.47938 -5.52111 2.49819 
-0.030048 -4.18744 186.832 -1.04308e-007 -5.71587 2.49819 
1.06009 -4.04392 186.832 1.47938 -5.52111 2.49819 
2.07594 -3.62314 186.832 2.85794 -4.95009 2.49819 
2.94827 -2.95378 186.832 4.04173 -4.04173 2.49819 
3.61764 -2.08145 186.832 4.95009 -2.85793 2.49819 
4.03841 -1.0656 186.832 5.52111 -1.47939 2.49819 
-0.030048 0.0245352 196.469 0.0951501 -0.0125273 0.0415866 
-0.030048 0.0245352 196.469 0.0951506 0.0125268 0.0415869 
-0.030048 0.0245352 196.469 0.0886658 0.0367266 0.0415866 
-0.030048 0.0245352 196.469 0.0761391 0.0584235 0.0415866 
-0.030048 0.0245352 196.469 0.0584235 0.076139 0.0415866 
-0.030048 0.0245352 196.469 0.0367268 0.0886663 0.0415869 
-0.030048 0.0245352 196.469 0.0125268 0.0951506 0.0415869 
-0.030048 0.0245352 196.469 -0.0125268 0.0951506 0.0415869 
-0.030048 0.0245352 196.469 -0.0367268 0.0886663 0.0415869 
-0.030048 0.0245352 196.469 -0.0584242 0.0761399 0.0415871 
-0.030048 0.0245352 196.469 -0.0761395 0.0584238 0.0415869 
-0.030048 0.0245352 196.469 -0.0886668 0.036727 0.0415871 
-0.030048 0.0245352 196.469 -0.0951506 0.0125268 0.0415869 
-0.030048 0.0245352 196.469 -0.0951511 -0.0125275 0.0415871 
-0.030048 0.0245352 196.469 -0.0886658 -0.0367266 0.0415866 
-0.030048 0.0245352 196.469 -0.0761386 -0.0584233 0.0415864 
-0.030048 0.0245352 196.469 -0.0584233 -0.0761386 0.0415864 
-0.030048 0.0245352 196.469 -0.0367266 -0.0886658 0.0415866 
-0.030048 0.0245352 196.469 -0.0125267 -0.0951496 0.0415864 
-0.030048 0.0245352 196.469 0.0125267 -0.0951496 0.0415864 
-0.030048 0.0245352 196.469 0.0367267 -0.0886658 0.0415866 
-0.030048 0.0245352 196.469 0.0584238 -0.0761395 0.0415868 
-0.030048 0.0245352 196.469 0.0761391 -0.0584235 0.0415866 
-0.030048 0.0245352 196.469 0.0886663 -0.0367267 0.0415868 
-0.030048 0.0245352 196.469 0 0 0 
3 0 2 1 
3 0 3 2 
3 0 4 3 
3 0 5 4 
3 0 6 5 
3 0 7 6 
3 0 8 7 
3 0 9 8 
3 0 10 9 
3 0 11 10 
3 0 12 11 
3 0 13 12 
3 0 14 13 
3 0 15 14 
3 0 16 15 
3 0 17 16 
3 0 18 17 
3 0 1 18 
3 1 20 19 
3 1 2 20 
3 2 21 20 
3 2 3 21 
3 3 22 21 
3 3 4 22 
3 4 23 22 
3 4 5 23 
3 5 24 23 
3 5 6 24 
3 6 25 24 
3 6 7 25 
3 7 26 25 
3 7 8 26 
3 8 27 26 
3 8 9 27 
3 9 28 27 
3 9 10 28 
3 10 29 28 
3 10 11 29 
3 11 30 29 
3 11 12 30 
3 12 31 30 
3 12 13 31 
3 13 32 31 
3 13 14 32 
3 14 33 32 
3 14 15 33 
3 15 34 33 
3 15 16 34 
3 16 35 34 
3 16 17 35 
3 17 36 35 
3 17 18 36 
3 18 19 36 
3 18 1 19 
3 19 38 37 
3 19 20 38 
3 20 39 38 
3 20 21 39 
3 21 40 39 
3 21 22 40 
3 22 41 40 
3 22 23 41 
3 23 42 41 
3 23 24 42 
3 24 43 42 
3 24 25 43 
3 25 44 43 
3 25 26 44 
3 26 45 44 
3 26 27 45 
3 27 46 45 
3 27 28 46 
3 28 47 46 
3 28 29 47 
3 29 48 47 
3 29 30 48 
3 30 49 48 
3 30 31 49 
3 31 50 49 
3 31 32 50 
3 32 51 50 
3 32 33 51 
3 33 52 51 
3 33 34 52 
3 34 53 52 
3 34 35 53 
3 35 54 53 
3 35 36 54 
3 36 37 54 
3 36 19 37 
3 37 56 55 
3 37 38 56 
3 38 57 56 
3 38 39 57 
3 39 58 57 
3 39 40 58 
3 40 59 58 
3 40 41 59 
3 41 60 59 
3 41 42 60 
3 42 61 60 
3 42 43 61 
3 43 62 61 
3 43 44 62 
3 44 63 62 
3 44 45 63 
3 45 64 63 
3 45 46 64 
3 46 65 64 
3 46 47 65 
3 47 66 65 
3 47 48 66 
3 48 67 66 
3 48 49 67 
3 49 68 67 
3 49 50 68 
3 50 69 68 
3 50 51 69 
3 51 70 69 
3 51 52 70 
3 52 71 70 
3 52 53 71 
3 53 72 71 
3 53 54 72 
3 54 55 72 
3 54 37 55 
3 55 74 73 
3 55 56 74 
3 56 75 74 
3 56 57 75 
3 57 76 75 
3 57 58 76 
3 58 77 76 
3 58 59 77 
3 59 78 77 
3 59 60 78 
3 60 79 78 
3 60 61 79 
3 61 80 79 
3 61 62 80 
3 62 81 80 
3 62 63 81 
3 63 82 81 
3 63 64 82 
3 64 83 82 
3 64 65 83 
3 65 84 83 
3 65 66 84 
3 66 85 84 
3 66 67 85 
3 67 86 85 
3 67 68 86 
3 68 87 86 
3 68 69 87 
3 69 88 87 
3 69 70 88 
3 70 89 88 
3 70 71 89 
3 71 90 89 
3 71 72 90 
3 72 73 90 
3 72 55 73 
3 73 92 91 
3 73 74 92 
3 74 93 92 
3 74 75 93 
3 75 94 93 
3 75 76 94 
3 76 95 94 
3 76 77 95 
3 77 96 95 
3 77 78 96 
3 78 97 96 
3 78 79 97 
3 79 98 97 
3 79 80 98 
3 80 99 98 
3 80 81 99 
3 81 100 99 
3 81 82 100 
3 82 101 100 
3 82 83 101 
3 83 102 101 
3 83 84 102 
3 84 103 102 
3 84 85 103 
3 85 104 103 
3 85 86 104 
3 86 105 104 
3 86 87 105 
3 87 106 105 
3 87 88 106 
3 88 107 106 
3 88 89 107 
3 89 108 107 
3 89 90 108 
3 90 91 108 
3 90 73 91 
3 109 91 92 
3 109 92 93 
3 109 93 94 
3 109 94 95 
3 109 95 96 
3 109 96 97 
3 109 97 98 
3 109 98 99 
3 109 99 100 
3 109 100 101 
3 109 101 102 
3 109 102 103 
3 109 103 104 
3 109 104 105 
3 109 105 106 
3 109 106 107 
3 109 107 108 
3 109 108 91 
3 110 112 111 
3 110 113 112 
3 110 114 113 
3 110 115 114 
3 110 116 115 
3 110 117 116 
3 110 118 117 
3 110 119 118 
3 110 120 119 
3 110 121 120 
3 110 122 121 
3 110 123 122 
3 110 124 123 
3 110 125 124 
3 110 126 125 
3 110 127 126 
3 110 128 127 
3 110 129 128 
3 110 130 129 
3 110 131 130 
3 110 132 131 
3 110 133 132 
3 110 134 133 
3 110 111 134 
3 111 136 135 
3 111 112 136 
3 112 137 136 
3 112 113 137 
3 113 138 137 
3 113 114 138 
3 114 139 138 
3 114 115 139 
3 115 140 139 
3 115 116 140 
3 116 141 140 
3 116 117 141 
3 117 142 141 
3 117 118 142 
3 118 143 142 
3 118 119 143 
3 119 144 143 
3 119 120 144 
3 120 145 144 
3 120 121 145 
3 121 146 145 
3 121 122 146 
3 122 147 146 
3 122 123 147 
3 123 148 147 
3 123 124 148 
3 124 149 148 
3 124 125 149 
3 125 150 149 
3 125 126 150 
3 126 151 150 
3 126 127 151 
3 127 152 151 
3 127 128 152 
3 128 153 152 
3 128 129 153 
3 129 154 153 
3 129 130 154 
3 130 155 154 
3 130 131 155 
3 131 156 155 
3 131 132 156 
3 132 157 156 
3 132 133 157 
3 133 158 157 
3 133 134 158 
3 134 135 158 
3 134 111 135 
3 135 160 159 
3 135 136 160 
3 136 161 160 
3 136 137 161 
3 137 162 161 
3 137 138 162 
3 138 163 162 
3 138 139 163 
3 139 164 163 
3 139 140 164 
3 140 165 164 
3 140 141 165 
3 141 166 165 
3 141 142 166 
3 142 167 166 
3 142 143 167 
3 143 168 167 
3 143 144 168 
3 144 169 168 
3 144 145 169 
3 145 170 169 
3 145 146 170 
3 146 171 170 
3 146 147 171 
3 147 172 171 
3 147 148 172 
3 148 173 172 
3 148 149 173 
3 149 174 173 
3 149 150 174 
3 150 175 174 
3 150 151 175 
3 151 176 175 
3 151 152 176 
3 152 177 176 
3 152 153 177 
3 153 178 177 
3 153 154 178 
3 154 179 178 
3 154 155 179 
3 155 180 179 
3 155 156 180 
3 156 181 180 
3 156 157 181 
3 157 182 181 
3 157 158 182 
3 158 159 182 
3 158 135 159 
3 159 184 183 
3 159 160 184 
3 160 185 184 
3 160 161 185 
3 161 186 185 
3 161 162 186 
3 162 187 186 
3 162 163 187 
3 163 188 187 
3 163 164 188 
3 164 189 188 
3 164 165 189 
3 165 190 189 
3 165 166 190 
3 166 191 190 
3 166 167 191 
3 167 192 191 
3 167 168 192 
3 168 193 192 
3 168 169 193 
3 169 194 193 
3 169 170 194 
3 170 195 194 
3 170 171 195 
3 171 196 195 
3 171 172 196 
3 172 197 196 
3 172 173 197 
3 173 198 197 
3 173 174 198 
3 174 199 198 
3 174 175 199 
3 175 200 199 
3 175 176 200 
3 176 201 200 
3 176 177 201 
3 177 202 201 
3 177 178 202 
3 178 203 202 
3 178 179 203 
3 179 204 203 
3 179 180 204 
3 180 205 204 
3 180 181 205 
3 181 206 205 
3 181 182 206 
3 182 183 206 
3 182 159 183 
3 183 208 207 
3 183 184 208 
3 184 209 208 
3 184 185 209 
3 185 210 209 
3 185 186 210 
3 186 211 210 
3 186 187 211 
3 187 212 211 
3 187 188 212 
3 188 213 212 
3 188 189 213 
3 189 214 213 
3 189 190 214 
3 190 215 214 
3 190 191 215 
3 191 216 215 
3 191 192 216 
3 192 217 216 
3 192 193 217 
3 193 218 217 
3 193 194 218 
3 194 219 218 
3 194 195 219 
3 195 220 219 
3 195 196 220 
3 196 221 220 
3 196 197 221 
3 197 222 221 
3 197 198 222 
3 198 223 222 
3 198 199 223 
3 199 224 223 
3 199 200 224 
3 200 225 224 
3 200 201 225 
3 201 226 225 
3 201 202 226 
3 202 227 226 
3 202 203 227 
3 203 228 227 
3 203 204 228 
3 204 229 228 
3 204 205 229 
3 205 230 229 
3 205 206 230 
3 206 207 230 
3 206 183 207 
3 207 232 231 
3 207 208 232 
3 208 233 232 
3 208 209 233 
3 209 234 233 
3 209 210 234 
3 210 235 234 
3 210 211 235 
3 211 236 235 
3 211 212 236 
3 212 237 236 
3 212 213 237 
3 213 238 237 
3 213 214 238 
3 214 239 238 
3 214 215 239 
3 215 240 239 
3 215 216 240 
3 216 241 240 
3 216 217 241 
3 217 242 241 
3 217 218 242 
3 218 243 242 
3 218 219 243 
3 219 244 243 
3 219 220 244 
3 220 245 244 
3 220 221 245 
3 221 246 245 
3 221 222 246 
3 222 247 246 
3 222 223 247 
3 223 248 247 
3 223 224 248 
3 224 249 248 
3 224 225 249 
3 225 250 249 
3 225 226 250 
3 226 251 250 
3 226 227 251 
3 227 252 251 
3 227 228 252 
3 228 253 252 
3 228 229 253 
3 229 254 253 
3 229 230 254 
3 230 231 254 
3 230 207 231 
3 255 231 232 
3 255 232 233 
3 255 233 234 
3 255 234 235 
3 255 235 236 
3 255 236 237 
3 255 237 238 
3 255 238 239 
3 255 239 240 
3 255 240 241 
3 255 241 242 
3 255 242 243 
3 255 243 244 
3 255 244 245 
3 255 245 246 
3 255 246 247 
3 255 247 248 
3 255 248 249 
3 255 249 250 
3 255 250 251 
3 255 251 252 
3 255 252 253 
3 255 253 254 
3 255 254 231 
