ply
format ascii 1.0
comment VCGLIB generated
element vertex 256
property float x
property float y
property float z
property float nx
property float ny
property float nz
element face 504
property list uchar int vertex_indices
end_header
0.030888 0.041176 0.006591 -3.36988e-007 6.28319 1.9456e-007 
8.96414 0.041176 0.006591 3.09386 2.79253 1.19209e-007 
8.4254 0.041176 3.06194 2.90728 2.79253 1.05816 
6.87415 0.041176 5.74877 2.37004 2.79253 1.9887 
4.49751 0.041176 7.74301 1.54693 2.79253 2.67937 
1.58213 0.041176 8.80412 0.537244 2.79253 3.04686 
-1.52035 0.041175 8.80412 -0.537245 2.79253 3.04686 
-4.43574 0.041175 7.74301 -1.54693 2.79253 2.67937 
-6.81238 0.041175 5.74877 -2.37004 2.79253 1.9887 
-8.36362 0.041175 3.06194 -2.90728 2.79253 1.05816 
-8.90236 0.041175 0.00659 -3.09387 2.79253 -5.36442e-007 
-8.36362 0.041175 -3.04876 -2.90728 2.79253 -1.05816 
-6.81238 0.041176 -5.73559 -2.37004 2.79253 -1.9887 
-4.43574 0.041176 -7.72983 -1.54693 2.79253 -2.67937 
-1.52035 0.041176 -8.79094 -0.537243 2.79253 -3.04686 
1.58213 0.041176 -8.79094 0.537245 2.79253 -3.04686 
4.49752 0.041176 -7.72983 1.54693 2.79253 -2.67937 
6.87416 0.041176 -5.73559 2.37004 2.79253 -1.9887 
8.4254 0.041176 -3.04876 2.90728 2.79253 -1.05816 
8.96414 -29.5255 0.00659 6.18773 -2.09617e-007 1.78814e-007 
8.4254 -29.5255 3.06194 5.81456 -2.65436e-007 2.11633 
6.87415 -29.5255 5.74877 4.74008 -2.7654e-007 3.9774 
4.49751 -29.5255 7.74301 3.09386 -2.53408e-007 5.35873 
1.58213 -29.5255 8.80412 1.07449 -2.69101e-007 6.09373 
-1.52036 -29.5255 8.80412 -1.07449 -2.56417e-007 6.09373 
-4.43574 -29.5255 7.74301 -3.09387 -1.49376e-007 5.35873 
-6.81238 -29.5255 5.74877 -4.74008 -8.40174e-008 3.9774 
-8.36362 -29.5255 3.06194 -5.81457 4.44454e-008 2.11633 
-8.90236 -29.5255 0.006589 -6.18773 1.9267e-007 -8.34465e-007 
-8.36362 -29.5255 -3.04876 -5.81456 2.68362e-007 -2.11633 
-6.81238 -29.5255 -5.73559 -4.74008 3.01785e-007 -3.9774 
-4.43574 -29.5255 -7.72983 -3.09386 2.65384e-007 -5.35873 
-1.52035 -29.5255 -8.79094 -1.07449 2.73455e-007 -6.09373 
1.58213 -29.5255 -8.79094 1.07449 2.72814e-007 -6.09373 
4.49752 -29.5255 -7.72983 3.09387 2.07716e-007 -5.35873 
6.87416 -29.5255 -5.73559 4.74008 1.14518e-007 -3.97739 
8.4254 -29.5255 -3.04876 5.81457 -5.1176e-008 -2.11633 
8.96414 -59.0921 0.006589 6.18773 -1.92009e-007 5.36442e-007 
8.4254 -59.0921 3.06194 5.81456 -2.93085e-007 2.11633 
6.87415 -59.0921 5.74877 4.74008 -3.09107e-007 3.9774 
4.49751 -59.0921 7.74301 3.09386 -2.97025e-007 5.35873 
1.58213 -59.0921 8.80412 1.07449 -3.14949e-007 6.09372 
-1.52036 -59.0921 8.80412 -1.07449 -2.61027e-007 6.09372 
-4.43574 -59.0921 7.74301 -3.09387 -1.3985e-007 5.35873 
-6.81238 -59.0921 5.74877 -4.74008 -1.95546e-008 3.9774 
-8.36362 -59.0921 3.06194 -5.81456 9.34957e-008 2.11633 
-8.90236 -59.0921 0.006587 -6.18773 2.10947e-007 -1.01328e-006 
-8.36362 -59.0921 -3.04876 -5.81456 2.61731e-007 -2.11633 
-6.81238 -59.0921 -5.7356 -4.74008 3.29985e-007 -3.9774 
-4.43574 -59.0921 -7.72983 -3.09386 3.55868e-007 -5.35873 
-1.52035 -59.0921 -8.79095 -1.07449 3.11138e-007 -6.09372 
1.58213 -59.0921 -8.79094 1.07449 2.3147e-007 -6.09372 
4.49751 -59.0921 -7.72983 3.09387 9.34148e-008 -5.35873 
6.87416 -59.0921 -5.73559 4.74008 -1.75705e-008 -3.97739 
8.4254 -59.0921 -3.04876 5.81456 -1.06244e-007 -2.11633 
8.96414 -88.6587 0.006588 6.18773 -1.90633e-007 5.66244e-007 
8.42539 -88.6587 3.06194 5.81456 -2.91231e-007 2.11633 
6.87415 -88.6587 5.74877 4.74008 -3.54738e-007 3.9774 
4.49751 -88.6587 7.74301 3.09386 -3.10533e-007 5.35873 
1.58213 -88.6587 8.80412 1.07449 -2.84461e-007 6.09372 
-1.52036 -88.6587 8.80412 -1.07449 -2.91156e-007 6.09372 
-4.43574 -88.6587 7.74301 -3.09386 -2.09463e-007 5.35873 
-6.81238 -88.6587 5.74877 -4.74008 -4.60543e-008 3.9774 
-8.36362 -88.6587 3.06194 -5.81456 9.23682e-008 2.11633 
-8.90236 -88.6587 0.006586 -6.18773 1.99635e-007 -8.9407e-007 
-8.36362 -88.6587 -3.04876 -5.81456 2.88302e-007 -2.11633 
-6.81238 -88.6587 -5.7356 -4.74007 3.06084e-007 -3.9774 
-4.43574 -88.6587 -7.72984 -3.09386 3.2122e-007 -5.35873 
-1.52035 -88.6587 -8.79095 -1.07449 3.24548e-007 -6.09372 
1.58213 -88.6587 -8.79095 1.07449 3.04171e-007 -6.09372 
4.49751 -88.6587 -7.72983 3.09387 2.07157e-007 -5.35873 
6.87415 -88.6587 -5.73559 4.74008 2.96499e-008 -3.97739 
8.4254 -88.6587 -3.04876 5.81456 -9.88329e-008 -2.11633 
8.96413 -118.225 0.006586 6.18773 -1.14116e-007 2.08616e-007 
8.42539 -118.225 3.06194 5.81456 -2.44999e-007 2.11633 
6.87415 -118.225 5.74877 4.74008 -3.35033e-007 3.9774 
4.49751 -118.225 7.74301 3.09386 -3.4556e-007 5.35873 
1.58213 -118.225 8.80412 1.07449 -2.76062e-007 6.09372 
-1.52036 -118.225 8.80412 -1.07449 -1.60162e-007 6.09372 
-4.43574 -118.225 7.74301 -3.09386 -9.90625e-008 5.35873 
-6.81238 -118.225 5.74877 -4.74008 -5.1962e-008 3.97739 
-8.36362 -118.225 3.06194 -5.81456 5.63734e-009 2.11633 
-8.90236 -118.225 0.006585 -6.18773 9.05303e-008 -8.04663e-007 
-8.36362 -118.225 -3.04877 -5.81456 2.39131e-007 -2.11633 
-6.81238 -118.225 -5.7356 -4.74007 3.49549e-007 -3.9774 
-4.43574 -118.225 -7.72984 -3.09386 3.0331e-007 -5.35873 
-1.52035 -118.225 -8.79095 -1.07449 2.31349e-007 -6.09372 
1.58213 -118.225 -8.79095 1.07449 1.5814e-007 -6.09372 
4.49751 -118.225 -7.72983 3.09387 1.35947e-007 -5.35873 
6.87415 -118.225 -5.73559 4.74008 1.37731e-007 -3.97739 
8.42539 -118.225 -3.04876 5.81456 3.66558e-008 -2.11633 
8.96413 -147.792 0.006585 3.09386 -2.79253 3.42727e-007 
8.42539 -147.792 3.06194 2.90728 -2.79253 1.05816 
6.87415 -147.792 5.74877 2.37004 -2.79253 1.9887 
4.49751 -147.792 7.74301 1.54693 -2.79253 2.67937 
1.58213 -147.792 8.80412 0.537244 -2.79253 3.04686 
-1.52036 -147.792 8.80412 -0.537244 -2.79253 3.04686 
-4.43574 -147.792 7.74301 -1.54693 -2.79253 2.67937 
-6.81238 -147.792 5.74877 -2.37004 -2.79253 1.9887 
-8.36362 -147.792 3.06193 -2.90728 -2.79253 1.05816 
-8.90236 -147.792 0.006583 -3.09386 -2.79253 -5.96046e-007 
-8.36362 -147.792 -3.04877 -2.90728 -2.79253 -1.05816 
-6.81238 -147.792 -5.7356 -2.37004 -2.79253 -1.9887 
-4.43574 -147.792 -7.72984 -1.54693 -2.79253 -2.67937 
-1.52036 -147.792 -8.79095 -0.537243 -2.79253 -3.04686 
1.58213 -147.792 -8.79095 0.537245 -2.79253 -3.04686 
4.49751 -147.792 -7.72984 1.54693 -2.79253 -2.67936 
6.87415 -147.792 -5.7356 2.37004 -2.79253 -1.9887 
8.42539 -147.792 -3.04876 2.90728 -2.79253 -1.05816 
0.030884 -147.792 0.006585 0 -6.28319 0 
-0.030048 -148.284 0.024563 0 6.28318 0 
21.0299 -148.284 0.024563 2.76278 1.67228 3.27826e-007 
20.3123 -148.284 5.47527 2.66864 1.67228 0.715061 
18.2084 -148.284 10.5545 2.39264 1.67228 1.38139 
14.8616 -148.284 14.9162 1.95358 1.67228 1.95358 
10.4999 -148.284 18.263 1.38139 1.67228 2.39264 
5.42066 -148.284 20.3669 0.715061 1.67228 2.66864 
-0.030049 -148.284 21.0845 7.45058e-008 1.67228 2.76278 
-5.48076 -148.284 20.3669 -0.715061 1.67228 2.66864 
-10.56 -148.284 18.263 -1.38139 1.67228 2.39264 
-14.9217 -148.284 14.9162 -1.95358 1.67228 1.95358 
-18.2685 -148.284 10.5545 -2.39264 1.67228 1.38139 
-20.3724 -148.284 5.47527 -2.66864 1.67228 0.715061 
-21.09 -148.284 0.024561 -2.76278 1.67228 -4.02331e-007 
-20.3724 -148.284 -5.42615 -2.66864 1.67228 -0.715062 
-18.2685 -148.284 -10.5054 -2.39264 1.67228 -1.38139 
-14.9217 -148.284 -14.8671 -1.95358 1.67228 -1.95358 
-10.56 -148.284 -18.2139 -1.38139 1.67228 -2.39264 
-5.48075 -148.284 -20.3178 -0.715061 1.67228 -2.66864 
-0.030046 -148.284 -21.0354 3.8743e-007 1.67228 -2.76278 
5.42066 -148.284 -20.3178 0.715061 1.67228 -2.66864 
10.4999 -148.284 -18.2139 1.38139 1.67228 -2.39264 
14.8616 -148.284 -14.867 1.95358 1.67228 -1.95358 
18.2084 -148.284 -10.5054 2.39264 1.67228 -1.38139 
20.3123 -148.284 -5.42614 2.66864 1.67228 -0.715061 
16.8179 -157.921 0.024562 5.71587 -2.49819 -3.42727e-007 
16.2438 -157.921 4.38513 5.52111 -2.49819 1.47938 
14.5607 -157.921 8.44853 4.95009 -2.49819 2.85794 
11.8832 -157.921 11.9379 4.04173 -2.49819 4.04173 
8.39392 -157.921 14.6153 2.85793 -2.49819 4.95009 
4.33052 -157.921 16.2984 1.47938 -2.49819 5.52111 
-0.030049 -157.921 16.8725 5.96046e-008 -2.49819 5.71587 
-4.39061 -157.921 16.2984 -1.47938 -2.49819 5.52111 
-8.45402 -157.921 14.6153 -2.85794 -2.49819 4.95009 
-11.9433 -157.921 11.9379 -4.04173 -2.49819 4.04173 
-14.6208 -157.921 8.44853 -4.95009 -2.49819 2.85793 
-16.3039 -157.921 4.38513 -5.52111 -2.49819 1.47938 
-16.878 -157.921 0.024561 -5.71587 -2.49819 -1.49012e-007 
-16.3039 -157.921 -4.33601 -5.52111 -2.49819 -1.47938 
-14.6208 -157.921 -8.39941 -4.95009 -2.49819 -2.85794 
-11.9433 -157.921 -11.8887 -4.04173 -2.49819 -4.04173 
-8.45401 -157.921 -14.5662 -2.85793 -2.49819 -4.95009 
-4.39061 -157.921 -16.2493 -1.47938 -2.49819 -5.52111 
-0.030046 -157.921 -16.8234 2.38419e-007 -2.49819 -5.71587 
4.33052 -157.921 -16.2493 1.47938 -2.49819 -5.52111 
8.39392 -157.921 -14.5662 2.85794 -2.49819 -4.95009 
11.8832 -157.921 -11.8887 4.04173 -2.49819 -4.04173 
14.5607 -157.921 -8.3994 4.95009 -2.49819 -2.85793 
16.2438 -157.921 -4.336 5.52111 -2.49819 -1.47938 
12.6059 -167.558 0.024562 5.71587 -2.49819 -2.68221e-007 
12.1753 -167.558 3.29499 5.52111 -2.49819 1.47938 
10.913 -167.558 6.34254 4.95009 -2.49819 2.85794 
8.90492 -167.558 8.95953 4.04173 -2.49819 4.04173 
6.28793 -167.558 10.9676 2.85793 -2.49819 4.95009 
3.24038 -167.558 12.23 1.47938 -2.49819 5.52111 
-0.030049 -167.558 12.6605 -9.53674e-007 -2.49819 5.71587 
-3.30047 -167.558 12.23 -1.47938 -2.49819 5.52111 
-6.34802 -167.558 10.9676 -2.85793 -2.49819 4.95009 
-8.96502 -167.558 8.95953 -4.04173 -2.49819 4.04173 
-10.9731 -167.558 6.34254 -4.95009 -2.49819 2.85793 
-12.2354 -167.558 3.29499 -5.52111 -2.49819 1.47938 
-12.666 -167.558 0.024561 -5.71587 -2.4982 -6.85453e-007 
-12.2354 -167.558 -3.24586 -5.52111 -2.4982 -1.47938 
-10.9731 -167.558 -6.29342 -4.95009 -2.4982 -2.85794 
-8.96501 -167.558 -8.91041 -4.04173 -2.49819 -4.04173 
-6.34802 -167.558 -10.9185 -2.85793 -2.4982 -4.95009 
-3.30047 -167.558 -12.1808 -1.47938 -2.4982 -5.52111 
-0.030047 -167.558 -12.6114 6.85453e-007 -2.4982 -5.71587 
3.24038 -167.558 -12.1808 1.47938 -2.49819 -5.52111 
6.28793 -167.558 -10.9185 2.85794 -2.49819 -4.95009 
8.90492 -167.558 -8.9104 4.04173 -2.4982 -4.04173 
10.913 -167.558 -6.29341 4.95009 -2.4982 -2.85793 
12.1753 -167.558 -3.24586 5.52111 -2.49819 -1.47938 
8.39392 -177.195 0.024562 5.71587 -2.49819 -7.94232e-006 
8.10688 -177.195 2.20484 5.52111 -2.49819 1.47938 
7.26532 -177.195 4.23655 4.95009 -2.49819 2.85793 
5.9266 -177.195 5.98121 4.04173 -2.49819 4.04173 
4.18193 -177.195 7.31993 2.85793 -2.49819 4.95009 
2.15023 -177.195 8.16149 1.47938 -2.49819 5.52111 
-0.030049 -177.195 8.44853 -3.57628e-007 -2.49819 5.71587 
-2.21033 -177.195 8.16149 -1.47938 -2.49819 5.52111 
-4.24203 -177.195 7.31993 -2.85793 -2.49819 4.95009 
-5.98669 -177.195 5.9812 -4.04173 -2.49819 4.04173 
-7.32542 -177.195 4.23655 -4.95009 -2.49819 2.85794 
-8.16698 -177.195 2.20484 -5.52111 -2.49819 1.47937 
-8.45402 -177.195 0.024561 -5.71587 -2.49819 -8.24034e-006 
-8.16698 -177.195 -2.15572 -5.52111 -2.4982 -1.47938 
-7.32542 -177.195 -4.18742 -4.95009 -2.4982 -2.85793 
-5.98669 -177.195 -5.93208 -4.04173 -2.4982 -4.04173 
-4.24203 -177.195 -7.27081 -2.85793 -2.4982 -4.95009 
-2.21033 -177.195 -8.11237 -1.47937 -2.4982 -5.52111 
-0.030047 -177.195 -8.3994 -2.38419e-007 -2.4982 -5.71587 
2.15024 -177.195 -8.11237 1.47937 -2.4982 -5.52111 
4.18194 -177.195 -7.27081 2.85794 -2.4982 -4.95009 
5.9266 -177.195 -5.93208 4.04173 -2.4982 -4.04173 
7.26532 -177.195 -4.18742 4.95009 -2.4982 -2.85793 
8.10688 -177.195 -2.15572 5.52111 -2.4982 -1.47938 
4.18193 -186.832 0.024561 5.71587 -2.49819 -1.68085e-005 
4.03841 -186.832 1.1147 5.52111 -2.4982 1.47938 
3.61764 -186.832 2.13055 4.95009 -2.49819 2.85794 
2.94827 -186.832 3.00288 4.04173 -2.4982 4.04173 
2.07594 -186.832 3.67225 2.85794 -2.4982 4.95009 
1.06009 -186.832 4.09303 1.47938 -2.4982 5.52111 
-0.030049 -186.832 4.23655 -7.7486e-007 -2.4982 5.71587 
-1.12019 -186.832 4.09303 -1.47938 -2.4982 5.52111 
-2.13604 -186.832 3.67225 -2.85794 -2.4982 4.95009 
-3.00837 -186.832 3.00288 -4.04173 -2.4982 4.04173 
-3.67773 -186.832 2.13055 -4.95009 -2.4982 2.85793 
-4.09851 -186.832 1.1147 -5.52111 -2.49819 1.47938 
-4.24203 -186.832 0.024561 -5.71587 -2.49819 -1.78069e-005 
-4.09851 -186.832 -1.06558 -5.5211 -2.49819 -1.47939 
-3.67773 -186.832 -2.08143 -4.95009 -2.49819 -2.85794 
-3.00837 -186.832 -2.95376 -4.04173 -2.49819 -4.04173 
-2.13604 -186.832 -3.62312 -2.85794 -2.49819 -4.95009 
-1.12019 -186.832 -4.0439 -1.47938 -2.49819 -5.52111 
-0.030048 -186.832 -4.18742 -1.04308e-007 -2.49819 -5.71587 
1.06009 -186.832 -4.0439 1.47938 -2.49819 -5.52111 
2.07594 -186.832 -3.62312 2.85794 -2.49819 -4.95009 
2.94827 -186.832 -2.95376 4.04173 -2.49819 -4.04173 
3.61764 -186.832 -2.08143 4.95009 -2.49819 -2.85793 
4.03841 -186.832 -1.06558 5.52111 -2.49819 -1.47939 
-0.030048 -196.469 0.024561 0.0951501 -0.0415866 -0.0125273 
-0.030048 -196.469 0.024561 0.0951506 -0.0415869 0.0125268 
-0.030048 -196.469 0.024561 0.0886658 -0.0415866 0.0367266 
-0.030048 -196.469 0.024561 0.0761391 -0.0415866 0.0584235 
-0.030048 -196.469 0.024561 0.0584235 -0.0415866 0.076139 
-0.030048 -196.469 0.024561 0.0367268 -0.0415869 0.0886663 
-0.030048 -196.469 0.024561 0.0125268 -0.0415869 0.0951506 
-0.030048 -196.469 0.024561 -0.0125268 -0.0415869 0.0951506 
-0.030048 -196.469 0.024561 -0.0367268 -0.0415869 0.0886663 
-0.030048 -196.469 0.024561 -0.0584242 -0.0415871 0.0761399 
-0.030048 -196.469 0.024561 -0.0761395 -0.0415869 0.0584238 
-0.030048 -196.469 0.024561 -0.0886668 -0.0415871 0.036727 
-0.030048 -196.469 0.024561 -0.0951506 -0.0415869 0.0125268 
-0.030048 -196.469 0.024561 -0.0951511 -0.0415871 -0.0125275 
-0.030048 -196.469 0.024561 -0.0886658 -0.0415866 -0.0367266 
-0.030048 -196.469 0.024561 -0.0761386 -0.0415864 -0.0584233 
-0.030048 -196.469 0.024561 -0.0584233 -0.0415864 -0.0761386 
-0.030048 -196.469 0.024561 -0.0367266 -0.0415866 -0.0886658 
-0.030048 -196.469 0.024561 -0.0125267 -0.0415864 -0.0951496 
-0.030048 -196.469 0.024561 0.0125267 -0.0415864 -0.0951496 
-0.030048 -196.469 0.024561 0.0367267 -0.0415866 -0.0886658 
-0.030048 -196.469 0.024561 0.0584238 -0.0415868 -0.0761395 
-0.030048 -196.469 0.024561 0.0761391 -0.0415866 -0.0584235 
-0.030048 -196.469 0.024561 0.0886663 -0.0415868 -0.0367267 
-0.030048 -196.469 0.024561 0 0 0 
3 0 2 1 
3 0 3 2 
3 0 4 3 
3 0 5 4 
3 0 6 5 
3 0 7 6 
3 0 8 7 
3 0 9 8 
3 0 10 9 
3 0 11 10 
3 0 12 11 
3 0 13 12 
3 0 14 13 
3 0 15 14 
3 0 16 15 
3 0 17 16 
3 0 18 17 
3 0 1 18 
3 1 20 19 
3 1 2 20 
3 2 21 20 
3 2 3 21 
3 3 22 21 
3 3 4 22 
3 4 23 22 
3 4 5 23 
3 5 24 23 
3 5 6 24 
3 6 25 24 
3 6 7 25 
3 7 26 25 
3 7 8 26 
3 8 27 26 
3 8 9 27 
3 9 28 27 
3 9 10 28 
3 10 29 28 
3 10 11 29 
3 11 30 29 
3 11 12 30 
3 12 31 30 
3 12 13 31 
3 13 32 31 
3 13 14 32 
3 14 33 32 
3 14 15 33 
3 15 34 33 
3 15 16 34 
3 16 35 34 
3 16 17 35 
3 17 36 35 
3 17 18 36 
3 18 19 36 
3 18 1 19 
3 19 38 37 
3 19 20 38 
3 20 39 38 
3 20 21 39 
3 21 40 39 
3 21 22 40 
3 22 41 40 
3 22 23 41 
3 23 42 41 
3 23 24 42 
3 24 43 42 
3 24 25 43 
3 25 44 43 
3 25 26 44 
3 26 45 44 
3 26 27 45 
3 27 46 45 
3 27 28 46 
3 28 47 46 
3 28 29 47 
3 29 48 47 
3 29 30 48 
3 30 49 48 
3 30 31 49 
3 31 50 49 
3 31 32 50 
3 32 51 50 
3 32 33 51 
3 33 52 51 
3 33 34 52 
3 34 53 52 
3 34 35 53 
3 35 54 53 
3 35 36 54 
3 36 37 54 
3 36 19 37 
3 37 56 55 
3 37 38 56 
3 38 57 56 
3 38 39 57 
3 39 58 57 
3 39 40 58 
3 40 59 58 
3 40 41 59 
3 41 60 59 
3 41 42 60 
3 42 61 60 
3 42 43 61 
3 43 62 61 
3 43 44 62 
3 44 63 62 
3 44 45 63 
3 45 64 63 
3 45 46 64 
3 46 65 64 
3 46 47 65 
3 47 66 65 
3 47 48 66 
3 48 67 66 
3 48 49 67 
3 49 68 67 
3 49 50 68 
3 50 69 68 
3 50 51 69 
3 51 70 69 
3 51 52 70 
3 52 71 70 
3 52 53 71 
3 53 72 71 
3 53 54 72 
3 54 55 72 
3 54 37 55 
3 55 74 73 
3 55 56 74 
3 56 75 74 
3 56 57 75 
3 57 76 75 
3 57 58 76 
3 58 77 76 
3 58 59 77 
3 59 78 77 
3 59 60 78 
3 60 79 78 
3 60 61 79 
3 61 80 79 
3 61 62 80 
3 62 81 80 
3 62 63 81 
3 63 82 81 
3 63 64 82 
3 64 83 82 
3 64 65 83 
3 65 84 83 
3 65 66 84 
3 66 85 84 
3 66 67 85 
3 67 86 85 
3 67 68 86 
3 68 87 86 
3 68 69 87 
3 69 88 87 
3 69 70 88 
3 70 89 88 
3 70 71 89 
3 71 90 89 
3 71 72 90 
3 72 73 90 
3 72 55 73 
3 73 92 91 
3 73 74 92 
3 74 93 92 
3 74 75 93 
3 75 94 93 
3 75 76 94 
3 76 95 94 
3 76 77 95 
3 77 96 95 
3 77 78 96 
3 78 97 96 
3 78 79 97 
3 79 98 97 
3 79 80 98 
3 80 99 98 
3 80 81 99 
3 81 100 99 
3 81 82 100 
3 82 101 100 
3 82 83 101 
3 83 102 101 
3 83 84 102 
3 84 103 102 
3 84 85 103 
3 85 104 103 
3 85 86 104 
3 86 105 104 
3 86 87 105 
3 87 106 105 
3 87 88 106 
3 88 107 106 
3 88 89 107 
3 89 108 107 
3 89 90 108 
3 90 91 108 
3 90 73 91 
3 109 91 92 
3 109 92 93 
3 109 93 94 
3 109 94 95 
3 109 95 96 
3 109 96 97 
3 109 97 98 
3 109 98 99 
3 109 99 100 
3 109 100 101 
3 109 101 102 
3 109 102 103 
3 109 103 104 
3 109 104 105 
3 109 105 106 
3 109 106 107 
3 109 107 108 
3 109 108 91 
3 110 112 111 
3 110 113 112 
3 110 114 113 
3 110 115 114 
3 110 116 115 
3 110 117 116 
3 110 118 117 
3 110 119 118 
3 110 120 119 
3 110 121 120 
3 110 122 121 
3 110 123 122 
3 110 124 123 
3 110 125 124 
3 110 126 125 
3 110 127 126 
3 110 128 127 
3 110 129 128 
3 110 130 129 
3 110 131 130 
3 110 132 131 
3 110 133 132 
3 110 134 133 
3 110 111 134 
3 111 136 135 
3 111 112 136 
3 112 137 136 
3 112 113 137 
3 113 138 137 
3 113 114 138 
3 114 139 138 
3 114 115 139 
3 115 140 139 
3 115 116 140 
3 116 141 140 
3 116 117 141 
3 117 142 141 
3 117 118 142 
3 118 143 142 
3 118 119 143 
3 119 144 143 
3 119 120 144 
3 120 145 144 
3 120 121 145 
3 121 146 145 
3 121 122 146 
3 122 147 146 
3 122 123 147 
3 123 148 147 
3 123 124 148 
3 124 149 148 
3 124 125 149 
3 125 150 149 
3 125 126 150 
3 126 151 150 
3 126 127 151 
3 127 152 151 
3 127 128 152 
3 128 153 152 
3 128 129 153 
3 129 154 153 
3 129 130 154 
3 130 155 154 
3 130 131 155 
3 131 156 155 
3 131 132 156 
3 132 157 156 
3 132 133 157 
3 133 158 157 
3 133 134 158 
3 134 135 158 
3 134 111 135 
3 135 160 159 
3 135 136 160 
3 136 161 160 
3 136 137 161 
3 137 162 161 
3 137 138 162 
3 138 163 162 
3 138 139 163 
3 139 164 163 
3 139 140 164 
3 140 165 164 
3 140 141 165 
3 141 166 165 
3 141 142 166 
3 142 167 166 
3 142 143 167 
3 143 168 167 
3 143 144 168 
3 144 169 168 
3 144 145 169 
3 145 170 169 
3 145 146 170 
3 146 171 170 
3 146 147 171 
3 147 172 171 
3 147 148 172 
3 148 173 172 
3 148 149 173 
3 149 174 173 
3 149 150 174 
3 150 175 174 
3 150 151 175 
3 151 176 175 
3 151 152 176 
3 152 177 176 
3 152 153 177 
3 153 178 177 
3 153 154 178 
3 154 179 178 
3 154 155 179 
3 155 180 179 
3 155 156 180 
3 156 181 180 
3 156 157 181 
3 157 182 181 
3 157 158 182 
3 158 159 182 
3 158 135 159 
3 159 184 183 
3 159 160 184 
3 160 185 184 
3 160 161 185 
3 161 186 185 
3 161 162 186 
3 162 187 186 
3 162 163 187 
3 163 188 187 
3 163 164 188 
3 164 189 188 
3 164 165 189 
3 165 190 189 
3 165 166 190 
3 166 191 190 
3 166 167 191 
3 167 192 191 
3 167 168 192 
3 168 193 192 
3 168 169 193 
3 169 194 193 
3 169 170 194 
3 170 195 194 
3 170 171 195 
3 171 196 195 
3 171 172 196 
3 172 197 196 
3 172 173 197 
3 173 198 197 
3 173 174 198 
3 174 199 198 
3 174 175 199 
3 175 200 199 
3 175 176 200 
3 176 201 200 
3 176 177 201 
3 177 202 201 
3 177 178 202 
3 178 203 202 
3 178 179 203 
3 179 204 203 
3 179 180 204 
3 180 205 204 
3 180 181 205 
3 181 206 205 
3 181 182 206 
3 182 183 206 
3 182 159 183 
3 183 208 207 
3 183 184 208 
3 184 209 208 
3 184 185 209 
3 185 210 209 
3 185 186 210 
3 186 211 210 
3 186 187 211 
3 187 212 211 
3 187 188 212 
3 188 213 212 
3 188 189 213 
3 189 214 213 
3 189 190 214 
3 190 215 214 
3 190 191 215 
3 191 216 215 
3 191 192 216 
3 192 217 216 
3 192 193 217 
3 193 218 217 
3 193 194 218 
3 194 219 218 
3 194 195 219 
3 195 220 219 
3 195 196 220 
3 196 221 220 
3 196 197 221 
3 197 222 221 
3 197 198 222 
3 198 223 222 
3 198 199 223 
3 199 224 223 
3 199 200 224 
3 200 225 224 
3 200 201 225 
3 201 226 225 
3 201 202 226 
3 202 227 226 
3 202 203 227 
3 203 228 227 
3 203 204 228 
3 204 229 228 
3 204 205 229 
3 205 230 229 
3 205 206 230 
3 206 207 230 
3 206 183 207 
3 207 232 231 
3 207 208 232 
3 208 233 232 
3 208 209 233 
3 209 234 233 
3 209 210 234 
3 210 235 234 
3 210 211 235 
3 211 236 235 
3 211 212 236 
3 212 237 236 
3 212 213 237 
3 213 238 237 
3 213 214 238 
3 214 239 238 
3 214 215 239 
3 215 240 239 
3 215 216 240 
3 216 241 240 
3 216 217 241 
3 217 242 241 
3 217 218 242 
3 218 243 242 
3 218 219 243 
3 219 244 243 
3 219 220 244 
3 220 245 244 
3 220 221 245 
3 221 246 245 
3 221 222 246 
3 222 247 246 
3 222 223 247 
3 223 248 247 
3 223 224 248 
3 224 249 248 
3 224 225 249 
3 225 250 249 
3 225 226 250 
3 226 251 250 
3 226 227 251 
3 227 252 251 
3 227 228 252 
3 228 253 252 
3 228 229 253 
3 229 254 253 
3 229 230 254 
3 230 231 254 
3 230 207 231 
3 255 231 232 
3 255 232 233 
3 255 233 234 
3 255 234 235 
3 255 235 236 
3 255 236 237 
3 255 237 238 
3 255 238 239 
3 255 239 240 
3 255 240 241 
3 255 241 242 
3 255 242 243 
3 255 243 244 
3 255 244 245 
3 255 245 246 
3 255 246 247 
3 255 247 248 
3 255 248 249 
3 255 249 250 
3 255 250 251 
3 255 251 252 
3 255 252 253 
3 255 253 254 
3 255 254 231 
