ply
format ascii 1.0
comment VCGLIB generated
element vertex 210
property float x
property float y
property float z
property uchar red
property uchar green
property uchar blue
property uchar alpha
element face 162
property list uchar int vertex_indices
end_header
0.833876 -0.126419 0.113345 255 0 0 255 
0.833876 0.124053 0.113345 255 0 0 255 
0.833876 0.124053 -0.137127 255 0 0 255 
0.833876 -0.126419 -0.137127 255 0 0 255 
1.00086 -0.00238291 -0.008383334 255 0 0 255 
0.833876 0.124053 0.113345 255 0 0 255 
0.833876 -0.126419 0.113345 255 0 0 255 
1.00086 -0.00238291 -0.008383334 255 0 0 255 
0.833876 0.124053 -0.137127 255 0 0 255 
0.833876 0.124053 0.113345 255 0 0 255 
1.00086 -0.00238291 -0.008383334 255 0 0 255 
0.833876 -0.126419 -0.137127 255 0 0 255 
0.833876 0.124053 -0.137127 255 0 0 255 
1.00086 -0.00238291 -0.008383334 255 0 0 255 
0.833876 -0.126419 0.113345 255 0 0 255 
0.833876 -0.126419 -0.137127 255 0 0 255 
0.835764 0.0378289 0.02858066 255 0 0 255 
0.418311 0.0378289 0.02858068 255 0 0 255 
0.418311 -0.00391646 0.02858068 255 0 0 255 
0.835764 0.0378289 -0.05491004 255 0 0 255 
0.418311 0.0378289 -0.05491002 255 0 0 255 
0.418311 0.0378289 -0.01316462 255 0 0 255 
0.835764 -0.0456618 -0.05491004 255 0 0 255 
0.418311 -0.0456618 -0.05491002 255 0 0 255 
0.418311 -0.00391646 -0.05491002 255 0 0 255 
0.835764 -0.0456618 0.02858066 255 0 0 255 
0.418311 -0.0456618 0.02858068 255 0 0 255 
0.418311 -0.0456618 -0.01316462 255 0 0 255 
0.0008576122 0.0378289 0.0285807 255 0 0 255 
0.0008576104 0.0378289 -0.0131646 255 0 0 255 
0.0008576104 -0.00391646 -0.0131646 255 0 0 255 
0.835764 0.0378289 -0.05491004 255 0 0 255 
0.835764 0.0378289 -0.01316464 255 0 0 255 
0.835764 -0.00391646 -0.01316464 255 0 0 255 
0.835764 -0.0456618 0.02858066 255 0 0 255 
0.835764 -0.00391646 0.02858066 255 0 0 255 
0.418311 -0.0456618 0.02858068 255 0 0 255 
0.835764 0.0378289 0.02858066 255 0 0 255 
0.835764 0.0378289 -0.01316464 255 0 0 255 
0.418311 0.0378289 0.02858068 255 0 0 255 
0.835764 0.0378289 -0.05491004 255 0 0 255 
0.835764 -0.00391646 -0.05491004 255 0 0 255 
0.418311 0.0378289 -0.05491002 255 0 0 255 
0.835764 -0.0456618 -0.05491004 255 0 0 255 
0.835764 -0.0456618 -0.01316464 255 0 0 255 
0.418311 -0.0456618 -0.05491002 255 0 0 255 
0.0008576122 -0.0456618 0.0285807 255 0 0 255 
0.0008576122 -0.00391646 0.0285807 255 0 0 255 
0.0008576104 -0.0456618 -0.0131646 255 0 0 255 
0.835764 -0.0456618 -0.05491004 255 0 0 255 
0.835764 -0.00391646 -0.05491004 255 0 0 255 
0.835764 -0.0456618 -0.01316464 255 0 0 255 
0.0008576122 -0.00391646 0.0285807 255 0 0 255 
0.0008576122 -0.0456618 0.0285807 255 0 0 255 
0.0008576122 0.0378289 0.0285807 255 0 0 255 
0.0008576104 0.0378289 -0.0131646 255 0 0 255 
0.0008576122 0.0378289 0.0285807 255 0 0 255 
0.0008576086 0.0378289 -0.05491 255 0 0 255 
0.0008576086 -0.00391646 -0.05491 255 0 0 255 
0.0008576086 0.0378289 -0.05491 255 0 0 255 
0.0008576086 -0.0456618 -0.05491 255 0 0 255 
0.0008576104 -0.0456618 -0.0131646 255 0 0 255 
0.0008576086 -0.0456618 -0.05491 255 0 0 255 
0.0008576122 -0.0456618 0.0285807 255 0 0 255 
0.0008576086 -0.00391646 -0.05491 255 0 0 255 
0.0008576086 -0.0456618 -0.05491 255 0 0 255 
0.0008576086 0.0378289 -0.05491 255 0 0 255 
0.835764 -0.00391646 0.02858066 255 0 0 255 
0.835764 -0.0456618 0.02858066 255 0 0 255 
0.835764 0.0378289 0.02858066 255 0 0 255 
0.126419 0.833876 0.113345 0 255 0 255 
-0.124053 0.833876 0.113345 0 255 0 255 
-0.124053 0.833876 -0.137127 0 255 0 255 
0.126419 0.833876 -0.137127 0 255 0 255 
0.002382866 1.00086 -0.008383333 0 255 0 255 
-0.124053 0.833876 0.113345 0 255 0 255 
0.126419 0.833876 0.113345 0 255 0 255 
0.002382866 1.00086 -0.008383333 0 255 0 255 
-0.124053 0.833876 -0.137127 0 255 0 255 
-0.124053 0.833876 0.113345 0 255 0 255 
0.002382866 1.00086 -0.008383333 0 255 0 255 
0.126419 0.833876 -0.137127 0 255 0 255 
-0.124053 0.833876 -0.137127 0 255 0 255 
0.002382866 1.00086 -0.008383333 0 255 0 255 
0.126419 0.833876 0.113345 0 255 0 255 
0.126419 0.833876 -0.137127 0 255 0 255 
-0.03782894 0.835764 0.02858066 0 255 0 255 
-0.03782892 0.418311 0.02858068 0 255 0 255 
0.003916442 0.418311 0.02858068 0 255 0 255 
-0.03782894 0.835764 -0.05491004 0 255 0 255 
-0.03782892 0.418311 -0.05491002 0 255 0 255 
-0.03782892 0.418311 -0.01316462 0 255 0 255 
0.04566176 0.835764 -0.05491004 0 255 0 255 
0.04566178 0.418311 -0.05491002 0 255 0 255 
0.003916442 0.418311 -0.05491002 0 255 0 255 
0.04566176 0.835764 0.02858066 0 255 0 255 
0.04566178 0.418311 0.02858068 0 255 0 255 
0.04566178 0.418311 -0.01316462 0 255 0 255 
-0.0378289 0.0008576105 0.0285807 0 255 0 255 
-0.0378289 0.0008576087 -0.0131646 0 255 0 255 
0.00391646 0.0008576105 -0.0131646 0 255 0 255 
-0.03782894 0.835764 -0.05491004 0 255 0 255 
-0.03782894 0.835764 -0.01316464 0 255 0 255 
0.003916424 0.835764 -0.01316464 0 255 0 255 
0.04566176 0.835764 0.02858066 0 255 0 255 
0.003916424 0.835764 0.02858066 0 255 0 255 
0.04566178 0.418311 0.02858068 0 255 0 255 
-0.03782894 0.835764 0.02858066 0 255 0 255 
-0.03782894 0.835764 -0.01316464 0 255 0 255 
-0.03782892 0.418311 0.02858068 0 255 0 255 
-0.03782894 0.835764 -0.05491004 0 255 0 255 
0.003916424 0.835764 -0.05491004 0 255 0 255 
-0.03782892 0.418311 -0.05491002 0 255 0 255 
0.04566176 0.835764 -0.05491004 0 255 0 255 
0.04566176 0.835764 -0.01316464 0 255 0 255 
0.04566178 0.418311 -0.05491002 0 255 0 255 
0.0456618 0.0008576142 0.0285807 0 255 0 255 
0.00391646 0.0008576124 0.0285807 0 255 0 255 
0.0456618 0.0008576124 -0.0131646 0 255 0 255 
0.04566176 0.835764 -0.05491004 0 255 0 255 
0.003916424 0.835764 -0.05491004 0 255 0 255 
0.04566176 0.835764 -0.01316464 0 255 0 255 
0.00391646 0.0008576124 0.0285807 0 255 0 255 
0.0456618 0.0008576142 0.0285807 0 255 0 255 
-0.0378289 0.0008576105 0.0285807 0 255 0 255 
-0.0378289 0.0008576087 -0.0131646 0 255 0 255 
-0.0378289 0.0008576105 0.0285807 0 255 0 255 
-0.0378289 0.000857607 -0.05491 0 255 0 255 
0.00391646 0.0008576088 -0.05491 0 255 0 255 
-0.0378289 0.000857607 -0.05491 0 255 0 255 
0.0456618 0.0008576106 -0.05491 0 255 0 255 
0.0456618 0.0008576124 -0.0131646 0 255 0 255 
0.0456618 0.0008576106 -0.05491 0 255 0 255 
0.0456618 0.0008576142 0.0285807 0 255 0 255 
0.00391646 0.0008576088 -0.05491 0 255 0 255 
0.0456618 0.0008576106 -0.05491 0 255 0 255 
-0.0378289 0.000857607 -0.05491 0 255 0 255 
0.003916424 0.835764 0.02858066 0 255 0 255 
0.04566176 0.835764 0.02858066 0 255 0 255 
-0.03782894 0.835764 0.02858066 0 255 0 255 
-0.113345 -0.126419 0.833876 0 0 255 255 
-0.113345 0.124053 0.833876 0 0 255 255 
0.137127 0.124053 0.833876 0 0 255 255 
0.137127 -0.126419 0.833876 0 0 255 255 
0.00838329 -0.00238291 1.00086 0 0 255 255 
-0.113345 0.124053 0.833876 0 0 255 255 
-0.113345 -0.126419 0.833876 0 0 255 255 
0.00838329 -0.00238291 1.00086 0 0 255 255 
0.137127 0.124053 0.833876 0 0 255 255 
-0.113345 0.124053 0.833876 0 0 255 255 
0.00838329 -0.00238291 1.00086 0 0 255 255 
0.137127 -0.126419 0.833876 0 0 255 255 
0.137127 0.124053 0.833876 0 0 255 255 
0.00838329 -0.00238291 1.00086 0 0 255 255 
-0.113345 -0.126419 0.833876 0 0 255 255 
0.137127 -0.126419 0.833876 0 0 255 255 
-0.0285807 0.0378289 0.835764 0 0 255 255 
-0.0285807 0.0378289 0.418311 0 0 255 255 
-0.0285807 -0.00391646 0.418311 0 0 255 255 
0.05491 0.0378289 0.835764 0 0 255 255 
0.05491 0.0378289 0.418311 0 0 255 255 
0.0131646 0.0378289 0.418311 0 0 255 255 
0.05491 -0.0456618 0.835764 0 0 255 255 
0.05491 -0.0456618 0.418311 0 0 255 255 
0.05491 -0.00391646 0.418311 0 0 255 255 
-0.0285807 -0.0456618 0.835764 0 0 255 255 
-0.0285807 -0.0456618 0.418311 0 0 255 255 
0.0131646 -0.0456618 0.418311 0 0 255 255 
-0.0285807 0.0378289 0.000857611 0 0 255 255 
0.0131646 0.0378289 0.000857611 0 0 255 255 
0.0131646 -0.00391646 0.000857611 0 0 255 255 
0.05491 0.0378289 0.835764 0 0 255 255 
0.0131646 0.0378289 0.835764 0 0 255 255 
0.0131646 -0.00391646 0.835764 0 0 255 255 
-0.0285807 -0.0456618 0.835764 0 0 255 255 
-0.0285807 -0.00391646 0.835764 0 0 255 255 
-0.0285807 -0.0456618 0.418311 0 0 255 255 
-0.0285807 0.0378289 0.835764 0 0 255 255 
0.0131646 0.0378289 0.835764 0 0 255 255 
-0.0285807 0.0378289 0.418311 0 0 255 255 
0.05491 0.0378289 0.835764 0 0 255 255 
0.05491 -0.00391646 0.835764 0 0 255 255 
0.05491 0.0378289 0.418311 0 0 255 255 
0.05491 -0.0456618 0.835764 0 0 255 255 
0.0131646 -0.0456618 0.835764 0 0 255 255 
0.05491 -0.0456618 0.418311 0 0 255 255 
-0.0285807 -0.0456618 0.000857611 0 0 255 255 
-0.0285807 -0.00391646 0.000857611 0 0 255 255 
0.0131646 -0.0456618 0.000857611 0 0 255 255 
0.05491 -0.0456618 0.835764 0 0 255 255 
0.05491 -0.00391646 0.835764 0 0 255 255 
0.0131646 -0.0456618 0.835764 0 0 255 255 
-0.0285807 -0.00391646 0.000857611 0 0 255 255 
-0.0285807 -0.0456618 0.000857611 0 0 255 255 
-0.0285807 0.0378289 0.000857611 0 0 255 255 
0.0131646 0.0378289 0.000857611 0 0 255 255 
-0.0285807 0.0378289 0.000857611 0 0 255 255 
0.05491 0.0378289 0.000857611 0 0 255 255 
0.05491 -0.00391646 0.000857611 0 0 255 255 
0.05491 0.0378289 0.000857611 0 0 255 255 
0.05491 -0.0456618 0.000857611 0 0 255 255 
0.0131646 -0.0456618 0.000857611 0 0 255 255 
0.05491 -0.0456618 0.000857611 0 0 255 255 
-0.0285807 -0.0456618 0.000857611 0 0 255 255 
0.05491 -0.00391646 0.000857611 0 0 255 255 
0.05491 -0.0456618 0.000857611 0 0 255 255 
0.05491 0.0378289 0.000857611 0 0 255 255 
-0.0285807 -0.00391646 0.835764 0 0 255 255 
-0.0285807 -0.0456618 0.835764 0 0 255 255 
-0.0285807 0.0378289 0.835764 0 0 255 255 
3 0 1 2 
3 0 2 3 
3 4 5 6 
3 7 8 9 
3 10 11 12 
3 13 14 15 
3 16 17 18 
3 19 20 21 
3 22 23 24 
3 25 26 27 
3 28 29 30 
3 31 32 33 
3 34 35 36 
3 37 38 39 
3 40 41 42 
3 43 44 45 
3 46 47 48 
3 49 50 51 
3 18 52 53 
3 18 17 52 
3 17 54 52 
3 21 55 56 
3 21 20 55 
3 20 57 55 
3 24 58 59 
3 24 23 58 
3 23 60 58 
3 27 61 62 
3 27 26 61 
3 26 63 61 
3 30 64 65 
3 30 29 64 
3 29 66 64 
3 33 67 68 
3 33 32 67 
3 32 69 67 
3 36 18 53 
3 36 35 18 
3 35 16 18 
3 39 21 56 
3 39 38 21 
3 38 19 21 
3 42 24 59 
3 42 41 24 
3 41 22 24 
3 45 27 62 
3 45 44 27 
3 44 25 27 
3 48 30 65 
3 48 47 30 
3 47 28 30 
3 51 33 68 
3 51 50 33 
3 50 31 33 
3 70 71 72 
3 70 72 73 
3 74 75 76 
3 77 78 79 
3 80 81 82 
3 83 84 85 
3 86 87 88 
3 89 90 91 
3 92 93 94 
3 95 96 97 
3 98 99 100 
3 101 102 103 
3 104 105 106 
3 107 108 109 
3 110 111 112 
3 113 114 115 
3 116 117 118 
3 119 120 121 
3 88 122 123 
3 88 87 122 
3 87 124 122 
3 91 125 126 
3 91 90 125 
3 90 127 125 
3 94 128 129 
3 94 93 128 
3 93 130 128 
3 97 131 132 
3 97 96 131 
3 96 133 131 
3 100 134 135 
3 100 99 134 
3 99 136 134 
3 103 137 138 
3 103 102 137 
3 102 139 137 
3 106 88 123 
3 106 105 88 
3 105 86 88 
3 109 91 126 
3 109 108 91 
3 108 89 91 
3 112 94 129 
3 112 111 94 
3 111 92 94 
3 115 97 132 
3 115 114 97 
3 114 95 97 
3 118 100 135 
3 118 117 100 
3 117 98 100 
3 121 103 138 
3 121 120 103 
3 120 101 103 
3 140 141 142 
3 140 142 143 
3 144 145 146 
3 147 148 149 
3 150 151 152 
3 153 154 155 
3 156 157 158 
3 159 160 161 
3 162 163 164 
3 165 166 167 
3 168 169 170 
3 171 172 173 
3 174 175 176 
3 177 178 179 
3 180 181 182 
3 183 184 185 
3 186 187 188 
3 189 190 191 
3 158 192 193 
3 158 157 192 
3 157 194 192 
3 161 195 196 
3 161 160 195 
3 160 197 195 
3 164 198 199 
3 164 163 198 
3 163 200 198 
3 167 201 202 
3 167 166 201 
3 166 203 201 
3 170 204 205 
3 170 169 204 
3 169 206 204 
3 173 207 208 
3 173 172 207 
3 172 209 207 
3 176 158 193 
3 176 175 158 
3 175 156 158 
3 179 161 196 
3 179 178 161 
3 178 159 161 
3 182 164 199 
3 182 181 164 
3 181 162 164 
3 185 167 202 
3 185 184 167 
3 184 165 167 
3 188 170 205 
3 188 187 170 
3 187 168 170 
3 191 173 208 
3 191 190 173 
3 190 171 173 
