ply
format ascii 1.0
comment VCGLIB generated
comment TextureFile Dungeons_2_Texture_01_A.png
element vertex 309
property float x
property float y
property float z
property float nx
property float ny
property float nz
property uchar red
property uchar green
property uchar blue
property uchar alpha
property float texture_u
property float texture_v
element face 140
property list uchar int vertex_indices
end_header
-3.3e-05 5e-06 31.1953 0 -1 0 255 255 255 255 0.001899 0.753486
-63.0243 0 0 0 -1 0 255 255 255 255 0.031584 0.753487
-3.3e-05 -5e-06 -31.1953 0 -1 0 255 255 255 255 0.001903 0.753725
-63.5504 -4e-06 -23.6212 -0 -1 0 255 255 255 255 0.031832 0.753487
-62.9014 14.3818 -31.1953 -0.915171 -0.154713 -0.37219 255 255 255 255 0.117712 0.768058
-60.4701 -5e-06 -31.1953 -0.915171 -0.154713 -0.37219 255 255 255 255 0.117713 0.768077
-63.5504 -4e-06 -23.6212 -0.915171 -0.154713 -0.37219 255 255 255 255 0.117721 0.768062
-63.3749 52.7318 31.1953 -0.975592 -0.116577 0.186094 255 255 255 255 0.117821 0.767931
-63.0243 0 0 -0.975592 -0.116577 0.186094 255 255 255 255 0.117761 0.768032
-57.0738 5e-06 31.1953 -0.975592 -0.116577 0.186094 255 255 255 255 0.117822 0.767999
-63.0243 0 0 -0.998141 0.05675 0.02223 255 255 255 255 0.117761 0.768032
-62.9014 14.3818 -31.1953 -0.998141 0.05675 0.02223 255 255 255 255 0.117712 0.768058
-63.5504 -4e-06 -23.6212 -0.998141 0.05675 0.02223 255 255 255 255 0.117721 0.768062
-75.6583 95.3591 -31.1953 -0.97663 -0.209186 0.049355 255 255 255 255 0.117702 0.767946
-86.543 160.897 31.1953 -0.97663 -0.209186 0.049355 255 255 255 255 0.117802 0.767764
-94.9896 200.332 31.1953 -0.97663 -0.209186 0.049355 255 255 255 255 0.117795 0.767704
-94.7224 208.129 -31.1953 -0.9857 -0.166636 -0.025047 255 255 255 255 0.117687 0.767782
-75.6583 95.3591 -31.1953 -0.9857 -0.166636 -0.025047 255 255 255 255 0.117702 0.767946
-94.9896 200.332 31.1953 -0.9857 -0.166636 -0.025047 255 255 255 255 0.117795 0.767704
-95.6226 314.846 31.1953 -0.941554 -0.005205 0.336822 255 255 255 255 0.117815 0.767555
-104.469 309.995 6.39216 -0.941554 -0.005205 0.336822 255 255 255 255 0.117754 0.767582
-94.9896 200.332 31.1953 -0.941554 -0.005205 0.336822 255 255 255 255 0.117795 0.767704
-104.469 309.995 6.39216 -0.99586 -0.089577 -0.01546 255 255 255 255 0.117754 0.767582
-94.7224 208.129 -31.1953 -0.99586 -0.089577 -0.01546 255 255 255 255 0.117687 0.767782
-94.9896 200.332 31.1953 -0.99586 -0.089577 -0.01546 255 255 255 255 0.117795 0.767704
-3.3e-05 -5e-06 -31.1953 1 -0 0 255 255 255 255 0.001903 0.753725
-3.1e-05 500 31.1952 1 -0 0 255 255 255 255 0.001899 0.991744
-3.3e-05 5e-06 31.1953 1 -0 0 255 255 255 255 0.001899 0.753486
-400.874 35.0319 -0.149908 0.917536 -0.172823 0.358134 255 255 255 255 0.117252 0.767498
-419.707 5e-06 31.1953 0.917536 -0.172823 0.358134 255 255 255 255 0.117276 0.767477
-406.639 -0 -2.28467 0.917536 -0.172823 0.358134 255 255 255 255 0.11724 0.767535
-419.707 5e-06 31.1953 0 -1 0 255 255 255 255 0.199582 0.753487
-500 -5e-06 -31.1953 0 -1 0 255 255 255 255 0.237397 0.753487
-406.639 -0 -2.28467 0 -1 0 255 255 255 255 0.193427 0.753487
-95.6226 314.846 31.1953 0 0 1 255 255 255 255 0.046938 0.901779
-125.013 350 31.1953 0 0 1 255 255 255 255 0.06078 0.918337
-125.013 340.171 31.1953 0 0 1 255 255 255 255 0.06078 0.913707
-405.514 31.2175 -31.1953 0.989101 -0.030115 -0.144128 255 255 255 255 0.117194 0.767534
-403.157 108.623 -31.1953 0.989101 -0.030115 -0.144128 255 255 255 255 0.117196 0.767443
-400.874 35.0319 -0.149908 0.989101 -0.030115 -0.144128 255 255 255 255 0.117252 0.767498
-394.079 136.365 31.1953 0.917456 -0.172423 0.358532 255 255 255 255 0.117316 0.767344
-419.707 5e-06 31.1953 0.917456 -0.172423 0.358532 255 255 255 255 0.117276 0.767477
-400.874 35.0319 -0.149908 0.917456 -0.172423 0.358532 255 255 255 255 0.117252 0.767498
-3.1e-05 500 31.1952 -0.011943 0.009954 0.999879 255 255 255 255 0.001899 0.991744
-181.372 392.617 30.0978 -0.011943 0.009954 0.999879 255 255 255 255 0.087325 0.938409
-125.013 350 31.1953 -0.011943 0.009954 0.999879 255 255 255 255 0.06078 0.918337
-219.865 397.331 -16.6512 -0.341283 -0.426561 -0.837599 255 255 255 255 0.105456 0.690629
-250 450 -31.1954 -0.341283 -0.426561 -0.837599 255 255 255 255 0.119649 0.715437
-179.397 393.512 -31.1954 -0.341283 -0.426561 -0.837599 255 255 255 255 0.087927 0.689457
-269.753 405.637 16.6511 0.341283 -0.42656 0.837599 255 255 255 255 0.128953 0.694542
-250 450 31.1952 0.341283 -0.42656 0.837599 255 255 255 255 0.119649 0.715437
-298.074 411.537 31.1952 0.341283 -0.42656 0.837599 255 255 255 255 0.142292 0.69732
-260.767 412.826 -16.6512 0.341283 -0.42656 -0.837599 255 255 255 255 0.124721 0.697928
-250 450 -31.1954 0.341283 -0.42656 -0.837599 255 255 255 255 0.119649 0.715437
-250 421.441 -16.6512 0.341283 -0.42656 -0.837599 255 255 255 255 0.119649 0.701985
-399.424 285.549 -22.8979 0.999476 0.032271 -0.002364 255 255 255 255 0.117214 0.767203
-399.74 299.293 31.1953 0.999476 0.032271 -0.002364 255 255 255 255 0.117311 0.767116
-397.003 213.533 17.5404 0.999476 0.032271 -0.002364 255 255 255 255 0.11729 0.767253
-500 500 31.1952 0 0 1 255 255 255 255 0.2374 0.988987
-250 450 31.1952 0 0 1 255 255 255 255 0.119649 0.965437
-3.1e-05 500 31.1952 0 0 1 255 255 255 255 0.001899 0.991744
-304.301 407.59 -5.62958 0.702882 -0.665976 -0.249866 255 255 255 255 0.117402 0.767149
-345.92 373.256 -31.1954 0.702882 -0.665976 -0.249866 255 255 255 255 0.117285 0.76717
-308.739 412.498 -31.1954 0.702882 -0.665976 -0.249866 255 255 255 255 0.117347 0.767169
-500 500 -31.1954 -0 -0 -1 255 255 255 255 0.2374 0.988987
-3.2e-05 500 -31.1954 -0 -0 -1 255 255 255 255 0.002013 0.990275
-250 450 -31.1954 -0 -0 -1 255 255 255 255 0.119649 0.965437
-410.694 -5e-06 -31.1953 0 -1 0 255 255 255 255 0.195337 0.753487
-405.514 31.2175 -31.1953 0.977197 -0.162165 -0.13707 255 255 255 255 0.117194 0.767534
-406.639 -0 -2.28467 0.977197 -0.162165 -0.13707 255 255 255 255 0.11724 0.767535
-410.694 -5e-06 -31.1953 0.977197 -0.162165 -0.13707 255 255 255 255 0.117187 0.767564
-500 5e-06 31.1953 0 -1 0 255 255 255 255 0.2374 0.753486
-403.157 108.623 -31.1953 0.990805 -0.025327 -0.132904 255 255 255 255 0.117196 0.767443
-394.079 136.365 31.1953 0.990805 -0.025327 -0.132904 255 255 255 255 0.117316 0.767344
-400.874 35.0319 -0.149908 0.990805 -0.025327 -0.132904 255 255 255 255 0.117252 0.767498
-250 421.441 16.6511 -0 0 1 255 255 255 255 0.119649 0.951985
-269.753 405.637 16.6511 -0 0 1 255 255 255 255 0.128953 0.944542
-219.692 397.192 16.6511 -0 0 1 255 255 255 255 0.105374 0.940564
-104.469 309.995 6.39216 -0.681211 -0.682169 0.2657 255 255 255 255 0.117754 0.767582
-125.013 340.171 31.1953 -0.681211 -0.682169 0.2657 255 255 255 255 0.117768 0.767474
-182.356 387.641 6.05328 -0.681211 -0.682169 0.2657 255 255 255 255 0.117629 0.767351
-250 421.441 -16.6512 -0 -0 -1 255 255 255 255 0.119649 0.951985
-249.344 401.671 -16.6512 -0 -0 -1 255 255 255 255 0.119341 0.942674
-260.767 412.826 -16.6512 -0 -0 -1 255 255 255 255 0.124721 0.947928
-333.808 378.44 31.1953 0.798211 -0.572917 0.186078 255 255 255 255 0.11742 0.767099
-304.301 407.59 -5.62958 0.798211 -0.572917 0.186078 255 255 255 255 0.117402 0.767149
-308.895 413.15 31.1952 0.798211 -0.572917 0.186078 255 255 255 255 0.117463 0.767085
-376.44 340.965 -31.1954 0.512609 -0.858622 0.000231 255 255 255 255 0.117235 0.767171
-400.685 326.507 31.1953 0.512609 -0.858622 0.000231 255 255 255 255 0.11731 0.767077
-400.67 326.5 -31.1954 0.512609 -0.858622 0.000231 255 255 255 255 0.117197 0.767156
-139.657 388.988 -31.1954 -0.489019 0.405976 -0.772039 255 255 255 255 0.069739 0.938861
-148.783 390.706 -24.5121 -0.489019 0.405976 -0.772039 255 255 255 255 0.073858 0.939315
-127.012 404.22 -31.1954 -0.489019 0.405976 -0.772039 255 255 255 255 0.062867 0.945862
-304.301 407.59 -5.62958 -0.146228 -0.980693 0.129838 255 255 255 255 0.117402 0.767149
-298.074 411.537 31.1952 -0.146228 -0.980693 0.129838 255 255 255 255 0.117481 0.767104
-308.895 413.15 31.1952 -0.146228 -0.980693 0.129838 255 255 255 255 0.117463 0.767085
-304.301 407.59 -5.62958 -0.143023 -0.976273 -0.162592 255 255 255 255 0.117402 0.767149
-308.739 412.498 -31.1954 -0.143023 -0.976273 -0.162592 255 255 255 255 0.117347 0.767169
-298.71 411.028 -31.1954 -0.143023 -0.976273 -0.162592 255 255 255 255 0.117364 0.767186
-333.808 378.44 31.1953 -0 0 1 255 255 255 255 0.161776 0.931732
-400.685 326.507 31.1953 -0 0 1 255 255 255 255 0.190622 0.907272
-3.3e-05 -5e-06 -31.1953 -0 -0 -1 255 255 255 255 0.001903 0.753725
-62.9014 14.3818 -31.1953 -0 -0 -1 255 255 255 255 0.031526 0.76026
-61.9109 46.2588 -31.1953 -0 -0 -1 255 255 255 255 0.031059 0.775274
-308.739 412.498 -31.1954 0 -0 -1 255 255 255 255 0.147316 0.947773
-394.079 136.365 31.1953 0 0 1 255 255 255 255 0.187511 0.817715
-500 5e-06 31.1953 0 0 1 255 255 255 255 0.2374 0.753486
-419.707 5e-06 31.1953 0 0 1 255 255 255 255 0.199582 0.753487
-374.987 350 -31.1954 0 -0 -1 255 255 255 255 0.178519 0.918337
-400.67 326.5 -31.1954 0 -0 -1 255 255 255 255 0.190615 0.907268
-374.987 350 -31.1954 0.581153 -0.726369 -0.366946 255 255 255 255 0.117238 0.76716
-345.92 373.256 -31.1954 0.581153 -0.726369 -0.366946 255 255 255 255 0.117285 0.76717
-346.973 357.516 -1.70428 0.581153 -0.726369 -0.366946 255 255 255 255 0.117337 0.767153
-374.987 350 -31.1954 0.734804 -0.118133 -0.667913 255 255 255 255 0.117238 0.76716
-346.973 357.516 -1.70428 0.734804 -0.118133 -0.667913 255 255 255 255 0.117337 0.767153
-376.44 340.965 -31.1954 0.734804 -0.118133 -0.667913 255 255 255 255 0.117235 0.767171
-304.301 407.59 -5.62958 -0.066302 -0.774041 -0.629654 255 255 255 255 0.117402 0.767149
-260.767 412.826 -16.6512 -0.066302 -0.774041 -0.629654 255 255 255 255 0.117401 0.767104
-260.751 400.465 -1.4573 -0.066302 -0.774041 -0.629654 255 255 255 255 0.117483 0.767221
-304.301 407.59 -5.62958 -0.176105 -0.966179 0.188375 255 255 255 255 0.117402 0.767149
-260.751 400.465 -1.4573 -0.176105 -0.966179 0.188375 255 255 255 255 0.117483 0.767221
-269.753 405.637 16.6511 -0.176105 -0.966179 0.188375 255 255 255 255 0.117505 0.767172
-182.356 387.641 6.05328 -0.151485 -0.974484 -0.165626 255 255 255 255 0.117629 0.767351
-219.865 397.331 -16.6512 -0.151485 -0.974484 -0.165626 255 255 255 255 0.11752 0.767312
-179.397 393.512 -31.1954 -0.151485 -0.974484 -0.165626 255 255 255 255 0.117566 0.767399
-219.692 397.192 16.6511 -0.187088 -0.960407 0.206439 255 255 255 255 0.11759 0.767262
-182.356 387.641 6.05328 -0.187088 -0.960407 0.206439 255 255 255 255 0.117629 0.767351
-181.372 392.617 30.0978 -0.187088 -0.960407 0.206439 255 255 255 255 0.117676 0.767313
-250 450 31.1952 -0.344327 -0.427791 0.835723 255 255 255 255 0.119649 0.715437
-219.692 397.192 16.6511 -0.344327 -0.427791 0.835723 255 255 255 255 0.105374 0.690564
-181.372 392.617 30.0978 -0.344327 -0.427791 0.835723 255 255 255 255 0.087325 0.688409
-182.356 387.641 6.05328 -0.594906 -0.781932 0.186197 255 255 255 255 0.117629 0.767351
-125.013 350 31.1953 -0.594906 -0.781932 0.186197 255 255 255 255 0.11777 0.76746
-181.372 392.617 30.0978 -0.594906 -0.781932 0.186197 255 255 255 255 0.117676 0.767313
-182.356 387.641 6.05328 -0.401546 0 0.915839 255 255 255 255 0.117629 0.767351
-125.013 340.171 31.1953 -0.401546 0 0.915839 255 255 255 255 0.117768 0.767474
-125.013 350 31.1953 -0.401546 0 0.915839 255 255 255 255 0.11777 0.76746
-104.469 309.995 6.39216 -0.49185 -0.831791 -0.257309 255 255 255 255 0.117754 0.767582
-125.013 333.77 -31.1954 -0.49185 -0.831791 -0.257309 255 255 255 255 0.117653 0.76757
-94.2662 315.589 -31.1954 -0.49185 -0.831791 -0.257309 255 255 255 255 0.117704 0.767644
-308.895 413.15 31.1952 0 0 1 255 255 255 255 0.147389 0.94808
-298.074 411.537 31.1952 0 0 1 255 255 255 255 0.142292 0.94732
-346.973 357.516 -1.70428 0.594039 -0.764986 0.248824 255 255 255 255 0.117337 0.767153
-333.808 378.44 31.1953 0.594039 -0.764986 0.248824 255 255 255 255 0.11742 0.767099
-400.685 326.507 31.1953 0.594039 -0.764986 0.248824 255 255 255 255 0.11731 0.767077
-403.27 180.897 31.1953 0 0 1 255 255 255 255 0.19184 0.838689
-500 -5e-06 -31.1953 0 -0 -1 255 255 255 255 0.237397 0.753487
-405.514 31.2175 -31.1953 0 -0 -1 255 255 255 255 0.192897 0.76819
-410.694 -5e-06 -31.1953 0 -0 -1 255 255 255 255 0.195337 0.753487
-408.873 258.025 -31.1954 -0 -0 -1 255 255 255 255 0.194479 0.875016
-395.408 142.678 -31.1953 0 -0 -1 255 255 255 255 0.188137 0.820688
-403.157 108.623 -31.1953 0 -0 -1 255 255 255 255 0.190458 0.804648
-60.4701 -5e-06 -31.1953 0 -1 0 255 255 255 255 0.030381 0.753487
-94.2662 315.589 -31.1954 0 -0 -1 255 255 255 255 0.046299 0.902129
-125.013 333.77 -31.1954 0 -0 -1 255 255 255 255 0.06078 0.915791
-157.619 405.989 -31.1954 -0 -0 -1 255 255 255 255 0.077426 0.945363
-500 500 31.1952 -1 0 -0 255 255 255 255 0.2374 0.988987
-500 -5e-06 -31.1953 -1 0 -0 255 255 255 255 0.237397 0.753487
-500 5e-06 31.1953 -1 0 -0 255 255 255 255 0.2374 0.753486
-3.1e-05 500 31.1952 -0 1 0 255 255 255 255 0.001899 0.991744
-500 500 -31.1954 -0 1 0 255 255 255 255 0.2374 0.988987
-500 500 31.1952 -0 1 0 255 255 255 255 0.2374 0.988987
-345.92 373.256 -31.1954 0 -0 -1 255 255 255 255 0.164828 0.929291
-75.6583 95.3591 -31.1953 -0 -0 -1 255 255 255 255 0.037526 0.798327
-94.7224 208.129 -31.1953 -0 -0 -1 255 255 255 255 0.046514 0.851516
-3.3e-05 5e-06 31.1953 0 0 1 255 255 255 255 0.001899 0.753486
-63.3749 52.7318 31.1953 0 0 1 255 255 255 255 0.031749 0.778323
-57.0738 5e-06 31.1953 0 0 1 255 255 255 255 0.028781 0.753487
-64.1124 106.393 31.1953 -0 0 1 255 255 255 255 0.032096 0.803598
-94.9896 200.332 31.1953 -0 0 1 255 255 255 255 0.046639 0.847843
-86.543 160.897 31.1953 -0 0 1 255 255 255 255 0.042661 0.829269
-410.832 253.64 31.1953 0.497538 -0.120891 0.858977 255 255 255 255 0.117312 0.76718
-397.003 213.533 17.5404 0.497538 -0.120891 0.858977 255 255 255 255 0.11729 0.767253
-399.74 299.293 31.1953 0.497538 -0.120891 0.858977 255 255 255 255 0.117311 0.767116
-408.873 258.025 -31.1954 0.338905 0.162978 -0.926597 255 255 255 255 0.117201 0.767249
-399.424 285.549 -22.8979 0.338905 0.162978 -0.926597 255 255 255 255 0.117214 0.767203
-398.067 235.552 -31.1954 0.338905 0.162978 -0.926597 255 255 255 255 0.117202 0.767282
-399.8 296.104 -31.1954 0.921288 -0.219524 -0.320996 255 255 255 255 0.117199 0.767198
-399.424 285.549 -22.8979 0.921288 -0.219524 -0.320996 255 255 255 255 0.117214 0.767203
-408.873 258.025 -31.1954 0.921288 -0.219524 -0.320996 255 255 255 255 0.117201 0.767249
-397.003 213.533 17.5404 0.999551 0.028611 -0.008886 255 255 255 255 0.11729 0.767253
-395.408 142.678 -31.1953 0.999551 0.028611 -0.008886 255 255 255 255 0.117207 0.767411
-398.067 235.552 -31.1954 0.999551 0.028611 -0.008886 255 255 255 255 0.117202 0.767282
-400.67 326.5 -31.1954 0.999551 0.028611 -0.008889 255 255 255 255 0.117197 0.767156
-399.424 285.549 -22.8979 0.999551 0.028611 -0.008889 255 255 255 255 0.117214 0.767203
-399.8 296.104 -31.1954 0.999551 0.028611 -0.008889 255 255 255 255 0.117199 0.767198
-399.424 285.549 -22.8979 0.999551 0.028611 -0.008886 255 255 255 255 0.117214 0.767203
-394.079 136.365 31.1953 0.716244 0.147821 0.682014 255 255 255 255 0.117316 0.767344
-397.003 213.533 17.5404 0.716244 0.147821 0.682014 255 255 255 255 0.11729 0.767253
-403.27 180.897 31.1953 0.716244 0.147821 0.682014 255 255 255 255 0.117314 0.767282
-403.27 180.897 31.1953 0.813453 0.084569 0.57545 255 255 255 255 0.117314 0.767282
-397.003 213.533 17.5404 0.813453 0.084569 0.57545 255 255 255 255 0.11729 0.767253
-410.832 253.64 31.1953 0.813453 0.084569 0.57545 255 255 255 255 0.117312 0.76718
-410.832 253.64 31.1953 -0 0 1 255 255 255 255 0.195402 0.872951
-86.543 160.897 31.1953 -0.673285 -0.277083 0.685502 255 255 255 255 0.117802 0.767764
-72.3572 91.3193 17.0046 -0.673285 -0.277083 0.685502 255 255 255 255 0.117789 0.76789
-64.1124 106.393 31.1953 -0.673285 -0.277083 0.685502 255 255 255 255 0.117813 0.767851
-61.9109 46.2588 -31.1953 -0.962064 -0.269364 0.043313 255 255 255 255 0.117718 0.768024
-72.3572 91.3193 17.0046 -0.962064 -0.269364 0.043313 255 255 255 255 0.117789 0.76789
-75.6583 95.3591 -31.1953 -0.962064 -0.269364 0.043313 255 255 255 255 0.117702 0.767946
-64.1124 106.393 31.1953 -0.859099 -0.011807 0.511674 255 255 255 255 0.117813 0.767851
-72.3572 91.3193 17.0046 -0.859099 -0.011807 0.511674 255 255 255 255 0.117789 0.76789
-63.3749 52.7318 31.1953 -0.859099 -0.011807 0.511674 255 255 255 255 0.117821 0.767931
-127.012 404.22 -31.1954 0 -0 -1 255 255 255 255 0.062867 0.945862
-179.397 393.512 -31.1954 -0 -0 -1 255 255 255 255 0.087927 0.939457
-104.469 309.995 6.39216 -0.70451 -0.70697 -0.062124 255 255 255 255 0.117754 0.767582
-182.356 387.641 6.05328 -0.70451 -0.70697 -0.062124 255 255 255 255 0.117629 0.767351
-125.013 333.77 -31.1954 -0.70451 -0.70697 -0.062124 255 255 255 255 0.117653 0.76757
-157.619 405.989 -31.1954 0.176011 -0.3072 -0.935226 255 255 255 255 0.077426 0.945363
-148.783 390.706 -24.5121 0.176011 -0.3072 -0.935226 255 255 255 255 0.073858 0.939315
-179.397 393.512 -31.1954 0.176011 -0.3072 -0.935226 255 255 255 255 0.087927 0.939457
-125.013 333.77 -31.1954 -0.652123 -0.185986 -0.734946 255 255 255 255 0.06078 0.915791
-182.356 387.641 6.05328 -0.652123 -0.185986 -0.734946 255 255 255 255 0.091351 0.937017
-148.783 390.706 -24.5121 -0.652123 -0.185986 -0.734946 255 255 255 255 0.073858 0.939315
-179.397 393.512 -31.1954 -0.055463 -0.985598 -0.15975 255 255 255 255 0.087927 0.939457
-148.783 390.706 -24.5121 -0.055463 -0.985598 -0.15975 255 255 255 255 0.073858 0.939315
-182.356 387.641 6.05328 -0.055463 -0.985598 -0.15975 255 255 255 255 0.091351 0.937017
-127.012 404.22 -31.1954 -0.023823 -0.412076 -0.910838 255 255 255 255 0.062867 0.945862
-148.783 390.706 -24.5121 -0.023823 -0.412076 -0.910838 255 255 255 255 0.073858 0.939315
-157.619 405.989 -31.1954 -0.023823 -0.412076 -0.910838 255 255 255 255 0.077426 0.945363
-260.751 400.465 -1.4573 -0.141868 -0.973203 -0.180968 255 255 255 255 0.117483 0.767221
-219.865 397.331 -16.6512 -0.141868 -0.973203 -0.180968 255 255 255 255 0.11752 0.767312
-182.356 387.641 6.05328 -0.141868 -0.973203 -0.180968 255 255 255 255 0.117629 0.767351
-260.751 400.465 -1.4573 -0.163145 -0.967122 0.195087 255 255 255 255 0.117483 0.767221
-219.692 397.192 16.6511 -0.163145 -0.967122 0.195087 255 255 255 255 0.11759 0.767262
-269.753 405.637 16.6511 -0.163145 -0.967122 0.195087 255 255 255 255 0.117505 0.767172
-304.301 407.59 -5.62958 0.090329 -0.989443 -0.113328 255 255 255 255 0.117402 0.767149
-298.71 411.028 -31.1954 0.090329 -0.989443 -0.113328 255 255 255 255 0.117364 0.767186
-260.767 412.826 -16.6512 0.090329 -0.989443 -0.113328 255 255 255 255 0.117401 0.767104
-260.751 400.465 -1.4573 -0.604046 -0.618517 -0.502559 255 255 255 255 0.117483 0.767221
-260.767 412.826 -16.6512 -0.604046 -0.618517 -0.502559 255 255 255 255 0.117401 0.767104
-249.344 401.671 -16.6512 -0.604046 -0.618517 -0.502559 255 255 255 255 0.117471 0.767258
-125.013 333.77 -31.1954 -0.602672 -0.159839 -0.781817 255 255 255 255 0.06078 0.915791
-148.783 390.706 -24.5121 -0.602672 -0.159839 -0.781817 255 255 255 255 0.073858 0.939315
-139.657 388.988 -31.1954 -0.602672 -0.159839 -0.781817 255 255 255 255 0.069739 0.938861
-57.0738 5e-06 31.1953 0 -1 0 255 255 255 255 0.028781 0.753487
-63.3749 52.7318 31.1953 -0.999676 0.007703 -0.024257 255 255 255 255 0.117821 0.767931
-61.9109 46.2588 -31.1953 -0.999676 0.007703 -0.024257 255 255 255 255 0.117718 0.768024
-63.0243 0 0 -0.999676 0.007703 -0.024257 255 255 255 255 0.117761 0.768032
-63.0243 0 0 -0.999464 0.031055 0.010378 255 255 255 255 0.117761 0.768032
-61.9109 46.2588 -31.1953 -0.999464 0.031055 0.010378 255 255 255 255 0.117718 0.768024
-62.9014 14.3818 -31.1953 -0.999464 0.031055 0.010378 255 255 255 255 0.117712 0.768058
-72.3572 91.3193 17.0046 -0.97663 -0.209186 0.049355 255 255 255 255 0.117789 0.76789
-104.469 309.995 6.39216 -0.965226 0.004098 -0.261383 255 255 255 255 0.117754 0.767582
-94.2662 315.589 -31.1954 -0.965226 0.004098 -0.261383 255 255 255 255 0.117704 0.767644
-94.7224 208.129 -31.1953 -0.965226 0.004098 -0.261383 255 255 255 255 0.117687 0.767782
-3.2e-05 500 -31.1954 1 -0 -0 255 255 255 255 0.002013 0.990275
-3.1e-05 500 31.1952 0.003086 -0.015431 0.999876 255 255 255 255 0.001899 0.991744
-250 450 31.1952 0.003086 -0.015431 0.999876 255 255 255 255 0.119649 0.965437
-181.372 392.617 30.0978 0.003086 -0.015431 0.999876 255 255 255 255 0.087325 0.938409
-250 421.441 -16.6512 -0.341283 -0.426561 -0.837599 255 255 255 255 0.119649 0.701985
-269.753 405.637 16.6511 0.341282 -0.42656 0.837599 255 255 255 255 0.128953 0.694542
-250 421.441 16.6511 0.341282 -0.42656 0.837599 255 255 255 255 0.119649 0.701985
-250 450 31.1952 0.341282 -0.42656 0.837599 255 255 255 255 0.119649 0.715437
-260.767 412.826 -16.6512 0.341282 -0.42656 -0.837599 255 255 255 255 0.124721 0.697928
-298.71 411.028 -31.1954 0.341282 -0.42656 -0.837599 255 255 255 255 0.142592 0.697081
-250 450 -31.1954 0.341282 -0.42656 -0.837599 255 255 255 255 0.119649 0.715437
-399.424 285.549 -22.8979 0.999393 0.034721 -0.002987 255 255 255 255 0.117214 0.767203
-400.685 326.507 31.1953 0.999393 0.034721 -0.002987 255 255 255 255 0.11731 0.767077
-399.74 299.293 31.1953 0.999393 0.034721 -0.002987 255 255 255 255 0.117311 0.767116
-304.301 407.59 -5.62958 0.711176 -0.630433 -0.311099 255 255 255 255 0.117402 0.767149
-346.973 357.516 -1.70428 0.711176 -0.630433 -0.311099 255 255 255 255 0.117337 0.767153
-345.92 373.256 -31.1954 0.711176 -0.630433 -0.311099 255 255 255 255 0.117285 0.76717
-405.514 31.2175 -31.1953 0.979879 -0.153483 -0.127592 255 255 255 255 0.117194 0.767534
-400.874 35.0319 -0.149908 0.979879 -0.153483 -0.127592 255 255 255 255 0.117252 0.767498
-406.639 -0 -2.28467 0.979879 -0.153483 -0.127592 255 255 255 255 0.11724 0.767535
-403.157 108.623 -31.1953 0.974164 -0.221674 -0.043177 255 255 255 255 0.117196 0.767443
-395.408 142.678 -31.1953 0.974164 -0.221674 -0.043177 255 255 255 255 0.117207 0.767411
-394.079 136.365 31.1953 0.974164 -0.221674 -0.043177 255 255 255 255 0.117316 0.767344
-104.469 309.995 6.39216 -0.610007 -0.70792 0.356007 255 255 255 255 0.117754 0.767582
-95.6226 314.846 31.1953 -0.610007 -0.70792 0.356007 255 255 255 255 0.117815 0.767555
-125.013 340.171 31.1953 -0.610007 -0.70792 0.356007 255 255 255 255 0.117768 0.767474
-219.865 397.331 -16.6512 -0 -0 -1 255 255 255 255 0.105456 0.940629
-333.808 378.44 31.1953 0.761053 -0.64049 0.102814 255 255 255 255 0.11742 0.767099
-346.973 357.516 -1.70428 0.761053 -0.64049 0.102814 255 255 255 255 0.117337 0.767153
-304.301 407.59 -5.62958 0.761053 -0.64049 0.102814 255 255 255 255 0.117402 0.767149
-376.44 340.965 -31.1954 0.496081 -0.868235 -0.00842 255 255 255 255 0.117235 0.767171
-346.973 357.516 -1.70428 0.496081 -0.868235 -0.00842 255 255 255 255 0.117337 0.767153
-400.685 326.507 31.1953 0.496081 -0.868235 -0.00842 255 255 255 255 0.11731 0.767077
-304.301 407.59 -5.62958 -0.13849 -0.98197 0.128666 255 255 255 255 0.117402 0.767149
-269.753 405.637 16.6511 -0.13849 -0.98197 0.128666 255 255 255 255 0.117505 0.767172
-298.074 411.537 31.1952 -0.13849 -0.98197 0.128666 255 255 255 255 0.117481 0.767104
-60.4701 -5e-06 -31.1953 0 -0 -1 255 255 255 255 0.030381 0.753487
-298.71 411.028 -31.1954 -0 -0 -1 255 255 255 255 0.142592 0.947081
-376.44 340.965 -31.1954 0 -0 -1 255 255 255 255 0.178519 0.91671
-250 450 31.1952 -0.341283 -0.426561 0.837599 255 255 255 255 0.119649 0.715437
-250 421.441 16.6511 -0.341283 -0.426561 0.837599 255 255 255 255 0.119649 0.701985
-219.692 397.192 16.6511 -0.341283 -0.426561 0.837599 255 255 255 255 0.105374 0.690564
-399.8 296.104 -31.1954 0 -0 -1 255 255 255 255 0.190205 0.892952
-500 500 -31.1954 -1 0 0 255 255 255 255 0.2374 0.988987
-3.2e-05 500 -31.1954 0 1 0 255 255 255 255 0.002013 0.990275
-397.003 213.533 17.5404 0.999239 0.034716 -0.017772 255 255 255 255 0.11729 0.767253
-394.079 136.365 31.1953 0.999239 0.034716 -0.017772 255 255 255 255 0.117316 0.767344
-395.408 142.678 -31.1953 0.999239 0.034716 -0.017772 255 255 255 255 0.117207 0.767411
-400.67 326.5 -31.1954 0.999536 0.03046 0.000242 255 255 255 255 0.117197 0.767156
-400.685 326.507 31.1953 0.999536 0.03046 0.000242 255 255 255 255 0.11731 0.767077
-399.424 285.549 -22.8979 0.999536 0.03046 0.000242 255 255 255 255 0.117214 0.767203
-398.067 235.552 -31.1954 0 -0 -1 255 255 255 255 0.189389 0.864432
-399.74 299.293 31.1953 -0 0 1 255 255 255 255 0.190177 0.894454
-61.9109 46.2588 -31.1953 -0.974013 -0.226491 0.000643 255 255 255 255 0.117718 0.768024
-63.3749 52.7318 31.1953 -0.974013 -0.226491 0.000643 255 255 255 255 0.117821 0.767931
-72.3572 91.3193 17.0046 -0.974013 -0.226491 0.000643 255 255 255 255 0.117789 0.76789
-139.657 388.988 -31.1954 -0 -0 -1 255 255 255 255 0.069739 0.938861
-260.751 400.465 -1.4573 -0.143161 -0.972325 -0.18463 255 255 255 255 0.117483 0.767221
-249.344 401.671 -16.6512 -0.143161 -0.972325 -0.18463 255 255 255 255 0.117471 0.767258
-219.865 397.331 -16.6512 -0.143161 -0.972325 -0.18463 255 255 255 255 0.11752 0.767312
-260.751 400.465 -1.4573 -0.17866 -0.956106 0.232256 255 255 255 255 0.117483 0.767221
-182.356 387.641 6.05328 -0.17866 -0.956106 0.232256 255 255 255 255 0.117629 0.767351
-219.692 397.192 16.6511 -0.17866 -0.956106 0.232256 255 255 255 255 0.11759 0.767262
3 0 1 2 
3 3 2 1 
3 4 5 6 
3 7 8 9 
3 10 11 12 
3 13 14 15 
3 16 17 18 
3 19 20 21 
3 22 23 24 
3 25 26 27 
3 28 29 30 
3 31 32 33 
3 34 35 36 
3 37 38 39 
3 40 41 42 
3 43 44 45 
3 46 47 48 
3 49 50 51 
3 52 53 54 
3 55 56 57 
3 58 59 60 
3 61 62 63 
3 64 65 66 
3 33 32 67 
3 68 69 70 
3 31 71 32 
3 72 73 74 
3 75 76 77 
3 78 79 80 
3 81 82 83 
3 84 85 86 
3 87 88 89 
3 90 91 92 
3 93 94 95 
3 96 97 98 
3 99 58 100 
3 101 102 103 
3 66 104 64 
3 105 106 107 
3 108 109 64 
3 110 111 112 
3 113 114 115 
3 116 117 118 
3 119 120 121 
3 122 123 124 
3 125 126 127 
3 128 129 130 
3 131 132 133 
3 134 135 136 
3 137 138 139 
3 59 140 141 
3 142 143 144 
3 145 106 105 
3 146 147 148 
3 109 149 64 
3 146 150 151 
3 3 152 2 
3 65 153 154 
3 65 155 66 
3 156 157 158 
3 159 160 161 
3 64 162 108 
3 101 163 65 
3 65 164 153 
3 165 166 167 
3 165 60 34 
3 168 169 170 
3 171 172 173 
3 174 175 176 
3 177 178 179 
3 180 181 182 
3 183 184 185 
3 186 180 182 
3 149 150 146 
3 64 149 146 
3 187 188 189 
3 190 191 192 
3 193 100 58 
3 106 193 58 
3 194 195 196 
3 197 198 199 
3 200 201 202 
3 165 168 166 
3 165 34 168 
3 154 203 65 
3 66 155 204 
3 205 206 207 
3 208 209 210 
3 211 212 213 
3 214 215 216 
3 217 218 219 
3 220 221 222 
3 223 224 225 
3 226 227 228 
3 229 230 231 
3 232 233 234 
3 0 235 1 
3 236 237 238 
3 239 240 241 
3 13 242 14 
3 243 244 245 
3 25 246 26 
3 34 60 35 
3 247 248 249 
3 46 250 47 
3 251 252 253 
3 254 255 256 
3 257 258 259 
3 260 261 262 
3 263 264 265 
3 266 267 268 
3 269 270 271 
3 81 272 82 
3 273 274 275 
3 276 277 278 
3 279 280 281 
3 99 140 58 
3 101 282 102 
3 66 283 104 
3 108 284 109 
3 285 286 287 
3 59 58 140 
3 146 151 147 
3 109 288 149 
3 65 203 155 
3 156 289 157 
3 159 290 160 
3 64 104 162 
3 101 103 163 
3 65 163 164 
3 168 34 169 
3 291 292 293 
3 294 295 296 
3 149 297 150 
3 193 298 100 
3 106 145 193 
3 299 300 301 
3 154 302 203 
3 303 304 305 
3 306 307 308 
