ply
format ascii 1.0
comment VCGLIB generated
comment TextureFile Dungeons_2_Texture_01_A.png
element vertex 394
property float x
property float y
property float z
property float nx
property float ny
property float nz
property uchar red
property uchar green
property uchar blue
property uchar alpha
property float texture_u
property float texture_v
element face 212
property list uchar int vertex_indices
end_header
-337.335 314.983 -25.3638 -0 -0 -1 255 255 255 255 0.159952 0.901804
-500 362.186 -25.3638 -0 -0 -1 255 255 255 255 0.234495 0.923435
-348.224 362.186 -25.3638 -0 -0 -1 255 255 255 255 0.164942 0.923435
-348.224 362.186 -25.3638 -0 -0.293661 -0.95591 255 255 255 255 0.164942 0.923435
-500 362.186 -25.3638 -0 -0.293661 -0.95591 255 255 255 255 0.234495 0.923435
-361.186 390.508 -34.0645 -0 -0.293661 -0.95591 255 255 255 255 0.170882 0.936414
-399.237 390.508 -34.0645 0 -0.293661 -0.95591 255 255 255 255 0.188319 0.936414
-399.237 390.508 -34.0645 -0 -0.29366 -0.95591 255 255 255 255 0.188319 0.936414
-500 362.186 -25.3638 -0 -0.29366 -0.95591 255 255 255 255 0.234495 0.923435
-456.075 377.045 -29.9285 -0 -0.29366 -0.95591 255 255 255 255 0.214366 0.930244
-456.075 377.045 -29.9285 0 -0.293661 -0.95591 255 255 255 255 0.214366 0.930244
-484.2 390.508 -34.0645 0 -0.293661 -0.95591 255 255 255 255 0.227255 0.936414
-500 390.508 -34.0645 -0 -0.293661 -0.95591 255 255 255 255 0.234495 0.936414
-500 390.508 34.0644 -1 0 0 255 255 255 255 0.13554 0.936414
-500 500 -34.0645 -1 0 0 255 255 255 255 0.10432 0.98659
-500 390.508 -34.0645 -1 0 0 255 255 255 255 0.10432 0.936414
-500 115.467 -25.3638 -1 -0 0 255 255 255 255 0.108307 0.810373
-500 115.467 25.3638 -1 -0 0 255 255 255 255 0.131553 0.810373
-500 362.186 -25.3638 -1 -0 0 255 255 255 255 0.108307 0.923435
-500 91.2283 -34.0645 -1 0 -0 255 255 255 255 0.10432 0.799266
-500 91.2283 34.0644 -1 0 -0 255 255 255 255 0.13554 0.799266
-500 91.2283 -34.0645 0 0.337855 -0.941198 255 255 255 255 0.234495 0.799266
-337.335 115.467 -25.3638 0 0.337855 -0.941198 255 255 255 255 0.159952 0.810373
-245.162 91.2282 -34.0645 0 0.337855 -0.941198 255 255 255 255 0.117713 0.799266
0 91.2283 -34.0645 0 0.337855 -0.941198 255 255 255 255 0.005365 0.799266
-83.229 91.2283 -34.0645 0 0.337855 -0.941198 255 255 255 255 0.043505 0.799266
-162.665 115.467 -25.3638 0 0.337855 -0.941198 255 255 255 255 0.079908 0.810373
-179.289 103.63 -29.6128 0 0.337855 -0.941198 255 255 255 255 0.087526 0.804949
-337.335 115.467 -25.3638 0 0.337854 -0.941198 255 255 255 255 0.159952 0.810373
-162.665 115.467 -25.3638 0 0.337854 -0.941198 255 255 255 255 0.079908 0.810373
-245.162 91.2282 -34.0645 0 0.337854 -0.941198 255 255 255 255 0.117713 0.799266
-500 -6e-06 -34.0645 0 -0 -1 255 255 255 255 0.234495 0.75746
-500 91.2283 -34.0645 0 -0 -1 255 255 255 255 0.234495 0.799266
0 -6e-06 -34.0645 0 -0 -1 255 255 255 255 0.005365 0.75746
-245.162 91.2282 -34.0645 -0 -0 -1 255 255 255 255 0.117713 0.799266
-162.991 83.0069 -34.0645 -0 -0 -1 255 255 255 255 0.080057 0.795498
-83.229 91.2283 -34.0645 0 -0 -1 255 255 255 255 0.043505 0.799266
0 91.2283 -34.0645 -0 -0 -1 255 255 255 255 0.005365 0.799266
-500 -6e-06 -34.0645 0 -1 0 255 255 255 255 0.13554 0.75746
0 6e-06 34.0645 0 -1 0 255 255 255 255 0.10432 0.98659
-500 6e-06 34.0645 0 -1 0 255 255 255 255 0.10432 0.75746
-500 500 34.0644 0 1 -0 255 255 255 255 0.13554 0.75746
0 500 -34.0645 0 1 -0 255 255 255 255 0.104319 0.98659
-500 500 -34.0645 0 1 -0 255 255 255 255 0.104319 0.75746
-500 115.467 -25.3638 0 0.337855 -0.941198 255 255 255 255 0.234495 0.810373
-500 115.467 -25.3638 -0 -0 -1 255 255 255 255 0.234495 0.810373
-337.335 290.221 -25.3638 -0 -0 -1 255 255 255 255 0.159952 0.890456
-348.111 266.354 -25.3638 -0 -0 -1 255 255 255 255 0.16489 0.879519
-337.335 183.764 -25.3638 -0 -0 -1 255 255 255 255 0.159952 0.841672
-337.335 115.467 -25.3638 0 -0 -1 255 255 255 255 0.159952 0.810373
-279.47 339.186 -16.9637 0.697284 -0.716795 0 255 255 255 255 0.127704 0.687142
-314.335 305.27 16.9636 0.697284 -0.716795 0 255 255 255 255 0.112156 0.6716
-314.335 305.27 -16.9637 0.697284 -0.716795 0 255 255 255 255 0.127704 0.6716
-314.335 115.467 -16.9638 1 0 0 255 255 255 255 0.127704 0.584621
-314.335 305.27 16.9636 1 0 0 255 255 255 255 0.112156 0.6716
-314.335 115.467 16.9638 1 0 0 255 255 255 255 0.112156 0.584621
-211.189 362.186 -25.3638 -0 -0 -1 255 255 255 255 0.102144 0.923435
-151.776 362.186 -25.3638 -0 -0 -1 255 255 255 255 0.074918 0.923435
-162.665 314.983 -25.3638 -0 -0 -1 255 255 255 255 0.079908 0.901804
0 390.508 -34.0645 1 0 0 255 255 255 255 0.13554 0.936414
0 500 34.0644 1 0 0 255 255 255 255 0.10432 0.98659
0 390.508 34.0644 1 0 0 255 255 255 255 0.10432 0.936414
0 115.467 -25.3638 1 0 0 255 255 255 255 0.131553 0.810373
0 362.186 -25.3638 1 0 0 255 255 255 255 0.131553 0.923435
0 115.467 25.3638 1 0 0 255 255 255 255 0.108307 0.810373
0 91.2283 34.0644 1 -0 0 255 255 255 255 0.10432 0.799266
0 91.2283 -34.0645 1 -0 0 255 255 255 255 0.13554 0.799266
-138.814 390.508 -34.0645 0 -0 -1 255 255 255 255 0.068978 0.936414
0 500 -34.0645 0 -0 -1 255 255 255 255 0.005365 0.98659
0 390.508 -34.0645 0 -0 -1 255 255 255 255 0.005365 0.936414
0 115.467 -25.3638 0 0.337855 -0.941198 255 255 255 255 0.005365 0.810373
0 115.467 -25.3638 0 -0 -1 255 255 255 255 0.005365 0.810373
0 362.186 -25.3638 0 -0 -1 255 255 255 255 0.005365 0.923435
-316.362 390.508 -25.3638 0 -0 -1 255 255 255 255 0.150341 0.936414
-288.811 362.186 -25.3638 0 -0 -1 255 255 255 255 0.137715 0.923435
-500 500 -34.0645 -0 -0 -1 255 255 255 255 0.234495 0.98659
-329.226 419.526 -34.0645 -0 -0 -1 255 255 255 255 0.156236 0.949712
-274.713 419.526 -34.0645 0 -0 -1 255 255 255 255 0.131255 0.949712
-224.414 429.177 -34.0645 0 -0 -1 255 255 255 255 0.108205 0.954135
-170.774 419.526 -34.0645 -0 -0 -1 255 255 255 255 0.083624 0.949712
-361.186 390.508 -34.0645 0.186317 -0.209607 -0.95987 255 255 255 255 0.170882 0.936414
-316.362 390.508 -25.3638 0.186317 -0.209607 -0.95987 255 255 255 255 0.150341 0.936414
-348.224 362.186 -25.3638 0.186317 -0.209607 -0.95987 255 255 255 255 0.164942 0.923435
-170.774 419.526 -34.0645 0 -0.287207 -0.957869 255 255 255 255 0.083624 0.949712
-183.638 390.508 -25.3638 0 -0.287207 -0.957869 255 255 255 255 0.089519 0.936414
-228.684 407.941 -30.5908 0 -0.287207 -0.957869 255 255 255 255 0.110162 0.944403
-316.362 390.508 -25.3638 0 -0.287207 -0.957869 255 255 255 255 0.150341 0.936414
-274.713 419.526 -34.0645 -0 -0.287207 -0.957869 255 255 255 255 0.131255 0.949712
-329.226 419.526 -34.0645 -0 -0.287207 -0.957869 255 255 255 255 0.156236 0.949712
-361.186 390.508 -34.0645 0 -0 -1 255 255 255 255 0.170882 0.936414
-399.237 390.508 -34.0645 0 -0 -1 255 255 255 255 0.188319 0.936414
-453.713 405.24 -34.0645 -0 -0 -1 255 255 255 255 0.213284 0.943165
-484.2 390.508 -34.0645 0 -0 -1 255 255 255 255 0.227255 0.936414
-500 390.508 -34.0645 0 -0 -1 255 255 255 255 0.234495 0.936414
-183.638 390.508 -25.3638 -0.186317 -0.209607 -0.95987 255 255 255 255 0.089519 0.936414
-138.814 390.508 -34.0645 -0.186317 -0.209607 -0.95987 255 255 255 255 0.068978 0.936414
-151.776 362.186 -25.3638 -0.186317 -0.209607 -0.95987 255 255 255 255 0.074918 0.923435
-138.814 390.508 -34.0645 0 -0.293661 -0.95591 255 255 255 255 0.068978 0.936414
0 362.186 -25.3638 0 -0.293661 -0.95591 255 255 255 255 0.005365 0.923435
-151.776 362.186 -25.3638 0 -0.293661 -0.95591 255 255 255 255 0.074918 0.923435
-288.811 362.186 -25.3638 0.448491 -0.46104 -0.765701 255 255 255 255 0.137715 0.923435
-327.335 310.76 -16.9638 0.448491 -0.46104 -0.765701 255 255 255 255 0.155369 0.899869
-337.335 314.983 -25.3638 0.448491 -0.46104 -0.765701 255 255 255 255 0.159952 0.901804
-337.335 314.983 -25.3638 0.643192 -0 -0.765705 255 255 255 255 0.159952 0.901804
-327.335 310.76 -16.9638 0.643192 -0 -0.765705 255 255 255 255 0.155369 0.899869
-337.335 290.221 -25.3638 0.643192 -0 -0.765705 255 255 255 255 0.159952 0.890456
-337.335 115.467 -25.3638 0.643192 -0 -0.765705 255 255 255 255 0.159952 0.810373
-337.335 183.764 -25.3638 0.643192 -0 -0.765705 255 255 255 255 0.159952 0.841672
-327.335 115.467 -16.9638 0.643192 -0 -0.765705 255 255 255 255 0.155369 0.810373
-330.336 262.721 -19.4845 0.643192 -0 -0.765705 255 255 255 255 0.156745 0.877854
-211.189 362.186 -25.3638 0 -0.643192 -0.765705 255 255 255 255 0.102144 0.923435
-284.749 352.186 -16.9638 0 -0.643192 -0.765705 255 255 255 255 0.135854 0.918853
-288.811 362.186 -25.3638 0 -0.643192 -0.765705 255 255 255 255 0.137715 0.923435
-211.189 362.186 -25.3638 -0.448487 -0.461038 -0.765705 255 255 255 255 0.102144 0.923435
-172.665 310.76 -16.9638 -0.448487 -0.461038 -0.765705 255 255 255 255 0.08449 0.899869
-215.25 352.186 -16.9638 -0.448487 -0.461038 -0.765705 255 255 255 255 0.104006 0.918853
-162.665 115.467 -25.3638 -0.643192 -0 -0.765705 255 255 255 255 0.079908 0.810373
-172.665 310.76 -16.9638 -0.643192 -0 -0.765705 255 255 255 255 0.08449 0.899869
-162.665 314.983 -25.3638 -0.643192 -0 -0.765705 255 255 255 255 0.079908 0.901804
-284.749 352.186 -16.9638 7e-06 -7e-06 -1 255 255 255 255 0.135854 0.68271
-314.335 305.27 -16.9637 7e-06 -7e-06 -1 255 255 255 255 0.149412 0.661209
-327.335 310.76 -16.9638 7e-06 -7e-06 -1 255 255 255 255 0.155369 0.663726
-327.335 115.467 -16.9638 0 0 -1 255 255 255 255 0.155369 0.57423
-314.335 305.27 -16.9637 0 0 -1 255 255 255 255 0.149412 0.661209
-314.335 115.467 -16.9638 0 0 -1 255 255 255 255 0.149412 0.57423
-284.749 352.186 -16.9638 -1e-06 -1e-05 -1 255 255 255 255 0.135854 0.68271
-220.531 339.186 -16.9638 -1e-06 -1e-05 -1 255 255 255 255 0.106425 0.676752
-279.47 339.186 -16.9637 -1e-06 -1e-05 -1 255 255 255 255 0.133435 0.676752
-215.25 352.186 -16.9638 -3e-06 -4e-06 -1 255 255 255 255 0.104006 0.68271
-185.665 305.27 -16.9638 -3e-06 -4e-06 -1 255 255 255 255 0.090448 0.661209
-220.531 339.186 -16.9638 -3e-06 -4e-06 -1 255 255 255 255 0.106425 0.676752
-172.665 115.467 -16.9638 -5e-06 -0 -1 255 255 255 255 0.08449 0.57423
-185.665 305.27 -16.9638 -5e-06 -0 -1 255 255 255 255 0.090448 0.661209
-172.665 310.76 -16.9638 -5e-06 -0 -1 255 255 255 255 0.08449 0.663726
-314.335 115.467 -16.9638 0 1 -0 255 255 255 255 0.112156 0.842542
-185.665 115.467 16.9638 0 1 -0 255 255 255 255 0.127704 0.901507
-185.665 115.467 -16.9638 0 1 -0 255 255 255 255 0.112156 0.901507
-185.665 115.467 -16.9638 0 1 -1e-06 255 255 255 255 0.112156 0.901507
-337.335 115.467 -25.3638 0 1 -1e-06 255 255 255 255 0.108307 0.832003
-314.335 115.467 -16.9638 0 1 -1e-06 255 255 255 255 0.112156 0.842542
-327.335 115.467 -16.9638 0 1 -1e-06 255 255 255 255 0.112156 0.836585
-162.665 115.467 -25.3638 0 1 -1e-06 255 255 255 255 0.108307 0.912047
-172.665 115.467 -16.9638 0 1 -1e-06 255 255 255 255 0.112156 0.907464
-337.335 314.983 25.3637 0 0 1 255 255 255 255 0.159952 0.842246
-348.224 362.186 25.3637 0 0 1 255 255 255 255 0.164942 0.820614
-500 362.186 25.3637 0 0 1 255 255 255 255 0.234495 0.820614
-361.186 390.508 34.0644 -0 -0.29366 0.95591 255 255 255 255 0.170882 0.807635
-500 362.186 25.3637 -0 -0.29366 0.95591 255 255 255 255 0.234495 0.820614
-348.224 362.186 25.3637 -0 -0.29366 0.95591 255 255 255 255 0.164942 0.820614
-500 91.2283 34.0644 0 0.337855 0.941198 255 255 255 255 0.234495 0.944783
-343.13 91.2283 34.0644 0 0.337855 0.941198 255 255 255 255 0.162608 0.944783
-337.335 115.467 25.3638 0 0.337855 0.941198 255 255 255 255 0.159952 0.933676
0 91.2283 34.0644 0 0.337855 0.941198 255 255 255 255 0.005365 0.944783
-162.665 115.467 25.3638 0 0.337855 0.941198 255 255 255 255 0.079908 0.933676
-106.566 91.2283 34.0644 0 0.337855 0.941198 255 255 255 255 0.0542 0.944783
-164.924 102.367 30.0662 0 0.337855 0.941198 255 255 255 255 0.080943 0.939679
-296.742 106.461 28.5966 0 0.337855 0.941198 255 255 255 255 0.14135 0.937803
-500 6e-06 34.0645 0 0 1 255 255 255 255 0.234495 0.98659
0 6e-06 34.0645 0 0 1 255 255 255 255 0.005365 0.98659
-500 91.2283 34.0644 0 0 1 255 255 255 255 0.234495 0.944783
-343.13 91.2283 34.0644 0 0 1 255 255 255 255 0.162608 0.944783
-299.636 85.1003 34.0644 0 0 1 255 255 255 255 0.142676 0.947592
-160.807 84.5826 34.0644 0 0 1 255 255 255 255 0.079056 0.947829
-106.566 91.2283 34.0644 -0 0 1 255 255 255 255 0.0542 0.944783
0 91.2283 34.0644 -0 0 1 255 255 255 255 0.005365 0.944783
-500 115.467 25.3638 -0 0.337855 0.941198 255 255 255 255 0.234495 0.933676
-500 115.467 25.3638 0 0 1 255 255 255 255 0.234495 0.933676
-220.531 339.186 16.9637 0 -1 0 255 255 255 255 0.112156 0.649386
-279.47 339.186 -16.9637 0 -1 0 255 255 255 255 0.127704 0.622377
-220.531 339.186 -16.9638 0 -1 0 255 255 255 255 0.127704 0.649386
-211.189 362.186 25.3637 0 0 1 255 255 255 255 0.102144 0.820614
-151.776 362.186 25.3637 0 0 1 255 255 255 255 0.074918 0.820614
-183.638 390.508 25.3637 0 0 1 255 255 255 255 0.089519 0.807635
-170.774 419.526 34.0644 0 0 1 255 255 255 255 0.083624 0.794338
-138.814 390.508 34.0644 0 0 1 255 255 255 255 0.068978 0.807635
0 500 34.0644 0 0 1 255 255 255 255 0.005365 0.757459
-126.358 390.508 34.0644 0 0 1 255 255 255 255 0.06327 0.807635
-53.9912 405.108 34.0644 -0 0 1 255 255 255 255 0.030107 0.800945
-16.2375 390.508 34.0644 0 0 1 255 255 255 255 0.012806 0.807635
0 390.508 34.0644 0 0 1 255 255 255 255 0.005365 0.807635
0 115.467 25.3638 -0 0.337855 0.941198 255 255 255 255 0.005365 0.933676
0 362.186 25.3637 -0 0 1 255 255 255 255 0.005365 0.820614
-162.665 314.983 25.3637 -0 0 1 255 255 255 255 0.079908 0.842246
0 115.467 25.3638 -0 0 1 255 255 255 255 0.005365 0.933676
-162.665 275.571 25.3637 -0 0 1 255 255 255 255 0.079908 0.860307
-147.211 229.991 25.3637 0 0 1 255 255 255 255 0.072826 0.881194
-162.665 146.53 25.3637 -0 0 1 255 255 255 255 0.079908 0.919441
-162.665 115.467 25.3638 0 0 1 255 255 255 255 0.079908 0.933676
-185.665 305.27 16.9637 -0.697279 -0.7168 0 255 255 255 255 0.127704 0.6716
-220.531 339.186 -16.9638 -0.697279 -0.7168 0 255 255 255 255 0.112156 0.687142
-185.665 305.27 -16.9638 -0.697279 -0.7168 0 255 255 255 255 0.112156 0.6716
-185.665 115.467 16.9638 -1 0 0 255 255 255 255 0.127704 0.584621
-185.665 305.27 -16.9638 -1 0 0 255 255 255 255 0.112156 0.6716
-185.665 115.467 -16.9638 -1 0 0 255 255 255 255 0.112156 0.584621
-316.362 390.508 25.3637 0 0 1 255 255 255 255 0.150341 0.807635
-288.811 362.186 25.3637 0 0 1 255 255 255 255 0.137715 0.820614
-329.226 419.526 34.0644 -0 0 1 255 255 255 255 0.156236 0.794338
-500 500 34.0644 -0 0 1 255 255 255 255 0.234495 0.757459
-361.186 390.508 34.0644 0.186487 -0.205399 0.960746 255 255 255 255 0.170882 0.807635
-316.362 390.508 25.3637 0.186487 -0.205399 0.960746 255 255 255 255 0.150341 0.807635
-329.226 419.526 34.0644 0.186487 -0.205399 0.960746 255 255 255 255 0.156236 0.794338
-183.638 390.508 25.3637 0 -0.287207 0.957869 255 255 255 255 0.089519 0.807635
-329.226 419.526 34.0644 0 -0.287207 0.957869 255 255 255 255 0.156236 0.794338
-316.362 390.508 25.3637 0 -0.287207 0.957869 255 255 255 255 0.150341 0.807635
-361.186 390.508 34.0644 -0 0 1 255 255 255 255 0.170882 0.807635
-183.638 390.508 25.3637 -0.186487 -0.205398 0.960747 255 255 255 255 0.089519 0.807635
-138.814 390.508 34.0644 -0.186487 -0.205398 0.960747 255 255 255 255 0.068978 0.807635
-170.774 419.526 34.0644 -0.186487 -0.205398 0.960747 255 255 255 255 0.083624 0.794338
-151.776 362.186 25.3637 0 -0.293661 0.95591 255 255 255 255 0.074918 0.820614
0 362.186 25.3637 0 -0.293661 0.95591 255 255 255 255 0.005365 0.820614
-138.814 390.508 34.0644 0 -0.293661 0.95591 255 255 255 255 0.068978 0.807635
-126.358 390.508 34.0644 0 -0.293661 0.95591 255 255 255 255 0.06327 0.807635
-126.358 390.508 34.0644 -1e-06 -0.293665 0.955908 255 255 255 255 0.06327 0.807635
0 362.186 25.3637 -1e-06 -0.293665 0.955908 255 255 255 255 0.005365 0.820614
-65.6255 380.272 30.9196 -1e-06 -0.293665 0.955908 255 255 255 255 0.035438 0.812326
0 390.508 34.0644 0 -0.293661 0.95591 255 255 255 255 0.005365 0.807635
-16.2375 390.508 34.0644 0 -0.293661 0.95591 255 255 255 255 0.012806 0.807635
-65.6255 380.272 30.9196 0 -0.293661 0.95591 255 255 255 255 0.035438 0.812326
-327.335 310.76 16.9637 0.448491 -0.46104 0.765701 255 255 255 255 0.155369 0.844181
-288.811 362.186 25.3637 0.448491 -0.46104 0.765701 255 255 255 255 0.137715 0.820614
-337.335 314.983 25.3637 0.448491 -0.46104 0.765701 255 255 255 255 0.159952 0.842246
-337.335 115.467 25.3638 0.643192 0 0.765705 255 255 255 255 0.159952 0.933676
-327.335 310.76 16.9637 0.643192 0 0.765705 255 255 255 255 0.155369 0.844181
-337.335 314.983 25.3637 0.643192 0 0.765705 255 255 255 255 0.159952 0.842246
-284.749 352.186 16.9637 0 -0.643192 0.765705 255 255 255 255 0.135854 0.825197
-211.189 362.186 25.3637 0 -0.643192 0.765705 255 255 255 255 0.102144 0.820614
-288.811 362.186 25.3637 0 -0.643192 0.765705 255 255 255 255 0.137715 0.820614
-211.189 362.186 25.3637 -0.448491 -0.46104 0.765701 255 255 255 255 0.102144 0.820614
-172.665 310.76 16.9637 -0.448491 -0.46104 0.765701 255 255 255 255 0.08449 0.844181
-162.665 314.983 25.3637 -0.448491 -0.46104 0.765701 255 255 255 255 0.079908 0.842246
-162.665 146.53 25.3637 -0.643192 0 0.765705 255 255 255 255 0.079908 0.919441
-172.665 115.467 16.9638 -0.643192 0 0.765705 255 255 255 255 0.08449 0.933676
-162.665 115.467 25.3638 -0.643192 0 0.765705 255 255 255 255 0.079908 0.933676
-314.335 305.27 16.9636 6e-06 -7e-06 1 255 255 255 255 0.149412 0.610554
-284.749 352.186 16.9637 6e-06 -7e-06 1 255 255 255 255 0.135854 0.589054
-327.335 310.76 16.9637 6e-06 -7e-06 1 255 255 255 255 0.155369 0.608037
-327.335 115.467 16.9638 9e-06 0 1 255 255 255 255 0.155369 0.697533
-314.335 305.27 16.9636 9e-06 0 1 255 255 255 255 0.149412 0.610554
-327.335 310.76 16.9637 9e-06 0 1 255 255 255 255 0.155369 0.608037
-284.749 352.186 16.9637 0 -5e-06 1 255 255 255 255 0.135854 0.589054
-220.531 339.186 16.9637 0 -5e-06 1 255 255 255 255 0.106425 0.595011
-215.25 352.186 16.9637 0 -5e-06 1 255 255 255 255 0.104006 0.589054
-215.25 352.186 16.9637 -3e-06 -3e-06 1 255 255 255 255 0.104006 0.589054
-185.665 305.27 16.9637 -3e-06 -3e-06 1 255 255 255 255 0.090448 0.610554
-172.665 310.76 16.9637 -3e-06 -3e-06 1 255 255 255 255 0.08449 0.608037
-172.665 310.76 16.9637 -5e-06 0 1 255 255 255 255 0.08449 0.608037
-185.665 305.27 16.9637 -5e-06 0 1 255 255 255 255 0.090448 0.610554
-172.665 224.092 16.9637 -5e-06 0 1 255 255 255 255 0.08449 0.647754
-185.665 305.27 16.9637 -3e-06 0 1 255 255 255 255 0.090448 0.610554
-185.665 115.467 16.9638 -3e-06 0 1 255 255 255 255 0.090448 0.697533
-172.665 224.092 16.9637 -3e-06 0 1 255 255 255 255 0.08449 0.647754
-185.665 115.467 16.9638 0 0 1 255 255 255 255 0.090448 0.697533
-172.665 115.467 16.9638 0 0 1 255 255 255 255 0.08449 0.697533
-172.665 224.092 16.9637 0 0 1 255 255 255 255 0.08449 0.647754
-337.335 115.467 25.3638 0 1 -1e-06 255 255 255 255 0.131553 0.832003
-185.665 115.467 16.9638 0 1 -1e-06 255 255 255 255 0.127704 0.901507
-314.335 115.467 16.9638 0 1 -1e-06 255 255 255 255 0.127704 0.842542
-327.335 115.467 16.9638 0 1 -1e-06 255 255 255 255 0.127704 0.836585
-162.665 115.467 25.3638 0 1 -1e-06 255 255 255 255 0.131553 0.912047
-172.665 115.467 16.9638 0 1 -1e-06 255 255 255 255 0.127704 0.907464
-500 362.186 25.3637 -1 0 0 255 255 255 255 0.131553 0.923435
0 -6e-06 -34.0645 1 0 -0 255 255 255 255 0.13554 0.75746
0 362.186 25.3637 1 0 0 255 255 255 255 0.108307 0.923435
-500 6e-06 34.0645 -1 -0 -0 255 255 255 255 0.13554 0.75746
-337.335 290.221 -25.3638 0.287361 -0.129747 -0.948994 255 255 255 255 0.159952 0.890456
-330.336 262.721 -19.4845 0.287361 -0.129747 -0.948994 255 255 255 255 0.156745 0.877854
-348.111 266.354 -25.3638 0.287361 -0.129747 -0.948994 255 255 255 255 0.16489 0.879519
-348.111 266.354 -25.3638 0.321461 0.041945 -0.945994 255 255 255 255 0.16489 0.879519
-330.336 262.721 -19.4845 0.321461 0.041945 -0.945994 255 255 255 255 0.156745 0.877854
-337.335 183.764 -25.3638 0.321461 0.041945 -0.945994 255 255 255 255 0.159952 0.841672
-224.414 429.177 -34.0645 0.032165 -0.167645 -0.985322 255 255 255 255 0.108205 0.954135
-228.684 407.941 -30.5908 0.032165 -0.167645 -0.985322 255 255 255 255 0.110162 0.944403
-274.713 419.526 -34.0645 0.032165 -0.167645 -0.985322 255 255 255 255 0.131255 0.949712
-170.774 419.526 -34.0645 -0.028045 -0.155873 -0.987379 255 255 255 255 0.083624 0.949712
-228.684 407.941 -30.5908 -0.028045 -0.155873 -0.987379 255 255 255 255 0.110162 0.944403
-224.414 429.177 -34.0645 -0.028045 -0.155873 -0.987379 255 255 255 255 0.108205 0.954135
-245.162 91.2282 -34.0645 0.022827 0.228149 -0.973359 255 255 255 255 0.117713 0.799266
-179.289 103.63 -29.6128 0.022827 0.228149 -0.973359 255 255 255 255 0.087526 0.804949
-162.991 83.0069 -34.0645 0.022827 0.228149 -0.973359 255 255 255 255 0.080057 0.795498
-162.991 83.0069 -34.0645 -0.020172 0.195702 -0.980456 255 255 255 255 0.080057 0.795498
-179.289 103.63 -29.6128 -0.020172 0.195702 -0.980456 255 255 255 255 0.087526 0.804949
-83.229 91.2283 -34.0645 -0.020172 0.195702 -0.980456 255 255 255 255 0.043505 0.799266
-65.6255 380.272 30.9196 0.027928 -0.138431 0.989978 255 255 255 255 0.035438 0.812326
-53.9912 405.108 34.0644 0.027928 -0.138431 0.989978 255 255 255 255 0.030107 0.800945
-126.358 390.508 34.0644 0.027928 -0.138431 0.989978 255 255 255 255 0.06327 0.807635
-16.2375 390.508 34.0644 -0.041185 -0.106497 0.99346 255 255 255 255 0.012806 0.807635
-53.9912 405.108 34.0644 -0.041185 -0.106497 0.99346 255 255 255 255 0.030107 0.800945
-65.6255 380.272 30.9196 -0.041185 -0.106497 0.99346 255 255 255 255 0.035438 0.812326
-172.665 310.76 16.9637 -0.643192 0 0.765705 255 255 255 255 0.08449 0.844181
-162.665 275.571 25.3637 -0.643192 0 0.765705 255 255 255 255 0.079908 0.860307
-162.665 314.983 25.3637 -0.643192 0 0.765705 255 255 255 255 0.079908 0.842246
-162.665 275.571 25.3637 -0.291151 -0.098715 0.951571 255 255 255 255 0.079908 0.860307
-172.665 224.092 16.9637 -0.291151 -0.098715 0.951571 255 255 255 255 0.08449 0.883897
-147.211 229.991 25.3637 -0.291151 -0.098715 0.951571 255 255 255 255 0.072826 0.881194
-147.211 229.991 25.3637 -0.325379 0.060248 0.943662 255 255 255 255 0.072826 0.881194
-172.665 224.092 16.9637 -0.325379 0.060248 0.943662 255 255 255 255 0.08449 0.883897
-162.665 146.53 25.3637 -0.325379 0.060248 0.943662 255 255 255 255 0.079908 0.919441
-164.924 102.367 30.0662 0.000819 0.219528 0.975606 255 255 255 255 0.080943 0.939679
-299.636 85.1003 34.0644 0.000819 0.219528 0.975606 255 255 255 255 0.142676 0.947592
-160.807 84.5826 34.0644 0.000819 0.219528 0.975606 255 255 255 255 0.079056 0.947829
-299.636 85.1003 34.0644 0.034304 0.243475 0.969301 255 255 255 255 0.142676 0.947592
-296.742 106.461 28.5966 0.034304 0.243475 0.969301 255 255 255 255 0.14135 0.937803
-343.13 91.2283 34.0644 0.034304 0.243475 0.969301 255 255 255 255 0.162608 0.944783
-106.566 91.2283 34.0644 -0.026159 0.213505 0.976592 255 255 255 255 0.0542 0.944783
-164.924 102.367 30.0662 -0.026159 0.213505 0.976592 255 255 255 255 0.080943 0.939679
-160.807 84.5826 34.0644 -0.026159 0.213505 0.976592 255 255 255 255 0.079056 0.947829
-399.237 390.508 -34.0645 0.237263 -0.867088 0.438024 255 255 255 255 0.120878 0.891492
-456.075 377.045 -29.9285 0.237263 -0.867088 0.438024 255 255 255 255 0.118982 0.865446
-456.075 377.045 -29.9285 0.237263 -0.867088 0.438024 255 255 255 255 0.118982 0.865446
-456.075 377.045 -29.9285 -0.038369 -0.141883 -0.98914 255 255 255 255 0.214366 0.930244
-453.713 405.24 -34.0645 -0.038369 -0.141883 -0.98914 255 255 255 255 0.213284 0.943165
-399.237 390.508 -34.0645 -0.038369 -0.141883 -0.98914 255 255 255 255 0.188319 0.936414
-456.075 377.045 -29.9285 -0.295354 -0.784505 -0.545269 255 255 255 255 0.118982 0.865446
-456.075 377.045 -29.9285 -0.295354 -0.784505 -0.545269 255 255 255 255 0.118982 0.865446
-484.2 390.508 -34.0645 -0.295354 -0.784505 -0.545269 255 255 255 255 0.120878 0.852557
-484.2 390.508 -34.0645 0.072832 -0.150721 -0.98589 255 255 255 255 0.227255 0.936414
-453.713 405.24 -34.0645 0.072832 -0.150721 -0.98589 255 255 255 255 0.213284 0.943165
-456.075 377.045 -29.9285 0.072832 -0.150721 -0.98589 255 255 255 255 0.214366 0.930244
-500 500 34.0644 -1 0 0 255 255 255 255 0.13554 0.98659
0 -6e-06 -34.0645 0 -1 0 255 255 255 255 0.13554 0.98659
0 500 34.0644 0 1 -0 255 255 255 255 0.13554 0.98659
-279.47 339.186 16.9636 0.697284 -0.716795 0 255 255 255 255 0.112156 0.687142
-314.335 305.27 -16.9637 1 0 0 255 255 255 255 0.127704 0.6716
-183.638 390.508 -25.3638 -0 -0 -1 255 255 255 255 0.089519 0.936414
0 500 -34.0645 1 0 0 255 255 255 255 0.13554 0.98659
-162.665 115.467 -25.3638 0 -0 -1 255 255 255 255 0.079908 0.810373
-361.186 390.508 -34.0645 0.186487 -0.205399 -0.960746 255 255 255 255 0.170882 0.936414
-329.226 419.526 -34.0645 0.186487 -0.205399 -0.960746 255 255 255 255 0.156236 0.949712
-316.362 390.508 -25.3638 0.186487 -0.205399 -0.960746 255 255 255 255 0.150341 0.936414
-183.638 390.508 -25.3638 -0.186487 -0.205399 -0.960746 255 255 255 255 0.089519 0.936414
-170.774 419.526 -34.0645 -0.186487 -0.205399 -0.960746 255 255 255 255 0.083624 0.949712
-138.814 390.508 -34.0645 -0.186487 -0.205399 -0.960746 255 255 255 255 0.068978 0.936414
-138.814 390.508 -34.0645 -0 -0.293661 -0.955909 255 255 255 255 0.068978 0.936414
0 390.508 -34.0645 -0 -0.293661 -0.955909 255 255 255 255 0.005365 0.936414
0 362.186 -25.3638 -0 -0.293661 -0.955909 255 255 255 255 0.005365 0.923435
-288.811 362.186 -25.3638 0.448475 -0.46103 -0.765716 255 255 255 255 0.137715 0.923435
-284.749 352.186 -16.9638 0.448475 -0.46103 -0.765716 255 255 255 255 0.135854 0.918853
-327.335 310.76 -16.9638 0.448475 -0.46103 -0.765716 255 255 255 255 0.155369 0.899869
-215.25 352.186 -16.9638 0 -0.643192 -0.765705 255 255 255 255 0.104006 0.918853
-211.189 362.186 -25.3638 -0.448491 -0.46104 -0.765701 255 255 255 255 0.102144 0.923435
-162.665 314.983 -25.3638 -0.448491 -0.46104 -0.765701 255 255 255 255 0.079908 0.901804
-172.665 310.76 -16.9638 -0.448491 -0.46104 -0.765701 255 255 255 255 0.08449 0.899869
-172.665 115.467 -16.9638 -0.643192 -0 -0.765705 255 255 255 255 0.08449 0.810373
-279.47 339.186 -16.9637 7e-06 -7e-06 -1 255 255 255 255 0.133435 0.676752
-327.335 115.467 -16.9638 9e-06 -0 -1 255 255 255 255 0.155369 0.57423
-327.335 310.76 -16.9638 9e-06 -0 -1 255 255 255 255 0.155369 0.663726
-314.335 305.27 -16.9637 9e-06 -0 -1 255 255 255 255 0.149412 0.661209
-284.749 352.186 -16.9638 -0 -5e-06 -1 255 255 255 255 0.135854 0.68271
-215.25 352.186 -16.9638 -0 -5e-06 -1 255 255 255 255 0.104006 0.68271
-220.531 339.186 -16.9638 -0 -5e-06 -1 255 255 255 255 0.106425 0.676752
-172.665 310.76 -16.9638 -3e-06 -4e-06 -1 255 255 255 255 0.08449 0.663726
-172.665 115.467 -16.9638 0 0 -1 255 255 255 255 0.08449 0.57423
-185.665 115.467 -16.9638 0 0 -1 255 255 255 255 0.090448 0.57423
-185.665 305.27 -16.9638 0 0 -1 255 255 255 255 0.090448 0.661209
-314.335 115.467 16.9638 0 1 0 255 255 255 255 0.127704 0.842542
-361.186 390.508 34.0644 0 -0.293661 0.95591 255 255 255 255 0.170882 0.807635
-500 390.508 34.0644 0 -0.293661 0.95591 255 255 255 255 0.234495 0.807635
-500 362.186 25.3637 0 -0.293661 0.95591 255 255 255 255 0.234495 0.820614
-337.335 115.467 25.3638 0 0 1 255 255 255 255 0.159952 0.933676
-279.47 339.186 16.9636 0 -1 0 255 255 255 255 0.112156 0.622377
-220.531 339.186 16.9637 -0.697279 -0.7168 0 255 255 255 255 0.127704 0.687142
-185.665 305.27 16.9637 -1 0 0 255 255 255 255 0.127704 0.6716
-361.186 390.508 34.0644 0.186317 -0.209607 0.95987 255 255 255 255 0.170882 0.807635
-348.224 362.186 25.3637 0.186317 -0.209607 0.95987 255 255 255 255 0.164942 0.820614
-316.362 390.508 25.3637 0.186317 -0.209607 0.95987 255 255 255 255 0.150341 0.807635
-170.774 419.526 34.0644 0 -0.287207 0.957869 255 255 255 255 0.083624 0.794338
-500 390.508 34.0644 -0 0 1 255 255 255 255 0.234495 0.807635
-183.638 390.508 25.3637 -0.186317 -0.209607 0.95987 255 255 255 255 0.089519 0.807635
-151.776 362.186 25.3637 -0.186317 -0.209607 0.95987 255 255 255 255 0.074918 0.820614
-138.814 390.508 34.0644 -0.186317 -0.209607 0.95987 255 255 255 255 0.068978 0.807635
-327.335 310.76 16.9637 0.448475 -0.46103 0.765716 255 255 255 255 0.155369 0.844181
-284.749 352.186 16.9637 0.448475 -0.46103 0.765716 255 255 255 255 0.135854 0.825197
-288.811 362.186 25.3637 0.448475 -0.46103 0.765716 255 255 255 255 0.137715 0.820614
-327.335 115.467 16.9638 0.643192 0 0.765705 255 255 255 255 0.155369 0.933676
-215.25 352.186 16.9637 0 -0.643192 0.765705 255 255 255 255 0.104006 0.825197
-211.189 362.186 25.3637 -0.448487 -0.461037 0.765705 255 255 255 255 0.102144 0.820614
-215.25 352.186 16.9637 -0.448487 -0.461037 0.765705 255 255 255 255 0.104006 0.825197
-172.665 310.76 16.9637 -0.448487 -0.461037 0.765705 255 255 255 255 0.08449 0.844181
-172.665 224.092 16.9637 -0.643192 0 0.765705 255 255 255 255 0.08449 0.883897
-314.335 305.27 16.9636 7e-06 -7e-06 1 255 255 255 255 0.149412 0.610554
-279.47 339.186 16.9636 7e-06 -7e-06 1 255 255 255 255 0.133435 0.595011
-284.749 352.186 16.9637 7e-06 -7e-06 1 255 255 255 255 0.135854 0.589054
-327.335 115.467 16.9638 0 1e-06 1 255 255 255 255 0.155369 0.697533
-314.335 115.467 16.9638 0 1e-06 1 255 255 255 255 0.149412 0.697533
-314.335 305.27 16.9636 0 1e-06 1 255 255 255 255 0.149412 0.610554
-284.749 352.186 16.9637 -1e-06 -1e-05 1 255 255 255 255 0.135854 0.589054
-279.47 339.186 16.9636 -1e-06 -1e-05 1 255 255 255 255 0.133435 0.595011
-220.531 339.186 16.9637 -1e-06 -1e-05 1 255 255 255 255 0.106425 0.595011
-220.531 339.186 16.9637 -3e-06 -3e-06 1 255 255 255 255 0.106425 0.595011
0 6e-06 34.0645 1 -0 0 255 255 255 255 0.10432 0.75746
-500 -6e-06 -34.0645 -1 0 -0 255 255 255 255 0.10432 0.75746
-164.924 102.367 30.0662 -0.003085 0.248376 0.968659 255 255 255 255 0.080943 0.939679
-296.742 106.461 28.5966 -0.003085 0.248376 0.968659 255 255 255 255 0.14135 0.937803
-299.636 85.1003 34.0644 -0.003085 0.248376 0.968659 255 255 255 255 0.142676 0.947592
3 0 1 2 
3 3 4 5 
3 5 4 6 
3 7 8 9 
3 10 4 11 
3 4 12 11 
3 13 14 15 
3 16 17 18 
3 16 19 20 
3 21 22 23 
3 24 25 26 
3 25 27 26 
3 28 29 30 
3 26 27 23 
3 31 32 33 
3 32 34 33 
3 34 35 33 
3 35 36 33 
3 36 37 33 
3 38 39 40 
3 41 42 43 
3 21 44 22 
3 1 0 45 
3 0 46 45 
3 46 47 45 
3 47 48 45 
3 48 49 45 
3 50 51 52 
3 53 54 55 
3 56 57 58 
3 59 60 61 
3 62 63 64 
3 62 65 66 
3 67 68 69 
3 24 26 70 
3 71 58 72 
3 73 56 74 
3 75 68 76 
3 76 68 77 
3 77 68 78 
3 68 79 78 
3 80 81 82 
3 83 84 85 
3 84 86 85 
3 85 86 87 
3 86 88 87 
3 76 89 75 
3 89 90 75 
3 90 91 75 
3 91 92 75 
3 75 92 93 
3 94 95 96 
3 74 2 73 
3 97 98 99 
3 58 57 72 
3 100 101 102 
3 103 104 105 
3 106 107 108 
3 105 104 109 
3 104 108 109 
3 107 109 108 
3 110 111 112 
3 113 114 115 
3 116 117 118 
3 119 120 121 
3 122 123 124 
3 125 126 127 
3 128 129 130 
3 131 132 133 
3 134 135 136 
3 137 138 139 
3 139 138 140 
3 141 137 142 
3 143 144 145 
3 146 147 148 
3 149 150 151 
3 152 153 154 
3 154 153 155 
3 150 156 151 
3 151 156 153 
3 156 155 153 
3 157 158 159 
3 159 158 160 
3 160 158 161 
3 161 158 162 
3 162 158 163 
3 158 164 163 
3 149 151 165 
3 166 143 145 
3 167 168 169 
3 170 171 172 
3 173 174 175 
3 174 176 175 
3 176 177 175 
3 177 178 175 
3 178 179 175 
3 152 180 153 
3 181 182 183 
3 182 184 183 
3 184 185 183 
3 185 186 183 
3 186 187 183 
3 188 189 190 
3 191 192 193 
3 170 194 195 
3 196 175 197 
3 198 199 200 
3 201 202 203 
3 197 204 196 
3 205 206 207 
3 195 144 143 
3 208 209 210 
3 210 209 211 
3 212 213 214 
3 215 216 209 
3 209 216 217 
3 182 181 171 
3 218 219 220 
3 221 222 223 
3 224 225 226 
3 227 228 229 
3 230 231 232 
3 233 234 235 
3 236 237 238 
3 239 240 241 
3 242 243 244 
3 245 246 247 
3 248 249 250 
3 251 252 253 
3 254 255 256 
3 256 257 254 
3 258 259 255 
3 17 260 18 
3 16 20 17 
3 62 64 65 
3 65 261 66 
3 64 63 262 
3 262 63 61 
3 63 59 61 
3 18 13 15 
3 18 260 13 
3 19 263 20 
3 264 265 266 
3 267 268 269 
3 270 271 272 
3 273 274 275 
3 276 277 278 
3 279 280 281 
3 282 283 284 
3 285 286 287 
3 288 289 290 
3 291 292 293 
3 294 295 296 
3 297 298 299 
3 300 301 302 
3 303 304 305 
3 306 307 308 
3 309 310 311 
3 312 313 314 
3 315 316 317 
3 13 318 14 
3 38 319 39 
3 41 320 42 
3 50 321 51 
3 53 322 54 
3 56 323 57 
3 59 324 60 
3 67 79 68 
3 71 325 58 
3 73 323 56 
3 326 327 328 
3 329 330 331 
3 74 0 2 
3 332 333 334 
3 335 336 337 
3 110 338 111 
3 339 340 341 
3 116 342 117 
3 119 343 120 
3 344 345 346 
3 347 348 349 
3 128 350 129 
3 351 352 353 
3 134 354 135 
3 137 141 138 
3 355 356 357 
3 166 358 143 
3 167 359 168 
3 170 182 171 
3 188 360 189 
3 191 361 192 
3 170 172 194 
3 196 173 175 
3 362 363 364 
3 201 365 202 
3 197 366 204 
3 367 368 369 
3 195 194 144 
3 370 371 372 
3 221 373 222 
3 224 374 225 
3 375 376 377 
3 230 378 231 
3 379 380 381 
3 382 383 384 
3 385 386 387 
3 242 388 243 
3 254 258 255 
3 65 389 261 
3 19 390 263 
3 288 378 289 
3 391 392 393 
