ply
format ascii 1.0
comment VCGLIB generated
comment TextureFile Dungeons_2_Texture_01_A.png
element vertex 379
property float x
property float y
property float z
property float nx
property float ny
property float nz
property uchar red
property uchar green
property uchar blue
property uchar alpha
property float texture_u
property float texture_v
element face 187
property list uchar int vertex_indices
end_header
-453.009 124.022 -16.6512 -0 -0.781183 -0.624302 255 255 255 255 0.215235 0.56203
-500 131.737 -26.3051 -0 -0.781183 -0.624302 255 255 255 255 0.23736 0.565663
-453.009 131.737 -26.3051 -0 -0.781183 -0.624302 255 255 255 255 0.215235 0.565663
-500 204.038 -16.6512 -0 0.781182 -0.624303 255 255 255 255 0.23736 0.599704
-453.009 196.323 -26.3051 -0 0.781182 -0.624303 255 255 255 255 0.215235 0.596071
-500 196.323 -26.3051 -0 0.781182 -0.624303 255 255 255 255 0.23736 0.596071
-453.009 131.737 -26.3051 -0 -0 -1 255 255 255 255 0.215235 0.815663
-500 196.323 -26.3051 -0 -0 -1 255 255 255 255 0.23736 0.846071
-453.009 196.323 -26.3051 -0 -0 -1 255 255 255 255 0.215235 0.846071
-406.966 164.03 -16.6512 0.538374 0.619577 -0.571207 255 255 255 255 0.193556 0.580867
-426.474 172.08 -26.3051 0.538374 0.619577 -0.571207 255 255 255 255 0.202741 0.584657
-453.009 204.038 -16.6512 0.538374 0.619577 -0.571207 255 255 255 255 0.215235 0.599704
-453.009 204.038 -16.6512 0.580915 0.635854 -0.50816 255 255 255 255 0.215235 0.599704
-426.474 172.08 -26.3051 0.580915 0.635854 -0.50816 255 255 255 255 0.202741 0.584657
-453.009 196.323 -26.3051 0.580915 0.635854 -0.50816 255 255 255 255 0.215235 0.596071
-406.966 164.03 -16.6512 0.5403 -0.591403 -0.598597 255 255 255 255 0.193556 0.580867
-430.556 152.25 -26.3051 0.5403 -0.591403 -0.598597 255 255 255 255 0.204663 0.575321
-411.286 164.03 -20.5503 0.5403 -0.591403 -0.598597 255 255 255 255 0.19559 0.580867
-453.009 124.022 -16.6512 0.580913 -0.635856 -0.50816 255 255 255 255 0.215235 0.56203
-453.009 131.737 -26.3051 0.580913 -0.635856 -0.50816 255 255 255 255 0.215235 0.565663
-430.556 152.25 -26.3051 0.580913 -0.635856 -0.50816 255 255 255 255 0.204663 0.575321
-430.556 152.25 -26.3051 -0 -0 -1 255 255 255 255 0.204663 0.825321
-500 196.323 -26.3051 -1 -0 -0 255 255 255 255 0.23736 0.846071
-500 124.022 -16.6512 -1 -0 -0 255 255 255 255 0.23736 0.81203
-500 204.038 -16.6512 -1 -0 -0 255 255 255 255 0.23736 0.849704
-319.087 171.746 -26.5085 0.035664 0.727877 -0.68478 255 255 255 255 0.15218 0.5845
-280.632 179.135 -16.6512 0.035664 0.727877 -0.68478 255 255 255 255 0.134074 0.587531
-227.957 167.28 -26.5085 0.035664 0.727877 -0.68478 255 255 255 255 0.109272 0.5845
-456.378 74.9949 -16.6512 0 -1 1e-06 255 255 255 255 0.216821 0.538946
-56.4985 74.9949 -26.5084 0 -1 1e-06 255 255 255 255 0.028544 0.538946
-43.6218 74.9949 -16.6512 0 -1 1e-06 255 255 255 255 0.022481 0.538946
-357.161 161.344 -26.5085 0 -0 -1 255 255 255 255 0.170106 0.829602
-227.957 167.28 -26.5085 0 -0 -1 255 255 255 255 0.109272 0.8345
-123.351 122.165 -26.5084 0 -0 -1 255 255 255 255 0.06002 0.811156
-443.501 74.9949 -26.5084 -0.519432 0.519381 -0.678553 255 255 255 255 0.210758 0.538946
-353.199 178.184 -16.6512 -0.519432 0.519381 -0.678553 255 255 255 255 0.168241 0.587531
-351.027 176.012 -19.9766 -0.519432 0.519381 -0.678553 255 255 255 255 0.167218 0.586509
-351.027 176.012 -19.9766 -0.519431 0.51938 -0.678554 255 255 255 255 0.167218 0.586509
-357.161 161.344 -26.5085 -0.519431 0.51938 -0.678554 255 255 255 255 0.170106 0.579602
-443.501 74.9949 -26.5084 -0.519431 0.51938 -0.678554 255 255 255 255 0.210758 0.538946
-146.801 178.184 -16.6512 0.519437 0.519383 -0.678547 255 255 255 255 0.071061 0.587531
-144.943 163.448 -26.5085 0.519437 0.519383 -0.678547 255 255 255 255 0.070186 0.580593
-153.24 171.746 -26.5085 0.519437 0.519383 -0.678547 255 255 255 255 0.074093 0.5845
-46.9913 204.038 -16.6512 0 0.781183 -0.624302 255 255 255 255 0.024068 0.599704
0 196.323 -26.3051 0 0.781183 -0.624302 255 255 255 255 0.001942 0.596071
-46.9913 196.323 -26.3051 0 0.781183 -0.624302 255 255 255 255 0.024068 0.596071
0 124.022 -16.6512 0 -0.781182 -0.624303 255 255 255 255 0.001942 0.56203
-46.9913 131.737 -26.3051 0 -0.781182 -0.624303 255 255 255 255 0.024068 0.565663
0 131.737 -26.3051 0 -0.781182 -0.624303 255 255 255 255 0.001942 0.565663
-46.9913 196.323 -26.3051 0 -0 -1 255 255 255 255 0.024068 0.846071
0 131.737 -26.3051 0 -0 -1 255 255 255 255 0.001942 0.815663
-46.9913 131.737 -26.3051 0 -0 -1 255 255 255 255 0.024068 0.815663
-54.2357 138.356 -26.3051 -0.169024 -0.064895 -0.983473 255 255 255 255 0.027478 0.568779
-86.6292 164.03 -22.432 -0.169024 -0.064895 -0.983473 255 255 255 255 0.04273 0.580867
-60.0462 153.49 -26.3051 -0.169024 -0.064895 -0.983473 255 255 255 255 0.030214 0.575904
-86.6292 164.03 -22.432 -0.202912 -0.156564 -0.966599 255 255 255 255 0.04273 0.580867
-74.0332 171.617 -26.3051 -0.202912 -0.156564 -0.966599 255 255 255 255 0.0368 0.584439
-60.0462 153.49 -26.3051 -0.202912 -0.156564 -0.966599 255 255 255 255 0.030214 0.575904
0 131.737 -26.3051 1 0 0 255 255 255 255 0.001942 0.815663
0 204.038 -16.6512 1 0 0 255 255 255 255 0.001942 0.849704
0 124.022 -16.6512 1 0 0 255 255 255 255 0.001942 0.81203
-424.061 220.333 -16.6512 0.005371 -0.429072 -0.903254 255 255 255 255 0.201605 0.607897
-500 250 -31.1953 0.005371 -0.429072 -0.903254 255 255 255 255 0.23736 0.621345
-411.649 251.106 -31.1953 0.005371 -0.429072 -0.903254 255 255 255 255 0.195761 0.621345
0 2e-06 14.2392 0 -1 0 255 255 255 255 0.001942 0.753636
-500 -5e-06 -31.1953 0 -1 0 255 255 255 255 0.23736 0.753636
0 -5e-06 -31.1953 0 -1 0 255 255 255 255 0.001942 0.753636
-500 500 14.2391 0 0 1 255 255 255 255 0.23736 0.989053
0 2e-06 14.2392 0 0 1 255 255 255 255 0.001942 0.753636
0 500 14.2391 0 0 1 255 255 255 255 0.001942 0.989053
-90.6069 446.955 -16.6512 0 -0 -1 255 255 255 255 0.044048 0.963534
0 304.2 -16.6512 0 -0 -1 255 255 255 255 0.001942 0.896864
-103.246 304.2 -16.6512 0 -0 -1 255 255 255 255 0.050554 0.896864
-425.583 444.425 -16.6512 -0 -0 -1 255 255 255 255 0.202012 0.963534
-500 304.2 -16.6512 -0 -0 -1 255 255 255 255 0.23736 0.896864
-500 445.8 -16.6512 -0 -0 -1 255 255 255 255 0.23736 0.963534
-389.445 286 -31.1954 0 -0 -1 255 255 255 255 0.185307 0.888295
-500 250 -31.1953 0 -0 -1 255 255 255 255 0.23736 0.871345
-500 286 -31.1954 0 -0 -1 255 255 255 255 0.23736 0.888295
-286 464 -31.1954 0 -0 -1 255 255 255 255 0.136601 0.972103
0 500 -31.1954 0 -0 -1 255 255 255 255 0.001942 0.989053
-214 464 -31.1954 0 -0 -1 255 255 255 255 0.102701 0.972103
-72.7255 462.845 -31.1954 -0 -0 -1 255 255 255 255 0.036739 0.972103
0 464 -31.1954 -0 -0 -1 255 255 255 255 0.001942 0.972103
-411.649 251.106 -31.1953 0 -0 -1 255 255 255 255 0.195761 0.871345
-110.555 286 -31.1954 0.080737 0.239358 -0.967569 255 255 255 255 0.053995 0.638295
-147.115 298.332 -31.1954 0.080737 0.239358 -0.967569 255 255 255 255 0.070198 0.645157
-118.339 305.187 -27.0983 0.080737 0.239358 -0.967569 255 255 255 255 0.057661 0.647329
-216.635 397.871 -31.1954 0.572392 -0 -0.81998 255 255 255 255 0.102701 0.69337
-195.8 445.8 -16.6512 0.572392 -0 -0.81998 255 255 255 255 0.094132 0.713534
-195.8 392.836 -16.6512 0.572392 -0 -0.81998 255 255 255 255 0.094132 0.688597
-72.7255 462.845 -31.1954 -0.008538 -0.669899 -0.742403 255 255 255 255 0.036739 0.722103
0 445.8 -16.6512 -0.008538 -0.669899 -0.742403 255 255 255 255 0.001942 0.713534
-90.6069 446.955 -16.6512 -0.008538 -0.669899 -0.742403 255 255 255 255 0.044048 0.713534
0 286 -31.1954 0 0.624279 -0.781201 255 255 255 255 0.001942 0.638295
-103.246 304.2 -16.6512 0 0.624279 -0.781201 255 255 255 255 0.050554 0.646864
0 304.2 -16.6512 0 0.624279 -0.781201 255 255 255 255 0.001942 0.646864
-500 286 -31.1954 0 0.62428 -0.781201 255 255 255 255 0.23736 0.638295
-396.754 304.2 -16.6512 0 0.62428 -0.781201 255 255 255 255 0.188748 0.646864
-389.445 286 -31.1954 0 0.62428 -0.781201 255 255 255 255 0.185307 0.638295
-500 445.8 -16.6512 -0.010792 -0.584154 -0.811571 255 255 255 255 0.23736 0.713534
-465.816 465.375 -31.1954 -0.010792 -0.584154 -0.811571 255 255 255 255 0.221575 0.722103
-425.583 444.425 -16.6512 -0.010792 -0.584154 -0.811571 255 255 255 255 0.202012 0.713534
-338.648 328.304 -31.1954 -0.365194 0.363145 -0.857181 255 255 255 255 0.161673 0.658508
-396.754 304.2 -16.6512 -0.365194 0.363145 -0.857181 255 255 255 255 0.188748 0.646864
-337.51 363.779 -16.6512 -0.365194 0.363145 -0.857181 255 255 255 255 0.160727 0.674784
-286 464 -31.1954 -0.585071 -0.061164 -0.808672 255 255 255 255 0.136601 0.722103
-283.365 438.792 -31.1954 -0.585071 -0.061164 -0.808672 255 255 255 255 0.136601 0.707832
-304.2 445.8 -16.6512 -0.585071 -0.061164 -0.808672 255 255 255 255 0.14517 0.713534
-500 221.439 -16.6512 -0 -0 -1 255 255 255 255 0.23736 0.607897
-424.061 220.333 -16.6512 -0 -0 -1 255 255 255 255 0.201605 0.607897
-500 105.152 -16.6512 -0 -0 -1 255 255 255 255 0.23736 0.553145
-500 105.152 -16.6512 0 0.444857 -0.895602 255 255 255 255 0.23736 0.553145
-200.651 82.4264 -27.9393 0 0.444857 -0.895602 255 255 255 255 0.096416 0.542445
-436.978 81.665 -28.3176 0 0.444857 -0.895602 255 255 255 255 0.207687 0.542087
-500 -5e-06 -31.1953 -0 -0 -1 255 255 255 255 0.23736 0.753636
-460.469 75.8714 -31.1953 -0 -0 -1 255 255 255 255 0.218747 0.789359
-419.117 66.3543 -31.1953 -0 -0 -1 255 255 255 255 0.199277 0.784878
-283.365 438.792 -31.1954 0 -0 -1 255 255 255 255 0.136601 0.957832
0 250 -31.1953 -0 -0 -1 255 255 255 255 0.001942 0.871345
-110.555 286 -31.1954 -0 -0 -1 255 255 255 255 0.053995 0.888295
0 286 -31.1954 -0 -0 -1 255 255 255 255 0.001942 0.888295
-500 464 -31.1954 0 -0 -1 255 255 255 255 0.23736 0.972103
-500 500 -31.1954 0 -0 -1 255 255 255 255 0.23736 0.989053
-465.816 465.375 -31.1954 0 -0 -1 255 255 255 255 0.221575 0.972103
0 464 -31.1954 1 -0 0 255 255 255 255 0.001942 0.972103
0 500 14.2391 1 -0 0 255 255 255 255 0.001942 0.989053
0 445.8 -16.6512 1 -0 0 255 255 255 255 0.001942 0.963534
-500 304.2 -16.6512 -1 0 0 255 255 255 255 0.23736 0.896864
-500 250 -31.1953 -1 0 0 255 255 255 255 0.23736 0.871345
-500 221.439 -16.6512 -1 0 0 255 255 255 255 0.23736 0.857897
0 304.2 -16.6512 1 0 -0 255 255 255 255 0.001942 0.896864
0 250 -31.1953 1 0 -0 255 255 255 255 0.001942 0.871345
0 286 -31.1954 1 0 -0 255 255 255 255 0.001942 0.888295
0 2e-06 14.2392 1 0 0 255 255 255 255 0.001942 0.753636
0 75.8714 -31.1953 1 0 0 255 255 255 255 0.001942 0.789359
0 105.152 -16.6512 1 0 0 255 255 255 255 0.001942 0.803145
0 221.439 -16.6512 1 -0 -0 255 255 255 255 0.001942 0.857897
-500 2e-06 14.2392 -1 0 0 255 255 255 255 0.23736 0.753636
-500 75.8714 -31.1953 -1 0 0 255 255 255 255 0.23736 0.789359
-500 -5e-06 -31.1953 -1 0 0 255 255 255 255 0.23736 0.753636
-500 500 14.2391 -1 0 0 255 255 255 255 0.23736 0.989053
-500 464 -31.1954 -1 0 0 255 255 255 255 0.23736 0.972103
-500 445.8 -16.6512 -1 0 0 255 255 255 255 0.23736 0.963534
-500 500 -31.1954 0 1 -0 255 255 255 255 0.23736 0.989053
0 500 14.2391 0 1 -0 255 255 255 255 0.001942 0.989053
0 500 -31.1954 0 1 -0 255 255 255 255 0.001942 0.989053
-214 385.066 -31.1954 0.587674 0.120945 -0.800007 255 255 255 255 0.102701 0.684938
-216.635 397.871 -31.1954 0.587674 0.120945 -0.800007 255 255 255 255 0.102701 0.69337
-195.8 392.836 -16.6512 0.587674 0.120945 -0.800007 255 255 255 255 0.094132 0.688597
-216.635 397.871 -31.1954 -0 -0 -1 255 255 255 255 0.102701 0.94337
-286 385.066 -31.1954 -0 -0 -1 255 255 255 255 0.136601 0.934938
-283.365 438.792 -31.1954 -0.572391 -0 -0.81998 255 255 255 255 0.136601 0.707832
-304.2 392.836 -16.6512 -0.572391 -0 -0.81998 255 255 255 255 0.14517 0.688597
-304.2 445.8 -16.6512 -0.572391 -0 -0.81998 255 255 255 255 0.14517 0.713534
-195.8 392.836 -16.6512 0 -0 -1 255 255 255 255 0.094132 0.938597
-214 464 -31.1954 0.006808 -0.620101 -0.784492 255 255 255 255 0.102701 0.722103
-90.6069 446.955 -16.6512 0.006808 -0.620101 -0.784492 255 255 255 255 0.044048 0.713534
-195.8 445.8 -16.6512 0.006808 -0.620101 -0.784492 255 255 255 255 0.094132 0.713534
-425.583 444.425 -16.6512 0.00712 -0.628599 -0.777697 255 255 255 255 0.202012 0.713534
-286 464 -31.1954 0.00712 -0.628599 -0.777697 255 255 255 255 0.136601 0.722103
-304.2 445.8 -16.6512 0.00712 -0.628599 -0.777697 255 255 255 255 0.14517 0.713534
-396.754 304.2 -16.6512 0 -0 -1 255 255 255 255 0.188748 0.896864
-337.51 363.779 -16.6512 0 -0 -1 255 255 255 255 0.160864 0.924896
-310.898 259.758 -31.1953 0.076661 -0.15231 -0.985355 255 255 255 255 0.140182 0.621465
-279.005 238.751 -25.4669 0.076661 -0.15231 -0.985355 255 255 255 255 0.133308 0.616048
-329.477 250.407 -31.1953 0.076661 -0.15231 -0.985355 255 255 255 255 0.157072 0.621345
-274.869 221.439 -16.6512 0 -0 -1 255 255 255 255 0.13136 0.607897
0 105.152 -16.6512 0 -0 -1 255 255 255 255 0.001942 0.553145
-96.8571 249.202 -31.1953 0 -0 -1 255 255 255 255 0.046859 0.871345
0 250 -31.1953 0.00358 -0.434737 -0.900551 255 255 255 255 0.001942 0.621345
-69.0558 219.303 -16.6512 0.00358 -0.434737 -0.900551 255 255 255 255 0.034827 0.606689
-96.8571 249.202 -31.1953 0.00358 -0.434737 -0.900551 255 255 255 255 0.046859 0.621345
-69.0558 219.303 -16.6512 0 -0 -1 255 255 255 255 0.034827 0.606689
0 221.439 -16.6512 0 -0 -1 255 255 255 255 0.001942 0.607897
-211.234 249.696 -31.1953 -0.030933 -0.306405 -0.951399 255 255 255 255 0.101137 0.621345
-279.005 238.751 -25.4669 -0.030933 -0.306405 -0.951399 255 255 255 255 0.133308 0.616048
-310.898 259.758 -31.1953 -0.030933 -0.306405 -0.951399 255 255 255 255 0.140182 0.621465
-424.061 220.333 -16.6512 0.003359 -0.453144 -0.891431 255 255 255 255 0.201605 0.607897
-279.005 238.751 -25.4669 0.003359 -0.453144 -0.891431 255 255 255 255 0.133308 0.616048
-274.869 221.439 -16.6512 0.003359 -0.453144 -0.891431 255 255 255 255 0.13136 0.607897
-329.477 250.407 -31.1953 -0 -0 -1 255 255 255 255 0.157072 0.871345
-147.115 298.332 -31.1954 -0 -0 -1 255 255 255 255 0.071014 0.894207
-279.005 238.751 -25.4669 -0.004718 -0.454673 -0.890646 255 255 255 255 0.133308 0.616048
-69.0558 219.303 -16.6512 -0.004718 -0.454673 -0.890646 255 255 255 255 0.034827 0.606689
-274.869 221.439 -16.6512 -0.004718 -0.454673 -0.890646 255 255 255 255 0.13136 0.607897
-357.161 161.344 -26.5085 -0.1218 0.445832 -0.886791 255 255 255 255 0.170106 0.579602
-351.027 176.012 -19.9766 -0.1218 0.445832 -0.886791 255 255 255 255 0.167218 0.586509
-319.087 171.746 -26.5085 -0.1218 0.445832 -0.886791 255 255 255 255 0.15218 0.5845
-144.943 163.448 -26.5085 0.239927 0.125485 -0.962647 255 255 255 255 0.070186 0.580593
-102.805 129.193 -20.4714 0.239927 0.125485 -0.962647 255 255 255 255 0.050346 0.564464
-123.351 122.165 -26.5084 0.239927 0.125485 -0.962647 255 255 255 255 0.057519 0.563656
-123.351 122.165 -26.5084 0.142672 0.371097 -0.917569 255 255 255 255 0.057519 0.563656
-102.805 129.193 -20.4714 0.142672 0.371097 -0.917569 255 255 255 255 0.050346 0.564464
-91.3693 109.869 -26.5084 0.142672 0.371097 -0.917569 255 255 255 255 0.044962 0.555366
-91.3693 109.869 -26.5084 0.519436 0.519383 -0.678548 255 255 255 255 0.044962 0.555366
-43.6218 74.9949 -16.6512 0.519436 0.519383 -0.678548 255 255 255 255 0.022481 0.538946
-56.4985 74.9949 -26.5084 0.519436 0.519383 -0.678548 255 255 255 255 0.028544 0.538946
-43.6218 74.9949 -16.6512 0.519436 0.519384 -0.678547 255 255 255 255 0.022481 0.538946
-102.805 129.193 -20.4714 0.519436 0.519384 -0.678547 255 255 255 255 0.050346 0.564464
-146.801 178.184 -16.6512 0.519436 0.519384 -0.678547 255 255 255 255 0.071061 0.587531
-319.087 171.746 -26.5085 -0.010744 0.819755 -0.572613 255 255 255 255 0.15218 0.5845
-353.199 178.184 -16.6512 -0.010744 0.819755 -0.572613 255 255 255 255 0.168241 0.587531
-280.632 179.135 -16.6512 -0.010744 0.819755 -0.572613 255 255 255 255 0.134074 0.587531
-227.957 167.28 -26.5085 -0.050858 0.851035 -0.52264 255 255 255 255 0.109272 0.5845
-146.801 178.184 -16.6512 -0.050858 0.851035 -0.52264 255 255 255 255 0.071061 0.587531
-153.24 171.746 -26.5085 -0.050858 0.851035 -0.52264 255 255 255 255 0.074093 0.5845
-144.943 163.448 -26.5085 -0 -0 -1 255 255 255 255 0.070186 0.830593
-443.501 74.9949 -26.5084 0 -0 -1 255 255 255 255 0.210758 0.788946
-56.4985 74.9949 -26.5084 0 -0 -1 255 255 255 255 0.028544 0.788946
-211.234 249.696 -31.1953 -0 -0 -1 255 255 255 255 0.101137 0.871345
-310.898 259.758 -31.1953 -0 -0 -1 255 255 255 255 0.1483 0.875912
-338.648 328.304 -31.1954 -0 -0 -1 255 255 255 255 0.16139 0.908213
-158.055 331.489 -31.1954 -0 -0 -1 255 255 255 255 0.07636 0.909713
-158.055 331.489 -31.1954 0.130746 0.043138 -0.990477 255 255 255 255 0.07636 0.659713
-118.339 305.187 -27.0983 0.130746 0.043138 -0.990477 255 255 255 255 0.057661 0.647329
-147.115 298.332 -31.1954 0.130746 0.043138 -0.990477 255 255 255 255 0.070198 0.645157
-103.246 304.2 -16.6512 0.431786 0.450874 -0.7812 255 255 255 255 0.050554 0.646864
-158.055 331.489 -31.1954 0.431786 0.450874 -0.7812 255 255 255 255 0.07636 0.659713
-195.8 392.836 -16.6512 0.431786 0.450874 -0.7812 255 255 255 255 0.094132 0.688597
-110.555 286 -31.1954 0.543068 0.380199 -0.748683 255 255 255 255 0.053995 0.638295
-118.339 305.187 -27.0983 0.543068 0.380199 -0.748683 255 255 255 255 0.057661 0.647329
-103.246 304.2 -16.6512 0.543068 0.380199 -0.748683 255 255 255 255 0.050554 0.646864
-411.286 164.03 -20.5503 0.322579 -0.066409 -0.94421 255 255 255 255 0.19559 0.580867
-430.556 152.25 -26.3051 0.322579 -0.066409 -0.94421 255 255 255 255 0.204663 0.575321
-426.474 172.08 -26.3051 0.322579 -0.066409 -0.94421 255 255 255 255 0.202741 0.584657
-93.0337 164.03 -16.6512 -0.540301 0.591401 -0.598598 255 255 255 255 0.045746 0.580867
-74.0332 171.617 -26.3051 -0.540301 0.591401 -0.598598 255 255 255 255 0.0368 0.584439
-86.6292 164.03 -22.432 -0.540301 0.591401 -0.598598 255 255 255 255 0.04273 0.580867
-46.9913 204.038 -16.6512 -0.580914 0.635855 -0.50816 255 255 255 255 0.024068 0.599704
-46.9913 196.323 -26.3051 -0.580914 0.635855 -0.50816 255 255 255 255 0.024068 0.596071
-74.0332 171.617 -26.3051 -0.580914 0.635855 -0.50816 255 255 255 255 0.0368 0.584439
-60.0462 153.49 -26.3051 -0 -0 -1 255 255 255 255 0.030214 0.825904
-93.0337 164.03 -16.6512 -0.555321 -0.639083 -0.532157 255 255 255 255 0.045746 0.580867
-54.2357 138.356 -26.3051 -0.555321 -0.639083 -0.532157 255 255 255 255 0.027478 0.568779
-46.9913 124.022 -16.6512 -0.555321 -0.639083 -0.532157 255 255 255 255 0.024068 0.56203
-46.9913 131.737 -26.3051 -0.580914 -0.635855 -0.508161 255 255 255 255 0.024068 0.565663
-46.9913 124.022 -16.6512 -0.580914 -0.635855 -0.508161 255 255 255 255 0.024068 0.56203
-54.2357 138.356 -26.3051 -0.580914 -0.635855 -0.508161 255 255 255 255 0.027478 0.568779
-304.2 445.8 -16.6512 -0 -0 -1 255 255 255 255 0.14517 0.963534
-304.2 392.836 -16.6512 -0 -0 -1 255 255 255 255 0.14517 0.938597
-286 385.066 -31.1954 -0.415663 0.476494 -0.774711 255 255 255 255 0.136601 0.684938
-337.51 363.779 -16.6512 -0.415663 0.476494 -0.774711 255 255 255 255 0.160727 0.674784
-304.2 392.836 -16.6512 -0.415663 0.476494 -0.774711 255 255 255 255 0.14517 0.688597
-214 385.066 -31.1954 -0 -0 -1 255 255 255 255 0.102701 0.934938
-195.8 392.836 -16.6512 0.431787 0.450874 -0.7812 255 255 255 255 0.094132 0.688597
-158.055 331.489 -31.1954 0.431787 0.450874 -0.7812 255 255 255 255 0.07636 0.659713
-214 385.066 -31.1954 0.431787 0.450874 -0.7812 255 255 255 255 0.102701 0.684938
-460.469 75.8714 -31.1953 0.057181 0.248452 -0.966955 255 255 255 255 0.218747 0.539359
-436.978 81.665 -28.3176 0.057181 0.248452 -0.966955 255 255 255 255 0.207687 0.542087
-419.117 66.3543 -31.1953 0.057181 0.248452 -0.966955 255 255 255 255 0.199277 0.535765
-419.117 66.3543 -31.1953 -0.017028 0.165475 -0.986067 255 255 255 255 0.199277 0.535765
-436.978 81.665 -28.3176 -0.017028 0.165475 -0.986067 255 255 255 255 0.207687 0.542087
-326.632 75.8714 -31.1953 -0.017028 0.165475 -0.986067 255 255 255 255 0.155732 0.539359
-217.095 65.8566 -31.1953 -0 -0 -1 255 255 255 255 0.104158 0.784644
-326.632 75.8714 -31.1953 -0 -0 -1 255 255 255 255 0.155732 0.789359
-249.713 75.8714 -31.1953 -0 -0 -1 255 255 255 255 0.119516 0.789359
-460.469 75.8714 -31.1953 0 0.444857 -0.895602 255 255 255 255 0.218747 0.539359
-500 75.8714 -31.1953 0 0.444857 -0.895602 255 255 255 255 0.23736 0.539359
-217.095 65.8566 -31.1953 -0.002439 0.195143 -0.980772 255 255 255 255 0.104158 0.535577
-200.651 82.4264 -27.9393 -0.002439 0.195143 -0.980772 255 255 255 255 0.096416 0.542445
-165.051 66.5071 -31.1953 -0.002439 0.195143 -0.980772 255 255 255 255 0.079654 0.535823
0 105.152 -16.6512 -0 0.444857 -0.895602 255 255 255 255 0.001942 0.553145
-120.088 75.8714 -31.1953 -0 0.444857 -0.895602 255 255 255 255 0.058484 0.539359
-326.632 75.8714 -31.1953 0 0.444857 -0.895602 255 255 255 255 0.155732 0.539359
-249.713 75.8714 -31.1953 0.045679 0.148773 -0.987816 255 255 255 255 0.119516 0.539359
-200.651 82.4264 -27.9393 0.045679 0.148773 -0.987816 255 255 255 255 0.096416 0.542445
-217.095 65.8566 -31.1953 0.045679 0.148773 -0.987816 255 255 255 255 0.104158 0.535577
-165.051 66.5071 -31.1953 -0.028771 0.138145 -0.989994 255 255 255 255 0.079654 0.535823
-200.651 82.4264 -27.9393 -0.028771 0.138145 -0.989994 255 255 255 255 0.096416 0.542445
-120.088 75.8714 -31.1953 -0.028771 0.138145 -0.989994 255 255 255 255 0.058484 0.539359
0 -5e-06 -31.1953 0 -0 -1 255 255 255 255 0.001942 0.753636
-120.088 75.8714 -31.1953 0 -0 -1 255 255 255 255 0.058484 0.789359
0 75.8714 -31.1953 0 -0 -1 255 255 255 255 0.001942 0.789359
-165.051 66.5071 -31.1953 0 -0 -1 255 255 255 255 0.079654 0.78495
-329.477 250.407 -31.1953 -0.003626 -0.42611 -0.904664 255 255 255 255 0.157072 0.621345
-424.061 220.333 -16.6512 -0.003626 -0.42611 -0.904664 255 255 255 255 0.201605 0.607897
-411.649 251.106 -31.1953 -0.003626 -0.42611 -0.904664 255 255 255 255 0.195761 0.621345
-69.0558 219.303 -16.6512 -0.001894 -0.438856 -0.898555 255 255 255 255 0.034827 0.606689
-211.234 249.696 -31.1953 -0.001894 -0.438856 -0.898555 255 255 255 255 0.101137 0.621345
-96.8571 249.202 -31.1953 -0.001894 -0.438856 -0.898555 255 255 255 255 0.046859 0.621345
-74.0332 171.617 -26.3051 0 -0 -1 255 255 255 255 0.0368 0.834439
-500 124.022 -16.6512 0 -0.781183 -0.624302 255 255 255 255 0.23736 0.56203
-453.009 204.038 -16.6512 0 0.781182 -0.624303 255 255 255 255 0.215235 0.599704
-500 131.737 -26.3051 -0 -0 -1 255 255 255 255 0.23736 0.815663
-406.966 164.03 -16.6512 0.540302 0.5914 -0.598598 255 255 255 255 0.193556 0.580867
-411.286 164.03 -20.5503 0.540302 0.5914 -0.598598 255 255 255 255 0.19559 0.580867
-426.474 172.08 -26.3051 0.540302 0.5914 -0.598598 255 255 255 255 0.202741 0.584657
-406.966 164.03 -16.6512 0.54197 -0.623719 -0.563244 255 255 255 255 0.193556 0.580867
-453.009 124.022 -16.6512 0.54197 -0.623719 -0.563244 255 255 255 255 0.215235 0.56203
-430.556 152.25 -26.3051 0.54197 -0.623719 -0.563244 255 255 255 255 0.204663 0.575321
-426.474 172.08 -26.3051 -0 -0 -1 255 255 255 255 0.202741 0.834657
-500 131.737 -26.3051 -1 0 0 255 255 255 255 0.23736 0.815663
-443.501 74.9949 -26.5084 0 -1 1e-06 255 255 255 255 0.210758 0.538946
-319.087 171.746 -26.5085 0 -0 -1 255 255 255 255 0.15218 0.8345
-443.501 74.9949 -26.5084 -0.519436 0.519383 -0.678548 255 255 255 255 0.210758 0.538946
-456.378 74.9949 -16.6512 -0.519436 0.519383 -0.678548 255 255 255 255 0.216821 0.538946
-353.199 178.184 -16.6512 -0.519436 0.519383 -0.678548 255 255 255 255 0.168241 0.587531
-146.801 178.184 -16.6512 0.519436 0.519384 -0.678548 255 255 255 255 0.071061 0.587531
-102.805 129.193 -20.4714 0.519436 0.519384 -0.678548 255 255 255 255 0.050346 0.564464
-144.943 163.448 -26.5085 0.519436 0.519384 -0.678548 255 255 255 255 0.070186 0.580593
0 204.038 -16.6512 0 0.781183 -0.624302 255 255 255 255 0.001942 0.599704
-46.9913 124.022 -16.6512 0 -0.781182 -0.624303 255 255 255 255 0.024068 0.56203
0 196.323 -26.3051 0 -0 -1 255 255 255 255 0.001942 0.846071
0 196.323 -26.3051 1 0 0 255 255 255 255 0.001942 0.846071
-424.061 220.333 -16.6512 -0.006609 -0.453774 -0.891092 255 255 255 255 0.201605 0.607897
-500 221.439 -16.6512 -0.006609 -0.453774 -0.891092 255 255 255 255 0.23736 0.607897
-500 250 -31.1953 -0.006609 -0.453774 -0.891092 255 255 255 255 0.23736 0.621345
-500 2e-06 14.2392 0 -1 0 255 255 255 255 0.23736 0.753636
-500 2e-06 14.2392 0 0 1 255 255 255 255 0.23736 0.753636
0 445.8 -16.6512 -0 -0 -1 255 255 255 255 0.001942 0.963534
-216.635 397.871 -31.1954 0.60917 -0.024276 -0.792668 255 255 255 255 0.102701 0.69337
-214 464 -31.1954 0.60917 -0.024276 -0.792668 255 255 255 255 0.102701 0.722103
-195.8 445.8 -16.6512 0.60917 -0.024276 -0.792668 255 255 255 255 0.094132 0.713534
-72.7255 462.845 -31.1954 0.009913 -0.624248 -0.781163 255 255 255 255 0.036739 0.722103
0 464 -31.1954 0.009913 -0.624248 -0.781163 255 255 255 255 0.001942 0.722103
0 445.8 -16.6512 0.009913 -0.624248 -0.781163 255 255 255 255 0.001942 0.713534
0 286 -31.1954 0 0.62428 -0.781201 255 255 255 255 0.001942 0.638295
-110.555 286 -31.1954 0 0.62428 -0.781201 255 255 255 255 0.053995 0.638295
-103.246 304.2 -16.6512 0 0.62428 -0.781201 255 255 255 255 0.050554 0.646864
-500 286 -31.1954 0 0.624279 -0.781201 255 255 255 255 0.23736 0.638295
-500 304.2 -16.6512 0 0.624279 -0.781201 255 255 255 255 0.23736 0.646864
-396.754 304.2 -16.6512 0 0.624279 -0.781201 255 255 255 255 0.188748 0.646864
-500 445.8 -16.6512 0.025099 -0.624082 -0.780955 255 255 255 255 0.23736 0.713534
-500 464 -31.1954 0.025099 -0.624082 -0.780955 255 255 255 255 0.23736 0.722103
-465.816 465.375 -31.1954 0.025099 -0.624082 -0.780955 255 255 255 255 0.221575 0.722103
-338.648 328.304 -31.1954 -0.393368 0.472348 -0.788764 255 255 255 255 0.161673 0.658508
-389.445 286 -31.1954 -0.393368 0.472348 -0.788764 255 255 255 255 0.185307 0.638295
-396.754 304.2 -16.6512 -0.393368 0.472348 -0.788764 255 255 255 255 0.188748 0.646864
-500 75.8714 -31.1953 -0 -0 -1 255 255 255 255 0.23736 0.789359
0 500 -31.1954 1 0 0 255 255 255 255 0.001942 0.989053
-500 286 -31.1954 -1 0 0 255 255 255 255 0.23736 0.888295
0 -5e-06 -31.1953 1 0 -0 255 255 255 255 0.001942 0.753636
-500 105.152 -16.6512 -1 0 0 255 255 255 255 0.23736 0.803145
-500 500 -31.1954 -1 0 0 255 255 255 255 0.23736 0.989053
-500 500 14.2391 0 1 0 255 255 255 255 0.23736 0.989053
-283.365 438.792 -31.1954 -0.61609 0.03022 -0.787095 255 255 255 255 0.136601 0.707832
-286 385.066 -31.1954 -0.61609 0.03022 -0.787095 255 255 255 255 0.136601 0.684938
-304.2 392.836 -16.6512 -0.61609 0.03022 -0.787095 255 255 255 255 0.14517 0.688597
-195.8 445.8 -16.6512 0 -0 -1 255 255 255 255 0.094132 0.963534
-214 464 -31.1954 -0.005492 -0.671789 -0.740722 255 255 255 255 0.102701 0.722103
-72.7255 462.845 -31.1954 -0.005492 -0.671789 -0.740722 255 255 255 255 0.036739 0.722103
-90.6069 446.955 -16.6512 -0.005492 -0.671789 -0.740722 255 255 255 255 0.044048 0.713534
-425.583 444.425 -16.6512 -0.004404 -0.575972 -0.817457 255 255 255 255 0.202012 0.713534
-465.816 465.375 -31.1954 -0.004404 -0.575972 -0.817457 255 255 255 255 0.221575 0.722103
-286 464 -31.1954 -0.004404 -0.575972 -0.817457 255 255 255 255 0.136601 0.722103
0 250 -31.1953 0.014033 -0.453739 -0.891024 255 255 255 255 0.001942 0.621345
0 221.439 -16.6512 0.014033 -0.453739 -0.891024 255 255 255 255 0.001942 0.607897
-69.0558 219.303 -16.6512 0.014033 -0.453739 -0.891024 255 255 255 255 0.034827 0.606689
-102.805 129.193 -20.4714 0.519436 0.519383 -0.678548 255 255 255 255 0.050346 0.564464
-319.087 171.746 -26.5085 -1e-06 0.837232 -0.546848 255 255 255 255 0.15218 0.5845
-351.027 176.012 -19.9766 -1e-06 0.837232 -0.546848 255 255 255 255 0.167218 0.586509
-353.199 178.184 -16.6512 -1e-06 0.837232 -0.546848 255 255 255 255 0.168241 0.587531
-227.957 167.28 -26.5085 0.00463 0.651435 -0.758691 255 255 255 255 0.109272 0.5845
-280.632 179.135 -16.6512 0.00463 0.651435 -0.758691 255 255 255 255 0.134074 0.587531
-146.801 178.184 -16.6512 0.00463 0.651435 -0.758691 255 255 255 255 0.071061 0.587531
-153.24 171.746 -26.5085 -0 -0 -1 255 255 255 255 0.074093 0.8345
-91.3693 109.869 -26.5084 -0 -0 -1 255 255 255 255 0.044962 0.805366
-103.246 304.2 -16.6512 0.474195 0.618413 -0.626661 255 255 255 255 0.050554 0.646864
-118.339 305.187 -27.0983 0.474195 0.618413 -0.626661 255 255 255 255 0.057661 0.647329
-158.055 331.489 -31.1954 0.474195 0.618413 -0.626661 255 255 255 255 0.07636 0.659713
-93.0337 164.03 -16.6512 -0.537927 0.619064 -0.572183 255 255 255 255 0.045746 0.580867
-46.9913 204.038 -16.6512 -0.537927 0.619064 -0.572183 255 255 255 255 0.024068 0.599704
-74.0332 171.617 -26.3051 -0.537927 0.619064 -0.572183 255 255 255 255 0.0368 0.584439
-54.2357 138.356 -26.3051 0 -0 -1 255 255 255 255 0.027478 0.818779
-93.0337 164.03 -16.6512 -0.540301 -0.591402 -0.598598 255 255 255 255 0.045746 0.580867
-86.6292 164.03 -22.432 -0.540301 -0.591402 -0.598598 255 255 255 255 0.04273 0.580867
-54.2357 138.356 -26.3051 -0.540301 -0.591402 -0.598598 255 255 255 255 0.027478 0.568779
-286 385.066 -31.1954 -0.388353 0.360204 -0.848195 255 255 255 255 0.136601 0.684938
-338.648 328.304 -31.1954 -0.388353 0.360204 -0.848195 255 255 255 255 0.161673 0.658508
-337.51 363.779 -16.6512 -0.388353 0.360204 -0.848195 255 255 255 255 0.160727 0.674784
0 75.8714 -31.1953 0 0.444857 -0.895602 255 255 255 255 0.001942 0.539359
-249.713 75.8714 -31.1953 0 0.444857 -0.895602 255 255 255 255 0.119516 0.539359
-329.477 250.407 -31.1953 0.000944 -0.437782 -0.899081 255 255 255 255 0.157072 0.621345
-279.005 238.751 -25.4669 0.000944 -0.437782 -0.899081 255 255 255 255 0.133308 0.616048
-424.061 220.333 -16.6512 0.000944 -0.437782 -0.899081 255 255 255 255 0.201605 0.607897
-69.0558 219.303 -16.6512 -0.003692 -0.445662 -0.895194 255 255 255 255 0.034827 0.606689
-279.005 238.751 -25.4669 -0.003692 -0.445662 -0.895194 255 255 255 255 0.133308 0.616048
-211.234 249.696 -31.1953 -0.003692 -0.445662 -0.895194 255 255 255 255 0.101137 0.621345
3 0 1 2 
3 3 4 5 
3 6 7 8 
3 9 10 11 
3 12 13 14 
3 15 16 17 
3 18 19 20 
3 8 21 6 
3 22 23 24 
3 25 26 27 
3 28 29 30 
3 31 32 33 
3 34 35 36 
3 37 38 39 
3 40 41 42 
3 43 44 45 
3 46 47 48 
3 49 50 51 
3 52 53 54 
3 55 56 57 
3 58 59 60 
3 61 62 63 
3 64 65 66 
3 67 68 69 
3 70 71 72 
3 73 74 75 
3 76 77 78 
3 79 80 81 
3 82 80 83 
3 76 84 77 
3 85 86 87 
3 88 89 90 
3 91 92 93 
3 94 95 96 
3 97 98 99 
3 100 101 102 
3 103 104 105 
3 106 107 108 
3 109 110 111 
3 112 113 114 
3 115 116 117 
3 81 118 79 
3 119 120 121 
3 122 123 124 
3 125 126 127 
3 128 129 130 
3 131 132 133 
3 134 135 136 
3 137 134 136 
3 138 139 140 
3 141 142 143 
3 128 141 143 
3 130 138 141 
3 126 131 127 
3 144 145 146 
3 147 148 149 
3 150 151 118 
3 152 153 154 
3 155 70 72 
3 156 157 158 
3 81 80 82 
3 124 123 79 
3 159 160 161 
3 162 73 163 
3 164 165 166 
3 111 167 168 
3 120 119 169 
3 170 171 172 
3 168 173 174 
3 168 167 173 
3 175 176 177 
3 178 179 180 
3 76 181 84 
3 120 169 182 
3 183 184 185 
3 186 187 188 
3 189 190 191 
3 192 193 194 
3 195 196 197 
3 198 199 200 
3 201 202 203 
3 204 205 206 
3 32 207 33 
3 208 31 33 
3 33 209 208 
3 182 210 211 
3 182 212 213 
3 214 215 216 
3 217 218 219 
3 220 221 222 
3 223 224 225 
3 226 227 228 
3 229 230 231 
3 51 232 49 
3 233 234 235 
3 236 237 238 
3 163 239 240 
3 241 242 243 
3 212 244 213 
3 245 246 247 
3 248 249 250 
3 251 252 253 
3 254 255 256 
3 112 257 258 
3 259 260 261 
3 262 263 113 
3 113 264 114 
3 265 266 267 
3 268 269 270 
3 271 272 273 
3 254 115 117 
3 274 271 254 
3 275 276 277 
3 278 279 280 
3 182 211 76 
3 49 232 281 
3 0 282 1 
3 3 283 4 
3 6 284 7 
3 285 286 287 
3 288 289 290 
3 8 291 21 
3 22 292 23 
3 28 293 29 
3 31 294 32 
3 295 296 297 
3 298 299 300 
3 43 301 44 
3 46 302 47 
3 49 303 50 
3 58 304 59 
3 305 306 307 
3 64 308 65 
3 67 309 68 
3 70 310 71 
3 73 162 74 
3 79 123 80 
3 311 312 313 
3 314 315 316 
3 317 318 319 
3 320 321 322 
3 323 324 325 
3 326 327 328 
3 112 262 113 
3 115 329 116 
3 81 150 118 
3 125 330 126 
3 128 331 129 
3 131 137 132 
3 134 332 135 
3 137 126 134 
3 138 333 139 
3 141 334 142 
3 128 130 141 
3 130 333 138 
3 126 137 131 
3 144 335 145 
3 150 244 151 
3 336 337 338 
3 155 339 70 
3 340 341 342 
3 343 344 345 
3 111 110 167 
3 346 347 348 
3 76 211 181 
3 195 349 196 
3 350 351 352 
3 353 354 355 
3 32 356 207 
3 33 357 209 
3 182 169 210 
3 182 76 212 
3 358 359 360 
3 361 362 363 
3 51 364 232 
3 365 366 367 
3 163 73 239 
3 368 369 370 
3 212 151 244 
3 254 117 255 
3 112 114 257 
3 262 371 263 
3 113 372 264 
3 271 274 272 
3 254 271 115 
3 373 374 375 
3 376 377 378 
