ply
format ascii 1.0
comment VCGLIB generated
comment TextureFile Dungeons_2_Texture_01_A.png
element vertex 208
property float x
property float y
property float z
property float nx
property float ny
property float nz
property uchar red
property uchar green
property uchar blue
property uchar alpha
property float texture_u
property float texture_v
element face 90
property list uchar int vertex_indices
end_header
-374.987 -5e-06 -31.1953 0 -1 0 255 255 255 255 0.178519 0.753487
-500 2e-06 14.2392 0 -1 0 255 255 255 255 0.2374 0.753487
-500 -5e-06 -31.1953 0 -1 0 255 255 255 255 0.2374 0.753487
-3.3e-05 -5e-06 -31.1953 0 -1 0 255 255 255 255 0.001899 0.753487
-1.5e-05 2e-06 14.2392 0 -1 0 255 255 255 255 0.001899 0.753487
-125.013 -5e-06 -31.1953 0 -1 0 255 255 255 255 0.06078 0.753487
-3.1e-05 500 -31.1954 0 -1 -0 255 255 255 255 0.001899 0.988987
-1.7e-05 500 14.2391 0 -1 -0 255 255 255 255 0.001899 0.988987
-3.3e-05 500 -31.1954 0 -1 -0 255 255 255 255 0.001899 0.988987
-3.3e-05 500 -31.1954 0 0 0 255 255 255 255 0.001899 0.988987
-126.907 347.543 -31.2723 0 0 0 255 255 255 255 0.06078 0.918337
-3.1e-05 500 -31.1954 0 0 0 255 255 255 255 0.001899 0.988987
-500 500 14.2391 0 1 -0 255 255 255 255 0.2374 0.988987
-3.1e-05 500 -31.1954 0 1 -0 255 255 255 255 0.001899 0.988987
-500 500 -31.1954 0 1 -0 255 255 255 255 0.2374 0.988987
-182.374 395.915 -31.314 0.00069 -7.1e-05 -1 255 255 255 255 0.087204 0.939477
-3.1e-05 500 -31.1954 0.00069 -7.1e-05 -1 255 255 255 255 0.001899 0.988987
-126.907 347.543 -31.2723 0.00069 -7.1e-05 -1 255 255 255 255 0.06078 0.918337
-250.483 455.313 -31.3652 -0.001449 -0.004292 -0.99999 255 255 255 255 0.119649 0.965437
-376.583 352.14 -30.7396 -0.001449 -0.004292 -0.99999 255 255 255 255 0.178519 0.918337
-500 500 -31.1954 -0.001449 -0.004292 -0.99999 255 255 255 255 0.2374 0.988987
-3.3e-05 -5e-06 -31.1953 0.00012 -0 -1 255 255 255 255 0.001899 0.753487
-115.476 64.083 -31.2092 0.00012 -0 -1 255 255 255 255 0.056633 0.783282
-3.3e-05 302.605 -31.1954 0.00012 -0 -1 255 255 255 255 0.001899 0.896013
-252.365 417.439 -16.6512 -0 -0 -1 255 255 255 255 0.119649 0.951985
-145.54 338.867 -16.6512 -0 -0 -1 255 255 255 255 0.071284 0.913289
-351.855 344.203 -16.6512 -0 -0 -1 255 255 255 255 0.168015 0.913289
-500 66.9283 -31.1953 0.000976 0.001175 -0.999999 255 255 255 255 0.2374 0.78501
-379.86 152.604 -30.9773 0.000976 0.001175 -0.999999 255 255 255 255 0.178519 0.832343
-380.625 106.049 -31.0328 0.000976 0.001175 -0.999999 255 255 255 255 0.178519 0.812279
-500 2e-06 14.2392 -1 0 1e-06 255 255 255 255 0.2374 0.753487
-500 66.9283 -31.1953 -1 0 1e-06 255 255 255 255 0.2374 0.78501
-500 -5e-06 -31.1953 -1 0 1e-06 255 255 255 255 0.2374 0.753487
-500 500 14.2391 0 0 1 255 255 255 255 0.2374 0.988987
-1.5e-05 303.522 14.2392 0 0 1 255 255 255 255 0.001899 0.896446
-1.5e-05 500 14.2391 0 0 1 255 255 255 255 0.001899 0.988987
-1.5e-05 500 14.2391 0 -0 -1 255 255 255 255 0.001899 0.988987
-1.7e-05 303.522 14.2392 0 -0 -1 255 255 255 255 0.001899 0.896446
-1.7e-05 500 14.2391 0 -0 -1 255 255 255 255 0.001899 0.988987
-1.7e-05 2e-06 14.2392 1 -0 -0 255 255 255 255 0.001899 0.753487
-3.3e-05 302.605 -31.1954 1 -0 -0 255 255 255 255 0.001899 0.896013
-1.7e-05 303.522 14.2392 1 -0 -0 255 255 255 255 0.001899 0.896446
-352.688 -3e-06 -16.6512 0 -1 0 255 255 255 255 0.168015 0.753487
-147.313 -3e-06 -16.6512 0 -1 0 255 255 255 255 0.071284 0.753487
-252.365 417.439 -16.6512 -0.295442 -0.401675 -0.866817 255 255 255 255 0.119649 0.701985
-222.87 421.841 -28.7441 -0.295442 -0.401675 -0.866817 255 255 255 255 0.106282 0.701545
-145.54 338.867 -16.6512 -0.295442 -0.401675 -0.866817 255 255 255 255 0.071284 0.663289
-122.184 247.955 -31.2491 -0.608651 -0.029048 -0.792906 255 255 255 255 0.06078 0.618774
-145.54 338.867 -16.6512 -0.608651 -0.029048 -0.792906 255 255 255 255 0.071284 0.663289
-126.907 347.543 -31.2723 -0.608651 -0.029048 -0.792906 255 255 255 255 0.06078 0.668337
-380.625 106.049 -31.0328 0.546035 0.030308 -0.837214 255 255 255 255 0.178519 0.562279
-352.688 -3e-06 -16.6512 0.546035 0.030308 -0.837214 255 255 255 255 0.168015 0.523257
-374.987 -5e-06 -31.1953 0.546035 0.030308 -0.837214 255 255 255 255 0.178519 0.523257
-376.583 352.14 -30.7396 0.329713 -0.447911 -0.831062 255 255 255 255 0.178519 0.668337
-252.365 417.439 -16.6512 0.329713 -0.447911 -0.831062 255 255 255 255 0.119649 0.701985
-351.855 344.203 -16.6512 0.329713 -0.447911 -0.831062 255 255 255 255 0.168015 0.663289
-146.089 233.998 -16.6512 -0 -0 -1 255 255 255 255 0.071284 0.863835
-500 500 -31.1954 0 0.0038 -0.999993 255 255 255 255 0.2374 0.988987
-3.1e-05 500 -31.1954 0 0.0038 -0.999993 255 255 255 255 0.001899 0.988987
-250.483 455.313 -31.3652 0 0.0038 -0.999993 255 255 255 255 0.119649 0.965437
-3.3e-05 302.605 -31.1954 0.000606 -0 -1 255 255 255 255 0.001899 0.896013
-126.907 347.543 -31.2723 0.000606 -0 -1 255 255 255 255 0.06078 0.918337
-3.3e-05 500 -31.1954 0.000606 -0 -1 255 255 255 255 0.001899 0.988987
-500 66.9283 -31.1953 0 -0 -1 255 255 255 255 0.2374 0.78501
-374.987 -5e-06 -31.1953 0 -0 -1 255 255 255 255 0.178519 0.753487
-500 -5e-06 -31.1953 0 -0 -1 255 255 255 255 0.2374 0.753487
-500 67.846 14.2392 -1 0 1e-06 255 255 255 255 0.2374 0.785442
-500 500 -31.1954 -1 0 1e-06 255 255 255 255 0.2374 0.988987
-500 67.846 14.2392 -0 0 1 255 255 255 255 0.2374 0.785442
-1.5e-05 2e-06 14.2392 -0 0 1 255 255 255 255 0.001899 0.753487
-1.5e-05 303.522 14.2392 0 -0 -1 255 255 255 255 0.001899 0.896446
-1.7e-05 2e-06 14.2392 0 -0 -1 255 255 255 255 0.001899 0.753487
-3.3e-05 500 -31.1954 1 -0 -0 255 255 255 255 0.001899 0.988987
-1.7e-05 500 14.2391 1 -0 -0 255 255 255 255 0.001899 0.988987
-146.089 233.998 -16.6512 -0.555962 0.002908 -0.831202 255 255 255 255 0.071284 0.613835
-135.292 74.1793 -24.4318 -0.555962 0.002908 -0.831202 255 255 255 255 0.065959 0.551836
-147.313 -3e-06 -16.6512 -0.555962 0.002908 -0.831202 255 255 255 255 0.071284 0.523257
-351.855 344.203 -16.6512 0.493311 -0.007066 -0.869824 255 255 255 255 0.168015 0.663289
-376.953 329.602 -30.7664 0.493311 -0.007066 -0.869824 255 255 255 255 0.178519 0.658623
-376.583 352.14 -30.7396 0.493311 -0.007066 -0.869824 255 255 255 255 0.178519 0.668337
-352.357 136.773 -16.6512 0 -0 -1 255 255 255 255 0.168015 0.816986
-147.313 -3e-06 -16.6512 0 -0 -1 255 255 255 255 0.071284 0.753487
-352.688 -3e-06 -16.6512 0 -0 -1 255 255 255 255 0.168015 0.753487
-115.476 64.083 -31.2092 -0.339109 -0.03449 -0.940114 255 255 255 255 0.057613 0.547948
-135.292 74.1793 -24.4318 -0.339109 -0.03449 -0.940114 255 255 255 255 0.065959 0.551836
-123.389 142.347 -31.2262 -0.339109 -0.03449 -0.940114 255 255 255 255 0.060788 0.578085
-124.59 37.0222 -31.2033 -0.279075 0.093787 -0.955679 255 255 255 255 0.06078 0.537519
-135.292 74.1793 -24.4318 -0.279075 0.093787 -0.955679 255 255 255 255 0.065959 0.551836
-115.476 64.083 -31.2092 -0.279075 0.093787 -0.955679 255 255 255 255 0.057613 0.547948
-385.303 318.738 -30.7873 0.203397 -0.018787 -0.978916 255 255 255 255 0.181361 0.654373
-371.548 311.454 -27.7897 0.203397 -0.018787 -0.978916 255 255 255 255 0.175735 0.650371
-388.085 290.49 -30.8233 0.203397 -0.018787 -0.978916 255 255 255 255 0.182168 0.642321
-376.953 329.602 -30.7664 0.152737 -0.115505 -0.981494 255 255 255 255 0.178519 0.658623
-371.548 311.454 -27.7897 0.152737 -0.115505 -0.981494 255 255 255 255 0.175735 0.650371
-385.303 318.738 -30.7873 0.152737 -0.115505 -0.981494 255 255 255 255 0.181361 0.654373
-388.085 290.49 -30.8233 0.147712 0.026551 -0.988674 255 255 255 255 0.182168 0.642321
-371.548 311.454 -27.7897 0.147712 0.026551 -0.988674 255 255 255 255 0.175735 0.650371
-378.505 235.117 -30.879 0.147712 0.026551 -0.988674 255 255 255 255 0.178519 0.617903
-378.873 212.718 -30.9057 0.132699 -0.039088 -0.990385 255 255 255 255 0.17853 0.608181
-374.448 171.677 -28.693 0.132699 -0.039088 -0.990385 255 255 255 255 0.176484 0.589647
-387.194 185.486 -30.9458 0.132699 -0.039088 -0.990385 255 255 255 255 0.181145 0.597688
-387.194 185.486 -30.9458 0.227931 0.051768 -0.9723 255 255 255 255 0.181145 0.597688
-374.448 171.677 -28.693 0.227931 0.051768 -0.9723 255 255 255 255 0.176484 0.589647
-379.86 152.604 -30.9773 0.227931 0.051768 -0.9723 255 255 255 255 0.178519 0.582343
-182.374 395.915 -31.314 -0.117539 -0.085525 -0.989379 255 255 255 255 0.087204 0.689477
-222.87 421.841 -28.7441 -0.117539 -0.085525 -0.989379 255 255 255 255 0.106282 0.701545
-213.122 438.454 -31.3382 -0.117539 -0.085525 -0.989379 255 255 255 255 0.102704 0.706438
-213.122 438.454 -31.3382 -0.043098 -0.129403 -0.990655 255 255 255 255 0.102704 0.706438
-222.87 421.841 -28.7441 -0.043098 -0.129403 -0.990655 255 255 255 255 0.106282 0.701545
-242.589 448.429 -31.3592 -0.043098 -0.129403 -0.990655 255 255 255 255 0.115669 0.71279
-374.448 171.677 -28.693 0.435044 -0.003204 -0.900403 255 255 255 255 0.176484 0.589647
-378.505 235.117 -30.879 0.435044 -0.003204 -0.900403 255 255 255 255 0.178519 0.617903
-371.548 311.454 -27.7897 0.435044 -0.003204 -0.900403 255 255 255 255 0.175735 0.650371
-352.357 136.773 -16.6512 0.452106 -0.021497 -0.891705 255 255 255 255 0.168015 0.566986
-379.86 152.604 -30.9773 0.452106 -0.021497 -0.891705 255 255 255 255 0.178519 0.582343
-374.448 171.677 -28.693 0.452106 -0.021497 -0.891705 255 255 255 255 0.176484 0.589647
-352.357 136.773 -16.6512 0.49381 -0.001194 -0.869569 255 255 255 255 0.168015 0.566986
-371.548 311.454 -27.7897 0.49381 -0.001194 -0.869569 255 255 255 255 0.175735 0.650371
-351.855 344.203 -16.6512 0.49381 -0.001194 -0.869569 255 255 255 255 0.168015 0.663289
-387.194 185.486 -30.9458 0.000976 0.001175 -0.999999 255 255 255 255 0.182423 0.845823
-378.505 235.117 -30.879 0.000976 0.001175 -0.999999 255 255 255 255 0.178519 0.867903
-378.873 212.718 -30.9057 0.000976 0.001175 -0.999999 255 255 255 255 0.178519 0.858249
-376.583 352.14 -30.7396 0.004119 0.000355 -0.999991 255 255 255 255 0.178519 0.918337
-385.303 318.738 -30.7873 0.004119 0.000355 -0.999991 255 255 255 255 0.182571 0.903226
-500 500 -31.1954 0.004119 0.000355 -0.999991 255 255 255 255 0.2374 0.988987
-388.085 290.49 -30.8233 0.003325 -0 -0.999994 255 255 255 255 0.18372 0.890849
-500 66.9283 -31.1953 0.003325 -0 -0.999994 255 255 255 255 0.2374 0.78501
-500 500 -31.1954 0.003325 -0 -0.999994 255 255 255 255 0.2374 0.988987
-500 500 -31.1954 0.004817 0.000797 -0.999988 255 255 255 255 0.2374 0.988987
-385.303 318.738 -30.7873 0.004817 0.000797 -0.999988 255 255 255 255 0.182571 0.903226
-388.085 290.49 -30.8233 0.004817 0.000797 -0.999988 255 255 255 255 0.18372 0.890849
-213.122 438.454 -31.3382 0.00069 -7.1e-05 -1 255 255 255 255 0.101946 0.958309
-250.483 455.313 -31.3652 0.00069 -7.1e-05 -1 255 255 255 255 0.119649 0.965437
-242.589 448.429 -31.3592 -0.290543 -0.333929 -0.896703 255 255 255 255 0.115669 0.71279
-252.365 417.439 -16.6512 -0.290543 -0.333929 -0.896703 255 255 255 255 0.119649 0.701985
-250.483 455.313 -31.3652 -0.290543 -0.333929 -0.896703 255 255 255 255 0.119649 0.715437
-145.54 338.867 -16.6512 -0.403435 -0.463284 -0.789055 255 255 255 255 0.071284 0.663289
-182.374 395.915 -31.314 -0.403435 -0.463284 -0.789055 255 255 255 255 0.087204 0.689477
-126.907 347.543 -31.2723 -0.403435 -0.463284 -0.789055 255 255 255 255 0.06078 0.668337
-146.089 233.998 -16.6512 -0.52237 0.006223 -0.852696 255 255 255 255 0.071284 0.613835
-123.389 142.347 -31.2262 -0.52237 0.006223 -0.852696 255 255 255 255 0.060788 0.578085
-135.292 74.1793 -24.4318 -0.52237 0.006223 -0.852696 255 255 255 255 0.065959 0.551836
-147.313 -3e-06 -16.6512 -0.546277 0.006049 -0.837583 255 255 255 255 0.071284 0.523257
-124.59 37.0222 -31.2033 -0.546277 0.006049 -0.837583 255 255 255 255 0.06078 0.537519
-125.013 -5e-06 -31.1953 -0.546277 0.006049 -0.837583 255 255 255 255 0.06078 0.523257
-3.3e-05 -5e-06 -31.1953 -0 -0.000217 -1 255 255 255 255 0.001899 0.753487
-124.59 37.0222 -31.2033 -0 -0.000217 -1 255 255 255 255 0.06078 0.7707
-115.476 64.083 -31.2092 -0 -0.000217 -1 255 255 255 255 0.056633 0.783282
-3.3e-05 302.605 -31.1954 0.00054 -0.000223 -1 255 255 255 255 0.001899 0.896013
-123.389 142.347 -31.2262 0.00054 -0.000223 -1 255 255 255 255 0.06077 0.819683
-122.184 247.955 -31.2491 0.00054 -0.000223 -1 255 255 255 255 0.06078 0.868774
-3.3e-05 -5e-06 -31.1953 0 1 -0 255 255 255 255 0.001899 0.753487
-1.7e-05 2e-06 14.2392 0 1 -0 255 255 255 255 0.001899 0.753487
-1.5e-05 2e-06 14.2392 0 1 -0 255 255 255 255 0.001899 0.753487
-1.5e-05 500 14.2391 0 -1 -0 255 255 255 255 0.001899 0.988987
-1.5e-05 500 14.2391 0 1 -0 255 255 255 255 0.001899 0.988987
-3.3e-05 -5e-06 -31.1953 1 -0 -0 255 255 255 255 0.001899 0.753487
-122.184 247.955 -31.2491 -0.522341 0.002732 -0.852732 255 255 255 255 0.06078 0.618774
-146.089 233.998 -16.6512 -0.522341 0.002732 -0.852732 255 255 255 255 0.071284 0.613835
-145.54 338.867 -16.6512 -0.522341 0.002732 -0.852732 255 255 255 255 0.071284 0.663289
-380.625 106.049 -31.0328 0.454398 -0.001099 -0.890798 255 255 255 255 0.178519 0.562279
-352.357 136.773 -16.6512 0.454398 -0.001099 -0.890798 255 255 255 255 0.168015 0.566986
-352.688 -3e-06 -16.6512 0.454398 -0.001099 -0.890798 255 255 255 255 0.168015 0.523257
-376.583 352.14 -30.7396 0.289403 -0.359095 -0.887297 255 255 255 255 0.178519 0.668337
-250.483 455.313 -31.3652 0.289403 -0.359095 -0.887297 255 255 255 255 0.119649 0.715437
-252.365 417.439 -16.6512 0.289403 -0.359095 -0.887297 255 255 255 255 0.119649 0.701985
-3.3e-05 302.605 -31.1954 0.000533 -0.000207 -1 255 255 255 255 0.001899 0.896013
-122.184 247.955 -31.2491 0.000533 -0.000207 -1 255 255 255 255 0.06078 0.868774
-126.907 347.543 -31.2723 0.000533 -0.000207 -1 255 255 255 255 0.06078 0.918337
-500 66.9283 -31.1953 0.000845 0.001578 -0.999998 255 255 255 255 0.2374 0.78501
-380.625 106.049 -31.0328 0.000845 0.001578 -0.999998 255 255 255 255 0.178519 0.812279
-374.987 -5e-06 -31.1953 0.000845 0.001578 -0.999998 255 255 255 255 0.178519 0.753487
-500 500 14.2391 -1 -0 1e-06 255 255 255 255 0.2374 0.988987
-500 2e-06 14.2392 0 0 1 255 255 255 255 0.2374 0.753487
-1.5e-05 2e-06 14.2392 0 -0 -1 255 255 255 255 0.001899 0.753487
-351.855 344.203 -16.6512 0.489067 0.002567 -0.872242 255 255 255 255 0.168015 0.663289
-371.548 311.454 -27.7897 0.489067 0.002567 -0.872242 255 255 255 255 0.175735 0.650371
-376.953 329.602 -30.7664 0.489067 0.002567 -0.872242 255 255 255 255 0.178519 0.658623
-374.448 171.677 -28.693 0.405433 -0.00557 -0.914108 255 255 255 255 0.176484 0.589647
-378.873 212.718 -30.9057 0.405433 -0.00557 -0.914108 255 255 255 255 0.17853 0.608181
-378.505 235.117 -30.879 0.405433 -0.00557 -0.914108 255 255 255 255 0.178519 0.617903
-352.357 136.773 -16.6512 0.459027 -0.006481 -0.888399 255 255 255 255 0.168015 0.566986
-380.625 106.049 -31.0328 0.459027 -0.006481 -0.888399 255 255 255 255 0.178519 0.562279
-379.86 152.604 -30.9773 0.459027 -0.006481 -0.888399 255 255 255 255 0.178519 0.582343
-352.357 136.773 -16.6512 0.473571 -0.004131 -0.880746 255 255 255 255 0.168015 0.566986
-374.448 171.677 -28.693 0.473571 -0.004131 -0.880746 255 255 255 255 0.176484 0.589647
-371.548 311.454 -27.7897 0.473571 -0.004131 -0.880746 255 255 255 255 0.175735 0.650371
-388.085 290.49 -30.8233 0.000976 0.001175 -0.999999 255 255 255 255 0.18372 0.890849
-376.583 352.14 -30.7396 0.000977 0.001175 -0.999999 255 255 255 255 0.178519 0.918337
-376.953 329.602 -30.7664 0.000977 0.001175 -0.999999 255 255 255 255 0.178519 0.908623
-385.303 318.738 -30.7873 0.000977 0.001175 -0.999999 255 255 255 255 0.182571 0.903226
-242.589 448.429 -31.3592 0.00069 -7.1e-05 -1 255 255 255 255 0.115889 0.962428
-242.589 448.429 -31.3592 -0.317334 -0.323052 -0.891592 255 255 255 255 0.115669 0.71279
-222.87 421.841 -28.7441 -0.317334 -0.323052 -0.891592 255 255 255 255 0.106282 0.701545
-252.365 417.439 -16.6512 -0.317334 -0.323052 -0.891592 255 255 255 255 0.119649 0.701985
-145.54 338.867 -16.6512 -0.327417 -0.427921 -0.842426 255 255 255 255 0.071284 0.663289
-222.87 421.841 -28.7441 -0.327417 -0.427921 -0.842426 255 255 255 255 0.106282 0.701545
-182.374 395.915 -31.314 -0.327417 -0.427921 -0.842426 255 255 255 255 0.087204 0.689477
-146.089 233.998 -16.6512 -0.523632 0.005788 -0.851925 255 255 255 255 0.071284 0.613835
-122.184 247.955 -31.2491 -0.523632 0.005788 -0.851925 255 255 255 255 0.06078 0.618774
-123.389 142.347 -31.2262 -0.523632 0.005788 -0.851925 255 255 255 255 0.060788 0.578085
-147.313 -3e-06 -16.6512 -0.537847 -0.00127 -0.843041 255 255 255 255 0.071284 0.523257
-135.292 74.1793 -24.4318 -0.537847 -0.00127 -0.843041 255 255 255 255 0.065959 0.551836
-124.59 37.0222 -31.2033 -0.537847 -0.00127 -0.843041 255 255 255 255 0.06078 0.537519
-125.013 -5e-06 -31.1953 0 -0.000217 -1 255 255 255 255 0.06078 0.753487
-3.3e-05 302.605 -31.1954 0.00047 -0.00017 -1 255 255 255 255 0.001899 0.896013
-115.476 64.083 -31.2092 0.00047 -0.00017 -1 255 255 255 255 0.056633 0.783282
-123.389 142.347 -31.2262 0.00047 -0.00017 -1 255 255 255 255 0.06077 0.819683
3 0 1 2 
3 3 4 5 
3 6 7 8 
3 9 10 11 
3 12 13 14 
3 15 16 17 
3 18 19 20 
3 21 22 23 
3 24 25 26 
3 27 28 29 
3 30 31 32 
3 33 34 35 
3 36 37 38 
3 39 40 41 
3 1 0 42 
3 5 4 43 
3 4 42 43 
3 44 45 46 
3 47 48 49 
3 50 51 52 
3 53 54 55 
3 56 26 25 
3 57 58 59 
3 60 61 62 
3 63 64 65 
3 66 67 31 
3 68 69 34 
3 70 71 37 
3 41 72 73 
3 74 75 76 
3 77 78 79 
3 80 81 82 
3 83 84 85 
3 86 87 88 
3 89 90 91 
3 92 93 94 
3 95 96 97 
3 98 99 100 
3 101 102 103 
3 104 105 106 
3 107 108 109 
3 110 111 112 
3 113 114 115 
3 116 117 118 
3 119 120 121 
3 122 123 124 
3 125 126 127 
3 128 129 130 
3 131 132 16 
3 133 134 135 
3 136 137 138 
3 139 140 141 
3 142 143 144 
3 145 146 147 
3 148 149 150 
3 151 152 153 
3 6 154 7 
3 12 155 13 
3 15 131 16 
3 27 119 28 
3 30 66 31 
3 33 68 34 
3 36 70 37 
3 39 156 40 
3 4 1 42 
3 157 158 159 
3 160 161 162 
3 163 164 165 
3 56 80 26 
3 166 167 168 
3 169 170 171 
3 66 172 67 
3 68 173 69 
3 70 174 71 
3 41 40 72 
3 175 176 177 
3 80 56 81 
3 178 179 180 
3 181 182 183 
3 184 185 186 
3 119 187 120 
3 188 189 190 
3 187 119 27 
3 131 191 132 
3 192 193 194 
3 195 196 197 
3 198 199 200 
3 201 202 203 
3 145 204 146 
3 205 206 207 
