ply
format ascii 1.0
comment VCGLIB generated
comment TextureFile Dungeons_2_Texture_01_A.png
element vertex 527
property float x
property float y
property float z
property float nx
property float ny
property float nz
property uchar red
property uchar green
property uchar blue
property uchar alpha
property float texture_u
property float texture_v
element face 250
property list uchar int vertex_indices
end_header
-1.7e-05 0 0 1 0 0 255 255 255 255 0.001929 0.75319
-1.7e-05 123.45 42.1604 1 0 0 255 255 255 255 0.001929 0.811349
-1.7e-05 7e-06 42.1605 1 0 0 255 255 255 255 0.001929 0.75319
-54.6336 7e-06 42.1605 0 -1 0 255 255 255 255 0.027668 0.75319
-1.7e-05 0 0 0 -1 0 255 255 255 255 0.001929 0.75319
-1.7e-05 7e-06 42.1605 0 -1 0 255 255 255 255 0.001929 0.75319
-1.7e-05 142.831 16.6511 1 0 0 255 255 255 255 0.001929 0.820479
-1.7e-05 -7e-06 -42.1605 1 0 -0 255 255 255 255 0.001929 0.75319
-1.7e-05 123.449 -42.1605 1 0 -0 255 255 255 255 0.001929 0.811349
-63.5504 -4e-06 -23.6212 -0.999111 0.031625 -0.027884 255 255 255 255 0.137863 0.772805
-63.6751 54.0591 42.1604 -0.999111 0.031625 -0.027884 255 255 255 255 0.137944 0.772644
-61.6107 44.9315 -42.1605 -0.999111 0.031625 -0.027884 255 255 255 255 0.137841 0.772697
-61.6107 44.9315 -42.1605 -0.905528 -0.12784 -0.40457 255 255 255 255 0.137841 0.772697
-55.2674 -7e-06 -42.1605 -0.905528 -0.12784 -0.40457 255 255 255 255 0.137856 0.772817
-63.5504 -4e-06 -23.6212 -0.905528 -0.12784 -0.40457 255 255 255 255 0.137863 0.772805
-1.7e-05 142.831 -16.6512 1 0 0 255 255 255 255 0.001929 0.820479
-55.2674 -7e-06 -42.1605 0 -1 0 255 255 255 255 0.027966 0.75319
-1.7e-05 -7e-06 -42.1605 0 -1 0 255 255 255 255 0.001929 0.75319
-1.7e-05 142.831 16.6511 0 0.796253 0.604964 255 255 255 255 0.001929 0.820479
-77.0983 123.45 42.1604 0 0.796253 0.604964 255 255 255 255 0.038251 0.811349
-1.7e-05 123.45 42.1604 0 0.796253 0.604964 255 255 255 255 0.001929 0.811349
-63.6751 54.0591 42.1604 -0 0 1 255 255 255 255 0.031927 0.778658
-1.7e-05 123.45 42.1604 -0 0 1 255 255 255 255 0.001929 0.811349
-77.0983 123.45 42.1604 -0 0 1 255 255 255 255 0.038251 0.811349
-1.7e-05 142.831 -16.6512 0 0.796252 -0.604965 255 255 255 255 0.001929 0.820479
-75.9538 123.449 -42.1605 0 0.796252 -0.604965 255 255 255 255 0.037712 0.811349
-85.7135 142.831 -16.6512 0 0.796252 -0.604965 255 255 255 255 0.04231 0.820479
-1.7e-05 500 -8.1e-05 1 -0 0 255 255 255 255 0.001929 0.988748
-1.7e-05 352.769 31.1953 1 -0 0 255 255 255 255 0.001929 0.919385
-1.7e-05 346.372 16.6511 1 -0 0 255 255 255 255 0.001929 0.916371
-1.7e-05 370.732 31.1953 1 0 0 255 255 255 255 0.001929 0.927847
-1.7e-05 375.677 42.1604 1 -0 0 255 255 255 255 0.001929 0.930177
-157.509 405.616 16.6511 -0.325546 -0.865503 0.38069 255 255 255 255 0.076134 0.694282
-1.7e-05 352.769 31.1953 -0.325546 -0.865503 0.38069 255 255 255 255 0.001929 0.669385
-157.509 412.014 31.1952 -0.325546 -0.865503 0.38069 255 255 255 255 0.076134 0.697296
-157.509 429.976 31.1952 -0.324337 -0.862289 0.388925 255 255 255 255 0.076134 0.705758
-1.7e-05 375.677 42.1604 -0.324337 -0.862289 0.388925 255 255 255 255 0.001929 0.680177
-157.509 434.922 42.1604 -0.324337 -0.862289 0.388925 255 255 255 255 0.076134 0.708088
-1.7e-05 346.372 -16.6512 1 0 -0 255 255 255 255 0.001929 0.916371
-1.7e-05 352.769 -31.1954 1 0 -0 255 255 255 255 0.001929 0.919385
-1.7e-05 500 42.1604 1 0 0 255 255 255 255 0.001929 0.988747
-61.6107 44.9315 -42.1605 -0.943395 -0.310708 0.116047 255 255 255 255 0.137841 0.772697
-77.0983 123.45 42.1604 -0.943395 -0.310708 0.116047 255 255 255 255 0.137914 0.772474
-86.6194 142.831 16.6511 -0.943395 -0.310708 0.116047 255 255 255 255 0.137871 0.772429
-1.7e-05 370.732 -31.1954 1 0 -0 255 255 255 255 0.001929 0.927847
-1.7e-05 375.677 -42.1605 1 0 -0 255 255 255 255 0.001929 0.930177
-1.7e-05 375.677 42.1604 -0 0 1 255 255 255 255 0.001929 0.930177
-1.7e-05 500 42.1604 -0 0 1 255 255 255 255 0.001929 0.988747
-157.509 434.922 42.1604 -0 0 1 255 255 255 255 0.076134 0.958088
-59.3139 387.638 -31.1954 -0.273235 -0.500306 -0.821606 255 255 255 255 0.029873 0.685812
-88.3027 379.585 -16.6512 -0.273235 -0.500306 -0.821606 255 255 255 255 0.04353 0.682018
-91.0994 404.997 -31.1954 -0.273235 -0.500306 -0.821606 255 255 255 255 0.044847 0.69399
-407.426 29.6457 -42.1605 0.978222 -0.170928 -0.117753 255 255 255 255 0.137192 0.772653
-407.531 0 0 0.978222 -0.170928 -0.117753 255 255 255 255 0.137256 0.772704
-412.606 -7e-06 -42.1605 0.978222 -0.170928 -0.117753 255 255 255 255 0.137183 0.772717
-66.0036 400.504 -42.1605 -0.407978 -0.600668 -0.68757 255 255 255 255 0.033024 0.691873
-91.0994 404.997 -31.1954 -0.407978 -0.600668 -0.68757 255 255 255 255 0.044847 0.69399
-95.3675 420.448 -42.1605 -0.407978 -0.600668 -0.68757 255 255 255 255 0.046858 0.701269
-1.7e-05 500 -42.1605 1 0 -0 255 255 255 255 0.001929 0.988747
-500 7e-06 42.1605 -1 0 -0 255 255 255 255 0.237487 0.75319
-500 123.45 42.1604 -1 0 -0 255 255 255 255 0.237487 0.811349
-500 0 0 -1 0 -0 255 255 255 255 0.237487 0.75319
-66.0036 400.504 -42.1605 0 -0 -1 255 255 255 255 0.033024 0.941873
-1.7e-05 500 -42.1605 0 -0 -1 255 255 255 255 0.001929 0.988747
-1.7e-05 375.677 -42.1605 0 -0 -1 255 255 255 255 0.001929 0.930177
-500 123.45 42.1604 -1 -0 1e-06 255 255 255 255 0.237487 0.811349
-500 142.831 16.6511 -1 -0 1e-06 255 255 255 255 0.237487 0.820479
-500 0 0 -1 -0 1e-06 255 255 255 255 0.237487 0.75319
-500 -7e-06 -42.1605 -1 0 -0 255 255 255 255 0.237487 0.75319
-500 123.449 -42.1605 -1 0 -0 255 255 255 255 0.237487 0.811349
-104.469 198.906 1.28177 -0.996395 0.065881 -0.053444 255 255 255 255 0.137804 0.772294
-97.7025 313.705 16.6511 -0.996395 0.065881 -0.053444 255 255 255 255 0.137845 0.77202
-95.8491 314.721 -16.6512 -0.996395 0.065881 -0.053444 255 255 255 255 0.137786 0.772009
-500 123.449 -42.1605 -1 -0 -1e-06 255 255 255 255 0.237487 0.811349
-500 0 0 -1 -0 -1e-06 255 255 255 255 0.237487 0.75319
-500 142.831 -16.6512 -1 -0 -1e-06 255 255 255 255 0.237487 0.820479
-230.521 434.922 42.1604 0 -0.911568 0.41115 255 255 255 255 0.110531 0.708088
-157.509 429.976 31.1952 0 -0.911568 0.41115 255 255 255 255 0.076134 0.705758
-157.509 434.922 42.1604 0 -0.911568 0.41115 255 255 255 255 0.076134 0.708088
-96.4725 206.473 -16.6512 -0.914133 0.005265 -0.405381 255 255 255 255 0.137786 0.772277
-104.469 198.906 1.28177 -0.914133 0.005265 -0.405381 255 255 255 255 0.137804 0.772294
-95.8491 314.721 -16.6512 -0.914133 0.005265 -0.405381 255 255 255 255 0.137786 0.772009
-500 0 0 -1 0 2e-06 255 255 255 255 0.237487 0.75319
-500 346.372 16.6511 -1 0 2e-06 255 255 255 255 0.237487 0.916371
-500 500 -8.1e-05 -1 0 2e-06 255 255 255 255 0.237487 0.988748
-500 346.372 -16.6512 -1 -0 -2e-06 255 255 255 255 0.237487 0.916371
-500 0 0 -1 -0 -2e-06 255 255 255 255 0.237487 0.75319
-500 500 -8.1e-05 -1 -0 -2e-06 255 255 255 255 0.237487 0.988748
-157.509 429.976 -31.1954 0 -0.911568 -0.41115 255 255 255 255 0.076134 0.705758
-342.491 434.922 -42.1605 0 -0.911568 -0.41115 255 255 255 255 0.163282 0.708088
-157.509 434.922 -42.1605 0 -0.911568 -0.41115 255 255 255 255 0.076134 0.708088
-313.706 405.616 16.6511 0.639571 -0.741077 0.20434 255 255 255 255 0.137445 0.771847
-304.301 407.59 -5.62964 0.639571 -0.741077 0.20434 255 255 255 255 0.137419 0.771833
-310.94 412.014 31.1952 0.639571 -0.741077 0.20434 255 255 255 255 0.137464 0.771835
-417.391 38.9499 42.1604 0.912205 -0.171751 0.372001 255 255 255 255 0.137303 0.77261
-407.531 0 0 0.912205 -0.171751 0.372001 255 255 255 255 0.137256 0.772704
-400.874 35.0319 -0.149908 0.912205 -0.171751 0.372001 255 255 255 255 0.137267 0.772631
-96.4725 206.473 -16.6512 -0.887942 -0.116318 -0.445004 255 255 255 255 0.137786 0.772277
-88.8512 142.798 -15.2145 -0.887942 -0.116318 -0.445004 255 255 255 255 0.137817 0.772435
-104.469 198.906 1.28177 -0.887942 -0.116318 -0.445004 255 255 255 255 0.137804 0.772294
-1.7e-05 142.831 16.6511 0 0 1 255 255 255 255 0.001929 0.820479
-96.8376 200.054 16.6511 0 0 1 255 255 255 255 0.047551 0.847438
-86.6194 142.831 16.6511 0 0 1 255 255 255 255 0.042737 0.820479
-97.7025 313.705 16.6511 -0.652432 -0.755518 -0.059368 255 255 255 255 0.137845 0.77202
-182.356 387.641 6.05328 -0.652432 -0.755518 -0.059368 255 255 255 255 0.137653 0.771857
-95.8491 314.721 -16.6512 -0.652432 -0.755518 -0.059368 255 255 255 255 0.137786 0.772009
-500 346.372 16.6511 0.325546 -0.865503 0.380688 255 255 255 255 0.237487 0.666371
-459.313 368.073 31.1953 0.325546 -0.865503 0.380688 255 255 255 255 0.218319 0.676595
-500 352.769 31.1953 0.325546 -0.865503 0.380688 255 255 255 255 0.237487 0.669385
-342.491 429.976 31.1952 0.324337 -0.86229 0.388923 255 255 255 255 0.163282 0.705758
-500 375.677 42.1604 0.324337 -0.86229 0.388923 255 255 255 255 0.237487 0.680177
-500 370.732 31.1953 0.324337 -0.86229 0.388923 255 255 255 255 0.237487 0.677847
-1.7e-05 370.732 31.1953 0 0 1 255 255 255 255 0.001929 0.927847
-157.509 412.014 31.1952 0 0 1 255 255 255 255 0.076134 0.947296
-1.7e-05 352.769 31.1953 0 0 1 255 255 255 255 0.001929 0.919385
-1.7e-05 -7e-06 -42.1605 0 -0 -1 255 255 255 255 0.001929 0.75319
-61.6107 44.9315 -42.1605 0 -0 -1 255 255 255 255 0.030955 0.774358
-1.7e-05 123.449 -42.1605 0 -0 -1 255 255 255 255 0.001929 0.811349
-417.391 38.9499 42.1604 0.797857 -0.04607 0.601084 255 255 255 255 0.137303 0.77261
-384.569 134.107 5.88767 0.797857 -0.04607 0.601084 255 255 255 255 0.137302 0.772422
-392.174 142.831 16.6511 0.797857 -0.04607 0.601084 255 255 255 255 0.137317 0.772401
-417.391 38.9499 42.1604 0.95986 -0.180224 0.214913 255 255 255 255 0.137303 0.77261
-392.174 142.831 16.6511 0.95986 -0.180224 0.214913 255 255 255 255 0.137317 0.772401
-401.525 123.45 42.1604 0.95986 -0.180224 0.214913 255 255 255 255 0.137328 0.772438
-500 352.769 -31.1954 0.325546 -0.865503 -0.380688 255 255 255 255 0.237487 0.669385
-342.491 405.616 -16.6512 0.325546 -0.865503 -0.380688 255 255 255 255 0.163282 0.694282
-500 346.372 -16.6512 0.325546 -0.865503 -0.380688 255 255 255 255 0.237487 0.666371
-95.8491 314.721 -16.6512 -0.658664 -0.683291 -0.315079 255 255 255 255 0.137786 0.772009
-182.356 387.641 6.05328 -0.658664 -0.683291 -0.315079 255 255 255 255 0.137653 0.771857
-176.049 392.031 -16.6512 -0.658664 -0.683291 -0.315079 255 255 255 255 0.137624 0.771837
-500 500 42.1604 0 0 1 255 255 255 255 0.237487 0.988747
-500 375.677 42.1604 0 0 1 255 255 255 255 0.237487 0.930177
-342.491 434.922 42.1604 0 0 1 255 255 255 255 0.163282 0.958088
-447.882 395.281 -42.1605 0.324337 -0.86229 -0.388923 255 255 255 255 0.212933 0.689413
-500 370.732 -31.1954 0.324337 -0.86229 -0.388923 255 255 255 255 0.237487 0.677847
-500 375.677 -42.1605 0.324337 -0.86229 -0.388923 255 255 255 255 0.237487 0.680177
-1.7e-05 142.831 -16.6512 0 -0 -1 255 255 255 255 0.001929 0.820479
-96.4725 206.473 -16.6512 0 -0 -1 255 255 255 255 0.047379 0.850462
-95.8491 314.721 -16.6512 0 -0 -1 255 255 255 255 0.047085 0.90146
-500 346.372 16.6511 -1 -0 0 255 255 255 255 0.237487 0.916371
-500 352.769 31.1953 -1 -0 0 255 255 255 255 0.237487 0.919385
-500 500 -8.1e-05 -1 -0 0 255 255 255 255 0.237487 0.988748
-500 352.769 31.1953 -1 0 1e-06 255 255 255 255 0.237487 0.919385
-500 370.732 31.1953 -1 0 1e-06 255 255 255 255 0.237487 0.927847
-500 500 -8.1e-05 -1 0 1e-06 255 255 255 255 0.237487 0.988748
-500 370.732 31.1953 -1 0 3e-06 255 255 255 255 0.237487 0.927847
-500 375.677 42.1604 -1 0 3e-06 255 255 255 255 0.237487 0.930177
-500 500 -8.1e-05 -1 0 3e-06 255 255 255 255 0.237487 0.988748
-401.152 123.449 -42.1605 0.987154 -0.066029 -0.14549 255 255 255 255 0.137203 0.77245
-400.874 35.0319 -0.149908 0.987154 -0.066029 -0.14549 255 255 255 255 0.137267 0.772631
-407.426 29.6457 -42.1605 0.987154 -0.066029 -0.14549 255 255 255 255 0.137192 0.772653
-500 346.372 -16.6512 -1 -0 -0 255 255 255 255 0.237487 0.916371
-500 352.769 -31.1954 -1 -0 -0 255 255 255 255 0.237487 0.919385
-400.194 128.178 -39.4445 0.941953 -0.13632 -0.306826 255 255 255 255 0.137212 0.772439
-384.569 134.107 5.88767 0.941953 -0.13632 -0.306826 255 255 255 255 0.137302 0.772422
-400.874 35.0319 -0.149908 0.941953 -0.13632 -0.306826 255 255 255 255 0.137267 0.772631
-342.491 434.922 -42.1605 -0 -0 -1 255 255 255 255 0.163282 0.958088
-386.962 426.586 -42.1605 -0 -0 -1 255 255 255 255 0.184233 0.954161
-500 500 -42.1605 -0 -0 -1 255 255 255 255 0.237487 0.988747
-500 375.677 42.1604 -1 -0 0 255 255 255 255 0.237487 0.930177
-500 500 42.1604 -1 -0 0 255 255 255 255 0.237487 0.988747
-500 352.769 -31.1954 -1 -0 -1e-06 255 255 255 255 0.237487 0.919385
-500 500 -8.1e-05 -1 -0 -1e-06 255 255 255 255 0.237487 0.988748
-500 370.732 -31.1954 -1 -0 -1e-06 255 255 255 255 0.237487 0.927847
-500 370.732 -31.1954 -1 0 -3e-06 255 255 255 255 0.237487 0.927847
-500 500 -8.1e-05 -1 0 -3e-06 255 255 255 255 0.237487 0.988748
-500 375.677 -42.1605 -1 0 -3e-06 255 255 255 255 0.237487 0.930177
-500 375.677 -42.1605 -1 -0 0 255 255 255 255 0.237487 0.930177
-500 500 -42.1605 -1 -0 0 255 255 255 255 0.237487 0.988747
-157.509 405.616 16.6511 0 -0.915366 0.402622 255 255 255 255 0.076134 0.694282
-176.174 412.014 31.1952 0 -0.915366 0.402622 255 255 255 255 0.084927 0.697296
-186.786 405.616 16.6511 0 -0.915366 0.402622 255 255 255 255 0.089927 0.694282
-398.692 222.353 16.6511 0 0 1 255 255 255 255 0.188226 0.857944
-500 142.831 16.6511 0 0 1 255 255 255 255 0.237487 0.820479
-392.174 142.831 16.6511 0 0 1 255 255 255 255 0.186689 0.820479
-304.301 407.59 -5.62964 -0.102785 -0.989628 0.100356 255 255 255 255 0.137419 0.771833
-263.547 405.616 16.6511 -0.102785 -0.989628 0.100356 255 255 255 255 0.137531 0.771837
-310.94 412.014 31.1952 -0.102785 -0.989628 0.100356 255 255 255 255 0.137464 0.771835
-268.397 405.616 -16.6512 -0.09872 -0.984446 -0.145332 255 255 255 255 0.137454 0.771825
-304.301 407.59 -5.62964 -0.09872 -0.984446 -0.145332 255 255 255 255 0.137419 0.771833
-310.78 412.014 -31.1954 -0.09872 -0.984446 -0.145332 255 255 255 255 0.137366 0.771817
-409.078 212.319 -16.6512 0 -0 -1 255 255 255 255 0.194652 0.853217
-500 142.831 -16.6512 0 -0 -1 255 255 255 255 0.237487 0.820479
-398.677 325.512 -16.6512 0 -0 -1 255 255 255 255 0.189752 0.906544
-157.509 405.616 -16.6512 0 -0.919751 -0.392503 255 255 255 255 0.076134 0.694282
-268.397 405.616 -16.6512 0 -0.919751 -0.392503 255 255 255 255 0.128375 0.694282
-200.732 410.611 -28.3549 0 -0.919751 -0.392503 255 255 255 255 0.096497 0.695164
-424.702 7e-06 42.1605 0 -1 0 255 255 255 255 0.202013 0.75319
-500 0 0 0 -1 0 255 255 255 255 0.237487 0.75319
-407.531 0 0 0 -1 0 255 255 255 255 0.193923 0.75319
-390.032 321.23 -0.066641 0.887823 5.2e-05 0.460185 255 255 255 255 0.137287 0.772029
-398.698 325.523 16.6511 0.887823 5.2e-05 0.460185 255 255 255 255 0.137309 0.772024
-398.692 222.353 16.6511 0.887823 5.2e-05 0.460185 255 255 255 255 0.137308 0.772236
-261.296 445.685 42.1604 -0 0 1 255 255 255 255 0.12503 0.963159
-390.032 321.23 -0.066641 0.54972 -0.695029 0.463404 255 255 255 255 0.137287 0.772029
-352.396 362.145 16.6511 0.54972 -0.695029 0.463404 255 255 255 255 0.137382 0.771944
-398.698 325.523 16.6511 0.54972 -0.695029 0.463404 255 255 255 255 0.137309 0.772024
-342.491 412.014 31.1952 0 -0.915366 0.402622 255 255 255 255 0.163282 0.697296
-313.706 405.616 16.6511 0 -0.915366 0.402622 255 255 255 255 0.149721 0.694282
-310.94 412.014 31.1952 0 -0.915366 0.402622 255 255 255 255 0.148418 0.697296
-400.558 220.593 3.13567 0.870222 -0.106326 -0.481049 255 255 255 255 0.137274 0.77224
-398.677 325.512 -16.6512 0.870222 -0.106326 -0.481049 255 255 255 255 0.137238 0.772018
-390.032 321.23 -0.066641 0.870222 -0.106326 -0.481049 255 255 255 255 0.137287 0.772029
-353.822 361.465 -16.6512 0.553181 -0.690166 -0.466542 255 255 255 255 0.137309 0.771936
-390.032 321.23 -0.066641 0.553181 -0.690166 -0.466542 255 255 255 255 0.137287 0.772029
-398.677 325.512 -16.6512 0.553181 -0.690166 -0.466542 255 255 255 255 0.137238 0.772018
-304.301 407.59 -5.62964 0.511673 -0.815401 -0.270763 255 255 255 255 0.137419 0.771833
-313.278 405.616 -16.6512 0.511673 -0.815401 -0.270763 255 255 255 255 0.137377 0.771834
-310.78 412.014 -31.1954 0.511673 -0.815401 -0.270763 255 255 255 255 0.137366 0.771817
-500 500 -8.1e-05 0 1 -0 255 255 255 255 0.237487 0.988748
-1.7e-05 500 42.1604 0 1 -0 255 255 255 255 0.001929 0.988747
-1.7e-05 500 -8.1e-05 0 1 -0 255 255 255 255 0.001929 0.988748
-157.509 434.922 -42.1605 -0 -0 -1 255 255 255 255 0.076134 0.958088
-313.278 405.616 -16.6512 -0 -0.915366 -0.402622 255 255 255 255 0.149519 0.694282
-342.491 412.014 -31.1954 -0 -0.915366 -0.402622 255 255 255 255 0.163282 0.697296
-310.78 412.014 -31.1954 -0 -0.915366 -0.402622 255 255 255 255 0.148342 0.697296
-1.7e-05 500 -42.1605 0 1 0 255 255 255 255 0.001929 0.988747
-342.491 429.976 31.1952 -0 0 1 255 255 255 255 0.163282 0.955758
-380.245 397.813 31.1952 -0 0 1 255 255 255 255 0.181068 0.940606
-342.491 412.014 31.1952 -0 0 1 255 255 255 255 0.163282 0.947296
-97.7025 313.705 16.6511 0 0 1 255 255 255 255 0.047958 0.900981
-1.7e-05 346.372 16.6511 0 0 1 255 255 255 255 0.001929 0.916371
-157.509 405.616 16.6511 0 0 1 255 255 255 255 0.076134 0.944282
-500 142.831 16.6511 0 0.796253 0.604964 255 255 255 255 0.237487 0.820479
-401.525 123.45 42.1604 0 0.796253 0.604964 255 255 255 255 0.191094 0.811349
-392.174 142.831 16.6511 0 0.796253 0.604964 255 255 255 255 0.186689 0.820479
-400.514 408.152 -31.1954 0 -0 -1 255 255 255 255 0.190618 0.945476
-500 352.769 -31.1954 0 -0 -1 255 255 255 255 0.237487 0.919385
-500 370.732 -31.1954 0 -0 -1 255 255 255 255 0.237487 0.927847
-390.032 321.23 -0.066641 0.986698 -0.107093 -0.122304 255 255 255 255 0.137287 0.772029
-398.692 222.353 16.6511 0.986698 -0.107093 -0.122304 255 255 255 255 0.137308 0.772236
-400.558 220.593 3.13567 0.986698 -0.107093 -0.122304 255 255 255 255 0.137274 0.77224
-1.7e-05 346.372 -16.6512 -0 -0 -1 255 255 255 255 0.001929 0.916371
-417.391 38.9499 42.1604 0 0 1 255 255 255 255 0.198568 0.77154
-500 7e-06 42.1605 0 0 1 255 255 255 255 0.237487 0.75319
-424.702 7e-06 42.1605 0 0 1 255 255 255 255 0.202013 0.75319
-412.606 -7e-06 -42.1605 0 -1 0 255 255 255 255 0.196314 0.75319
-407.426 29.6457 -42.1605 -0 -0 -1 255 255 255 255 0.193874 0.767156
-500 123.449 -42.1605 -0 -0 -1 255 255 255 255 0.237487 0.811349
-401.152 123.449 -42.1605 -0 -0 -1 255 255 255 255 0.190918 0.811349
-181.565 391.638 16.6511 -0 0 1 255 255 255 255 0.087467 0.937696
-186.786 405.616 16.6511 -0 0 1 255 255 255 255 0.089927 0.944282
-263.547 405.616 16.6511 -0 0 1 255 255 255 255 0.12609 0.944282
-176.049 392.031 -16.6512 -0 -0 -1 255 255 255 255 0.084869 0.937882
-157.509 405.616 -16.6512 -0 -0 -1 255 255 255 255 0.076134 0.944282
-393.734 142.831 -16.6512 0 0.841177 -0.540759 255 255 255 255 0.187423 0.820479
-400.194 128.178 -39.4445 0 0.841177 -0.540759 255 255 255 255 0.190466 0.813576
-500 142.831 -16.6512 0 0.841177 -0.540759 255 255 255 255 0.237487 0.820479
-500 123.449 -42.1605 0 0.498094 -0.867123 255 255 255 255 0.237487 0.811349
-400.194 128.178 -39.4445 0 0.498094 -0.867123 255 255 255 255 0.190466 0.813576
-401.152 123.449 -42.1605 0 0.498094 -0.867123 255 255 255 255 0.190918 0.811349
-342.491 405.616 16.6511 0 0 1 255 255 255 255 0.163282 0.944282
-352.396 362.145 16.6511 0 0 1 255 255 255 255 0.167948 0.923802
-313.706 405.616 16.6511 0 0 1 255 255 255 255 0.149721 0.944282
-500 346.372 16.6511 -0 0 1 255 255 255 255 0.237487 0.916371
-398.698 325.523 16.6511 -0 0 1 255 255 255 255 0.189762 0.906549
-342.491 405.616 -16.6512 0 -0 -1 255 255 255 255 0.163282 0.944282
-353.822 361.465 -16.6512 0 -0 -1 255 255 255 255 0.16862 0.923481
-500 346.372 -16.6512 0 -0 -1 255 255 255 255 0.237487 0.916371
-310.94 412.014 31.1952 0 0 1 255 255 255 255 0.148418 0.947296
-157.509 429.976 -31.1954 0 -0 -1 255 255 255 255 0.076134 0.955758
-203.264 420.383 -31.1954 0 -0 -1 255 255 255 255 0.09769 0.951239
-342.491 429.976 -31.1954 0 -0 -1 255 255 255 255 0.163282 0.955758
-104.469 198.906 1.28177 -0.879828 -0.157108 0.448575 255 255 255 255 0.137804 0.772294
-86.6194 142.831 16.6511 -0.879828 -0.157108 0.448575 255 255 255 255 0.137871 0.772429
-96.8376 200.054 16.6511 -0.879828 -0.157108 0.448575 255 255 255 255 0.137849 0.77229
-88.8512 142.798 -15.2145 -0.930845 -0.17004 -0.323441 255 255 255 255 0.137817 0.772435
-75.9538 123.449 -42.1605 -0.930845 -0.17004 -0.323441 255 255 255 255 0.137808 0.77249
-61.6107 44.9315 -42.1605 -0.930845 -0.17004 -0.323441 255 255 255 255 0.137841 0.772697
-86.6194 142.831 16.6511 -0.956257 -0.284689 0.067266 255 255 255 255 0.137871 0.772429
-88.8512 142.798 -15.2145 -0.956257 -0.284689 0.067266 255 255 255 255 0.137817 0.772435
-61.6107 44.9315 -42.1605 -0.956257 -0.284689 0.067266 255 255 255 255 0.137841 0.772697
-63.5504 -4e-06 -23.6212 -0.977602 -0.163507 0.132515 255 255 255 255 0.137863 0.772805
-54.6336 7e-06 42.1605 -0.977602 -0.163507 0.132515 255 255 255 255 0.137965 0.77278
-63.6751 54.0591 42.1604 -0.977602 -0.163507 0.132515 255 255 255 255 0.137944 0.772644
-346.973 357.516 -1.70422 0.696331 -0.619732 0.362016 255 255 255 255 0.137354 0.771948
-313.706 405.616 16.6511 0.696331 -0.619732 0.362016 255 255 255 255 0.137445 0.771847
-352.396 362.145 16.6511 0.696331 -0.619732 0.362016 255 255 255 255 0.137382 0.771944
-346.973 357.516 -1.70422 0.667837 -0.603288 -0.435933 255 255 255 255 0.137354 0.771948
-313.278 405.616 -16.6512 0.667837 -0.603288 -0.435933 255 255 255 255 0.137377 0.771834
-304.301 407.59 -5.62964 0.667837 -0.603288 -0.435933 255 255 255 255 0.137419 0.771833
-176.049 392.031 -16.6512 -0.141788 -0.963812 -0.225747 255 255 255 255 0.137624 0.771837
-182.356 387.641 6.05328 -0.141788 -0.963812 -0.225747 255 255 255 255 0.137653 0.771857
-268.397 405.616 -16.6512 -0.141788 -0.963812 -0.225747 255 255 255 255 0.137454 0.771825
-263.547 405.616 16.6511 -0.156899 -0.920164 0.358722 255 255 255 255 0.137531 0.771837
-182.356 387.641 6.05328 -0.156899 -0.920164 0.358722 255 255 255 255 0.137653 0.771857
-181.565 391.638 16.6511 -0.156899 -0.920164 0.358722 255 255 255 255 0.137679 0.771853
-310.78 412.014 -31.1954 0 -0 -1 255 255 255 255 0.148342 0.947296
-342.491 412.014 -31.1954 0 -0 -1 255 255 255 255 0.163282 0.947296
-276.764 429.976 31.1952 -0 0 1 255 255 255 255 0.132317 0.955758
-88.3027 379.585 -16.6512 -0 -0 -1 255 255 255 255 0.04353 0.932018
-268.397 405.616 -16.6512 -0 -0 -1 255 255 255 255 0.128375 0.944282
-75.9538 123.449 -42.1605 0 -0 -1 255 255 255 255 0.037712 0.811349
-1.7e-05 7e-06 42.1605 0 0 1 255 255 255 255 0.001929 0.75319
-54.6336 7e-06 42.1605 0 0 1 255 255 255 255 0.027668 0.75319
-500 123.45 42.1604 0 0 1 255 255 255 255 0.237487 0.811349
-401.525 123.45 42.1604 0 0 1 255 255 255 255 0.191094 0.811349
-412.606 -7e-06 -42.1605 0 -0 -1 255 255 255 255 0.196314 0.75319
-500 -7e-06 -42.1605 0 -0 -1 255 255 255 255 0.237487 0.75319
-400.558 220.593 3.13567 0.865344 0.174926 0.469659 255 255 255 255 0.137274 0.77224
-392.174 142.831 16.6511 0.865344 0.174926 0.469659 255 255 255 255 0.137317 0.772401
-384.569 134.107 5.88767 0.865344 0.174926 0.469659 255 255 255 255 0.137302 0.772422
-393.734 142.831 -16.6512 0.934383 0.162659 -0.316972 255 255 255 255 0.137243 0.772406
-400.558 220.593 3.13567 0.934383 0.162659 -0.316972 255 255 255 255 0.137274 0.77224
-384.569 134.107 5.88767 0.934383 0.162659 -0.316972 255 255 255 255 0.137302 0.772422
-393.734 142.831 -16.6512 0 -0 -1 255 255 255 255 0.187423 0.820479
-203.264 420.383 -31.1954 0.054854 -0.265566 -0.962531 255 255 255 255 0.09769 0.701239
-200.732 410.611 -28.3549 0.054854 -0.265566 -0.962531 255 255 255 255 0.096497 0.695164
-243.783 412.014 -31.1954 0.054854 -0.265566 -0.962531 255 255 255 255 0.116779 0.697296
-157.509 412.014 -31.1954 -0.053309 -0.291424 -0.955107 255 255 255 255 0.076134 0.697296
-200.732 410.611 -28.3549 -0.053309 -0.291424 -0.955107 255 255 255 255 0.096497 0.695164
-203.264 420.383 -31.1954 -0.053309 -0.291424 -0.955107 255 255 255 255 0.09769 0.701239
-268.397 405.616 -16.6512 -0.002926 -0.913528 -0.406766 255 255 255 255 0.128375 0.694282
-243.783 412.014 -31.1954 -0.002926 -0.913528 -0.406766 255 255 255 255 0.116779 0.697296
-200.732 410.611 -28.3549 -0.002926 -0.913528 -0.406766 255 255 255 255 0.096497 0.695164
-157.509 405.616 -16.6512 0.003247 -0.915361 -0.40262 255 255 255 255 0.076134 0.694282
-200.732 410.611 -28.3549 0.003247 -0.915361 -0.40262 255 255 255 255 0.096497 0.695164
-157.509 412.014 -31.1954 0.003247 -0.915361 -0.40262 255 255 255 255 0.076134 0.697296
-157.509 412.014 -31.1954 0 -0 -1 255 255 255 255 0.076134 0.947296
-243.783 412.014 -31.1954 0 -0 -1 255 255 255 255 0.116779 0.947296
-368.801 425.026 -42.1605 0.324337 -0.86229 -0.388923 255 255 255 255 0.175677 0.703426
-342.491 429.976 -31.1954 0.324337 -0.86229 -0.388923 255 255 255 255 0.163282 0.705758
-400.514 408.152 -31.1954 0.324337 -0.86229 -0.388923 255 255 255 255 0.190618 0.695476
-400.514 408.152 -31.1954 0.117237 -0.56995 -0.813272 255 255 255 255 0.190618 0.695476
-413.451 421.137 -42.1605 0.117237 -0.56995 -0.813272 255 255 255 255 0.196712 0.701594
-386.962 426.586 -42.1605 0.117237 -0.56995 -0.813272 255 255 255 255 0.184233 0.704161
-400.514 408.152 -31.1954 -0.0419 -0.487844 -0.871925 255 255 255 255 0.190618 0.695476
-386.962 426.586 -42.1605 -0.0419 -0.487844 -0.871925 255 255 255 255 0.184233 0.704161
-368.801 425.026 -42.1605 -0.0419 -0.487844 -0.871925 255 255 255 255 0.175677 0.703426
-400.514 408.152 -31.1954 0.31049 -0.413461 -0.855947 255 255 255 255 0.190618 0.695476
-447.882 395.281 -42.1605 0.31049 -0.413461 -0.855947 255 255 255 255 0.212933 0.689413
-413.451 421.137 -42.1605 0.31049 -0.413461 -0.855947 255 255 255 255 0.196712 0.701594
-447.882 395.281 -42.1605 -0 -0 -1 255 255 255 255 0.212933 0.939413
-500 375.677 -42.1605 -0 -0 -1 255 255 255 255 0.237487 0.930177
-413.451 421.137 -42.1605 0 -0 -1 255 255 255 255 0.196712 0.951594
-112.211 394.975 -31.1954 -0.325546 -0.865503 -0.38069 255 255 255 255 0.054793 0.689269
-157.509 405.616 -16.6512 -0.325546 -0.865503 -0.38069 255 255 255 255 0.076134 0.694282
-157.509 412.014 -31.1954 -0.325546 -0.865503 -0.38069 255 255 255 255 0.076134 0.697296
-112.211 394.975 -31.1954 -0 -0 -1 255 255 255 255 0.054793 0.939269
-91.0994 404.997 -31.1954 -0 -0 -1 255 255 255 255 0.044847 0.94399
-42.9622 368.929 -31.1954 0 -0 -1 255 255 255 255 0.022169 0.926998
-1.7e-05 370.732 -31.1954 0 -0 -1 255 255 255 255 0.001929 0.927847
-1.7e-05 352.769 -31.1954 0 -0 -1 255 255 255 255 0.001929 0.919385
-1.7e-05 346.372 -16.6512 -0.325546 -0.865503 -0.380688 255 255 255 255 0.001929 0.666371
-42.9622 368.929 -31.1954 -0.325546 -0.865503 -0.380688 255 255 255 255 0.022169 0.676998
-1.7e-05 352.769 -31.1954 -0.325546 -0.865503 -0.380688 255 255 255 255 0.001929 0.669385
-42.9622 368.929 -31.1954 -0.355793 -0.310953 -0.881317 255 255 255 255 0.022169 0.676998
-88.3027 379.585 -16.6512 -0.355793 -0.310953 -0.881317 255 255 255 255 0.04353 0.682018
-59.3139 387.638 -31.1954 -0.355793 -0.310953 -0.881317 255 255 255 255 0.029873 0.685812
-91.0994 404.997 -31.1954 0.221204 -0.465975 -0.8567 255 255 255 255 0.044847 0.69399
-88.3027 379.585 -16.6512 0.221204 -0.465975 -0.8567 255 255 255 255 0.04353 0.682018
-112.211 394.975 -31.1954 0.221204 -0.465975 -0.8567 255 255 255 255 0.054793 0.689269
-122.482 421.747 -42.1605 -0.324337 -0.86229 -0.388924 255 255 255 255 0.059632 0.701881
-157.509 429.976 -31.1954 -0.324337 -0.86229 -0.388924 255 255 255 255 0.076134 0.705758
-157.509 434.922 -42.1605 -0.324337 -0.86229 -0.388924 255 255 255 255 0.076134 0.708088
-1.7e-05 370.732 -31.1954 -0.324337 -0.86229 -0.388924 255 255 255 255 0.001929 0.677847
-66.0036 400.504 -42.1605 -0.324337 -0.86229 -0.388924 255 255 255 255 0.033024 0.691873
-1.7e-05 375.677 -42.1605 -0.324337 -0.86229 -0.388924 255 255 255 255 0.001929 0.680177
-95.3675 420.448 -42.1605 -0.027966 -0.583658 -0.811518 255 255 255 255 0.046858 0.701269
-91.0994 404.997 -31.1954 -0.027966 -0.583658 -0.811518 255 255 255 255 0.044847 0.69399
-122.482 421.747 -42.1605 -0.027966 -0.583658 -0.811518 255 255 255 255 0.059632 0.701881
-95.3675 420.448 -42.1605 0 -0 -1 255 255 255 255 0.046858 0.951269
-276.764 429.976 31.1952 0.169343 -0.670787 0.722058 255 255 255 255 0.132317 0.705758
-261.296 445.685 42.1604 0.169343 -0.670787 0.722058 255 255 255 255 0.12503 0.713159
-303.928 434.922 42.1604 0.169343 -0.670787 0.722058 255 255 255 255 0.145114 0.708088
-342.491 429.976 31.1952 0 -0.911569 0.411148 255 255 255 255 0.163282 0.705758
-303.928 434.922 42.1604 0 -0.911569 0.411148 255 255 255 255 0.145114 0.708088
-342.491 434.922 42.1604 0 -0.911569 0.411148 255 255 255 255 0.163282 0.708088
-230.521 434.922 42.1604 -0.258895 -0.740297 0.620431 255 255 255 255 0.110531 0.708088
-261.296 445.685 42.1604 -0.258895 -0.740297 0.620431 255 255 255 255 0.12503 0.713159
-242.656 429.976 31.1952 -0.258895 -0.740297 0.620431 255 255 255 255 0.116248 0.705758
-242.656 429.976 31.1952 0 -0.572388 0.819983 255 255 255 255 0.116248 0.705758
-261.296 445.685 42.1604 0 -0.572388 0.819983 255 255 255 255 0.12503 0.713159
-276.764 429.976 31.1952 0 -0.572388 0.819983 255 255 255 255 0.132317 0.705758
-303.928 434.922 42.1604 0 -0 1 255 255 255 255 0.145114 0.958088
-189.794 418.824 31.1952 0 0 1 255 255 255 255 0.091344 0.950504
-242.656 429.976 31.1952 0 0 1 255 255 255 255 0.116248 0.955758
-217.542 412.014 31.1952 0 0 1 255 255 255 255 0.104417 0.947296
-459.313 368.073 31.1953 0.141383 -0.265497 0.953689 255 255 255 255 0.218319 0.676595
-400.001 388.82 28.1781 0.141383 -0.265497 0.953689 255 255 255 255 0.190376 0.685291
-407.47 395.68 31.1952 0.141383 -0.265497 0.953689 255 255 255 255 0.193894 0.689601
-407.47 395.68 31.1952 0.029407 -0.375405 0.926394 255 255 255 255 0.193894 0.689601
-400.001 388.82 28.1781 0.029407 -0.375405 0.926394 255 255 255 255 0.190376 0.685291
-380.245 397.813 31.1952 0.029407 -0.375405 0.926394 255 255 255 255 0.181068 0.690606
-342.491 405.616 16.6511 0.329673 -0.85706 0.395935 255 255 255 255 0.163282 0.694282
-380.245 397.813 31.1952 0.329673 -0.85706 0.395935 255 255 255 255 0.181068 0.690606
-400.001 388.82 28.1781 0.329673 -0.85706 0.395935 255 255 255 255 0.190376 0.685291
-342.491 405.616 16.6511 0.327704 -0.871241 0.365445 255 255 255 255 0.163282 0.694282
-400.001 388.82 28.1781 0.327704 -0.871241 0.365445 255 255 255 255 0.190376 0.685291
-500 346.372 16.6511 0.327704 -0.871241 0.365445 255 255 255 255 0.237487 0.666371
-500 370.732 31.1953 -0 0 1 255 255 255 255 0.237487 0.927847
-459.313 368.073 31.1953 -0 0 1 255 255 255 255 0.218319 0.926595
-407.47 395.68 31.1952 -0 0 1 255 255 255 255 0.193894 0.939601
-217.542 412.014 31.1952 0 -0.915366 0.402622 255 255 255 255 0.104417 0.697296
-263.547 405.616 16.6511 0 -0.915366 0.402622 255 255 255 255 0.12609 0.694282
-186.786 405.616 16.6511 0.174446 -0.71072 0.681502 255 255 255 255 0.089927 0.694282
-189.794 418.824 31.1952 0.174446 -0.71072 0.681502 255 255 255 255 0.091344 0.700504
-217.542 412.014 31.1952 0.174446 -0.71072 0.681502 255 255 255 255 0.104417 0.697296
-186.786 405.616 16.6511 -0.363012 -0.725925 0.584171 255 255 255 255 0.089927 0.694282
-176.174 412.014 31.1952 -0.363012 -0.725925 0.584171 255 255 255 255 0.084927 0.697296
-189.794 418.824 31.1952 -0.363012 -0.725925 0.584171 255 255 255 255 0.091344 0.700504
-157.509 429.976 31.1952 0 0 1 255 255 255 255 0.076134 0.955758
-176.174 412.014 31.1952 0 0 1 255 255 255 255 0.084927 0.947296
-59.3139 387.638 -31.1954 -0 -0 -1 255 255 255 255 0.029873 0.935812
-63.5504 -4e-06 -23.6212 0 -1 0 255 255 255 255 0.031868 0.75319
-86.6194 142.831 16.6511 -0 0.796253 0.604964 255 255 255 255 0.042737 0.820479
-1.7e-05 123.449 -42.1605 0 0.796252 -0.604965 255 255 255 255 0.001929 0.811349
-157.509 405.616 16.6511 -0.325546 -0.865504 0.380688 255 255 255 255 0.076134 0.694282
-1.7e-05 346.372 16.6511 -0.325546 -0.865504 0.380688 255 255 255 255 0.001929 0.666371
-1.7e-05 352.769 31.1953 -0.325546 -0.865504 0.380688 255 255 255 255 0.001929 0.669385
-157.509 429.976 31.1952 -0.324337 -0.86229 0.388924 255 255 255 255 0.076134 0.705758
-1.7e-05 370.732 31.1953 -0.324337 -0.86229 0.388924 255 255 255 255 0.001929 0.677847
-1.7e-05 375.677 42.1604 -0.324337 -0.86229 0.388924 255 255 255 255 0.001929 0.680177
-61.6107 44.9315 -42.1605 -0.981793 -0.189923 -0.003478 255 255 255 255 0.137841 0.772697
-63.6751 54.0591 42.1604 -0.981793 -0.189923 -0.003478 255 255 255 255 0.137944 0.772644
-77.0983 123.45 42.1604 -0.981793 -0.189923 -0.003478 255 255 255 255 0.137914 0.772474
-407.426 29.6457 -42.1605 0.974221 -0.185676 -0.128133 255 255 255 255 0.137192 0.772653
-400.874 35.0319 -0.149908 0.974221 -0.185676 -0.128133 255 255 255 255 0.137267 0.772631
-407.531 0 0 0.974221 -0.185676 -0.128133 255 255 255 255 0.137256 0.772704
-104.469 198.906 1.28177 -0.895451 -0.006815 0.445108 255 255 255 255 0.137804 0.772294
-96.8376 200.054 16.6511 -0.895451 -0.006815 0.445108 255 255 255 255 0.137849 0.77229
-97.7025 313.705 16.6511 -0.895451 -0.006815 0.445108 255 255 255 255 0.137845 0.77202
-242.656 429.976 31.1952 0 -0.911568 0.41115 255 255 255 255 0.116248 0.705758
-500 142.831 16.6511 -1 0 -1e-06 255 255 255 255 0.237487 0.820479
-500 346.372 16.6511 -1 0 -1e-06 255 255 255 255 0.237487 0.916371
-500 346.372 -16.6512 -1 0 1e-06 255 255 255 255 0.237487 0.916371
-500 142.831 -16.6512 -1 0 1e-06 255 255 255 255 0.237487 0.820479
-157.509 429.976 -31.1954 0 -0.911569 -0.411148 255 255 255 255 0.076134 0.705758
-342.491 429.976 -31.1954 0 -0.911569 -0.411148 255 255 255 255 0.163282 0.705758
-342.491 434.922 -42.1605 0 -0.911569 -0.411148 255 255 255 255 0.163282 0.708088
-417.391 38.9499 42.1604 0.912454 -0.171268 0.371612 255 255 255 255 0.137303 0.77261
-424.702 7e-06 42.1605 0.912454 -0.171268 0.371612 255 255 255 255 0.137291 0.772688
-407.531 0 0 0.912454 -0.171268 0.371612 255 255 255 255 0.137256 0.772704
-96.4725 206.473 -16.6512 -0.414687 -0.070104 -0.90726 255 255 255 255 0.137786 0.772277
-85.7135 142.831 -16.6512 -0.414687 -0.070104 -0.90726 255 255 255 255 0.13781 0.772436
-88.8512 142.798 -15.2145 -0.414687 -0.070104 -0.90726 255 255 255 255 0.137817 0.772435
-97.7025 313.705 16.6511 -0.64701 -0.696244 0.31084 255 255 255 255 0.137845 0.77202
-181.565 391.638 16.6511 -0.64701 -0.696244 0.31084 255 255 255 255 0.137679 0.771853
-182.356 387.641 6.05328 -0.64701 -0.696244 0.31084 255 255 255 255 0.137653 0.771857
-500 346.372 16.6511 0.321816 -0.863554 0.388213 255 255 255 255 0.237487 0.666371
-400.001 388.82 28.1781 0.321816 -0.863554 0.388213 255 255 255 255 0.190376 0.685291
-459.313 368.073 31.1953 0.321816 -0.863554 0.388213 255 255 255 255 0.218319 0.676595
-342.491 429.976 31.1952 0.324337 -0.86229 0.388922 255 255 255 255 0.163282 0.705758
-342.491 434.922 42.1604 0.324337 -0.86229 0.388922 255 255 255 255 0.163282 0.708088
-500 375.677 42.1604 0.324337 -0.86229 0.388922 255 255 255 255 0.237487 0.680177
-55.2674 -7e-06 -42.1605 0 -0 -1 255 255 255 255 0.027966 0.75319
-417.391 38.9499 42.1604 0.912007 -0.17276 0.372017 255 255 255 255 0.137303 0.77261
-400.874 35.0319 -0.149908 0.912007 -0.17276 0.372017 255 255 255 255 0.137267 0.772631
-384.569 134.107 5.88767 0.912007 -0.17276 0.372017 255 255 255 255 0.137302 0.772422
-500 352.769 -31.1954 0.325546 -0.865503 -0.38069 255 255 255 255 0.237487 0.669385
-342.491 412.014 -31.1954 0.325546 -0.865503 -0.38069 255 255 255 255 0.163282 0.697296
-342.491 405.616 -16.6512 0.325546 -0.865503 -0.38069 255 255 255 255 0.163282 0.694282
-85.7135 142.831 -16.6512 0 -0 -1 255 255 255 255 0.04231 0.820479
-401.152 123.449 -42.1605 0.977515 -0.087984 -0.191634 255 255 255 255 0.137203 0.77245
-400.194 128.178 -39.4445 0.977515 -0.087984 -0.191634 255 255 255 255 0.137212 0.772439
-400.874 35.0319 -0.149908 0.977515 -0.087984 -0.191634 255 255 255 255 0.137267 0.772631
-400.194 128.178 -39.4445 0.934893 0.11183 -0.336852 255 255 255 255 0.137212 0.772439
-393.734 142.831 -16.6512 0.934893 0.11183 -0.336852 255 255 255 255 0.137243 0.772406
-384.569 134.107 5.88767 0.934893 0.11183 -0.336852 255 255 255 255 0.137302 0.772422
-368.801 425.026 -42.1605 -0 -0 -1 255 255 255 255 0.175677 0.953426
-157.509 412.014 31.1952 0 -0.915366 0.402622 255 255 255 255 0.076134 0.697296
-304.301 407.59 -5.62964 -0.052535 -0.99859 0.007651 255 255 255 255 0.137419 0.771833
-268.397 405.616 -16.6512 -0.052535 -0.99859 0.007651 255 255 255 255 0.137454 0.771825
-263.547 405.616 16.6511 -0.052535 -0.99859 0.007651 255 255 255 255 0.137531 0.771837
-500 7e-06 42.1605 0 -1 0 255 255 255 255 0.237487 0.75319
-390.032 321.23 -0.066641 0.609516 -0.707132 0.358406 255 255 255 255 0.137287 0.772029
-346.973 357.516 -1.70422 0.609516 -0.707132 0.358406 255 255 255 255 0.137354 0.771948
-352.396 362.145 16.6511 0.609516 -0.707132 0.358406 255 255 255 255 0.137382 0.771944
-342.491 405.616 16.6511 0 -0.915366 0.402622 255 255 255 255 0.163282 0.694282
-400.558 220.593 3.13567 0.927586 -0.085234 -0.363756 255 255 255 255 0.137274 0.77224
-409.078 212.319 -16.6512 0.927586 -0.085234 -0.363756 255 255 255 255 0.137223 0.772211
-398.677 325.512 -16.6512 0.927586 -0.085234 -0.363756 255 255 255 255 0.137238 0.772018
-353.822 361.465 -16.6512 0.56767 -0.693659 -0.443382 255 255 255 255 0.137309 0.771936
-346.973 357.516 -1.70422 0.56767 -0.693659 -0.443382 255 255 255 255 0.137354 0.771948
-390.032 321.23 -0.066641 0.56767 -0.693659 -0.443382 255 255 255 255 0.137287 0.772029
-500 500 42.1604 0 1 0 255 255 255 255 0.237487 0.988747
-342.491 405.616 -16.6512 0 -0.915366 -0.402622 255 255 255 255 0.163282 0.694282
-500 500 -42.1605 -0 1 0 255 255 255 255 0.237487 0.988747
-500 123.45 42.1604 0 0.796253 0.604964 255 255 255 255 0.237487 0.811349
-500 -7e-06 -42.1605 0 -1 0 255 255 255 255 0.237487 0.75319
-500 123.449 -42.1605 -0.021254 0.796072 -0.604828 255 255 255 255 0.237487 0.811349
-500 142.831 -16.6512 -0.021254 0.796072 -0.604828 255 255 255 255 0.237487 0.820479
-400.194 128.178 -39.4445 -0.021254 0.796072 -0.604828 255 255 255 255 0.190466 0.813576
-313.278 405.616 -16.6512 -0 -0 -1 255 255 255 255 0.149519 0.944282
-104.469 198.906 1.28177 -0.955914 -0.285843 0.067243 255 255 255 255 0.137804 0.772294
-88.8512 142.798 -15.2145 -0.955914 -0.285843 0.067243 255 255 255 255 0.137817 0.772435
-86.6194 142.831 16.6511 -0.955914 -0.285843 0.067243 255 255 255 255 0.137871 0.772429
-88.8512 142.798 -15.2145 -0.303641 0.699115 -0.647334 255 255 255 255 0.137817 0.772435
-85.7135 142.831 -16.6512 -0.303641 0.699115 -0.647334 255 255 255 255 0.13781 0.772436
-75.9538 123.449 -42.1605 -0.303641 0.699115 -0.647334 255 255 255 255 0.137808 0.77249
-346.973 357.516 -1.70422 0.744909 -0.614409 0.260024 255 255 255 255 0.137354 0.771948
-304.301 407.59 -5.62964 0.744909 -0.614409 0.260024 255 255 255 255 0.137419 0.771833
-313.706 405.616 16.6511 0.744909 -0.614409 0.260024 255 255 255 255 0.137445 0.771847
-346.973 357.516 -1.70422 0.654503 -0.60102 -0.458694 255 255 255 255 0.137354 0.771948
-353.822 361.465 -16.6512 0.654503 -0.60102 -0.458694 255 255 255 255 0.137309 0.771936
-313.278 405.616 -16.6512 0.654503 -0.60102 -0.458694 255 255 255 255 0.137377 0.771834
-263.547 405.616 16.6511 -0.212213 -0.976735 0.030904 255 255 255 255 0.137531 0.771837
-268.397 405.616 -16.6512 -0.212213 -0.976735 0.030904 255 255 255 255 0.137454 0.771825
-182.356 387.641 6.05328 -0.212213 -0.976735 0.030904 255 255 255 255 0.137653 0.771857
-400.558 220.593 3.13567 0.985881 0.080802 -0.146663 255 255 255 255 0.137274 0.77224
-398.692 222.353 16.6511 0.985881 0.080802 -0.146663 255 255 255 255 0.137308 0.772236
-392.174 142.831 16.6511 0.985881 0.080802 -0.146663 255 255 255 255 0.137317 0.772401
-393.734 142.831 -16.6512 0.869665 0.192038 -0.454757 255 255 255 255 0.137243 0.772406
-409.078 212.319 -16.6512 0.869665 0.192038 -0.454757 255 255 255 255 0.137223 0.772211
-400.558 220.593 3.13567 0.869665 0.192038 -0.454757 255 255 255 255 0.137274 0.77224
-268.397 405.616 -16.6512 -0 -0.915366 -0.402622 255 255 255 255 0.128375 0.694282
-243.783 412.014 -31.1954 -0 -0.915366 -0.402622 255 255 255 255 0.116779 0.697296
-368.801 425.026 -42.1605 0.324337 -0.862291 -0.388922 255 255 255 255 0.175677 0.703426
-342.491 434.922 -42.1605 0.324337 -0.862291 -0.388922 255 255 255 255 0.163282 0.708088
-342.491 429.976 -31.1954 0.324337 -0.862291 -0.388922 255 255 255 255 0.163282 0.705758
-88.3027 379.585 -16.6512 -0.325546 -0.865503 -0.38069 255 255 255 255 0.04353 0.682018
-1.7e-05 346.372 -16.6512 -0.325546 -0.865503 -0.380689 255 255 255 255 0.001929 0.666371
-88.3027 379.585 -16.6512 -0.325546 -0.865503 -0.380689 255 255 255 255 0.04353 0.682018
-42.9622 368.929 -31.1954 -0.325546 -0.865503 -0.380689 255 255 255 255 0.022169 0.676998
-122.482 421.747 -42.1605 -0.324337 -0.862289 -0.388924 255 255 255 255 0.059632 0.701881
-91.0994 404.997 -31.1954 -0.324337 -0.862289 -0.388924 255 255 255 255 0.044847 0.69399
-157.509 429.976 -31.1954 -0.324337 -0.862289 -0.388924 255 255 255 255 0.076134 0.705758
-1.7e-05 370.732 -31.1954 -0.324337 -0.862289 -0.388925 255 255 255 255 0.001929 0.677847
-91.0994 404.997 -31.1954 -0.324337 -0.862289 -0.388925 255 255 255 255 0.044847 0.69399
-66.0036 400.504 -42.1605 -0.324337 -0.862289 -0.388925 255 255 255 255 0.033024 0.691873
-122.482 421.747 -42.1605 -0 -0 -1 255 255 255 255 0.059632 0.951881
-276.764 429.976 31.1952 0 -0.911569 0.411148 255 255 255 255 0.132317 0.705758
-230.521 434.922 42.1604 0 0 1 255 255 255 255 0.110531 0.958088
-342.491 405.616 16.6511 0.325546 -0.865503 0.38069 255 255 255 255 0.163282 0.694282
-342.491 412.014 31.1952 0.325546 -0.865503 0.38069 255 255 255 255 0.163282 0.697296
-380.245 397.813 31.1952 0.325546 -0.865503 0.38069 255 255 255 255 0.181068 0.690606
-500 352.769 31.1953 -0 0 1 255 255 255 255 0.237487 0.919385
3 0 1 2 
3 3 4 5 
3 0 6 1 
3 0 7 8 
3 9 10 11 
3 12 13 14 
3 0 8 15 
3 4 16 17 
3 18 19 20 
3 21 22 23 
3 24 25 26 
3 27 28 29 
3 27 30 28 
3 27 31 30 
3 32 33 34 
3 35 36 37 
3 0 29 6 
3 27 38 39 
3 27 40 31 
3 41 42 43 
3 27 39 44 
3 27 44 45 
3 46 47 48 
3 49 50 51 
3 52 53 54 
3 0 38 27 
3 55 56 57 
3 27 45 58 
3 59 60 61 
3 62 63 64 
3 65 66 67 
3 68 61 69 
3 70 71 72 
3 73 74 75 
3 76 77 78 
3 79 80 81 
3 82 83 84 
3 85 86 87 
3 88 89 90 
3 91 92 93 
3 94 95 96 
3 97 98 99 
3 100 101 102 
3 103 104 105 
3 106 107 108 
3 109 110 111 
3 112 113 114 
3 115 116 117 
3 118 119 120 
3 121 122 123 
3 124 125 126 
3 127 128 129 
3 130 131 132 
3 133 134 135 
3 136 137 138 
3 139 140 141 
3 142 143 144 
3 145 146 147 
3 148 149 150 
3 151 141 152 
3 153 154 155 
3 156 157 158 
3 159 160 141 
3 161 162 163 
3 164 165 166 
3 167 141 168 
3 169 170 171 
3 172 173 174 
3 175 176 177 
3 178 179 180 
3 181 182 183 
3 184 185 186 
3 187 188 189 
3 190 191 192 
3 47 130 193 
3 194 195 196 
3 197 198 199 
3 200 201 202 
3 203 204 205 
3 206 207 208 
3 209 210 211 
3 212 158 63 
3 213 214 215 
3 216 209 211 
3 217 218 219 
3 220 221 222 
3 223 224 225 
3 226 227 228 
3 229 230 231 
3 136 138 232 
3 233 234 235 
3 188 236 189 
3 237 238 239 
3 240 241 242 
3 243 244 138 
3 245 246 247 
3 248 249 250 
3 251 252 253 
3 254 173 255 
3 256 257 183 
3 258 256 183 
3 259 217 219 
3 260 261 262 
3 263 264 265 
3 266 267 268 
3 269 270 271 
3 272 273 274 
3 255 173 172 
3 275 276 277 
3 278 279 280 
3 281 282 283 
3 284 285 286 
3 262 287 288 
3 259 289 217 
3 220 222 240 
3 100 221 220 
3 138 290 232 
3 291 244 243 
3 117 116 292 
3 293 21 294 
3 295 233 296 
3 297 298 237 
3 299 300 301 
3 302 303 304 
3 305 182 181 
3 306 307 308 
3 309 310 311 
3 312 313 314 
3 315 316 317 
3 318 261 260 
3 262 319 287 
3 320 321 322 
3 323 324 325 
3 326 327 328 
3 329 330 331 
3 288 226 262 
3 158 332 333 
3 158 157 334 
3 335 336 337 
3 338 260 339 
3 340 341 342 
3 343 344 345 
3 346 347 348 
3 349 350 351 
3 352 353 354 
3 355 356 357 
3 358 359 360 
3 361 212 63 
3 362 363 364 
3 365 366 367 
3 368 369 370 
3 371 372 373 
3 193 132 374 
3 193 48 47 
3 375 376 377 
3 377 289 259 
3 254 255 251 
3 378 379 380 
3 381 382 383 
3 384 385 386 
3 387 388 389 
3 390 391 392 
3 390 392 217 
3 393 394 171 
3 395 396 397 
3 398 399 400 
3 401 402 113 
3 341 403 339 
3 258 183 182 
3 3 404 4 
3 4 404 16 
3 18 405 19 
3 24 406 25 
3 407 408 409 
3 410 411 412 
3 0 27 29 
3 413 414 415 
3 416 417 418 
3 0 15 38 
3 62 361 63 
3 419 420 421 
3 76 422 77 
3 74 423 424 
3 425 426 67 
3 427 428 429 
3 430 431 432 
3 433 434 435 
3 100 220 101 
3 436 437 438 
3 439 440 441 
3 442 443 444 
3 112 401 113 
3 115 445 116 
3 446 447 448 
3 449 450 451 
3 133 322 134 
3 136 452 137 
3 453 454 455 
3 456 457 458 
3 156 459 157 
3 169 460 170 
3 461 462 463 
3 187 464 188 
3 465 466 467 
3 197 468 198 
3 469 470 471 
3 472 473 474 
3 209 475 210 
3 212 156 158 
3 213 476 214 
3 216 477 209 
3 217 392 218 
3 223 478 224 
3 226 288 227 
3 188 479 236 
3 237 298 238 
3 240 222 241 
3 480 481 482 
3 251 255 252 
3 256 483 257 
3 484 485 486 
3 487 488 489 
3 490 491 492 
3 493 494 495 
3 496 497 498 
3 138 244 290 
3 293 22 21 
3 295 234 233 
3 499 500 501 
3 502 503 504 
3 505 215 506 
3 262 261 319 
3 507 508 509 
3 158 334 332 
3 335 510 336 
3 338 318 260 
3 340 403 341 
3 511 512 513 
3 514 515 516 
3 517 518 519 
3 361 520 212 
3 365 521 366 
3 193 130 132 
3 193 522 48 
3 375 401 376 
3 377 376 289 
3 523 524 525 
3 390 526 391 
3 393 199 394 
3 401 375 402 
