ply
format ascii 1.0
comment VCGLIB generated
comment TextureFile Dungeons_2_Texture_01_A.png
element vertex 195
property float x
property float y
property float z
property float nx
property float ny
property float nz
property uchar red
property uchar green
property uchar blue
property uchar alpha
property float texture_u
property float texture_v
element face 94
property list uchar int vertex_indices
end_header
-500 123.449 -42.1605 -1 -0 -1e-06 255 255 255 255 0.237487 0.811349
-500 2e-06 14.2392 -1 -0 -1e-06 255 255 255 255 0.237487 0.75319
-500 142.831 -16.6512 -1 -0 -1e-06 255 255 255 255 0.237487 0.820479
-1.7e-05 2e-06 14.2392 1 0 0 255 255 255 255 0.001929 0.75319
-1.7e-05 123.449 -42.1605 1 0 0 255 255 255 255 0.001929 0.811349
-1.7e-05 142.831 -16.6512 1 0 0 255 255 255 255 0.001929 0.820479
-500 -7e-06 -42.1605 -1 0 -0 255 255 255 255 0.237487 0.75319
-500 2e-06 14.2392 -1 0 -0 255 255 255 255 0.237487 0.75319
-500 123.449 -42.1605 -1 0 -0 255 255 255 255 0.237487 0.811349
-1.7e-05 -7e-06 -42.1605 1 0 -0 255 255 255 255 0.001929 0.75319
-1.7e-05 346.372 -16.6512 1 0 0 255 255 255 255 0.001929 0.916371
-1.7e-05 500 14.2391 1 0 0 255 255 255 255 0.001929 0.988747
-500 2e-06 14.2392 -1 0 1e-06 255 255 255 255 0.237487 0.75319
-500 346.372 -16.6512 -1 0 1e-06 255 255 255 255 0.237487 0.916371
-500 142.831 -16.6512 -1 0 1e-06 255 255 255 255 0.237487 0.820479
-1.7e-05 352.769 -31.1954 1 0 -0 255 255 255 255 0.001929 0.919385
-500 346.372 -16.6512 -1 -0 -0 255 255 255 255 0.237487 0.916371
-500 500 14.2391 -1 -0 -0 255 255 255 255 0.237487 0.988747
-500 352.769 -31.1954 -1 -0 -0 255 255 255 255 0.237487 0.919385
-1.7e-05 370.732 -31.1954 1 0 -0 255 255 255 255 0.001929 0.927847
-500 352.769 -31.1954 -1 -0 -1e-06 255 255 255 255 0.237487 0.919385
-500 500 14.2391 -1 -0 -1e-06 255 255 255 255 0.237487 0.988747
-500 370.732 -31.1954 -1 -0 -1e-06 255 255 255 255 0.237487 0.927847
-1.7e-05 375.677 -42.1605 1 0 -0 255 255 255 255 0.001929 0.930177
-500 370.732 -31.1954 -1 1e-06 -2e-06 255 255 255 255 0.237487 0.927847
-500 500 14.2391 -1 1e-06 -2e-06 255 255 255 255 0.237487 0.988747
-500 375.677 -42.1605 -1 1e-06 -2e-06 255 255 255 255 0.237487 0.930177
-1.7e-05 500 -42.1605 1 0 -0 255 255 255 255 0.001929 0.988747
-500 375.677 -42.1605 -1 -0 0 255 255 255 255 0.237487 0.930177
-500 500 -42.1605 -1 -0 0 255 255 255 255 0.237487 0.988747
-1.7e-05 -7e-06 -42.1605 -0 -0 -1 255 255 255 255 0.001929 0.75319
-18.7343 123.449 -42.1605 -0 -0 -1 255 255 255 255 0.010755 0.811349
-1.7e-05 123.449 -42.1605 -0 -0 -1 255 255 255 255 0.001929 0.811349
-1.7e-05 2e-06 14.2392 0 -1 0 255 255 255 255 0.001929 0.75319
-500 -7e-06 -42.1605 0 -1 0 255 255 255 255 0.237487 0.75319
-1.7e-05 -7e-06 -42.1605 0 -1 0 255 255 255 255 0.001929 0.75319
-1.7e-05 500 14.2391 0 0 1 255 255 255 255 0.001929 0.988747
-500 2e-06 14.2392 0 0 1 255 255 255 255 0.237487 0.75319
-1.7e-05 2e-06 14.2392 0 0 1 255 255 255 255 0.001929 0.75319
-1.7e-05 500 -42.1605 0 1 0 255 255 255 255 0.001929 0.988747
-500 500 14.2391 0 1 0 255 255 255 255 0.237487 0.988747
-1.7e-05 500 14.2391 0 1 0 255 255 255 255 0.001929 0.988747
-157.509 434.922 -42.1605 -0 -0 -1 255 255 255 255 0.076134 0.958088
-188.476 443.215 -42.1605 -0 -0 -1 255 255 255 255 0.090723 0.961995
-1.7e-05 500 -42.1605 -0 -0 -1 255 255 255 255 0.001929 0.988747
-300.413 435.987 -42.1605 -0.017156 -0.84755 -0.530438 255 255 255 255 0.143458 0.70859
-342.491 429.976 -31.1954 -0.017156 -0.84755 -0.530438 255 255 255 255 0.163282 0.705758
-344.052 436.871 -42.1605 -0.017156 -0.84755 -0.530438 255 255 255 255 0.164017 0.709006
-216.375 145.876 -16.6512 -0 -0 -1 255 255 255 255 0.103866 0.821914
-157.101 403.176 -16.6512 -0 -0 -1 255 255 255 255 0.075942 0.943132
-1.7e-05 142.831 -16.6512 -0 -0 -1 255 255 255 255 0.001929 0.820479
-216.375 145.876 -16.6512 -0.018348 0.725638 -0.687832 255 255 255 255 0.103866 0.821914
-424.613 116.431 -42.1605 -0.018348 0.725638 -0.687832 255 255 255 255 0.201971 0.808042
-448.856 139.998 -16.6512 -0.018348 0.725638 -0.687832 255 255 255 255 0.213392 0.819145
-342.491 405.616 -16.6512 -0.01125 -0.854692 -0.519014 255 255 255 255 0.163282 0.694282
-157.509 412.014 -31.1954 -0.01125 -0.854692 -0.519014 255 255 255 255 0.076134 0.697296
-157.101 403.176 -16.6512 -0.01125 -0.854692 -0.519014 255 255 255 255 0.075942 0.693132
-157.509 412.014 -31.1954 0 -0 -1 255 255 255 255 0.076134 0.947296
-211.633 429.976 -31.1954 0 -0 -1 255 255 255 255 0.101633 0.955758
-157.509 429.976 -31.1954 0 -0 -1 255 255 255 255 0.076134 0.955758
-342.491 412.014 -31.1954 -0 -0 -1 255 255 255 255 0.163282 0.947296
-342.491 429.976 -31.1954 -0 -0 -1 255 255 255 255 0.163282 0.955758
-500 346.372 -16.6512 0 -0 -1 255 255 255 255 0.237487 0.916371
-342.491 405.616 -16.6512 0 -0 -1 255 255 255 255 0.163282 0.944282
-500 142.831 -16.6512 0 -0 -1 255 255 255 255 0.237487 0.820479
-73.1941 372.172 -16.6512 -0 -0 -1 255 255 255 255 0.036412 0.928526
-1.7e-05 346.372 -16.6512 -0 -0 -1 255 255 255 255 0.001929 0.916371
-500 346.372 -16.6512 0.346086 -0.920111 -0.18336 255 255 255 255 0.237487 0.666371
-452.353 366.841 -29.4342 0.346086 -0.920111 -0.18336 255 255 255 255 0.215039 0.676014
-342.491 405.616 -16.6512 0.346086 -0.920111 -0.18336 255 255 255 255 0.163282 0.694282
-1.7e-05 346.372 -16.6512 -0.364878 -0.852257 -0.374862 255 255 255 255 0.001929 0.666371
-64.1109 380.217 -31.1954 -0.364878 -0.852257 -0.374862 255 255 255 255 0.032133 0.682316
-1.7e-05 352.769 -31.1954 -0.364878 -0.852257 -0.374862 255 255 255 255 0.001929 0.669385
-1.7e-05 352.769 -31.1954 -0 -0 -1 255 255 255 255 0.001929 0.919385
-64.1109 380.217 -31.1954 -0 -0 -1 255 255 255 255 0.032133 0.932316
-1.7e-05 370.732 -31.1954 -0 -0 -1 255 255 255 255 0.001929 0.927847
-393.655 410.732 -31.1954 0 -0 -1 255 255 255 255 0.187386 0.946692
-157.509 429.976 -31.1954 -0.324337 -0.86229 -0.388924 255 255 255 255 0.076134 0.705758
-1.7e-05 375.677 -42.1605 -0.324337 -0.86229 -0.388924 255 255 255 255 0.001929 0.680177
-1.7e-05 370.732 -31.1954 -0.324337 -0.86229 -0.388924 255 255 255 255 0.001929 0.677847
-393.655 410.732 -31.1954 0.296711 -0.788844 -0.538227 255 255 255 255 0.187386 0.696692
-344.052 436.871 -42.1605 0.296711 -0.788844 -0.538227 255 255 255 255 0.164017 0.709006
-342.491 429.976 -31.1954 0.296711 -0.788844 -0.538227 255 255 255 255 0.163282 0.705758
-1.7e-05 375.677 -42.1605 0 -0 -1 255 255 255 255 0.001929 0.930177
-500 500 -42.1605 -0 -0 -1 255 255 255 255 0.237487 0.988747
-344.052 436.871 -42.1605 -0 -0 -1 255 255 255 255 0.164017 0.959006
-412.361 414.232 -42.1605 -0 -0 -1 255 255 255 255 0.196199 0.948341
-216.375 145.876 -16.6512 0 0.751025 -0.660273 255 255 255 255 0.103866 0.821914
-173.097 123.449 -42.1605 0 0.751025 -0.660273 255 255 255 255 0.083478 0.811349
-237.304 123.449 -42.1605 0 0.751025 -0.660273 255 255 255 255 0.113726 0.811349
-448.856 139.998 -16.6512 0.04406 0.795479 -0.604377 255 255 255 255 0.213392 0.819145
-500 123.449 -42.1605 0.04406 0.795479 -0.604377 255 255 255 255 0.237487 0.811349
-500 142.831 -16.6512 0.04406 0.795479 -0.604377 255 255 255 255 0.237487 0.820479
-63.1984 127.312 -37.7601 0.029718 0.255369 -0.966387 255 255 255 255 0.031703 0.814402
-79.4283 112.549 -42.1605 0.029718 0.255369 -0.966387 255 255 255 255 0.039349 0.806213
-173.097 123.449 -42.1605 0.029718 0.255369 -0.966387 255 255 255 255 0.083478 0.811349
-18.7343 123.449 -42.1605 -0.062406 0.347471 -0.935612 255 255 255 255 0.010755 0.811349
-79.4283 112.549 -42.1605 -0.062406 0.347471 -0.935612 255 255 255 255 0.039349 0.806213
-63.1984 127.312 -37.7601 -0.062406 0.347471 -0.935612 255 255 255 255 0.031703 0.814402
-1.7e-05 142.831 -16.6512 0.008639 0.793156 -0.608957 255 255 255 255 0.001929 0.820479
-18.7343 123.449 -42.1605 0.008639 0.793156 -0.608957 255 255 255 255 0.010755 0.811349
-63.1984 127.312 -37.7601 0.008639 0.793156 -0.608957 255 255 255 255 0.031703 0.814402
-1.7e-05 142.831 -16.6512 0.011113 0.789488 -0.613666 255 255 255 255 0.001929 0.820479
-63.1984 127.312 -37.7601 0.011113 0.789488 -0.613666 255 255 255 255 0.031703 0.814402
-216.375 145.876 -16.6512 0.011113 0.789488 -0.613666 255 255 255 255 0.103866 0.821914
-79.4283 112.549 -42.1605 -0 -0 -1 255 255 255 255 0.039349 0.806213
-237.304 123.449 -42.1605 -0 -0 -1 255 255 255 255 0.113726 0.811349
-173.097 123.449 -42.1605 -0 -0 -1 255 255 255 255 0.083478 0.811349
-424.613 116.431 -42.1605 -0 -0 -1 255 255 255 255 0.201971 0.808042
-500 -7e-06 -42.1605 -0 -0 -1 255 255 255 255 0.237487 0.75319
-500 123.449 -42.1605 -0 -0 -1 255 255 255 255 0.237487 0.811349
-73.1941 372.172 -16.6512 -0.26093 -0.766442 -0.586927 255 255 255 255 0.036412 0.678526
-157.509 412.014 -31.1954 -0.26093 -0.766442 -0.586927 255 255 255 255 0.076134 0.697296
-64.1109 380.217 -31.1954 -0.26093 -0.766442 -0.586927 255 255 255 255 0.032133 0.682316
-419.314 383.118 -31.1954 -0 -0 -1 255 255 255 255 0.199474 0.933683
-460.208 376.651 -31.1954 -0 -0 -1 255 255 255 255 0.21874 0.930636
-412.361 414.232 -42.1605 0.37221 -0.84607 -0.381608 255 255 255 255 0.196199 0.698341
-500 370.732 -31.1954 0.37221 -0.84607 -0.381608 255 255 255 255 0.237487 0.677847
-500 375.677 -42.1605 0.37221 -0.84607 -0.381608 255 255 255 255 0.237487 0.680177
-500 375.677 -42.1605 -0 -0 -1 255 255 255 255 0.237487 0.930177
-419.314 383.118 -31.1954 0.024877 -0.157318 -0.987235 255 255 255 255 0.199474 0.683683
-452.353 366.841 -29.4342 0.024877 -0.157318 -0.987235 255 255 255 255 0.215039 0.676014
-460.208 376.651 -31.1954 0.024877 -0.157318 -0.987235 255 255 255 255 0.21874 0.680636
-460.208 376.651 -31.1954 0.098442 -0.098949 -0.990211 255 255 255 255 0.21874 0.680636
-452.353 366.841 -29.4342 0.098442 -0.098949 -0.990211 255 255 255 255 0.215039 0.676014
-474.616 362.317 -31.1954 0.098442 -0.098949 -0.990211 255 255 255 255 0.225528 0.673883
-500 370.732 -31.1954 0 -0 -1 255 255 255 255 0.237487 0.927847
-474.616 362.317 -31.1954 0 -0 -1 255 255 255 255 0.225528 0.923883
-500 352.769 -31.1954 0 -0 -1 255 255 255 255 0.237487 0.919385
-474.616 362.317 -31.1954 0.325546 -0.865503 -0.380688 255 255 255 255 0.225528 0.673883
-500 346.372 -16.6512 0.325546 -0.865503 -0.380688 255 255 255 255 0.237487 0.666371
-500 352.769 -31.1954 0.325546 -0.865503 -0.380688 255 255 255 255 0.237487 0.669385
-342.491 405.616 -16.6512 0.325546 -0.865503 -0.38069 255 255 255 255 0.163282 0.694282
-419.314 383.118 -31.1954 0.325546 -0.865503 -0.38069 255 255 255 255 0.199474 0.683683
-342.491 412.014 -31.1954 0.325546 -0.865503 -0.38069 255 255 255 255 0.163282 0.697296
-173.16 435.108 -42.1605 1e-06 -0.905714 -0.42389 255 255 255 255 0.083507 0.708176
-157.509 429.976 -31.1954 1e-06 -0.905714 -0.42389 255 255 255 255 0.076134 0.705758
-211.633 429.976 -31.1954 1e-06 -0.905714 -0.42389 255 255 255 255 0.101633 0.705758
-211.633 429.976 -31.1954 0.064854 -0.55499 -0.829325 255 255 255 255 0.101633 0.705758
-300.413 435.987 -42.1605 0.064854 -0.55499 -0.829325 255 255 255 255 0.143458 0.70859
-221.09 445.257 -42.1605 0.064854 -0.55499 -0.829325 255 255 255 255 0.106088 0.712957
-211.633 429.976 -31.1954 -0.204696 -0.386713 -0.899196 255 255 255 255 0.101633 0.705758
-188.476 443.215 -42.1605 -0.204696 -0.386713 -0.899196 255 255 255 255 0.090723 0.711995
-173.16 435.108 -42.1605 -0.204696 -0.386713 -0.899196 255 255 255 255 0.083507 0.708176
-211.633 429.976 -31.1954 -0.037413 -0.597797 -0.800774 255 255 255 255 0.101633 0.705758
-221.09 445.257 -42.1605 -0.037413 -0.597797 -0.800774 255 255 255 255 0.106088 0.712957
-188.476 443.215 -42.1605 -0.037413 -0.597797 -0.800774 255 255 255 255 0.090723 0.711995
-300.413 435.987 -42.1605 -0 -0 -1 255 255 255 255 0.143458 0.95859
-221.09 445.257 -42.1605 0 -0 -1 255 255 255 255 0.106088 0.962957
-448.856 139.998 -16.6512 -0 -0 -1 255 255 255 255 0.213392 0.819145
-500 346.372 -16.6512 -1 -0 -1e-06 255 255 255 255 0.237487 0.916371
-500 2e-06 14.2392 0 -1 0 255 255 255 255 0.237487 0.75319
-500 500 14.2391 -0 0 1 255 255 255 255 0.237487 0.988747
-500 500 -42.1605 -0 1 0 255 255 255 255 0.237487 0.988747
-173.16 435.108 -42.1605 0 0 -1 255 255 255 255 0.083507 0.958176
-300.413 435.987 -42.1605 -0 -0.876891 -0.480689 255 255 255 255 0.143458 0.70859
-211.633 429.976 -31.1954 -0 -0.876891 -0.480689 255 255 255 255 0.101633 0.705758
-342.491 429.976 -31.1954 -0 -0.876891 -0.480689 255 255 255 255 0.163282 0.705758
-216.375 145.876 -16.6512 -0.028562 0.762223 -0.646684 255 255 255 255 0.103866 0.821914
-237.304 123.449 -42.1605 -0.028562 0.762223 -0.646684 255 255 255 255 0.113726 0.811349
-424.613 116.431 -42.1605 -0.028562 0.762223 -0.646684 255 255 255 255 0.201971 0.808042
-342.491 405.616 -16.6512 -0 -0.915366 -0.402622 255 255 255 255 0.163282 0.694282
-342.491 412.014 -31.1954 -0 -0.915366 -0.402622 255 255 255 255 0.163282 0.697296
-157.509 412.014 -31.1954 -0 -0.915366 -0.402622 255 255 255 255 0.076134 0.697296
-1.7e-05 346.372 -16.6512 -0.268592 -0.761997 -0.589253 255 255 255 255 0.001929 0.666371
-73.1941 372.172 -16.6512 -0.268592 -0.761997 -0.589253 255 255 255 255 0.036412 0.678526
-64.1109 380.217 -31.1954 -0.268592 -0.761997 -0.589253 255 255 255 255 0.032133 0.682316
-157.509 434.922 -42.1605 -0.324337 -0.86229 -0.388924 255 255 255 255 0.076134 0.708088
-393.655 410.732 -31.1954 0.240917 -0.726939 -0.643055 255 255 255 255 0.187386 0.696692
-412.361 414.232 -42.1605 0.240917 -0.726939 -0.643055 255 255 255 255 0.196199 0.698341
-344.052 436.871 -42.1605 0.240917 -0.726939 -0.643055 255 255 255 255 0.164017 0.709006
-216.375 145.876 -16.6512 3.7e-05 0.751057 -0.660237 255 255 255 255 0.103866 0.821914
-63.1984 127.312 -37.7601 3.7e-05 0.751057 -0.660237 255 255 255 255 0.031703 0.814402
-173.097 123.449 -42.1605 3.7e-05 0.751057 -0.660237 255 255 255 255 0.083478 0.811349
-448.856 139.998 -16.6512 0.071272 0.765494 -0.639484 255 255 255 255 0.213392 0.819145
-424.613 116.431 -42.1605 0.071272 0.765494 -0.639484 255 255 255 255 0.201971 0.808042
-500 123.449 -42.1605 0.071272 0.765494 -0.639484 255 255 255 255 0.237487 0.811349
-1.7e-05 142.831 -16.6512 0 0.796252 -0.604965 255 255 255 255 0.001929 0.820479
-1.7e-05 123.449 -42.1605 0 0.796252 -0.604965 255 255 255 255 0.001929 0.811349
-18.7343 123.449 -42.1605 0 0.796252 -0.604965 255 255 255 255 0.010755 0.811349
-73.1941 372.172 -16.6512 -0.302389 -0.818341 -0.488753 255 255 255 255 0.036412 0.678526
-157.101 403.176 -16.6512 -0.302389 -0.818341 -0.488753 255 255 255 255 0.075942 0.693132
-157.509 412.014 -31.1954 -0.302389 -0.818341 -0.488753 255 255 255 255 0.076134 0.697296
-412.361 414.232 -42.1605 0.26176 -0.695921 -0.668711 255 255 255 255 0.196199 0.698341
-393.655 410.732 -31.1954 0.26176 -0.695921 -0.668711 255 255 255 255 0.187386 0.696692
-500 370.732 -31.1954 0.26176 -0.695921 -0.668711 255 255 255 255 0.237487 0.677847
-474.616 362.317 -31.1954 0.20874 -0.819345 -0.533949 255 255 255 255 0.225528 0.673883
-452.353 366.841 -29.4342 0.20874 -0.819345 -0.533949 255 255 255 255 0.215039 0.676014
-500 346.372 -16.6512 0.20874 -0.819345 -0.533949 255 255 255 255 0.237487 0.666371
-342.491 405.616 -16.6512 0.327338 -0.729425 -0.600658 255 255 255 255 0.163282 0.694282
-452.353 366.841 -29.4342 0.327338 -0.729425 -0.600658 255 255 255 255 0.215039 0.676014
-419.314 383.118 -31.1954 0.327338 -0.729425 -0.600658 255 255 255 255 0.199474 0.683683
-173.16 435.108 -42.1605 -0.010844 -0.911514 -0.411126 255 255 255 255 0.083507 0.708176
-157.509 434.922 -42.1605 -0.010844 -0.911514 -0.411126 255 255 255 255 0.076134 0.708088
-157.509 429.976 -31.1954 -0.010844 -0.911514 -0.411126 255 255 255 255 0.076134 0.705758
3 0 1 2 
3 3 4 5 
3 6 7 8 
3 3 9 4 
3 3 10 11 
3 12 13 14 
3 11 10 15 
3 16 17 18 
3 11 15 19 
3 20 21 22 
3 11 19 23 
3 24 25 26 
3 11 23 27 
3 28 17 29 
3 30 31 32 
3 33 34 35 
3 36 37 38 
3 39 40 41 
3 42 43 44 
3 45 46 47 
3 48 49 50 
3 51 52 53 
3 54 55 56 
3 57 58 59 
3 60 61 58 
3 62 63 64 
3 50 65 66 
3 67 68 69 
3 70 71 72 
3 73 74 75 
3 60 76 61 
3 77 78 79 
3 80 81 82 
3 83 42 44 
3 84 85 86 
3 87 88 89 
3 90 91 92 
3 93 94 95 
3 96 97 98 
3 99 100 101 
3 102 103 104 
3 105 106 107 
3 108 109 110 
3 109 105 30 
3 111 112 113 
3 74 59 75 
3 76 114 115 
3 116 117 118 
3 84 86 119 
3 120 121 122 
3 123 124 125 
3 126 127 128 
3 126 76 115 
3 129 130 131 
3 132 133 134 
3 135 136 137 
3 138 139 140 
3 141 142 143 
3 144 145 146 
3 84 147 85 
3 44 148 84 
3 63 149 64 
3 3 5 10 
3 1 21 150 
3 30 105 31 
3 33 151 34 
3 36 152 37 
3 39 153 40 
3 42 154 43 
3 155 156 157 
3 48 63 49 
3 158 159 160 
3 161 162 163 
3 57 60 58 
3 50 49 65 
3 164 165 166 
3 77 167 78 
3 168 169 170 
3 171 172 173 
3 174 175 176 
3 177 178 179 
3 105 108 106 
3 109 108 105 
3 180 181 182 
3 74 57 59 
3 76 60 114 
3 183 184 185 
3 126 115 127 
3 186 187 188 
3 189 190 191 
3 192 193 194 
3 84 148 147 
3 44 43 148 
3 63 48 149 
