ply
format ascii 1.0
comment VCGLIB generated
comment TextureFile Dungeons_2_Texture_01_A.png
element vertex 342
property float x
property float y
property float z
property float nx
property float ny
property float nz
property uchar red
property uchar green
property uchar blue
property uchar alpha
property float texture_u
property float texture_v
element face 164
property list uchar int vertex_indices
end_header
-125.566 434.756 30.5412 -0.488568 0.288024 0.823616 255 255 255 255 0.176893 0.963651
-79.4182 488.846 39.0007 -0.488568 0.288024 0.823616 255 255 255 255 0.153967 0.990522
-87.1032 500 30.5412 -0.488568 0.288024 0.823616 255 255 255 255 0.157785 0.996063
-79.4182 488.846 39.0007 -0 0.604277 0.796774 255 255 255 255 0.153967 0.990522
3.1e-05 500 30.5412 -0 0.604277 0.796774 255 255 255 255 0.114514 0.996063
-87.1032 500 30.5412 -0 0.604277 0.796774 255 255 255 255 0.157785 0.996063
3.1e-05 500 30.5412 1 -0 0 255 255 255 255 0.114514 0.996063
3.1e-05 380.666 39.0007 1 -0 0 255 255 255 255 0.114514 0.936781
3.1e-05 369.511 30.5412 1 -0 0 255 255 255 255 0.114514 0.931239
-87.1032 369.511 30.5412 -0.078694 -0.281052 0.956461 255 255 255 255 0.157785 0.931239
-24.1159 380.664 39.0007 -0.078694 -0.281052 0.956461 255 255 255 255 0.12808 0.936719
-84.1035 397.461 39.0009 -0.078694 -0.281052 0.956461 255 255 255 255 0.158904 0.946464
-80.7926 485.217 -39.0009 1.6e-05 1e-06 -1 255 255 255 255 0.045601 0.990522
-90.3809 405.105 -39.001 1.6e-05 1e-06 -1 255 255 255 255 0.051883 0.948008
-100.012 451.648 -39.0012 1.6e-05 1e-06 -1 255 255 255 255 0.055585 0.972692
3.1e-05 488.846 -39.0009 0 -0 -1 255 255 255 255 0.006147 0.990522
-76.5274 383.825 -39.0008 0 -0 -1 255 255 255 255 0.045601 0.936781
-80.7926 485.217 -39.0009 0 -0 -1 255 255 255 255 0.045601 0.990522
-87.1032 500 -30.5414 -0.459013 0.2706 -0.846217 255 255 255 255 0.049418 0.996063
-100.012 451.648 -39.0012 -0.459013 0.2706 -0.846217 255 255 255 255 0.055585 0.972692
-125.566 434.756 -30.5414 -0.459013 0.2706 -0.846217 255 255 255 255 0.068526 0.963651
3.1e-05 500 -30.5414 0 0.496668 -0.86794 255 255 255 255 0.006147 0.996063
-80.7926 485.217 -39.0009 0 0.496668 -0.86794 255 255 255 255 0.045601 0.990522
-87.1032 500 -30.5414 0 0.496668 -0.86794 255 255 255 255 0.049418 0.996063
3.1e-05 380.666 -39.0008 1 0 0 255 255 255 255 0.006147 0.936781
3.1e-05 500 -30.5414 1 0 0 255 255 255 255 0.006147 0.996063
3.1e-05 369.511 -30.5414 1 0 0 255 255 255 255 0.006147 0.931239
-90.3809 405.105 -39.001 -0.417827 -0.24632 -0.874498 255 255 255 255 0.051883 0.948008
-87.1032 369.511 -30.5414 -0.417827 -0.24632 -0.874498 255 255 255 255 0.049418 0.931239
-125.566 434.756 -30.5414 -0.417827 -0.24632 -0.874498 255 255 255 255 0.068526 0.963651
-76.5274 383.825 -39.0008 0 -0.508797 -0.860886 255 255 255 255 0.045601 0.936781
3.1e-05 369.511 -30.5414 0 -0.508797 -0.860886 255 255 255 255 0.006147 0.931239
-87.1032 369.511 -30.5414 0 -0.508797 -0.860886 255 255 255 255 0.049418 0.931239
-1.7e-05 5e-06 30.5413 0 -1 0 255 255 255 255 0.006147 0.747674
-100.78 -5e-06 -30.5413 0 -1 0 255 255 255 255 0.056212 0.747674
-1.7e-05 -5e-06 -30.5413 0 -1 0 255 255 255 255 0.006147 0.747674
-107.819 260.746 -18.6413 -0.87096 -0.491354 -0 255 255 255 255 0.059709 0.877207
-102.934 252.088 18.6413 -0.87096 -0.491354 -0 255 255 255 255 0.057283 0.872906
-126.911 294.589 -6.50738 -0.87096 -0.491354 -0 255 255 255 255 0.069194 0.894019
-161.034 413.763 30.5412 -0 0 1 255 255 255 255 0.194512 0.953223
-1.7e-05 500 30.5412 -0 0 1 255 255 255 255 0.114514 0.996063
-180.778 434.756 30.5412 -0 0 1 255 255 255 255 0.204321 0.963651
-1.7e-05 500 -30.5414 0 -0 -1 255 255 255 255 0.006147 0.996063
-180.778 434.756 -30.5414 0 -0 -1 255 255 255 255 0.095954 0.963651
-144.337 500 -30.5414 0 -0 -1 255 255 255 255 0.077851 0.996063
-175.98 381.566 18.6413 0 -1 0 255 255 255 255 0.09357 0.937228
-250 381.566 -18.6414 0 -1 0 255 255 255 255 0.130342 0.937228
-175.98 381.566 -18.6414 0 -1 0 255 255 255 255 0.09357 0.937228
-134.702 367.602 30.5412 0 0 1 255 255 255 255 0.181431 0.930291
-21.4163 169.006 -30.5413 -0 -0 -1 255 255 255 255 0.016786 0.831633
-67.845 260.892 -30.5413 -0 -0 -1 255 255 255 255 0.042825 0.87728
-127.873 355.63 -30.5414 -0 -0 -1 255 255 255 255 0.069672 0.924343
-161.034 413.763 -30.5414 -0 -0 -1 255 255 255 255 0.086145 0.953223
-144.337 500 30.5412 -0 0 1 255 255 255 255 0.186218 0.996063
-250 500 -20.874 -0 -0 -1 255 255 255 255 0.130342 0.996063
-192.539 454.16 -20.874 -0 -0 -1 255 255 255 255 0.101785 0.973587
-250 454.756 -20.874 -0 -0 -1 255 255 255 255 0.130342 0.973587
-250 500 -20.874 0 1 -0 255 255 255 255 0.130342 0.996063
-167.206 500 20.8738 0 1 -0 255 255 255 255 0.089212 0.996063
-167.206 500 -20.874 0 1 -0 255 255 255 255 0.089212 0.996063
-250 500 20.8738 0 0 1 255 255 255 255 0.238708 0.996063
-192.516 454.756 20.8738 0 0 1 255 255 255 255 0.210152 0.973587
-167.206 500 20.8738 0 0 1 255 255 255 255 0.197578 0.996063
-144.337 500 -30.5414 0 1 -0 255 255 255 255 0.077851 0.996063
-1.7e-05 500 30.5412 0 1 -0 255 255 255 255 0.006147 0.996063
-1.7e-05 500 -30.5414 0 1 -0 255 255 255 255 0.006147 0.996063
-250 413.763 -30.5414 0 -0 -1 255 255 255 255 0.130342 0.953223
-250 413.763 30.5412 0 0 1 255 255 255 255 0.238708 0.953223
-227.515 433.36 30.5412 0 0 1 255 255 255 255 0.227538 0.962958
-250 434.756 30.5412 0 0 1 255 255 255 255 0.238708 0.963651
-144.337 500 -30.5414 -0.380658 0.210368 -0.900469 255 255 255 255 0.077851 0.996063
-192.539 454.16 -20.874 -0.380658 0.210368 -0.900469 255 255 255 255 0.101785 0.973587
-167.206 500 -20.874 -0.380658 0.210368 -0.900469 255 255 255 255 0.089212 0.996063
-250 434.756 -30.5414 0 0.445926 -0.89507 255 255 255 255 0.130342 0.963651
-192.539 454.16 -20.874 0 0.445926 -0.89507 255 255 255 255 0.101785 0.973587
-180.778 434.756 -30.5414 0 0.445926 -0.89507 255 255 255 255 0.095954 0.963651
-144.337 500 30.5412 0 1 0 255 255 255 255 0.077851 0.996063
-250 434.756 30.5412 0.026993 0.435037 0.900008 255 255 255 255 0.238708 0.963651
-227.515 433.36 30.5412 0.026993 0.435037 0.900008 255 255 255 255 0.227538 0.962958
-250 454.756 20.8738 0.026993 0.435037 0.900008 255 255 255 255 0.238708 0.973587
-144.337 500 30.5412 -0.379948 0.212213 0.900336 255 255 255 255 0.186218 0.996063
-192.516 454.756 20.8738 -0.379948 0.212213 0.900336 255 255 255 255 0.210152 0.973587
-180.778 434.756 30.5412 -0.379948 0.212213 0.900336 255 255 255 255 0.204321 0.963651
-1.7e-05 500 30.5412 1 0 -0 255 255 255 255 0.006147 0.996063
-1.7e-05 -5e-06 -30.5413 1 0 -0 255 255 255 255 0.006147 0.747674
-1.7e-05 500 -30.5414 1 0 -0 255 255 255 255 0.006147 0.996063
-21.4163 169.006 30.5413 0 0 1 255 255 255 255 0.125153 0.831633
-1.7e-05 5e-06 30.5413 0 0 1 255 255 255 255 0.114514 0.747674
-56.0635 169.006 -18.6413 -0.902747 0.430173 0 255 255 255 255 0.033998 0.831633
-81.5273 115.569 15.9441 -0.902747 0.430173 0 255 255 255 255 0.046648 0.805086
-56.0635 169.006 18.6413 -0.902747 0.430173 0 255 255 255 255 0.033998 0.831633
-1.7e-05 -5e-06 -30.5413 0 -0 -1 255 255 255 255 0.006147 0.747674
-47.6933 113.049 -30.5413 0 -0 -1 255 255 255 255 0.02984 0.803834
-165.1 400.363 18.6412 -0.660281 -0.376647 0.649743 255 255 255 255 0.196532 0.946566
-134.702 367.602 30.5412 -0.660281 -0.376647 0.649743 255 255 255 255 0.181431 0.930291
-161.034 413.763 30.5412 -0.660281 -0.376647 0.649743 255 255 255 255 0.194512 0.953223
-67.845 260.892 -30.5413 -0.506657 -0.283839 -0.814085 255 255 255 255 0.042825 0.87728
-35.4895 169.006 -18.6413 -0.506657 -0.283839 -0.814085 255 255 255 255 0.023778 0.831633
-88.6644 263.924 -18.6413 -0.506657 -0.283839 -0.814085 255 255 255 255 0.050194 0.878786
-210.893 415.158 30.5412 0 -0.626744 0.779225 255 255 255 255 0.219281 0.953916
-250 400.363 18.6412 0 -0.626744 0.779225 255 255 255 255 0.238708 0.946566
-199.042 400.363 18.6412 0 -0.626744 0.779225 255 255 255 255 0.213394 0.946566
-250 413.763 -30.5414 0 -0.664018 -0.747717 255 255 255 255 0.130342 0.953223
-165.1 400.363 -18.6414 0 -0.664018 -0.747717 255 255 255 255 0.088165 0.946566
-250 400.363 -18.6414 0 -0.664018 -0.747717 255 255 255 255 0.130342 0.946566
-47.6933 113.049 -30.5413 -0.617909 0.290162 -0.73075 255 255 255 255 0.02984 0.803834
-35.4895 169.006 -18.6413 -0.617909 0.290162 -0.73075 255 255 255 255 0.023778 0.831633
-21.4163 169.006 -30.5413 -0.617909 0.290162 -0.73075 255 255 255 255 0.016786 0.831633
-100.78 5e-06 30.5413 0 -1 0 255 255 255 255 0.056212 0.747674
-114.886 -3e-06 -18.6413 0 -1 0 255 255 255 255 0.06322 0.747674
-40.8525 123.794 30.5413 -0.542602 0.273412 0.794248 255 255 255 255 0.1357 0.809172
-35.4895 169.006 18.6413 -0.542602 0.273412 0.794248 255 255 255 255 0.132144 0.831633
-65.7612 108.93 18.6413 -0.542602 0.273412 0.794248 255 255 255 255 0.146165 0.801788
-35.4895 169.006 18.6413 -0 -0 1 255 255 255 255 0.132144 0.831633
-71.052 195.574 18.6413 -0 -0 1 255 255 255 255 0.149811 0.844831
-56.0635 169.006 18.6413 -0 -0 1 255 255 255 255 0.142365 0.831633
-122.223 298.282 -18.6413 -0 -0 -1 255 255 255 255 0.066865 0.895854
-88.6644 263.924 -18.6413 -0 -0 -1 255 255 255 255 0.050194 0.878786
-107.819 260.746 -18.6413 -0 -0 -1 255 255 255 255 0.059709 0.877207
-56.0635 169.006 -18.6413 -0 -0 -1 255 255 255 255 0.033998 0.831633
-199.042 400.363 18.6412 0 1e-06 1 255 255 255 255 0.213394 0.946566
-250 381.566 18.6413 0 1e-06 1 255 255 255 255 0.238708 0.937228
-175.98 381.566 18.6413 0 1e-06 1 255 255 255 255 0.201937 0.937228
-250 400.363 -18.6414 -0 -1e-06 -1 255 255 255 255 0.130342 0.946566
-175.98 381.566 -18.6414 -0 -1e-06 -1 255 255 255 255 0.09357 0.937228
-250 381.566 -18.6414 -0 -1e-06 -1 255 255 255 255 0.130342 0.937228
-66.503 102.989 -18.6413 0 -0 -1 255 255 255 255 0.039184 0.798837
-35.4895 169.006 -18.6413 0 -0 -1 255 255 255 255 0.023778 0.831633
-114.886 3e-06 18.6413 0 -1 0 255 255 255 255 0.06322 0.747674
-136.598 -3e-06 -18.6413 0 -1 0 255 255 255 255 0.074006 0.747674
-65.7612 108.93 18.6413 -0.158122 0.025525 0.98709 255 255 255 255 0.146165 0.801788
-56.0635 169.006 18.6413 -0.158122 0.025525 0.98709 255 255 255 255 0.142365 0.831633
-81.5273 115.569 15.9441 -0.158122 0.025525 0.98709 255 255 255 255 0.155015 0.805086
-40.8525 123.794 30.5413 -0 0 1 255 255 255 255 0.1357 0.809172
-250 454.756 -20.874 -1 -0 0 255 255 255 255 0.130342 0.973587
-250 500 20.8738 -1 -0 0 255 255 255 255 0.130342 0.996063
-250 500 -20.874 -1 -0 0 255 255 255 255 0.130342 0.996063
-250 434.756 -30.5414 -1 -0 0 255 255 255 255 0.130342 0.963651
-250 454.756 20.8738 -1 -0 0 255 255 255 255 0.130342 0.973587
-250 413.763 -30.5414 -1 1e-06 0 255 255 255 255 0.130342 0.953223
-250 434.756 30.5412 -1 1e-06 0 255 255 255 255 0.130342 0.963651
-250 434.756 -30.5414 -1 1e-06 0 255 255 255 255 0.130342 0.963651
-250 400.363 -18.6414 -1 -0 0 255 255 255 255 0.130342 0.946566
-250 413.763 30.5412 -1 -0 0 255 255 255 255 0.130342 0.953223
-250 413.763 -30.5414 -1 -0 0 255 255 255 255 0.130342 0.953223
-250 381.566 -18.6414 -1 -0 0 255 255 255 255 0.130342 0.937228
-250 400.363 18.6412 -1 -0 0 255 255 255 255 0.130342 0.946566
-122.223 298.282 -18.6413 -0.743616 -0.503063 -0.440412 255 255 255 255 0.066865 0.895854
-126.911 294.589 -6.50738 -0.743616 -0.503063 -0.440412 255 255 255 255 0.069194 0.894019
-162.995 358.549 -18.6414 -0.743616 -0.503063 -0.440412 255 255 255 255 0.087119 0.925794
-107.819 260.746 -18.6413 -0.845026 -0.32428 -0.425175 255 255 255 255 0.059709 0.877207
-126.911 294.589 -6.50738 -0.845026 -0.32428 -0.425175 255 255 255 255 0.069194 0.894019
-122.223 298.282 -18.6413 -0.845026 -0.32428 -0.425175 255 255 255 255 0.066865 0.895854
-77.1735 206.425 11.1186 -0.581614 -0.440757 0.683709 255 255 255 255 0.152852 0.850222
-71.7691 210.963 18.6413 -0.581614 -0.440757 0.683709 255 255 255 255 0.150167 0.852476
-102.934 252.088 18.6413 -0.581614 -0.440757 0.683709 255 255 255 255 0.165649 0.872906
-71.052 195.574 18.6413 -0.800777 -0.037314 0.597799 255 255 255 255 0.149811 0.844831
-71.7691 210.963 18.6413 -0.800777 -0.037314 0.597799 255 255 255 255 0.150167 0.852476
-77.1735 206.425 11.1186 -0.800777 -0.037314 0.597799 255 255 255 255 0.152852 0.850222
-77.2554 40.0959 -30.5413 0 -0 -1 255 255 255 255 0.046859 0.767593
-100.78 -5e-06 -30.5413 0 -0 -1 255 255 255 255 0.056212 0.747674
-93.3189 45.9082 -18.6413 -0.617113 0.289909 -0.731522 255 255 255 255 0.052506 0.77048
-100.78 -5e-06 -30.5413 -0.617113 0.289909 -0.731522 255 255 255 255 0.056212 0.747674
-114.886 -3e-06 -18.6413 -0.617113 0.289909 -0.731522 255 255 255 255 0.06322 0.747674
-93.3189 45.9082 -18.6413 -0.072189 0.068054 -0.995067 255 255 255 255 0.052506 0.77048
-136.598 -3e-06 -18.6413 -0.072189 0.068054 -0.995067 255 255 255 255 0.074006 0.747674
-98.5963 79.7481 -15.9441 -0.072189 0.068054 -0.995067 255 255 255 255 0.055128 0.787291
-98.5963 79.7481 -15.9441 -0.902747 0.430173 0 255 255 255 255 0.055128 0.787291
-136.598 3e-06 18.6413 -0.902747 0.430173 0 255 255 255 255 0.074006 0.747674
-114.886 3e-06 18.6413 0 0.023333 0.999728 255 255 255 255 0.171587 0.747674
-81.5273 115.569 15.9441 0 0.023333 0.999728 255 255 255 255 0.155015 0.805086
-136.598 3e-06 18.6413 0 0.023333 0.999728 255 255 255 255 0.182373 0.747674
-100.78 5e-06 30.5413 -0.619159 0.279224 0.733946 255 255 255 255 0.164579 0.747674
-65.7612 108.93 18.6413 -0.619159 0.279224 0.733946 255 255 255 255 0.146165 0.801788
-114.886 3e-06 18.6413 -0.619159 0.279224 0.733946 255 255 255 255 0.171587 0.747674
-100.78 5e-06 30.5413 0 0 1 255 255 255 255 0.164579 0.747674
-66.503 102.989 -18.6413 -0.518827 0.243736 -0.819397 255 255 255 255 0.039184 0.798837
-77.2554 40.0959 -30.5413 -0.518827 0.243736 -0.819397 255 255 255 255 0.046859 0.767593
-93.3189 45.9082 -18.6413 -0.518827 0.243736 -0.819397 255 255 255 255 0.052506 0.77048
-98.5963 79.7481 -15.9441 -0.126135 0.059256 -0.990242 255 255 255 255 0.055128 0.787291
-66.503 102.989 -18.6413 -0.126135 0.059256 -0.990242 255 255 255 255 0.039184 0.798837
-93.3189 45.9082 -18.6413 -0.126135 0.059256 -0.990242 255 255 255 255 0.052506 0.77048
-110.164 316.48 25.8426 -0.284842 -0.222419 0.932413 255 255 255 255 0.169338 0.90484
-93.251 314.518 30.5413 -0.284842 -0.222419 0.932413 255 255 255 255 0.160839 0.90392
-134.702 367.602 30.5412 -0.284842 -0.222419 0.932413 255 255 255 255 0.181431 0.930291
-83.0594 277.07 30.5413 -0.274976 -0.074836 0.958534 255 255 255 255 0.155776 0.885316
-93.251 314.518 30.5413 -0.274976 -0.074836 0.958534 255 255 255 255 0.160839 0.90392
-110.164 316.48 25.8426 -0.274976 -0.074836 0.958534 255 255 255 255 0.169338 0.90484
-130.955 339.413 -18.6414 -0 -0 -1 255 255 255 255 0.071203 0.916287
-130.955 339.413 -18.6414 -0.506657 -0.283839 -0.814085 255 255 255 255 0.071203 0.916287
-162.995 358.549 -18.6414 -0 -0 -1 255 255 255 255 0.087119 0.925794
-165.1 400.363 -18.6414 -0 -0 -1 255 255 255 255 0.088165 0.946566
-175.98 381.566 -18.6414 -0 -0 -1 255 255 255 255 0.09357 0.937228
-127.873 355.63 -30.5414 -0.660281 -0.376647 -0.649743 255 255 255 255 0.069672 0.924343
-165.1 400.363 -18.6414 -0.660281 -0.376647 -0.649743 255 255 255 255 0.088165 0.946566
-161.034 413.763 -30.5414 -0.660281 -0.376647 -0.649743 255 255 255 255 0.086145 0.953223
-125.566 434.756 -30.5414 -0.279132 -0.057763 -0.958514 255 255 255 255 0.068526 0.963651
-100.012 451.648 -39.0012 -0.279132 -0.057763 -0.958514 255 255 255 255 0.055585 0.972692
-90.3809 405.105 -39.001 -0.279132 -0.057763 -0.958514 255 255 255 255 0.051883 0.948008
-125.566 434.756 30.5412 -0.459428 -0.323101 0.827364 255 255 255 255 0.176893 0.963651
-84.1035 397.461 39.0009 -0.459428 -0.323101 0.827364 255 255 255 255 0.158904 0.946464
-106.478 429.277 39.0012 -0.459428 -0.323101 0.827364 255 255 255 255 0.169002 0.963651
3.1e-05 369.511 30.5412 0 -0.604343 0.796724 255 255 255 255 0.114514 0.931239
-24.1159 380.664 39.0007 0 -0.604343 0.796724 255 255 255 255 0.12808 0.936719
-87.1032 369.511 30.5412 0 -0.604343 0.796724 255 255 255 255 0.157785 0.931239
3.1e-05 488.846 39.0007 -0 0 1 255 255 255 255 0.114514 0.990522
-24.1159 380.664 39.0007 -0 0 1 255 255 255 255 0.12808 0.936719
3.1e-05 380.666 39.0007 -0 0 1 255 255 255 255 0.114514 0.936781
-79.4182 488.846 39.0007 3e-06 2e-06 1 255 255 255 255 0.153967 0.990522
-84.1035 397.461 39.0009 3e-06 2e-06 1 255 255 255 255 0.158904 0.946464
-24.1159 380.664 39.0007 3e-06 2e-06 1 255 255 255 255 0.12808 0.936719
-165.1 400.363 18.6412 -0 1e-06 1 255 255 255 255 0.196532 0.946566
-161.034 413.763 30.5412 0 -0.664017 0.747717 255 255 255 255 0.194512 0.953223
-199.042 400.363 18.6412 0 -0.664017 0.747717 255 255 255 255 0.213394 0.946566
-165.1 400.363 18.6412 0 -0.664017 0.747717 255 255 255 255 0.196532 0.946566
-210.893 415.158 30.5412 -0 0 1 255 255 255 255 0.219281 0.953916
-227.515 433.36 30.5412 -0 0.411766 0.91129 255 255 255 255 0.227538 0.962958
-192.516 454.756 20.8738 -0 0.411766 0.91129 255 255 255 255 0.210152 0.973587
-250 454.756 20.8738 -0 0.411766 0.91129 255 255 255 255 0.238708 0.973587
-56.0635 169.006 -18.6413 -0.87096 -0.491354 0 255 255 255 255 0.033998 0.831633
-71.052 195.574 18.6413 -0.87096 -0.491354 0 255 255 255 255 0.041444 0.844831
-77.1735 206.425 11.1186 -0.87096 -0.491354 0 255 255 255 255 0.044485 0.850222
-175.98 381.566 18.6413 -0.87096 -0.491354 -0 255 255 255 255 0.09357 0.937228
-162.995 358.549 -18.6414 -0.87096 -0.491354 -0 255 255 255 255 0.087119 0.925794
-165.1 400.363 18.6412 -0 0 1 255 255 255 255 0.196532 0.946566
-102.934 252.088 18.6413 -0 0 1 255 255 255 255 0.165649 0.872906
-71.7691 210.963 18.6413 -0 0 1 255 255 255 255 0.150167 0.852476
-83.0594 277.07 30.5413 -0.605895 -0.345623 0.716544 255 255 255 255 0.155776 0.885316
-35.4895 169.006 18.6413 -0.605895 -0.345623 0.716544 255 255 255 255 0.132144 0.831633
-21.4163 169.006 30.5413 -0.605895 -0.345623 0.716544 255 255 255 255 0.125153 0.831633
-35.4895 169.006 18.6413 -0.628634 -0.352173 0.693393 255 255 255 255 0.132144 0.831633
-110.164 316.48 25.8426 -0.628634 -0.352173 0.693393 255 255 255 255 0.169338 0.90484
-165.1 400.363 18.6412 -0.628634 -0.352173 0.693393 255 255 255 255 0.196532 0.946566
-83.0594 277.07 30.5413 -0 0 1 255 255 255 255 0.155776 0.885316
-125.566 434.756 30.5412 -0.360103 0.163588 0.918458 255 255 255 255 0.176893 0.963651
-106.478 429.277 39.0012 -0.360103 0.163588 0.918458 255 255 255 255 0.169002 0.963651
-79.4182 488.846 39.0007 -0.360103 0.163588 0.918458 255 255 255 255 0.153967 0.990522
3.1e-05 488.846 39.0007 0 0.604277 0.796774 255 255 255 255 0.114514 0.990522
3.1e-05 488.846 39.0007 1 0 0 255 255 255 255 0.114514 0.990522
-80.7926 485.217 -39.0009 1.6e-05 0 -1 255 255 255 255 0.045601 0.990522
-76.5274 383.825 -39.0008 1.6e-05 0 -1 255 255 255 255 0.045601 0.936781
-90.3809 405.105 -39.001 1.6e-05 0 -1 255 255 255 255 0.051883 0.948008
3.1e-05 380.666 -39.0008 -0 -0 -1 255 255 255 255 0.006147 0.936781
-87.1032 500 -30.5414 -0.477917 0.273631 -0.834698 255 255 255 255 0.049418 0.996063
-80.7926 485.217 -39.0009 -0.477917 0.273631 -0.834698 255 255 255 255 0.045601 0.990522
-100.012 451.648 -39.0012 -0.477917 0.273631 -0.834698 255 255 255 255 0.055585 0.972692
3.1e-05 500 -30.5414 -0.027131 0.604055 -0.796481 255 255 255 255 0.006147 0.996063
3.1e-05 488.846 -39.0009 -0.027131 0.604055 -0.796481 255 255 255 255 0.006147 0.990522
-80.7926 485.217 -39.0009 -0.027131 0.604055 -0.796481 255 255 255 255 0.045601 0.990522
3.1e-05 488.846 -39.0009 1 0 0 255 255 255 255 0.006147 0.990522
-90.3809 405.105 -39.001 -0.379204 -0.246869 -0.891774 255 255 255 255 0.051883 0.948008
-76.5274 383.825 -39.0008 -0.379204 -0.246869 -0.891774 255 255 255 255 0.045601 0.936781
-87.1032 369.511 -30.5414 -0.379204 -0.246869 -0.891774 255 255 255 255 0.049418 0.931239
-76.5274 383.825 -39.0008 -0.024938 -0.604089 -0.796526 255 255 255 255 0.045601 0.936781
3.1e-05 380.666 -39.0008 -0.024938 -0.604089 -0.796526 255 255 255 255 0.006147 0.936781
3.1e-05 369.511 -30.5414 -0.024938 -0.604089 -0.796526 255 255 255 255 0.006147 0.931239
-250 381.566 18.6413 0 -1 0 255 255 255 255 0.130342 0.937228
-93.251 314.518 30.5413 0 0 1 255 255 255 255 0.160839 0.90392
-167.206 500 -20.874 -0 -0 -1 255 255 255 255 0.089212 0.996063
-250 500 20.8738 0 1 0 255 255 255 255 0.130342 0.996063
-250 454.756 20.8738 0 0 1 255 255 255 255 0.238708 0.973587
-250 434.756 -30.5414 -0 -0 -1 255 255 255 255 0.130342 0.963651
-144.337 500 -30.5414 -0.384146 0.214557 -0.897996 255 255 255 255 0.077851 0.996063
-180.778 434.756 -30.5414 -0.384146 0.214557 -0.897996 255 255 255 255 0.095954 0.963651
-192.539 454.16 -20.874 -0.384146 0.214557 -0.897996 255 255 255 255 0.101785 0.973587
-250 434.756 -30.5414 0.00451 0.435191 -0.900327 255 255 255 255 0.130342 0.963651
-250 454.756 -20.874 0.00451 0.435191 -0.900327 255 255 255 255 0.130342 0.973587
-192.539 454.16 -20.874 0.00451 0.435191 -0.900327 255 255 255 255 0.101785 0.973587
-144.337 500 30.5412 -0.380451 0.212825 0.899979 255 255 255 255 0.186218 0.996063
-167.206 500 20.8738 -0.380451 0.212825 0.899979 255 255 255 255 0.197578 0.996063
-192.516 454.756 20.8738 -0.380451 0.212825 0.899979 255 255 255 255 0.210152 0.973587
-1.7e-05 5e-06 30.5413 1 -0 0 255 255 255 255 0.006147 0.747674
-165.1 400.363 18.6412 -0.660281 -0.376646 0.649744 255 255 255 255 0.196532 0.946566
-110.164 316.48 25.8426 -0.660281 -0.376646 0.649744 255 255 255 255 0.169338 0.90484
-134.702 367.602 30.5412 -0.660281 -0.376646 0.649744 255 255 255 255 0.181431 0.930291
-67.845 260.892 -30.5413 -0.613843 -0.310167 -0.725943 255 255 255 255 0.042825 0.87728
-21.4163 169.006 -30.5413 -0.613843 -0.310167 -0.725943 255 255 255 255 0.016786 0.831633
-35.4895 169.006 -18.6413 -0.613843 -0.310167 -0.725943 255 255 255 255 0.023778 0.831633
-210.893 415.158 30.5412 0.023682 -0.663831 0.747507 255 255 255 255 0.219281 0.953916
-250 413.763 30.5412 0.023682 -0.663831 0.747507 255 255 255 255 0.238708 0.953223
-250 400.363 18.6412 0.023682 -0.663831 0.747507 255 255 255 255 0.238708 0.946566
-161.034 413.763 -30.5414 -0 -0.664018 -0.747717 255 255 255 255 0.086145 0.953223
-47.6933 113.049 -30.5413 -0.617631 0.290152 -0.730988 255 255 255 255 0.02984 0.803834
-66.503 102.989 -18.6413 -0.617631 0.290152 -0.730988 255 255 255 255 0.039184 0.798837
-35.4895 169.006 -18.6413 -0.617631 0.290152 -0.730988 255 255 255 255 0.023778 0.831633
-40.8525 123.794 30.5413 -0.622164 0.267461 0.735783 255 255 255 255 0.1357 0.809172
-21.4163 169.006 30.5413 -0.622164 0.267461 0.735783 255 255 255 255 0.125153 0.831633
-35.4895 169.006 18.6413 -0.622164 0.267461 0.735783 255 255 255 255 0.132144 0.831633
-250 400.363 18.6412 -0 1e-06 1 255 255 255 255 0.238708 0.946566
-165.1 400.363 -18.6414 -0 -1e-06 -1 255 255 255 255 0.088165 0.946566
-66.503 102.989 -18.6413 -0.094477 0.01494 -0.995415 255 255 255 255 0.039184 0.798837
-98.5963 79.7481 -15.9441 -0.094477 0.01494 -0.995415 255 255 255 255 0.055128 0.787291
-56.0635 169.006 -18.6413 -0.094477 0.01494 -0.995415 255 255 255 255 0.033998 0.831633
-136.598 3e-06 18.6413 0 -1 0 255 255 255 255 0.074006 0.747674
-65.7612 108.93 18.6413 -0 0 1 255 255 255 255 0.146165 0.801788
-250 434.756 30.5412 -1 -0 -0 255 255 255 255 0.130342 0.963651
-250 413.763 30.5412 -1 1e-06 0 255 255 255 255 0.130342 0.953223
-250 381.566 18.6413 -1 -0 -0 255 255 255 255 0.130342 0.937228
-93.3189 45.9082 -18.6413 -0.498623 0.292541 -0.815962 255 255 255 255 0.052506 0.77048
-77.2554 40.0959 -30.5413 -0.498623 0.292541 -0.815962 255 255 255 255 0.046859 0.767593
-100.78 -5e-06 -30.5413 -0.498623 0.292541 -0.815962 255 255 255 255 0.056212 0.747674
-93.3189 45.9082 -18.6413 0 -0 -1 255 255 255 255 0.052506 0.77048
-114.886 -3e-06 -18.6413 0 -0 -1 255 255 255 255 0.06322 0.747674
-136.598 -3e-06 -18.6413 0 -0 -1 255 255 255 255 0.074006 0.747674
-136.598 -3e-06 -18.6413 -0.902747 0.430173 -0 255 255 255 255 0.074006 0.747674
-114.886 3e-06 18.6413 -0.142021 0.064048 0.987789 255 255 255 255 0.171587 0.747674
-65.7612 108.93 18.6413 -0.142021 0.064048 0.987789 255 255 255 255 0.146165 0.801788
-81.5273 115.569 15.9441 -0.142021 0.064048 0.987789 255 255 255 255 0.155015 0.805086
-100.78 5e-06 30.5413 -0.538381 0.260623 0.801387 255 255 255 255 0.164579 0.747674
-40.8525 123.794 30.5413 -0.538381 0.260623 0.801387 255 255 255 255 0.1357 0.809172
-65.7612 108.93 18.6413 -0.538381 0.260623 0.801387 255 255 255 255 0.146165 0.801788
-66.503 102.989 -18.6413 -0.608905 0.246742 -0.753892 255 255 255 255 0.039184 0.798837
-47.6933 113.049 -30.5413 -0.608905 0.246742 -0.753892 255 255 255 255 0.02984 0.803834
-77.2554 40.0959 -30.5413 -0.608905 0.246742 -0.753892 255 255 255 255 0.046859 0.767593
-130.955 339.413 -18.6414 -0.612979 -0.388395 -0.688045 255 255 255 255 0.071203 0.916287
-127.873 355.63 -30.5414 -0.612979 -0.388395 -0.688045 255 255 255 255 0.069672 0.924343
-67.845 260.892 -30.5413 -0.612979 -0.388395 -0.688045 255 255 255 255 0.042825 0.87728
-127.873 355.63 -30.5414 -0.651052 -0.364733 -0.665659 255 255 255 255 0.069672 0.924343
-130.955 339.413 -18.6414 -0.651052 -0.364733 -0.665659 255 255 255 255 0.071203 0.916287
-165.1 400.363 -18.6414 -0.651052 -0.364733 -0.665659 255 255 255 255 0.088165 0.946566
-125.566 434.756 30.5412 -0.387838 -0.22864 0.89292 255 255 255 255 0.176893 0.963651
-87.1032 369.511 30.5412 -0.387838 -0.22864 0.89292 255 255 255 255 0.157785 0.931239
-84.1035 397.461 39.0009 -0.387838 -0.22864 0.89292 255 255 255 255 0.158904 0.946464
3.1e-05 369.511 30.5412 4.8e-05 -0.604277 0.796774 255 255 255 255 0.114514 0.931239
3.1e-05 380.666 39.0007 4.8e-05 -0.604277 0.796774 255 255 255 255 0.114514 0.936781
-24.1159 380.664 39.0007 4.8e-05 -0.604277 0.796774 255 255 255 255 0.12808 0.936719
-79.4182 488.846 39.0007 -0 0 1 255 255 255 255 0.153967 0.990522
-79.4182 488.846 39.0007 1.6e-05 1e-06 1 255 255 255 255 0.153967 0.990522
-106.478 429.277 39.0012 1.6e-05 1e-06 1 255 255 255 255 0.169002 0.963651
-84.1035 397.461 39.0009 1.6e-05 1e-06 1 255 255 255 255 0.158904 0.946464
-161.034 413.763 30.5412 -0.017776 -0.635252 0.772101 255 255 255 255 0.194512 0.953223
-210.893 415.158 30.5412 -0.017776 -0.635252 0.772101 255 255 255 255 0.219281 0.953916
-199.042 400.363 18.6412 -0.017776 -0.635252 0.772101 255 255 255 255 0.213394 0.946566
-227.515 433.36 30.5412 -0.012808 0.429057 0.903187 255 255 255 255 0.227538 0.962958
-180.778 434.756 30.5412 -0.012808 0.429057 0.903187 255 255 255 255 0.204321 0.963651
-192.516 454.756 20.8738 -0.012808 0.429057 0.903187 255 255 255 255 0.210152 0.973587
-56.0635 169.006 18.6413 -0.87096 -0.491354 -0 255 255 255 255 0.033998 0.831633
-175.98 381.566 -18.6414 -0.87096 -0.491354 0 255 255 255 255 0.09357 0.937228
-175.98 381.566 18.6413 0 0 1 255 255 255 255 0.201937 0.937228
-83.0594 277.07 30.5413 -0.635303 -0.355176 0.68574 255 255 255 255 0.155776 0.885316
-110.164 316.48 25.8426 -0.635303 -0.355176 0.68574 255 255 255 255 0.169338 0.90484
-35.4895 169.006 18.6413 -0.635303 -0.355176 0.68574 255 255 255 255 0.132144 0.831633
3 0 1 2 
3 3 4 5 
3 6 7 8 
3 9 10 11 
3 12 13 14 
3 15 16 17 
3 18 19 20 
3 21 22 23 
3 24 25 26 
3 27 28 29 
3 30 31 32 
3 33 34 35 
3 36 37 38 
3 39 40 41 
3 42 43 44 
3 45 46 47 
3 48 40 39 
3 49 50 42 
3 42 51 52 
3 40 53 41 
3 42 52 43 
3 54 55 56 
3 57 58 59 
3 60 61 62 
3 63 64 65 
3 66 43 52 
3 67 68 69 
3 70 71 72 
3 73 74 75 
3 63 58 76 
3 77 78 79 
3 80 81 82 
3 83 84 85 
3 40 86 87 
3 88 89 90 
3 91 92 49 
3 93 94 95 
3 96 97 98 
3 99 100 101 
3 102 103 104 
3 105 106 107 
3 108 109 34 
3 110 111 112 
3 113 114 115 
3 116 117 118 
3 117 119 118 
3 120 121 122 
3 123 124 125 
3 126 119 127 
3 128 129 109 
3 130 131 132 
3 49 42 91 
3 87 86 133 
3 134 135 136 
3 137 138 134 
3 139 140 141 
3 142 143 144 
3 145 146 142 
3 147 148 149 
3 150 151 152 
3 153 154 155 
3 156 157 158 
3 159 91 160 
3 161 162 163 
3 164 165 166 
3 167 168 89 
3 169 170 171 
3 172 173 174 
3 87 133 175 
3 176 177 178 
3 179 180 181 
3 182 183 184 
3 185 186 187 
3 116 188 117 
3 189 96 98 
3 116 190 188 
3 191 190 192 
3 193 194 195 
3 196 197 198 
3 199 200 201 
3 202 203 204 
3 205 206 207 
3 208 209 210 
3 211 120 122 
3 212 213 214 
3 215 41 68 
3 216 217 218 
3 219 220 221 
3 221 36 219 
3 222 223 38 
3 38 37 222 
3 224 225 226 
3 113 224 226 
3 227 228 229 
3 230 231 232 
3 40 233 86 
3 234 235 236 
3 3 237 4 
3 6 238 7 
3 239 240 241 
3 15 242 16 
3 243 244 245 
3 246 247 248 
3 24 249 25 
3 250 251 252 
3 253 254 255 
3 33 108 34 
3 45 256 46 
3 48 257 40 
3 42 50 51 
3 54 258 55 
3 57 259 58 
3 60 260 61 
3 63 76 64 
3 66 261 43 
3 67 215 68 
3 262 263 264 
3 265 266 267 
3 63 59 58 
3 268 269 270 
3 83 271 84 
3 88 167 89 
3 91 159 92 
3 272 273 274 
3 275 276 277 
3 278 279 280 
3 102 281 103 
3 282 283 284 
3 108 128 109 
3 285 286 287 
3 113 226 114 
3 117 127 119 
3 120 288 121 
3 123 289 124 
3 290 291 292 
3 128 293 129 
3 294 113 115 
3 134 138 135 
3 137 295 138 
3 139 296 140 
3 142 146 143 
3 145 297 146 
3 298 299 300 
3 301 302 303 
3 167 304 168 
3 305 306 307 
3 308 309 310 
3 311 312 313 
3 314 315 316 
3 191 188 190 
3 317 318 319 
3 320 321 322 
3 323 324 325 
3 205 326 206 
3 327 328 329 
3 330 331 332 
3 215 39 41 
3 333 334 335 
3 219 336 220 
3 221 37 36 
3 222 337 223 
3 224 338 225 
3 339 340 341 
3 40 257 233 
