ply
format ascii 1.0
comment VCGLIB generated
comment TextureFile Dungeons_2_Texture_01_A.png
element vertex 554
property float x
property float y
property float z
property float nx
property float ny
property float nz
property uchar red
property uchar green
property uchar blue
property uchar alpha
property float texture_u
property float texture_v
element face 302
property list uchar int vertex_indices
end_header
-1.7e-05 373.064 -20.9301 0 -0 -1 255 255 255 255 0.004407 0.686189
-88.2675 373.064 -20.9301 0 -0 -1 255 255 255 255 0.044959 0.686189
-1.7e-05 460.636 -20.9301 0 -0 -1 255 255 255 255 0.004407 0.726422
-306.544 475.955 -30.5414 0 -0 -1 255 255 255 255 0.147732 0.979572
-1.6e-05 500 -30.5414 0 -0 -1 255 255 255 255 0.006899 0.990619
-193.456 475.955 -30.5414 0 -0 -1 255 255 255 255 0.095777 0.979572
-323.044 460.636 -20.9301 0 -0 -1 255 255 255 255 0.15282 0.726422
-411.733 373.064 -20.9301 0 -0 -1 255 255 255 255 0.193566 0.686189
-500 460.636 -20.9301 0 -0 -1 255 255 255 255 0.234118 0.726422
-176.956 460.636 -20.9301 -0 -0 -1 255 255 255 255 0.085705 0.726422
-500 332.777 -30.5414 0 -0 -1 255 255 255 255 0.236611 0.913793
-407.314 357.745 -30.5414 0 -0 -1 255 255 255 255 0.194029 0.925264
-400 332.777 -30.5414 0 -0 -1 255 255 255 255 0.190668 0.913793
-372.248 475.955 -30.5414 -0 -0 -1 255 255 255 255 0.177919 0.979572
-500 500 -30.5414 -0 -0 -1 255 255 255 255 0.236611 0.990619
-450.915 486.046 -30.5414 0 -0 -1 255 255 255 255 0.21406 0.984208
-500 475.955 -30.5414 0 -0 -1 255 255 255 255 0.236611 0.979572
-487.908 475.955 -30.5414 0 -0 -1 255 255 255 255 0.231055 0.979572
-312.488 382.643 -30.5414 -0 -0 -1 255 255 255 255 0.150463 0.936702
-306.544 411.718 -30.5414 -0 -0 -1 255 255 255 255 0.147732 0.95006
-1.7e-05 332.777 -30.5414 0 -0 -1 255 255 255 255 0.006899 0.913793
-92.6857 357.745 -30.5414 0 -0 -1 255 255 255 255 0.049481 0.925264
-1.7e-05 357.745 -30.5414 0 -0 -1 255 255 255 255 0.006899 0.925264
-187.513 382.643 -30.5414 -0 -0 -1 255 255 255 255 0.093047 0.936702
-100 332.777 -30.5414 -0 -0 -1 255 255 255 255 0.052841 0.913793
-1.7e-05 475.955 -30.5414 0 -0 -1 255 255 255 255 0.006899 0.979572
-193.456 411.718 -30.5414 -0 -0 -1 255 255 255 255 0.095777 0.95006
-196.997 382.643 -30.5414 0 -0 -1 255 255 255 255 0.097404 0.936702
-260.943 382.643 -30.5414 0 -0 -1 255 255 255 255 0.126782 0.936702
-260.943 382.643 -30.5414 -4e-06 9e-06 -1 255 255 255 255 0.126782 0.936702
-193.456 411.718 -30.5414 -4e-06 9e-06 -1 255 255 255 255 0.095777 0.95006
-235.424 393.587 -30.5414 -4e-06 9e-06 -1 255 255 255 255 0.115058 0.941731
-235.424 393.587 -30.5414 0 -0 -1 255 255 255 255 0.115058 0.941731
-1.7e-05 357.745 -30.5414 0 0.531477 -0.847073 255 255 255 255 0.004407 0.679151
-88.2675 373.064 -20.9301 0 0.531477 -0.847073 255 255 255 255 0.044959 0.686189
-1.7e-05 373.064 -20.9301 0 0.531477 -0.847073 255 255 255 255 0.004407 0.686189
-92.6857 357.745 -30.5414 0.247777 0.46262 -0.851228 255 255 255 255 0.046989 0.679151
-176.956 420.565 -20.9301 0.247777 0.46262 -0.851228 255 255 255 255 0.085705 0.708013
-88.2675 373.064 -20.9301 0.247777 0.46262 -0.851228 255 255 255 255 0.044959 0.686189
-193.456 411.718 -30.5414 0.503335 -0 -0.864092 255 255 255 255 0.093285 0.703948
-176.956 460.636 -20.9301 0.503335 -0 -0.864092 255 255 255 255 0.085705 0.726422
-176.956 420.565 -20.9301 0.503335 -0 -0.864092 255 255 255 255 0.085705 0.708013
-176.956 460.636 -20.9301 0 -0.531478 -0.847072 255 255 255 255 0.085705 0.726422
-1.7e-05 475.955 -30.5414 0 -0.531478 -0.847072 255 255 255 255 0.004407 0.73346
-1.7e-05 460.636 -20.9301 0 -0.531478 -0.847072 255 255 255 255 0.004407 0.726422
-500 357.745 -30.5414 -0 0.531477 -0.847073 255 255 255 255 0.234118 0.679151
-411.733 373.064 -20.9301 -0 0.531477 -0.847073 255 255 255 255 0.193566 0.686189
-407.314 357.745 -30.5414 -0 0.531477 -0.847073 255 255 255 255 0.191536 0.679151
-306.544 475.955 -30.5414 -0 -0.531477 -0.847073 255 255 255 255 0.12147 0.67409
-323.044 460.636 -20.9301 -0 -0.531477 -0.847073 255 255 255 255 0.117055 0.66651
-372.248 475.955 -30.5414 -0 -0.531477 -0.847073 255 255 255 255 0.12147 0.643904
-500 460.636 -20.9301 0 -0.531477 -0.847073 255 255 255 255 0.117055 0.585212
-372.248 475.955 -30.5414 0 -0.531479 -0.847071 255 255 255 255 0.12147 0.643904
-500 460.636 -20.9301 0 -0.531479 -0.847071 255 255 255 255 0.117055 0.585212
-450.164 469.492 -26.4863 0 -0.531479 -0.847071 255 255 255 255 0.119607 0.608108
-500 475.955 -30.5414 -0 -0.531478 -0.847072 255 255 255 255 0.12147 0.585212
-487.908 475.955 -30.5414 -0 -0.531478 -0.847072 255 255 255 255 0.12147 0.590767
-500 460.636 -20.9301 -0 -0.531478 -0.847072 255 255 255 255 0.117055 0.585212
-450.164 469.492 -26.4863 0 -0.531478 -0.847072 255 255 255 255 0.119607 0.608108
-306.544 411.718 -30.5414 -0.503335 0 -0.864092 255 255 255 255 0.14524 0.703948
-323.044 460.636 -20.9301 -0.503335 0 -0.864092 255 255 255 255 0.15282 0.726422
-306.544 475.955 -30.5414 -0.503335 0 -0.864092 255 255 255 255 0.14524 0.73346
-407.314 357.745 -30.5414 -0.247777 0.462621 -0.851228 255 255 255 255 0.191536 0.679151
-323.044 420.565 -20.9301 -0.247777 0.462621 -0.851228 255 255 255 255 0.15282 0.708013
-306.544 411.718 -30.5414 -0.247777 0.462621 -0.851228 255 255 255 255 0.14524 0.703948
-500 373.064 -20.9301 0 -0 -1 255 255 255 255 0.234118 0.686189
-400 332.777 -30.5414 0 -0.546502 -0.837458 255 255 255 255 0.190668 0.913793
-500 322.448 -23.8008 0 -0.546502 -0.837458 255 255 255 255 0.236611 0.909047
-500 332.777 -30.5414 0 -0.546502 -0.837458 255 255 255 255 0.236611 0.913793
-400 332.777 -30.5414 0.297322 -0.521787 -0.799586 255 255 255 255 0.190668 0.913793
-312.488 372.314 -23.8008 0.297322 -0.521787 -0.799586 255 255 255 255 0.150463 0.931957
-400 322.448 -23.8008 0.297322 -0.521787 -0.799586 255 255 255 255 0.190668 0.909047
-312.488 382.643 -30.5414 -0 -0.546502 -0.837458 255 255 255 255 0.150463 0.936702
-260.943 382.643 -30.5414 -0 -0.546502 -0.837458 255 255 255 255 0.126782 0.936702
-312.488 372.314 -23.8008 -0 -0.546502 -0.837458 255 255 255 255 0.150463 0.931957
-187.513 382.643 -30.5414 0 -0.546502 -0.837458 255 255 255 255 0.093047 0.936702
-187.513 372.314 -23.8008 0 -0.546502 -0.837458 255 255 255 255 0.093047 0.931957
-196.997 382.643 -30.5414 0 -0.546502 -0.837458 255 255 255 255 0.097404 0.936702
-196.997 382.643 -30.5414 1e-06 -0.546501 -0.837458 255 255 255 255 0.097404 0.936702
-187.513 372.314 -23.8008 1e-06 -0.546501 -0.837458 255 255 255 255 0.093047 0.931957
-227.517 375.296 -25.7468 1e-06 -0.546501 -0.837458 255 255 255 255 0.111426 0.933327
-187.513 372.314 -23.8008 0 -0.54651 -0.837452 255 255 255 255 0.093047 0.931957
-312.488 372.314 -23.8008 0 -0.54651 -0.837452 255 255 255 255 0.150463 0.931957
-227.517 375.296 -25.7468 0 -0.54651 -0.837452 255 255 255 255 0.111426 0.933327
-260.943 382.643 -30.5414 -1e-06 -0.5465 -0.837459 255 255 255 255 0.126782 0.936702
-227.517 375.296 -25.7468 -1e-06 -0.5465 -0.837459 255 255 255 255 0.111426 0.933327
-312.488 372.314 -23.8008 -1e-06 -0.5465 -0.837459 255 255 255 255 0.150463 0.931957
-100 332.777 -30.5414 -0.297321 -0.521787 -0.799586 255 255 255 255 0.052841 0.913793
-187.513 372.314 -23.8008 -0.297321 -0.521787 -0.799586 255 255 255 255 0.093047 0.931957
-187.513 382.643 -30.5414 -0.297321 -0.521787 -0.799586 255 255 255 255 0.093047 0.936702
-1.7e-05 332.777 -30.5414 0 -0.546502 -0.837458 255 255 255 255 0.006899 0.913793
-100 322.448 -23.8008 0 -0.546502 -0.837458 255 255 255 255 0.052841 0.909047
-100 332.777 -30.5414 0 -0.546502 -0.837458 255 255 255 255 0.052841 0.913793
-400 322.448 -23.8008 0 -0 -1 255 255 255 255 0.190668 0.909047
-477.834 304.651 -23.8008 0 -0 -1 255 255 255 255 0.226427 0.900871
-500 322.448 -23.8008 0 -0 -1 255 255 255 255 0.236611 0.909047
-400 291.457 -17.1945 -0 -0 -1 255 255 255 255 0.18424 0.646298
-312.488 324.268 -17.1945 -0 -0 -1 255 255 255 255 0.147784 0.659966
-385.557 280.032 -17.1945 -0 -0 -1 255 255 255 255 0.178223 0.641538
-187.513 341.41 -17.1945 0 -0 -1 255 255 255 255 0.095722 0.667107
-312.488 341.41 -17.1945 0 -0 -1 255 255 255 255 0.147784 0.667107
-100 291.457 -17.1945 0 -0 -1 255 255 255 255 0.059267 0.646298
-187.513 324.268 -17.1945 0 -0 -1 255 255 255 255 0.095722 0.659966
-23.6127 304.651 -23.8008 -0 -0 -1 255 255 255 255 0.017747 0.900871
-100 322.448 -23.8008 -0 -0 -1 255 255 255 255 0.052841 0.909047
-1.7e-05 322.448 -23.8008 -0 -0 -1 255 255 255 255 0.006899 0.909047
-400 304.651 -23.8008 0.247608 -0.433777 -0.86633 255 255 255 255 0.190668 0.900871
-312.488 341.41 -17.1945 0.247608 -0.433777 -0.86633 255 255 255 255 0.150463 0.917759
-400 291.457 -17.1945 0.247608 -0.433777 -0.86633 255 255 255 255 0.190668 0.894809
-187.513 354.576 -23.8008 0.016222 -0.567168 -0.823442 255 255 255 255 0.093047 0.923808
-312.488 341.41 -17.1945 0.016222 -0.567168 -0.823442 255 255 255 255 0.150463 0.917759
-320.895 350.761 -23.8008 0.016222 -0.567168 -0.823442 255 255 255 255 0.154326 0.922055
-100 304.651 -23.8008 -0.247873 -0.434486 -0.865899 255 255 255 255 0.052841 0.900871
-187.513 341.41 -17.1945 -0.247873 -0.434486 -0.865899 255 255 255 255 0.093047 0.917759
-187.513 354.576 -23.8008 -0.247873 -0.434486 -0.865899 255 255 255 255 0.093047 0.923808
-320.895 350.761 -23.8008 0 -0 -1 255 255 255 255 0.154326 0.922055
-400 304.651 -23.8008 0 -0 -1 255 255 255 255 0.190668 0.900871
-312.488 372.314 -23.8008 0 -0 -1 255 255 255 255 0.150463 0.931957
-187.513 354.576 -23.8008 0 -0 -1 255 255 255 255 0.093047 0.923808
-187.513 372.314 -23.8008 -0 -0 -1 255 255 255 255 0.093047 0.931957
-35.2444 291.457 -17.1945 -0.493862 -0 -0.869541 255 255 255 255 0.023091 0.894809
-23.6127 276.292 -23.8008 -0.493862 -0 -0.869541 255 255 255 255 0.017747 0.887842
-35.2444 184.382 -17.1945 -0.493862 -0 -0.869541 255 255 255 255 0.023091 0.845617
-464.683 291.457 -17.1945 0 -0.447719 -0.894174 255 255 255 255 0.220385 0.894809
-400 304.651 -23.8008 0 -0.447719 -0.894174 255 255 255 255 0.190668 0.900871
-400 291.457 -17.1945 0 -0.447719 -0.894174 255 255 255 255 0.190668 0.894809
-464.683 291.457 -17.1945 -0 -0 -1 255 255 255 255 0.211185 0.646298
-500 -4e-06 -23.8007 0 -0 -1 255 255 255 255 0.236611 0.760907
-464.683 291.457 -17.1945 0.448894 -0 -0.893585 255 255 255 255 0.220385 0.894809
-477.834 -4e-06 -23.8007 0.448894 -0 -0.893585 255 255 255 255 0.226427 0.760907
-477.834 304.651 -23.8008 0.448894 -0 -0.893585 255 255 255 255 0.226427 0.900871
-35.2444 291.457 -17.1945 -0 -0 -1 255 255 255 255 0.032291 0.646298
-35.2444 184.382 -17.1945 -0 -0 -1 255 255 255 255 0.032291 0.601693
-114.443 280.032 -17.1945 -0 -0 -1 255 255 255 255 0.065284 0.641538
-114.443 -3e-06 -17.1944 -0 -0 -1 255 255 255 255 0.065284 0.524883
-35.2444 -3e-06 -17.1944 0 -0 -1 255 255 255 255 0.032291 0.524883
-35.2444 291.457 -17.1945 -0 -0.447719 -0.894174 255 255 255 255 0.023091 0.894809
-100 304.651 -23.8008 -0 -0.447719 -0.894174 255 255 255 255 0.052841 0.900871
-23.6127 304.651 -23.8008 -0 -0.447719 -0.894174 255 255 255 255 0.017747 0.900871
-1.7e-05 -4e-06 -23.8007 -0 -0 -1 255 255 255 255 0.006899 0.760907
-23.6127 -4e-06 -23.8007 0 -0 -1 255 255 255 255 0.017747 0.760907
-23.6127 119.091 -23.8007 0 -0 -1 255 255 255 255 0.017747 0.81562
-23.6127 276.292 -23.8008 -4e-06 -0 -1 255 255 255 255 0.017747 0.887842
-23.6127 304.651 -23.8008 -4e-06 -0 -1 255 255 255 255 0.017747 0.900871
-15.7524 189.577 -23.8008 -4e-06 -0 -1 255 255 255 255 0.014136 0.848003
-23.6127 304.651 -23.8008 3.4e-05 2e-06 -1 255 255 255 255 0.017747 0.900871
-1.7e-05 -4e-06 -23.8007 3.4e-05 2e-06 -1 255 255 255 255 0.006899 0.760907
-15.7524 189.577 -23.8008 3.4e-05 2e-06 -1 255 255 255 255 0.014136 0.848003
-1.7e-05 -4e-06 -23.8007 -2e-06 -0 -1 255 255 255 255 0.006899 0.760907
-23.6127 119.091 -23.8007 -2e-06 -0 -1 255 255 255 255 0.017747 0.81562
-15.7524 189.577 -23.8008 -2e-06 -0 -1 255 255 255 255 0.014136 0.848003
-464.683 -3e-06 -17.1944 0 -0 -1 255 255 255 255 0.211185 0.524883
-385.557 250.141 -17.1945 0 -0 -1 255 255 255 255 0.178223 0.629086
-385.557 250.141 -17.1945 -1e-06 0 -1 255 255 255 255 0.178223 0.629086
-397.566 205.422 -17.1945 -1e-06 0 -1 255 255 255 255 0.183226 0.610458
-464.683 -3e-06 -17.1944 -1e-06 0 -1 255 255 255 255 0.211185 0.524883
-397.566 205.422 -17.1945 0 -0 -1 255 255 255 255 0.183226 0.610458
-385.557 143.137 -17.1945 0 -0 -1 255 255 255 255 0.178223 0.584511
-385.557 -3e-06 -17.1944 0 -0 -1 255 255 255 255 0.178223 0.524883
-1.7e-05 357.745 -30.5414 1 -0 -0 255 255 255 255 0.135786 0.925264
-1.7e-05 322.448 -23.8008 1 -0 -0 255 255 255 255 0.13269 0.909047
-1.7e-05 332.777 -30.5414 1 -0 -0 255 255 255 255 0.135786 0.913793
-500 357.745 -30.5414 -1 0 -0 255 255 255 255 0.107723 0.925264
-500 322.448 -23.8008 -1 0 -0 255 255 255 255 0.11082 0.909047
-500 373.064 -20.9301 -1 0 -0 255 255 255 255 0.112139 0.932302
-1.7e-05 373.064 20.93 0 0 1 255 255 255 255 0.004407 0.573113
-1.7e-05 460.636 20.93 0 0 1 255 255 255 255 0.004407 0.53288
-88.2675 373.064 20.93 0 0 1 255 255 255 255 0.044959 0.573113
-500 500 30.5412 0 0 1 255 255 255 255 0.236611 0.760908
-406.674 488.4 30.5412 0 0 1 255 255 255 255 0.193734 0.766237
-1.6e-05 500 30.5412 0 0 1 255 255 255 255 0.006899 0.760908
-306.544 475.955 30.5412 0 0 1 255 255 255 255 0.147732 0.771955
-193.456 475.955 30.5412 0 0 1 255 255 255 255 0.095778 0.771955
-411.733 373.064 20.93 -0 0 1 255 255 255 255 0.193566 0.573113
-323.044 460.636 20.93 -0 0 1 255 255 255 255 0.15282 0.53288
-500 460.636 20.93 -0 0 1 255 255 255 255 0.234118 0.53288
-176.956 460.636 20.93 -0 0 1 255 255 255 255 0.085705 0.53288
-176.956 420.565 20.93 -0 0 1 255 255 255 255 0.085705 0.551289
-407.314 357.745 30.5412 0 0 1 255 255 255 255 0.194029 0.826263
-500 332.777 30.5413 0 0 1 255 255 255 255 0.236611 0.837734
-400 332.777 30.5413 0 0 1 255 255 255 255 0.190669 0.837734
-481.114 475.955 30.5412 -0 0 1 255 255 255 255 0.227934 0.771955
-500 475.955 30.5412 -0 0 1 255 255 255 255 0.236611 0.771955
-312.488 382.643 30.5412 0 0 1 255 255 255 255 0.150463 0.814824
-354.71 384.035 30.5412 0 0 1 255 255 255 255 0.169861 0.814185
-1.7e-05 332.777 30.5413 0 0 1 255 255 255 255 0.006899 0.837734
-92.6857 357.745 30.5412 0 0 1 255 255 255 255 0.049481 0.826263
-100 332.777 30.5413 0 0 1 255 255 255 255 0.052841 0.837734
-193.456 411.718 30.5412 0 0 1 255 255 255 255 0.095778 0.801467
-187.513 382.643 30.5412 0 0 1 255 255 255 255 0.093047 0.814824
-180.959 405.024 30.5412 0 0 1 255 255 255 255 0.090036 0.804541
-141.142 367.609 30.5412 -0 0 1 255 255 255 255 0.071743 0.821731
-107.578 365.722 30.5412 0 0 1 255 255 255 255 0.056323 0.822598
-1.7e-05 475.955 30.5412 0 0 1 255 255 255 255 0.006899 0.771955
-306.544 411.718 30.5412 0 0 1 255 255 255 255 0.147732 0.801467
-1.7e-05 357.745 30.5412 0 0.531477 0.847072 255 255 255 255 0.004407 0.58015
-88.2675 373.064 20.93 0 0.531477 0.847072 255 255 255 255 0.044959 0.573113
-92.6857 357.745 30.5412 0 0.531477 0.847072 255 255 255 255 0.046989 0.58015
-193.456 411.718 30.5412 0.247778 0.46262 0.851228 255 255 255 255 0.093285 0.555354
-180.959 405.024 30.5412 0.247778 0.46262 0.851228 255 255 255 255 0.087544 0.558429
-176.956 420.565 20.93 0.247778 0.46262 0.851228 255 255 255 255 0.085705 0.551289
-92.6857 357.745 30.5412 0.247777 0.46262 0.851228 255 255 255 255 0.046989 0.58015
-88.2675 373.064 20.93 0.247777 0.46262 0.851228 255 255 255 255 0.044959 0.573113
-107.578 365.722 30.5412 0.247777 0.46262 0.851228 255 255 255 255 0.053831 0.576486
-180.959 405.024 30.5412 0.247777 0.462621 0.851228 255 255 255 255 0.087544 0.558429
-134.238 391.295 24.403 0.247777 0.462621 0.851228 255 255 255 255 0.066079 0.564737
-176.956 420.565 20.93 0.247777 0.462621 0.851228 255 255 255 255 0.085705 0.551289
-176.956 420.565 20.93 0.247778 0.462622 0.851227 255 255 255 255 0.085705 0.551289
-134.238 391.295 24.403 0.247778 0.462622 0.851227 255 255 255 255 0.066079 0.564737
-88.2675 373.064 20.93 0.247778 0.462622 0.851227 255 255 255 255 0.044959 0.573113
-134.238 391.295 24.403 0.247777 0.46262 0.851228 255 255 255 255 0.066079 0.564737
-193.456 411.718 30.5412 0.503334 0 0.864092 255 255 255 255 0.093285 0.555354
-176.956 460.636 20.93 0.503334 0 0.864092 255 255 255 255 0.085705 0.53288
-193.456 475.955 30.5412 0.503334 0 0.864092 255 255 255 255 0.093285 0.525842
-1.7e-05 475.955 30.5412 0 -0.531477 0.847073 255 255 255 255 0.004407 0.525842
-176.956 460.636 20.93 0 -0.531477 0.847073 255 255 255 255 0.085705 0.53288
-1.7e-05 460.636 20.93 0 -0.531477 0.847073 255 255 255 255 0.004407 0.53288
-411.733 373.064 20.93 -0 0.531477 0.847072 255 255 255 255 0.193566 0.573113
-500 357.745 30.5412 -0 0.531477 0.847072 255 255 255 255 0.234118 0.58015
-407.314 357.745 30.5412 -0 0.531477 0.847072 255 255 255 255 0.191537 0.58015
-306.544 475.955 30.5412 0 -0.531477 0.847073 255 255 255 255 0.14524 0.525842
-372.904 475.955 30.5412 0 -0.531477 0.847073 255 255 255 255 0.175728 0.525842
-323.044 460.636 20.93 0 -0.531477 0.847073 255 255 255 255 0.15282 0.53288
-500 475.955 30.5412 -0 -0.531477 0.847073 255 255 255 255 0.234118 0.525842
-500 460.636 20.93 -0 -0.531477 0.847073 255 255 255 255 0.234118 0.53288
-481.114 475.955 30.5412 -0 -0.531477 0.847073 255 255 255 255 0.225441 0.525842
-481.114 475.955 30.5412 0 -0.531477 0.847072 255 255 255 255 0.225441 0.525842
-500 460.636 20.93 0 -0.531477 0.847072 255 255 255 255 0.234118 0.53288
-413.272 464.982 23.6565 0 -0.531477 0.847072 255 255 255 255 0.194273 0.530883
-413.272 464.982 23.6565 0 -0.531477 0.847073 255 255 255 255 0.194273 0.530883
-323.044 460.636 20.93 -0.503335 0 0.864092 255 255 255 255 0.15282 0.53288
-306.544 411.718 30.5412 -0.503335 0 0.864092 255 255 255 255 0.14524 0.555354
-306.544 475.955 30.5412 -0.503335 0 0.864092 255 255 255 255 0.14524 0.525842
-323.044 420.565 20.93 -0.257863 0.448663 0.855692 255 255 255 255 0.15282 0.551289
-354.71 384.035 30.5412 -0.257863 0.448663 0.855692 255 255 255 255 0.167369 0.568072
-306.544 411.718 30.5412 -0.257863 0.448663 0.855692 255 255 255 255 0.14524 0.555354
-500 373.064 20.93 0 0 1 255 255 255 255 0.234118 0.573113
-500 322.448 23.8007 0 -0.546502 0.837458 255 255 255 255 0.236611 0.842479
-400 332.777 30.5413 0 -0.546502 0.837458 255 255 255 255 0.190669 0.837734
-500 332.777 30.5413 0 -0.546502 0.837458 255 255 255 255 0.236611 0.837734
-400 332.777 30.5413 0.297322 -0.521787 0.799586 255 255 255 255 0.190669 0.837734
-312.488 372.314 23.8006 0.297322 -0.521787 0.799586 255 255 255 255 0.150463 0.819569
-312.488 382.643 30.5412 0.297322 -0.521787 0.799586 255 255 255 255 0.150463 0.814824
-312.488 372.314 23.8006 0 -0.546501 0.837458 255 255 255 255 0.150463 0.819569
-187.513 382.643 30.5412 0 -0.546501 0.837458 255 255 255 255 0.093047 0.814824
-312.488 382.643 30.5412 0 -0.546501 0.837458 255 255 255 255 0.150463 0.814824
-187.513 372.314 23.8006 -0.297322 -0.521787 0.799586 255 255 255 255 0.093047 0.819569
-100 332.777 30.5413 -0.297322 -0.521787 0.799586 255 255 255 255 0.052841 0.837734
-187.513 382.643 30.5412 -0.297322 -0.521787 0.799586 255 255 255 255 0.093047 0.814824
-100 322.448 23.8007 0 -0.546502 0.837458 255 255 255 255 0.052841 0.842479
-1.7e-05 332.777 30.5413 0 -0.546502 0.837458 255 255 255 255 0.006899 0.837734
-100 332.777 30.5413 0 -0.546502 0.837458 255 255 255 255 0.052841 0.837734
-477.834 304.651 23.8007 -0 0 1 255 255 255 255 0.226427 0.850656
-400 322.448 23.8007 -0 0 1 255 255 255 255 0.190669 0.842479
-500 322.448 23.8007 -0 0 1 255 255 255 255 0.236611 0.842479
-400 291.457 17.1944 0 0 1 255 255 255 255 0.18424 0.611758
-312.488 324.268 17.1944 0 0 1 255 255 255 255 0.147784 0.59809
-312.488 341.41 17.1944 0 0 1 255 255 255 255 0.147784 0.590949
-187.513 341.41 17.1944 -0 0 1 255 255 255 255 0.095723 0.590949
-114.443 280.032 17.1944 -0 0 1 255 255 255 255 0.065284 0.616517
-100 291.457 17.1944 -0 0 1 255 255 255 255 0.059267 0.611758
-127.395 287.873 17.1944 -0 0 1 255 255 255 255 0.070679 0.613251
-187.513 324.268 17.1944 -0 0 1 255 255 255 255 0.095723 0.59809
-181.805 320.812 17.1944 -0 0 1 255 255 255 255 0.093345 0.599529
-148.957 312.756 17.1944 0 0 1 255 255 255 255 0.079661 0.602886
-100 322.448 23.8007 0 0 1 255 255 255 255 0.052841 0.842479
-23.6127 304.651 23.8007 0 0 1 255 255 255 255 0.017747 0.850656
-1.7e-05 322.448 23.8007 0 0 1 255 255 255 255 0.006899 0.842479
-400 304.651 23.8007 0.247873 -0.434485 0.865899 255 255 255 255 0.190669 0.850656
-312.488 341.41 17.1944 0.247873 -0.434485 0.865899 255 255 255 255 0.150463 0.833767
-312.488 354.576 23.8006 0.247873 -0.434485 0.865899 255 255 255 255 0.150463 0.827719
-312.488 341.41 17.1944 0.017019 -0.448417 0.893663 255 255 255 255 0.150463 0.833767
-191.226 359.179 23.8006 0.017019 -0.448417 0.893663 255 255 255 255 0.094753 0.825604
-312.488 354.576 23.8006 0.017019 -0.448417 0.893663 255 255 255 255 0.150463 0.827719
-187.513 341.41 17.1944 -0.227605 -0.380786 0.896213 255 255 255 255 0.093047 0.833767
-100 304.651 23.8007 -0.227605 -0.380786 0.896213 255 255 255 255 0.052841 0.850656
-191.226 359.179 23.8006 -0.227605 -0.380786 0.896213 255 255 255 255 0.094753 0.825604
-312.488 354.576 23.8006 -0 0 1 255 255 255 255 0.150463 0.827719
-312.488 372.314 23.8006 -0 0 1 255 255 255 255 0.150463 0.819569
-191.226 359.179 23.8006 0 0 1 255 255 255 255 0.094753 0.825604
-187.513 372.314 23.8006 0 0 1 255 255 255 255 0.093047 0.819569
-464.683 291.457 17.1944 0 -0.447719 0.894175 255 255 255 255 0.220385 0.856717
-400 304.651 23.8007 0 -0.447719 0.894175 255 255 255 255 0.190669 0.850656
-477.834 304.651 23.8007 0 -0.447719 0.894175 255 255 255 255 0.226427 0.850656
-312.488 324.268 17.1944 0.517883 -0.855452 0 255 255 255 255 0.114591 0.696569
-385.557 280.032 -17.1945 0.517883 -0.855452 0 255 255 255 255 0.128916 0.678142
-312.488 324.268 -17.1945 0.517883 -0.855452 0 255 255 255 255 0.128916 0.696569
-187.513 324.268 17.1944 0 -1 0 255 255 255 255 0.114591 0.655059
-312.488 324.268 -17.1945 0 -1 0 255 255 255 255 0.128916 0.602997
-187.513 324.268 -17.1945 0 -1 0 255 255 255 255 0.128916 0.655059
-114.443 280.032 -17.1945 -0.517882 -0.855452 -0 255 255 255 255 0.114591 0.678142
-114.443 280.032 17.1944 -0.517882 -0.855452 -0 255 255 255 255 0.128916 0.678142
-187.513 324.268 -17.1945 -0.517882 -0.855452 -0 255 255 255 255 0.114591 0.696569
-187.513 324.268 17.1944 -0.517881 -0.855453 0 255 255 255 255 0.128916 0.696569
-187.513 324.268 -17.1945 -0.517881 -0.855453 0 255 255 255 255 0.114591 0.696569
-181.805 320.812 17.1944 -0.517881 -0.855453 0 255 255 255 255 0.128916 0.695129
-181.805 320.812 17.1944 -0.517882 -0.855452 0 255 255 255 255 0.128916 0.695129
-149.234 301.094 0.940278 -0.517882 -0.855452 0 255 255 255 255 0.122145 0.686915
-187.513 324.268 -17.1945 -0.517891 -0.855446 2.4e-05 255 255 255 255 0.114591 0.696569
-114.443 280.032 17.1944 -0.517891 -0.855446 2.4e-05 255 255 255 255 0.128916 0.678142
-149.234 301.094 0.940278 -0.517891 -0.855446 2.4e-05 255 255 255 255 0.122145 0.686915
-114.443 280.032 17.1944 -0.517883 -0.855452 1e-06 255 255 255 255 0.128916 0.678142
-127.395 287.873 17.1944 -0.517883 -0.855452 1e-06 255 255 255 255 0.128916 0.681408
-149.234 301.094 0.940278 -0.517883 -0.855452 1e-06 255 255 255 255 0.122145 0.686915
-385.557 280.032 17.1944 -0 0 1 255 255 255 255 0.178223 0.616517
-464.683 291.457 17.1944 -0 0 1 255 255 255 255 0.211186 0.611758
-100 304.651 23.8007 0 -0.447719 0.894174 255 255 255 255 0.052841 0.850656
-35.2444 291.457 17.1944 0 -0.447719 0.894174 255 255 255 255 0.023091 0.856717
-23.6127 304.651 23.8007 0 -0.447719 0.894174 255 255 255 255 0.017747 0.850656
-35.2444 291.457 17.1944 -0 0 1 255 255 255 255 0.032291 0.611758
-1.7e-05 4e-06 23.8007 0 -1 0 255 255 255 255 0.11082 0.902052
-23.6127 -4e-06 -23.8007 0 -1 0 255 255 255 255 0.13269 0.891204
-1.7e-05 -4e-06 -23.8007 0 -1 0 255 255 255 255 0.13269 0.902052
-385.557 3e-06 17.1944 0 -1 0 255 255 255 255 0.114591 0.652865
-464.683 -3e-06 -17.1944 0 -1 0 255 255 255 255 0.128916 0.619903
-385.557 -3e-06 -17.1944 0 -1 0 255 255 255 255 0.128916 0.652865
-1.7e-05 357.745 30.5412 1 0 -0 255 255 255 255 0.107723 0.925264
-1.7e-05 322.448 23.8007 1 0 -0 255 255 255 255 0.11082 0.909047
-1.7e-05 373.064 20.93 1 0 -0 255 255 255 255 0.112139 0.932302
-500 322.448 23.8007 -1 -0 0 255 255 255 255 0.132689 0.909047
-500 357.745 30.5412 -1 -0 0 255 255 255 255 0.135786 0.925264
-500 373.064 20.93 -1 -0 0 255 255 255 255 0.131371 0.932302
-500 475.955 30.5412 -1 0 0 255 255 255 255 0.135786 0.979572
-500 500 -30.5414 -1 0 0 255 255 255 255 0.107723 0.990619
-500 475.955 -30.5414 -1 0 0 255 255 255 255 0.107723 0.979572
-1.6e-05 500 30.5412 1 -0 0 255 255 255 255 0.107723 0.990619
-1.7e-05 475.955 -30.5414 1 -0 0 255 255 255 255 0.135786 0.979572
-1.6e-05 500 -30.5414 1 -0 0 255 255 255 255 0.135786 0.990619
-1.7e-05 460.636 20.93 1 0 -0 255 255 255 255 0.112139 0.972534
-1.7e-05 373.064 -20.9301 1 0 -0 255 255 255 255 0.131371 0.932302
-1.7e-05 460.636 -20.9301 1 0 -0 255 255 255 255 0.131371 0.972534
-1.7e-05 475.955 30.5412 1 0 0 255 255 255 255 0.107723 0.979572
-35.2444 3e-06 17.1944 0 -1 0 255 255 255 255 0.114591 0.638183
-114.443 -3e-06 -17.1944 0 -1 0 255 255 255 255 0.128916 0.605191
-35.2444 -3e-06 -17.1944 0 -1 0 255 255 255 255 0.128916 0.638183
-23.6127 4e-06 23.8007 0 -1 0 255 255 255 255 0.11082 0.891204
-35.2444 -3e-06 -17.1944 0 -1 0 255 255 255 255 0.129654 0.88586
-464.683 3e-06 17.1944 -0 -1 0 255 255 255 255 0.113855 0.8657
-477.834 -4e-06 -23.8007 -0 -1 0 255 255 255 255 0.132689 0.859658
-464.683 -3e-06 -17.1944 -0 -1 0 255 255 255 255 0.129654 0.8657
-500 4e-06 23.8007 0 -1 0 255 255 255 255 0.11082 0.849474
-477.834 4e-06 23.8007 0 -1 0 255 255 255 255 0.11082 0.859658
-500 460.636 -20.9301 -1 0 0 255 255 255 255 0.112139 0.972534
-500 460.636 20.93 -1 2e-06 0 255 255 255 255 0.131371 0.972534
-500 475.955 -30.5414 -1 2e-06 0 255 255 255 255 0.107723 0.979572
-500 460.636 -20.9301 -1 2e-06 0 255 255 255 255 0.112139 0.972534
-500 500 -30.5414 0 1 -0 255 255 255 255 0.107723 0.760908
-1.6e-05 500 30.5412 0 1 -0 255 255 255 255 0.135786 0.990619
-1.6e-05 500 -30.5414 0 1 -0 255 255 255 255 0.107723 0.990619
-1.7e-05 4e-06 23.8007 1 0 0 255 255 255 255 0.11082 0.760907
-23.6127 4e-06 23.8007 0 0 1 255 255 255 255 0.017747 0.990619
-1.7e-05 4e-06 23.8007 0 0 1 255 255 255 255 0.006899 0.990619
-23.6127 133.629 23.8007 0 0 1 255 255 255 255 0.017747 0.929227
-23.6127 253.335 23.8007 0 0 1 255 255 255 255 0.017747 0.874231
-12.5038 202.962 23.8007 0 0 1 255 255 255 255 0.012644 0.897374
-35.2444 3e-06 17.1944 0 0 1 255 255 255 255 0.032291 0.733172
-114.443 280.032 -17.1945 -1 -0 -0 255 255 255 255 0.114591 0.678142
-114.443 3e-06 17.1944 -1 -0 -0 255 255 255 255 0.128916 0.561487
-114.443 280.032 17.1944 -1 -0 -0 255 255 255 255 0.128916 0.678142
-23.6127 304.651 23.8007 -0.493862 0 0.869541 255 255 255 255 0.017747 0.850656
-35.2444 291.457 17.1944 -0.493862 0 0.869541 255 255 255 255 0.023091 0.856717
-23.6127 253.335 23.8007 -0.493862 0 0.869541 255 255 255 255 0.017747 0.874231
-35.2444 3e-06 17.1944 -0.493862 0 0.869541 255 255 255 255 0.023091 0.990619
-23.6127 4e-06 23.8007 -0.493862 0 0.869541 255 255 255 255 0.017747 0.990619
-23.6127 253.335 23.8007 -0.493861 0 0.869541 255 255 255 255 0.017747 0.874231
-35.2444 291.457 17.1944 -0.493861 0 0.869541 255 255 255 255 0.023091 0.856717
-31.0775 196.176 19.561 -0.493861 0 0.869541 255 255 255 255 0.021177 0.900491
-35.2444 291.457 17.1944 -0.493873 -0 0.869534 255 255 255 255 0.023091 0.856717
-23.6127 4e-06 23.8007 -0.493873 -0 0.869534 255 255 255 255 0.017747 0.990619
-31.0775 196.176 19.561 -0.493873 -0 0.869534 255 255 255 255 0.021177 0.900491
-23.6127 4e-06 23.8007 -0.493861 0 0.869541 255 255 255 255 0.017747 0.990619
-23.6127 133.629 23.8007 -0.493861 0 0.869541 255 255 255 255 0.017747 0.929227
-385.557 280.032 -17.1945 1 -0 0 255 255 255 255 0.128916 0.678142
-385.557 280.032 17.1944 1 -0 0 255 255 255 255 0.114591 0.678142
-385.557 250.141 -17.1945 1 -0 0 255 255 255 255 0.128916 0.66569
-385.557 3e-06 17.1944 1 0 -0 255 255 255 255 0.114591 0.561487
-385.557 -3e-06 -17.1944 1 0 -0 255 255 255 255 0.128916 0.561487
-385.557 143.137 -17.1945 1 0 0 255 255 255 255 0.128916 0.621114
-385.557 204.706 -1.84405 1 0 0 255 255 255 255 0.122521 0.646762
-464.683 3e-06 17.1944 -0 0 1 255 255 255 255 0.211186 0.733172
-477.834 4e-06 23.8007 0.448894 0 0.893585 255 255 255 255 0.226427 0.990619
-464.683 291.457 17.1944 0.448894 0 0.893585 255 255 255 255 0.220385 0.856717
-477.834 304.651 23.8007 0.448894 0 0.893585 255 255 255 255 0.226427 0.850656
-500 4e-06 23.8007 -0 0 1 255 255 255 255 0.236611 0.990619
-500 -4e-06 -23.8007 -1 -0 0 255 255 255 255 0.11082 0.760907
-450.164 469.492 -26.4864 -0.030674 -0.239116 -0.970506 255 255 255 255 0.213715 0.976603
-450.915 486.046 -30.5414 -0.030674 -0.239116 -0.970506 255 255 255 255 0.21406 0.984208
-372.248 475.955 -30.5414 -0.030674 -0.239116 -0.970506 255 255 255 255 0.177919 0.979572
-372.248 475.955 -30.5414 0.082665 -0.996577 0 255 255 255 255 0.123963 0.890016
-450.164 469.492 -26.4863 0.082665 -0.996577 0 255 255 255 255 0.1221 0.85422
-450.164 469.492 -26.4864 0.082665 -0.996577 0 255 255 255 255 0.1221 0.85422
-450.164 469.492 -26.4864 -0.168778 -0.985654 -0 255 255 255 255 0.1221 0.85422
-450.164 469.492 -26.4863 -0.168778 -0.985654 -0 255 255 255 255 0.1221 0.85422
-487.908 475.955 -30.5414 -0.168778 -0.985654 -0 255 255 255 255 0.123963 0.836879
-487.908 475.955 -30.5414 0.06402 -0.234689 -0.96996 255 255 255 255 0.231055 0.979572
-450.915 486.046 -30.5414 0.06402 -0.234689 -0.96996 255 255 255 255 0.21406 0.984208
-450.164 469.492 -26.4864 0.06402 -0.234689 -0.96996 255 255 255 255 0.213715 0.976603
-227.517 375.296 -25.7468 -0.081297 -0.285449 -0.95494 255 255 255 255 0.111426 0.933327
-235.424 393.587 -30.5414 -0.081297 -0.285449 -0.95494 255 255 255 255 0.115058 0.941731
-196.997 382.643 -30.5414 -0.081297 -0.285449 -0.95494 255 255 255 255 0.097404 0.936702
-260.943 382.643 -30.5414 0.092203 -0.214991 -0.972254 255 255 255 255 0.126782 0.936702
-235.424 393.587 -30.5414 0.092203 -0.214991 -0.972254 255 255 255 255 0.115058 0.941731
-227.517 375.296 -25.7468 0.092203 -0.214991 -0.972254 255 255 255 255 0.111426 0.933327
-385.557 204.706 -1.84405 0.766088 -0.205728 -0.608922 255 255 255 255 0.122521 0.646762
-397.566 205.422 -17.1945 0.766088 -0.205728 -0.608922 255 255 255 255 0.128916 0.647061
-385.557 250.141 -17.1945 0.766088 -0.205728 -0.608922 255 255 255 255 0.128916 0.66569
-385.557 143.137 -17.1945 0.782014 0.150776 -0.604749 255 255 255 255 0.128916 0.621114
-397.566 205.422 -17.1945 0.782014 0.150776 -0.604749 255 255 255 255 0.128916 0.647061
-385.557 204.706 -1.84405 0.782014 0.150776 -0.604749 255 255 255 255 0.122521 0.646762
-31.0775 196.176 19.561 -0.206467 -0.045532 0.977394 255 255 255 255 0.021177 0.900491
-12.5038 202.962 23.8007 -0.206467 -0.045532 0.977394 255 255 255 255 0.012644 0.897374
-23.6127 253.335 23.8007 -0.206467 -0.045532 0.977394 255 255 255 255 0.017747 0.874231
-23.6127 133.629 23.8007 -0.23546 0.037727 0.971151 255 255 255 255 0.017747 0.929227
-12.5038 202.962 23.8007 -0.23546 0.037727 0.971151 255 255 255 255 0.012644 0.897374
-31.0775 196.176 19.561 -0.23546 0.037727 0.971151 255 255 255 255 0.021177 0.900491
-180.959 405.024 30.5412 0.18412 0.195941 0.963175 255 255 255 255 0.090036 0.804541
-141.142 367.609 30.5412 0.18412 0.195941 0.963175 255 255 255 255 0.071743 0.821731
-134.238 391.295 24.403 0.18412 0.195941 0.963175 255 255 255 255 0.068572 0.810849
-134.238 391.295 24.403 0.013891 0.24704 0.968906 255 255 255 255 0.068572 0.810849
-141.142 367.609 30.5412 0.013891 0.24704 0.968906 255 255 255 255 0.071743 0.821731
-107.578 365.722 30.5412 0.013891 0.24704 0.968906 255 255 255 255 0.056323 0.822598
-372.904 475.955 30.5412 0 0 1 255 255 255 255 0.17822 0.771955
-406.674 488.4 30.5412 0.04923 -0.294454 0.954397 255 255 255 255 0.193734 0.766237
-481.114 475.955 30.5412 0.04923 -0.294454 0.954397 255 255 255 255 0.227934 0.771955
-413.272 464.982 23.6564 0.04923 -0.294454 0.954397 255 255 255 255 0.196766 0.776996
-481.114 475.955 30.5412 0.159667 0.987171 -0 255 255 255 255 0.123336 0.850906
-413.272 464.982 23.6565 0.159667 0.987171 -0 255 255 255 255 0.120173 0.882074
-413.272 464.982 23.6564 0.159667 0.987171 -0 255 255 255 255 0.120173 0.882074
-413.272 464.982 23.6564 -0.262305 0.964985 0 255 255 255 255 0.120173 0.882074
-413.272 464.982 23.6565 -0.262305 0.964985 0 255 255 255 255 0.120173 0.882074
-372.904 475.955 30.5412 -0.262305 0.964985 0 255 255 255 255 0.123336 0.90062
-406.674 488.4 30.5412 -0.094426 -0.256215 0.961997 255 255 255 255 0.193734 0.766237
-413.272 464.982 23.6564 -0.094426 -0.256215 0.961997 255 255 255 255 0.196766 0.776996
-372.904 475.955 30.5412 -0.094426 -0.256215 0.961997 255 255 255 255 0.17822 0.771955
-149.234 301.094 0.940381 -0.517882 -0.855452 0 255 255 255 255 0.122187 0.939605
-149.234 301.094 0.940278 -0.517882 -0.855452 0 255 255 255 255 0.122187 0.939605
-127.395 287.873 17.1944 -0.517882 -0.855452 0 255 255 255 255 0.129654 0.933531
-127.395 287.873 17.1944 -0.68059 -0.589753 0.434728 255 255 255 255 0.129654 0.933531
-148.957 312.756 17.1944 -0.68059 -0.589753 0.434728 255 255 255 255 0.129654 0.944962
-149.234 301.094 0.940381 -0.68059 -0.589753 0.434728 255 255 255 255 0.122187 0.939605
-149.234 301.094 0.940381 -0.195066 -0.795324 0.573941 255 255 255 255 0.079776 0.607743
-148.957 312.756 17.1944 -0.195066 -0.795324 0.573941 255 255 255 255 0.079661 0.602886
-181.805 320.812 17.1944 -0.195066 -0.795324 0.573941 255 255 255 255 0.093345 0.599529
-149.234 301.094 0.940381 -0.517882 -0.855452 -0 255 255 255 255 0.122145 0.686915
-398.507 358.938 30.5412 -0.069813 0.515655 0.853947 255 255 255 255 0.18749 0.579603
-411.733 373.064 20.93 -0.069813 0.515655 0.853947 255 255 255 255 0.193566 0.573113
-407.314 357.745 30.5412 -0.069813 0.515655 0.853947 255 255 255 255 0.191537 0.58015
-398.507 358.938 30.5412 -0 0 1 255 255 255 255 0.189983 0.825715
-354.71 384.035 30.5412 -0.226014 0.394417 0.890703 255 255 255 255 0.167369 0.568072
-411.733 373.064 20.93 -0.226014 0.394417 0.890703 255 255 255 255 0.193566 0.573113
-398.507 358.938 30.5412 -0.226014 0.394417 0.890703 255 255 255 255 0.18749 0.579603
-23.6127 119.091 -23.8007 -0.493862 -0 -0.869541 255 255 255 255 0.017747 0.81562
-35.2444 -3e-06 -17.1944 -0.493862 -0 -0.869541 255 255 255 255 0.023091 0.760907
-35.2444 184.382 -17.1945 -0.314048 -0.028466 -0.94898 255 255 255 255 0.023091 0.845617
-23.6127 276.292 -23.8008 -0.314048 -0.028466 -0.94898 255 255 255 255 0.017747 0.887842
-15.7524 189.577 -23.8008 -0.314048 -0.028466 -0.94898 255 255 255 255 0.014136 0.848003
-35.2444 184.382 -17.1945 -0.329544 0.036749 -0.943425 255 255 255 255 0.023091 0.845617
-15.7524 189.577 -23.8008 -0.329544 0.036749 -0.943425 255 255 255 255 0.014136 0.848003
-23.6127 119.091 -23.8007 -0.329544 0.036749 -0.943425 255 255 255 255 0.017747 0.81562
-323.044 420.565 -20.9301 -0 -0 -1 255 255 255 255 0.15282 0.708013
-176.956 420.565 -20.9301 0 -0 -1 255 255 255 255 0.085705 0.708013
-500 357.745 -30.5414 -0 -0 -1 255 255 255 255 0.236611 0.925264
-92.6857 357.745 -30.5414 0 0.531477 -0.847073 255 255 255 255 0.046989 0.679151
-92.6857 357.745 -30.5414 0.247777 0.462621 -0.851228 255 255 255 255 0.046989 0.679151
-193.456 411.718 -30.5414 0.247777 0.462621 -0.851228 255 255 255 255 0.093285 0.703948
-176.956 420.565 -20.9301 0.247777 0.462621 -0.851228 255 255 255 255 0.085705 0.708013
-193.456 411.718 -30.5414 0.503334 -0 -0.864092 255 255 255 255 0.093285 0.703948
-193.456 475.955 -30.5414 0.503334 -0 -0.864092 255 255 255 255 0.093285 0.73346
-176.956 460.636 -20.9301 0.503334 -0 -0.864092 255 255 255 255 0.085705 0.726422
-193.456 475.955 -30.5414 -0 -0.531478 -0.847072 255 255 255 255 0.093285 0.73346
-500 373.064 -20.9301 0 0.531477 -0.847073 255 255 255 255 0.234118 0.686189
-306.544 411.718 -30.5414 -0.503334 0 -0.864092 255 255 255 255 0.14524 0.703948
-323.044 420.565 -20.9301 -0.503334 0 -0.864092 255 255 255 255 0.15282 0.708013
-323.044 460.636 -20.9301 -0.503334 0 -0.864092 255 255 255 255 0.15282 0.726422
-407.314 357.745 -30.5414 -0.247777 0.46262 -0.851228 255 255 255 255 0.191536 0.679151
-411.733 373.064 -20.9301 -0.247777 0.46262 -0.851228 255 255 255 255 0.193566 0.686189
-323.044 420.565 -20.9301 -0.247777 0.46262 -0.851228 255 255 255 255 0.15282 0.708013
-400 322.448 -23.8008 0 -0.546502 -0.837458 255 255 255 255 0.190668 0.909047
-312.488 382.643 -30.5414 0.297322 -0.521787 -0.799586 255 255 255 255 0.150463 0.936702
-100 322.448 -23.8008 -0.297321 -0.521787 -0.799586 255 255 255 255 0.052841 0.909047
-1.7e-05 322.448 -23.8008 0 -0.546502 -0.837458 255 255 255 255 0.006899 0.909047
-100 304.651 -23.8008 0 -0 -1 255 255 255 255 0.052841 0.900871
-400 304.651 -23.8008 0.238098 -0.40847 -0.881171 255 255 255 255 0.190668 0.900871
-320.895 350.761 -23.8008 0.238098 -0.40847 -0.881171 255 255 255 255 0.154326 0.922055
-312.488 341.41 -17.1945 0.238098 -0.40847 -0.881171 255 255 255 255 0.150463 0.917759
-187.513 354.576 -23.8008 0 -0.448482 -0.893792 255 255 255 255 0.093047 0.923808
-187.513 341.41 -17.1945 0 -0.448482 -0.893792 255 255 255 255 0.093047 0.917759
-312.488 341.41 -17.1945 0 -0.448482 -0.893792 255 255 255 255 0.150463 0.917759
-100 304.651 -23.8008 -0.247608 -0.433777 -0.86633 255 255 255 255 0.052841 0.900871
-100 291.457 -17.1945 -0.247608 -0.433777 -0.86633 255 255 255 255 0.052841 0.894809
-187.513 341.41 -17.1945 -0.247608 -0.433777 -0.86633 255 255 255 255 0.093047 0.917759
-23.6127 304.651 -23.8008 -0.493862 -0 -0.869541 255 255 255 255 0.017747 0.900871
-477.834 304.651 -23.8008 -0 -0.447719 -0.894174 255 255 255 255 0.226427 0.900871
-477.834 -4e-06 -23.8007 0 -0 -1 255 255 255 255 0.226427 0.760907
-464.683 -3e-06 -17.1944 0.448894 -0 -0.893585 255 255 255 255 0.220385 0.760907
-100 291.457 -17.1945 0 -0.447719 -0.894174 255 255 255 255 0.052841 0.894809
-500 332.777 -30.5414 -1 0 0 255 255 255 255 0.107723 0.913793
-323.044 420.565 20.93 0 0 1 255 255 255 255 0.15282 0.551289
-500 357.745 30.5412 -0 0 1 255 255 255 255 0.236611 0.826263
-1.7e-05 357.745 30.5412 0 0 1 255 255 255 255 0.006899 0.826263
-1.7e-05 357.745 30.5412 -0 0.531477 0.847073 255 255 255 255 0.004407 0.58015
-1.7e-05 373.064 20.93 -0 0.531477 0.847073 255 255 255 255 0.004407 0.573113
-88.2675 373.064 20.93 -0 0.531477 0.847073 255 255 255 255 0.044959 0.573113
-193.456 411.718 30.5412 0.503335 -0 0.864092 255 255 255 255 0.093285 0.555354
-176.956 420.565 20.93 0.503335 -0 0.864092 255 255 255 255 0.085705 0.551289
-176.956 460.636 20.93 0.503335 -0 0.864092 255 255 255 255 0.085705 0.53288
-193.456 475.955 30.5412 0 -0.531477 0.847073 255 255 255 255 0.093285 0.525842
-500 373.064 20.93 -0 0.531477 0.847072 255 255 255 255 0.234118 0.573113
-323.044 460.636 20.93 -0.503334 1e-06 0.864092 255 255 255 255 0.15282 0.53288
-323.044 420.565 20.93 -0.503334 1e-06 0.864092 255 255 255 255 0.15282 0.551289
-306.544 411.718 30.5412 -0.503334 1e-06 0.864092 255 255 255 255 0.14524 0.555354
-323.044 420.565 20.93 -0.229786 0.42903 0.873574 255 255 255 255 0.15282 0.551289
-411.733 373.064 20.93 -0.229786 0.42903 0.873574 255 255 255 255 0.193566 0.573113
-354.71 384.035 30.5412 -0.229786 0.42903 0.873574 255 255 255 255 0.167369 0.568072
-400 322.448 23.8007 0 -0.546502 0.837458 255 255 255 255 0.190669 0.842479
-400 322.448 23.8007 0.297322 -0.521787 0.799586 255 255 255 255 0.190669 0.842479
-187.513 372.314 23.8006 0 -0.546501 0.837458 255 255 255 255 0.093047 0.819569
-100 322.448 23.8007 -0.297322 -0.521787 0.799586 255 255 255 255 0.052841 0.842479
-1.7e-05 322.448 23.8007 0 -0.546502 0.837458 255 255 255 255 0.006899 0.842479
-400 304.651 23.8007 0 0 1 255 255 255 255 0.190669 0.850656
-100 304.651 23.8007 0 0 1 255 255 255 255 0.052841 0.850656
-400 304.651 23.8007 0.247608 -0.433777 0.86633 255 255 255 255 0.190669 0.850656
-400 291.457 17.1944 0.247608 -0.433777 0.86633 255 255 255 255 0.190669 0.856717
-312.488 341.41 17.1944 0.247608 -0.433777 0.86633 255 255 255 255 0.150463 0.833767
-312.488 341.41 17.1944 0 -0.348497 0.93731 255 255 255 255 0.150463 0.833767
-187.513 341.41 17.1944 0 -0.348497 0.93731 255 255 255 255 0.093047 0.833767
-191.226 359.179 23.8006 0 -0.348497 0.93731 255 255 255 255 0.094753 0.825604
-187.513 341.41 17.1944 -0.247608 -0.433777 0.86633 255 255 255 255 0.093047 0.833767
-100 291.457 17.1944 -0.247608 -0.433777 0.86633 255 255 255 255 0.052841 0.856717
-100 304.651 23.8007 -0.247608 -0.433777 0.86633 255 255 255 255 0.052841 0.850656
-400 291.457 17.1944 0 -0.447719 0.894175 255 255 255 255 0.190669 0.856717
-385.557 280.032 17.1944 0.517883 -0.855452 0 255 255 255 255 0.114591 0.678142
-312.488 324.268 17.1944 0 -1 0 255 255 255 255 0.114591 0.602997
-100 304.651 23.8007 0 -0.447719 0.894175 255 255 255 255 0.052841 0.850656
-100 291.457 17.1944 0 -0.447719 0.894175 255 255 255 255 0.052841 0.856717
-35.2444 291.457 17.1944 0 -0.447719 0.894175 255 255 255 255 0.023091 0.856717
-464.683 3e-06 17.1944 0 -1 0 255 255 255 255 0.114591 0.619903
-1.7e-05 332.777 30.5413 1 -0 0 255 255 255 255 0.107723 0.913793
-500 332.777 30.5413 -1 -0 0 255 255 255 255 0.135786 0.913793
-500 500 30.5412 -1 0 0 255 255 255 255 0.135786 0.990619
-114.443 3e-06 17.1944 0 -1 0 255 255 255 255 0.114591 0.605191
-35.2444 3e-06 17.1944 0 -1 0 255 255 255 255 0.113855 0.88586
-500 -4e-06 -23.8007 0 -1 0 255 255 255 255 0.132689 0.849474
-500 460.636 20.93 -1 0 0 255 255 255 255 0.131371 0.972534
-500 475.955 30.5412 -1 2e-06 0 255 255 255 255 0.135786 0.979572
-500 500 30.5412 0 1 0 255 255 255 255 0.135786 0.760908
-1.7e-05 -4e-06 -23.8007 1 0 -0 255 255 255 255 0.13269 0.760907
-114.443 3e-06 17.1944 0 0 1 255 255 255 255 0.065284 0.733172
-114.443 -3e-06 -17.1944 -1 0 -0 255 255 255 255 0.114591 0.561487
-385.557 3e-06 17.1944 0 0 1 255 255 255 255 0.178223 0.733172
-464.683 3e-06 17.1944 0.448894 0 0.893585 255 255 255 255 0.220385 0.990619
-477.834 4e-06 23.8007 0 0 1 255 255 255 255 0.226427 0.990619
-500 4e-06 23.8007 -1 -0 0 255 255 255 255 0.132689 0.760907
-23.6127 -4e-06 -23.8007 -0.493862 -0 -0.869541 255 255 255 255 0.017747 0.760907
3 0 1 2 
3 3 4 5 
3 6 7 8 
3 1 9 2 
3 10 11 12 
3 3 13 14 
3 13 15 14 
3 16 14 17 
3 14 15 17 
3 18 11 19 
3 20 21 22 
3 23 21 24 
3 5 4 25 
3 26 3 5 
3 23 27 26 
3 18 19 28 
3 19 26 28 
3 29 30 31 
3 27 32 26 
3 33 34 35 
3 36 37 38 
3 39 40 41 
3 42 43 44 
3 45 46 47 
3 48 49 50 
3 49 51 50 
3 52 53 54 
3 55 56 57 
3 57 56 58 
3 59 60 61 
3 62 63 64 
3 7 65 8 
3 66 67 68 
3 69 70 71 
3 72 73 74 
3 75 76 77 
3 78 79 80 
3 81 82 83 
3 84 85 86 
3 87 88 89 
3 90 91 92 
3 93 94 95 
3 96 97 98 
3 99 97 100 
3 101 102 99 
3 103 104 105 
3 106 107 108 
3 109 110 111 
3 112 113 114 
3 93 115 116 
3 117 118 115 
3 104 118 119 
3 120 121 122 
3 123 124 125 
3 98 126 96 
3 94 127 95 
3 128 129 130 
3 131 132 133 
3 133 132 134 
3 132 135 134 
3 136 137 138 
3 105 139 103 
3 140 141 139 
3 142 143 144 
3 145 146 147 
3 148 149 150 
3 126 98 151 
3 98 152 151 
3 153 154 155 
3 156 157 151 
3 157 158 151 
3 131 133 101 
3 159 160 161 
3 162 163 164 
3 165 166 167 
3 168 169 170 
3 169 171 170 
3 172 170 171 
3 173 174 175 
3 167 176 177 
3 178 179 180 
3 181 168 182 
3 183 184 180 
3 185 186 187 
3 188 189 190 
3 190 189 191 
3 189 187 191 
3 191 187 192 
3 187 186 192 
3 172 193 170 
3 188 171 194 
3 189 194 183 
3 195 196 197 
3 198 199 200 
3 201 202 203 
3 204 205 206 
3 207 208 209 
3 202 210 203 
3 211 212 213 
3 214 215 216 
3 217 218 219 
3 220 221 222 
3 223 224 225 
3 226 227 228 
3 224 222 229 
3 222 221 229 
3 230 231 232 
3 233 234 235 
3 173 175 236 
3 237 238 239 
3 240 241 242 
3 243 244 245 
3 246 247 248 
3 249 250 251 
3 252 253 254 
3 255 256 257 
3 256 258 257 
3 259 260 261 
3 262 263 258 
3 263 264 258 
3 258 264 260 
3 264 261 260 
3 265 266 267 
3 268 269 270 
3 271 272 273 
3 274 275 276 
3 253 277 278 
3 278 279 280 
3 279 265 280 
3 281 282 283 
3 284 285 286 
3 287 288 289 
3 290 291 292 
3 293 294 295 
3 296 292 297 
3 298 299 300 
3 301 302 303 
3 304 255 305 
3 306 307 308 
3 309 260 259 
3 310 311 312 
3 313 314 315 
3 316 317 318 
3 319 320 321 
3 322 323 324 
3 325 326 327 
3 328 329 330 
3 328 326 331 
3 318 160 329 
3 332 333 334 
3 335 336 311 
3 337 338 339 
3 340 338 341 
3 319 164 163 
3 321 342 164 
3 343 344 345 
3 346 347 348 
3 349 160 317 
3 350 351 352 
3 266 353 267 
3 352 351 354 
3 351 267 354 
3 353 354 267 
3 259 355 309 
3 356 357 358 
3 359 360 361 
3 362 363 360 
3 364 365 366 
3 367 368 369 
3 370 371 366 
3 372 373 374 
3 375 376 373 
3 376 377 373 
3 377 378 373 
3 373 378 374 
3 379 304 305 
3 380 381 382 
3 383 252 254 
3 384 319 163 
3 385 386 387 
3 388 389 390 
3 391 392 393 
3 394 395 396 
3 397 398 399 
3 400 401 402 
3 403 404 405 
3 406 407 408 
3 409 410 411 
3 412 413 414 
3 415 416 417 
3 418 419 420 
3 169 421 171 
3 422 423 424 
3 425 426 427 
3 428 429 430 
3 431 432 433 
3 434 435 436 
3 437 438 439 
3 440 441 442 
3 296 297 443 
3 444 445 446 
3 180 447 178 
3 448 449 450 
3 180 184 447 
3 451 452 122 
3 453 454 455 
3 456 457 458 
3 3 14 4 
3 6 459 7 
3 1 460 9 
3 10 461 11 
3 18 12 11 
3 20 24 21 
3 23 26 21 
3 26 19 3 
3 33 462 34 
3 463 464 465 
3 466 467 468 
3 42 469 43 
3 45 470 46 
3 471 472 473 
3 474 475 476 
3 66 477 67 
3 69 478 70 
3 87 479 88 
3 90 480 91 
3 93 116 94 
3 96 100 97 
3 99 102 97 
3 101 133 102 
3 103 481 104 
3 482 483 484 
3 485 486 487 
3 488 489 490 
3 93 117 115 
3 117 119 118 
3 104 481 118 
3 120 491 121 
3 123 492 124 
3 94 493 127 
3 128 494 129 
3 136 495 137 
3 159 329 160 
3 162 496 163 
3 173 497 174 
3 167 166 176 
3 178 498 179 
3 181 169 168 
3 183 194 184 
3 185 499 186 
3 188 172 171 
3 189 188 194 
3 500 501 502 
3 503 504 505 
3 214 506 215 
3 217 507 218 
3 508 509 510 
3 511 512 513 
3 237 514 238 
3 240 515 241 
3 243 516 244 
3 246 517 247 
3 249 518 250 
3 252 519 253 
3 255 304 256 
3 256 262 258 
3 265 520 266 
3 521 522 523 
3 524 525 526 
3 527 528 529 
3 253 519 277 
3 278 277 279 
3 279 520 265 
3 281 530 282 
3 284 531 285 
3 287 532 288 
3 533 534 535 
3 310 335 311 
3 313 536 314 
3 316 537 317 
3 319 538 320 
3 322 539 323 
3 325 331 326 
3 328 318 329 
3 328 330 326 
3 318 317 160 
3 332 540 333 
3 335 541 336 
3 337 341 338 
3 340 542 338 
3 319 321 164 
3 321 543 342 
3 343 544 344 
3 346 545 347 
3 349 546 160 
3 259 547 355 
3 356 548 357 
3 379 549 304 
3 380 550 381 
3 383 551 252 
3 384 552 319 
3 451 553 452 
