ply
format ascii 1.0
comment VCGLIB generated
comment TextureFile Dungeons_2_Texture_01_A.png
element vertex 165
property float x
property float y
property float z
property float nx
property float ny
property float nz
property uchar red
property uchar green
property uchar blue
property uchar alpha
property float texture_u
property float texture_v
element face 88
property list uchar int vertex_indices
end_header
-125.013 350 -31.1954 -0 -0 -1 255 255 255 255 0.065428 0.911464
-250 500 -31.1954 -0 -0 -1 255 255 255 255 0.118861 0.97559
-3.2e-05 500 -31.1954 -0 -0 -1 255 255 255 255 0.011985 0.97559
-250 450 -31.1954 0 -0 -1 255 255 255 255 0.118861 0.954215
-500 500 -31.1954 0 -0 -1 255 255 255 255 0.225737 0.97559
-284.447 422.44 -31.1954 0 -0 -1 255 255 255 255 0.133587 0.942433
-284.447 422.44 -31.1954 0 1e-06 -1 255 255 255 255 0.133587 0.942433
-286.458 420.831 -31.1954 0 1e-06 -1 255 255 255 255 0.134447 0.941744
-500 500 -31.1954 0 1e-06 -1 255 255 255 255 0.225737 0.97559
-286.458 420.831 -31.1954 -0 -0 -1 255 255 255 255 0.134447 0.941744
-327.661 403.786 -31.1954 -0 -0 -1 255 255 255 255 0.152062 0.934458
-354.046 366.755 -31.1954 -0 -0 -1 255 255 255 255 0.163342 0.918627
-374.987 350 -31.1954 0 -0 -1 255 255 255 255 0.172294 0.911464
-3.3e-05 -5e-06 -31.1953 0 -0 -1 255 255 255 255 0.011985 0.761837
-125.013 172.549 -31.1953 0 -0 -1 255 255 255 255 0.065428 0.835603
-112.498 100.774 -31.1953 -0 -0 -1 255 255 255 255 0.060078 0.804919
-125.013 47.6833 -31.1953 0 -0 -1 255 255 255 255 0.065428 0.782222
-125.013 -5e-06 -31.1953 0 -0 -1 255 255 255 255 0.065428 0.761837
-500 -5e-06 -31.1953 0 -0 -1 255 255 255 255 0.225737 0.761837
-500 -5e-06 -31.1953 -1 -0 0 255 255 255 255 0.084687 0.770629
-500 500 31.1952 -1 -0 0 255 255 255 255 0.11136 0.984381
-500 500 -31.1954 -1 -0 0 255 255 255 255 0.084687 0.984381
-125.013 350 -31.1954 -0.308565 -0.385668 -0.86951 255 255 255 255 0.065428 0.911464
-250 421.441 -18.5281 -0.308565 -0.385668 -0.86951 255 255 255 255 0.118861 0.942006
-250 450 -31.1954 -0.308565 -0.385668 -0.86951 255 255 255 255 0.118861 0.954215
-125.013 350 -31.1954 -0.493916 -0 -0.86951 255 255 255 255 0.065428 0.911464
-125.013 172.549 -31.1953 -0.493916 -0 -0.86951 255 255 255 255 0.065428 0.835603
-147.313 339.283 -18.5281 -0.493916 -0 -0.86951 255 255 255 255 0.074962 0.906882
-125.013 -5e-06 -31.1953 -0.493916 -0 -0.86951 255 255 255 255 0.065428 0.761837
-147.313 -3e-06 -18.5281 -0.493916 -0 -0.86951 255 255 255 255 0.074962 0.761837
-125.013 47.6833 -31.1953 -0.493916 -0 -0.86951 255 255 255 255 0.065428 0.782222
-125.013 47.6833 -31.1953 -0.493915 -0 -0.86951 255 255 255 255 0.065428 0.782222
-147.313 -3e-06 -18.5281 -0.493915 -0 -0.86951 255 255 255 255 0.074962 0.761837
-134.617 103.016 -25.7396 -0.493915 -0 -0.86951 255 255 255 255 0.069534 0.805877
-147.313 -3e-06 -18.5281 -0.493917 -0 -0.869509 255 255 255 255 0.074962 0.761837
-147.313 339.283 -18.5281 -0.493917 -0 -0.869509 255 255 255 255 0.074962 0.906882
-134.617 103.016 -25.7396 -0.493917 -0 -0.869509 255 255 255 255 0.069534 0.805877
-125.013 172.549 -31.1953 -0.493915 -0 -0.86951 255 255 255 255 0.065428 0.835603
-147.313 339.283 -18.5281 -0.493915 -0 -0.86951 255 255 255 255 0.074962 0.906882
-374.987 -5e-06 -31.1953 0.493915 -0 -0.86951 255 255 255 255 0.172294 0.761837
-352.688 339.283 -18.5281 0.493915 -0 -0.86951 255 255 255 255 0.162761 0.906882
-352.688 -3e-06 -18.5281 0.493915 -0 -0.86951 255 255 255 255 0.162761 0.761837
-313.461 383.373 -24.1636 0.308572 -0.385672 -0.869506 255 255 255 255 0.145991 0.925731
-286.458 420.831 -31.1954 0.308572 -0.385672 -0.869506 255 255 255 255 0.134447 0.941744
-284.447 422.44 -31.1954 0.308572 -0.385672 -0.869506 255 255 255 255 0.133587 0.942433
-147.313 339.283 18.528 -0.624733 -0.780839 0 255 255 255 255 0.121309 0.916154
-176.496 362.632 1.38327 -0.624733 -0.780839 0 255 255 255 255 0.113979 0.926136
-147.313 339.283 -18.5281 -0.624733 -0.780839 0 255 255 255 255 0.105467 0.916154
-147.313 339.283 -18.5281 -0.624733 -0.780838 -0 255 255 255 255 0.105467 0.916154
-176.496 362.632 1.38327 -0.624733 -0.780838 -0 255 255 255 255 0.113979 0.926136
-250 421.441 -18.5281 -0.624733 -0.780838 -0 255 255 255 255 0.105467 0.951277
-219.973 397.417 18.528 -0.624733 -0.780838 -0 255 255 255 255 0.121309 0.941006
-250 421.441 18.528 -0.624733 -0.780838 0 255 255 255 255 0.121309 0.951277
-250 421.441 -18.5281 0.624733 -0.780838 0 255 255 255 255 0.102964 0.951277
-352.688 339.283 18.528 0.624733 -0.780838 0 255 255 255 255 0.087123 0.916154
-352.688 339.283 -18.5281 0.624733 -0.780838 0 255 255 255 255 0.102964 0.916154
-500 500 31.1952 0 1 -0 255 255 255 255 0.140771 0.770629
-250 500 -31.1954 0 1 -0 255 255 255 255 0.114099 0.877505
-500 500 -31.1954 0 1 -0 255 255 255 255 0.114099 0.770629
-250 500 31.1952 0 1 -0 255 255 255 255 0.140771 0.877505
-3.2e-05 500 -31.1954 0 1 -0 255 255 255 255 0.114099 0.984381
-125.013 350 31.1952 0 0 1 255 255 255 255 0.068413 0.82742
-250 500 31.1952 0 0 1 255 255 255 255 0.121845 0.763294
-250 450 31.1952 0 0 1 255 255 255 255 0.121845 0.784669
-374.987 350 31.1952 -0 0 1 255 255 255 255 0.175278 0.82742
-3.3e-05 5e-06 31.1953 0 0 1 255 255 255 255 0.014969 0.977047
-125.013 5e-06 31.1953 0 0 1 255 255 255 255 0.068413 0.977047
-500 5e-06 31.1953 -0 0 1 255 255 255 255 0.228722 0.977047
-500 500 31.1952 -0 0 1 255 255 255 255 0.228722 0.763294
-3.2e-05 500 31.1952 1 -0 0 255 255 255 255 0.12548 0.984861
-3.3e-05 -5e-06 -31.1953 1 -0 0 255 255 255 255 0.152152 0.771109
-3.2e-05 500 -31.1954 1 -0 0 255 255 255 255 0.152152 0.984861
-250 450 31.1952 -0.308565 -0.385667 0.86951 255 255 255 255 0.121845 0.784669
-250 421.441 18.528 -0.308565 -0.385667 0.86951 255 255 255 255 0.121845 0.796879
-125.013 350 31.1952 -0.308565 -0.385667 0.86951 255 255 255 255 0.068413 0.82742
-250 421.441 18.528 -0.308565 -0.385668 0.86951 255 255 255 255 0.121845 0.796879
-219.973 397.417 18.528 -0.308565 -0.385668 0.86951 255 255 255 255 0.109009 0.807149
-125.013 350 31.1952 -0.308565 -0.385668 0.86951 255 255 255 255 0.068413 0.82742
-173.755 369.239 22.4312 -0.308565 -0.385668 0.86951 255 255 255 255 0.08925 0.819195
-147.313 339.283 18.528 -0.308565 -0.385668 0.86951 255 255 255 255 0.077946 0.832002
-147.313 339.283 18.528 -0.493916 0 0.86951 255 255 255 255 0.077946 0.832002
-125.013 5e-06 31.1953 -0.493916 0 0.86951 255 255 255 255 0.068413 0.977047
-125.013 350 31.1952 -0.493916 0 0.86951 255 255 255 255 0.068413 0.82742
-374.987 350 31.1952 0.493915 0 0.86951 255 255 255 255 0.175278 0.82742
-374.987 5e-06 31.1953 0.493915 0 0.86951 255 255 255 255 0.175278 0.977047
-352.688 339.283 18.528 0.493915 0 0.86951 255 255 255 255 0.165745 0.832002
-352.688 3e-06 18.5281 0.493915 0 0.86951 255 255 255 255 0.165745 0.977047
-352.688 103.917 18.5281 0.493915 0 0.86951 255 255 255 255 0.165745 0.932622
-363.108 157.449 24.4475 0.493915 0 0.86951 255 255 255 255 0.1702 0.909736
-374.987 5e-06 31.1953 0.493913 0 0.869511 255 255 255 255 0.175278 0.977047
-363.108 157.449 24.4475 0.493913 0 0.869511 255 255 255 255 0.1702 0.909736
-352.688 339.283 18.528 0.493913 0 0.869511 255 255 255 255 0.165745 0.832002
-352.688 231.707 18.528 0.493915 0 0.86951 255 255 255 255 0.165745 0.877991
-374.987 350 31.1952 0.308565 -0.385667 0.869511 255 255 255 255 0.175278 0.82742
-250 421.441 18.528 0.308565 -0.385667 0.869511 255 255 255 255 0.121845 0.796879
-250 450 31.1952 0.308565 -0.385667 0.869511 255 255 255 255 0.121845 0.784669
-147.313 3e-06 18.5281 -1 0 0 255 255 255 255 0.121309 0.771109
-147.313 339.283 -18.5281 -1 0 0 255 255 255 255 0.105467 0.916154
-147.313 -3e-06 -18.5281 -1 0 0 255 255 255 255 0.105467 0.771109
-352.688 339.283 -18.5281 1 -0 0 255 255 255 255 0.102964 0.916154
-352.688 339.283 18.528 1 -0 0 255 255 255 255 0.087123 0.916154
-352.688 -3e-06 -18.5281 1 -0 0 255 255 255 255 0.102964 0.771109
-352.688 3e-06 18.5281 1 0 -0 255 255 255 255 0.087123 0.771109
-352.688 103.917 18.5281 1 0 -0 255 255 255 255 0.087123 0.815534
-352.688 155.988 5.09255 1 0 -0 255 255 255 255 0.092866 0.837795
-352.688 231.707 18.528 1 -0 0 255 255 255 255 0.087123 0.870165
-125.013 -5e-06 -31.1953 0 -1 0 255 255 255 255 0.08209 0.780642
-147.313 3e-06 18.5281 0 -1 0 255 255 255 255 0.060832 0.771109
-147.313 -3e-06 -18.5281 0 -1 0 255 255 255 255 0.076674 0.771109
-3.3e-05 -5e-06 -31.1953 0 -1 0 255 255 255 255 0.08209 0.834086
-125.013 5e-06 31.1953 0 -1 0 255 255 255 255 0.055417 0.780642
-374.987 -5e-06 -31.1953 0 -1 0 255 255 255 255 0.052915 0.824552
-500 5e-06 31.1953 0 -1 0 255 255 255 255 0.026243 0.771109
-500 -5e-06 -31.1953 0 -1 0 255 255 255 255 0.052915 0.771109
-352.688 -3e-06 -18.5281 -0 -1 0 255 255 255 255 0.0475 0.834086
-374.987 5e-06 31.1953 -0 -1 0 255 255 255 255 0.026243 0.824552
-250 450 -31.1954 0.308564 -0.385667 -0.869511 255 255 255 255 0.118861 0.954215
-250 421.441 -18.5281 0.308564 -0.385667 -0.869511 255 255 255 255 0.118861 0.942006
-284.447 422.44 -31.1954 0.308564 -0.385667 -0.869511 255 255 255 255 0.133587 0.942433
-374.987 350 -31.1954 0.308565 -0.385668 -0.86951 255 255 255 255 0.172294 0.911464
-354.046 366.755 -31.1954 0.308565 -0.385668 -0.86951 255 255 255 255 0.163342 0.918627
-352.688 339.283 -18.5281 0.308565 -0.385668 -0.86951 255 255 255 255 0.162761 0.906882
-313.461 383.373 -24.1636 0.308565 -0.385668 -0.86951 255 255 255 255 0.145991 0.925731
-250 421.441 -18.5281 0.308565 -0.385668 -0.86951 255 255 255 255 0.118861 0.942006
-313.461 383.373 -24.1636 0.308564 -0.385667 -0.869511 255 255 255 255 0.145991 0.925731
-327.661 403.786 -31.1954 0.234285 -0.166931 -0.957729 255 255 255 255 0.152062 0.934458
-313.461 383.373 -24.1636 0.234285 -0.166931 -0.957729 255 255 255 255 0.145991 0.925731
-354.046 366.755 -31.1954 0.234285 -0.166931 -0.957729 255 255 255 255 0.163342 0.918627
-363.108 157.449 24.4475 0.874644 -0.084694 0.47731 255 255 255 255 0.084592 0.838419
-352.688 155.988 5.09255 0.874644 -0.084694 0.47731 255 255 255 255 0.092866 0.837795
-352.688 231.707 18.528 0.874644 -0.084694 0.47731 255 255 255 255 0.087123 0.870165
-352.688 103.917 18.5281 0.877909 0.119629 0.463642 255 255 255 255 0.087123 0.815534
-352.688 155.988 5.09255 0.877909 0.119629 0.463642 255 255 255 255 0.092866 0.837795
-363.108 157.449 24.4475 0.877909 0.119629 0.463642 255 255 255 255 0.084592 0.838419
-125.013 172.549 -31.1953 -0.243311 -0.042423 -0.96902 255 255 255 255 0.065428 0.835603
-112.498 100.774 -31.1953 -0.243311 -0.042423 -0.96902 255 255 255 255 0.060078 0.804919
-134.617 103.016 -25.7396 -0.243311 -0.042423 -0.96902 255 255 255 255 0.069534 0.805877
-134.617 103.016 -25.7396 -0.233842 0.055121 -0.970711 255 255 255 255 0.069534 0.805877
-112.498 100.774 -31.1953 -0.233842 0.055121 -0.970711 255 255 255 255 0.060078 0.804919
-125.013 47.6833 -31.1953 -0.233842 0.055121 -0.970711 255 255 255 255 0.065428 0.782222
-219.973 397.417 18.528 -0.513063 -0.797597 0.317183 255 255 255 255 0.121309 0.941006
-176.496 362.632 1.38327 -0.513063 -0.797597 0.317183 255 255 255 255 0.113979 0.926136
-173.755 369.239 22.4312 -0.513063 -0.797597 0.317183 255 255 255 255 0.122977 0.92896
-173.755 369.239 22.4312 -0.696687 -0.653522 0.295864 255 255 255 255 0.122977 0.92896
-176.496 362.632 1.38327 -0.696687 -0.653522 0.295864 255 255 255 255 0.113979 0.926136
-147.313 339.283 18.528 -0.696687 -0.653522 0.295864 255 255 255 255 0.121309 0.916154
-374.987 -5e-06 -31.1953 0 -0 -1 255 255 255 255 0.172294 0.761837
-500 5e-06 31.1953 -1 -0 0 255 255 255 255 0.11136 0.770629
-147.313 339.283 -18.5281 -0.308565 -0.385668 -0.86951 255 255 255 255 0.074962 0.906882
-374.987 350 -31.1954 0.493915 -0 -0.86951 255 255 255 255 0.172294 0.911464
-313.461 383.373 -24.1636 0.106292 -0.256946 -0.960563 255 255 255 255 0.145991 0.925731
-327.661 403.786 -31.1954 0.106292 -0.256946 -0.960563 255 255 255 255 0.152062 0.934458
-286.458 420.831 -31.1954 0.106292 -0.256946 -0.960563 255 255 255 255 0.134447 0.941744
-250 421.441 18.528 0.624733 -0.780838 0 255 255 255 255 0.087123 0.951277
-3.2e-05 500 31.1952 0 1 -0 255 255 255 255 0.140771 0.984381
-3.2e-05 500 31.1952 -0 0 1 255 255 255 255 0.014969 0.763294
-374.987 5e-06 31.1953 0 0 1 255 255 255 255 0.175278 0.977047
-3.3e-05 5e-06 31.1953 1 -0 0 255 255 255 255 0.12548 0.771109
-147.313 3e-06 18.5281 -0.493916 0 0.86951 255 255 255 255 0.077946 0.977047
-374.987 350 31.1952 0.308565 -0.385668 0.86951 255 255 255 255 0.175278 0.82742
-352.688 339.283 18.528 0.308565 -0.385668 0.86951 255 255 255 255 0.165745 0.832002
-250 421.441 18.528 0.308565 -0.385668 0.86951 255 255 255 255 0.121845 0.796879
-147.313 339.283 18.528 -1 0 0 255 255 255 255 0.121309 0.916154
-3.3e-05 5e-06 31.1953 0 -1 0 255 255 255 255 0.055417 0.834086
-352.688 3e-06 18.5281 0 -1 0 255 255 255 255 0.031658 0.834086
3 0 1 2 
3 1 3 4 
3 3 5 4 
3 6 7 8 
3 9 10 4 
3 10 11 4 
3 11 12 4 
3 2 13 0 
3 0 13 14 
3 14 13 15 
3 15 13 16 
3 13 17 16 
3 12 18 4 
3 19 20 21 
3 22 23 24 
3 25 26 27 
3 28 29 30 
3 31 32 33 
3 34 35 36 
3 37 33 38 
3 39 40 41 
3 42 43 44 
3 45 46 47 
3 48 49 50 
3 49 51 50 
3 50 51 52 
3 53 54 55 
3 56 57 58 
3 59 60 57 
3 61 62 63 
3 62 64 63 
3 65 61 66 
3 67 64 68 
3 69 70 71 
3 72 73 74 
3 75 76 77 
3 76 78 77 
3 78 79 77 
3 80 81 82 
3 83 84 85 
3 86 87 84 
3 87 88 84 
3 89 90 91 
3 88 92 85 
3 93 94 95 
3 96 97 98 
3 99 100 101 
3 102 101 103 
3 103 101 104 
3 101 100 104 
3 100 105 104 
3 106 107 108 
3 109 110 106 
3 111 112 113 
3 114 115 111 
3 116 117 118 
3 119 120 121 
3 120 122 121 
3 121 122 123 
3 124 118 117 
3 125 126 127 
3 128 129 130 
3 131 132 133 
3 134 135 136 
3 137 138 139 
3 140 141 142 
3 143 144 145 
3 0 3 1 
3 12 146 18 
3 19 147 20 
3 22 148 23 
3 39 149 40 
3 150 151 152 
3 53 153 54 
3 56 59 57 
3 59 154 60 
3 61 155 62 
3 62 68 64 
3 65 155 61 
3 67 156 64 
3 69 157 70 
3 80 158 81 
3 159 160 161 
3 96 162 97 
3 106 110 107 
3 109 163 110 
3 111 115 112 
3 114 164 115 
