ply
format ascii 1.0
comment VCGLIB generated
comment TextureFile Dungeons_2_Texture_01_A.png
element vertex 344
property float x
property float y
property float z
property float nx
property float ny
property float nz
property uchar red
property uchar green
property uchar blue
property uchar alpha
property float texture_u
property float texture_v
element face 170
property list uchar int vertex_indices
end_header
-98.9085 186.821 -27.5097 0 -0.831291 -0.555837 255 255 255 255 0.048512 0.871345
0 169.006 -0.866128 0 -0.831291 -0.555837 255 255 255 255 0.001942 0.857897
-170.392 181.366 -19.3502 0 -0.831291 -0.555837 255 255 255 255 0.082169 0.867227
-500 169.006 -0.866128 0 -0.831291 -0.555837 255 255 255 255 0.23736 0.857897
-264.377 186.821 -27.5097 0 -0.831291 -0.555837 255 255 255 255 0.12642 0.871345
-500 186.821 -27.5097 0 -0.831291 -0.555837 255 255 255 255 0.23736 0.871345
-500 500 14.2391 0 0 1 255 255 255 255 0.236663 0.992441
0 169.006 14.2392 0 0 1 255 255 255 255 0.004354 0.823669
0 500 14.2391 0 0 1 255 255 255 255 0.004354 0.992441
-103.159 360.03 -114.405 0 -0.488544 -0.872539 255 255 255 255 0.050513 0.963534
0 238.412 -46.3105 0 -0.488544 -0.872539 255 255 255 255 0.001942 0.896864
-103.246 238.412 -46.3105 0 -0.488544 -0.872539 255 255 255 255 0.050554 0.896864
-500 238.412 -46.3105 -0 -0.488544 -0.87254 255 255 255 255 0.23736 0.896864
-500 361.964 -115.488 -0 -0.488544 -0.87254 255 255 255 255 0.23736 0.963534
-395.31 243.268 -49.0294 -0 -0.488544 -0.87254 255 255 255 255 0.188748 0.896864
-304.2 315.751 -89.6131 -0 -0.488544 -0.872539 255 255 255 255 0.14517 0.938597
-500 361.964 -115.488 -0 -0.488544 -0.872539 255 255 255 255 0.23736 0.963534
-304.2 361.964 -115.488 -0 -0.488544 -0.872539 255 255 255 255 0.14517 0.963534
-389.445 218.233 -45.0973 0 -0.488543 -0.87254 255 255 255 255 0.185307 0.888295
-500 186.821 -27.5097 0 -0.488543 -0.87254 255 255 255 255 0.23736 0.871345
-500 218.233 -45.0973 0 -0.488543 -0.87254 255 255 255 255 0.23736 0.888295
-214 373.545 -132.058 -0 -0.488543 -0.87254 255 255 255 255 0.102701 0.972103
-312.981 402.13 -148.063 -0 -0.488543 -0.87254 255 255 255 255 0.15056 0.989053
0 404.956 -149.646 -0 -0.488543 -0.87254 255 255 255 255 0.001942 0.989053
-389.445 218.233 -45.0973 0 -0.488544 -0.872539 255 255 255 255 0.185307 0.888295
-333.585 252.177 -64.1029 0 -0.488544 -0.872539 255 255 255 255 0.159006 0.906611
-110.555 218.233 -45.0973 0 -0.488544 -0.872539 255 255 255 255 0.053995 0.888295
-327.907 269.654 -73.8887 0 -0.488544 -0.872539 255 255 255 255 0.156332 0.916043
-214 304.672 -93.4954 0 -0.488544 -0.872539 255 255 255 255 0.102701 0.934938
-84.8793 375.851 -133.349 -0 -0.488543 -0.87254 255 255 255 255 0.045073 0.972103
0 373.545 -132.058 -0 -0.488543 -0.87254 255 255 255 255 0.001942 0.972103
-110.555 218.233 -45.0973 0 -0.488543 -0.87254 255 255 255 255 0.053995 0.888295
-98.9085 186.821 -27.5097 0 -0.488543 -0.87254 255 255 255 255 0.048512 0.871345
-168.732 194.454 -31.7834 0 -0.488543 -0.87254 255 255 255 255 0.081387 0.875464
-264.377 186.821 -27.5097 0 -0.488543 -0.87254 255 255 255 255 0.12642 0.871345
-110.555 218.233 -45.0973 0.301078 -0.165513 -0.939126 255 255 255 255 0.053995 0.888295
-195.8 315.751 -89.6131 0.301078 -0.165513 -0.939126 255 255 255 255 0.094132 0.938597
-103.246 238.412 -46.3105 0.301078 -0.165513 -0.939126 255 255 255 255 0.050554 0.896864
-215.205 332.066 -108.834 0.413005 -0.444931 -0.794646 255 255 255 255 0.102701 0.949721
-195.8 361.964 -115.488 0.413005 -0.444931 -0.794646 255 255 255 255 0.094132 0.963534
-195.8 315.751 -89.6131 0.413005 -0.444931 -0.794646 255 255 255 255 0.094132 0.938597
-84.8793 375.851 -133.349 0.007775 -0.771189 -0.636559 255 255 255 255 0.045073 0.972103
0 361.964 -115.488 0.007775 -0.771189 -0.636559 255 255 255 255 0.001942 0.963534
-103.159 360.03 -114.405 0.007775 -0.771189 -0.636559 255 255 255 255 0.050513 0.963534
0 218.233 -45.0973 -0 -0.060012 -0.998198 255 255 255 255 0.001942 0.888295
-103.246 238.412 -46.3105 -0 -0.060012 -0.998198 255 255 255 255 0.050554 0.896864
0 238.412 -46.3105 -0 -0.060012 -0.998198 255 255 255 255 0.001942 0.896864
-500 218.233 -45.0973 0 -0.155161 -0.987889 255 255 255 255 0.23736 0.888295
-395.31 243.268 -49.0294 0 -0.155161 -0.987889 255 255 255 255 0.188748 0.896864
-389.445 218.233 -45.0973 0 -0.155161 -0.987889 255 255 255 255 0.185307 0.888295
-500 373.545 -132.058 0 -0.819647 -0.572869 255 255 255 255 0.23736 0.972103
-304.2 361.964 -115.488 0 -0.819647 -0.572869 255 255 255 255 0.14517 0.963534
-500 361.964 -115.488 0 -0.819647 -0.572869 255 255 255 255 0.23736 0.963534
-361.152 241.875 -58.3348 -0.264946 -0.209884 -0.941144 255 255 255 255 0.171985 0.901052
-395.31 243.268 -49.0294 -0.264946 -0.209884 -0.941144 255 255 255 255 0.188748 0.896864
-355.767 258.414 -63.5392 -0.264946 -0.209884 -0.941144 255 255 255 255 0.169559 0.908464
-304.2 315.751 -89.6131 -0.278472 -0.17869 -0.943675 255 255 255 255 0.14517 0.938597
-327.907 269.654 -73.8887 -0.278472 -0.17869 -0.943675 255 255 255 255 0.156332 0.916043
-355.767 258.414 -63.5392 -0.278472 -0.17869 -0.943675 255 255 255 255 0.169559 0.908464
-395.31 243.268 -49.0294 -0.277515 -0.179601 -0.943785 255 255 255 255 0.188748 0.896864
-304.2 315.751 -89.6131 -0.277515 -0.179601 -0.943785 255 255 255 255 0.14517 0.938597
-355.767 258.414 -63.5392 -0.277515 -0.179601 -0.943785 255 255 255 255 0.169559 0.908464
-286 373.545 -132.058 -0.39934 -0.48531 -0.777819 255 255 255 255 0.136601 0.972103
-282.132 342.526 -114.69 -0.39934 -0.48531 -0.777819 255 255 255 255 0.136601 0.955365
-304.2 361.964 -115.488 -0.39934 -0.48531 -0.777819 255 255 255 255 0.14517 0.963534
-214 373.545 -132.058 0 -0.488544 -0.872539 255 255 255 255 0.102701 0.972103
-282.132 342.526 -114.69 0 -0.488544 -0.872539 255 255 255 255 0.136601 0.955365
-286 373.545 -132.058 0 -0.488544 -0.872539 255 255 255 255 0.136601 0.972103
0 186.821 -27.5097 -0 -0.488543 -0.87254 255 255 255 255 0.001942 0.871345
0 218.233 -45.0973 -0 -0.488543 -0.87254 255 255 255 255 0.001942 0.888295
-500 373.545 -132.058 0 -0.488543 -0.87254 255 255 255 255 0.23736 0.972103
-500 404.956 -149.646 0 -0.488543 -0.87254 255 255 255 255 0.23736 0.989053
-286 373.545 -132.058 0 -0.488543 -0.87254 255 255 255 255 0.136601 0.972103
0 361.964 -115.488 1 0 0 255 255 255 255 0.004354 0.922057
0 404.956 -149.646 1 0 0 255 255 255 255 0.004354 0.943979
0 500 14.2391 1 0 0 255 255 255 255 0.004354 0.992441
-500 238.412 -46.3105 -1 0 0 255 255 255 255 0.23736 0.896864
-500 186.821 -27.5097 -1 0 0 255 255 255 255 0.23736 0.871345
-500 169.006 -0.866128 -1 0 0 255 255 255 255 0.23736 0.857897
0 238.412 -46.3105 1 -0 -0 255 255 255 255 0.001942 0.896864
0 186.821 -27.5097 1 -0 -0 255 255 255 255 0.001942 0.871345
0 218.233 -45.0973 1 -0 -0 255 255 255 255 0.001942 0.888295
0 169.006 14.2392 1 0 0 255 255 255 255 0.004354 0.823669
0 238.412 -46.3105 1 0 0 255 255 255 255 0.004354 0.859059
-500 361.964 -115.488 -1 0 0 255 255 255 255 0.236663 0.922057
-500 404.956 -149.646 -1 0 0 255 255 255 255 0.236663 0.943979
-500 373.545 -132.058 -1 0 0 255 255 255 255 0.236663 0.927962
-500 169.006 14.2392 -1 0 0 255 255 255 255 0.236663 0.823669
-500 238.412 -46.3105 -1 0 0 255 255 255 255 0.236663 0.859059
-500 169.006 -0.866128 -1 0 0 255 255 255 255 0.236663 0.823669
-500 500 14.2391 -1 0 0 255 255 255 255 0.236663 0.992441
-500 500 -139.202 0 1 -0 255 255 255 255 0.236663 0.992441
0 500 14.2391 0 1 -0 255 255 255 255 0.004354 0.992441
0 500 -139.202 0 1 -0 255 255 255 255 0.004354 0.992441
0 435.244 -149.646 0 0.546542 -0.837432 255 255 255 255 0.004354 0.959422
-265.409 451.247 -139.202 0 0.546542 -0.837432 255 255 255 255 0.127668 0.967582
0 451.247 -139.202 0 0.546542 -0.837432 255 255 255 255 0.004354 0.967582
-500 435.244 -149.646 -1 -0 0 255 255 255 255 0.236663 0.959422
-500 451.247 -139.202 -1 -0 0 255 255 255 255 0.236663 0.967582
0 435.244 -149.646 1 0 -0 255 255 255 255 0.004354 0.959422
0 451.247 -139.202 1 0 -0 255 255 255 255 0.004354 0.967582
0 404.956 -149.646 0 -1e-06 -1 255 255 255 255 0.004354 0.943979
-274.257 432.491 -149.646 0 -1e-06 -1 255 255 255 255 0.131779 0.959422
0 435.244 -149.646 0 -1e-06 -1 255 255 255 255 0.004354 0.959422
0 451.247 -139.202 0 -0 -1 255 255 255 255 0.004354 0.967582
-265.409 451.247 -139.202 0 -0 -1 255 255 255 255 0.127668 0.967582
0 500 -139.202 0 -0 -1 255 255 255 255 0.004354 0.992441
0 500 14.2391 1 0 0 255 255 255 255 0.004354 0.992441
0 500 14.2391 -0 1 0 255 255 255 255 0.004354 0.992441
-500 500 14.2391 -0 1 0 255 255 255 255 0.236663 0.992441
-500 500 14.2391 -0 1 0 255 255 255 255 0.236663 0.992441
-500 500 14.2391 -1 -0 0 255 255 255 255 0.236663 0.992441
-500 500 -139.202 -1 -0 0 255 255 255 255 0.236663 0.992441
-453.009 80.8218 -42.2616 -0 -0.441863 -0.897082 255 255 255 255 0.215235 0.81203
-500 91.908 -47.7221 -0 -0.441863 -0.897082 255 255 255 255 0.23736 0.815663
-453.009 91.908 -47.7221 -0 -0.441863 -0.897082 255 255 255 255 0.215235 0.815663
-476.139 150.372 -20.2779 0.132736 0.826532 -0.547016 255 255 255 255 0.22583 0.846087
-453.335 152.453 -11.6004 0.132736 0.826532 -0.547016 255 255 255 255 0.215235 0.848695
-445.935 143.336 -23.581 0.132736 0.826532 -0.547016 255 255 255 255 0.21099 0.84221
-453.009 80.8218 -42.2616 0.442067 -0.146614 -0.884919 255 255 255 255 0.215235 0.81203
-421.443 122.443 -33.3885 0.442067 -0.146614 -0.884919 255 255 255 255 0.198592 0.830867
-406.966 117.038 -25.261 0.442067 -0.146614 -0.884919 255 255 255 255 0.193556 0.830867
-500 150.372 -20.2779 -1 0 -0 255 255 255 255 0.23736 0.846071
-500 80.8218 -42.2616 -1 0 -0 255 255 255 255 0.23736 0.81203
-500 153.254 -8.26052 -1 0 -0 255 255 255 255 0.23736 0.849704
-229.829 128.211 -30.9055 0.059555 0.753581 -0.654651 255 255 255 255 0.110154 0.8345
-148.356 129.455 -22.0621 0.059555 0.753581 -0.654651 255 255 255 255 0.071793 0.836799
-139.998 116.223 -36.5328 0.059555 0.753581 -0.654651 255 255 255 255 0.067858 0.828265
-456.378 36.4411 -63.0947 0 -0.905226 -0.42493 255 255 255 255 0.216821 0.788946
-56.4985 40.6297 -72.0177 0 -0.905226 -0.42493 255 255 255 255 0.028544 0.788946
-43.6218 36.4411 -63.0947 0 -0.905226 -0.42493 255 255 255 255 0.022481 0.788946
-353.199 129.851 -19.2465 -0.519436 0.758495 -0.393537 255 255 255 255 0.168241 0.837531
-443.501 40.6297 -72.0177 -0.519436 0.758495 -0.393537 255 255 255 255 0.210758 0.788946
-456.378 36.4411 -63.0947 -0.519436 0.758495 -0.393537 255 255 255 255 0.216821 0.788946
-46.9913 153.254 -8.26052 0 0.972432 -0.233187 255 255 255 255 0.024068 0.849704
0 150.372 -20.2779 0 0.972432 -0.233187 255 255 255 255 0.001942 0.846071
-46.9913 150.372 -20.2779 0 0.972432 -0.233187 255 255 255 255 0.024068 0.846071
0 80.8218 -42.2616 -0 -0.441862 -0.897083 255 255 255 255 0.001942 0.81203
-46.9913 91.908 -47.7221 -0 -0.441862 -0.897083 255 255 255 255 0.024068 0.815663
0 91.908 -47.7221 -0 -0.441862 -0.897083 255 255 255 255 0.001942 0.815663
-46.9913 150.372 -20.2779 0 0.42493 -0.905226 255 255 255 255 0.024068 0.846071
0 91.908 -47.7221 0 0.42493 -0.905226 255 255 255 255 0.001942 0.815663
-46.9913 91.908 -47.7221 0 0.42493 -0.905226 255 255 255 255 0.024068 0.815663
-46.9913 80.8218 -42.2616 -0.580914 -0.35966 -0.730194 255 255 255 255 0.024068 0.81203
-82.3381 121.14 -34 -0.580914 -0.35966 -0.730194 255 255 255 255 0.04071 0.830867
-46.9913 91.908 -47.7221 -0.580914 -0.35966 -0.730194 255 255 255 255 0.024068 0.815663
-46.9913 153.254 -8.26052 -0.530607 0.802565 -0.272664 255 255 255 255 0.024068 0.849704
-82.3381 121.14 -34 -0.530607 0.802565 -0.272664 255 255 255 255 0.04071 0.830867
-93.0337 117.038 -25.261 -0.530607 0.802565 -0.272664 255 255 255 255 0.045746 0.830867
-82.3381 121.14 -34 0 0.42493 -0.905226 255 255 255 255 0.04071 0.830867
0 91.908 -47.7221 1 -0 0 255 255 255 255 0.001942 0.815663
0 153.254 -8.26052 1 -0 0 255 255 255 255 0.001942 0.849704
0 80.8218 -42.2616 1 -0 0 255 255 255 255 0.001942 0.81203
0 1e-05 14.2392 0 -1 0 255 255 255 255 0.001942 0.753636
-500 -1.6e-05 -96.4186 0 -1 0 255 255 255 255 0.23736 0.753636
0 -1.6e-05 -96.4186 0 -1 0 255 255 255 255 0.001942 0.753636
0 169.006 -0.866128 0 0.42493 -0.905226 255 255 255 255 0.001942 0.857897
-500 63.7403 -50.2799 0 0.42493 -0.905226 255 255 255 255 0.23736 0.803145
-500 169.006 -0.866128 0 0.42493 -0.905226 255 255 255 255 0.23736 0.857897
0 63.7403 -50.2799 -0 0.783264 -0.621689 255 255 255 255 0.001942 0.803145
-236.416 43.4148 -75.8879 -0 0.783264 -0.621689 255 255 255 255 0.113255 0.789359
-361.054 48.3343 -69.6898 -0 0.783264 -0.621689 255 255 255 255 0.171939 0.792696
-500 63.7403 -50.2799 0 0.783264 -0.621689 255 255 255 255 0.23736 0.803145
-413.148 43.4148 -75.8879 0 0.783264 -0.621689 255 255 255 255 0.196467 0.789359
-500 43.4148 -75.8879 0 0.783264 -0.621689 255 255 255 255 0.23736 0.789359
-500 -1.6e-05 -96.4186 0 0.427503 -0.904014 255 255 255 255 0.23736 0.753636
-368.139 33.8262 -80.4224 0 0.427503 -0.904014 255 255 255 255 0.175275 0.781469
0 -1.6e-05 -96.4186 0 0.427503 -0.904014 255 255 255 255 0.001942 0.753636
-236.416 43.4148 -75.8879 0 0.427503 -0.904014 255 255 255 255 0.113255 0.789359
0 43.4148 -75.8879 0 0.427503 -0.904014 255 255 255 255 0.001942 0.789359
-413.148 43.4148 -75.8879 0 0.427503 -0.904014 255 255 255 255 0.196467 0.789359
-500 43.4148 -75.8879 0 0.427503 -0.904014 255 255 255 255 0.23736 0.789359
0 1e-05 14.2392 1 0 0 255 255 255 255 0.001942 0.753636
0 43.4148 -75.8879 1 0 0 255 255 255 255 0.001942 0.789359
0 63.7403 -50.2799 1 0 0 255 255 255 255 0.001942 0.803145
-500 1e-05 14.2392 -1 0 0 255 255 255 255 0.23736 0.753636
-500 43.4148 -75.8879 -1 0 0 255 255 255 255 0.23736 0.789359
-500 -1.6e-05 -96.4186 -1 0 0 255 255 255 255 0.23736 0.753636
-500 169.006 14.2392 -1 0 0 255 255 255 255 0.23736 0.857897
-500 63.7403 -50.2799 -1 0 0 255 255 255 255 0.23736 0.803145
-500 169.006 14.2392 0 0 1 255 255 255 255 0.23736 0.857897
0 1e-05 14.2392 0 0 1 255 255 255 255 0.001942 0.753636
0 169.006 14.2392 0 0 1 255 255 255 255 0.001942 0.857897
0 169.006 14.2392 1 0 -0 255 255 255 255 0.001942 0.857897
0 169.006 -0.866128 1 0 -0 255 255 255 255 0.001942 0.857897
-443.501 40.6297 -72.0177 0 0.42493 -0.905226 255 255 255 255 0.210758 0.788946
-229.829 128.211 -30.9055 0 0.42493 -0.905226 255 255 255 255 0.110154 0.8345
-56.4985 40.6297 -72.0177 0 0.42493 -0.905226 255 255 255 255 0.028544 0.788946
-139.998 116.223 -36.5328 0 0.42493 -0.905226 255 255 255 255 0.067858 0.828265
-353.199 129.851 -19.2465 0 0.990256 -0.139255 255 255 255 255 0.168241 0.837531
-148.356 129.455 -22.0621 0 0.990256 -0.139255 255 255 255 255 0.071793 0.836799
-346.76 128.211 -30.9055 0 0.990256 -0.139255 255 255 255 255 0.165209 0.8345
-346.76 128.211 -30.9055 0 0.990257 -0.139254 255 255 255 255 0.165209 0.8345
-148.356 129.455 -22.0621 0 0.990257 -0.139254 255 255 255 255 0.071793 0.836799
-229.829 128.211 -30.9055 0 0.990257 -0.139254 255 255 255 255 0.110154 0.8345
-146.801 129.851 -19.2465 0.519435 0.758494 -0.39354 255 255 255 255 0.071061 0.837531
-56.4985 40.6297 -72.0177 0.519435 0.758494 -0.39354 255 255 255 255 0.028544 0.788946
-148.356 129.455 -22.0621 0.519435 0.758494 -0.39354 255 255 255 255 0.071793 0.836799
-56.4985 40.6297 -72.0177 0.519436 0.758495 -0.393537 255 255 255 255 0.028544 0.788946
-139.998 116.223 -36.5328 0.519436 0.758495 -0.393537 255 255 255 255 0.067858 0.828265
-148.356 129.455 -22.0621 0.519436 0.758495 -0.393537 255 255 255 255 0.071793 0.836799
-214 304.672 -93.4954 0.429531 -0.42672 -0.795873 255 255 255 255 0.102701 0.934938
-215.205 332.066 -108.834 0.429531 -0.42672 -0.795873 255 255 255 255 0.102701 0.949721
-195.8 315.751 -89.6131 0.429531 -0.42672 -0.795873 255 255 255 255 0.094132 0.938597
-215.205 332.066 -108.834 0 -0.488544 -0.872539 255 255 255 255 0.102701 0.949721
-286 304.672 -93.4954 0 -0.488544 -0.872539 255 255 255 255 0.136601 0.934938
-282.132 342.526 -114.69 -0.3704 -0.453795 -0.810478 255 255 255 255 0.136601 0.955365
-304.2 315.751 -89.6131 -0.3704 -0.453795 -0.810478 255 255 255 255 0.14517 0.938597
-304.2 361.964 -115.488 -0.3704 -0.453795 -0.810478 255 255 255 255 0.14517 0.963534
-413.148 43.4148 -75.8879 0.041859 0.580904 -0.812895 255 255 255 255 0.196467 0.789359
-361.054 48.3343 -69.6898 0.041859 0.580904 -0.812895 255 255 255 255 0.171939 0.792696
-368.139 33.8262 -80.4224 0.041859 0.580904 -0.812895 255 255 255 255 0.175275 0.781469
-368.139 33.8262 -80.4224 -0.016115 0.599714 -0.800052 255 255 255 255 0.175275 0.781469
-361.054 48.3343 -69.6898 -0.016115 0.599714 -0.800052 255 255 255 255 0.171939 0.792696
-236.416 43.4148 -75.8879 -0.016115 0.599714 -0.800052 255 255 255 255 0.113255 0.789359
-445.935 143.336 -23.581 0 0.42493 -0.905226 255 255 255 255 0.21099 0.84221
-453.009 91.908 -47.7221 0 0.42493 -0.905226 255 255 255 255 0.215235 0.815663
-476.139 150.372 -20.2779 0 0.42493 -0.905226 255 255 255 255 0.22583 0.846087
-500 91.908 -47.7221 0 0.42493 -0.905226 255 255 255 255 0.23736 0.815663
-500 150.372 -20.2779 0 0.42493 -0.905226 255 255 255 255 0.23736 0.846071
-453.009 153.254 -8.26052 0 0.972432 -0.233188 255 255 255 255 0.215235 0.849704
-476.139 150.372 -20.2779 0 0.972432 -0.233188 255 255 255 255 0.22583 0.846087
-500 153.254 -8.26052 0 0.972432 -0.233188 255 255 255 255 0.23736 0.849704
-500 150.372 -20.2779 0 0.972432 -0.233188 255 255 255 255 0.23736 0.846071
-406.966 117.038 -25.261 0.494588 0.794344 -0.352703 255 255 255 255 0.193556 0.830867
-421.443 122.443 -33.3885 0.494588 0.794344 -0.352703 255 255 255 255 0.198592 0.830867
-453.009 153.254 -8.26052 0.494588 0.794344 -0.352703 255 255 255 255 0.215235 0.849704
-453.009 153.254 -8.26052 0.571036 0.783877 -0.243834 255 255 255 255 0.215235 0.849704
-445.935 143.336 -23.581 0.571036 0.783877 -0.243834 255 255 255 255 0.21099 0.84221
-453.335 152.453 -11.6004 0.571036 0.783877 -0.243834 255 255 255 255 0.215235 0.848695
-333.585 252.177 -64.1029 -0.147892 -0.446158 -0.88265 255 255 255 255 0.159006 0.906611
-355.767 258.414 -63.5392 -0.147892 -0.446158 -0.88265 255 255 255 255 0.169559 0.908464
-327.907 269.654 -73.8887 -0.147892 -0.446158 -0.88265 255 255 255 255 0.156332 0.916043
-361.152 241.875 -58.3348 -0.099959 -0.268897 -0.957968 255 255 255 255 0.171985 0.901052
-355.767 258.414 -63.5392 -0.099959 -0.268897 -0.957968 255 255 255 255 0.169559 0.908464
-333.585 252.177 -64.1029 -0.099959 -0.268897 -0.957968 255 255 255 255 0.159006 0.906611
-195.8 315.751 -89.6131 -0 -0.488544 -0.872539 255 255 255 255 0.094132 0.938597
-195.8 361.964 -115.488 -0.00839 -0.763509 -0.645743 255 255 255 255 0.094132 0.963534
-84.8793 375.851 -133.349 -0.00839 -0.763509 -0.645743 255 255 255 255 0.045073 0.972103
-103.159 360.03 -114.405 -0.00839 -0.763509 -0.645743 255 255 255 255 0.050513 0.963534
0 404.956 -149.646 0 -0.488544 -0.872539 255 255 255 255 0.001942 0.989053
-84.8793 375.851 -133.349 0 -0.488544 -0.872539 255 255 255 255 0.045073 0.972103
-168.732 194.454 -31.7834 0.022746 -0.690059 -0.723396 255 255 255 255 0.081387 0.875464
-170.392 181.366 -19.3502 0.022746 -0.690059 -0.723396 255 255 255 255 0.082169 0.867227
-264.377 186.821 -27.5097 0.022746 -0.690059 -0.723396 255 255 255 255 0.12642 0.871345
-98.9085 186.821 -27.5097 -0.030556 -0.68636 -0.72662 255 255 255 255 0.048512 0.871345
-170.392 181.366 -19.3502 -0.030556 -0.68636 -0.72662 255 255 255 255 0.082169 0.867227
-168.732 194.454 -31.7834 -0.030556 -0.68636 -0.72662 255 255 255 255 0.081387 0.875464
-312.981 402.13 -148.063 0 -0.488542 -0.87254 255 255 255 255 0.15056 0.989053
-286 373.545 -132.058 0 -0.488542 -0.87254 255 255 255 255 0.136601 0.972103
-500 404.956 -149.646 0 -0.488542 -0.87254 255 255 255 255 0.23736 0.989053
-312.981 402.13 -148.063 -0.000625 -0.051248 -0.998686 255 255 255 255 0.15101 0.943979
-500 435.244 -149.646 -0.000625 -0.051248 -0.998686 255 255 255 255 0.236663 0.959422
-274.257 432.491 -149.646 -0.000625 -0.051248 -0.998686 255 255 255 255 0.131779 0.959422
-274.257 432.491 -149.646 -0 0.486503 -0.873679 255 255 255 255 0.131779 0.959422
-500 451.247 -139.202 -0 0.486503 -0.873679 255 255 255 255 0.236663 0.967582
-265.409 451.247 -139.202 -0 0.486503 -0.873679 255 255 255 255 0.127668 0.967582
-500 500 -139.202 -0 -0 -1 255 255 255 255 0.236663 0.992441
0 186.821 -27.5097 -0 -0.831291 -0.555837 255 255 255 255 0.001942 0.871345
-500 169.006 14.2392 0 0 1 255 255 255 255 0.236663 0.823669
0 361.964 -115.488 -0 -0.488544 -0.872539 255 255 255 255 0.001942 0.963534
-304.2 315.751 -89.6131 0 -0.488543 -0.87254 255 255 255 255 0.14517 0.938597
-395.31 243.268 -49.0294 0 -0.488543 -0.87254 255 255 255 255 0.188748 0.896864
-500 361.964 -115.488 0 -0.488543 -0.87254 255 255 255 255 0.23736 0.963534
-361.152 241.875 -58.3348 -0 -0.488544 -0.872539 255 255 255 255 0.171985 0.901052
-110.555 218.233 -45.0973 0.30108 -0.165511 -0.939126 255 255 255 255 0.053995 0.888295
-214 304.672 -93.4954 0.30108 -0.165511 -0.939126 255 255 255 255 0.102701 0.934938
-195.8 315.751 -89.6131 0.30108 -0.165511 -0.939126 255 255 255 255 0.094132 0.938597
-215.205 332.066 -108.834 0.426494 -0.451286 -0.783865 255 255 255 255 0.102701 0.949721
-214 373.545 -132.058 0.426494 -0.451286 -0.783865 255 255 255 255 0.102701 0.972103
-195.8 361.964 -115.488 0.426494 -0.451286 -0.783865 255 255 255 255 0.094132 0.963534
-84.8793 375.851 -133.349 -0.013554 -0.819571 -0.572817 255 255 255 255 0.045073 0.972103
0 373.545 -132.058 -0.013554 -0.819571 -0.572817 255 255 255 255 0.001942 0.972103
0 361.964 -115.488 -0.013554 -0.819571 -0.572817 255 255 255 255 0.001942 0.963534
-110.555 218.233 -45.0973 0 -0.060012 -0.998198 255 255 255 255 0.053995 0.888295
-500 218.233 -45.0973 -0.023135 -0.059996 -0.99793 255 255 255 255 0.23736 0.888295
-500 238.412 -46.3105 -0.023135 -0.059996 -0.99793 255 255 255 255 0.23736 0.896864
-395.31 243.268 -49.0294 -0.023135 -0.059996 -0.99793 255 255 255 255 0.188748 0.896864
-286 373.545 -132.058 -0 -0.819647 -0.572869 255 255 255 255 0.136601 0.972103
-389.445 218.233 -45.0973 -0.264946 -0.209884 -0.941144 255 255 255 255 0.185307 0.888295
-304.2 315.751 -89.6131 -0.30108 -0.165511 -0.939126 255 255 255 255 0.14517 0.938597
-286 304.672 -93.4954 -0.30108 -0.165511 -0.939126 255 255 255 255 0.136601 0.934938
-327.907 269.654 -73.8887 -0.30108 -0.165511 -0.939126 255 255 255 255 0.156332 0.916043
0 373.545 -132.058 1 0 0 255 255 255 255 0.004354 0.927962
-500 218.233 -45.0973 -1 0 0 255 255 255 255 0.23736 0.888295
0 169.006 -0.866128 1 0 -0 255 255 255 255 0.004354 0.823669
0 435.244 -149.646 -0.004901 0.488261 -0.872684 255 255 255 255 0.004354 0.959422
-274.257 432.491 -149.646 -0.004901 0.488261 -0.872684 255 255 255 255 0.131779 0.959422
-265.409 451.247 -139.202 -0.004901 0.488261 -0.872684 255 255 255 255 0.127668 0.967582
0 404.956 -149.646 -0.004633 -0.046148 -0.998924 255 255 255 255 0.004354 0.943979
-312.981 402.13 -148.063 -0.004633 -0.046148 -0.998924 255 255 255 255 0.15101 0.943979
-274.257 432.491 -149.646 -0.004633 -0.046148 -0.998924 255 255 255 255 0.131779 0.959422
0 500 -139.202 1 0 0 255 255 255 255 0.004354 0.992441
-453.009 80.8218 -42.2616 0 -0.441863 -0.897083 255 255 255 255 0.215235 0.81203
-500 80.8218 -42.2616 0 -0.441863 -0.897083 255 255 255 255 0.23736 0.81203
-500 91.908 -47.7221 0 -0.441863 -0.897083 255 255 255 255 0.23736 0.815663
-453.009 80.8218 -42.2616 0.640843 -0.339206 -0.688665 255 255 255 255 0.215235 0.81203
-453.009 91.908 -47.7221 0.640843 -0.339206 -0.688665 255 255 255 255 0.215235 0.815663
-421.443 122.443 -33.3885 0.640843 -0.339206 -0.688665 255 255 255 255 0.198592 0.830867
-500 91.908 -47.7221 -1 0 0 255 255 255 255 0.23736 0.815663
-443.501 40.6297 -72.0177 -0 -0.905226 -0.42493 255 255 255 255 0.210758 0.788946
-353.199 129.851 -19.2465 -0.519431 0.758494 -0.393545 255 255 255 255 0.168241 0.837531
-346.76 128.211 -30.9055 -0.519431 0.758494 -0.393545 255 255 255 255 0.165209 0.8345
-443.501 40.6297 -72.0177 -0.519431 0.758494 -0.393545 255 255 255 255 0.210758 0.788946
0 153.254 -8.26052 0 0.972432 -0.233187 255 255 255 255 0.001942 0.849704
-46.9913 80.8218 -42.2616 0 -0.441862 -0.897083 255 255 255 255 0.024068 0.81203
0 150.372 -20.2779 0 0.42493 -0.905226 255 255 255 255 0.001942 0.846071
-46.9913 80.8218 -42.2616 -0.530606 -0.302969 -0.791623 255 255 255 255 0.024068 0.81203
-93.0337 117.038 -25.261 -0.530606 -0.302969 -0.791623 255 255 255 255 0.045746 0.830867
-82.3381 121.14 -34 -0.530606 -0.302969 -0.791623 255 255 255 255 0.04071 0.830867
-46.9913 153.254 -8.26052 -0.580914 0.791525 -0.189806 255 255 255 255 0.024068 0.849704
-46.9913 150.372 -20.2779 -0.580914 0.791525 -0.189806 255 255 255 255 0.024068 0.846071
-82.3381 121.14 -34 -0.580914 0.791525 -0.189806 255 255 255 255 0.04071 0.830867
0 150.372 -20.2779 1 0 0 255 255 255 255 0.001942 0.846071
-500 1e-05 14.2392 0 -1 0 255 255 255 255 0.23736 0.753636
0 63.7403 -50.2799 0 0.42493 -0.905226 255 255 255 255 0.001942 0.803145
0 43.4148 -75.8879 0 0.783264 -0.621689 255 255 255 255 0.001942 0.789359
0 -1.6e-05 -96.4186 1 0 -0 255 255 255 255 0.001942 0.753636
-500 1e-05 14.2392 0 0 1 255 255 255 255 0.23736 0.753636
-346.76 128.211 -30.9055 0 0.42493 -0.905226 255 255 255 255 0.165209 0.8345
-353.199 129.851 -19.2465 0 0.990256 -0.139259 255 255 255 255 0.168241 0.837531
-146.801 129.851 -19.2465 0 0.990256 -0.139259 255 255 255 255 0.071061 0.837531
-148.356 129.455 -22.0621 0 0.990256 -0.139259 255 255 255 255 0.071793 0.836799
-146.801 129.851 -19.2465 0.519436 0.758495 -0.393537 255 255 255 255 0.071061 0.837531
-43.6218 36.4411 -63.0947 0.519436 0.758495 -0.393537 255 255 255 255 0.022481 0.788946
-282.132 342.526 -114.69 -0.421932 -0.409719 -0.808767 255 255 255 255 0.136601 0.955365
-286 304.672 -93.4954 -0.421932 -0.409719 -0.808767 255 255 255 255 0.136601 0.934938
-304.2 315.751 -89.6131 -0.421932 -0.409719 -0.808767 255 255 255 255 0.14517 0.938597
-421.443 122.443 -33.3885 0 0.42493 -0.905226 255 255 255 255 0.198592 0.830867
-453.335 152.453 -11.6004 -0 0.972432 -0.233188 255 255 255 255 0.215235 0.848695
-453.009 153.254 -8.26052 0.571037 0.783876 -0.243834 255 255 255 255 0.215235 0.849704
-421.443 122.443 -33.3885 0.571037 0.783876 -0.243834 255 255 255 255 0.198592 0.830867
-445.935 143.336 -23.581 0.571037 0.783876 -0.243834 255 255 255 255 0.21099 0.84221
-195.8 361.964 -115.488 0 -0.488544 -0.872539 255 255 255 255 0.094132 0.963534
-195.8 361.964 -115.488 0.008765 -0.815069 -0.579297 255 255 255 255 0.094132 0.963534
-214 373.545 -132.058 0.008765 -0.815069 -0.579297 255 255 255 255 0.102701 0.972103
-84.8793 375.851 -133.349 0.008765 -0.815069 -0.579297 255 255 255 255 0.045073 0.972103
-312.981 402.13 -148.063 0.00846 -1e-06 -0.999964 255 255 255 255 0.15101 0.943979
-500 404.956 -149.646 0.00846 -1e-06 -0.999964 255 255 255 255 0.236663 0.943979
-500 435.244 -149.646 0.00846 -1e-06 -0.999964 255 255 255 255 0.236663 0.959422
-274.257 432.491 -149.646 0.006665 0.54653 -0.837413 255 255 255 255 0.131779 0.959422
-500 435.244 -149.646 0.006665 0.54653 -0.837413 255 255 255 255 0.236663 0.959422
-500 451.247 -139.202 0.006665 0.54653 -0.837413 255 255 255 255 0.236663 0.967582
-500 451.247 -139.202 0 0 -1 255 255 255 255 0.236663 0.967582
3 0 1 2 
3 1 3 2 
3 4 3 5 
3 6 7 8 
3 9 10 11 
3 12 13 14 
3 15 16 17 
3 18 19 20 
3 21 22 23 
3 24 25 26 
3 25 27 26 
3 27 28 26 
3 29 23 30 
3 31 32 33 
3 19 18 34 
3 34 31 33 
3 35 36 37 
3 38 39 40 
3 41 42 43 
3 44 45 46 
3 47 48 49 
3 50 51 52 
3 53 54 55 
3 56 57 58 
3 59 60 61 
3 62 63 64 
3 65 66 67 
3 68 31 69 
3 70 71 72 
3 73 74 75 
3 76 77 78 
3 79 80 81 
3 82 83 75 
3 75 83 73 
3 84 85 86 
3 87 88 89 
3 90 84 88 
3 91 92 93 
3 94 95 96 
3 97 90 98 
3 75 99 100 
3 85 90 97 
3 75 74 99 
3 101 102 103 
3 104 105 106 
3 100 107 75 
3 108 109 110 
3 98 111 112 
3 113 114 115 
3 116 117 118 
3 119 120 121 
3 122 123 124 
3 125 126 127 
3 128 129 130 
3 131 132 133 
3 134 135 136 
3 137 138 139 
3 140 141 142 
3 143 144 145 
3 146 147 148 
3 142 149 140 
3 150 151 152 
3 153 154 155 
3 156 157 158 
3 159 160 161 
3 159 161 162 
3 162 163 164 
3 165 166 167 
3 167 168 169 
3 170 165 171 
3 172 173 174 
3 175 176 177 
3 178 179 175 
3 180 181 182 
3 183 174 184 
3 185 186 187 
3 186 188 187 
3 189 190 191 
3 192 193 194 
3 195 196 197 
3 198 199 200 
3 201 202 203 
3 204 205 66 
3 206 207 208 
3 209 210 211 
3 212 213 214 
3 215 216 217 
3 217 218 219 
3 220 221 222 
3 223 222 221 
3 224 225 226 
3 227 228 229 
3 230 231 232 
3 233 234 235 
3 236 9 11 
3 237 238 239 
3 65 240 241 
3 242 243 244 
3 245 246 247 
3 248 249 250 
3 251 252 253 
3 254 255 256 
3 105 257 106 
3 0 258 1 
3 4 2 3 
3 6 259 7 
3 9 260 10 
3 261 262 263 
3 21 72 22 
3 24 264 25 
3 27 205 28 
3 31 68 32 
3 34 18 31 
3 265 266 267 
3 268 269 270 
3 271 272 273 
3 44 274 45 
3 275 276 277 
3 50 278 51 
3 53 279 54 
3 280 281 282 
3 65 204 66 
3 73 283 74 
3 76 284 77 
3 79 184 80 
3 82 285 83 
3 84 90 85 
3 87 90 88 
3 91 109 92 
3 286 287 288 
3 289 290 291 
3 100 292 107 
3 108 92 109 
3 98 90 111 
3 293 294 295 
3 296 297 298 
3 122 299 123 
3 128 300 129 
3 301 302 303 
3 134 304 135 
3 137 305 138 
3 140 306 141 
3 307 308 309 
3 310 311 312 
3 150 313 151 
3 153 314 154 
3 156 315 157 
3 159 316 160 
3 162 161 163 
3 167 166 168 
3 170 166 165 
3 172 317 173 
3 175 179 176 
3 178 78 179 
3 180 318 181 
3 183 172 174 
3 185 319 186 
3 320 321 322 
3 323 324 198 
3 204 28 205 
3 325 326 327 
3 215 328 216 
3 217 216 218 
3 220 329 221 
3 330 331 332 
3 236 333 9 
3 334 335 336 
3 337 338 339 
3 340 341 342 
3 105 343 257 
