ply
format ascii 1.0
comment VCGLIB generated
comment TextureFile Dungeons_2_Texture_01_A.png
element vertex 473
property float x
property float y
property float z
property float nx
property float ny
property float nz
property uchar red
property uchar green
property uchar blue
property uchar alpha
property float texture_u
property float texture_v
element face 246
property list uchar int vertex_indices
end_header
-500 451.533 -22.3954 0 -0 -1 255 255 255 255 0.235298 0.719826
-323.155 398.569 -22.3954 0 -0 -1 255 255 255 255 0.153885 0.695444
-415.709 309.933 -22.3954 0 -0 -1 255 255 255 255 0.196494 0.654639
-304.955 469.733 -31.1954 0 -0 -1 255 255 255 255 0.145507 0.97317
-371.487 469.733 -31.1954 0 -0 -1 255 255 255 255 0.176136 0.97317
-500 500 -31.1954 0 -0 -1 255 255 255 255 0.235298 0.987104
-453.348 480.615 -31.1954 -0 -0 -1 255 255 255 255 0.213821 0.97818
-500 469.733 -31.1954 0 -0 -1 255 255 255 255 0.235298 0.97317
-493.97 469.733 -31.1954 0 -0 -1 255 255 255 255 0.232522 0.97317
-408.4 291.733 -31.1954 -0.301082 0.314391 -0.900282 255 255 255 255 0.193129 0.64626
-323.155 398.569 -22.3954 -0.301082 0.314391 -0.900282 255 255 255 255 0.153885 0.695444
-304.955 390.799 -31.1954 -0.301082 0.314391 -0.900282 255 255 255 255 0.145507 0.691866
-304.955 390.799 -31.1954 -0.435308 -0 -0.900282 255 255 255 255 0.145507 0.691866
-323.155 451.533 -22.3954 -0.435308 -0 -0.900282 255 255 255 255 0.153885 0.719826
-304.955 469.733 -31.1954 -0.435308 -0 -0.900282 255 255 255 255 0.145507 0.728204
-304.955 469.733 -31.1954 0 -0.435302 -0.900285 255 255 255 255 0.145507 0.728204
-323.155 451.533 -22.3954 0 -0.435302 -0.900285 255 255 255 255 0.153885 0.719826
-371.487 469.733 -31.1954 0 -0.435302 -0.900285 255 255 255 255 0.176136 0.728204
-500 451.533 -22.3954 0 -0.435302 -0.900285 255 255 255 255 0.235298 0.719826
-371.487 469.733 -31.1954 -3e-06 -0.435282 -0.900294 255 255 255 255 0.176136 0.728204
-500 451.533 -22.3954 -3e-06 -0.435282 -0.900294 255 255 255 255 0.235298 0.719826
-441.359 460.697 -26.8264 -3e-06 -0.435282 -0.900294 255 255 255 255 0.208302 0.724045
-500 469.733 -31.1954 -0 -0.435301 -0.900285 255 255 255 255 0.235298 0.728204
-493.97 469.733 -31.1954 -0 -0.435301 -0.900285 255 255 255 255 0.232522 0.728204
-500 451.533 -22.3954 -0 -0.435301 -0.900285 255 255 255 255 0.235298 0.719826
-441.359 460.697 -26.8264 0 -0.435301 -0.900285 255 255 255 255 0.208302 0.724045
-500 291.733 -31.1954 0 0.435302 -0.900284 255 255 255 255 0.235298 0.64626
-415.709 309.933 -22.3954 0 0.435302 -0.900284 255 255 255 255 0.196494 0.654639
-408.4 291.733 -31.1954 0 0.435302 -0.900284 255 255 255 255 0.193129 0.64626
-304.955 390.799 -31.1954 -0 -0 -1 255 255 255 255 0.145507 0.936832
-337.335 314.983 -31.1954 -0 -0 -1 255 255 255 255 0.160413 0.901929
-408.4 291.733 -31.1954 -0 -0 -1 255 255 255 255 0.193129 0.891226
-337.335 115.467 -31.1953 -0 -0 -1 255 255 255 255 0.160413 0.810079
-500 91.2283 -41.4482 0 0.38958 -0.920993 255 255 255 255 0.235298 0.798921
-337.335 115.467 -31.1953 0 0.38958 -0.920993 255 255 255 255 0.160413 0.810079
-246.012 91.2283 -41.4482 0 0.38958 -0.920993 255 255 255 255 0.118372 0.798921
0 91.2283 -41.4482 -0 0.38958 -0.920993 255 255 255 255 0.005117 0.798921
-82.7155 91.2282 -41.4482 -0 0.38958 -0.920993 255 255 255 255 0.043196 0.798921
-162.665 115.467 -31.1953 -0 0.38958 -0.920993 255 255 255 255 0.080002 0.810079
-167.694 104.377 -35.8862 0 0.38958 -0.920993 255 255 255 255 0.082317 0.804975
-500 -7e-06 -41.4482 0 -0 -1 255 255 255 255 0.235298 0.756923
-500 91.2283 -41.4482 0 -0 -1 255 255 255 255 0.235298 0.798921
0 -7e-06 -41.4482 0 -0 -1 255 255 255 255 0.005117 0.756923
-246.012 91.2283 -41.4482 -0 -0 -1 255 255 255 255 0.118372 0.798921
-246.012 91.2283 -41.4482 -0 -1e-06 -1 255 255 255 255 0.118372 0.798921
-156.373 82.2985 -41.4482 -0 -1e-06 -1 255 255 255 255 0.077105 0.79481
0 -7e-06 -41.4482 -0 -1e-06 -1 255 255 255 255 0.005117 0.756923
-156.373 82.2985 -41.4482 0 0 -1 255 255 255 255 0.077105 0.79481
-82.7155 91.2282 -41.4482 0 0 -1 255 255 255 255 0.043196 0.798921
0 91.2283 -41.4482 0 -0 -1 255 255 255 255 0.005117 0.798921
-500 500 -31.1954 0 1 -0 255 255 255 255 0.105847 0.756923
0 500 31.1952 0 1 -0 255 255 255 255 0.134569 0.987104
0 500 -31.1954 0 1 -0 255 255 255 255 0.105847 0.987104
-195.045 469.733 -31.1954 0 -0 -1 255 255 255 255 0.094909 0.97317
-195.045 390.799 -31.1954 0 -0 -1 255 255 255 255 0.094909 0.936832
-500 115.467 -31.1953 0 0.38958 -0.920993 255 255 255 255 0.235298 0.810079
-500 115.467 -31.1953 0 -0 -1 255 255 255 255 0.235298 0.810079
-500 291.733 -31.1954 0 -0 -1 255 255 255 255 0.235298 0.891226
-279.469 339.186 -21.1954 0.697281 -0.716798 0 255 255 255 255 0.129755 0.678544
-314.335 305.27 21.1953 0.697281 -0.716798 0 255 255 255 255 0.11024 0.66293
-314.335 305.27 -21.1954 0.697281 -0.716798 0 255 255 255 255 0.129755 0.66293
-314.335 115.467 -21.1953 1 0 0 255 255 255 255 0.129755 0.575552
-314.335 180.945 -21.1954 1 0 0 255 255 255 255 0.129755 0.605695
-314.335 115.467 21.1953 1 0 0 255 255 255 255 0.11024 0.575552
-314.335 305.27 21.1953 1 0 0 255 255 255 255 0.11024 0.66293
-314.335 249.521 -12.5325 1 0 0 255 255 255 255 0.125767 0.637265
-314.335 280.102 -21.1954 1 0 0 255 255 255 255 0.129755 0.651344
-314.335 305.27 -21.1954 1 0 0 255 255 255 255 0.129755 0.66293
-84.2905 309.933 -22.3954 0 -0 -1 255 255 255 255 0.043921 0.654639
0 451.533 -22.3954 0 -0 -1 255 255 255 255 0.005117 0.719826
0 309.933 -22.3954 0 -0 -1 255 255 255 255 0.005117 0.654639
0 500 -31.1954 0 -0 -1 255 255 255 255 0.005117 0.987104
0 469.733 -31.1954 0 -0 -1 255 255 255 255 0.005117 0.97317
-195.045 390.799 -31.1954 0.301082 0.314391 -0.900282 255 255 255 255 0.094909 0.691866
-176.845 398.569 -22.3954 0.301082 0.314391 -0.900282 255 255 255 255 0.08653 0.695444
-180.696 377.057 -31.1954 0.301082 0.314391 -0.900282 255 255 255 255 0.088303 0.68554
-91.5996 291.733 -31.1954 0.30108 0.314389 -0.900284 255 255 255 255 0.047286 0.64626
-118.624 317.614 -31.1954 0.30108 0.314389 -0.900284 255 255 255 255 0.059727 0.658175
-84.2905 309.933 -22.3954 0.30108 0.314389 -0.900284 255 255 255 255 0.043921 0.654639
-140.795 352.376 -26.4704 0.301082 0.314391 -0.900282 255 255 255 255 0.069934 0.674178
-176.845 398.569 -22.3954 0.301079 0.314389 -0.900284 255 255 255 255 0.08653 0.695444
-84.2905 309.933 -22.3954 0.301079 0.314389 -0.900284 255 255 255 255 0.043921 0.654639
-140.795 352.376 -26.4704 0.301079 0.314389 -0.900284 255 255 255 255 0.069934 0.674178
-118.624 317.614 -31.1954 0.30108 0.31439 -0.900283 255 255 255 255 0.059727 0.658175
-140.795 352.376 -26.4704 0.30108 0.31439 -0.900283 255 255 255 255 0.069934 0.674178
-84.2905 309.933 -22.3954 0.30108 0.31439 -0.900283 255 255 255 255 0.043921 0.654639
-195.045 390.799 -31.1954 0.435308 -0 -0.900282 255 255 255 255 0.094909 0.691866
-176.845 451.533 -22.3954 0.435308 -0 -0.900282 255 255 255 255 0.08653 0.719826
-176.845 398.569 -22.3954 0.435308 -0 -0.900282 255 255 255 255 0.08653 0.695444
-176.845 451.533 -22.3954 -0 -0.4353 -0.900285 255 255 255 255 0.08653 0.719826
0 469.733 -31.1954 -0 -0.4353 -0.900285 255 255 255 255 0.005117 0.728204
0 451.533 -22.3954 -0 -0.4353 -0.900285 255 255 255 255 0.005117 0.719826
0 291.733 -31.1954 0 0.435302 -0.900284 255 255 255 255 0.005117 0.64626
-84.2905 309.933 -22.3954 0 0.435302 -0.900284 255 255 255 255 0.043921 0.654639
0 309.933 -22.3954 0 0.435302 -0.900284 255 255 255 255 0.005117 0.654639
0 469.733 -31.1954 1 0 0 255 255 255 255 0.134569 0.97317
0 500 31.1952 1 0 0 255 255 255 255 0.105847 0.987104
0 469.733 31.1952 1 0 0 255 255 255 255 0.105847 0.97317
0 291.733 -31.1954 1 0 0 255 255 255 255 0.134569 0.891226
0 309.933 22.3953 1 0 0 255 255 255 255 0.109898 0.899604
0 291.733 31.1953 1 0 0 255 255 255 255 0.105847 0.891226
-91.5996 291.733 -31.1954 0 -0 -1 255 255 255 255 0.047286 0.891226
-162.665 314.983 -31.1954 0 -0 -1 255 255 255 255 0.080002 0.901929
-118.624 317.614 -31.1954 0 -0 -1 255 255 255 255 0.059727 0.90314
-150.894 331.654 -31.1954 0 -0 -1 255 255 255 255 0.074583 0.909604
-180.696 377.057 -31.1954 0 -0 -1 255 255 255 255 0.088303 0.930506
-211.189 362.186 -31.1954 0 -0 -1 255 255 255 255 0.10234 0.92366
-162.665 115.467 -31.1953 0 -0 -1 255 255 255 255 0.080002 0.810079
0 115.467 -31.1953 0 0.38958 -0.920993 255 255 255 255 0.005117 0.810079
0 115.467 -31.1953 -0 -0 -1 255 255 255 255 0.005117 0.810079
0 291.733 -31.1954 -0 -0 -1 255 255 255 255 0.005117 0.891226
-288.811 362.186 -31.1954 0 -0 -1 255 255 255 255 0.138075 0.92366
-288.811 362.186 -31.1954 0.451599 -0.464235 -0.761935 255 255 255 255 0.138075 0.92366
-327.335 310.76 -22.6954 0.451599 -0.464235 -0.761935 255 255 255 255 0.15581 0.899985
-337.335 314.983 -31.1954 0.451599 -0.464235 -0.761935 255 255 255 255 0.160413 0.901929
-337.335 115.467 -31.1953 0.647648 -0 -0.761939 255 255 255 255 0.160413 0.810079
-327.335 310.76 -22.6954 0.647648 -0 -0.761939 255 255 255 255 0.15581 0.899985
-327.335 115.467 -22.6953 0.647648 -0 -0.761939 255 255 255 255 0.15581 0.810079
-288.811 362.186 -31.1954 0 -0.647649 -0.761939 255 255 255 255 0.138075 0.92366
-215.25 352.186 -22.6954 0 -0.647649 -0.761939 255 255 255 255 0.10421 0.919056
-284.75 352.186 -22.6954 0 -0.647649 -0.761939 255 255 255 255 0.136205 0.919056
-211.189 362.186 -31.1954 -0.451595 -0.464232 -0.761939 255 255 255 255 0.10234 0.92366
-172.665 310.76 -22.6954 -0.451595 -0.464232 -0.761939 255 255 255 255 0.084606 0.899985
-215.25 352.186 -22.6954 -0.451595 -0.464232 -0.761939 255 255 255 255 0.10421 0.919056
-162.665 115.467 -31.1953 -0.647648 -0 -0.761939 255 255 255 255 0.080002 0.810079
-172.665 310.76 -22.6954 -0.647648 -0 -0.761939 255 255 255 255 0.084606 0.899985
-162.665 314.983 -31.1954 -0.647648 -0 -0.761939 255 255 255 255 0.080002 0.901929
-284.75 352.186 -22.6954 0.079923 -0.082159 -0.99341 255 255 255 255 0.136205 0.674091
-314.335 305.27 -21.1954 0.079923 -0.082159 -0.99341 255 255 255 255 0.149825 0.652492
-327.335 310.76 -22.6954 0.079923 -0.082159 -0.99341 255 255 255 255 0.15581 0.65502
-327.335 115.467 -22.6953 0.114624 -0 -0.993409 255 255 255 255 0.15581 0.565114
-327.335 310.76 -22.6954 0.114624 -0 -0.993409 255 255 255 255 0.15581 0.65502
-314.335 115.467 -21.1953 0.114624 -0 -0.993409 255 255 255 255 0.149825 0.565114
-314.335 305.27 -21.1954 0.114621 -0 -0.993409 255 255 255 255 0.149825 0.652492
-314.335 280.102 -21.1954 0.114621 -0 -0.993409 255 255 255 255 0.149825 0.640906
-327.335 310.76 -22.6954 0.114621 -0 -0.993409 255 255 255 255 0.15581 0.65502
-314.335 280.102 -21.1954 0.114622 0 -0.993409 255 255 255 255 0.149825 0.640906
-322.235 253.309 -22.107 0.114622 0 -0.993409 255 255 255 255 0.153462 0.628571
-327.335 310.76 -22.6954 0.114622 0 -0.993409 255 255 255 255 0.15581 0.65502
-327.335 310.76 -22.6954 0.114606 -1e-06 -0.993411 255 255 255 255 0.15581 0.65502
-322.235 253.309 -22.107 0.114606 -1e-06 -0.993411 255 255 255 255 0.153462 0.628571
-314.335 115.467 -21.1953 0.114606 -1e-06 -0.993411 255 255 255 255 0.149825 0.565114
-322.235 253.309 -22.107 0.114623 -0 -0.993409 255 255 255 255 0.153462 0.628571
-314.335 180.945 -21.1954 0.114623 -0 -0.993409 255 255 255 255 0.149825 0.595257
-314.335 115.467 -21.1953 0.114623 -0 -0.993409 255 255 255 255 0.149825 0.565114
-215.25 352.186 -22.6954 0 -0.114621 -0.993409 255 255 255 255 0.10421 0.674091
-279.469 339.186 -21.1954 0 -0.114621 -0.993409 255 255 255 255 0.133774 0.668106
-284.75 352.186 -22.6954 0 -0.114621 -0.993409 255 255 255 255 0.136205 0.674091
-215.25 352.186 -22.6954 -0.079927 -0.082163 -0.993409 255 255 255 255 0.10421 0.674091
-185.665 305.269 -21.1953 -0.079927 -0.082163 -0.993409 255 255 255 255 0.09059 0.652492
-220.531 339.186 -21.1953 -0.079927 -0.082163 -0.993409 255 255 255 255 0.106641 0.668106
-172.665 115.467 -22.6953 -0.114629 -0 -0.993408 255 255 255 255 0.084606 0.565114
-185.665 305.269 -21.1953 -0.114629 -0 -0.993408 255 255 255 255 0.09059 0.652492
-172.665 310.76 -22.6954 -0.114629 -0 -0.993408 255 255 255 255 0.084606 0.65502
-162.665 115.467 -31.1953 -0 1 -1e-06 255 255 255 255 0.105847 0.912219
-185.665 115.467 -21.1953 -0 1 -1e-06 255 255 255 255 0.11045 0.901631
-172.665 115.467 -22.6953 -0 1 -1e-06 255 255 255 255 0.10976 0.907616
-314.335 115.467 -21.1953 0 1 -1e-06 255 255 255 255 0.11045 0.842396
-337.335 115.467 -31.1953 0 1 -1e-06 255 255 255 255 0.105847 0.831808
-327.335 115.467 -22.6953 0 1 -1e-06 255 255 255 255 0.10976 0.836411
-314.335 115.467 -21.1953 0 1 -0 255 255 255 255 0.11045 0.842396
-185.665 115.467 21.1953 0 1 -0 255 255 255 255 0.129965 0.901631
-185.665 115.467 -21.1953 0 1 -0 255 255 255 255 0.11045 0.901631
-415.709 309.933 22.3953 0 0 1 255 255 255 255 0.196494 0.599457
-500 451.533 22.3952 0 0 1 255 255 255 255 0.235298 0.53427
-500 309.933 22.3953 0 0 1 255 255 255 255 0.235298 0.599457
-304.955 469.733 31.1952 0 0 1 255 255 255 255 0.145507 0.770857
-500 500 31.1952 0 0 1 255 255 255 255 0.235298 0.756923
-500 469.733 31.1952 0 0 1 255 255 255 255 0.235298 0.770857
-304.955 390.799 31.1952 -0.301082 0.314391 0.900282 255 255 255 255 0.145507 0.562229
-323.155 398.569 22.3952 -0.301082 0.314391 0.900282 255 255 255 255 0.153885 0.558652
-348.465 358.612 27.8842 -0.301082 0.314391 0.900282 255 255 255 255 0.165537 0.577047
-323.155 398.569 22.3952 -0.301084 0.314393 0.900281 255 255 255 255 0.153885 0.558652
-415.709 309.933 22.3953 -0.301084 0.314393 0.900281 255 255 255 255 0.196494 0.599457
-348.465 358.612 27.8842 -0.301084 0.314393 0.900281 255 255 255 255 0.165537 0.577047
-378.752 320.126 31.1953 -0.301084 0.314393 0.900281 255 255 255 255 0.17948 0.594764
-408.4 291.733 31.1953 -0.301084 0.314394 0.90028 255 255 255 255 0.193129 0.607836
-378.752 320.126 31.1953 -0.301084 0.314394 0.90028 255 255 255 255 0.17948 0.594764
-415.709 309.933 22.3953 -0.301084 0.314394 0.90028 255 255 255 255 0.196494 0.599457
-304.955 390.799 31.1952 -0.435308 0 0.900282 255 255 255 255 0.145507 0.562229
-323.155 451.533 22.3952 -0.435308 0 0.900282 255 255 255 255 0.153885 0.53427
-323.155 398.569 22.3952 -0.435308 0 0.900282 255 255 255 255 0.153885 0.558652
-323.155 451.533 22.3952 0 -0.4353 0.900285 255 255 255 255 0.153885 0.53427
-500 469.733 31.1952 0 -0.4353 0.900285 255 255 255 255 0.235298 0.525891
-500 451.533 22.3952 0 -0.4353 0.900285 255 255 255 255 0.235298 0.53427
-500 291.733 31.1953 -0 0.435302 0.900284 255 255 255 255 0.235298 0.607836
-415.709 309.933 22.3953 -0 0.435302 0.900284 255 255 255 255 0.196494 0.599457
-500 309.933 22.3953 -0 0.435302 0.900284 255 255 255 255 0.235298 0.599457
-500 469.733 31.1952 -1 0 0 255 255 255 255 0.134569 0.97317
-500 500 -31.1954 -1 0 0 255 255 255 255 0.105847 0.987104
-500 469.733 -31.1954 -1 0 0 255 255 255 255 0.105847 0.97317
-500 309.933 22.3953 -1 0 0 255 255 255 255 0.130518 0.899604
-500 451.533 -22.3954 -1 0 0 255 255 255 255 0.109898 0.964792
-500 309.933 -22.3954 -1 0 0 255 255 255 255 0.109898 0.899604
-408.4 291.733 31.1953 0 0 1 255 255 255 255 0.193129 0.852802
-337.335 314.983 31.1953 0 0 1 255 255 255 255 0.160413 0.842098
-378.752 320.126 31.1953 0 0 1 255 255 255 255 0.17948 0.83973
-335.305 340.994 31.1953 0 0 1 255 255 255 255 0.159479 0.830124
-288.811 362.186 31.1953 0 0 1 255 255 255 255 0.138075 0.820367
-304.955 390.799 31.1952 0 0 1 255 255 255 255 0.145507 0.807195
-337.335 115.467 31.1953 0 0 1 255 255 255 255 0.160413 0.933948
-500 91.2283 41.4482 0 0.38958 0.920992 255 255 255 255 0.235298 0.945105
-253.815 91.2283 41.4482 0 0.38958 0.920992 255 255 255 255 0.121964 0.945105
-337.335 115.467 31.1953 0 0.38958 0.920992 255 255 255 255 0.160413 0.933948
0 91.2283 41.4482 0 0.38958 0.920992 255 255 255 255 0.005117 0.945105
-162.665 115.467 31.1953 0 0.38958 0.920992 255 255 255 255 0.080002 0.933948
-91.5525 91.2283 41.4482 0 0.38958 0.920992 255 255 255 255 0.047264 0.945105
-187.032 104.136 35.9881 0 0.38958 0.920992 255 255 255 255 0.09122 0.939164
-253.815 91.2283 41.4482 -0 0.389581 0.920992 255 255 255 255 0.121964 0.945105
-187.032 104.136 35.9881 -0 0.389581 0.920992 255 255 255 255 0.09122 0.939164
-162.665 115.467 31.1953 -0 0.389581 0.920992 255 255 255 255 0.080002 0.933948
-500 7e-06 41.4482 0 0 1 255 255 255 255 0.235298 0.987104
0 7e-06 41.4482 0 0 1 255 255 255 255 0.005117 0.987104
-500 91.2283 41.4482 0 0 1 255 255 255 255 0.235298 0.945105
-253.815 91.2283 41.4482 0 0 1 255 255 255 255 0.121964 0.945105
-253.815 91.2283 41.4482 -1e-06 -3e-06 1 255 255 255 255 0.121964 0.945105
0 7e-06 41.4482 -1e-06 -3e-06 1 255 255 255 255 0.005117 0.987104
-189.264 79.5329 41.4482 -1e-06 -3e-06 1 255 255 255 255 0.092247 0.95049
-189.264 79.5329 41.4482 0 0 1 255 255 255 255 0.092247 0.95049
-91.5525 91.2283 41.4482 0 0 1 255 255 255 255 0.047264 0.945105
0 91.2283 41.4482 -0 0 1 255 255 255 255 0.005117 0.945105
-500 7e-06 41.4482 0 -1 0 255 255 255 255 0.101126 0.756923
0 -7e-06 -41.4482 0 -1 0 255 255 255 255 0.139289 0.987104
0 7e-06 41.4482 0 -1 0 255 255 255 255 0.101126 0.987104
-195.045 469.733 31.1952 0 0 1 255 255 255 255 0.094909 0.770857
-195.045 390.799 31.1952 0 0 1 255 255 255 255 0.094909 0.807195
-500 115.467 31.1953 -0 0.38958 0.920992 255 255 255 255 0.235298 0.933948
-500 115.467 31.1953 -0 0 1 255 255 255 255 0.235298 0.933948
-500 291.733 31.1953 -0 0 1 255 255 255 255 0.235298 0.852802
-220.531 339.186 21.1952 -0 -1 0 255 255 255 255 0.11045 0.640614
-279.469 339.186 -21.1954 -0 -1 0 255 255 255 255 0.129965 0.613481
-220.531 339.186 -21.1953 -0 -1 0 255 255 255 255 0.129965 0.640614
0 451.533 22.3952 0 0 1 255 255 255 255 0.005117 0.53427
-176.845 398.569 22.3952 0 0 1 255 255 255 255 0.08653 0.558652
-84.2905 309.933 22.3953 0 0 1 255 255 255 255 0.043921 0.599457
-121.625 469.733 31.1952 0 0 1 255 255 255 255 0.061108 0.770857
0 500 31.1952 0 0 1 255 255 255 255 0.005117 0.756923
-49.4696 479.536 31.1952 0 0 1 255 255 255 255 0.027891 0.766344
-17.996 469.733 31.1952 -0 0 1 255 255 255 255 0.013402 0.770857
0 469.733 31.1952 0 0 1 255 255 255 255 0.005117 0.770857
-91.5996 291.733 31.1953 0.301082 0.314391 0.900282 255 255 255 255 0.047286 0.607836
-176.845 398.569 22.3952 0.301082 0.314391 0.900282 255 255 255 255 0.08653 0.558652
-195.045 390.799 31.1952 0.301082 0.314391 0.900282 255 255 255 255 0.094909 0.562229
-195.045 390.799 31.1952 0.435308 0 0.900281 255 255 255 255 0.094909 0.562229
-176.845 451.533 22.3952 0.435308 0 0.900281 255 255 255 255 0.08653 0.53427
-195.045 469.733 31.1952 0.435308 0 0.900281 255 255 255 255 0.094909 0.525891
-195.045 469.733 31.1952 0 -0.435302 0.900285 255 255 255 255 0.094909 0.525891
-176.845 451.533 22.3952 0 -0.435302 0.900285 255 255 255 255 0.08653 0.53427
-121.625 469.733 31.1952 0 -0.435302 0.900285 255 255 255 255 0.061108 0.525891
-176.845 451.533 22.3952 -0 -0.435301 0.900285 255 255 255 255 0.08653 0.53427
0 451.533 22.3952 -0 -0.435301 0.900285 255 255 255 255 0.005117 0.53427
-121.625 469.733 31.1952 -0 -0.435301 0.900285 255 255 255 255 0.061108 0.525891
-121.625 469.733 31.1952 0 -0.435299 0.900286 255 255 255 255 0.061108 0.525891
0 451.533 22.3952 0 -0.435299 0.900286 255 255 255 255 0.005117 0.53427
-64.8904 463.662 28.26 0 -0.435299 0.900286 255 255 255 255 0.03499 0.528686
-64.8904 463.662 28.26 -0 -0.4353 0.900285 255 255 255 255 0.03499 0.528686
0 451.533 22.3952 -0 -0.4353 0.900285 255 255 255 255 0.005117 0.53427
-17.996 469.733 31.1952 -0 -0.4353 0.900285 255 255 255 255 0.013402 0.525891
0 469.733 31.1952 0 -0.4353 0.900285 255 255 255 255 0.005117 0.525891
0 291.733 31.1953 0 0.435302 0.900284 255 255 255 255 0.005117 0.607836
-84.2905 309.933 22.3953 0 0.435302 0.900284 255 255 255 255 0.043921 0.599457
-91.5996 291.733 31.1953 0 0.435302 0.900284 255 255 255 255 0.047286 0.607836
-162.665 314.983 31.1953 -0 0 1 255 255 255 255 0.080002 0.842098
-91.5996 291.733 31.1953 -0 0 1 255 255 255 255 0.047286 0.852802
-162.665 115.467 31.1953 -0 0 1 255 255 255 255 0.080002 0.933948
0 115.467 31.1953 -0 0.38958 0.920992 255 255 255 255 0.005117 0.933948
0 115.467 31.1953 0 0 1 255 255 255 255 0.005117 0.933948
0 291.733 31.1953 0 0 1 255 255 255 255 0.005117 0.852802
-185.665 305.269 21.1952 -0.697287 -0.716792 0 255 255 255 255 0.12962 0.66293
-220.531 339.186 -21.1953 -0.697287 -0.716792 0 255 255 255 255 0.110105 0.678544
-185.665 305.269 -21.1953 -0.697287 -0.716792 0 255 255 255 255 0.110105 0.66293
-185.665 115.467 -21.1953 -1 -0 -0 255 255 255 255 0.110105 0.575552
-185.665 115.467 21.1953 -1 -0 -0 255 255 255 255 0.12962 0.575552
-185.665 305.269 -21.1953 -1 -0 -0 255 255 255 255 0.110105 0.66293
-185.665 177.462 21.1953 -1 0 0 255 255 255 255 0.12962 0.604092
-185.665 237.302 7.65122 -1 0 0 255 255 255 255 0.123385 0.63164
-185.665 285.593 21.1952 -1 -0 0 255 255 255 255 0.12962 0.653871
-185.665 305.269 21.1952 -1 0 0 255 255 255 255 0.12962 0.66293
-211.189 362.186 31.1953 0 0 1 255 255 255 255 0.102341 0.820367
-327.335 310.76 22.6953 0.451599 -0.464235 0.761935 255 255 255 255 0.15581 0.844042
-288.811 362.186 31.1953 0.451599 -0.464235 0.761935 255 255 255 255 0.138075 0.820367
-337.335 314.983 31.1953 0.451599 -0.464235 0.761935 255 255 255 255 0.160413 0.842098
-337.335 115.467 31.1953 0.647648 0 0.761939 255 255 255 255 0.160413 0.933948
-327.335 310.76 22.6953 0.647648 0 0.761939 255 255 255 255 0.15581 0.844042
-337.335 314.983 31.1953 0.647648 0 0.761939 255 255 255 255 0.160413 0.842098
-288.811 362.186 31.1953 0 -0.647648 0.761939 255 255 255 255 0.138075 0.820367
-215.25 352.186 22.6953 0 -0.647648 0.761939 255 255 255 255 0.10421 0.824971
-211.189 362.186 31.1953 0 -0.647648 0.761939 255 255 255 255 0.102341 0.820367
-211.189 362.186 31.1953 -0.451597 -0.464233 0.761937 255 255 255 255 0.102341 0.820367
-172.665 310.76 22.6953 -0.451597 -0.464233 0.761937 255 255 255 255 0.084606 0.844042
-162.665 314.983 31.1953 -0.451597 -0.464233 0.761937 255 255 255 255 0.080002 0.842098
-162.665 314.983 31.1953 -0.647648 0 0.761939 255 255 255 255 0.080002 0.842098
-172.665 310.76 22.6953 -0.647648 0 0.761939 255 255 255 255 0.084606 0.844042
-162.665 115.467 31.1953 -0.647648 0 0.761939 255 255 255 255 0.080002 0.933948
-172.665 235.528 22.6953 -0.647648 0 0.761939 255 255 255 255 0.084606 0.878676
-172.665 115.467 22.6953 -0.647648 0 0.761939 255 255 255 255 0.084606 0.933948
-314.335 305.27 21.1953 0.079923 -0.082158 0.993409 255 255 255 255 0.149825 0.601604
-284.75 352.186 22.6953 0.079923 -0.082158 0.993409 255 255 255 255 0.136205 0.580005
-327.335 310.76 22.6953 0.079923 -0.082158 0.993409 255 255 255 255 0.15581 0.599076
-327.335 115.467 22.6953 0.114621 0 0.993409 255 255 255 255 0.15581 0.688982
-314.335 305.27 21.1953 0.114621 0 0.993409 255 255 255 255 0.149825 0.601604
-327.335 310.76 22.6953 0.114621 0 0.993409 255 255 255 255 0.15581 0.599076
-279.469 339.186 21.1953 0 -0.114621 0.993409 255 255 255 255 0.133774 0.58599
-215.25 352.186 22.6953 0 -0.114621 0.993409 255 255 255 255 0.10421 0.580005
-284.75 352.186 22.6953 0 -0.114621 0.993409 255 255 255 255 0.136205 0.580005
-215.25 352.186 22.6953 -0.079926 -0.082163 0.993409 255 255 255 255 0.10421 0.580005
-185.665 305.269 21.1952 -0.079926 -0.082163 0.993409 255 255 255 255 0.09059 0.601604
-172.665 310.76 22.6953 -0.079926 -0.082163 0.993409 255 255 255 255 0.084606 0.599076
-172.665 310.76 22.6953 -0.114628 0 0.993408 255 255 255 255 0.084606 0.599076
-185.665 285.593 21.1952 -0.114628 0 0.993408 255 255 255 255 0.09059 0.610662
-172.665 235.528 22.6953 -0.114628 0 0.993408 255 255 255 255 0.084606 0.63371
-162.665 115.467 31.1953 0 1 -1e-06 255 255 255 255 0.134569 0.912219
-172.665 115.467 22.6953 0 1 -1e-06 255 255 255 255 0.130656 0.907616
-185.665 115.467 21.1953 0 1 -1e-06 255 255 255 255 0.129965 0.901631
-314.335 115.467 21.1953 -0 1 -1e-06 255 255 255 255 0.129965 0.842396
-327.335 115.467 22.6953 -0 1 -1e-06 255 255 255 255 0.130656 0.836411
-337.335 115.467 31.1953 -0 1 -1e-06 255 255 255 255 0.134569 0.831808
0 309.933 -22.3954 1 0 0 255 255 255 255 0.130518 0.899604
0 451.533 22.3952 1 0 0 255 255 255 255 0.109898 0.964792
0 451.533 -22.3954 1 -0 0 255 255 255 255 0.130518 0.964792
-500 451.533 22.3952 -1 0 0 255 255 255 255 0.130518 0.964792
-500 291.733 31.1953 -1 0 0 255 255 255 255 0.134569 0.891226
-500 291.733 -31.1954 -1 0 0 255 255 255 255 0.105847 0.891226
-500 115.467 31.1953 -1 0 0 255 255 255 255 0.134569 0.81008
-500 115.467 -31.1953 -1 0 0 255 255 255 255 0.105847 0.81008
-500 91.2283 41.4482 -1 0 0 255 255 255 255 0.139289 0.798921
-500 91.2283 -41.4482 -1 0 0 255 255 255 255 0.101127 0.798921
-500 7e-06 41.4482 -1 0 0 255 255 255 255 0.139289 0.756923
-500 -7e-06 -41.4482 -1 0 0 255 255 255 255 0.101127 0.756923
0 -7e-06 -41.4482 1 0 0 255 255 255 255 0.139289 0.756923
0 91.2283 41.4482 1 0 0 255 255 255 255 0.101127 0.798921
0 7e-06 41.4482 1 0 0 255 255 255 255 0.101127 0.756923
0 91.2283 -41.4482 1 0 0 255 255 255 255 0.139289 0.798921
0 115.467 31.1953 1 0 0 255 255 255 255 0.105847 0.810079
0 115.467 -31.1953 1 0 0 255 255 255 255 0.134569 0.810079
0 309.933 22.3953 0 0 1 255 255 255 255 0.005117 0.599457
-323.155 398.569 22.3952 -0 0 1 255 255 255 255 0.153885 0.558652
-176.845 398.569 -22.3954 -0 -0 -1 255 255 255 255 0.08653 0.695444
-500 309.933 -22.3954 0 -0 -1 255 255 255 255 0.235298 0.654639
-246.012 91.2283 -41.4482 0.025553 0.256508 -0.966204 255 255 255 255 0.118372 0.798921
-167.694 104.377 -35.8862 0.025553 0.256508 -0.966204 255 255 255 255 0.082317 0.804975
-156.373 82.2985 -41.4482 0.025553 0.256508 -0.966204 255 255 255 255 0.077105 0.79481
-156.373 82.2985 -41.4482 -0.027966 0.230683 -0.972627 255 255 255 255 0.077105 0.79481
-167.694 104.377 -35.8862 -0.027966 0.230683 -0.972627 255 255 255 255 0.082317 0.804975
-82.7155 91.2282 -41.4482 -0.027966 0.230683 -0.972627 255 255 255 255 0.043196 0.798921
-314.335 280.102 -21.1954 0.719272 -0.189352 -0.668426 255 255 255 255 0.129755 0.651344
-314.335 249.521 -12.5325 0.719272 -0.189352 -0.668426 255 255 255 255 0.125767 0.637265
-322.235 253.309 -22.107 0.719272 -0.189352 -0.668426 255 255 255 255 0.130175 0.639009
-322.235 253.309 -22.107 0.783869 0.077819 -0.61603 255 255 255 255 0.130175 0.639009
-314.335 249.521 -12.5325 0.783869 0.077819 -0.61603 255 255 255 255 0.125767 0.637265
-314.335 180.945 -21.1954 0.783869 0.077819 -0.61603 255 255 255 255 0.129755 0.605695
-441.359 460.697 -26.8264 -0.030816 -0.231818 -0.972271 255 255 255 255 0.208302 0.96901
-453.348 480.615 -31.1954 -0.030816 -0.231818 -0.972271 255 255 255 255 0.213821 0.97818
-371.487 469.733 -31.1954 -0.030816 -0.231818 -0.972271 255 255 255 255 0.176136 0.97317
-493.97 469.733 -31.1954 0.049661 -0.185382 -0.981411 255 255 255 255 0.232522 0.97317
-453.348 480.615 -31.1954 0.049661 -0.185382 -0.981411 255 255 255 255 0.213821 0.97818
-441.359 460.697 -26.8264 0.049661 -0.185382 -0.981411 255 255 255 255 0.208302 0.96901
-140.795 352.376 -26.4704 0.193925 0.127289 -0.972723 255 255 255 255 0.069934 0.919143
-150.894 331.654 -31.1954 0.193925 0.127289 -0.972723 255 255 255 255 0.074583 0.909604
-180.696 377.057 -31.1954 0.193925 0.127289 -0.972723 255 255 255 255 0.088303 0.930506
-118.624 317.614 -31.1954 0.080184 0.184288 -0.979596 255 255 255 255 0.059727 0.90314
-150.894 331.654 -31.1954 0.080184 0.184288 -0.979596 255 255 255 255 0.074583 0.909604
-140.795 352.376 -26.4704 0.080184 0.184288 -0.979596 255 255 255 255 0.069934 0.919143
-185.665 177.462 21.1953 -0.114626 0 0.993409 255 255 255 255 0.09059 0.660442
-172.665 115.467 22.6953 -0.114626 0 0.993409 255 255 255 255 0.084606 0.688982
-172.665 235.528 22.6953 -0.114626 0 0.993409 255 255 255 255 0.084606 0.63371
-185.665 285.593 21.1952 -0.754916 -0.177104 0.631455 255 255 255 255 0.12962 0.653871
-185.665 237.302 7.65122 -0.754916 -0.177104 0.631455 255 255 255 255 0.123385 0.63164
-172.665 235.528 22.6953 -0.754916 -0.177104 0.631455 255 255 255 255 0.13031 0.630823
-172.665 235.528 22.6953 -0.739499 0.148602 0.65655 255 255 255 255 0.13031 0.630823
-185.665 237.302 7.65122 -0.739499 0.148602 0.65655 255 255 255 255 0.123385 0.63164
-185.665 177.462 21.1953 -0.739499 0.148602 0.65655 255 255 255 255 0.12962 0.604092
-91.5525 91.2283 41.4482 -0.026194 0.218843 0.975408 255 255 255 255 0.047264 0.945105
-187.032 104.136 35.9881 -0.026194 0.218843 0.975408 255 255 255 255 0.09122 0.939164
-189.264 79.5329 41.4482 -0.026194 0.218843 0.975408 255 255 255 255 0.092247 0.95049
-189.264 79.5329 41.4482 0.038619 0.213153 0.976255 255 255 255 255 0.092247 0.95049
-187.032 104.136 35.9881 0.038619 0.213153 0.976255 255 255 255 255 0.09122 0.939164
-253.815 91.2283 41.4482 0.038619 0.213153 0.976255 255 255 255 255 0.121964 0.945105
-348.465 358.612 27.8842 -0.136771 0.083345 0.98709 255 255 255 255 0.165537 0.822013
-335.305 340.994 31.1953 -0.136771 0.083345 0.98709 255 255 255 255 0.159479 0.830124
-304.955 390.799 31.1952 -0.136771 0.083345 0.98709 255 255 255 255 0.145507 0.807195
-378.752 320.126 31.1953 -0.065663 0.13671 0.988432 255 255 255 255 0.17948 0.83973
-335.305 340.994 31.1953 -0.065663 0.13671 0.988432 255 255 255 255 0.159479 0.830124
-348.465 358.612 27.8842 -0.065663 0.13671 0.988432 255 255 255 255 0.165537 0.822013
-64.8904 463.662 28.26 0.028296 -0.208263 0.977663 255 255 255 255 0.03499 0.773652
-49.4696 479.536 31.1952 0.028296 -0.208263 0.977663 255 255 255 255 0.027891 0.766344
-121.625 469.733 31.1952 0.028296 -0.208263 0.977663 255 255 255 255 0.061108 0.770857
-17.996 469.733 31.1952 -0.043735 -0.140408 0.989127 255 255 255 255 0.013402 0.770857
-49.4696 479.536 31.1952 -0.043735 -0.140408 0.989127 255 255 255 255 0.027891 0.766344
-64.8904 463.662 28.26 -0.043735 -0.140408 0.989127 255 255 255 255 0.03499 0.773652
-323.155 451.533 -22.3954 0 -0 -1 255 255 255 255 0.153885 0.719826
-408.4 291.733 -31.1954 -0.301085 0.314393 -0.90028 255 255 255 255 0.193129 0.64626
-415.709 309.933 -22.3954 -0.301085 0.314393 -0.90028 255 255 255 255 0.196494 0.654639
-323.155 398.569 -22.3954 -0.301085 0.314393 -0.90028 255 255 255 255 0.153885 0.695444
-323.155 398.569 -22.3954 -0.435308 -0 -0.900282 255 255 255 255 0.153885 0.695444
-500 309.933 -22.3954 0 0.435302 -0.900284 255 255 255 255 0.235298 0.654639
-500 500 31.1952 0 1 0 255 255 255 255 0.134569 0.756923
-279.469 339.186 21.1953 0.697281 -0.716798 0 255 255 255 255 0.11024 0.678544
-195.045 469.733 -31.1954 0.435308 -0 -0.900282 255 255 255 255 0.094909 0.728204
-176.845 451.533 -22.3954 -0 -0.435302 -0.900285 255 255 255 255 0.08653 0.719826
-195.045 469.733 -31.1954 -0 -0.435302 -0.900285 255 255 255 255 0.094909 0.728204
0 469.733 -31.1954 -0 -0.435302 -0.900285 255 255 255 255 0.005117 0.728204
-91.5996 291.733 -31.1954 0 0.435302 -0.900284 255 255 255 255 0.047286 0.64626
0 500 -31.1954 1 0 0 255 255 255 255 0.134569 0.987104
-288.811 362.186 -31.1954 0.451607 -0.464239 -0.761927 255 255 255 255 0.138075 0.92366
-284.75 352.186 -22.6954 0.451607 -0.464239 -0.761927 255 255 255 255 0.136205 0.919056
-327.335 310.76 -22.6954 0.451607 -0.464239 -0.761927 255 255 255 255 0.15581 0.899985
-337.335 314.983 -31.1954 0.647648 -0 -0.761939 255 255 255 255 0.160413 0.901929
-211.189 362.186 -31.1954 -0 -0.647649 -0.761939 255 255 255 255 0.10234 0.92366
-211.189 362.186 -31.1954 -0.451597 -0.464233 -0.761937 255 255 255 255 0.10234 0.92366
-162.665 314.983 -31.1954 -0.451597 -0.464233 -0.761937 255 255 255 255 0.080002 0.901929
-172.665 310.76 -22.6954 -0.451597 -0.464233 -0.761937 255 255 255 255 0.084606 0.899985
-172.665 115.467 -22.6953 -0.647648 -0 -0.761939 255 255 255 255 0.084606 0.810079
-284.75 352.186 -22.6954 0.079919 -0.082157 -0.99341 255 255 255 255 0.136205 0.674091
-279.469 339.186 -21.1954 0.079919 -0.082157 -0.99341 255 255 255 255 0.133774 0.668106
-314.335 305.27 -21.1954 0.079919 -0.082157 -0.99341 255 255 255 255 0.149825 0.652492
-215.25 352.186 -22.6954 2e-06 -0.114628 -0.993408 255 255 255 255 0.10421 0.674091
-220.531 339.186 -21.1953 2e-06 -0.114628 -0.993408 255 255 255 255 0.106641 0.668106
-279.469 339.186 -21.1954 2e-06 -0.114628 -0.993408 255 255 255 255 0.133774 0.668106
-215.25 352.186 -22.6954 -0.079926 -0.082163 -0.993409 255 255 255 255 0.10421 0.674091
-172.665 310.76 -22.6954 -0.079926 -0.082163 -0.993409 255 255 255 255 0.084606 0.65502
-185.665 305.269 -21.1953 -0.079926 -0.082163 -0.993409 255 255 255 255 0.09059 0.652492
-172.665 115.467 -22.6953 -0.114624 0 -0.993409 255 255 255 255 0.084606 0.565114
-185.665 115.467 -21.1953 -0.114624 0 -0.993409 255 255 255 255 0.09059 0.565114
-185.665 305.269 -21.1953 -0.114624 0 -0.993409 255 255 255 255 0.09059 0.652492
-314.335 115.467 21.1953 0 1 0 255 255 255 255 0.129965 0.842396
-304.955 390.799 31.1952 -0.435308 0 0.900281 255 255 255 255 0.145507 0.562229
-304.955 469.733 31.1952 -0.435308 0 0.900281 255 255 255 255 0.145507 0.525891
-323.155 451.533 22.3952 -0.435308 0 0.900281 255 255 255 255 0.153885 0.53427
-323.155 451.533 22.3952 0 -0.435302 0.900285 255 255 255 255 0.153885 0.53427
-304.955 469.733 31.1952 0 -0.435302 0.900285 255 255 255 255 0.145507 0.525891
-500 469.733 31.1952 0 -0.435302 0.900285 255 255 255 255 0.235298 0.525891
-408.4 291.733 31.1953 0 0.435302 0.900284 255 255 255 255 0.193129 0.607836
-500 500 31.1952 -1 0 0 255 255 255 255 0.134569 0.987104
-500 -7e-06 -41.4482 0 -1 0 255 255 255 255 0.139289 0.756923
-279.469 339.186 21.1953 0 -1 0 255 255 255 255 0.11045 0.613481
-176.845 451.533 22.3952 0 0 1 255 255 255 255 0.08653 0.53427
-91.5996 291.733 31.1953 0.301079 0.314389 0.900284 255 255 255 255 0.047286 0.607836
-84.2905 309.933 22.3953 0.301079 0.314389 0.900284 255 255 255 255 0.043921 0.599457
-176.845 398.569 22.3952 0.301079 0.314389 0.900284 255 255 255 255 0.08653 0.558652
-195.045 390.799 31.1952 0.435308 0 0.900282 255 255 255 255 0.094909 0.562229
-176.845 398.569 22.3952 0.435308 0 0.900282 255 255 255 255 0.08653 0.558652
-176.845 451.533 22.3952 0.435308 0 0.900282 255 255 255 255 0.08653 0.53427
0 309.933 22.3953 -0 0.435302 0.900284 255 255 255 255 0.005117 0.599457
-220.531 339.186 21.1952 -0.697287 -0.716792 0 255 255 255 255 0.12962 0.678544
-327.335 310.76 22.6953 0.451607 -0.464239 0.761927 255 255 255 255 0.15581 0.844042
-284.75 352.186 22.6953 0.451607 -0.464239 0.761927 255 255 255 255 0.136205 0.824971
-288.811 362.186 31.1953 0.451607 -0.464239 0.761927 255 255 255 255 0.138075 0.820367
-327.335 115.467 22.6953 0.647648 0 0.761939 255 255 255 255 0.15581 0.933948
-284.75 352.186 22.6953 0 -0.647648 0.761939 255 255 255 255 0.136205 0.824971
-211.189 362.186 31.1953 -0.451595 -0.464232 0.761939 255 255 255 255 0.102341 0.820367
-215.25 352.186 22.6953 -0.451595 -0.464232 0.761939 255 255 255 255 0.10421 0.824971
-172.665 310.76 22.6953 -0.451595 -0.464232 0.761939 255 255 255 255 0.084606 0.844042
-314.335 305.27 21.1953 0.07992 -0.082156 0.99341 255 255 255 255 0.149825 0.601604
-279.469 339.186 21.1953 0.07992 -0.082156 0.99341 255 255 255 255 0.133774 0.58599
-284.75 352.186 22.6953 0.07992 -0.082156 0.99341 255 255 255 255 0.136205 0.580005
-327.335 115.467 22.6953 0.114624 -0 0.993409 255 255 255 255 0.15581 0.688982
-314.335 115.467 21.1953 0.114624 -0 0.993409 255 255 255 255 0.149825 0.688982
-314.335 305.27 21.1953 0.114624 -0 0.993409 255 255 255 255 0.149825 0.601604
-279.469 339.186 21.1953 2e-06 -0.114628 0.993409 255 255 255 255 0.133774 0.58599
-220.531 339.186 21.1952 2e-06 -0.114628 0.993409 255 255 255 255 0.106641 0.58599
-215.25 352.186 22.6953 2e-06 -0.114628 0.993409 255 255 255 255 0.10421 0.580005
-215.25 352.186 22.6953 -0.079927 -0.082163 0.993409 255 255 255 255 0.10421 0.580005
-220.531 339.186 21.1952 -0.079927 -0.082163 0.993409 255 255 255 255 0.106641 0.58599
-185.665 305.269 21.1952 -0.079927 -0.082163 0.993409 255 255 255 255 0.09059 0.601604
-172.665 310.76 22.6953 -0.114629 0 0.993408 255 255 255 255 0.084606 0.599076
-185.665 305.269 21.1952 -0.114629 0 0.993408 255 255 255 255 0.09059 0.601604
-185.665 285.593 21.1952 -0.114629 0 0.993408 255 255 255 255 0.09059 0.610662
-323.155 451.533 22.3952 -0 0 1 255 255 255 255 0.153885 0.53427
-176.845 451.533 -22.3954 -0 -0 -1 255 255 255 255 0.08653 0.719826
-185.665 177.462 21.1953 -0.114624 0 0.993409 255 255 255 255 0.09059 0.660442
-185.665 115.467 21.1953 -0.114624 0 0.993409 255 255 255 255 0.09059 0.688982
-172.665 115.467 22.6953 -0.114624 0 0.993409 255 255 255 255 0.084606 0.688982
3 0 1 2 
3 3 4 5 
3 4 6 5 
3 7 5 8 
3 6 8 5 
3 9 10 11 
3 12 13 14 
3 15 16 17 
3 16 18 17 
3 19 20 21 
3 22 23 24 
3 24 23 25 
3 26 27 28 
3 29 30 31 
3 31 30 32 
3 33 34 35 
3 36 37 38 
3 37 39 38 
3 34 38 35 
3 38 39 35 
3 40 41 42 
3 41 43 42 
3 44 45 46 
3 47 48 42 
3 48 49 42 
3 50 51 52 
3 29 53 54 
3 33 55 34 
3 31 56 57 
3 58 59 60 
3 61 62 63 
3 63 62 64 
3 62 65 64 
3 65 66 64 
3 66 67 64 
3 68 69 70 
3 53 71 72 
3 73 74 75 
3 76 77 78 
3 75 74 79 
3 80 81 82 
3 83 84 85 
3 86 87 88 
3 89 90 91 
3 92 93 94 
3 95 96 97 
3 98 99 100 
3 101 102 103 
3 103 102 104 
3 54 105 106 
3 106 105 102 
3 102 105 104 
3 101 107 102 
3 71 3 5 
3 36 38 108 
3 109 101 110 
3 111 54 106 
3 112 113 114 
3 115 116 117 
3 118 119 120 
3 121 122 123 
3 124 125 126 
3 127 128 129 
3 130 131 132 
3 133 134 135 
3 136 137 138 
3 139 140 141 
3 142 143 144 
3 145 146 147 
3 148 149 150 
3 151 152 153 
3 154 155 156 
3 157 158 159 
3 155 158 157 
3 160 161 162 
3 163 164 165 
3 166 167 168 
3 169 170 171 
3 172 173 174 
3 174 173 175 
3 176 177 178 
3 179 180 181 
3 182 183 184 
3 185 186 187 
3 188 189 190 
3 191 192 193 
3 194 195 196 
3 196 195 197 
3 195 198 197 
3 198 199 197 
3 194 200 195 
3 201 202 203 
3 204 205 206 
3 206 205 207 
3 203 202 205 
3 208 209 210 
3 211 212 213 
3 213 212 214 
3 215 216 217 
3 218 212 219 
3 212 220 219 
3 221 222 223 
3 224 199 225 
3 201 203 226 
3 227 194 228 
3 229 230 231 
3 232 233 234 
3 224 235 236 
3 235 237 236 
3 237 238 236 
3 238 239 236 
3 240 241 242 
3 243 244 245 
3 246 247 248 
3 249 250 251 
3 252 253 254 
3 255 256 257 
3 256 258 257 
3 259 260 261 
3 225 262 263 
3 263 262 264 
3 166 236 167 
3 204 265 205 
3 263 266 267 
3 268 269 270 
3 271 272 273 
3 272 274 273 
3 274 275 273 
3 275 276 273 
3 276 277 273 
3 225 198 278 
3 279 280 281 
3 282 283 284 
3 285 286 287 
3 288 289 290 
3 291 292 293 
3 292 294 293 
3 294 295 293 
3 296 297 298 
3 299 300 301 
3 302 303 304 
3 305 306 307 
3 308 309 310 
3 311 312 313 
3 314 315 316 
3 316 313 314 
3 317 318 99 
3 319 97 318 
3 188 192 320 
3 321 193 322 
3 323 322 324 
3 325 324 326 
3 327 326 328 
3 329 330 331 
3 332 333 330 
3 334 100 333 
3 234 335 232 
3 336 164 163 
3 337 69 68 
3 2 338 0 
3 339 340 341 
3 342 343 344 
3 345 346 347 
3 348 349 350 
3 351 352 353 
3 354 355 356 
3 357 358 359 
3 360 361 362 
3 363 364 365 
3 366 367 368 
3 369 370 371 
3 372 373 374 
3 375 376 377 
3 378 379 380 
3 381 382 383 
3 384 385 386 
3 387 388 389 
3 0 390 1 
3 391 392 393 
3 12 394 13 
3 26 395 27 
3 29 111 30 
3 50 396 51 
3 29 3 53 
3 31 32 56 
3 58 397 59 
3 86 398 87 
3 399 400 401 
3 92 402 93 
3 95 403 96 
3 98 317 99 
3 71 53 3 
3 109 107 101 
3 111 29 54 
3 404 405 406 
3 115 407 116 
3 118 408 119 
3 409 410 411 
3 124 412 125 
3 413 414 415 
3 416 417 418 
3 419 420 421 
3 422 423 424 
3 155 154 158 
3 160 425 161 
3 426 427 428 
3 429 430 431 
3 185 432 186 
3 188 433 189 
3 191 320 192 
3 221 434 222 
3 224 166 199 
3 227 200 194 
3 229 435 230 
3 232 436 233 
3 437 438 439 
3 440 441 442 
3 259 443 260 
3 225 278 262 
3 166 224 236 
3 263 264 266 
3 268 444 269 
3 225 199 198 
3 445 446 447 
3 282 448 283 
3 285 449 286 
3 450 451 452 
3 453 454 455 
3 456 457 458 
3 459 460 461 
3 462 463 464 
3 465 466 467 
3 316 311 313 
3 317 319 318 
3 319 95 97 
3 188 190 192 
3 321 191 193 
3 323 321 322 
3 325 323 324 
3 327 325 326 
3 329 332 330 
3 332 334 333 
3 334 98 100 
3 336 468 164 
3 337 469 69 
3 470 471 472 
