ply
format ascii 1.0
comment VCGLIB generated
comment TextureFile Dungeons_2_Texture_01_A.png
element vertex 456
property float x
property float y
property float z
property float nx
property float ny
property float nz
property uchar red
property uchar green
property uchar blue
property uchar alpha
property float texture_u
property float texture_v
element face 224
property list uchar int vertex_indices
end_header
-79.4182 488.846 39.0007 1.9e-05 0 1 255 255 255 255 0.127492 0.848327
-105.267 433.311 39.0012 1.9e-05 0 1 255 255 255 255 0.138811 0.872646
-79.4182 380.666 39.0007 1.9e-05 0 1 255 255 255 255 0.127492 0.8957
3.1e-05 488.846 39.0007 -0 0 1 255 255 255 255 0.092715 0.848327
-79.4182 488.846 39.0007 -0 0 1 255 255 255 255 0.127492 0.848327
3.1e-05 380.666 39.0007 -0 0 1 255 255 255 255 0.092715 0.8957
-22.7438 380.666 39.0007 0 0 1 255 255 255 255 0.102674 0.8957
-47.2711 391.566 39.0007 -0 0 1 255 255 255 255 0.113415 0.890926
-79.4182 380.666 39.0007 0 0 1 255 255 255 255 0.127492 0.8957
-62.8072 380.666 39.0007 0 0 1 255 255 255 255 0.120218 0.8957
-125.566 434.756 30.5412 -0.488568 0.288024 0.823616 255 255 255 255 0.147701 0.872014
-79.4182 488.846 39.0007 -0.488568 0.288024 0.823616 255 255 255 255 0.127492 0.848327
-87.1032 500 30.5412 -0.488568 0.288024 0.823616 255 255 255 255 0.130857 0.843443
-79.4182 488.846 39.0007 -0 0.604277 0.796774 255 255 255 255 0.127492 0.848327
7e-06 500 30.5412 -0 0.604277 0.796774 255 255 255 255 0.092715 0.843443
-87.1032 500 30.5412 -0 0.604277 0.796774 255 255 255 255 0.130857 0.843443
7e-06 500 30.5412 1 0 -0 255 255 255 255 0.12206 0.900584
3.1e-05 380.666 39.0007 1 0 -0 255 255 255 255 0.118355 0.848327
3.1e-05 369.511 30.5412 1 0 -0 255 255 255 255 0.12206 0.843443
-87.1032 369.511 30.5412 -0.38831 -0.228919 0.892643 255 255 255 255 0.130857 0.900584
-105.267 433.311 39.0012 -0.38831 -0.228919 0.892643 255 255 255 255 0.138811 0.872646
-125.566 434.756 30.5412 -0.38831 -0.228919 0.892643 255 255 255 255 0.147701 0.872014
3.1e-05 380.666 39.0007 0 -0.604277 0.796774 255 255 255 255 0.092715 0.8957
-22.7438 380.666 39.0007 0 -0.604277 0.796774 255 255 255 255 0.102674 0.8957
3.1e-05 369.511 30.5412 0 -0.604277 0.796774 255 255 255 255 0.092715 0.900584
-39.4655 372.68 32.9443 -0 -0.604277 0.796774 255 255 255 255 0.109997 0.899197
3.1e-05 369.511 30.5412 0 -0.604277 0.796775 255 255 255 255 0.092715 0.900584
-39.4655 372.68 32.9443 0 -0.604277 0.796775 255 255 255 255 0.109997 0.899197
-87.1032 369.511 30.5412 0 -0.604277 0.796775 255 255 255 255 0.130857 0.900584
-62.8072 380.666 39.0007 0 -0.604277 0.796774 255 255 255 255 0.120218 0.8957
-87.1032 369.511 30.5412 0 -0.604277 0.796774 255 255 255 255 0.130857 0.900584
-79.4182 380.666 39.0007 0 -0.604277 0.796774 255 255 255 255 0.127492 0.8957
-79.4182 488.846 -39.0009 2.1e-05 -0 -1 255 255 255 255 0.127492 0.8957
-79.4182 380.666 -39.0008 2.1e-05 -0 -1 255 255 255 255 0.127492 0.848327
-103.197 428.569 -39.0013 2.1e-05 -0 -1 255 255 255 255 0.137905 0.869304
3.1e-05 380.666 -39.0008 -0 -0 -1 255 255 255 255 0.092715 0.848327
-79.4182 488.846 -39.0009 -0 -0 -1 255 255 255 255 0.127492 0.8957
3.1e-05 488.846 -39.0009 -0 -0 -1 255 255 255 255 0.092715 0.8957
-125.566 434.756 -30.5414 -0.320154 0.126306 -0.938908 255 255 255 255 0.147701 0.872013
-79.4182 488.846 -39.0009 -0.320154 0.126306 -0.938908 255 255 255 255 0.127492 0.8957
-103.197 428.569 -39.0013 -0.320154 0.126306 -0.938908 255 255 255 255 0.137905 0.869304
7e-06 500 -30.5414 0 0.604277 -0.796774 255 255 255 255 0.092715 0.900584
-79.4182 488.846 -39.0009 0 0.604277 -0.796774 255 255 255 255 0.127492 0.8957
-87.1032 500 -30.5414 0 0.604277 -0.796774 255 255 255 255 0.130857 0.900584
3.1e-05 380.666 -39.0008 1 0 0 255 255 255 255 0.12206 0.848327
7e-06 500 -30.5414 1 0 0 255 255 255 255 0.118355 0.900584
3.1e-05 369.511 -30.5414 1 0 0 255 255 255 255 0.118355 0.843443
-103.197 428.569 -39.0013 -0.400149 -0.235898 -0.885569 255 255 255 255 0.137905 0.869304
-87.1032 369.511 -30.5414 -0.400149 -0.235898 -0.885569 255 255 255 255 0.130857 0.843443
-125.566 434.756 -30.5414 -0.400149 -0.235898 -0.885569 255 255 255 255 0.147701 0.872013
-79.4182 380.666 -39.0008 0 -0.604277 -0.796774 255 255 255 255 0.127492 0.848327
3.1e-05 369.511 -30.5414 0 -0.604277 -0.796774 255 255 255 255 0.092715 0.843443
-87.1032 369.511 -30.5414 0 -0.604277 -0.796774 255 255 255 255 0.130857 0.843443
-420.582 488.846 -39.0009 -1.9e-05 -0 -1 255 255 255 255 0.112923 0.8957
-395.046 436.737 -39.0013 -1.9e-05 -0 -1 255 255 255 255 0.101741 0.872881
-420.582 380.666 -39.0008 -1.9e-05 -0 -1 255 255 255 255 0.112923 0.848327
-420.582 488.846 -39.0009 0 -0 -1 255 255 255 255 0.112923 0.8957
-500 380.666 -39.0008 0 -0 -1 255 255 255 255 0.147701 0.848327
-500 488.846 -39.0009 0 -0 -1 255 255 255 255 0.147701 0.8957
-395.046 436.737 -39.0013 0.388362 0.228949 -0.892613 255 255 255 255 0.101741 0.872881
-412.897 500 -30.5414 0.388362 0.228949 -0.892613 255 255 255 255 0.109558 0.900584
-374.434 434.756 -30.5414 0.388362 0.228949 -0.892613 255 255 255 255 0.092715 0.872013
-420.582 488.846 -39.0009 0 0.604277 -0.796774 255 255 255 255 0.112923 0.8957
-500 500 -30.5414 0 0.604277 -0.796774 255 255 255 255 0.147701 0.900584
-412.897 500 -30.5414 0 0.604277 -0.796774 255 255 255 255 0.109558 0.900584
-500 500 -30.5414 -1 0 0 255 255 255 255 0.12206 0.900584
-500 380.666 -39.0008 -1 0 0 255 255 255 255 0.118355 0.848327
-500 369.511 -30.5414 -1 0 0 255 255 255 255 0.12206 0.843443
-374.434 434.756 -30.5414 0.360959 -0.164393 -0.917978 255 255 255 255 0.092715 0.872013
-420.582 380.666 -39.0008 0.360959 -0.164393 -0.917978 255 255 255 255 0.112923 0.848327
-395.046 436.737 -39.0013 0.360959 -0.164393 -0.917978 255 255 255 255 0.101741 0.872881
-500 369.511 -30.5414 0 -0.604277 -0.796774 255 255 255 255 0.147701 0.843443
-420.582 380.666 -39.0008 0 -0.604277 -0.796774 255 255 255 255 0.112923 0.848327
-412.897 369.511 -30.5414 0 -0.604277 -0.796774 255 255 255 255 0.109558 0.843443
-420.582 488.846 39.0007 -1.9e-05 0 1 255 255 255 255 0.112923 0.848327
-420.582 380.666 39.0007 -1.9e-05 0 1 255 255 255 255 0.112923 0.8957
-395.526 437.925 39.0012 -1.9e-05 0 1 255 255 255 255 0.101951 0.870626
-500 380.666 39.0007 -0 0 1 255 255 255 255 0.147701 0.8957
-420.582 488.846 39.0007 -0 0 1 255 255 255 255 0.112923 0.848327
-500 488.846 39.0007 -0 0 1 255 255 255 255 0.147701 0.848327
-412.897 500 30.5412 0.391897 0.231033 0.890528 255 255 255 255 0.109558 0.843443
-395.526 437.925 39.0012 0.391897 0.231033 0.890528 255 255 255 255 0.101951 0.870626
-374.434 434.756 30.5412 0.391897 0.231033 0.890528 255 255 255 255 0.092714 0.872013
-500 500 30.5412 0 0.604277 0.796774 255 255 255 255 0.147701 0.843443
-420.582 488.846 39.0007 0 0.604277 0.796774 255 255 255 255 0.112923 0.848327
-412.897 500 30.5412 0 0.604277 0.796774 255 255 255 255 0.109558 0.843443
-500 380.666 39.0007 -1 0 0 255 255 255 255 0.12206 0.848327
-500 500 30.5412 -1 0 0 255 255 255 255 0.118355 0.900584
-500 369.511 30.5412 -1 0 0 255 255 255 255 0.118355 0.843443
-374.434 434.756 30.5412 0.488568 -0.288023 0.823616 255 255 255 255 0.092714 0.872013
-420.582 380.666 39.0007 0.488568 -0.288023 0.823616 255 255 255 255 0.112923 0.8957
-412.897 369.511 30.5412 0.488568 -0.288023 0.823616 255 255 255 255 0.109558 0.900585
-420.582 380.666 39.0007 0 -0.604277 0.796774 255 255 255 255 0.112923 0.8957
-500 369.511 30.5412 0 -0.604277 0.796774 255 255 255 255 0.147701 0.900585
-412.897 369.511 30.5412 0 -0.604277 0.796774 255 255 255 255 0.109558 0.900585
-1.7e-05 5e-06 30.5413 0 -1 0 255 255 255 255 0.106833 0.891357
-50.8462 -5e-06 -30.5413 0 -1 0 255 255 255 255 0.133582 0.869091
-1.7e-05 -5e-06 -30.5413 0 -1 0 255 255 255 255 0.133582 0.891357
-449.154 5e-06 30.5413 0 -1 0 255 255 255 255 0.106833 0.874935
-500 -5e-06 -30.5413 0 -1 0 255 255 255 255 0.133582 0.85267
-449.154 -5e-06 -30.5413 0 -1 0 255 255 255 255 0.133582 0.874935
-88.3462 238.013 18.6413 -0.814577 -0.580055 0 255 255 255 255 0.128371 0.661622
-151.189 326.263 -18.6414 -0.814577 -0.580055 0 255 255 255 255 0.112045 0.696325
-88.3462 238.013 -18.6413 -0.814577 -0.580055 0 255 255 255 255 0.112045 0.661622
-131.856 363.763 30.5412 0 0 1 255 255 255 255 0.068472 0.822196
7e-06 500 30.5412 0 0 1 255 255 255 255 0.010731 0.762537
-180.778 434.756 30.5412 0 0 1 255 255 255 255 0.089895 0.791108
7e-06 500 -30.5414 0 -0 -1 255 255 255 255 0.010731 0.98149
-180.778 434.756 -30.5414 0 -0 -1 255 255 255 255 0.089895 0.952919
-144.337 500 -30.5414 0 -0 -1 255 255 255 255 0.073937 0.98149
-411.654 238.013 -18.6413 0.814577 -0.580055 -1e-06 255 255 255 255 0.128371 0.661622
-348.811 326.263 18.6413 0.814577 -0.580055 -1e-06 255 255 255 255 0.112044 0.696325
-411.654 238.012 18.6413 0.814577 -0.580055 -1e-06 255 255 255 255 0.112044 0.661622
-151.189 326.263 18.6413 0 -1 0 255 255 255 255 0.112044 0.671032
-348.811 326.263 -18.6413 0 -1 0 255 255 255 255 0.128371 0.59332
-151.189 326.263 -18.6414 0 -1 0 255 255 255 255 0.128371 0.671032
-368.144 363.763 30.5412 -0 0 1 255 255 255 255 0.171943 0.822196
-319.222 434.756 30.5412 -0 0 1 255 255 255 255 0.15052 0.791108
-500 500 30.5412 -0 0 1 255 255 255 255 0.229684 0.762537
-500 500 -30.5414 0 -0 -1 255 255 255 255 0.229684 0.98149
-368.144 363.763 -30.5414 0 -0 -1 255 255 255 255 0.171943 0.921831
-449.154 250 -30.5413 0 -0 -1 255 255 255 255 0.207418 0.872013
-449.154 250 30.5413 -0 0 1 255 255 255 255 0.207418 0.872013
-50.8462 250 30.5413 0 0 1 255 255 255 255 0.032997 0.872013
-50.8462 250 -30.5413 -0 -0 -1 255 255 255 255 0.032997 0.872013
-131.856 363.763 -30.5414 -0 -0 -1 255 255 255 255 0.068472 0.921831
-172.803 449.035 30.5412 0 0 1 255 255 255 255 0.086402 0.784855
-172.803 449.035 30.5412 -1e-06 2e-06 1 255 255 255 255 0.086402 0.784855
7e-06 500 30.5412 -1e-06 2e-06 1 255 255 255 255 0.010731 0.762537
-148.779 467.065 30.5412 -1e-06 2e-06 1 255 255 255 255 0.075882 0.776959
-148.779 467.065 30.5412 0 -1e-06 1 255 255 255 255 0.075882 0.776959
7e-06 500 30.5412 0 -1e-06 1 255 255 255 255 0.010731 0.762537
-149.681 490.432 30.5412 0 -1e-06 1 255 255 255 255 0.076278 0.766727
-144.337 500 30.5412 -0 0 1 255 255 255 255 0.073937 0.762537
-149.681 490.432 30.5412 -0 0 1 255 255 255 255 0.076278 0.766727
-319.619 434.756 -30.5414 0 -0 -1 255 255 255 255 0.150694 0.952919
-332.794 500 -20.874 0 -0 -1 255 255 255 255 0.156464 0.730485
-192.516 454.756 -20.874 0 -0 -1 255 255 255 255 0.095035 0.712694
-307.484 454.756 -20.874 0 -0 -1 255 255 255 255 0.14538 0.712694
-332.794 500 -20.874 0 1 -0 255 255 255 255 0.111067 0.835758
-167.206 500 20.8738 0 1 -0 255 255 255 255 0.129349 0.90827
-167.206 500 -20.874 0 1 -0 255 255 255 255 0.111067 0.90827
-332.794 500 20.8738 0 0 1 255 255 255 255 0.156464 0.533866
-192.516 454.756 20.8738 0 0 1 255 255 255 255 0.095035 0.551658
-167.206 500 20.8738 0 0 1 255 255 255 255 0.083952 0.533866
-144.337 500 -30.5414 0 1 -0 255 255 255 255 0.106833 0.918284
7e-06 500 30.5412 0 1 -0 255 255 255 255 0.133582 0.98149
7e-06 500 -30.5414 0 1 -0 255 255 255 255 0.106833 0.98149
-355.663 500 -30.5414 -0 -0 -1 255 255 255 255 0.166478 0.98149
-355.663 500 -30.5414 0 1 0 255 255 255 255 0.106833 0.825743
-500 500 30.5412 0 1 0 255 255 255 255 0.133582 0.762537
-355.663 500 30.5412 0 1 0 255 255 255 255 0.133582 0.825743
-355.663 500 30.5412 0 0 1 255 255 255 255 0.166478 0.762537
-275.055 363.763 -30.5414 0 -0 -1 255 255 255 255 0.13118 0.921831
-156.203 363.763 -30.5414 0 -0 -1 255 255 255 255 0.079133 0.921831
-200.957 377.475 -30.5414 -0 -0 -1 255 255 255 255 0.098731 0.927836
-270.102 434.756 -30.5414 -0 -0 -1 255 255 255 255 0.129011 0.952919
-270.102 434.756 -30.5414 1e-06 -0 -1 255 255 255 255 0.129011 0.952919
-250.344 425.367 -30.5414 1e-06 -0 -1 255 255 255 255 0.120359 0.948808
-275.055 363.763 -30.5414 1e-06 -0 -1 255 255 255 255 0.13118 0.921831
-250.344 425.367 -30.5414 -0 0 -1 255 255 255 255 0.120359 0.948808
-199.721 434.756 -30.5414 -0 -0 -1 255 255 255 255 0.09819 0.952919
-342.773 363.763 30.5412 0 0 1 255 255 255 255 0.160833 0.822196
-214.676 363.763 30.5412 0 0 1 255 255 255 255 0.104739 0.822196
-287.349 376.56 30.5412 0 0 1 255 255 255 255 0.136563 0.816592
-144.337 500 -30.5414 -0.380451 0.212824 -0.899979 255 255 255 255 0.073937 0.730485
-192.516 454.756 -20.874 -0.380451 0.212824 -0.899979 255 255 255 255 0.095035 0.712694
-167.206 500 -20.874 -0.380451 0.212824 -0.899979 255 255 255 255 0.083952 0.730485
-319.619 434.756 -30.5414 -0 0.435195 -0.900336 255 255 255 255 0.150694 0.704829
-307.484 454.756 -20.874 -0 0.435195 -0.900336 255 255 255 255 0.14538 0.712694
-270.102 434.756 -30.5414 -0 0.435195 -0.900336 255 255 255 255 0.129011 0.704829
-180.778 434.756 -30.5414 0 0.435195 -0.900336 255 255 255 255 0.089895 0.704829
-199.721 434.756 -30.5414 0 0.435195 -0.900336 255 255 255 255 0.09819 0.704829
-192.516 454.756 -20.874 0 0.435195 -0.900336 255 255 255 255 0.095035 0.712694
-270.102 434.756 -30.5414 0 0.435196 -0.900336 255 255 255 255 0.129011 0.704829
-307.484 454.756 -20.874 0 0.435196 -0.900336 255 255 255 255 0.14538 0.712694
-263.927 446.495 -24.8667 0 0.435196 -0.900336 255 255 255 255 0.126307 0.709445
-192.516 454.756 -20.874 0 0.435196 -0.900336 255 255 255 255 0.095035 0.712694
-263.927 446.495 -24.8667 0 0.435195 -0.900336 255 255 255 255 0.126307 0.709445
-355.663 500 -30.5414 0.37646 0.207975 -0.902787 255 255 255 255 0.166478 0.730485
-307.484 454.756 -20.874 0.37646 0.207975 -0.902787 255 255 255 255 0.14538 0.712694
-319.619 434.756 -30.5414 0.37646 0.207975 -0.902787 255 255 255 255 0.150694 0.704829
-144.337 500 30.5412 0 1 0 255 255 255 255 0.133582 0.918284
-355.663 500 30.5412 0.380451 0.212824 0.899979 255 255 255 255 0.166478 0.533866
-307.484 454.756 20.8738 0.380451 0.212824 0.899979 255 255 255 255 0.14538 0.551658
-332.794 500 20.8738 0.380451 0.212824 0.899979 255 255 255 255 0.156464 0.533866
-180.778 434.756 30.5412 0 0.435195 0.900336 255 255 255 255 0.089895 0.559523
-307.484 454.756 20.8738 0 0.435195 0.900336 255 255 255 255 0.14538 0.551658
-319.222 434.756 30.5412 0 0.435195 0.900336 255 255 255 255 0.15052 0.559523
-180.778 434.756 30.5412 -0.379948 0.212213 0.900336 255 255 255 255 0.089895 0.559523
-172.803 449.035 30.5412 -0.379948 0.212213 0.900336 255 255 255 255 0.086402 0.553908
-192.516 454.756 20.8738 -0.379948 0.212213 0.900336 255 255 255 255 0.095035 0.551658
-174.92 470.015 24.7028 -0.379948 0.212213 0.900336 255 255 255 255 0.08733 0.545658
-192.516 454.756 20.8738 -0.380373 0.212781 0.900023 255 255 255 255 0.095035 0.551658
-174.92 470.015 24.7028 -0.380373 0.212781 0.900023 255 255 255 255 0.08733 0.545658
-167.206 500 20.8738 -0.380373 0.212781 0.900023 255 255 255 255 0.083952 0.533866
-174.92 470.015 24.7028 -0.380333 0.212773 0.900041 255 255 255 255 0.08733 0.545658
-149.681 490.432 30.5412 -0.380333 0.212773 0.900041 255 255 255 255 0.076278 0.537629
-167.206 500 20.8738 -0.380333 0.212773 0.900041 255 255 255 255 0.083952 0.533866
-149.681 490.432 30.5412 -0.380478 0.212509 0.900042 255 255 255 255 0.076278 0.537629
-144.337 500 30.5412 -0.380478 0.212509 0.900042 255 255 255 255 0.073937 0.533866
-167.206 500 20.8738 -0.380478 0.212509 0.900042 255 255 255 255 0.083952 0.533866
7e-06 500 30.5412 1 -0 0 255 255 255 255 0.106833 0.98149
-1.7e-05 -5e-06 -30.5413 1 -0 0 255 255 255 255 0.133582 0.762537
7e-06 500 -30.5414 1 -0 0 255 255 255 255 0.133582 0.98149
-1.7e-05 5e-06 30.5413 0 0 1 255 255 255 255 0.010731 0.98149
-88.3462 238.013 -18.6413 -1 -0 -0 255 255 255 255 0.112045 0.661622
-88.3462 3e-06 18.6413 -1 -0 -0 255 255 255 255 0.128371 0.568026
-88.3462 238.013 18.6413 -1 -0 -0 255 255 255 255 0.128371 0.661622
-1.7e-05 -5e-06 -30.5413 0 -0 -1 255 255 255 255 0.010731 0.762537
-50.8462 -5e-06 -30.5413 0 -0 -1 255 255 255 255 0.032997 0.762537
-411.654 238.012 18.6413 1 0 -0 255 255 255 255 0.112044 0.661622
-411.654 -3e-06 -18.6413 1 0 -0 255 255 255 255 0.128371 0.568026
-411.654 238.013 -18.6413 1 0 -0 255 255 255 255 0.128371 0.661622
-500 5e-06 30.5413 -0 0 1 255 255 255 255 0.229684 0.98149
-449.154 224.668 30.5413 0 0 1 255 255 255 255 0.207418 0.883107
-459.406 87.2023 30.5413 -0 0 1 255 255 255 255 0.211908 0.943304
-449.154 56.3525 30.5413 0 0 1 255 255 255 255 0.207418 0.956813
-449.154 5e-06 30.5413 0 0 1 255 255 255 255 0.207418 0.98149
-500 500 -30.5414 -1 -0 -0 255 255 255 255 0.106833 0.98149
-500 5e-06 30.5413 -1 -0 -0 255 255 255 255 0.133582 0.762537
-500 500 30.5412 -1 -0 -0 255 255 255 255 0.133582 0.98149
-500 -5e-06 -30.5413 0 -0 -1 255 255 255 255 0.229684 0.762537
-449.154 225.985 -30.5413 -0 -0 -1 255 255 255 255 0.207418 0.861497
-449.154 225.985 -30.5413 1e-06 -0 -1 255 255 255 255 0.207418 0.861497
-464.684 155.793 -30.5413 1e-06 -0 -1 255 255 255 255 0.214219 0.83076
-500 -5e-06 -30.5413 1e-06 -0 -1 255 255 255 255 0.229684 0.762537
-464.684 155.793 -30.5413 -0 -0 -1 255 255 255 255 0.214219 0.83076
-449.154 123.728 -30.5413 -0 -0 -1 255 255 255 255 0.207418 0.816718
-449.154 -5e-06 -30.5413 0 -0 -1 255 255 255 255 0.207418 0.762537
-50.8462 250 30.5413 -0.540893 -0.385167 0.747717 255 255 255 255 0.032997 0.872013
-138.764 350.363 18.6412 -0.540893 -0.385167 0.747717 255 255 255 255 0.071497 0.828064
-64.2462 245.717 18.6413 -0.540893 -0.385167 0.747717 255 255 255 255 0.038865 0.87389
-50.8462 250 -30.5413 -0.540893 -0.385167 -0.747717 255 255 255 255 0.032997 0.872013
-138.764 350.363 -18.6414 -0.540893 -0.385167 -0.747717 255 255 255 255 0.071497 0.915963
-131.856 363.763 -30.5414 -0.540893 -0.385167 -0.747717 255 255 255 255 0.068472 0.921831
-449.154 250 -30.5413 0.540893 -0.385167 -0.747717 255 255 255 255 0.207418 0.872013
-361.236 350.363 -18.6414 0.540893 -0.385167 -0.747717 255 255 255 255 0.168918 0.915963
-435.754 245.716 -18.6413 0.540893 -0.385167 -0.747717 255 255 255 255 0.20155 0.870138
-449.154 250 30.5413 0.540893 -0.385167 0.747717 255 255 255 255 0.207418 0.872013
-361.236 350.363 18.6412 0.540893 -0.385167 0.747717 255 255 255 255 0.168918 0.828064
-368.144 363.763 30.5412 0.540893 -0.385167 0.747717 255 255 255 255 0.171943 0.822196
-131.856 363.763 30.5412 0 -0.664017 0.747717 255 255 255 255 0.068472 0.822196
-214.676 363.763 30.5412 0 -0.664017 0.747717 255 255 255 255 0.104739 0.822196
-138.764 350.363 18.6412 0 -0.664017 0.747717 255 255 255 255 0.071497 0.828064
-368.144 363.763 30.5412 0 -0.664018 0.747717 255 255 255 255 0.171943 0.822196
-361.236 350.363 18.6412 0 -0.664018 0.747717 255 255 255 255 0.168918 0.828064
-342.773 363.763 30.5412 0 -0.664018 0.747717 255 255 255 255 0.160833 0.822196
-291.996 355.168 22.9079 0 -0.664018 0.747717 255 255 255 255 0.138598 0.82596
-361.236 350.363 18.6412 0 -0.664017 0.747718 255 255 255 255 0.168918 0.828064
-138.764 350.363 18.6412 0 -0.664017 0.747718 255 255 255 255 0.071497 0.828064
-291.996 355.168 22.9079 0 -0.664017 0.747718 255 255 255 255 0.138598 0.82596
-214.676 363.763 30.5412 -0 -0.664018 0.747717 255 255 255 255 0.104739 0.822196
-138.764 350.363 18.6412 -0 -0.664018 0.747717 255 255 255 255 0.071497 0.828064
-368.144 363.763 -30.5414 -0 -0.664018 -0.747717 255 255 255 255 0.171943 0.921831
-275.055 363.763 -30.5414 -0 -0.664018 -0.747717 255 255 255 255 0.13118 0.921831
-361.236 350.363 -18.6414 -0 -0.664018 -0.747717 255 255 255 255 0.168918 0.915963
-131.856 363.763 -30.5414 0 -0.664018 -0.747717 255 255 255 255 0.068472 0.921831
-138.764 350.363 -18.6414 0 -0.664018 -0.747717 255 255 255 255 0.071497 0.915963
-156.203 363.763 -30.5414 0 -0.664018 -0.747717 255 255 255 255 0.079133 0.921831
-200.183 356.083 -23.7211 0 -0.664018 -0.747717 255 255 255 255 0.098393 0.918468
-50.8462 -5e-06 -30.5413 -0.664017 -0 -0.747717 255 255 255 255 0.032997 0.762537
-64.2462 245.717 -18.6413 -0.664017 -0 -0.747717 255 255 255 255 0.038865 0.870138
-50.8462 250 -30.5413 -0.664017 -0 -0.747717 255 255 255 255 0.032997 0.872013
-50.8462 5e-06 30.5413 0 -1 0 255 255 255 255 0.106833 0.869091
-64.2462 -3e-06 -18.6413 0 -1 0 255 255 255 255 0.128371 0.863223
-50.8462 5e-06 30.5413 -0.664017 0 0.747717 255 255 255 255 0.032997 0.98149
-64.2462 245.717 18.6413 -0.664017 0 0.747717 255 255 255 255 0.038865 0.87389
-64.2462 3e-06 18.6413 -0.664017 0 0.747717 255 255 255 255 0.038865 0.98149
-449.154 250 30.5413 0.664018 0 0.747717 255 255 255 255 0.207418 0.872013
-449.154 224.668 30.5413 0.664018 0 0.747717 255 255 255 255 0.207418 0.883107
-435.754 245.716 18.6413 0.664018 0 0.747717 255 255 255 255 0.20155 0.87389
-435.754 3e-06 18.6413 0.664018 0 0.747717 255 255 255 255 0.20155 0.98149
-449.154 224.668 30.5413 0.664018 0 0.747716 255 255 255 255 0.207418 0.883107
-441.838 88.1956 24.0444 0.664018 0 0.747716 255 255 255 255 0.204215 0.942868
-435.754 3e-06 18.6413 0.664018 0 0.747716 255 255 255 255 0.20155 0.98149
-441.838 88.1956 24.0444 0.664018 0 0.747717 255 255 255 255 0.204215 0.942868
-449.154 56.3525 30.5413 0.664018 0 0.747717 255 255 255 255 0.207418 0.956813
-449.154 5e-06 30.5413 0.664018 0 0.747717 255 255 255 255 0.207418 0.98149
-435.754 3e-06 18.6413 0 -1 0 255 255 255 255 0.112045 0.880804
-449.154 250 -30.5413 0.664018 -0 -0.747717 255 255 255 255 0.207418 0.872013
-435.754 245.716 -18.6413 0.664018 -0 -0.747717 255 255 255 255 0.20155 0.870138
-449.154 225.985 -30.5413 0.664018 -0 -0.747717 255 255 255 255 0.207418 0.861497
-449.154 -5e-06 -30.5413 0.664018 -0 -0.747717 255 255 255 255 0.207418 0.762537
-449.154 123.728 -30.5413 0.664018 -0 -0.747717 255 255 255 255 0.207418 0.816718
-435.754 -3e-06 -18.6413 0.664018 -0 -0.747717 255 255 255 255 0.20155 0.762537
-449.154 225.985 -30.5413 0.664017 0 -0.747717 255 255 255 255 0.207418 0.861497
-435.754 245.716 -18.6413 0.664017 0 -0.747717 255 255 255 255 0.20155 0.870138
-441.87 164.023 -24.0725 0.664017 0 -0.747717 255 255 255 255 0.204228 0.834364
-435.754 245.716 -18.6413 0.664019 -0 -0.747716 255 255 255 255 0.20155 0.870138
-435.754 -3e-06 -18.6413 0.664019 -0 -0.747716 255 255 255 255 0.20155 0.762537
-441.87 164.023 -24.0725 0.664019 -0 -0.747716 255 255 255 255 0.204228 0.834364
-449.154 123.728 -30.5413 0.664017 -0 -0.747717 255 255 255 255 0.207418 0.816718
-435.754 -3e-06 -18.6413 0.664017 -0 -0.747717 255 255 255 255 0.20155 0.762537
-64.2462 245.717 18.6413 -0 -0 1 255 255 255 255 0.038865 0.63386
-151.189 326.263 18.6413 -0 -0 1 255 255 255 255 0.076938 0.602186
-88.3462 238.013 18.6413 -0 -0 1 255 255 255 255 0.049419 0.63689
-64.2462 245.717 -18.6413 -0 -0 -1 255 255 255 255 0.038865 0.630491
-151.189 326.263 -18.6414 -0 -0 -1 255 255 255 255 0.076938 0.662165
-138.764 350.363 -18.6414 -0 -0 -1 255 255 255 255 0.071497 0.671642
-435.754 245.716 -18.6413 0 -0 -1 255 255 255 255 0.20155 0.630491
-348.811 326.263 -18.6413 0 -0 -1 255 255 255 255 0.163478 0.662165
-411.654 238.013 -18.6413 0 -0 -1 255 255 255 255 0.190997 0.627462
-435.754 245.716 18.6413 -1e-06 1e-06 1 255 255 255 255 0.20155 0.63386
-348.811 326.263 18.6413 -1e-06 1e-06 1 255 255 255 255 0.163478 0.602186
-361.236 350.363 18.6412 -1e-06 1e-06 1 255 255 255 255 0.168918 0.592709
-361.236 350.363 18.6412 0 0 1 255 255 255 255 0.168918 0.592709
-138.764 350.363 18.6412 0 0 1 255 255 255 255 0.071497 0.592709
-138.764 350.363 -18.6414 0 -1e-06 -1 255 255 255 255 0.071497 0.671642
-348.811 326.263 -18.6413 0 -1e-06 -1 255 255 255 255 0.163478 0.662165
-361.236 350.363 -18.6414 0 -1e-06 -1 255 255 255 255 0.168918 0.671642
-64.2462 -3e-06 -18.6413 0 -0 -1 255 255 255 255 0.038865 0.533866
-88.3462 238.013 -18.6413 0 -0 -1 255 255 255 255 0.049419 0.627462
-64.2462 3e-06 18.6413 0 -1 0 255 255 255 255 0.112045 0.624282
-88.3462 -3e-06 -18.6413 0 -1 0 255 255 255 255 0.128371 0.614805
-64.2462 -3e-06 -18.6413 0 -1 0 255 255 255 255 0.128371 0.624282
-64.2462 3e-06 18.6413 0 0 1 255 255 255 255 0.038865 0.730485
-88.3462 3e-06 18.6413 0 0 1 255 255 255 255 0.049419 0.730485
-435.754 3e-06 18.6413 -0 0 1 255 255 255 255 0.20155 0.730485
-411.654 238.012 18.6413 -0 0 1 255 255 255 255 0.190997 0.63689
-435.754 245.716 18.6413 -0 0 1 255 255 255 255 0.20155 0.63386
-435.754 -3e-06 -18.6413 0 -1 0 255 255 255 255 0.128371 0.640069
-411.654 3e-06 18.6413 0 -1 0 255 255 255 255 0.112045 0.649546
-435.754 3e-06 18.6413 0 -1 0 255 255 255 255 0.112045 0.640069
-435.754 -3e-06 -18.6413 0 -0 -1 255 255 255 255 0.20155 0.533866
-411.654 -3e-06 -18.6413 0 -0 -1 255 255 255 255 0.190997 0.533866
-441.87 164.023 -24.0725 0.29385 -0.065015 -0.953638 255 255 255 255 0.204228 0.834364
-464.684 155.793 -30.5413 0.29385 -0.065015 -0.953638 255 255 255 255 0.214219 0.83076
-449.154 225.985 -30.5413 0.29385 -0.065015 -0.953638 255 255 255 255 0.207418 0.861497
-449.154 123.728 -30.5413 0.233128 0.112911 -0.965869 255 255 255 255 0.207418 0.816718
-464.684 155.793 -30.5413 0.233128 0.112911 -0.965869 255 255 255 255 0.214219 0.83076
-441.87 164.023 -24.0725 0.233128 0.112911 -0.965869 255 255 255 255 0.204228 0.834364
-200.183 356.083 -23.7211 -0.093599 -0.305498 -0.947581 255 255 255 255 0.098393 0.918468
-200.957 377.475 -30.5414 -0.093599 -0.305498 -0.947581 255 255 255 255 0.098731 0.927836
-156.203 363.763 -30.5414 -0.093599 -0.305498 -0.947581 255 255 255 255 0.079133 0.921831
-275.055 363.763 -30.5414 0.055784 -0.301457 -0.951846 255 255 255 255 0.13118 0.921831
-200.957 377.475 -30.5414 0.055784 -0.301457 -0.951846 255 255 255 255 0.098731 0.927836
-200.183 356.083 -23.7211 0.055784 -0.301457 -0.951846 255 255 255 255 0.098393 0.918468
-449.154 224.668 30.5413 0.348022 -0.025956 0.937127 255 255 255 255 0.207418 0.883107
-459.406 87.2023 30.5413 0.348022 -0.025956 0.937127 255 255 255 255 0.211908 0.943304
-441.838 88.1956 24.0444 0.348022 -0.025956 0.937127 255 255 255 255 0.204215 0.942868
-441.838 88.1956 24.0444 0.339029 0.112673 0.934004 255 255 255 255 0.204215 0.942868
-459.406 87.2023 30.5413 0.339029 0.112673 0.934004 255 255 255 255 0.211908 0.943304
-449.154 56.3525 30.5413 0.339029 0.112673 0.934004 255 255 255 255 0.207418 0.956813
-287.349 376.56 30.5412 -0.05714 -0.324484 0.944164 255 255 255 255 0.136563 0.816592
-291.996 355.168 22.9079 -0.05714 -0.324484 0.944164 255 255 255 255 0.138598 0.82596
-214.676 363.763 30.5412 -0.05714 -0.324484 0.944164 255 255 255 255 0.104739 0.822196
-342.773 363.763 30.5412 0.080933 -0.350513 0.933054 255 255 255 255 0.160833 0.822196
-291.996 355.168 22.9079 0.080933 -0.350513 0.933054 255 255 255 255 0.138598 0.82596
-287.349 376.56 30.5412 0.080933 -0.350513 0.933054 255 255 255 255 0.136563 0.816592
-149.681 490.432 30.5412 -0.218876 -0.008452 0.975716 255 255 255 255 0.076278 0.766727
-174.92 470.015 24.7028 -0.218876 -0.008452 0.975716 255 255 255 255 0.08733 0.775668
-148.779 467.065 30.5412 -0.218876 -0.008452 0.975716 255 255 255 255 0.075882 0.776959
-148.779 467.065 30.5412 -0.18473 0.246141 0.951467 255 255 255 255 0.075882 0.776959
-174.92 470.015 24.7028 -0.18473 0.246141 0.951467 255 255 255 255 0.08733 0.775668
-172.803 449.035 30.5412 -0.18473 0.246141 0.951467 255 255 255 255 0.086402 0.784855
-250.344 425.367 -30.5414 -0.043235 0.233128 -0.971484 255 255 255 255 0.120359 0.948808
-263.927 446.495 -24.8667 -0.043235 0.233128 -0.971484 255 255 255 255 0.126307 0.95806
-199.721 434.756 -30.5414 -0.043235 0.233128 -0.971484 255 255 255 255 0.09819 0.952919
-270.102 434.756 -30.5414 0.168925 0.355502 -0.919284 255 255 255 255 0.129011 0.952919
-263.927 446.495 -24.8667 0.168925 0.355502 -0.919284 255 255 255 255 0.126307 0.95806
-250.344 425.367 -30.5414 0.168925 0.355502 -0.919284 255 255 255 255 0.120359 0.948808
-39.4655 372.68 32.9443 0.166893 -0.237867 0.956852 255 255 255 255 0.109997 0.899197
-47.2711 391.566 39.0007 0.166893 -0.237867 0.956852 255 255 255 255 0.113415 0.890926
-62.8072 380.666 39.0007 0.166893 -0.237867 0.956852 255 255 255 255 0.120218 0.8957
-22.7438 380.666 39.0007 -0.160392 -0.360901 0.918708 255 255 255 255 0.102674 0.8957
-47.2711 391.566 39.0007 -0.160392 -0.360901 0.918708 255 255 255 255 0.113415 0.890926
-39.4655 372.68 32.9443 -0.160392 -0.360901 0.918708 255 255 255 255 0.109997 0.899197
-125.566 434.756 30.5412 -0.368557 0.171554 0.913638 255 255 255 255 0.147701 0.872014
-105.267 433.311 39.0012 -0.368557 0.171554 0.913638 255 255 255 255 0.138811 0.872646
-79.4182 488.846 39.0007 -0.368557 0.171554 0.913638 255 255 255 255 0.127492 0.848327
3.1e-05 488.846 39.0007 0 0.604277 0.796774 255 255 255 255 0.092715 0.848327
7e-06 500 30.5412 1 -0 -3e-06 255 255 255 255 0.12206 0.900584
3.1e-05 488.846 39.0007 1 -0 -3e-06 255 255 255 255 0.118355 0.8957
3.1e-05 380.666 39.0007 1 -0 -3e-06 255 255 255 255 0.118355 0.848327
-87.1032 369.511 30.5412 -0.522575 -0.256592 0.813066 255 255 255 255 0.130857 0.900584
-79.4182 380.666 39.0007 -0.522575 -0.256592 0.813066 255 255 255 255 0.127492 0.8957
-105.267 433.311 39.0012 -0.522575 -0.256592 0.813066 255 255 255 255 0.138811 0.872646
-79.4182 380.666 -39.0008 0 -0 -1 255 255 255 255 0.127492 0.848327
-125.566 434.756 -30.5414 -0.488568 0.288023 -0.823616 255 255 255 255 0.147701 0.872013
-87.1032 500 -30.5414 -0.488568 0.288023 -0.823616 255 255 255 255 0.130857 0.900584
-79.4182 488.846 -39.0009 -0.488568 0.288023 -0.823616 255 255 255 255 0.127492 0.8957
3.1e-05 488.846 -39.0009 0 0.604277 -0.796774 255 255 255 255 0.092715 0.8957
3.1e-05 380.666 -39.0008 1 0 3e-06 255 255 255 255 0.12206 0.848327
3.1e-05 488.846 -39.0009 1 0 3e-06 255 255 255 255 0.12206 0.8957
7e-06 500 -30.5414 1 0 3e-06 255 255 255 255 0.118355 0.900584
-103.197 428.569 -39.0013 -0.520627 -0.258438 -0.81373 255 255 255 255 0.137905 0.869304
-79.4182 380.666 -39.0008 -0.520627 -0.258438 -0.81373 255 255 255 255 0.127492 0.848327
-87.1032 369.511 -30.5414 -0.520627 -0.258438 -0.81373 255 255 255 255 0.130857 0.843443
3.1e-05 380.666 -39.0008 -0 -0.604277 -0.796774 255 255 255 255 0.092715 0.848327
-420.582 380.666 -39.0008 0 -0 -1 255 255 255 255 0.112923 0.848327
-395.046 436.737 -39.0013 0.522921 0.256264 -0.812947 255 255 255 255 0.101741 0.872881
-420.582 488.846 -39.0009 0.522921 0.256264 -0.812947 255 255 255 255 0.112923 0.8957
-412.897 500 -30.5414 0.522921 0.256264 -0.812947 255 255 255 255 0.109558 0.900584
-500 488.846 -39.0009 0 0.604277 -0.796774 255 255 255 255 0.147701 0.8957
-500 488.846 -39.0009 -1 0 0 255 255 255 255 0.118355 0.8957
-374.434 434.756 -30.5414 0.488568 -0.288024 -0.823616 255 255 255 255 0.092715 0.872013
-412.897 369.511 -30.5414 0.488568 -0.288024 -0.823616 255 255 255 255 0.109558 0.843443
-420.582 380.666 -39.0008 0.488568 -0.288024 -0.823616 255 255 255 255 0.112923 0.848327
-500 380.666 -39.0008 -0 -0.604277 -0.796774 255 255 255 255 0.147701 0.848327
-420.582 380.666 39.0007 0 0 1 255 255 255 255 0.112923 0.8957
-412.897 500 30.5412 0.522192 0.256955 0.813197 255 255 255 255 0.109558 0.843443
-420.582 488.846 39.0007 0.522192 0.256955 0.813197 255 255 255 255 0.112923 0.848327
-395.526 437.925 39.0012 0.522192 0.256955 0.813197 255 255 255 255 0.101951 0.870626
-500 488.846 39.0007 0 0.604277 0.796774 255 255 255 255 0.147701 0.848327
-500 488.846 39.0007 -1 0 0 255 255 255 255 0.12206 0.8957
-374.434 434.756 30.5412 0.348112 -0.152335 0.924993 255 255 255 255 0.092714 0.872013
-395.526 437.925 39.0012 0.348112 -0.152335 0.924993 255 255 255 255 0.101951 0.870626
-420.582 380.666 39.0007 0.348112 -0.152335 0.924993 255 255 255 255 0.112923 0.8957
-500 380.666 39.0007 0 -0.604277 0.796774 255 255 255 255 0.147701 0.8957
-500 5e-06 30.5413 0 -1 0 255 255 255 255 0.106833 0.85267
-151.189 326.263 18.6413 -0.814577 -0.580055 -0 255 255 255 255 0.128371 0.696325
-411.654 238.013 -18.6413 0.814577 -0.580055 0 255 255 255 255 0.128371 0.661622
-348.811 326.263 -18.6413 0.814577 -0.580055 0 255 255 255 255 0.128371 0.696325
-348.811 326.263 18.6413 0.814577 -0.580055 0 255 255 255 255 0.112044 0.696325
-348.811 326.263 18.6413 0 -1 0 255 255 255 255 0.112044 0.59332
-167.206 500 -20.874 -0 -0 -1 255 255 255 255 0.083952 0.730485
-332.794 500 20.8738 0 1 0 255 255 255 255 0.129349 0.835758
-307.484 454.756 20.8738 0 0 1 255 255 255 255 0.14538 0.551658
-500 500 -30.5414 -0 1 0 255 255 255 255 0.106833 0.762537
-144.337 500 -30.5414 -0.379948 0.212213 -0.900336 255 255 255 255 0.073937 0.730485
-180.778 434.756 -30.5414 -0.379948 0.212213 -0.900336 255 255 255 255 0.089895 0.704829
-192.516 454.756 -20.874 -0.379948 0.212213 -0.900336 255 255 255 255 0.095035 0.712694
-355.663 500 -30.5414 0.380451 0.212824 -0.899979 255 255 255 255 0.166478 0.730485
-332.794 500 -20.874 0.380451 0.212824 -0.899979 255 255 255 255 0.156464 0.730485
-307.484 454.756 -20.874 0.380451 0.212824 -0.899979 255 255 255 255 0.14538 0.712694
-355.663 500 30.5412 0.379948 0.212213 0.900336 255 255 255 255 0.166478 0.533866
-319.222 434.756 30.5412 0.379948 0.212213 0.900336 255 255 255 255 0.15052 0.559523
-307.484 454.756 20.8738 0.379948 0.212213 0.900336 255 255 255 255 0.14538 0.551658
-192.516 454.756 20.8738 -0 0.435195 0.900336 255 255 255 255 0.095035 0.551658
-1.7e-05 5e-06 30.5413 1 -0 0 255 255 255 255 0.106833 0.762537
-50.8462 5e-06 30.5413 0 0 1 255 255 255 255 0.032997 0.98149
-88.3462 -3e-06 -18.6413 -1 0 -0 255 255 255 255 0.112045 0.568026
-411.654 3e-06 18.6413 1 -0 0 255 255 255 255 0.112044 0.568026
-500 -5e-06 -30.5413 -1 0 -0 255 255 255 255 0.106833 0.762537
-131.856 363.763 30.5412 -0.540893 -0.385167 0.747717 255 255 255 255 0.068472 0.822196
-64.2462 245.717 -18.6413 -0.540893 -0.385167 -0.747717 255 255 255 255 0.038865 0.870138
-368.144 363.763 -30.5414 0.540893 -0.385167 -0.747717 255 255 255 255 0.171943 0.921831
-449.154 250 30.5413 0.540893 -0.385166 0.747718 255 255 255 255 0.207418 0.872013
-435.754 245.716 18.6413 0.540893 -0.385166 0.747718 255 255 255 255 0.20155 0.87389
-361.236 350.363 18.6412 0.540893 -0.385166 0.747718 255 255 255 255 0.168918 0.828064
-64.2462 -3e-06 -18.6413 -0.664017 -0 -0.747717 255 255 255 255 0.038865 0.762537
-64.2462 3e-06 18.6413 0 -1 0 255 255 255 255 0.112045 0.863223
-50.8462 250 30.5413 -0.664017 0 0.747717 255 255 255 255 0.032997 0.872013
-435.754 -3e-06 -18.6413 0 -1 0 255 255 255 255 0.128371 0.880804
-435.754 245.716 -18.6413 1e-06 -1e-06 -1 255 255 255 255 0.20155 0.630491
-361.236 350.363 -18.6414 1e-06 -1e-06 -1 255 255 255 255 0.168918 0.671642
-348.811 326.263 -18.6413 1e-06 -1e-06 -1 255 255 255 255 0.163478 0.662165
-348.811 326.263 18.6413 -0 0 1 255 255 255 255 0.163478 0.602186
-361.236 350.363 18.6412 0 1e-06 1 255 255 255 255 0.168918 0.592709
-348.811 326.263 18.6413 0 1e-06 1 255 255 255 255 0.163478 0.602186
-151.189 326.263 18.6413 0 1e-06 1 255 255 255 255 0.076938 0.602186
-88.3462 -3e-06 -18.6413 0 -0 -1 255 255 255 255 0.049419 0.533866
-88.3462 3e-06 18.6413 0 -1 0 255 255 255 255 0.112045 0.614805
-411.654 3e-06 18.6413 0 0 1 255 255 255 255 0.190997 0.730485
-411.654 -3e-06 -18.6413 0 -1 0 255 255 255 255 0.128371 0.649546
3 0 1 2 
3 3 4 5 
3 5 4 6 
3 6 4 7 
3 8 9 4 
3 4 9 7 
3 10 11 12 
3 13 14 15 
3 16 17 18 
3 19 20 21 
3 22 23 24 
3 23 25 24 
3 26 27 28 
3 25 29 30 
3 30 29 31 
3 32 33 34 
3 35 36 37 
3 38 39 40 
3 41 42 43 
3 44 45 46 
3 47 48 49 
3 50 51 52 
3 53 54 55 
3 56 57 58 
3 59 60 61 
3 62 63 64 
3 65 66 67 
3 68 69 70 
3 71 72 73 
3 74 75 76 
3 77 78 79 
3 80 81 82 
3 83 84 85 
3 86 87 88 
3 89 90 91 
3 92 93 94 
3 95 96 97 
3 98 99 100 
3 101 102 103 
3 104 105 106 
3 107 108 109 
3 110 111 112 
3 113 114 115 
3 116 117 118 
3 119 120 121 
3 122 116 118 
3 104 123 105 
3 107 124 125 
3 106 105 126 
3 127 128 129 
3 130 131 132 
3 105 133 134 
3 107 125 108 
3 119 135 120 
3 136 137 138 
3 139 140 141 
3 142 143 144 
3 145 146 147 
3 119 148 135 
3 149 150 151 
3 118 117 152 
3 120 135 153 
3 125 154 108 
3 154 155 108 
3 135 156 153 
3 157 158 159 
3 153 160 155 
3 160 161 155 
3 161 108 155 
3 116 162 117 
3 104 106 163 
3 162 164 117 
3 117 164 106 
3 164 163 106 
3 165 166 167 
3 168 169 170 
3 171 172 173 
3 174 175 176 
3 175 177 176 
3 172 178 173 
3 179 180 181 
3 151 139 149 
3 145 140 182 
3 183 184 185 
3 186 187 188 
3 189 190 191 
3 190 192 191 
3 193 194 195 
3 196 197 198 
3 199 200 201 
3 202 203 204 
3 123 205 105 
3 206 207 208 
3 124 209 210 
3 211 212 213 
3 118 214 122 
3 122 214 215 
3 215 214 216 
3 216 214 217 
3 214 218 217 
3 219 220 221 
3 119 121 222 
3 121 223 222 
3 224 225 226 
3 227 228 222 
3 228 229 222 
3 230 231 232 
3 233 234 235 
3 236 237 238 
3 239 240 241 
3 242 243 244 
3 245 246 247 
3 247 246 248 
3 249 250 251 
3 252 248 253 
3 254 255 256 
3 257 258 259 
3 259 258 260 
3 258 256 260 
3 255 260 256 
3 261 262 263 
3 264 265 96 
3 266 267 268 
3 269 270 271 
3 271 270 272 
3 273 274 275 
3 276 277 272 
3 277 278 272 
3 100 279 98 
3 280 281 282 
3 283 284 285 
3 286 287 288 
3 289 290 291 
3 292 288 293 
3 294 295 296 
3 297 298 299 
3 300 301 302 
3 303 304 305 
3 306 295 307 
3 308 309 310 
3 311 312 297 
3 313 314 315 
3 316 296 317 
3 318 319 320 
3 321 322 323 
3 324 302 325 
3 326 327 328 
3 329 330 331 
3 332 333 334 
3 335 336 337 
3 338 339 340 
3 341 342 343 
3 344 345 346 
3 347 348 349 
3 350 351 352 
3 353 354 355 
3 356 357 358 
3 359 360 361 
3 362 363 364 
3 365 366 367 
3 368 369 370 
3 13 371 14 
3 372 373 374 
3 375 376 377 
3 35 378 36 
3 379 380 381 
3 41 382 42 
3 383 384 385 
3 386 387 388 
3 50 389 51 
3 56 390 57 
3 391 392 393 
3 62 394 63 
3 65 395 66 
3 396 397 398 
3 71 399 72 
3 77 400 78 
3 401 402 403 
3 83 404 84 
3 86 405 87 
3 406 407 408 
3 92 409 93 
3 95 264 96 
3 98 410 99 
3 101 411 102 
3 412 413 414 
3 113 415 114 
3 136 416 137 
3 139 417 140 
3 142 418 143 
3 145 182 146 
3 149 419 150 
3 420 421 422 
3 423 424 425 
3 151 417 139 
3 145 141 140 
3 426 427 428 
3 186 429 187 
3 202 430 203 
3 123 431 205 
3 206 432 207 
3 124 107 209 
3 211 433 212 
3 219 434 220 
3 230 435 231 
3 233 436 234 
3 236 437 237 
3 438 439 440 
3 261 441 262 
3 264 442 265 
3 266 443 267 
3 100 444 279 
3 294 307 295 
3 297 312 298 
3 445 446 447 
3 320 319 448 
3 449 450 451 
3 299 298 301 
3 311 452 312 
3 313 453 314 
3 316 294 296 
3 318 454 319 
3 321 455 322 
3 324 300 302 
